  0
SECTION
  2
HEADER
  9
$ANGBASE
  50
0.0
  9
$ANGDIR
  70
1
  9
$MEASUREMENT
  70
1
  0
ENDSEC
  0
SECTION
  2
TABLES
  0
TABLE
  2
LTYPE
  70
4
  0
LTYPE
  5
40F
  2
CONTINUOUS
  70
0
  3
Solid line
  72
65
  73
0
  40
0.0
  0
LTYPE
  5
410
  2
DASHDOT
 70
0
  3
Dash Dot ____ _ ____ _
 72
65
 73
4
 40
2.0
 49
1.25
 49
-0.25
 49
0.25
 49
-0.25
  0
LTYPE
  5
411
  2
DASHED
 70
0
  3
Dashed __ __ __ __ __
 72
65
 73
2
 40
0.75
 49
0.5
 49
-0.25
  0
LTYPE
  5
43B
  2
DOTTED
 70
0
  3
Dotted .  .  .  .
 72
65
 73
2
 40
0.2
 49
0.0
 49
-0.2
  0
ENDTAB
  0
TABLE
  2
STYLE
  70
4
  0
STYLE
  2
KICAD
  70
0
  40
0
  41
1
  42
1
  50
0
  71
0
  3
isocp.shx
  0
STYLE
  2
KICADB
  70
0
  40
0
  41
1
  42
1
  50
0
  71
0
  3
isocp.shx
  0
STYLE
  2
KICADI
  70
0
  40
0
  41
1
  42
1
  50
15
  71
0
  3
isocp.shx
  0
STYLE
  2
KICADBI
  70
0
  40
0
  41
1
  42
1
  50
15
  71
0
  3
isocp.shx
  0
ENDTAB
  0
TABLE
  2
LAYER
  70
1
  0
LAYER
  2
BLACK
  70
0
  62
7
  6
CONTINUOUS
  0
ENDTAB
  0
ENDSEC
  0
SECTION
  2
ENTITIES
0
LINE
8
BLACK
6
CONTINUOUS
10
165.4
20
-142.73
11
164.1
21
-142.73
0
LINE
8
BLACK
6
CONTINUOUS
10
164.1
20
-142.73
11
164.1
21
-140.93
0
LINE
8
BLACK
6
CONTINUOUS
10
164.1
20
-140.93
11
165.4
21
-140.93
0
LINE
8
BLACK
6
CONTINUOUS
10
165.4
20
-140.93
11
165.4
21
-142.73
0
LINE
8
BLACK
6
CONTINUOUS
10
177.7
20
-142.73
11
176.4
21
-142.73
0
LINE
8
BLACK
6
CONTINUOUS
10
176.4
20
-142.73
11
176.4
21
-140.93
0
LINE
8
BLACK
6
CONTINUOUS
10
176.4
20
-140.93
11
177.7
21
-140.93
0
LINE
8
BLACK
6
CONTINUOUS
10
177.7
20
-140.93
11
177.7
21
-142.73
0
LINE
8
BLACK
6
CONTINUOUS
10
111.175
20
-139.275
11
109.925
21
-139.275
0
LINE
8
BLACK
6
CONTINUOUS
10
109.925
20
-139.275
11
109.925
21
-138.075
0
LINE
8
BLACK
6
CONTINUOUS
10
109.925
20
-138.075
11
111.175
21
-138.075
0
LINE
8
BLACK
6
CONTINUOUS
10
111.175
20
-138.075
11
111.175
21
-139.275
0
LINE
8
BLACK
6
CONTINUOUS
10
112.875
20
-139.275
11
111.625
21
-139.275
0
LINE
8
BLACK
6
CONTINUOUS
10
111.625
20
-139.275
11
111.625
21
-138.075
0
LINE
8
BLACK
6
CONTINUOUS
10
111.625
20
-138.075
11
112.875
21
-138.075
0
LINE
8
BLACK
6
CONTINUOUS
10
112.875
20
-138.075
11
112.875
21
-139.275
0
LINE
8
BLACK
6
CONTINUOUS
10
114.575
20
-139.275
11
113.325
21
-139.275
0
LINE
8
BLACK
6
CONTINUOUS
10
113.325
20
-139.275
11
113.325
21
-138.075
0
LINE
8
BLACK
6
CONTINUOUS
10
113.325
20
-138.075
11
114.575
21
-138.075
0
LINE
8
BLACK
6
CONTINUOUS
10
114.575
20
-138.075
11
114.575
21
-139.275
0
LINE
8
BLACK
6
CONTINUOUS
10
111.175
20
-137.615
11
109.925
21
-137.615
0
LINE
8
BLACK
6
CONTINUOUS
10
109.925
20
-137.615
11
109.925
21
-136.415
0
LINE
8
BLACK
6
CONTINUOUS
10
109.925
20
-136.415
11
111.175
21
-136.415
0
LINE
8
BLACK
6
CONTINUOUS
10
111.175
20
-136.415
11
111.175
21
-137.615
0
LINE
8
BLACK
6
CONTINUOUS
10
112.875
20
-137.615
11
111.625
21
-137.615
0
LINE
8
BLACK
6
CONTINUOUS
10
111.625
20
-137.615
11
111.625
21
-136.415
0
LINE
8
BLACK
6
CONTINUOUS
10
111.625
20
-136.415
11
112.875
21
-136.415
0
LINE
8
BLACK
6
CONTINUOUS
10
112.875
20
-136.415
11
112.875
21
-137.615
0
LINE
8
BLACK
6
CONTINUOUS
10
114.575
20
-137.615
11
113.325
21
-137.615
0
LINE
8
BLACK
6
CONTINUOUS
10
113.325
20
-137.615
11
113.325
21
-136.415
0
LINE
8
BLACK
6
CONTINUOUS
10
113.325
20
-136.415
11
114.575
21
-136.415
0
LINE
8
BLACK
6
CONTINUOUS
10
114.575
20
-136.415
11
114.575
21
-137.615
0
LINE
8
BLACK
6
CONTINUOUS
10
111.175
20
-135.925
11
109.925
21
-135.925
0
LINE
8
BLACK
6
CONTINUOUS
10
109.925
20
-135.925
11
109.925
21
-134.725
0
LINE
8
BLACK
6
CONTINUOUS
10
109.925
20
-134.725
11
111.175
21
-134.725
0
LINE
8
BLACK
6
CONTINUOUS
10
111.175
20
-134.725
11
111.175
21
-135.925
0
LINE
8
BLACK
6
CONTINUOUS
10
112.875
20
-135.925
11
111.625
21
-135.925
0
LINE
8
BLACK
6
CONTINUOUS
10
111.625
20
-135.925
11
111.625
21
-134.725
0
LINE
8
BLACK
6
CONTINUOUS
10
111.625
20
-134.725
11
112.875
21
-134.725
0
LINE
8
BLACK
6
CONTINUOUS
10
112.875
20
-134.725
11
112.875
21
-135.925
0
LINE
8
BLACK
6
CONTINUOUS
10
114.575
20
-135.925
11
113.325
21
-135.925
0
LINE
8
BLACK
6
CONTINUOUS
10
113.325
20
-135.925
11
113.325
21
-134.725
0
LINE
8
BLACK
6
CONTINUOUS
10
113.325
20
-134.725
11
114.575
21
-134.725
0
LINE
8
BLACK
6
CONTINUOUS
10
114.575
20
-134.725
11
114.575
21
-135.925
0
LINE
8
BLACK
6
CONTINUOUS
10
165.4
20
-133.93
11
164.1
21
-133.93
0
LINE
8
BLACK
6
CONTINUOUS
10
164.1
20
-133.93
11
164.1
21
-132.13
0
LINE
8
BLACK
6
CONTINUOUS
10
164.1
20
-132.13
11
165.4
21
-132.13
0
LINE
8
BLACK
6
CONTINUOUS
10
165.4
20
-132.13
11
165.4
21
-133.93
0
LINE
8
BLACK
6
CONTINUOUS
10
177.7
20
-133.93
11
176.4
21
-133.93
0
LINE
8
BLACK
6
CONTINUOUS
10
176.4
20
-133.93
11
176.4
21
-132.13
0
LINE
8
BLACK
6
CONTINUOUS
10
176.4
20
-132.13
11
177.7
21
-132.13
0
LINE
8
BLACK
6
CONTINUOUS
10
177.7
20
-132.13
11
177.7
21
-133.93
0
LINE
8
BLACK
6
CONTINUOUS
10
111.91
20
-133.845
11
110.51
21
-133.845
0
LINE
8
BLACK
6
CONTINUOUS
10
110.51
20
-133.845
11
110.51
21
-132.575
0
LINE
8
BLACK
6
CONTINUOUS
10
110.51
20
-132.575
11
111.91
21
-132.575
0
LINE
8
BLACK
6
CONTINUOUS
10
111.91
20
-132.575
11
111.91
21
-133.845
0
LINE
8
BLACK
6
CONTINUOUS
10
113.99
20
-133.845
11
112.59
21
-133.845
0
LINE
8
BLACK
6
CONTINUOUS
10
112.59
20
-133.845
11
112.59
21
-132.575
0
LINE
8
BLACK
6
CONTINUOUS
10
112.59
20
-132.575
11
113.99
21
-132.575
0
LINE
8
BLACK
6
CONTINUOUS
10
113.99
20
-132.575
11
113.99
21
-133.845
0
LINE
8
BLACK
6
CONTINUOUS
10
111.471
20
-130.419
11
111.552
21
-130.473
0
LINE
8
BLACK
6
CONTINUOUS
10
111.552
20
-130.473
11
111.606
21
-130.554
0
LINE
8
BLACK
6
CONTINUOUS
10
111.606
20
-130.554
11
111.625
21
-130.65
0
LINE
8
BLACK
6
CONTINUOUS
10
111.625
20
-130.65
11
111.625
21
-131.4
0
LINE
8
BLACK
6
CONTINUOUS
10
111.625
20
-131.4
11
111.606
21
-131.496
0
LINE
8
BLACK
6
CONTINUOUS
10
111.606
20
-131.496
11
111.552
21
-131.577
0
LINE
8
BLACK
6
CONTINUOUS
10
111.552
20
-131.577
11
111.471
21
-131.631
0
LINE
8
BLACK
6
CONTINUOUS
10
111.471
20
-131.631
11
111.375
21
-131.65
0
LINE
8
BLACK
6
CONTINUOUS
10
111.375
20
-131.65
11
110.125
21
-131.65
0
LINE
8
BLACK
6
CONTINUOUS
10
110.125
20
-131.65
11
110.029
21
-131.631
0
LINE
8
BLACK
6
CONTINUOUS
10
110.029
20
-131.631
11
109.948
21
-131.577
0
LINE
8
BLACK
6
CONTINUOUS
10
109.948
20
-131.577
11
109.894
21
-131.496
0
LINE
8
BLACK
6
CONTINUOUS
10
109.894
20
-131.496
11
109.875
21
-131.4
0
LINE
8
BLACK
6
CONTINUOUS
10
109.875
20
-131.4
11
109.875
21
-130.65
0
LINE
8
BLACK
6
CONTINUOUS
10
109.875
20
-130.65
11
109.894
21
-130.554
0
LINE
8
BLACK
6
CONTINUOUS
10
109.894
20
-130.554
11
109.948
21
-130.473
0
LINE
8
BLACK
6
CONTINUOUS
10
109.948
20
-130.473
11
110.029
21
-130.419
0
LINE
8
BLACK
6
CONTINUOUS
10
110.029
20
-130.419
11
110.125
21
-130.4
0
LINE
8
BLACK
6
CONTINUOUS
10
110.125
20
-130.4
11
111.375
21
-130.4
0
LINE
8
BLACK
6
CONTINUOUS
10
111.375
20
-130.4
11
111.471
21
-130.419
0
LINE
8
BLACK
6
CONTINUOUS
10
113.696
20
-130.519
11
113.777
21
-130.573
0
LINE
8
BLACK
6
CONTINUOUS
10
113.777
20
-130.573
11
113.831
21
-130.654
0
LINE
8
BLACK
6
CONTINUOUS
10
113.831
20
-130.654
11
113.85
21
-130.75
0
LINE
8
BLACK
6
CONTINUOUS
10
113.85
20
-130.75
11
113.85
21
-131.35
0
LINE
8
BLACK
6
CONTINUOUS
10
113.85
20
-131.35
11
113.831
21
-131.446
0
LINE
8
BLACK
6
CONTINUOUS
10
113.831
20
-131.446
11
113.777
21
-131.527
0
LINE
8
BLACK
6
CONTINUOUS
10
113.777
20
-131.527
11
113.696
21
-131.581
0
LINE
8
BLACK
6
CONTINUOUS
10
113.696
20
-131.581
11
113.6
21
-131.6
0
LINE
8
BLACK
6
CONTINUOUS
10
113.6
20
-131.6
11
113
21
-131.6
0
LINE
8
BLACK
6
CONTINUOUS
10
113
20
-131.6
11
112.904
21
-131.581
0
LINE
8
BLACK
6
CONTINUOUS
10
112.904
20
-131.581
11
112.823
21
-131.527
0
LINE
8
BLACK
6
CONTINUOUS
10
112.823
20
-131.527
11
112.769
21
-131.446
0
LINE
8
BLACK
6
CONTINUOUS
10
112.769
20
-131.446
11
112.75
21
-131.35
0
LINE
8
BLACK
6
CONTINUOUS
10
112.75
20
-131.35
11
112.75
21
-130.75
0
LINE
8
BLACK
6
CONTINUOUS
10
112.75
20
-130.75
11
112.769
21
-130.654
0
LINE
8
BLACK
6
CONTINUOUS
10
112.769
20
-130.654
11
112.823
21
-130.573
0
LINE
8
BLACK
6
CONTINUOUS
10
112.823
20
-130.573
11
112.904
21
-130.519
0
LINE
8
BLACK
6
CONTINUOUS
10
112.904
20
-130.519
11
113
21
-130.5
0
LINE
8
BLACK
6
CONTINUOUS
10
113
20
-130.5
11
113.6
21
-130.5
0
LINE
8
BLACK
6
CONTINUOUS
10
113.6
20
-130.5
11
113.696
21
-130.519
0
LINE
8
BLACK
6
CONTINUOUS
10
168.17
20
-129.53
11
167.27
21
-129.53
0
LINE
8
BLACK
6
CONTINUOUS
10
167.27
20
-129.53
11
167.27
21
-128.33
0
LINE
8
BLACK
6
CONTINUOUS
10
167.27
20
-128.33
11
168.17
21
-128.33
0
LINE
8
BLACK
6
CONTINUOUS
10
168.17
20
-128.33
11
168.17
21
-129.53
0
LINE
8
BLACK
6
CONTINUOUS
10
169.44
20
-129.53
11
168.54
21
-129.53
0
LINE
8
BLACK
6
CONTINUOUS
10
168.54
20
-129.53
11
168.54
21
-128.33
0
LINE
8
BLACK
6
CONTINUOUS
10
168.54
20
-128.33
11
169.44
21
-128.33
0
LINE
8
BLACK
6
CONTINUOUS
10
169.44
20
-128.33
11
169.44
21
-129.53
0
LINE
8
BLACK
6
CONTINUOUS
10
170.71
20
-129.53
11
169.81
21
-129.53
0
LINE
8
BLACK
6
CONTINUOUS
10
169.81
20
-129.53
11
169.81
21
-128.33
0
LINE
8
BLACK
6
CONTINUOUS
10
169.81
20
-128.33
11
170.71
21
-128.33
0
LINE
8
BLACK
6
CONTINUOUS
10
170.71
20
-128.33
11
170.71
21
-129.53
0
LINE
8
BLACK
6
CONTINUOUS
10
171.98
20
-129.53
11
171.08
21
-129.53
0
LINE
8
BLACK
6
CONTINUOUS
10
171.08
20
-129.53
11
171.08
21
-128.33
0
LINE
8
BLACK
6
CONTINUOUS
10
171.08
20
-128.33
11
171.98
21
-128.33
0
LINE
8
BLACK
6
CONTINUOUS
10
171.98
20
-128.33
11
171.98
21
-129.53
0
LINE
8
BLACK
6
CONTINUOUS
10
173.25
20
-129.53
11
172.35
21
-129.53
0
LINE
8
BLACK
6
CONTINUOUS
10
172.35
20
-129.53
11
172.35
21
-128.33
0
LINE
8
BLACK
6
CONTINUOUS
10
172.35
20
-128.33
11
173.25
21
-128.33
0
LINE
8
BLACK
6
CONTINUOUS
10
173.25
20
-128.33
11
173.25
21
-129.53
0
LINE
8
BLACK
6
CONTINUOUS
10
174.52
20
-129.53
11
173.62
21
-129.53
0
LINE
8
BLACK
6
CONTINUOUS
10
173.62
20
-129.53
11
173.62
21
-128.33
0
LINE
8
BLACK
6
CONTINUOUS
10
173.62
20
-128.33
11
174.52
21
-128.33
0
LINE
8
BLACK
6
CONTINUOUS
10
174.52
20
-128.33
11
174.52
21
-129.53
0
LINE
8
BLACK
6
CONTINUOUS
10
111.471
20
-127.619
11
111.552
21
-127.673
0
LINE
8
BLACK
6
CONTINUOUS
10
111.552
20
-127.673
11
111.606
21
-127.754
0
LINE
8
BLACK
6
CONTINUOUS
10
111.606
20
-127.754
11
111.625
21
-127.85
0
LINE
8
BLACK
6
CONTINUOUS
10
111.625
20
-127.85
11
111.625
21
-128.6
0
LINE
8
BLACK
6
CONTINUOUS
10
111.625
20
-128.6
11
111.606
21
-128.696
0
LINE
8
BLACK
6
CONTINUOUS
10
111.606
20
-128.696
11
111.552
21
-128.777
0
LINE
8
BLACK
6
CONTINUOUS
10
111.552
20
-128.777
11
111.471
21
-128.831
0
LINE
8
BLACK
6
CONTINUOUS
10
111.471
20
-128.831
11
111.375
21
-128.85
0
LINE
8
BLACK
6
CONTINUOUS
10
111.375
20
-128.85
11
110.125
21
-128.85
0
LINE
8
BLACK
6
CONTINUOUS
10
110.125
20
-128.85
11
110.029
21
-128.831
0
LINE
8
BLACK
6
CONTINUOUS
10
110.029
20
-128.831
11
109.948
21
-128.777
0
LINE
8
BLACK
6
CONTINUOUS
10
109.948
20
-128.777
11
109.894
21
-128.696
0
LINE
8
BLACK
6
CONTINUOUS
10
109.894
20
-128.696
11
109.875
21
-128.6
0
LINE
8
BLACK
6
CONTINUOUS
10
109.875
20
-128.6
11
109.875
21
-127.85
0
LINE
8
BLACK
6
CONTINUOUS
10
109.875
20
-127.85
11
109.894
21
-127.754
0
LINE
8
BLACK
6
CONTINUOUS
10
109.894
20
-127.754
11
109.948
21
-127.673
0
LINE
8
BLACK
6
CONTINUOUS
10
109.948
20
-127.673
11
110.029
21
-127.619
0
LINE
8
BLACK
6
CONTINUOUS
10
110.029
20
-127.619
11
110.125
21
-127.6
0
LINE
8
BLACK
6
CONTINUOUS
10
110.125
20
-127.6
11
111.375
21
-127.6
0
LINE
8
BLACK
6
CONTINUOUS
10
111.375
20
-127.6
11
111.471
21
-127.619
0
LINE
8
BLACK
6
CONTINUOUS
10
113.696
20
-127.719
11
113.777
21
-127.773
0
LINE
8
BLACK
6
CONTINUOUS
10
113.777
20
-127.773
11
113.831
21
-127.854
0
LINE
8
BLACK
6
CONTINUOUS
10
113.831
20
-127.854
11
113.85
21
-127.95
0
LINE
8
BLACK
6
CONTINUOUS
10
113.85
20
-127.95
11
113.85
21
-128.55
0
LINE
8
BLACK
6
CONTINUOUS
10
113.85
20
-128.55
11
113.831
21
-128.646
0
LINE
8
BLACK
6
CONTINUOUS
10
113.831
20
-128.646
11
113.777
21
-128.727
0
LINE
8
BLACK
6
CONTINUOUS
10
113.777
20
-128.727
11
113.696
21
-128.781
0
LINE
8
BLACK
6
CONTINUOUS
10
113.696
20
-128.781
11
113.6
21
-128.8
0
LINE
8
BLACK
6
CONTINUOUS
10
113.6
20
-128.8
11
113
21
-128.8
0
LINE
8
BLACK
6
CONTINUOUS
10
113
20
-128.8
11
112.904
21
-128.781
0
LINE
8
BLACK
6
CONTINUOUS
10
112.904
20
-128.781
11
112.823
21
-128.727
0
LINE
8
BLACK
6
CONTINUOUS
10
112.823
20
-128.727
11
112.769
21
-128.646
0
LINE
8
BLACK
6
CONTINUOUS
10
112.769
20
-128.646
11
112.75
21
-128.55
0
LINE
8
BLACK
6
CONTINUOUS
10
112.75
20
-128.55
11
112.75
21
-127.95
0
LINE
8
BLACK
6
CONTINUOUS
10
112.75
20
-127.95
11
112.769
21
-127.854
0
LINE
8
BLACK
6
CONTINUOUS
10
112.769
20
-127.854
11
112.823
21
-127.773
0
LINE
8
BLACK
6
CONTINUOUS
10
112.823
20
-127.773
11
112.904
21
-127.719
0
LINE
8
BLACK
6
CONTINUOUS
10
112.904
20
-127.719
11
113
21
-127.7
0
LINE
8
BLACK
6
CONTINUOUS
10
113
20
-127.7
11
113.6
21
-127.7
0
LINE
8
BLACK
6
CONTINUOUS
10
113.6
20
-127.7
11
113.696
21
-127.719
0
LINE
8
BLACK
6
CONTINUOUS
10
103.237
20
-121.776
11
103.286
21
-121.809
0
LINE
8
BLACK
6
CONTINUOUS
10
103.286
20
-121.809
11
103.319
21
-121.858
0
LINE
8
BLACK
6
CONTINUOUS
10
103.319
20
-121.858
11
103.33
21
-121.915
0
LINE
8
BLACK
6
CONTINUOUS
10
103.33
20
-121.915
11
103.33
21
-122.94
0
LINE
8
BLACK
6
CONTINUOUS
10
103.33
20
-122.94
11
103.319
21
-122.997
0
LINE
8
BLACK
6
CONTINUOUS
10
103.319
20
-122.997
11
103.286
21
-123.046
0
LINE
8
BLACK
6
CONTINUOUS
10
103.286
20
-123.046
11
103.237
21
-123.079
0
LINE
8
BLACK
6
CONTINUOUS
10
103.237
20
-123.079
11
103.18
21
-123.09
0
LINE
8
BLACK
6
CONTINUOUS
10
103.18
20
-123.09
11
102.88
21
-123.09
0
LINE
8
BLACK
6
CONTINUOUS
10
102.88
20
-123.09
11
102.823
21
-123.079
0
LINE
8
BLACK
6
CONTINUOUS
10
102.823
20
-123.079
11
102.774
21
-123.046
0
LINE
8
BLACK
6
CONTINUOUS
10
102.774
20
-123.046
11
102.741
21
-122.997
0
LINE
8
BLACK
6
CONTINUOUS
10
102.741
20
-122.997
11
102.73
21
-122.94
0
LINE
8
BLACK
6
CONTINUOUS
10
102.73
20
-122.94
11
102.73
21
-121.915
0
LINE
8
BLACK
6
CONTINUOUS
10
102.73
20
-121.915
11
102.741
21
-121.858
0
LINE
8
BLACK
6
CONTINUOUS
10
102.741
20
-121.858
11
102.774
21
-121.809
0
LINE
8
BLACK
6
CONTINUOUS
10
102.774
20
-121.809
11
102.823
21
-121.776
0
LINE
8
BLACK
6
CONTINUOUS
10
102.823
20
-121.776
11
102.88
21
-121.765
0
LINE
8
BLACK
6
CONTINUOUS
10
102.88
20
-121.765
11
103.18
21
-121.765
0
LINE
8
BLACK
6
CONTINUOUS
10
103.18
20
-121.765
11
103.237
21
-121.776
0
LINE
8
BLACK
6
CONTINUOUS
10
104.187
20
-121.776
11
104.236
21
-121.809
0
LINE
8
BLACK
6
CONTINUOUS
10
104.236
20
-121.809
11
104.269
21
-121.858
0
LINE
8
BLACK
6
CONTINUOUS
10
104.269
20
-121.858
11
104.28
21
-121.915
0
LINE
8
BLACK
6
CONTINUOUS
10
104.28
20
-121.915
11
104.28
21
-122.94
0
LINE
8
BLACK
6
CONTINUOUS
10
104.28
20
-122.94
11
104.269
21
-122.997
0
LINE
8
BLACK
6
CONTINUOUS
10
104.269
20
-122.997
11
104.236
21
-123.046
0
LINE
8
BLACK
6
CONTINUOUS
10
104.236
20
-123.046
11
104.187
21
-123.079
0
LINE
8
BLACK
6
CONTINUOUS
10
104.187
20
-123.079
11
104.13
21
-123.09
0
LINE
8
BLACK
6
CONTINUOUS
10
104.13
20
-123.09
11
103.83
21
-123.09
0
LINE
8
BLACK
6
CONTINUOUS
10
103.83
20
-123.09
11
103.773
21
-123.079
0
LINE
8
BLACK
6
CONTINUOUS
10
103.773
20
-123.079
11
103.724
21
-123.046
0
LINE
8
BLACK
6
CONTINUOUS
10
103.724
20
-123.046
11
103.691
21
-122.997
0
LINE
8
BLACK
6
CONTINUOUS
10
103.691
20
-122.997
11
103.68
21
-122.94
0
LINE
8
BLACK
6
CONTINUOUS
10
103.68
20
-122.94
11
103.68
21
-121.915
0
LINE
8
BLACK
6
CONTINUOUS
10
103.68
20
-121.915
11
103.691
21
-121.858
0
LINE
8
BLACK
6
CONTINUOUS
10
103.691
20
-121.858
11
103.724
21
-121.809
0
LINE
8
BLACK
6
CONTINUOUS
10
103.724
20
-121.809
11
103.773
21
-121.776
0
LINE
8
BLACK
6
CONTINUOUS
10
103.773
20
-121.776
11
103.83
21
-121.765
0
LINE
8
BLACK
6
CONTINUOUS
10
103.83
20
-121.765
11
104.13
21
-121.765
0
LINE
8
BLACK
6
CONTINUOUS
10
104.13
20
-121.765
11
104.187
21
-121.776
0
LINE
8
BLACK
6
CONTINUOUS
10
105.137
20
-121.776
11
105.186
21
-121.809
0
LINE
8
BLACK
6
CONTINUOUS
10
105.186
20
-121.809
11
105.219
21
-121.858
0
LINE
8
BLACK
6
CONTINUOUS
10
105.219
20
-121.858
11
105.23
21
-121.915
0
LINE
8
BLACK
6
CONTINUOUS
10
105.23
20
-121.915
11
105.23
21
-122.94
0
LINE
8
BLACK
6
CONTINUOUS
10
105.23
20
-122.94
11
105.219
21
-122.997
0
LINE
8
BLACK
6
CONTINUOUS
10
105.219
20
-122.997
11
105.186
21
-123.046
0
LINE
8
BLACK
6
CONTINUOUS
10
105.186
20
-123.046
11
105.137
21
-123.079
0
LINE
8
BLACK
6
CONTINUOUS
10
105.137
20
-123.079
11
105.08
21
-123.09
0
LINE
8
BLACK
6
CONTINUOUS
10
105.08
20
-123.09
11
104.78
21
-123.09
0
LINE
8
BLACK
6
CONTINUOUS
10
104.78
20
-123.09
11
104.723
21
-123.079
0
LINE
8
BLACK
6
CONTINUOUS
10
104.723
20
-123.079
11
104.674
21
-123.046
0
LINE
8
BLACK
6
CONTINUOUS
10
104.674
20
-123.046
11
104.641
21
-122.997
0
LINE
8
BLACK
6
CONTINUOUS
10
104.641
20
-122.997
11
104.63
21
-122.94
0
LINE
8
BLACK
6
CONTINUOUS
10
104.63
20
-122.94
11
104.63
21
-121.915
0
LINE
8
BLACK
6
CONTINUOUS
10
104.63
20
-121.915
11
104.641
21
-121.858
0
LINE
8
BLACK
6
CONTINUOUS
10
104.641
20
-121.858
11
104.674
21
-121.809
0
LINE
8
BLACK
6
CONTINUOUS
10
104.674
20
-121.809
11
104.723
21
-121.776
0
LINE
8
BLACK
6
CONTINUOUS
10
104.723
20
-121.776
11
104.78
21
-121.765
0
LINE
8
BLACK
6
CONTINUOUS
10
104.78
20
-121.765
11
105.08
21
-121.765
0
LINE
8
BLACK
6
CONTINUOUS
10
105.08
20
-121.765
11
105.137
21
-121.776
0
LINE
8
BLACK
6
CONTINUOUS
10
168.621
20
-118.694
11
168.702
21
-118.748
0
LINE
8
BLACK
6
CONTINUOUS
10
168.702
20
-118.748
11
168.756
21
-118.829
0
LINE
8
BLACK
6
CONTINUOUS
10
168.756
20
-118.829
11
168.775
21
-118.925
0
LINE
8
BLACK
6
CONTINUOUS
10
168.775
20
-118.925
11
168.775
21
-120.775
0
LINE
8
BLACK
6
CONTINUOUS
10
168.775
20
-120.775
11
168.756
21
-120.871
0
LINE
8
BLACK
6
CONTINUOUS
10
168.756
20
-120.871
11
168.702
21
-120.952
0
LINE
8
BLACK
6
CONTINUOUS
10
168.702
20
-120.952
11
168.621
21
-121.006
0
LINE
8
BLACK
6
CONTINUOUS
10
168.621
20
-121.006
11
168.525
21
-121.025
0
LINE
8
BLACK
6
CONTINUOUS
10
168.525
20
-121.025
11
166.95
21
-121.025
0
LINE
8
BLACK
6
CONTINUOUS
10
166.95
20
-121.025
11
166.854
21
-121.006
0
LINE
8
BLACK
6
CONTINUOUS
10
166.854
20
-121.006
11
166.773
21
-120.952
0
LINE
8
BLACK
6
CONTINUOUS
10
166.773
20
-120.952
11
166.719
21
-120.871
0
LINE
8
BLACK
6
CONTINUOUS
10
166.719
20
-120.871
11
166.7
21
-120.775
0
LINE
8
BLACK
6
CONTINUOUS
10
166.7
20
-120.775
11
166.7
21
-118.925
0
LINE
8
BLACK
6
CONTINUOUS
10
166.7
20
-118.925
11
166.719
21
-118.829
0
LINE
8
BLACK
6
CONTINUOUS
10
166.719
20
-118.829
11
166.773
21
-118.748
0
LINE
8
BLACK
6
CONTINUOUS
10
166.773
20
-118.748
11
166.854
21
-118.694
0
LINE
8
BLACK
6
CONTINUOUS
10
166.854
20
-118.694
11
166.95
21
-118.675
0
LINE
8
BLACK
6
CONTINUOUS
10
166.95
20
-118.675
11
168.525
21
-118.675
0
LINE
8
BLACK
6
CONTINUOUS
10
168.525
20
-118.675
11
168.621
21
-118.694
0
LINE
8
BLACK
6
CONTINUOUS
10
173.546
20
-118.694
11
173.627
21
-118.748
0
LINE
8
BLACK
6
CONTINUOUS
10
173.627
20
-118.748
11
173.681
21
-118.829
0
LINE
8
BLACK
6
CONTINUOUS
10
173.681
20
-118.829
11
173.7
21
-118.925
0
LINE
8
BLACK
6
CONTINUOUS
10
173.7
20
-118.925
11
173.7
21
-120.775
0
LINE
8
BLACK
6
CONTINUOUS
10
173.7
20
-120.775
11
173.681
21
-120.871
0
LINE
8
BLACK
6
CONTINUOUS
10
173.681
20
-120.871
11
173.627
21
-120.952
0
LINE
8
BLACK
6
CONTINUOUS
10
173.627
20
-120.952
11
173.546
21
-121.006
0
LINE
8
BLACK
6
CONTINUOUS
10
173.546
20
-121.006
11
173.45
21
-121.025
0
LINE
8
BLACK
6
CONTINUOUS
10
173.45
20
-121.025
11
171.875
21
-121.025
0
LINE
8
BLACK
6
CONTINUOUS
10
171.875
20
-121.025
11
171.779
21
-121.006
0
LINE
8
BLACK
6
CONTINUOUS
10
171.779
20
-121.006
11
171.698
21
-120.952
0
LINE
8
BLACK
6
CONTINUOUS
10
171.698
20
-120.952
11
171.644
21
-120.871
0
LINE
8
BLACK
6
CONTINUOUS
10
171.644
20
-120.871
11
171.625
21
-120.775
0
LINE
8
BLACK
6
CONTINUOUS
10
171.625
20
-120.775
11
171.625
21
-118.925
0
LINE
8
BLACK
6
CONTINUOUS
10
171.625
20
-118.925
11
171.644
21
-118.829
0
LINE
8
BLACK
6
CONTINUOUS
10
171.644
20
-118.829
11
171.698
21
-118.748
0
LINE
8
BLACK
6
CONTINUOUS
10
171.698
20
-118.748
11
171.779
21
-118.694
0
LINE
8
BLACK
6
CONTINUOUS
10
171.779
20
-118.694
11
171.875
21
-118.675
0
LINE
8
BLACK
6
CONTINUOUS
10
171.875
20
-118.675
11
173.45
21
-118.675
0
LINE
8
BLACK
6
CONTINUOUS
10
173.45
20
-118.675
11
173.546
21
-118.694
0
LINE
8
BLACK
6
CONTINUOUS
10
103.237
20
-119.501
11
103.286
21
-119.534
0
LINE
8
BLACK
6
CONTINUOUS
10
103.286
20
-119.534
11
103.319
21
-119.583
0
LINE
8
BLACK
6
CONTINUOUS
10
103.319
20
-119.583
11
103.33
21
-119.64
0
LINE
8
BLACK
6
CONTINUOUS
10
103.33
20
-119.64
11
103.33
21
-120.665
0
LINE
8
BLACK
6
CONTINUOUS
10
103.33
20
-120.665
11
103.319
21
-120.722
0
LINE
8
BLACK
6
CONTINUOUS
10
103.319
20
-120.722
11
103.286
21
-120.771
0
LINE
8
BLACK
6
CONTINUOUS
10
103.286
20
-120.771
11
103.237
21
-120.804
0
LINE
8
BLACK
6
CONTINUOUS
10
103.237
20
-120.804
11
103.18
21
-120.815
0
LINE
8
BLACK
6
CONTINUOUS
10
103.18
20
-120.815
11
102.88
21
-120.815
0
LINE
8
BLACK
6
CONTINUOUS
10
102.88
20
-120.815
11
102.823
21
-120.804
0
LINE
8
BLACK
6
CONTINUOUS
10
102.823
20
-120.804
11
102.774
21
-120.771
0
LINE
8
BLACK
6
CONTINUOUS
10
102.774
20
-120.771
11
102.741
21
-120.722
0
LINE
8
BLACK
6
CONTINUOUS
10
102.741
20
-120.722
11
102.73
21
-120.665
0
LINE
8
BLACK
6
CONTINUOUS
10
102.73
20
-120.665
11
102.73
21
-119.64
0
LINE
8
BLACK
6
CONTINUOUS
10
102.73
20
-119.64
11
102.741
21
-119.583
0
LINE
8
BLACK
6
CONTINUOUS
10
102.741
20
-119.583
11
102.774
21
-119.534
0
LINE
8
BLACK
6
CONTINUOUS
10
102.774
20
-119.534
11
102.823
21
-119.501
0
LINE
8
BLACK
6
CONTINUOUS
10
102.823
20
-119.501
11
102.88
21
-119.49
0
LINE
8
BLACK
6
CONTINUOUS
10
102.88
20
-119.49
11
103.18
21
-119.49
0
LINE
8
BLACK
6
CONTINUOUS
10
103.18
20
-119.49
11
103.237
21
-119.501
0
LINE
8
BLACK
6
CONTINUOUS
10
105.137
20
-119.501
11
105.186
21
-119.534
0
LINE
8
BLACK
6
CONTINUOUS
10
105.186
20
-119.534
11
105.219
21
-119.583
0
LINE
8
BLACK
6
CONTINUOUS
10
105.219
20
-119.583
11
105.23
21
-119.64
0
LINE
8
BLACK
6
CONTINUOUS
10
105.23
20
-119.64
11
105.23
21
-120.665
0
LINE
8
BLACK
6
CONTINUOUS
10
105.23
20
-120.665
11
105.219
21
-120.722
0
LINE
8
BLACK
6
CONTINUOUS
10
105.219
20
-120.722
11
105.186
21
-120.771
0
LINE
8
BLACK
6
CONTINUOUS
10
105.186
20
-120.771
11
105.137
21
-120.804
0
LINE
8
BLACK
6
CONTINUOUS
10
105.137
20
-120.804
11
105.08
21
-120.815
0
LINE
8
BLACK
6
CONTINUOUS
10
105.08
20
-120.815
11
104.78
21
-120.815
0
LINE
8
BLACK
6
CONTINUOUS
10
104.78
20
-120.815
11
104.723
21
-120.804
0
LINE
8
BLACK
6
CONTINUOUS
10
104.723
20
-120.804
11
104.674
21
-120.771
0
LINE
8
BLACK
6
CONTINUOUS
10
104.674
20
-120.771
11
104.641
21
-120.722
0
LINE
8
BLACK
6
CONTINUOUS
10
104.641
20
-120.722
11
104.63
21
-120.665
0
LINE
8
BLACK
6
CONTINUOUS
10
104.63
20
-120.665
11
104.63
21
-119.64
0
LINE
8
BLACK
6
CONTINUOUS
10
104.63
20
-119.64
11
104.641
21
-119.583
0
LINE
8
BLACK
6
CONTINUOUS
10
104.641
20
-119.583
11
104.674
21
-119.534
0
LINE
8
BLACK
6
CONTINUOUS
10
104.674
20
-119.534
11
104.723
21
-119.501
0
LINE
8
BLACK
6
CONTINUOUS
10
104.723
20
-119.501
11
104.78
21
-119.49
0
LINE
8
BLACK
6
CONTINUOUS
10
104.78
20
-119.49
11
105.08
21
-119.49
0
LINE
8
BLACK
6
CONTINUOUS
10
105.08
20
-119.49
11
105.137
21
-119.501
0
LINE
8
BLACK
6
CONTINUOUS
10
168.621
20
-114.794
11
168.702
21
-114.848
0
LINE
8
BLACK
6
CONTINUOUS
10
168.702
20
-114.848
11
168.756
21
-114.929
0
LINE
8
BLACK
6
CONTINUOUS
10
168.756
20
-114.929
11
168.775
21
-115.025
0
LINE
8
BLACK
6
CONTINUOUS
10
168.775
20
-115.025
11
168.775
21
-116.875
0
LINE
8
BLACK
6
CONTINUOUS
10
168.775
20
-116.875
11
168.756
21
-116.971
0
LINE
8
BLACK
6
CONTINUOUS
10
168.756
20
-116.971
11
168.702
21
-117.052
0
LINE
8
BLACK
6
CONTINUOUS
10
168.702
20
-117.052
11
168.621
21
-117.106
0
LINE
8
BLACK
6
CONTINUOUS
10
168.621
20
-117.106
11
168.525
21
-117.125
0
LINE
8
BLACK
6
CONTINUOUS
10
168.525
20
-117.125
11
166.95
21
-117.125
0
LINE
8
BLACK
6
CONTINUOUS
10
166.95
20
-117.125
11
166.854
21
-117.106
0
LINE
8
BLACK
6
CONTINUOUS
10
166.854
20
-117.106
11
166.773
21
-117.052
0
LINE
8
BLACK
6
CONTINUOUS
10
166.773
20
-117.052
11
166.719
21
-116.971
0
LINE
8
BLACK
6
CONTINUOUS
10
166.719
20
-116.971
11
166.7
21
-116.875
0
LINE
8
BLACK
6
CONTINUOUS
10
166.7
20
-116.875
11
166.7
21
-115.025
0
LINE
8
BLACK
6
CONTINUOUS
10
166.7
20
-115.025
11
166.719
21
-114.929
0
LINE
8
BLACK
6
CONTINUOUS
10
166.719
20
-114.929
11
166.773
21
-114.848
0
LINE
8
BLACK
6
CONTINUOUS
10
166.773
20
-114.848
11
166.854
21
-114.794
0
LINE
8
BLACK
6
CONTINUOUS
10
166.854
20
-114.794
11
166.95
21
-114.775
0
LINE
8
BLACK
6
CONTINUOUS
10
166.95
20
-114.775
11
168.525
21
-114.775
0
LINE
8
BLACK
6
CONTINUOUS
10
168.525
20
-114.775
11
168.621
21
-114.794
0
LINE
8
BLACK
6
CONTINUOUS
10
173.546
20
-114.794
11
173.627
21
-114.848
0
LINE
8
BLACK
6
CONTINUOUS
10
173.627
20
-114.848
11
173.681
21
-114.929
0
LINE
8
BLACK
6
CONTINUOUS
10
173.681
20
-114.929
11
173.7
21
-115.025
0
LINE
8
BLACK
6
CONTINUOUS
10
173.7
20
-115.025
11
173.7
21
-116.875
0
LINE
8
BLACK
6
CONTINUOUS
10
173.7
20
-116.875
11
173.681
21
-116.971
0
LINE
8
BLACK
6
CONTINUOUS
10
173.681
20
-116.971
11
173.627
21
-117.052
0
LINE
8
BLACK
6
CONTINUOUS
10
173.627
20
-117.052
11
173.546
21
-117.106
0
LINE
8
BLACK
6
CONTINUOUS
10
173.546
20
-117.106
11
173.45
21
-117.125
0
LINE
8
BLACK
6
CONTINUOUS
10
173.45
20
-117.125
11
171.875
21
-117.125
0
LINE
8
BLACK
6
CONTINUOUS
10
171.875
20
-117.125
11
171.779
21
-117.106
0
LINE
8
BLACK
6
CONTINUOUS
10
171.779
20
-117.106
11
171.698
21
-117.052
0
LINE
8
BLACK
6
CONTINUOUS
10
171.698
20
-117.052
11
171.644
21
-116.971
0
LINE
8
BLACK
6
CONTINUOUS
10
171.644
20
-116.971
11
171.625
21
-116.875
0
LINE
8
BLACK
6
CONTINUOUS
10
171.625
20
-116.875
11
171.625
21
-115.025
0
LINE
8
BLACK
6
CONTINUOUS
10
171.625
20
-115.025
11
171.644
21
-114.929
0
LINE
8
BLACK
6
CONTINUOUS
10
171.644
20
-114.929
11
171.698
21
-114.848
0
LINE
8
BLACK
6
CONTINUOUS
10
171.698
20
-114.848
11
171.779
21
-114.794
0
LINE
8
BLACK
6
CONTINUOUS
10
171.779
20
-114.794
11
171.875
21
-114.775
0
LINE
8
BLACK
6
CONTINUOUS
10
171.875
20
-114.775
11
173.45
21
-114.775
0
LINE
8
BLACK
6
CONTINUOUS
10
173.45
20
-114.775
11
173.546
21
-114.794
0
LINE
8
BLACK
6
CONTINUOUS
10
168.621
20
-110.944
11
168.702
21
-110.998
0
LINE
8
BLACK
6
CONTINUOUS
10
168.702
20
-110.998
11
168.756
21
-111.079
0
LINE
8
BLACK
6
CONTINUOUS
10
168.756
20
-111.079
11
168.775
21
-111.175
0
LINE
8
BLACK
6
CONTINUOUS
10
168.775
20
-111.175
11
168.775
21
-113.025
0
LINE
8
BLACK
6
CONTINUOUS
10
168.775
20
-113.025
11
168.756
21
-113.121
0
LINE
8
BLACK
6
CONTINUOUS
10
168.756
20
-113.121
11
168.702
21
-113.202
0
LINE
8
BLACK
6
CONTINUOUS
10
168.702
20
-113.202
11
168.621
21
-113.256
0
LINE
8
BLACK
6
CONTINUOUS
10
168.621
20
-113.256
11
168.525
21
-113.275
0
LINE
8
BLACK
6
CONTINUOUS
10
168.525
20
-113.275
11
166.95
21
-113.275
0
LINE
8
BLACK
6
CONTINUOUS
10
166.95
20
-113.275
11
166.854
21
-113.256
0
LINE
8
BLACK
6
CONTINUOUS
10
166.854
20
-113.256
11
166.773
21
-113.202
0
LINE
8
BLACK
6
CONTINUOUS
10
166.773
20
-113.202
11
166.719
21
-113.121
0
LINE
8
BLACK
6
CONTINUOUS
10
166.719
20
-113.121
11
166.7
21
-113.025
0
LINE
8
BLACK
6
CONTINUOUS
10
166.7
20
-113.025
11
166.7
21
-111.175
0
LINE
8
BLACK
6
CONTINUOUS
10
166.7
20
-111.175
11
166.719
21
-111.079
0
LINE
8
BLACK
6
CONTINUOUS
10
166.719
20
-111.079
11
166.773
21
-110.998
0
LINE
8
BLACK
6
CONTINUOUS
10
166.773
20
-110.998
11
166.854
21
-110.944
0
LINE
8
BLACK
6
CONTINUOUS
10
166.854
20
-110.944
11
166.95
21
-110.925
0
LINE
8
BLACK
6
CONTINUOUS
10
166.95
20
-110.925
11
168.525
21
-110.925
0
LINE
8
BLACK
6
CONTINUOUS
10
168.525
20
-110.925
11
168.621
21
-110.944
0
LINE
8
BLACK
6
CONTINUOUS
10
173.546
20
-110.944
11
173.627
21
-110.998
0
LINE
8
BLACK
6
CONTINUOUS
10
173.627
20
-110.998
11
173.681
21
-111.079
0
LINE
8
BLACK
6
CONTINUOUS
10
173.681
20
-111.079
11
173.7
21
-111.175
0
LINE
8
BLACK
6
CONTINUOUS
10
173.7
20
-111.175
11
173.7
21
-113.025
0
LINE
8
BLACK
6
CONTINUOUS
10
173.7
20
-113.025
11
173.681
21
-113.121
0
LINE
8
BLACK
6
CONTINUOUS
10
173.681
20
-113.121
11
173.627
21
-113.202
0
LINE
8
BLACK
6
CONTINUOUS
10
173.627
20
-113.202
11
173.546
21
-113.256
0
LINE
8
BLACK
6
CONTINUOUS
10
173.546
20
-113.256
11
173.45
21
-113.275
0
LINE
8
BLACK
6
CONTINUOUS
10
173.45
20
-113.275
11
171.875
21
-113.275
0
LINE
8
BLACK
6
CONTINUOUS
10
171.875
20
-113.275
11
171.779
21
-113.256
0
LINE
8
BLACK
6
CONTINUOUS
10
171.779
20
-113.256
11
171.698
21
-113.202
0
LINE
8
BLACK
6
CONTINUOUS
10
171.698
20
-113.202
11
171.644
21
-113.121
0
LINE
8
BLACK
6
CONTINUOUS
10
171.644
20
-113.121
11
171.625
21
-113.025
0
LINE
8
BLACK
6
CONTINUOUS
10
171.625
20
-113.025
11
171.625
21
-111.175
0
LINE
8
BLACK
6
CONTINUOUS
10
171.625
20
-111.175
11
171.644
21
-111.079
0
LINE
8
BLACK
6
CONTINUOUS
10
171.644
20
-111.079
11
171.698
21
-110.998
0
LINE
8
BLACK
6
CONTINUOUS
10
171.698
20
-110.998
11
171.779
21
-110.944
0
LINE
8
BLACK
6
CONTINUOUS
10
171.779
20
-110.944
11
171.875
21
-110.925
0
LINE
8
BLACK
6
CONTINUOUS
10
171.875
20
-110.925
11
173.45
21
-110.925
0
LINE
8
BLACK
6
CONTINUOUS
10
173.45
20
-110.925
11
173.546
21
-110.944
0
LINE
8
BLACK
6
CONTINUOUS
10
170.146
20
-108.144
11
170.227
21
-108.198
0
LINE
8
BLACK
6
CONTINUOUS
10
170.227
20
-108.198
11
170.281
21
-108.279
0
LINE
8
BLACK
6
CONTINUOUS
10
170.281
20
-108.279
11
170.3
21
-108.375
0
LINE
8
BLACK
6
CONTINUOUS
10
170.3
20
-108.375
11
170.3
21
-109.625
0
LINE
8
BLACK
6
CONTINUOUS
10
170.3
20
-109.625
11
170.281
21
-109.721
0
LINE
8
BLACK
6
CONTINUOUS
10
170.281
20
-109.721
11
170.227
21
-109.802
0
LINE
8
BLACK
6
CONTINUOUS
10
170.227
20
-109.802
11
170.146
21
-109.856
0
LINE
8
BLACK
6
CONTINUOUS
10
170.146
20
-109.856
11
170.05
21
-109.875
0
LINE
8
BLACK
6
CONTINUOUS
10
170.05
20
-109.875
11
169.425
21
-109.875
0
LINE
8
BLACK
6
CONTINUOUS
10
169.425
20
-109.875
11
169.329
21
-109.856
0
LINE
8
BLACK
6
CONTINUOUS
10
169.329
20
-109.856
11
169.248
21
-109.802
0
LINE
8
BLACK
6
CONTINUOUS
10
169.248
20
-109.802
11
169.194
21
-109.721
0
LINE
8
BLACK
6
CONTINUOUS
10
169.194
20
-109.721
11
169.175
21
-109.625
0
LINE
8
BLACK
6
CONTINUOUS
10
169.175
20
-109.625
11
169.175
21
-108.375
0
LINE
8
BLACK
6
CONTINUOUS
10
169.175
20
-108.375
11
169.194
21
-108.279
0
LINE
8
BLACK
6
CONTINUOUS
10
169.194
20
-108.279
11
169.248
21
-108.198
0
LINE
8
BLACK
6
CONTINUOUS
10
169.248
20
-108.198
11
169.329
21
-108.144
0
LINE
8
BLACK
6
CONTINUOUS
10
169.329
20
-108.144
11
169.425
21
-108.125
0
LINE
8
BLACK
6
CONTINUOUS
10
169.425
20
-108.125
11
170.05
21
-108.125
0
LINE
8
BLACK
6
CONTINUOUS
10
170.05
20
-108.125
11
170.146
21
-108.144
0
LINE
8
BLACK
6
CONTINUOUS
10
173.071
20
-108.144
11
173.152
21
-108.198
0
LINE
8
BLACK
6
CONTINUOUS
10
173.152
20
-108.198
11
173.206
21
-108.279
0
LINE
8
BLACK
6
CONTINUOUS
10
173.206
20
-108.279
11
173.225
21
-108.375
0
LINE
8
BLACK
6
CONTINUOUS
10
173.225
20
-108.375
11
173.225
21
-109.625
0
LINE
8
BLACK
6
CONTINUOUS
10
173.225
20
-109.625
11
173.206
21
-109.721
0
LINE
8
BLACK
6
CONTINUOUS
10
173.206
20
-109.721
11
173.152
21
-109.802
0
LINE
8
BLACK
6
CONTINUOUS
10
173.152
20
-109.802
11
173.071
21
-109.856
0
LINE
8
BLACK
6
CONTINUOUS
10
173.071
20
-109.856
11
172.975
21
-109.875
0
LINE
8
BLACK
6
CONTINUOUS
10
172.975
20
-109.875
11
172.35
21
-109.875
0
LINE
8
BLACK
6
CONTINUOUS
10
172.35
20
-109.875
11
172.254
21
-109.856
0
LINE
8
BLACK
6
CONTINUOUS
10
172.254
20
-109.856
11
172.173
21
-109.802
0
LINE
8
BLACK
6
CONTINUOUS
10
172.173
20
-109.802
11
172.119
21
-109.721
0
LINE
8
BLACK
6
CONTINUOUS
10
172.119
20
-109.721
11
172.1
21
-109.625
0
LINE
8
BLACK
6
CONTINUOUS
10
172.1
20
-109.625
11
172.1
21
-108.375
0
LINE
8
BLACK
6
CONTINUOUS
10
172.1
20
-108.375
11
172.119
21
-108.279
0
LINE
8
BLACK
6
CONTINUOUS
10
172.119
20
-108.279
11
172.173
21
-108.198
0
LINE
8
BLACK
6
CONTINUOUS
10
172.173
20
-108.198
11
172.254
21
-108.144
0
LINE
8
BLACK
6
CONTINUOUS
10
172.254
20
-108.144
11
172.35
21
-108.125
0
LINE
8
BLACK
6
CONTINUOUS
10
172.35
20
-108.125
11
172.975
21
-108.125
0
LINE
8
BLACK
6
CONTINUOUS
10
172.975
20
-108.125
11
173.071
21
-108.144
0
LINE
8
BLACK
6
CONTINUOUS
10
133.91
20
-94.0665
11
133.981
21
-94.1139
0
LINE
8
BLACK
6
CONTINUOUS
10
133.981
20
-94.1139
11
134.028
21
-94.1849
0
LINE
8
BLACK
6
CONTINUOUS
10
134.028
20
-94.1849
11
134.045
21
-94.2686
0
LINE
8
BLACK
6
CONTINUOUS
10
134.045
20
-94.2686
11
134.045
21
-94.7061
0
LINE
8
BLACK
6
CONTINUOUS
10
134.045
20
-94.7061
11
134.028
21
-94.7898
0
LINE
8
BLACK
6
CONTINUOUS
10
134.028
20
-94.7898
11
133.981
21
-94.8608
0
LINE
8
BLACK
6
CONTINUOUS
10
133.981
20
-94.8608
11
133.91
21
-94.9082
0
LINE
8
BLACK
6
CONTINUOUS
10
133.91
20
-94.9082
11
133.826
21
-94.9248
0
LINE
8
BLACK
6
CONTINUOUS
10
133.826
20
-94.9248
11
133.314
21
-94.9248
0
LINE
8
BLACK
6
CONTINUOUS
10
133.314
20
-94.9248
11
133.23
21
-94.9082
0
LINE
8
BLACK
6
CONTINUOUS
10
133.23
20
-94.9082
11
133.159
21
-94.8608
0
LINE
8
BLACK
6
CONTINUOUS
10
133.159
20
-94.8608
11
133.112
21
-94.7898
0
LINE
8
BLACK
6
CONTINUOUS
10
133.112
20
-94.7898
11
133.095
21
-94.7061
0
LINE
8
BLACK
6
CONTINUOUS
10
133.095
20
-94.7061
11
133.095
21
-94.2686
0
LINE
8
BLACK
6
CONTINUOUS
10
133.095
20
-94.2686
11
133.112
21
-94.1849
0
LINE
8
BLACK
6
CONTINUOUS
10
133.112
20
-94.1849
11
133.159
21
-94.1139
0
LINE
8
BLACK
6
CONTINUOUS
10
133.159
20
-94.1139
11
133.23
21
-94.0665
0
LINE
8
BLACK
6
CONTINUOUS
10
133.23
20
-94.0665
11
133.314
21
-94.0498
0
LINE
8
BLACK
6
CONTINUOUS
10
133.314
20
-94.0498
11
133.826
21
-94.0498
0
LINE
8
BLACK
6
CONTINUOUS
10
133.826
20
-94.0498
11
133.91
21
-94.0665
0
LINE
8
BLACK
6
CONTINUOUS
10
143.91
20
-94.0665
11
143.981
21
-94.1139
0
LINE
8
BLACK
6
CONTINUOUS
10
143.981
20
-94.1139
11
144.028
21
-94.1849
0
LINE
8
BLACK
6
CONTINUOUS
10
144.028
20
-94.1849
11
144.045
21
-94.2686
0
LINE
8
BLACK
6
CONTINUOUS
10
144.045
20
-94.2686
11
144.045
21
-94.7061
0
LINE
8
BLACK
6
CONTINUOUS
10
144.045
20
-94.7061
11
144.028
21
-94.7898
0
LINE
8
BLACK
6
CONTINUOUS
10
144.028
20
-94.7898
11
143.981
21
-94.8608
0
LINE
8
BLACK
6
CONTINUOUS
10
143.981
20
-94.8608
11
143.91
21
-94.9082
0
LINE
8
BLACK
6
CONTINUOUS
10
143.91
20
-94.9082
11
143.826
21
-94.9248
0
LINE
8
BLACK
6
CONTINUOUS
10
143.826
20
-94.9248
11
143.314
21
-94.9248
0
LINE
8
BLACK
6
CONTINUOUS
10
143.314
20
-94.9248
11
143.23
21
-94.9082
0
LINE
8
BLACK
6
CONTINUOUS
10
143.23
20
-94.9082
11
143.159
21
-94.8608
0
LINE
8
BLACK
6
CONTINUOUS
10
143.159
20
-94.8608
11
143.112
21
-94.7898
0
LINE
8
BLACK
6
CONTINUOUS
10
143.112
20
-94.7898
11
143.095
21
-94.7061
0
LINE
8
BLACK
6
CONTINUOUS
10
143.095
20
-94.7061
11
143.095
21
-94.2686
0
LINE
8
BLACK
6
CONTINUOUS
10
143.095
20
-94.2686
11
143.112
21
-94.1849
0
LINE
8
BLACK
6
CONTINUOUS
10
143.112
20
-94.1849
11
143.159
21
-94.1139
0
LINE
8
BLACK
6
CONTINUOUS
10
143.159
20
-94.1139
11
143.23
21
-94.0665
0
LINE
8
BLACK
6
CONTINUOUS
10
143.23
20
-94.0665
11
143.314
21
-94.0498
0
LINE
8
BLACK
6
CONTINUOUS
10
143.314
20
-94.0498
11
143.826
21
-94.0498
0
LINE
8
BLACK
6
CONTINUOUS
10
143.826
20
-94.0498
11
143.91
21
-94.0665
0
LINE
8
BLACK
6
CONTINUOUS
10
152.34
20
-94.0542
11
152.411
21
-94.1016
0
LINE
8
BLACK
6
CONTINUOUS
10
152.411
20
-94.1016
11
152.458
21
-94.1725
0
LINE
8
BLACK
6
CONTINUOUS
10
152.458
20
-94.1725
11
152.475
21
-94.2562
0
LINE
8
BLACK
6
CONTINUOUS
10
152.475
20
-94.2562
11
152.475
21
-94.6937
0
LINE
8
BLACK
6
CONTINUOUS
10
152.475
20
-94.6937
11
152.458
21
-94.7775
0
LINE
8
BLACK
6
CONTINUOUS
10
152.458
20
-94.7775
11
152.411
21
-94.8484
0
LINE
8
BLACK
6
CONTINUOUS
10
152.411
20
-94.8484
11
152.34
21
-94.8958
0
LINE
8
BLACK
6
CONTINUOUS
10
152.34
20
-94.8958
11
152.256
21
-94.9125
0
LINE
8
BLACK
6
CONTINUOUS
10
152.256
20
-94.9125
11
151.744
21
-94.9125
0
LINE
8
BLACK
6
CONTINUOUS
10
151.744
20
-94.9125
11
151.66
21
-94.8958
0
LINE
8
BLACK
6
CONTINUOUS
10
151.66
20
-94.8958
11
151.589
21
-94.8484
0
LINE
8
BLACK
6
CONTINUOUS
10
151.589
20
-94.8484
11
151.542
21
-94.7775
0
LINE
8
BLACK
6
CONTINUOUS
10
151.542
20
-94.7775
11
151.525
21
-94.6937
0
LINE
8
BLACK
6
CONTINUOUS
10
151.525
20
-94.6937
11
151.525
21
-94.2562
0
LINE
8
BLACK
6
CONTINUOUS
10
151.525
20
-94.2562
11
151.542
21
-94.1725
0
LINE
8
BLACK
6
CONTINUOUS
10
151.542
20
-94.1725
11
151.589
21
-94.1016
0
LINE
8
BLACK
6
CONTINUOUS
10
151.589
20
-94.1016
11
151.66
21
-94.0542
0
LINE
8
BLACK
6
CONTINUOUS
10
151.66
20
-94.0542
11
151.744
21
-94.0375
0
LINE
8
BLACK
6
CONTINUOUS
10
151.744
20
-94.0375
11
152.256
21
-94.0375
0
LINE
8
BLACK
6
CONTINUOUS
10
152.256
20
-94.0375
11
152.34
21
-94.0542
0
LINE
8
BLACK
6
CONTINUOUS
10
113.9
20
-93.4
11
112.5
21
-93.4
0
LINE
8
BLACK
6
CONTINUOUS
10
112.5
20
-93.4
11
112.5
21
-92
0
LINE
8
BLACK
6
CONTINUOUS
10
112.5
20
-92
11
113.9
21
-92
0
LINE
8
BLACK
6
CONTINUOUS
10
113.9
20
-92
11
113.9
21
-93.4
0
LINE
8
BLACK
6
CONTINUOUS
10
117.15
20
-93.4
11
115.75
21
-93.4
0
LINE
8
BLACK
6
CONTINUOUS
10
115.75
20
-93.4
11
115.75
21
-92
0
LINE
8
BLACK
6
CONTINUOUS
10
115.75
20
-92
11
117.15
21
-92
0
LINE
8
BLACK
6
CONTINUOUS
10
117.15
20
-92
11
117.15
21
-93.4
0
LINE
8
BLACK
6
CONTINUOUS
10
133.91
20
-92.4915
11
133.981
21
-92.5389
0
LINE
8
BLACK
6
CONTINUOUS
10
133.981
20
-92.5389
11
134.028
21
-92.6099
0
LINE
8
BLACK
6
CONTINUOUS
10
134.028
20
-92.6099
11
134.045
21
-92.6936
0
LINE
8
BLACK
6
CONTINUOUS
10
134.045
20
-92.6936
11
134.045
21
-93.1311
0
LINE
8
BLACK
6
CONTINUOUS
10
134.045
20
-93.1311
11
134.028
21
-93.2148
0
LINE
8
BLACK
6
CONTINUOUS
10
134.028
20
-93.2148
11
133.981
21
-93.2858
0
LINE
8
BLACK
6
CONTINUOUS
10
133.981
20
-93.2858
11
133.91
21
-93.3332
0
LINE
8
BLACK
6
CONTINUOUS
10
133.91
20
-93.3332
11
133.826
21
-93.3498
0
LINE
8
BLACK
6
CONTINUOUS
10
133.826
20
-93.3498
11
133.314
21
-93.3498
0
LINE
8
BLACK
6
CONTINUOUS
10
133.314
20
-93.3498
11
133.23
21
-93.3332
0
LINE
8
BLACK
6
CONTINUOUS
10
133.23
20
-93.3332
11
133.159
21
-93.2858
0
LINE
8
BLACK
6
CONTINUOUS
10
133.159
20
-93.2858
11
133.112
21
-93.2148
0
LINE
8
BLACK
6
CONTINUOUS
10
133.112
20
-93.2148
11
133.095
21
-93.1311
0
LINE
8
BLACK
6
CONTINUOUS
10
133.095
20
-93.1311
11
133.095
21
-92.6936
0
LINE
8
BLACK
6
CONTINUOUS
10
133.095
20
-92.6936
11
133.112
21
-92.6099
0
LINE
8
BLACK
6
CONTINUOUS
10
133.112
20
-92.6099
11
133.159
21
-92.5389
0
LINE
8
BLACK
6
CONTINUOUS
10
133.159
20
-92.5389
11
133.23
21
-92.4915
0
LINE
8
BLACK
6
CONTINUOUS
10
133.23
20
-92.4915
11
133.314
21
-92.4748
0
LINE
8
BLACK
6
CONTINUOUS
10
133.314
20
-92.4748
11
133.826
21
-92.4748
0
LINE
8
BLACK
6
CONTINUOUS
10
133.826
20
-92.4748
11
133.91
21
-92.4915
0
LINE
8
BLACK
6
CONTINUOUS
10
143.91
20
-92.4915
11
143.981
21
-92.5389
0
LINE
8
BLACK
6
CONTINUOUS
10
143.981
20
-92.5389
11
144.028
21
-92.6099
0
LINE
8
BLACK
6
CONTINUOUS
10
144.028
20
-92.6099
11
144.045
21
-92.6936
0
LINE
8
BLACK
6
CONTINUOUS
10
144.045
20
-92.6936
11
144.045
21
-93.1311
0
LINE
8
BLACK
6
CONTINUOUS
10
144.045
20
-93.1311
11
144.028
21
-93.2148
0
LINE
8
BLACK
6
CONTINUOUS
10
144.028
20
-93.2148
11
143.981
21
-93.2858
0
LINE
8
BLACK
6
CONTINUOUS
10
143.981
20
-93.2858
11
143.91
21
-93.3332
0
LINE
8
BLACK
6
CONTINUOUS
10
143.91
20
-93.3332
11
143.826
21
-93.3498
0
LINE
8
BLACK
6
CONTINUOUS
10
143.826
20
-93.3498
11
143.314
21
-93.3498
0
LINE
8
BLACK
6
CONTINUOUS
10
143.314
20
-93.3498
11
143.23
21
-93.3332
0
LINE
8
BLACK
6
CONTINUOUS
10
143.23
20
-93.3332
11
143.159
21
-93.2858
0
LINE
8
BLACK
6
CONTINUOUS
10
143.159
20
-93.2858
11
143.112
21
-93.2148
0
LINE
8
BLACK
6
CONTINUOUS
10
143.112
20
-93.2148
11
143.095
21
-93.1311
0
LINE
8
BLACK
6
CONTINUOUS
10
143.095
20
-93.1311
11
143.095
21
-92.6936
0
LINE
8
BLACK
6
CONTINUOUS
10
143.095
20
-92.6936
11
143.112
21
-92.6099
0
LINE
8
BLACK
6
CONTINUOUS
10
143.112
20
-92.6099
11
143.159
21
-92.5389
0
LINE
8
BLACK
6
CONTINUOUS
10
143.159
20
-92.5389
11
143.23
21
-92.4915
0
LINE
8
BLACK
6
CONTINUOUS
10
143.23
20
-92.4915
11
143.314
21
-92.4748
0
LINE
8
BLACK
6
CONTINUOUS
10
143.314
20
-92.4748
11
143.826
21
-92.4748
0
LINE
8
BLACK
6
CONTINUOUS
10
143.826
20
-92.4748
11
143.91
21
-92.4915
0
LINE
8
BLACK
6
CONTINUOUS
10
152.34
20
-92.4792
11
152.411
21
-92.5266
0
LINE
8
BLACK
6
CONTINUOUS
10
152.411
20
-92.5266
11
152.458
21
-92.5975
0
LINE
8
BLACK
6
CONTINUOUS
10
152.458
20
-92.5975
11
152.475
21
-92.6812
0
LINE
8
BLACK
6
CONTINUOUS
10
152.475
20
-92.6812
11
152.475
21
-93.1187
0
LINE
8
BLACK
6
CONTINUOUS
10
152.475
20
-93.1187
11
152.458
21
-93.2025
0
LINE
8
BLACK
6
CONTINUOUS
10
152.458
20
-93.2025
11
152.411
21
-93.2734
0
LINE
8
BLACK
6
CONTINUOUS
10
152.411
20
-93.2734
11
152.34
21
-93.3208
0
LINE
8
BLACK
6
CONTINUOUS
10
152.34
20
-93.3208
11
152.256
21
-93.3375
0
LINE
8
BLACK
6
CONTINUOUS
10
152.256
20
-93.3375
11
151.744
21
-93.3375
0
LINE
8
BLACK
6
CONTINUOUS
10
151.744
20
-93.3375
11
151.66
21
-93.3208
0
LINE
8
BLACK
6
CONTINUOUS
10
151.66
20
-93.3208
11
151.589
21
-93.2734
0
LINE
8
BLACK
6
CONTINUOUS
10
151.589
20
-93.2734
11
151.542
21
-93.2025
0
LINE
8
BLACK
6
CONTINUOUS
10
151.542
20
-93.2025
11
151.525
21
-93.1187
0
LINE
8
BLACK
6
CONTINUOUS
10
151.525
20
-93.1187
11
151.525
21
-92.6812
0
LINE
8
BLACK
6
CONTINUOUS
10
151.525
20
-92.6812
11
151.542
21
-92.5975
0
LINE
8
BLACK
6
CONTINUOUS
10
151.542
20
-92.5975
11
151.589
21
-92.5266
0
LINE
8
BLACK
6
CONTINUOUS
10
151.589
20
-92.5266
11
151.66
21
-92.4792
0
LINE
8
BLACK
6
CONTINUOUS
10
151.66
20
-92.4792
11
151.744
21
-92.4625
0
LINE
8
BLACK
6
CONTINUOUS
10
151.744
20
-92.4625
11
152.256
21
-92.4625
0
LINE
8
BLACK
6
CONTINUOUS
10
152.256
20
-92.4625
11
152.34
21
-92.4792
0
LINE
8
BLACK
6
CONTINUOUS
10
143.922
20
-90.6776
11
143.986
21
-90.7209
0
LINE
8
BLACK
6
CONTINUOUS
10
143.986
20
-90.7209
11
144.03
21
-90.7858
0
LINE
8
BLACK
6
CONTINUOUS
10
144.03
20
-90.7858
11
144.045
21
-90.8623
0
LINE
8
BLACK
6
CONTINUOUS
10
144.045
20
-90.8623
11
144.045
21
-91.2623
0
LINE
8
BLACK
6
CONTINUOUS
10
144.045
20
-91.2623
11
144.03
21
-91.3389
0
LINE
8
BLACK
6
CONTINUOUS
10
144.03
20
-91.3389
11
143.986
21
-91.4038
0
LINE
8
BLACK
6
CONTINUOUS
10
143.986
20
-91.4038
11
143.922
21
-91.4471
0
LINE
8
BLACK
6
CONTINUOUS
10
143.922
20
-91.4471
11
143.845
21
-91.4623
0
LINE
8
BLACK
6
CONTINUOUS
10
143.845
20
-91.4623
11
143.295
21
-91.4623
0
LINE
8
BLACK
6
CONTINUOUS
10
143.295
20
-91.4623
11
143.218
21
-91.4471
0
LINE
8
BLACK
6
CONTINUOUS
10
143.218
20
-91.4471
11
143.154
21
-91.4038
0
LINE
8
BLACK
6
CONTINUOUS
10
143.154
20
-91.4038
11
143.11
21
-91.3389
0
LINE
8
BLACK
6
CONTINUOUS
10
143.11
20
-91.3389
11
143.095
21
-91.2623
0
LINE
8
BLACK
6
CONTINUOUS
10
143.095
20
-91.2623
11
143.095
21
-90.8623
0
LINE
8
BLACK
6
CONTINUOUS
10
143.095
20
-90.8623
11
143.11
21
-90.7858
0
LINE
8
BLACK
6
CONTINUOUS
10
143.11
20
-90.7858
11
143.154
21
-90.7209
0
LINE
8
BLACK
6
CONTINUOUS
10
143.154
20
-90.7209
11
143.218
21
-90.6776
0
LINE
8
BLACK
6
CONTINUOUS
10
143.218
20
-90.6776
11
143.295
21
-90.6623
0
LINE
8
BLACK
6
CONTINUOUS
10
143.295
20
-90.6623
11
143.845
21
-90.6623
0
LINE
8
BLACK
6
CONTINUOUS
10
143.845
20
-90.6623
11
143.922
21
-90.6776
0
LINE
8
BLACK
6
CONTINUOUS
10
133.947
20
-90.6652
11
134.011
21
-90.7086
0
LINE
8
BLACK
6
CONTINUOUS
10
134.011
20
-90.7086
11
134.055
21
-90.7735
0
LINE
8
BLACK
6
CONTINUOUS
10
134.055
20
-90.7735
11
134.07
21
-90.85
0
LINE
8
BLACK
6
CONTINUOUS
10
134.07
20
-90.85
11
134.07
21
-91.25
0
LINE
8
BLACK
6
CONTINUOUS
10
134.07
20
-91.25
11
134.055
21
-91.3265
0
LINE
8
BLACK
6
CONTINUOUS
10
134.055
20
-91.3265
11
134.011
21
-91.3914
0
LINE
8
BLACK
6
CONTINUOUS
10
134.011
20
-91.3914
11
133.947
21
-91.4348
0
LINE
8
BLACK
6
CONTINUOUS
10
133.947
20
-91.4348
11
133.87
21
-91.45
0
LINE
8
BLACK
6
CONTINUOUS
10
133.87
20
-91.45
11
133.32
21
-91.45
0
LINE
8
BLACK
6
CONTINUOUS
10
133.32
20
-91.45
11
133.243
21
-91.4348
0
LINE
8
BLACK
6
CONTINUOUS
10
133.243
20
-91.4348
11
133.179
21
-91.3914
0
LINE
8
BLACK
6
CONTINUOUS
10
133.179
20
-91.3914
11
133.135
21
-91.3265
0
LINE
8
BLACK
6
CONTINUOUS
10
133.135
20
-91.3265
11
133.12
21
-91.25
0
LINE
8
BLACK
6
CONTINUOUS
10
133.12
20
-91.25
11
133.12
21
-90.85
0
LINE
8
BLACK
6
CONTINUOUS
10
133.12
20
-90.85
11
133.135
21
-90.7735
0
LINE
8
BLACK
6
CONTINUOUS
10
133.135
20
-90.7735
11
133.179
21
-90.7086
0
LINE
8
BLACK
6
CONTINUOUS
10
133.179
20
-90.7086
11
133.243
21
-90.6652
0
LINE
8
BLACK
6
CONTINUOUS
10
133.243
20
-90.6652
11
133.32
21
-90.65
0
LINE
8
BLACK
6
CONTINUOUS
10
133.32
20
-90.65
11
133.87
21
-90.65
0
LINE
8
BLACK
6
CONTINUOUS
10
133.87
20
-90.65
11
133.947
21
-90.6652
0
LINE
8
BLACK
6
CONTINUOUS
10
152.352
20
-90.5652
11
152.416
21
-90.6086
0
LINE
8
BLACK
6
CONTINUOUS
10
152.416
20
-90.6086
11
152.46
21
-90.6735
0
LINE
8
BLACK
6
CONTINUOUS
10
152.46
20
-90.6735
11
152.475
21
-90.75
0
LINE
8
BLACK
6
CONTINUOUS
10
152.475
20
-90.75
11
152.475
21
-91.15
0
LINE
8
BLACK
6
CONTINUOUS
10
152.475
20
-91.15
11
152.46
21
-91.2265
0
LINE
8
BLACK
6
CONTINUOUS
10
152.46
20
-91.2265
11
152.416
21
-91.2914
0
LINE
8
BLACK
6
CONTINUOUS
10
152.416
20
-91.2914
11
152.352
21
-91.3348
0
LINE
8
BLACK
6
CONTINUOUS
10
152.352
20
-91.3348
11
152.275
21
-91.35
0
LINE
8
BLACK
6
CONTINUOUS
10
152.275
20
-91.35
11
151.725
21
-91.35
0
LINE
8
BLACK
6
CONTINUOUS
10
151.725
20
-91.35
11
151.648
21
-91.3348
0
LINE
8
BLACK
6
CONTINUOUS
10
151.648
20
-91.3348
11
151.584
21
-91.2914
0
LINE
8
BLACK
6
CONTINUOUS
10
151.584
20
-91.2914
11
151.54
21
-91.2265
0
LINE
8
BLACK
6
CONTINUOUS
10
151.54
20
-91.2265
11
151.525
21
-91.15
0
LINE
8
BLACK
6
CONTINUOUS
10
151.525
20
-91.15
11
151.525
21
-90.75
0
LINE
8
BLACK
6
CONTINUOUS
10
151.525
20
-90.75
11
151.54
21
-90.6735
0
LINE
8
BLACK
6
CONTINUOUS
10
151.54
20
-90.6735
11
151.584
21
-90.6086
0
LINE
8
BLACK
6
CONTINUOUS
10
151.584
20
-90.6086
11
151.648
21
-90.5652
0
LINE
8
BLACK
6
CONTINUOUS
10
151.648
20
-90.5652
11
151.725
21
-90.55
0
LINE
8
BLACK
6
CONTINUOUS
10
151.725
20
-90.55
11
152.275
21
-90.55
0
LINE
8
BLACK
6
CONTINUOUS
10
152.275
20
-90.55
11
152.352
21
-90.5652
0
LINE
8
BLACK
6
CONTINUOUS
10
143.922
20
-89.0276
11
143.986
21
-89.0709
0
LINE
8
BLACK
6
CONTINUOUS
10
143.986
20
-89.0709
11
144.03
21
-89.1358
0
LINE
8
BLACK
6
CONTINUOUS
10
144.03
20
-89.1358
11
144.045
21
-89.2123
0
LINE
8
BLACK
6
CONTINUOUS
10
144.045
20
-89.2123
11
144.045
21
-89.6123
0
LINE
8
BLACK
6
CONTINUOUS
10
144.045
20
-89.6123
11
144.03
21
-89.6889
0
LINE
8
BLACK
6
CONTINUOUS
10
144.03
20
-89.6889
11
143.986
21
-89.7538
0
LINE
8
BLACK
6
CONTINUOUS
10
143.986
20
-89.7538
11
143.922
21
-89.7971
0
LINE
8
BLACK
6
CONTINUOUS
10
143.922
20
-89.7971
11
143.845
21
-89.8123
0
LINE
8
BLACK
6
CONTINUOUS
10
143.845
20
-89.8123
11
143.295
21
-89.8123
0
LINE
8
BLACK
6
CONTINUOUS
10
143.295
20
-89.8123
11
143.218
21
-89.7971
0
LINE
8
BLACK
6
CONTINUOUS
10
143.218
20
-89.7971
11
143.154
21
-89.7538
0
LINE
8
BLACK
6
CONTINUOUS
10
143.154
20
-89.7538
11
143.11
21
-89.6889
0
LINE
8
BLACK
6
CONTINUOUS
10
143.11
20
-89.6889
11
143.095
21
-89.6123
0
LINE
8
BLACK
6
CONTINUOUS
10
143.095
20
-89.6123
11
143.095
21
-89.2123
0
LINE
8
BLACK
6
CONTINUOUS
10
143.095
20
-89.2123
11
143.11
21
-89.1358
0
LINE
8
BLACK
6
CONTINUOUS
10
143.11
20
-89.1358
11
143.154
21
-89.0709
0
LINE
8
BLACK
6
CONTINUOUS
10
143.154
20
-89.0709
11
143.218
21
-89.0276
0
LINE
8
BLACK
6
CONTINUOUS
10
143.218
20
-89.0276
11
143.295
21
-89.0123
0
LINE
8
BLACK
6
CONTINUOUS
10
143.295
20
-89.0123
11
143.845
21
-89.0123
0
LINE
8
BLACK
6
CONTINUOUS
10
143.845
20
-89.0123
11
143.922
21
-89.0276
0
LINE
8
BLACK
6
CONTINUOUS
10
133.947
20
-89.0152
11
134.011
21
-89.0586
0
LINE
8
BLACK
6
CONTINUOUS
10
134.011
20
-89.0586
11
134.055
21
-89.1235
0
LINE
8
BLACK
6
CONTINUOUS
10
134.055
20
-89.1235
11
134.07
21
-89.2
0
LINE
8
BLACK
6
CONTINUOUS
10
134.07
20
-89.2
11
134.07
21
-89.6
0
LINE
8
BLACK
6
CONTINUOUS
10
134.07
20
-89.6
11
134.055
21
-89.6765
0
LINE
8
BLACK
6
CONTINUOUS
10
134.055
20
-89.6765
11
134.011
21
-89.7414
0
LINE
8
BLACK
6
CONTINUOUS
10
134.011
20
-89.7414
11
133.947
21
-89.7848
0
LINE
8
BLACK
6
CONTINUOUS
10
133.947
20
-89.7848
11
133.87
21
-89.8
0
LINE
8
BLACK
6
CONTINUOUS
10
133.87
20
-89.8
11
133.32
21
-89.8
0
LINE
8
BLACK
6
CONTINUOUS
10
133.32
20
-89.8
11
133.243
21
-89.7848
0
LINE
8
BLACK
6
CONTINUOUS
10
133.243
20
-89.7848
11
133.179
21
-89.7414
0
LINE
8
BLACK
6
CONTINUOUS
10
133.179
20
-89.7414
11
133.135
21
-89.6765
0
LINE
8
BLACK
6
CONTINUOUS
10
133.135
20
-89.6765
11
133.12
21
-89.6
0
LINE
8
BLACK
6
CONTINUOUS
10
133.12
20
-89.6
11
133.12
21
-89.2
0
LINE
8
BLACK
6
CONTINUOUS
10
133.12
20
-89.2
11
133.135
21
-89.1235
0
LINE
8
BLACK
6
CONTINUOUS
10
133.135
20
-89.1235
11
133.179
21
-89.0586
0
LINE
8
BLACK
6
CONTINUOUS
10
133.179
20
-89.0586
11
133.243
21
-89.0152
0
LINE
8
BLACK
6
CONTINUOUS
10
133.243
20
-89.0152
11
133.32
21
-89
0
LINE
8
BLACK
6
CONTINUOUS
10
133.32
20
-89
11
133.87
21
-89
0
LINE
8
BLACK
6
CONTINUOUS
10
133.87
20
-89
11
133.947
21
-89.0152
0
LINE
8
BLACK
6
CONTINUOUS
10
152.352
20
-88.9152
11
152.416
21
-88.9586
0
LINE
8
BLACK
6
CONTINUOUS
10
152.416
20
-88.9586
11
152.46
21
-89.0235
0
LINE
8
BLACK
6
CONTINUOUS
10
152.46
20
-89.0235
11
152.475
21
-89.1
0
LINE
8
BLACK
6
CONTINUOUS
10
152.475
20
-89.1
11
152.475
21
-89.5
0
LINE
8
BLACK
6
CONTINUOUS
10
152.475
20
-89.5
11
152.46
21
-89.5765
0
LINE
8
BLACK
6
CONTINUOUS
10
152.46
20
-89.5765
11
152.416
21
-89.6414
0
LINE
8
BLACK
6
CONTINUOUS
10
152.416
20
-89.6414
11
152.352
21
-89.6848
0
LINE
8
BLACK
6
CONTINUOUS
10
152.352
20
-89.6848
11
152.275
21
-89.7
0
LINE
8
BLACK
6
CONTINUOUS
10
152.275
20
-89.7
11
151.725
21
-89.7
0
LINE
8
BLACK
6
CONTINUOUS
10
151.725
20
-89.7
11
151.648
21
-89.6848
0
LINE
8
BLACK
6
CONTINUOUS
10
151.648
20
-89.6848
11
151.584
21
-89.6414
0
LINE
8
BLACK
6
CONTINUOUS
10
151.584
20
-89.6414
11
151.54
21
-89.5765
0
LINE
8
BLACK
6
CONTINUOUS
10
151.54
20
-89.5765
11
151.525
21
-89.5
0
LINE
8
BLACK
6
CONTINUOUS
10
151.525
20
-89.5
11
151.525
21
-89.1
0
LINE
8
BLACK
6
CONTINUOUS
10
151.525
20
-89.1
11
151.54
21
-89.0235
0
LINE
8
BLACK
6
CONTINUOUS
10
151.54
20
-89.0235
11
151.584
21
-88.9586
0
LINE
8
BLACK
6
CONTINUOUS
10
151.584
20
-88.9586
11
151.648
21
-88.9152
0
LINE
8
BLACK
6
CONTINUOUS
10
151.648
20
-88.9152
11
151.725
21
-88.9
0
LINE
8
BLACK
6
CONTINUOUS
10
151.725
20
-88.9
11
152.275
21
-88.9
0
LINE
8
BLACK
6
CONTINUOUS
10
152.275
20
-88.9
11
152.352
21
-88.9152
0
LINE
8
BLACK
6
CONTINUOUS
10
113.9
20
-88
11
112.5
21
-88
0
LINE
8
BLACK
6
CONTINUOUS
10
112.5
20
-88
11
112.5
21
-86.6
0
LINE
8
BLACK
6
CONTINUOUS
10
112.5
20
-86.6
11
113.9
21
-86.6
0
LINE
8
BLACK
6
CONTINUOUS
10
113.9
20
-86.6
11
113.9
21
-88
0
LINE
8
BLACK
6
CONTINUOUS
10
117.15
20
-88
11
115.75
21
-88
0
LINE
8
BLACK
6
CONTINUOUS
10
115.75
20
-88
11
115.75
21
-86.6
0
LINE
8
BLACK
6
CONTINUOUS
10
115.75
20
-86.6
11
117.15
21
-86.6
0
LINE
8
BLACK
6
CONTINUOUS
10
117.15
20
-86.6
11
117.15
21
-88
  0
ENDSEC
  0
EOF
