  0
SECTION
  2
HEADER
  9
$ANGBASE
  50
0.0
  9
$ANGDIR
  70
1
  9
$MEASUREMENT
  70
1
  0
ENDSEC
  0
SECTION
  2
TABLES
  0
TABLE
  2
LTYPE
  70
4
  0
LTYPE
  5
40F
  2
CONTINUOUS
  70
0
  3
Solid line
  72
65
  73
0
  40
0.0
  0
LTYPE
  5
410
  2
DASHDOT
 70
0
  3
Dash Dot ____ _ ____ _
 72
65
 73
4
 40
2.0
 49
1.25
 49
-0.25
 49
0.25
 49
-0.25
  0
LTYPE
  5
411
  2
DASHED
 70
0
  3
Dashed __ __ __ __ __
 72
65
 73
2
 40
0.75
 49
0.5
 49
-0.25
  0
LTYPE
  5
43B
  2
DOTTED
 70
0
  3
Dotted .  .  .  .
 72
65
 73
2
 40
0.2
 49
0.0
 49
-0.2
  0
ENDTAB
  0
TABLE
  2
STYLE
  70
4
  0
STYLE
  2
KICAD
  70
0
  40
0
  41
1
  42
1
  50
0
  71
0
  3
isocp.shx
  0
STYLE
  2
KICADB
  70
0
  40
0
  41
1
  42
1
  50
0
  71
0
  3
isocp.shx
  0
STYLE
  2
KICADI
  70
0
  40
0
  41
1
  42
1
  50
15
  71
0
  3
isocp.shx
  0
STYLE
  2
KICADBI
  70
0
  40
0
  41
1
  42
1
  50
15
  71
0
  3
isocp.shx
  0
ENDTAB
  0
TABLE
  2
LAYER
  70
1
  0
LAYER
  2
BLACK
  70
0
  62
7
  6
CONTINUOUS
  0
ENDTAB
  0
ENDSEC
  0
SECTION
  2
ENTITIES
0
LINE
8
BLACK
6
CONTINUOUS
10
105.486
20
-137.243
11
105.803
21
-137.318
0
LINE
8
BLACK
6
CONTINUOUS
10
105.803
20
-137.318
11
106.109
21
-137.429
0
LINE
8
BLACK
6
CONTINUOUS
10
106.109
20
-137.429
11
106.4
21
-137.575
0
LINE
8
BLACK
6
CONTINUOUS
10
106.4
20
-137.575
11
106.672
21
-137.754
0
LINE
8
BLACK
6
CONTINUOUS
10
106.672
20
-137.754
11
106.921
21
-137.963
0
LINE
8
BLACK
6
CONTINUOUS
10
106.921
20
-137.963
11
107.145
21
-138.2
0
LINE
8
BLACK
6
CONTINUOUS
10
107.145
20
-138.2
11
107.339
21
-138.461
0
LINE
8
BLACK
6
CONTINUOUS
10
107.339
20
-138.461
11
107.502
21
-138.743
0
LINE
8
BLACK
6
CONTINUOUS
10
107.502
20
-138.743
11
107.631
21
-139.042
0
LINE
8
BLACK
6
CONTINUOUS
10
107.631
20
-139.042
11
107.725
21
-139.354
0
LINE
8
BLACK
6
CONTINUOUS
10
107.725
20
-139.354
11
107.781
21
-139.675
0
LINE
8
BLACK
6
CONTINUOUS
10
107.781
20
-139.675
11
107.8
21
-140
0
LINE
8
BLACK
6
CONTINUOUS
10
107.8
20
-140
11
107.781
21
-140.325
0
LINE
8
BLACK
6
CONTINUOUS
10
107.781
20
-140.325
11
107.725
21
-140.646
0
LINE
8
BLACK
6
CONTINUOUS
10
107.725
20
-140.646
11
107.631
21
-140.958
0
LINE
8
BLACK
6
CONTINUOUS
10
107.631
20
-140.958
11
107.502
21
-141.257
0
LINE
8
BLACK
6
CONTINUOUS
10
107.502
20
-141.257
11
107.339
21
-141.539
0
LINE
8
BLACK
6
CONTINUOUS
10
107.339
20
-141.539
11
107.145
21
-141.8
0
LINE
8
BLACK
6
CONTINUOUS
10
107.145
20
-141.8
11
106.921
21
-142.037
0
LINE
8
BLACK
6
CONTINUOUS
10
106.921
20
-142.037
11
106.672
21
-142.246
0
LINE
8
BLACK
6
CONTINUOUS
10
106.672
20
-142.246
11
106.4
21
-142.425
0
LINE
8
BLACK
6
CONTINUOUS
10
106.4
20
-142.425
11
106.109
21
-142.571
0
LINE
8
BLACK
6
CONTINUOUS
10
106.109
20
-142.571
11
105.803
21
-142.682
0
LINE
8
BLACK
6
CONTINUOUS
10
105.803
20
-142.682
11
105.486
21
-142.757
0
LINE
8
BLACK
6
CONTINUOUS
10
105.486
20
-142.757
11
105.163
21
-142.795
0
LINE
8
BLACK
6
CONTINUOUS
10
105.163
20
-142.795
11
104.837
21
-142.795
0
LINE
8
BLACK
6
CONTINUOUS
10
104.837
20
-142.795
11
104.514
21
-142.757
0
LINE
8
BLACK
6
CONTINUOUS
10
104.514
20
-142.757
11
104.197
21
-142.682
0
LINE
8
BLACK
6
CONTINUOUS
10
104.197
20
-142.682
11
103.891
21
-142.571
0
LINE
8
BLACK
6
CONTINUOUS
10
103.891
20
-142.571
11
103.6
21
-142.425
0
LINE
8
BLACK
6
CONTINUOUS
10
103.6
20
-142.425
11
103.328
21
-142.246
0
LINE
8
BLACK
6
CONTINUOUS
10
103.328
20
-142.246
11
103.079
21
-142.037
0
LINE
8
BLACK
6
CONTINUOUS
10
103.079
20
-142.037
11
102.855
21
-141.8
0
LINE
8
BLACK
6
CONTINUOUS
10
102.855
20
-141.8
11
102.661
21
-141.539
0
LINE
8
BLACK
6
CONTINUOUS
10
102.661
20
-141.539
11
102.498
21
-141.257
0
LINE
8
BLACK
6
CONTINUOUS
10
102.498
20
-141.257
11
102.369
21
-140.958
0
LINE
8
BLACK
6
CONTINUOUS
10
102.369
20
-140.958
11
102.275
21
-140.646
0
LINE
8
BLACK
6
CONTINUOUS
10
102.275
20
-140.646
11
102.219
21
-140.325
0
LINE
8
BLACK
6
CONTINUOUS
10
102.219
20
-140.325
11
102.2
21
-140
0
LINE
8
BLACK
6
CONTINUOUS
10
102.2
20
-140
11
102.219
21
-139.675
0
LINE
8
BLACK
6
CONTINUOUS
10
102.219
20
-139.675
11
102.275
21
-139.354
0
LINE
8
BLACK
6
CONTINUOUS
10
102.275
20
-139.354
11
102.369
21
-139.042
0
LINE
8
BLACK
6
CONTINUOUS
10
102.369
20
-139.042
11
102.498
21
-138.743
0
LINE
8
BLACK
6
CONTINUOUS
10
102.498
20
-138.743
11
102.661
21
-138.461
0
LINE
8
BLACK
6
CONTINUOUS
10
102.661
20
-138.461
11
102.855
21
-138.2
0
LINE
8
BLACK
6
CONTINUOUS
10
102.855
20
-138.2
11
103.079
21
-137.963
0
LINE
8
BLACK
6
CONTINUOUS
10
103.079
20
-137.963
11
103.328
21
-137.754
0
LINE
8
BLACK
6
CONTINUOUS
10
103.328
20
-137.754
11
103.6
21
-137.575
0
LINE
8
BLACK
6
CONTINUOUS
10
103.6
20
-137.575
11
103.891
21
-137.429
0
LINE
8
BLACK
6
CONTINUOUS
10
103.891
20
-137.429
11
104.197
21
-137.318
0
LINE
8
BLACK
6
CONTINUOUS
10
104.197
20
-137.318
11
104.514
21
-137.243
0
LINE
8
BLACK
6
CONTINUOUS
10
104.514
20
-137.243
11
104.837
21
-137.205
0
LINE
8
BLACK
6
CONTINUOUS
10
104.837
20
-137.205
11
105.163
21
-137.205
0
LINE
8
BLACK
6
CONTINUOUS
10
105.163
20
-137.205
11
105.486
21
-137.243
0
LINE
8
BLACK
6
CONTINUOUS
10
181.486
20
-137.243
11
181.803
21
-137.318
0
LINE
8
BLACK
6
CONTINUOUS
10
181.803
20
-137.318
11
182.109
21
-137.429
0
LINE
8
BLACK
6
CONTINUOUS
10
182.109
20
-137.429
11
182.4
21
-137.575
0
LINE
8
BLACK
6
CONTINUOUS
10
182.4
20
-137.575
11
182.672
21
-137.754
0
LINE
8
BLACK
6
CONTINUOUS
10
182.672
20
-137.754
11
182.921
21
-137.963
0
LINE
8
BLACK
6
CONTINUOUS
10
182.921
20
-137.963
11
183.145
21
-138.2
0
LINE
8
BLACK
6
CONTINUOUS
10
183.145
20
-138.2
11
183.339
21
-138.461
0
LINE
8
BLACK
6
CONTINUOUS
10
183.339
20
-138.461
11
183.502
21
-138.743
0
LINE
8
BLACK
6
CONTINUOUS
10
183.502
20
-138.743
11
183.631
21
-139.042
0
LINE
8
BLACK
6
CONTINUOUS
10
183.631
20
-139.042
11
183.725
21
-139.354
0
LINE
8
BLACK
6
CONTINUOUS
10
183.725
20
-139.354
11
183.781
21
-139.675
0
LINE
8
BLACK
6
CONTINUOUS
10
183.781
20
-139.675
11
183.8
21
-140
0
LINE
8
BLACK
6
CONTINUOUS
10
183.8
20
-140
11
183.781
21
-140.325
0
LINE
8
BLACK
6
CONTINUOUS
10
183.781
20
-140.325
11
183.725
21
-140.646
0
LINE
8
BLACK
6
CONTINUOUS
10
183.725
20
-140.646
11
183.631
21
-140.958
0
LINE
8
BLACK
6
CONTINUOUS
10
183.631
20
-140.958
11
183.502
21
-141.257
0
LINE
8
BLACK
6
CONTINUOUS
10
183.502
20
-141.257
11
183.339
21
-141.539
0
LINE
8
BLACK
6
CONTINUOUS
10
183.339
20
-141.539
11
183.145
21
-141.8
0
LINE
8
BLACK
6
CONTINUOUS
10
183.145
20
-141.8
11
182.921
21
-142.037
0
LINE
8
BLACK
6
CONTINUOUS
10
182.921
20
-142.037
11
182.672
21
-142.246
0
LINE
8
BLACK
6
CONTINUOUS
10
182.672
20
-142.246
11
182.4
21
-142.425
0
LINE
8
BLACK
6
CONTINUOUS
10
182.4
20
-142.425
11
182.109
21
-142.571
0
LINE
8
BLACK
6
CONTINUOUS
10
182.109
20
-142.571
11
181.803
21
-142.682
0
LINE
8
BLACK
6
CONTINUOUS
10
181.803
20
-142.682
11
181.486
21
-142.757
0
LINE
8
BLACK
6
CONTINUOUS
10
181.486
20
-142.757
11
181.163
21
-142.795
0
LINE
8
BLACK
6
CONTINUOUS
10
181.163
20
-142.795
11
180.837
21
-142.795
0
LINE
8
BLACK
6
CONTINUOUS
10
180.837
20
-142.795
11
180.514
21
-142.757
0
LINE
8
BLACK
6
CONTINUOUS
10
180.514
20
-142.757
11
180.197
21
-142.682
0
LINE
8
BLACK
6
CONTINUOUS
10
180.197
20
-142.682
11
179.891
21
-142.571
0
LINE
8
BLACK
6
CONTINUOUS
10
179.891
20
-142.571
11
179.6
21
-142.425
0
LINE
8
BLACK
6
CONTINUOUS
10
179.6
20
-142.425
11
179.328
21
-142.246
0
LINE
8
BLACK
6
CONTINUOUS
10
179.328
20
-142.246
11
179.079
21
-142.037
0
LINE
8
BLACK
6
CONTINUOUS
10
179.079
20
-142.037
11
178.855
21
-141.8
0
LINE
8
BLACK
6
CONTINUOUS
10
178.855
20
-141.8
11
178.661
21
-141.539
0
LINE
8
BLACK
6
CONTINUOUS
10
178.661
20
-141.539
11
178.498
21
-141.257
0
LINE
8
BLACK
6
CONTINUOUS
10
178.498
20
-141.257
11
178.369
21
-140.958
0
LINE
8
BLACK
6
CONTINUOUS
10
178.369
20
-140.958
11
178.275
21
-140.646
0
LINE
8
BLACK
6
CONTINUOUS
10
178.275
20
-140.646
11
178.219
21
-140.325
0
LINE
8
BLACK
6
CONTINUOUS
10
178.219
20
-140.325
11
178.2
21
-140
0
LINE
8
BLACK
6
CONTINUOUS
10
178.2
20
-140
11
178.219
21
-139.675
0
LINE
8
BLACK
6
CONTINUOUS
10
178.219
20
-139.675
11
178.275
21
-139.354
0
LINE
8
BLACK
6
CONTINUOUS
10
178.275
20
-139.354
11
178.369
21
-139.042
0
LINE
8
BLACK
6
CONTINUOUS
10
178.369
20
-139.042
11
178.498
21
-138.743
0
LINE
8
BLACK
6
CONTINUOUS
10
178.498
20
-138.743
11
178.661
21
-138.461
0
LINE
8
BLACK
6
CONTINUOUS
10
178.661
20
-138.461
11
178.855
21
-138.2
0
LINE
8
BLACK
6
CONTINUOUS
10
178.855
20
-138.2
11
179.079
21
-137.963
0
LINE
8
BLACK
6
CONTINUOUS
10
179.079
20
-137.963
11
179.328
21
-137.754
0
LINE
8
BLACK
6
CONTINUOUS
10
179.328
20
-137.754
11
179.6
21
-137.575
0
LINE
8
BLACK
6
CONTINUOUS
10
179.6
20
-137.575
11
179.891
21
-137.429
0
LINE
8
BLACK
6
CONTINUOUS
10
179.891
20
-137.429
11
180.197
21
-137.318
0
LINE
8
BLACK
6
CONTINUOUS
10
180.197
20
-137.318
11
180.514
21
-137.243
0
LINE
8
BLACK
6
CONTINUOUS
10
180.514
20
-137.243
11
180.837
21
-137.205
0
LINE
8
BLACK
6
CONTINUOUS
10
180.837
20
-137.205
11
181.163
21
-137.205
0
LINE
8
BLACK
6
CONTINUOUS
10
181.163
20
-137.205
11
181.486
21
-137.243
0
LINE
8
BLACK
6
CONTINUOUS
10
165.4
20
-142.73
11
164.1
21
-142.73
0
LINE
8
BLACK
6
CONTINUOUS
10
164.1
20
-142.73
11
164.1
21
-140.93
0
LINE
8
BLACK
6
CONTINUOUS
10
164.1
20
-140.93
11
165.4
21
-140.93
0
LINE
8
BLACK
6
CONTINUOUS
10
165.4
20
-140.93
11
165.4
21
-142.73
0
LINE
8
BLACK
6
CONTINUOUS
10
177.7
20
-142.73
11
176.4
21
-142.73
0
LINE
8
BLACK
6
CONTINUOUS
10
176.4
20
-142.73
11
176.4
21
-140.93
0
LINE
8
BLACK
6
CONTINUOUS
10
176.4
20
-140.93
11
177.7
21
-140.93
0
LINE
8
BLACK
6
CONTINUOUS
10
177.7
20
-140.93
11
177.7
21
-142.73
0
LINE
8
BLACK
6
CONTINUOUS
10
114.65
20
-139.375
11
109.85
21
-139.375
0
LINE
8
BLACK
6
CONTINUOUS
10
109.85
20
-139.375
11
109.85
21
-134.655
0
LINE
8
BLACK
6
CONTINUOUS
10
109.85
20
-134.655
11
114.65
21
-134.655
0
LINE
8
BLACK
6
CONTINUOUS
10
114.65
20
-134.655
11
114.65
21
-139.375
0
LINE
8
BLACK
6
CONTINUOUS
10
149.274
20
-135.97
11
149.385
21
-136.026
0
LINE
8
BLACK
6
CONTINUOUS
10
149.385
20
-136.026
11
149.474
21
-136.115
0
LINE
8
BLACK
6
CONTINUOUS
10
149.474
20
-136.115
11
149.53
21
-136.226
0
LINE
8
BLACK
6
CONTINUOUS
10
149.53
20
-136.226
11
149.55
21
-136.35
0
LINE
8
BLACK
6
CONTINUOUS
10
149.55
20
-136.35
11
149.55
21
-136.85
0
LINE
8
BLACK
6
CONTINUOUS
10
149.55
20
-136.85
11
149.53
21
-136.974
0
LINE
8
BLACK
6
CONTINUOUS
10
149.53
20
-136.974
11
149.474
21
-137.085
0
LINE
8
BLACK
6
CONTINUOUS
10
149.474
20
-137.085
11
149.385
21
-137.174
0
LINE
8
BLACK
6
CONTINUOUS
10
149.385
20
-137.174
11
149.274
21
-137.23
0
LINE
8
BLACK
6
CONTINUOUS
10
149.274
20
-137.23
11
149.15
21
-137.25
0
LINE
8
BLACK
6
CONTINUOUS
10
149.15
20
-137.25
11
149.026
21
-137.23
0
LINE
8
BLACK
6
CONTINUOUS
10
149.026
20
-137.23
11
148.915
21
-137.174
0
LINE
8
BLACK
6
CONTINUOUS
10
148.915
20
-137.174
11
148.826
21
-137.085
0
LINE
8
BLACK
6
CONTINUOUS
10
148.826
20
-137.085
11
148.77
21
-136.974
0
LINE
8
BLACK
6
CONTINUOUS
10
148.77
20
-136.974
11
148.75
21
-136.85
0
LINE
8
BLACK
6
CONTINUOUS
10
148.75
20
-136.85
11
148.75
21
-136.35
0
LINE
8
BLACK
6
CONTINUOUS
10
148.75
20
-136.35
11
148.77
21
-136.226
0
LINE
8
BLACK
6
CONTINUOUS
10
148.77
20
-136.226
11
148.826
21
-136.115
0
LINE
8
BLACK
6
CONTINUOUS
10
148.826
20
-136.115
11
148.915
21
-136.026
0
LINE
8
BLACK
6
CONTINUOUS
10
148.915
20
-136.026
11
149.026
21
-135.97
0
LINE
8
BLACK
6
CONTINUOUS
10
149.026
20
-135.97
11
149.15
21
-135.95
0
LINE
8
BLACK
6
CONTINUOUS
10
149.15
20
-135.95
11
149.274
21
-135.97
0
LINE
8
BLACK
6
CONTINUOUS
10
150.524
20
-135.97
11
150.635
21
-136.026
0
LINE
8
BLACK
6
CONTINUOUS
10
150.635
20
-136.026
11
150.724
21
-136.115
0
LINE
8
BLACK
6
CONTINUOUS
10
150.724
20
-136.115
11
150.78
21
-136.226
0
LINE
8
BLACK
6
CONTINUOUS
10
150.78
20
-136.226
11
150.8
21
-136.35
0
LINE
8
BLACK
6
CONTINUOUS
10
150.8
20
-136.35
11
150.8
21
-136.85
0
LINE
8
BLACK
6
CONTINUOUS
10
150.8
20
-136.85
11
150.78
21
-136.974
0
LINE
8
BLACK
6
CONTINUOUS
10
150.78
20
-136.974
11
150.724
21
-137.085
0
LINE
8
BLACK
6
CONTINUOUS
10
150.724
20
-137.085
11
150.635
21
-137.174
0
LINE
8
BLACK
6
CONTINUOUS
10
150.635
20
-137.174
11
150.524
21
-137.23
0
LINE
8
BLACK
6
CONTINUOUS
10
150.524
20
-137.23
11
150.4
21
-137.25
0
LINE
8
BLACK
6
CONTINUOUS
10
150.4
20
-137.25
11
150.276
21
-137.23
0
LINE
8
BLACK
6
CONTINUOUS
10
150.276
20
-137.23
11
150.165
21
-137.174
0
LINE
8
BLACK
6
CONTINUOUS
10
150.165
20
-137.174
11
150.076
21
-137.085
0
LINE
8
BLACK
6
CONTINUOUS
10
150.076
20
-137.085
11
150.02
21
-136.974
0
LINE
8
BLACK
6
CONTINUOUS
10
150.02
20
-136.974
11
150
21
-136.85
0
LINE
8
BLACK
6
CONTINUOUS
10
150
20
-136.85
11
150
21
-136.35
0
LINE
8
BLACK
6
CONTINUOUS
10
150
20
-136.35
11
150.02
21
-136.226
0
LINE
8
BLACK
6
CONTINUOUS
10
150.02
20
-136.226
11
150.076
21
-136.115
0
LINE
8
BLACK
6
CONTINUOUS
10
150.076
20
-136.115
11
150.165
21
-136.026
0
LINE
8
BLACK
6
CONTINUOUS
10
150.165
20
-136.026
11
150.276
21
-135.97
0
LINE
8
BLACK
6
CONTINUOUS
10
150.276
20
-135.97
11
150.4
21
-135.95
0
LINE
8
BLACK
6
CONTINUOUS
10
150.4
20
-135.95
11
150.524
21
-135.97
0
LINE
8
BLACK
6
CONTINUOUS
10
151.927
20
-135.965
11
151.991
21
-136.009
0
LINE
8
BLACK
6
CONTINUOUS
10
151.991
20
-136.009
11
152.035
21
-136.073
0
LINE
8
BLACK
6
CONTINUOUS
10
152.035
20
-136.073
11
152.05
21
-136.15
0
LINE
8
BLACK
6
CONTINUOUS
10
152.05
20
-136.15
11
152.05
21
-137.05
0
LINE
8
BLACK
6
CONTINUOUS
10
152.05
20
-137.05
11
152.035
21
-137.127
0
LINE
8
BLACK
6
CONTINUOUS
10
152.035
20
-137.127
11
151.991
21
-137.191
0
LINE
8
BLACK
6
CONTINUOUS
10
151.991
20
-137.191
11
151.927
21
-137.235
0
LINE
8
BLACK
6
CONTINUOUS
10
151.927
20
-137.235
11
151.85
21
-137.25
0
LINE
8
BLACK
6
CONTINUOUS
10
151.85
20
-137.25
11
151.45
21
-137.25
0
LINE
8
BLACK
6
CONTINUOUS
10
151.45
20
-137.25
11
151.373
21
-137.235
0
LINE
8
BLACK
6
CONTINUOUS
10
151.373
20
-137.235
11
151.309
21
-137.191
0
LINE
8
BLACK
6
CONTINUOUS
10
151.309
20
-137.191
11
151.265
21
-137.127
0
LINE
8
BLACK
6
CONTINUOUS
10
151.265
20
-137.127
11
151.25
21
-137.05
0
LINE
8
BLACK
6
CONTINUOUS
10
151.25
20
-137.05
11
151.25
21
-136.15
0
LINE
8
BLACK
6
CONTINUOUS
10
151.25
20
-136.15
11
151.265
21
-136.073
0
LINE
8
BLACK
6
CONTINUOUS
10
151.265
20
-136.073
11
151.309
21
-136.009
0
LINE
8
BLACK
6
CONTINUOUS
10
151.309
20
-136.009
11
151.373
21
-135.965
0
LINE
8
BLACK
6
CONTINUOUS
10
151.373
20
-135.965
11
151.45
21
-135.95
0
LINE
8
BLACK
6
CONTINUOUS
10
151.45
20
-135.95
11
151.85
21
-135.95
0
LINE
8
BLACK
6
CONTINUOUS
10
151.85
20
-135.95
11
151.927
21
-135.965
0
LINE
8
BLACK
6
CONTINUOUS
10
165.4
20
-133.93
11
164.1
21
-133.93
0
LINE
8
BLACK
6
CONTINUOUS
10
164.1
20
-133.93
11
164.1
21
-132.13
0
LINE
8
BLACK
6
CONTINUOUS
10
164.1
20
-132.13
11
165.4
21
-132.13
0
LINE
8
BLACK
6
CONTINUOUS
10
165.4
20
-132.13
11
165.4
21
-133.93
0
LINE
8
BLACK
6
CONTINUOUS
10
177.7
20
-133.93
11
176.4
21
-133.93
0
LINE
8
BLACK
6
CONTINUOUS
10
176.4
20
-133.93
11
176.4
21
-132.13
0
LINE
8
BLACK
6
CONTINUOUS
10
176.4
20
-132.13
11
177.7
21
-132.13
0
LINE
8
BLACK
6
CONTINUOUS
10
177.7
20
-132.13
11
177.7
21
-133.93
0
LINE
8
BLACK
6
CONTINUOUS
10
111.91
20
-133.845
11
110.51
21
-133.845
0
LINE
8
BLACK
6
CONTINUOUS
10
110.51
20
-133.845
11
110.51
21
-132.575
0
LINE
8
BLACK
6
CONTINUOUS
10
110.51
20
-132.575
11
111.91
21
-132.575
0
LINE
8
BLACK
6
CONTINUOUS
10
111.91
20
-132.575
11
111.91
21
-133.845
0
LINE
8
BLACK
6
CONTINUOUS
10
113.99
20
-133.845
11
112.59
21
-133.845
0
LINE
8
BLACK
6
CONTINUOUS
10
112.59
20
-133.845
11
112.59
21
-132.575
0
LINE
8
BLACK
6
CONTINUOUS
10
112.59
20
-132.575
11
113.99
21
-132.575
0
LINE
8
BLACK
6
CONTINUOUS
10
113.99
20
-132.575
11
113.99
21
-133.845
0
LINE
8
BLACK
6
CONTINUOUS
10
105.846
20
-128.919
11
106.09
21
-128.978
0
LINE
8
BLACK
6
CONTINUOUS
10
106.09
20
-128.978
11
106.322
21
-129.074
0
LINE
8
BLACK
6
CONTINUOUS
10
106.322
20
-129.074
11
106.536
21
-129.205
0
LINE
8
BLACK
6
CONTINUOUS
10
106.536
20
-129.205
11
106.727
21
-129.368
0
LINE
8
BLACK
6
CONTINUOUS
10
106.727
20
-129.368
11
106.89
21
-129.559
0
LINE
8
BLACK
6
CONTINUOUS
10
106.89
20
-129.559
11
107.021
21
-129.774
0
LINE
8
BLACK
6
CONTINUOUS
10
107.021
20
-129.774
11
107.117
21
-130.006
0
LINE
8
BLACK
6
CONTINUOUS
10
107.117
20
-130.006
11
107.176
21
-130.25
0
LINE
8
BLACK
6
CONTINUOUS
10
107.176
20
-130.25
11
107.196
21
-130.5
0
LINE
8
BLACK
6
CONTINUOUS
10
107.196
20
-130.5
11
107.176
21
-130.75
0
LINE
8
BLACK
6
CONTINUOUS
10
107.176
20
-130.75
11
107.117
21
-130.994
0
LINE
8
BLACK
6
CONTINUOUS
10
107.117
20
-130.994
11
107.021
21
-131.226
0
LINE
8
BLACK
6
CONTINUOUS
10
107.021
20
-131.226
11
106.89
21
-131.441
0
LINE
8
BLACK
6
CONTINUOUS
10
106.89
20
-131.441
11
106.727
21
-131.632
0
LINE
8
BLACK
6
CONTINUOUS
10
106.727
20
-131.632
11
106.536
21
-131.795
0
LINE
8
BLACK
6
CONTINUOUS
10
106.536
20
-131.795
11
106.322
21
-131.926
0
LINE
8
BLACK
6
CONTINUOUS
10
106.322
20
-131.926
11
106.09
21
-132.022
0
LINE
8
BLACK
6
CONTINUOUS
10
106.09
20
-132.022
11
105.846
21
-132.08
0
LINE
8
BLACK
6
CONTINUOUS
10
105.846
20
-132.08
11
105.596
21
-132.1
0
LINE
8
BLACK
6
CONTINUOUS
10
105.596
20
-132.1
11
105.345
21
-132.08
0
LINE
8
BLACK
6
CONTINUOUS
10
105.345
20
-132.08
11
105.101
21
-132.022
0
LINE
8
BLACK
6
CONTINUOUS
10
105.101
20
-132.022
11
104.869
21
-131.926
0
LINE
8
BLACK
6
CONTINUOUS
10
104.869
20
-131.926
11
104.655
21
-131.795
0
LINE
8
BLACK
6
CONTINUOUS
10
104.655
20
-131.795
11
104.464
21
-131.632
0
LINE
8
BLACK
6
CONTINUOUS
10
104.464
20
-131.632
11
104.301
21
-131.441
0
LINE
8
BLACK
6
CONTINUOUS
10
104.301
20
-131.441
11
104.17
21
-131.226
0
LINE
8
BLACK
6
CONTINUOUS
10
104.17
20
-131.226
11
104.074
21
-130.994
0
LINE
8
BLACK
6
CONTINUOUS
10
104.074
20
-130.994
11
104.015
21
-130.75
0
LINE
8
BLACK
6
CONTINUOUS
10
104.015
20
-130.75
11
103.995
21
-130.5
0
LINE
8
BLACK
6
CONTINUOUS
10
103.995
20
-130.5
11
104.015
21
-130.25
0
LINE
8
BLACK
6
CONTINUOUS
10
104.015
20
-130.25
11
104.074
21
-130.006
0
LINE
8
BLACK
6
CONTINUOUS
10
104.074
20
-130.006
11
104.17
21
-129.774
0
LINE
8
BLACK
6
CONTINUOUS
10
104.17
20
-129.774
11
104.301
21
-129.559
0
LINE
8
BLACK
6
CONTINUOUS
10
104.301
20
-129.559
11
104.464
21
-129.368
0
LINE
8
BLACK
6
CONTINUOUS
10
104.464
20
-129.368
11
104.655
21
-129.205
0
LINE
8
BLACK
6
CONTINUOUS
10
104.655
20
-129.205
11
104.869
21
-129.074
0
LINE
8
BLACK
6
CONTINUOUS
10
104.869
20
-129.074
11
105.101
21
-128.978
0
LINE
8
BLACK
6
CONTINUOUS
10
105.101
20
-128.978
11
105.345
21
-128.919
0
LINE
8
BLACK
6
CONTINUOUS
10
105.345
20
-128.919
11
105.596
21
-128.9
0
LINE
8
BLACK
6
CONTINUOUS
10
105.596
20
-128.9
11
105.846
21
-128.919
0
LINE
8
BLACK
6
CONTINUOUS
10
111.471
20
-130.419
11
111.552
21
-130.473
0
LINE
8
BLACK
6
CONTINUOUS
10
111.552
20
-130.473
11
111.606
21
-130.554
0
LINE
8
BLACK
6
CONTINUOUS
10
111.606
20
-130.554
11
111.625
21
-130.65
0
LINE
8
BLACK
6
CONTINUOUS
10
111.625
20
-130.65
11
111.625
21
-131.4
0
LINE
8
BLACK
6
CONTINUOUS
10
111.625
20
-131.4
11
111.606
21
-131.496
0
LINE
8
BLACK
6
CONTINUOUS
10
111.606
20
-131.496
11
111.552
21
-131.577
0
LINE
8
BLACK
6
CONTINUOUS
10
111.552
20
-131.577
11
111.471
21
-131.631
0
LINE
8
BLACK
6
CONTINUOUS
10
111.471
20
-131.631
11
111.375
21
-131.65
0
LINE
8
BLACK
6
CONTINUOUS
10
111.375
20
-131.65
11
110.125
21
-131.65
0
LINE
8
BLACK
6
CONTINUOUS
10
110.125
20
-131.65
11
110.029
21
-131.631
0
LINE
8
BLACK
6
CONTINUOUS
10
110.029
20
-131.631
11
109.948
21
-131.577
0
LINE
8
BLACK
6
CONTINUOUS
10
109.948
20
-131.577
11
109.894
21
-131.496
0
LINE
8
BLACK
6
CONTINUOUS
10
109.894
20
-131.496
11
109.875
21
-131.4
0
LINE
8
BLACK
6
CONTINUOUS
10
109.875
20
-131.4
11
109.875
21
-130.65
0
LINE
8
BLACK
6
CONTINUOUS
10
109.875
20
-130.65
11
109.894
21
-130.554
0
LINE
8
BLACK
6
CONTINUOUS
10
109.894
20
-130.554
11
109.948
21
-130.473
0
LINE
8
BLACK
6
CONTINUOUS
10
109.948
20
-130.473
11
110.029
21
-130.419
0
LINE
8
BLACK
6
CONTINUOUS
10
110.029
20
-130.419
11
110.125
21
-130.4
0
LINE
8
BLACK
6
CONTINUOUS
10
110.125
20
-130.4
11
111.375
21
-130.4
0
LINE
8
BLACK
6
CONTINUOUS
10
111.375
20
-130.4
11
111.471
21
-130.419
0
LINE
8
BLACK
6
CONTINUOUS
10
113.696
20
-130.519
11
113.777
21
-130.573
0
LINE
8
BLACK
6
CONTINUOUS
10
113.777
20
-130.573
11
113.831
21
-130.654
0
LINE
8
BLACK
6
CONTINUOUS
10
113.831
20
-130.654
11
113.85
21
-130.75
0
LINE
8
BLACK
6
CONTINUOUS
10
113.85
20
-130.75
11
113.85
21
-131.35
0
LINE
8
BLACK
6
CONTINUOUS
10
113.85
20
-131.35
11
113.831
21
-131.446
0
LINE
8
BLACK
6
CONTINUOUS
10
113.831
20
-131.446
11
113.777
21
-131.527
0
LINE
8
BLACK
6
CONTINUOUS
10
113.777
20
-131.527
11
113.696
21
-131.581
0
LINE
8
BLACK
6
CONTINUOUS
10
113.696
20
-131.581
11
113.6
21
-131.6
0
LINE
8
BLACK
6
CONTINUOUS
10
113.6
20
-131.6
11
113
21
-131.6
0
LINE
8
BLACK
6
CONTINUOUS
10
113
20
-131.6
11
112.904
21
-131.581
0
LINE
8
BLACK
6
CONTINUOUS
10
112.904
20
-131.581
11
112.823
21
-131.527
0
LINE
8
BLACK
6
CONTINUOUS
10
112.823
20
-131.527
11
112.769
21
-131.446
0
LINE
8
BLACK
6
CONTINUOUS
10
112.769
20
-131.446
11
112.75
21
-131.35
0
LINE
8
BLACK
6
CONTINUOUS
10
112.75
20
-131.35
11
112.75
21
-130.75
0
LINE
8
BLACK
6
CONTINUOUS
10
112.75
20
-130.75
11
112.769
21
-130.654
0
LINE
8
BLACK
6
CONTINUOUS
10
112.769
20
-130.654
11
112.823
21
-130.573
0
LINE
8
BLACK
6
CONTINUOUS
10
112.823
20
-130.573
11
112.904
21
-130.519
0
LINE
8
BLACK
6
CONTINUOUS
10
112.904
20
-130.519
11
113
21
-130.5
0
LINE
8
BLACK
6
CONTINUOUS
10
113
20
-130.5
11
113.6
21
-130.5
0
LINE
8
BLACK
6
CONTINUOUS
10
113.6
20
-130.5
11
113.696
21
-130.519
0
LINE
8
BLACK
6
CONTINUOUS
10
168.17
20
-129.53
11
167.27
21
-129.53
0
LINE
8
BLACK
6
CONTINUOUS
10
167.27
20
-129.53
11
167.27
21
-128.33
0
LINE
8
BLACK
6
CONTINUOUS
10
167.27
20
-128.33
11
168.17
21
-128.33
0
LINE
8
BLACK
6
CONTINUOUS
10
168.17
20
-128.33
11
168.17
21
-129.53
0
LINE
8
BLACK
6
CONTINUOUS
10
169.44
20
-129.53
11
168.54
21
-129.53
0
LINE
8
BLACK
6
CONTINUOUS
10
168.54
20
-129.53
11
168.54
21
-128.33
0
LINE
8
BLACK
6
CONTINUOUS
10
168.54
20
-128.33
11
169.44
21
-128.33
0
LINE
8
BLACK
6
CONTINUOUS
10
169.44
20
-128.33
11
169.44
21
-129.53
0
LINE
8
BLACK
6
CONTINUOUS
10
170.71
20
-129.53
11
169.81
21
-129.53
0
LINE
8
BLACK
6
CONTINUOUS
10
169.81
20
-129.53
11
169.81
21
-128.33
0
LINE
8
BLACK
6
CONTINUOUS
10
169.81
20
-128.33
11
170.71
21
-128.33
0
LINE
8
BLACK
6
CONTINUOUS
10
170.71
20
-128.33
11
170.71
21
-129.53
0
LINE
8
BLACK
6
CONTINUOUS
10
171.98
20
-129.53
11
171.08
21
-129.53
0
LINE
8
BLACK
6
CONTINUOUS
10
171.08
20
-129.53
11
171.08
21
-128.33
0
LINE
8
BLACK
6
CONTINUOUS
10
171.08
20
-128.33
11
171.98
21
-128.33
0
LINE
8
BLACK
6
CONTINUOUS
10
171.98
20
-128.33
11
171.98
21
-129.53
0
LINE
8
BLACK
6
CONTINUOUS
10
173.25
20
-129.53
11
172.35
21
-129.53
0
LINE
8
BLACK
6
CONTINUOUS
10
172.35
20
-129.53
11
172.35
21
-128.33
0
LINE
8
BLACK
6
CONTINUOUS
10
172.35
20
-128.33
11
173.25
21
-128.33
0
LINE
8
BLACK
6
CONTINUOUS
10
173.25
20
-128.33
11
173.25
21
-129.53
0
LINE
8
BLACK
6
CONTINUOUS
10
174.52
20
-129.53
11
173.62
21
-129.53
0
LINE
8
BLACK
6
CONTINUOUS
10
173.62
20
-129.53
11
173.62
21
-128.33
0
LINE
8
BLACK
6
CONTINUOUS
10
173.62
20
-128.33
11
174.52
21
-128.33
0
LINE
8
BLACK
6
CONTINUOUS
10
174.52
20
-128.33
11
174.52
21
-129.53
0
LINE
8
BLACK
6
CONTINUOUS
10
111.471
20
-127.619
11
111.552
21
-127.673
0
LINE
8
BLACK
6
CONTINUOUS
10
111.552
20
-127.673
11
111.606
21
-127.754
0
LINE
8
BLACK
6
CONTINUOUS
10
111.606
20
-127.754
11
111.625
21
-127.85
0
LINE
8
BLACK
6
CONTINUOUS
10
111.625
20
-127.85
11
111.625
21
-128.6
0
LINE
8
BLACK
6
CONTINUOUS
10
111.625
20
-128.6
11
111.606
21
-128.696
0
LINE
8
BLACK
6
CONTINUOUS
10
111.606
20
-128.696
11
111.552
21
-128.777
0
LINE
8
BLACK
6
CONTINUOUS
10
111.552
20
-128.777
11
111.471
21
-128.831
0
LINE
8
BLACK
6
CONTINUOUS
10
111.471
20
-128.831
11
111.375
21
-128.85
0
LINE
8
BLACK
6
CONTINUOUS
10
111.375
20
-128.85
11
110.125
21
-128.85
0
LINE
8
BLACK
6
CONTINUOUS
10
110.125
20
-128.85
11
110.029
21
-128.831
0
LINE
8
BLACK
6
CONTINUOUS
10
110.029
20
-128.831
11
109.948
21
-128.777
0
LINE
8
BLACK
6
CONTINUOUS
10
109.948
20
-128.777
11
109.894
21
-128.696
0
LINE
8
BLACK
6
CONTINUOUS
10
109.894
20
-128.696
11
109.875
21
-128.6
0
LINE
8
BLACK
6
CONTINUOUS
10
109.875
20
-128.6
11
109.875
21
-127.85
0
LINE
8
BLACK
6
CONTINUOUS
10
109.875
20
-127.85
11
109.894
21
-127.754
0
LINE
8
BLACK
6
CONTINUOUS
10
109.894
20
-127.754
11
109.948
21
-127.673
0
LINE
8
BLACK
6
CONTINUOUS
10
109.948
20
-127.673
11
110.029
21
-127.619
0
LINE
8
BLACK
6
CONTINUOUS
10
110.029
20
-127.619
11
110.125
21
-127.6
0
LINE
8
BLACK
6
CONTINUOUS
10
110.125
20
-127.6
11
111.375
21
-127.6
0
LINE
8
BLACK
6
CONTINUOUS
10
111.375
20
-127.6
11
111.471
21
-127.619
0
LINE
8
BLACK
6
CONTINUOUS
10
113.696
20
-127.719
11
113.777
21
-127.773
0
LINE
8
BLACK
6
CONTINUOUS
10
113.777
20
-127.773
11
113.831
21
-127.854
0
LINE
8
BLACK
6
CONTINUOUS
10
113.831
20
-127.854
11
113.85
21
-127.95
0
LINE
8
BLACK
6
CONTINUOUS
10
113.85
20
-127.95
11
113.85
21
-128.55
0
LINE
8
BLACK
6
CONTINUOUS
10
113.85
20
-128.55
11
113.831
21
-128.646
0
LINE
8
BLACK
6
CONTINUOUS
10
113.831
20
-128.646
11
113.777
21
-128.727
0
LINE
8
BLACK
6
CONTINUOUS
10
113.777
20
-128.727
11
113.696
21
-128.781
0
LINE
8
BLACK
6
CONTINUOUS
10
113.696
20
-128.781
11
113.6
21
-128.8
0
LINE
8
BLACK
6
CONTINUOUS
10
113.6
20
-128.8
11
113
21
-128.8
0
LINE
8
BLACK
6
CONTINUOUS
10
113
20
-128.8
11
112.904
21
-128.781
0
LINE
8
BLACK
6
CONTINUOUS
10
112.904
20
-128.781
11
112.823
21
-128.727
0
LINE
8
BLACK
6
CONTINUOUS
10
112.823
20
-128.727
11
112.769
21
-128.646
0
LINE
8
BLACK
6
CONTINUOUS
10
112.769
20
-128.646
11
112.75
21
-128.55
0
LINE
8
BLACK
6
CONTINUOUS
10
112.75
20
-128.55
11
112.75
21
-127.95
0
LINE
8
BLACK
6
CONTINUOUS
10
112.75
20
-127.95
11
112.769
21
-127.854
0
LINE
8
BLACK
6
CONTINUOUS
10
112.769
20
-127.854
11
112.823
21
-127.773
0
LINE
8
BLACK
6
CONTINUOUS
10
112.823
20
-127.773
11
112.904
21
-127.719
0
LINE
8
BLACK
6
CONTINUOUS
10
112.904
20
-127.719
11
113
21
-127.7
0
LINE
8
BLACK
6
CONTINUOUS
10
113
20
-127.7
11
113.6
21
-127.7
0
LINE
8
BLACK
6
CONTINUOUS
10
113.6
20
-127.7
11
113.696
21
-127.719
0
LINE
8
BLACK
6
CONTINUOUS
10
107.274
20
-124.22
11
107.443
21
-124.279
0
LINE
8
BLACK
6
CONTINUOUS
10
107.443
20
-124.279
11
107.594
21
-124.374
0
LINE
8
BLACK
6
CONTINUOUS
10
107.594
20
-124.374
11
107.721
21
-124.501
0
LINE
8
BLACK
6
CONTINUOUS
10
107.721
20
-124.501
11
107.816
21
-124.653
0
LINE
8
BLACK
6
CONTINUOUS
10
107.816
20
-124.653
11
107.876
21
-124.822
0
LINE
8
BLACK
6
CONTINUOUS
10
107.876
20
-124.822
11
107.896
21
-125
0
LINE
8
BLACK
6
CONTINUOUS
10
107.896
20
-125
11
107.876
21
-125.178
0
LINE
8
BLACK
6
CONTINUOUS
10
107.876
20
-125.178
11
107.816
21
-125.347
0
LINE
8
BLACK
6
CONTINUOUS
10
107.816
20
-125.347
11
107.721
21
-125.499
0
LINE
8
BLACK
6
CONTINUOUS
10
107.721
20
-125.499
11
107.594
21
-125.626
0
LINE
8
BLACK
6
CONTINUOUS
10
107.594
20
-125.626
11
107.443
21
-125.721
0
LINE
8
BLACK
6
CONTINUOUS
10
107.443
20
-125.721
11
107.274
21
-125.78
0
LINE
8
BLACK
6
CONTINUOUS
10
107.274
20
-125.78
11
107.096
21
-125.8
0
LINE
8
BLACK
6
CONTINUOUS
10
107.096
20
-125.8
11
106.918
21
-125.78
0
LINE
8
BLACK
6
CONTINUOUS
10
106.918
20
-125.78
11
106.748
21
-125.721
0
LINE
8
BLACK
6
CONTINUOUS
10
106.748
20
-125.721
11
106.597
21
-125.626
0
LINE
8
BLACK
6
CONTINUOUS
10
106.597
20
-125.626
11
106.47
21
-125.499
0
LINE
8
BLACK
6
CONTINUOUS
10
106.47
20
-125.499
11
106.375
21
-125.347
0
LINE
8
BLACK
6
CONTINUOUS
10
106.375
20
-125.347
11
106.316
21
-125.178
0
LINE
8
BLACK
6
CONTINUOUS
10
106.316
20
-125.178
11
106.295
21
-125
0
LINE
8
BLACK
6
CONTINUOUS
10
106.295
20
-125
11
106.316
21
-124.822
0
LINE
8
BLACK
6
CONTINUOUS
10
106.316
20
-124.822
11
106.375
21
-124.653
0
LINE
8
BLACK
6
CONTINUOUS
10
106.375
20
-124.653
11
106.47
21
-124.501
0
LINE
8
BLACK
6
CONTINUOUS
10
106.47
20
-124.501
11
106.597
21
-124.374
0
LINE
8
BLACK
6
CONTINUOUS
10
106.597
20
-124.374
11
106.748
21
-124.279
0
LINE
8
BLACK
6
CONTINUOUS
10
106.748
20
-124.279
11
106.918
21
-124.22
0
LINE
8
BLACK
6
CONTINUOUS
10
106.918
20
-124.22
11
107.096
21
-124.2
0
LINE
8
BLACK
6
CONTINUOUS
10
107.096
20
-124.2
11
107.274
21
-124.22
0
LINE
8
BLACK
6
CONTINUOUS
10
110.274
20
-124.22
11
110.443
21
-124.279
0
LINE
8
BLACK
6
CONTINUOUS
10
110.443
20
-124.279
11
110.594
21
-124.374
0
LINE
8
BLACK
6
CONTINUOUS
10
110.594
20
-124.374
11
110.721
21
-124.501
0
LINE
8
BLACK
6
CONTINUOUS
10
110.721
20
-124.501
11
110.816
21
-124.653
0
LINE
8
BLACK
6
CONTINUOUS
10
110.816
20
-124.653
11
110.876
21
-124.822
0
LINE
8
BLACK
6
CONTINUOUS
10
110.876
20
-124.822
11
110.896
21
-125
0
LINE
8
BLACK
6
CONTINUOUS
10
110.896
20
-125
11
110.876
21
-125.178
0
LINE
8
BLACK
6
CONTINUOUS
10
110.876
20
-125.178
11
110.816
21
-125.347
0
LINE
8
BLACK
6
CONTINUOUS
10
110.816
20
-125.347
11
110.721
21
-125.499
0
LINE
8
BLACK
6
CONTINUOUS
10
110.721
20
-125.499
11
110.594
21
-125.626
0
LINE
8
BLACK
6
CONTINUOUS
10
110.594
20
-125.626
11
110.443
21
-125.721
0
LINE
8
BLACK
6
CONTINUOUS
10
110.443
20
-125.721
11
110.274
21
-125.78
0
LINE
8
BLACK
6
CONTINUOUS
10
110.274
20
-125.78
11
110.096
21
-125.8
0
LINE
8
BLACK
6
CONTINUOUS
10
110.096
20
-125.8
11
109.918
21
-125.78
0
LINE
8
BLACK
6
CONTINUOUS
10
109.918
20
-125.78
11
109.748
21
-125.721
0
LINE
8
BLACK
6
CONTINUOUS
10
109.748
20
-125.721
11
109.597
21
-125.626
0
LINE
8
BLACK
6
CONTINUOUS
10
109.597
20
-125.626
11
109.47
21
-125.499
0
LINE
8
BLACK
6
CONTINUOUS
10
109.47
20
-125.499
11
109.375
21
-125.347
0
LINE
8
BLACK
6
CONTINUOUS
10
109.375
20
-125.347
11
109.316
21
-125.178
0
LINE
8
BLACK
6
CONTINUOUS
10
109.316
20
-125.178
11
109.295
21
-125
0
LINE
8
BLACK
6
CONTINUOUS
10
109.295
20
-125
11
109.316
21
-124.822
0
LINE
8
BLACK
6
CONTINUOUS
10
109.316
20
-124.822
11
109.375
21
-124.653
0
LINE
8
BLACK
6
CONTINUOUS
10
109.375
20
-124.653
11
109.47
21
-124.501
0
LINE
8
BLACK
6
CONTINUOUS
10
109.47
20
-124.501
11
109.597
21
-124.374
0
LINE
8
BLACK
6
CONTINUOUS
10
109.597
20
-124.374
11
109.748
21
-124.279
0
LINE
8
BLACK
6
CONTINUOUS
10
109.748
20
-124.279
11
109.918
21
-124.22
0
LINE
8
BLACK
6
CONTINUOUS
10
109.918
20
-124.22
11
110.096
21
-124.2
0
LINE
8
BLACK
6
CONTINUOUS
10
110.096
20
-124.2
11
110.274
21
-124.22
0
LINE
8
BLACK
6
CONTINUOUS
10
107.274
20
-121.72
11
107.443
21
-121.779
0
LINE
8
BLACK
6
CONTINUOUS
10
107.443
20
-121.779
11
107.594
21
-121.874
0
LINE
8
BLACK
6
CONTINUOUS
10
107.594
20
-121.874
11
107.721
21
-122.001
0
LINE
8
BLACK
6
CONTINUOUS
10
107.721
20
-122.001
11
107.816
21
-122.153
0
LINE
8
BLACK
6
CONTINUOUS
10
107.816
20
-122.153
11
107.876
21
-122.322
0
LINE
8
BLACK
6
CONTINUOUS
10
107.876
20
-122.322
11
107.896
21
-122.5
0
LINE
8
BLACK
6
CONTINUOUS
10
107.896
20
-122.5
11
107.876
21
-122.678
0
LINE
8
BLACK
6
CONTINUOUS
10
107.876
20
-122.678
11
107.816
21
-122.847
0
LINE
8
BLACK
6
CONTINUOUS
10
107.816
20
-122.847
11
107.721
21
-122.999
0
LINE
8
BLACK
6
CONTINUOUS
10
107.721
20
-122.999
11
107.594
21
-123.126
0
LINE
8
BLACK
6
CONTINUOUS
10
107.594
20
-123.126
11
107.443
21
-123.221
0
LINE
8
BLACK
6
CONTINUOUS
10
107.443
20
-123.221
11
107.274
21
-123.28
0
LINE
8
BLACK
6
CONTINUOUS
10
107.274
20
-123.28
11
107.096
21
-123.3
0
LINE
8
BLACK
6
CONTINUOUS
10
107.096
20
-123.3
11
106.918
21
-123.28
0
LINE
8
BLACK
6
CONTINUOUS
10
106.918
20
-123.28
11
106.748
21
-123.221
0
LINE
8
BLACK
6
CONTINUOUS
10
106.748
20
-123.221
11
106.597
21
-123.126
0
LINE
8
BLACK
6
CONTINUOUS
10
106.597
20
-123.126
11
106.47
21
-122.999
0
LINE
8
BLACK
6
CONTINUOUS
10
106.47
20
-122.999
11
106.375
21
-122.847
0
LINE
8
BLACK
6
CONTINUOUS
10
106.375
20
-122.847
11
106.316
21
-122.678
0
LINE
8
BLACK
6
CONTINUOUS
10
106.316
20
-122.678
11
106.295
21
-122.5
0
LINE
8
BLACK
6
CONTINUOUS
10
106.295
20
-122.5
11
106.316
21
-122.322
0
LINE
8
BLACK
6
CONTINUOUS
10
106.316
20
-122.322
11
106.375
21
-122.153
0
LINE
8
BLACK
6
CONTINUOUS
10
106.375
20
-122.153
11
106.47
21
-122.001
0
LINE
8
BLACK
6
CONTINUOUS
10
106.47
20
-122.001
11
106.597
21
-121.874
0
LINE
8
BLACK
6
CONTINUOUS
10
106.597
20
-121.874
11
106.748
21
-121.779
0
LINE
8
BLACK
6
CONTINUOUS
10
106.748
20
-121.779
11
106.918
21
-121.72
0
LINE
8
BLACK
6
CONTINUOUS
10
106.918
20
-121.72
11
107.096
21
-121.7
0
LINE
8
BLACK
6
CONTINUOUS
10
107.096
20
-121.7
11
107.274
21
-121.72
0
LINE
8
BLACK
6
CONTINUOUS
10
110.274
20
-121.72
11
110.443
21
-121.779
0
LINE
8
BLACK
6
CONTINUOUS
10
110.443
20
-121.779
11
110.594
21
-121.874
0
LINE
8
BLACK
6
CONTINUOUS
10
110.594
20
-121.874
11
110.721
21
-122.001
0
LINE
8
BLACK
6
CONTINUOUS
10
110.721
20
-122.001
11
110.816
21
-122.153
0
LINE
8
BLACK
6
CONTINUOUS
10
110.816
20
-122.153
11
110.876
21
-122.322
0
LINE
8
BLACK
6
CONTINUOUS
10
110.876
20
-122.322
11
110.896
21
-122.5
0
LINE
8
BLACK
6
CONTINUOUS
10
110.896
20
-122.5
11
110.876
21
-122.678
0
LINE
8
BLACK
6
CONTINUOUS
10
110.876
20
-122.678
11
110.816
21
-122.847
0
LINE
8
BLACK
6
CONTINUOUS
10
110.816
20
-122.847
11
110.721
21
-122.999
0
LINE
8
BLACK
6
CONTINUOUS
10
110.721
20
-122.999
11
110.594
21
-123.126
0
LINE
8
BLACK
6
CONTINUOUS
10
110.594
20
-123.126
11
110.443
21
-123.221
0
LINE
8
BLACK
6
CONTINUOUS
10
110.443
20
-123.221
11
110.274
21
-123.28
0
LINE
8
BLACK
6
CONTINUOUS
10
110.274
20
-123.28
11
110.096
21
-123.3
0
LINE
8
BLACK
6
CONTINUOUS
10
110.096
20
-123.3
11
109.918
21
-123.28
0
LINE
8
BLACK
6
CONTINUOUS
10
109.918
20
-123.28
11
109.748
21
-123.221
0
LINE
8
BLACK
6
CONTINUOUS
10
109.748
20
-123.221
11
109.597
21
-123.126
0
LINE
8
BLACK
6
CONTINUOUS
10
109.597
20
-123.126
11
109.47
21
-122.999
0
LINE
8
BLACK
6
CONTINUOUS
10
109.47
20
-122.999
11
109.375
21
-122.847
0
LINE
8
BLACK
6
CONTINUOUS
10
109.375
20
-122.847
11
109.316
21
-122.678
0
LINE
8
BLACK
6
CONTINUOUS
10
109.316
20
-122.678
11
109.295
21
-122.5
0
LINE
8
BLACK
6
CONTINUOUS
10
109.295
20
-122.5
11
109.316
21
-122.322
0
LINE
8
BLACK
6
CONTINUOUS
10
109.316
20
-122.322
11
109.375
21
-122.153
0
LINE
8
BLACK
6
CONTINUOUS
10
109.375
20
-122.153
11
109.47
21
-122.001
0
LINE
8
BLACK
6
CONTINUOUS
10
109.47
20
-122.001
11
109.597
21
-121.874
0
LINE
8
BLACK
6
CONTINUOUS
10
109.597
20
-121.874
11
109.748
21
-121.779
0
LINE
8
BLACK
6
CONTINUOUS
10
109.748
20
-121.779
11
109.918
21
-121.72
0
LINE
8
BLACK
6
CONTINUOUS
10
109.918
20
-121.72
11
110.096
21
-121.7
0
LINE
8
BLACK
6
CONTINUOUS
10
110.096
20
-121.7
11
110.274
21
-121.72
0
LINE
8
BLACK
6
CONTINUOUS
10
103.237
20
-121.776
11
103.286
21
-121.809
0
LINE
8
BLACK
6
CONTINUOUS
10
103.286
20
-121.809
11
103.319
21
-121.858
0
LINE
8
BLACK
6
CONTINUOUS
10
103.319
20
-121.858
11
103.33
21
-121.915
0
LINE
8
BLACK
6
CONTINUOUS
10
103.33
20
-121.915
11
103.33
21
-122.94
0
LINE
8
BLACK
6
CONTINUOUS
10
103.33
20
-122.94
11
103.319
21
-122.997
0
LINE
8
BLACK
6
CONTINUOUS
10
103.319
20
-122.997
11
103.286
21
-123.046
0
LINE
8
BLACK
6
CONTINUOUS
10
103.286
20
-123.046
11
103.237
21
-123.079
0
LINE
8
BLACK
6
CONTINUOUS
10
103.237
20
-123.079
11
103.18
21
-123.09
0
LINE
8
BLACK
6
CONTINUOUS
10
103.18
20
-123.09
11
102.88
21
-123.09
0
LINE
8
BLACK
6
CONTINUOUS
10
102.88
20
-123.09
11
102.823
21
-123.079
0
LINE
8
BLACK
6
CONTINUOUS
10
102.823
20
-123.079
11
102.774
21
-123.046
0
LINE
8
BLACK
6
CONTINUOUS
10
102.774
20
-123.046
11
102.741
21
-122.997
0
LINE
8
BLACK
6
CONTINUOUS
10
102.741
20
-122.997
11
102.73
21
-122.94
0
LINE
8
BLACK
6
CONTINUOUS
10
102.73
20
-122.94
11
102.73
21
-121.915
0
LINE
8
BLACK
6
CONTINUOUS
10
102.73
20
-121.915
11
102.741
21
-121.858
0
LINE
8
BLACK
6
CONTINUOUS
10
102.741
20
-121.858
11
102.774
21
-121.809
0
LINE
8
BLACK
6
CONTINUOUS
10
102.774
20
-121.809
11
102.823
21
-121.776
0
LINE
8
BLACK
6
CONTINUOUS
10
102.823
20
-121.776
11
102.88
21
-121.765
0
LINE
8
BLACK
6
CONTINUOUS
10
102.88
20
-121.765
11
103.18
21
-121.765
0
LINE
8
BLACK
6
CONTINUOUS
10
103.18
20
-121.765
11
103.237
21
-121.776
0
LINE
8
BLACK
6
CONTINUOUS
10
104.187
20
-121.776
11
104.236
21
-121.809
0
LINE
8
BLACK
6
CONTINUOUS
10
104.236
20
-121.809
11
104.269
21
-121.858
0
LINE
8
BLACK
6
CONTINUOUS
10
104.269
20
-121.858
11
104.28
21
-121.915
0
LINE
8
BLACK
6
CONTINUOUS
10
104.28
20
-121.915
11
104.28
21
-122.94
0
LINE
8
BLACK
6
CONTINUOUS
10
104.28
20
-122.94
11
104.269
21
-122.997
0
LINE
8
BLACK
6
CONTINUOUS
10
104.269
20
-122.997
11
104.236
21
-123.046
0
LINE
8
BLACK
6
CONTINUOUS
10
104.236
20
-123.046
11
104.187
21
-123.079
0
LINE
8
BLACK
6
CONTINUOUS
10
104.187
20
-123.079
11
104.13
21
-123.09
0
LINE
8
BLACK
6
CONTINUOUS
10
104.13
20
-123.09
11
103.83
21
-123.09
0
LINE
8
BLACK
6
CONTINUOUS
10
103.83
20
-123.09
11
103.773
21
-123.079
0
LINE
8
BLACK
6
CONTINUOUS
10
103.773
20
-123.079
11
103.724
21
-123.046
0
LINE
8
BLACK
6
CONTINUOUS
10
103.724
20
-123.046
11
103.691
21
-122.997
0
LINE
8
BLACK
6
CONTINUOUS
10
103.691
20
-122.997
11
103.68
21
-122.94
0
LINE
8
BLACK
6
CONTINUOUS
10
103.68
20
-122.94
11
103.68
21
-121.915
0
LINE
8
BLACK
6
CONTINUOUS
10
103.68
20
-121.915
11
103.691
21
-121.858
0
LINE
8
BLACK
6
CONTINUOUS
10
103.691
20
-121.858
11
103.724
21
-121.809
0
LINE
8
BLACK
6
CONTINUOUS
10
103.724
20
-121.809
11
103.773
21
-121.776
0
LINE
8
BLACK
6
CONTINUOUS
10
103.773
20
-121.776
11
103.83
21
-121.765
0
LINE
8
BLACK
6
CONTINUOUS
10
103.83
20
-121.765
11
104.13
21
-121.765
0
LINE
8
BLACK
6
CONTINUOUS
10
104.13
20
-121.765
11
104.187
21
-121.776
0
LINE
8
BLACK
6
CONTINUOUS
10
105.137
20
-121.776
11
105.186
21
-121.809
0
LINE
8
BLACK
6
CONTINUOUS
10
105.186
20
-121.809
11
105.219
21
-121.858
0
LINE
8
BLACK
6
CONTINUOUS
10
105.219
20
-121.858
11
105.23
21
-121.915
0
LINE
8
BLACK
6
CONTINUOUS
10
105.23
20
-121.915
11
105.23
21
-122.94
0
LINE
8
BLACK
6
CONTINUOUS
10
105.23
20
-122.94
11
105.219
21
-122.997
0
LINE
8
BLACK
6
CONTINUOUS
10
105.219
20
-122.997
11
105.186
21
-123.046
0
LINE
8
BLACK
6
CONTINUOUS
10
105.186
20
-123.046
11
105.137
21
-123.079
0
LINE
8
BLACK
6
CONTINUOUS
10
105.137
20
-123.079
11
105.08
21
-123.09
0
LINE
8
BLACK
6
CONTINUOUS
10
105.08
20
-123.09
11
104.78
21
-123.09
0
LINE
8
BLACK
6
CONTINUOUS
10
104.78
20
-123.09
11
104.723
21
-123.079
0
LINE
8
BLACK
6
CONTINUOUS
10
104.723
20
-123.079
11
104.674
21
-123.046
0
LINE
8
BLACK
6
CONTINUOUS
10
104.674
20
-123.046
11
104.641
21
-122.997
0
LINE
8
BLACK
6
CONTINUOUS
10
104.641
20
-122.997
11
104.63
21
-122.94
0
LINE
8
BLACK
6
CONTINUOUS
10
104.63
20
-122.94
11
104.63
21
-121.915
0
LINE
8
BLACK
6
CONTINUOUS
10
104.63
20
-121.915
11
104.641
21
-121.858
0
LINE
8
BLACK
6
CONTINUOUS
10
104.641
20
-121.858
11
104.674
21
-121.809
0
LINE
8
BLACK
6
CONTINUOUS
10
104.674
20
-121.809
11
104.723
21
-121.776
0
LINE
8
BLACK
6
CONTINUOUS
10
104.723
20
-121.776
11
104.78
21
-121.765
0
LINE
8
BLACK
6
CONTINUOUS
10
104.78
20
-121.765
11
105.08
21
-121.765
0
LINE
8
BLACK
6
CONTINUOUS
10
105.08
20
-121.765
11
105.137
21
-121.776
0
LINE
8
BLACK
6
CONTINUOUS
10
168.621
20
-118.694
11
168.702
21
-118.748
0
LINE
8
BLACK
6
CONTINUOUS
10
168.702
20
-118.748
11
168.756
21
-118.829
0
LINE
8
BLACK
6
CONTINUOUS
10
168.756
20
-118.829
11
168.775
21
-118.925
0
LINE
8
BLACK
6
CONTINUOUS
10
168.775
20
-118.925
11
168.775
21
-120.775
0
LINE
8
BLACK
6
CONTINUOUS
10
168.775
20
-120.775
11
168.756
21
-120.871
0
LINE
8
BLACK
6
CONTINUOUS
10
168.756
20
-120.871
11
168.702
21
-120.952
0
LINE
8
BLACK
6
CONTINUOUS
10
168.702
20
-120.952
11
168.621
21
-121.006
0
LINE
8
BLACK
6
CONTINUOUS
10
168.621
20
-121.006
11
168.525
21
-121.025
0
LINE
8
BLACK
6
CONTINUOUS
10
168.525
20
-121.025
11
166.95
21
-121.025
0
LINE
8
BLACK
6
CONTINUOUS
10
166.95
20
-121.025
11
166.854
21
-121.006
0
LINE
8
BLACK
6
CONTINUOUS
10
166.854
20
-121.006
11
166.773
21
-120.952
0
LINE
8
BLACK
6
CONTINUOUS
10
166.773
20
-120.952
11
166.719
21
-120.871
0
LINE
8
BLACK
6
CONTINUOUS
10
166.719
20
-120.871
11
166.7
21
-120.775
0
LINE
8
BLACK
6
CONTINUOUS
10
166.7
20
-120.775
11
166.7
21
-118.925
0
LINE
8
BLACK
6
CONTINUOUS
10
166.7
20
-118.925
11
166.719
21
-118.829
0
LINE
8
BLACK
6
CONTINUOUS
10
166.719
20
-118.829
11
166.773
21
-118.748
0
LINE
8
BLACK
6
CONTINUOUS
10
166.773
20
-118.748
11
166.854
21
-118.694
0
LINE
8
BLACK
6
CONTINUOUS
10
166.854
20
-118.694
11
166.95
21
-118.675
0
LINE
8
BLACK
6
CONTINUOUS
10
166.95
20
-118.675
11
168.525
21
-118.675
0
LINE
8
BLACK
6
CONTINUOUS
10
168.525
20
-118.675
11
168.621
21
-118.694
0
LINE
8
BLACK
6
CONTINUOUS
10
173.546
20
-118.694
11
173.627
21
-118.748
0
LINE
8
BLACK
6
CONTINUOUS
10
173.627
20
-118.748
11
173.681
21
-118.829
0
LINE
8
BLACK
6
CONTINUOUS
10
173.681
20
-118.829
11
173.7
21
-118.925
0
LINE
8
BLACK
6
CONTINUOUS
10
173.7
20
-118.925
11
173.7
21
-120.775
0
LINE
8
BLACK
6
CONTINUOUS
10
173.7
20
-120.775
11
173.681
21
-120.871
0
LINE
8
BLACK
6
CONTINUOUS
10
173.681
20
-120.871
11
173.627
21
-120.952
0
LINE
8
BLACK
6
CONTINUOUS
10
173.627
20
-120.952
11
173.546
21
-121.006
0
LINE
8
BLACK
6
CONTINUOUS
10
173.546
20
-121.006
11
173.45
21
-121.025
0
LINE
8
BLACK
6
CONTINUOUS
10
173.45
20
-121.025
11
171.875
21
-121.025
0
LINE
8
BLACK
6
CONTINUOUS
10
171.875
20
-121.025
11
171.779
21
-121.006
0
LINE
8
BLACK
6
CONTINUOUS
10
171.779
20
-121.006
11
171.698
21
-120.952
0
LINE
8
BLACK
6
CONTINUOUS
10
171.698
20
-120.952
11
171.644
21
-120.871
0
LINE
8
BLACK
6
CONTINUOUS
10
171.644
20
-120.871
11
171.625
21
-120.775
0
LINE
8
BLACK
6
CONTINUOUS
10
171.625
20
-120.775
11
171.625
21
-118.925
0
LINE
8
BLACK
6
CONTINUOUS
10
171.625
20
-118.925
11
171.644
21
-118.829
0
LINE
8
BLACK
6
CONTINUOUS
10
171.644
20
-118.829
11
171.698
21
-118.748
0
LINE
8
BLACK
6
CONTINUOUS
10
171.698
20
-118.748
11
171.779
21
-118.694
0
LINE
8
BLACK
6
CONTINUOUS
10
171.779
20
-118.694
11
171.875
21
-118.675
0
LINE
8
BLACK
6
CONTINUOUS
10
171.875
20
-118.675
11
173.45
21
-118.675
0
LINE
8
BLACK
6
CONTINUOUS
10
173.45
20
-118.675
11
173.546
21
-118.694
0
LINE
8
BLACK
6
CONTINUOUS
10
103.237
20
-119.501
11
103.286
21
-119.534
0
LINE
8
BLACK
6
CONTINUOUS
10
103.286
20
-119.534
11
103.319
21
-119.583
0
LINE
8
BLACK
6
CONTINUOUS
10
103.319
20
-119.583
11
103.33
21
-119.64
0
LINE
8
BLACK
6
CONTINUOUS
10
103.33
20
-119.64
11
103.33
21
-120.665
0
LINE
8
BLACK
6
CONTINUOUS
10
103.33
20
-120.665
11
103.319
21
-120.722
0
LINE
8
BLACK
6
CONTINUOUS
10
103.319
20
-120.722
11
103.286
21
-120.771
0
LINE
8
BLACK
6
CONTINUOUS
10
103.286
20
-120.771
11
103.237
21
-120.804
0
LINE
8
BLACK
6
CONTINUOUS
10
103.237
20
-120.804
11
103.18
21
-120.815
0
LINE
8
BLACK
6
CONTINUOUS
10
103.18
20
-120.815
11
102.88
21
-120.815
0
LINE
8
BLACK
6
CONTINUOUS
10
102.88
20
-120.815
11
102.823
21
-120.804
0
LINE
8
BLACK
6
CONTINUOUS
10
102.823
20
-120.804
11
102.774
21
-120.771
0
LINE
8
BLACK
6
CONTINUOUS
10
102.774
20
-120.771
11
102.741
21
-120.722
0
LINE
8
BLACK
6
CONTINUOUS
10
102.741
20
-120.722
11
102.73
21
-120.665
0
LINE
8
BLACK
6
CONTINUOUS
10
102.73
20
-120.665
11
102.73
21
-119.64
0
LINE
8
BLACK
6
CONTINUOUS
10
102.73
20
-119.64
11
102.741
21
-119.583
0
LINE
8
BLACK
6
CONTINUOUS
10
102.741
20
-119.583
11
102.774
21
-119.534
0
LINE
8
BLACK
6
CONTINUOUS
10
102.774
20
-119.534
11
102.823
21
-119.501
0
LINE
8
BLACK
6
CONTINUOUS
10
102.823
20
-119.501
11
102.88
21
-119.49
0
LINE
8
BLACK
6
CONTINUOUS
10
102.88
20
-119.49
11
103.18
21
-119.49
0
LINE
8
BLACK
6
CONTINUOUS
10
103.18
20
-119.49
11
103.237
21
-119.501
0
LINE
8
BLACK
6
CONTINUOUS
10
105.137
20
-119.501
11
105.186
21
-119.534
0
LINE
8
BLACK
6
CONTINUOUS
10
105.186
20
-119.534
11
105.219
21
-119.583
0
LINE
8
BLACK
6
CONTINUOUS
10
105.219
20
-119.583
11
105.23
21
-119.64
0
LINE
8
BLACK
6
CONTINUOUS
10
105.23
20
-119.64
11
105.23
21
-120.665
0
LINE
8
BLACK
6
CONTINUOUS
10
105.23
20
-120.665
11
105.219
21
-120.722
0
LINE
8
BLACK
6
CONTINUOUS
10
105.219
20
-120.722
11
105.186
21
-120.771
0
LINE
8
BLACK
6
CONTINUOUS
10
105.186
20
-120.771
11
105.137
21
-120.804
0
LINE
8
BLACK
6
CONTINUOUS
10
105.137
20
-120.804
11
105.08
21
-120.815
0
LINE
8
BLACK
6
CONTINUOUS
10
105.08
20
-120.815
11
104.78
21
-120.815
0
LINE
8
BLACK
6
CONTINUOUS
10
104.78
20
-120.815
11
104.723
21
-120.804
0
LINE
8
BLACK
6
CONTINUOUS
10
104.723
20
-120.804
11
104.674
21
-120.771
0
LINE
8
BLACK
6
CONTINUOUS
10
104.674
20
-120.771
11
104.641
21
-120.722
0
LINE
8
BLACK
6
CONTINUOUS
10
104.641
20
-120.722
11
104.63
21
-120.665
0
LINE
8
BLACK
6
CONTINUOUS
10
104.63
20
-120.665
11
104.63
21
-119.64
0
LINE
8
BLACK
6
CONTINUOUS
10
104.63
20
-119.64
11
104.641
21
-119.583
0
LINE
8
BLACK
6
CONTINUOUS
10
104.641
20
-119.583
11
104.674
21
-119.534
0
LINE
8
BLACK
6
CONTINUOUS
10
104.674
20
-119.534
11
104.723
21
-119.501
0
LINE
8
BLACK
6
CONTINUOUS
10
104.723
20
-119.501
11
104.78
21
-119.49
0
LINE
8
BLACK
6
CONTINUOUS
10
104.78
20
-119.49
11
105.08
21
-119.49
0
LINE
8
BLACK
6
CONTINUOUS
10
105.08
20
-119.49
11
105.137
21
-119.501
0
LINE
8
BLACK
6
CONTINUOUS
10
107.274
20
-119.22
11
107.443
21
-119.279
0
LINE
8
BLACK
6
CONTINUOUS
10
107.443
20
-119.279
11
107.594
21
-119.374
0
LINE
8
BLACK
6
CONTINUOUS
10
107.594
20
-119.374
11
107.721
21
-119.501
0
LINE
8
BLACK
6
CONTINUOUS
10
107.721
20
-119.501
11
107.816
21
-119.653
0
LINE
8
BLACK
6
CONTINUOUS
10
107.816
20
-119.653
11
107.876
21
-119.822
0
LINE
8
BLACK
6
CONTINUOUS
10
107.876
20
-119.822
11
107.896
21
-120
0
LINE
8
BLACK
6
CONTINUOUS
10
107.896
20
-120
11
107.876
21
-120.178
0
LINE
8
BLACK
6
CONTINUOUS
10
107.876
20
-120.178
11
107.816
21
-120.347
0
LINE
8
BLACK
6
CONTINUOUS
10
107.816
20
-120.347
11
107.721
21
-120.499
0
LINE
8
BLACK
6
CONTINUOUS
10
107.721
20
-120.499
11
107.594
21
-120.626
0
LINE
8
BLACK
6
CONTINUOUS
10
107.594
20
-120.626
11
107.443
21
-120.721
0
LINE
8
BLACK
6
CONTINUOUS
10
107.443
20
-120.721
11
107.274
21
-120.78
0
LINE
8
BLACK
6
CONTINUOUS
10
107.274
20
-120.78
11
107.096
21
-120.8
0
LINE
8
BLACK
6
CONTINUOUS
10
107.096
20
-120.8
11
106.918
21
-120.78
0
LINE
8
BLACK
6
CONTINUOUS
10
106.918
20
-120.78
11
106.748
21
-120.721
0
LINE
8
BLACK
6
CONTINUOUS
10
106.748
20
-120.721
11
106.597
21
-120.626
0
LINE
8
BLACK
6
CONTINUOUS
10
106.597
20
-120.626
11
106.47
21
-120.499
0
LINE
8
BLACK
6
CONTINUOUS
10
106.47
20
-120.499
11
106.375
21
-120.347
0
LINE
8
BLACK
6
CONTINUOUS
10
106.375
20
-120.347
11
106.316
21
-120.178
0
LINE
8
BLACK
6
CONTINUOUS
10
106.316
20
-120.178
11
106.295
21
-120
0
LINE
8
BLACK
6
CONTINUOUS
10
106.295
20
-120
11
106.316
21
-119.822
0
LINE
8
BLACK
6
CONTINUOUS
10
106.316
20
-119.822
11
106.375
21
-119.653
0
LINE
8
BLACK
6
CONTINUOUS
10
106.375
20
-119.653
11
106.47
21
-119.501
0
LINE
8
BLACK
6
CONTINUOUS
10
106.47
20
-119.501
11
106.597
21
-119.374
0
LINE
8
BLACK
6
CONTINUOUS
10
106.597
20
-119.374
11
106.748
21
-119.279
0
LINE
8
BLACK
6
CONTINUOUS
10
106.748
20
-119.279
11
106.918
21
-119.22
0
LINE
8
BLACK
6
CONTINUOUS
10
106.918
20
-119.22
11
107.096
21
-119.2
0
LINE
8
BLACK
6
CONTINUOUS
10
107.096
20
-119.2
11
107.274
21
-119.22
0
LINE
8
BLACK
6
CONTINUOUS
10
110.274
20
-119.22
11
110.443
21
-119.279
0
LINE
8
BLACK
6
CONTINUOUS
10
110.443
20
-119.279
11
110.594
21
-119.374
0
LINE
8
BLACK
6
CONTINUOUS
10
110.594
20
-119.374
11
110.721
21
-119.501
0
LINE
8
BLACK
6
CONTINUOUS
10
110.721
20
-119.501
11
110.816
21
-119.653
0
LINE
8
BLACK
6
CONTINUOUS
10
110.816
20
-119.653
11
110.876
21
-119.822
0
LINE
8
BLACK
6
CONTINUOUS
10
110.876
20
-119.822
11
110.896
21
-120
0
LINE
8
BLACK
6
CONTINUOUS
10
110.896
20
-120
11
110.876
21
-120.178
0
LINE
8
BLACK
6
CONTINUOUS
10
110.876
20
-120.178
11
110.816
21
-120.347
0
LINE
8
BLACK
6
CONTINUOUS
10
110.816
20
-120.347
11
110.721
21
-120.499
0
LINE
8
BLACK
6
CONTINUOUS
10
110.721
20
-120.499
11
110.594
21
-120.626
0
LINE
8
BLACK
6
CONTINUOUS
10
110.594
20
-120.626
11
110.443
21
-120.721
0
LINE
8
BLACK
6
CONTINUOUS
10
110.443
20
-120.721
11
110.274
21
-120.78
0
LINE
8
BLACK
6
CONTINUOUS
10
110.274
20
-120.78
11
110.096
21
-120.8
0
LINE
8
BLACK
6
CONTINUOUS
10
110.096
20
-120.8
11
109.918
21
-120.78
0
LINE
8
BLACK
6
CONTINUOUS
10
109.918
20
-120.78
11
109.748
21
-120.721
0
LINE
8
BLACK
6
CONTINUOUS
10
109.748
20
-120.721
11
109.597
21
-120.626
0
LINE
8
BLACK
6
CONTINUOUS
10
109.597
20
-120.626
11
109.47
21
-120.499
0
LINE
8
BLACK
6
CONTINUOUS
10
109.47
20
-120.499
11
109.375
21
-120.347
0
LINE
8
BLACK
6
CONTINUOUS
10
109.375
20
-120.347
11
109.316
21
-120.178
0
LINE
8
BLACK
6
CONTINUOUS
10
109.316
20
-120.178
11
109.295
21
-120
0
LINE
8
BLACK
6
CONTINUOUS
10
109.295
20
-120
11
109.316
21
-119.822
0
LINE
8
BLACK
6
CONTINUOUS
10
109.316
20
-119.822
11
109.375
21
-119.653
0
LINE
8
BLACK
6
CONTINUOUS
10
109.375
20
-119.653
11
109.47
21
-119.501
0
LINE
8
BLACK
6
CONTINUOUS
10
109.47
20
-119.501
11
109.597
21
-119.374
0
LINE
8
BLACK
6
CONTINUOUS
10
109.597
20
-119.374
11
109.748
21
-119.279
0
LINE
8
BLACK
6
CONTINUOUS
10
109.748
20
-119.279
11
109.918
21
-119.22
0
LINE
8
BLACK
6
CONTINUOUS
10
109.918
20
-119.22
11
110.096
21
-119.2
0
LINE
8
BLACK
6
CONTINUOUS
10
110.096
20
-119.2
11
110.274
21
-119.22
0
LINE
8
BLACK
6
CONTINUOUS
10
107.274
20
-116.72
11
107.443
21
-116.779
0
LINE
8
BLACK
6
CONTINUOUS
10
107.443
20
-116.779
11
107.594
21
-116.874
0
LINE
8
BLACK
6
CONTINUOUS
10
107.594
20
-116.874
11
107.721
21
-117.001
0
LINE
8
BLACK
6
CONTINUOUS
10
107.721
20
-117.001
11
107.816
21
-117.153
0
LINE
8
BLACK
6
CONTINUOUS
10
107.816
20
-117.153
11
107.876
21
-117.322
0
LINE
8
BLACK
6
CONTINUOUS
10
107.876
20
-117.322
11
107.896
21
-117.5
0
LINE
8
BLACK
6
CONTINUOUS
10
107.896
20
-117.5
11
107.876
21
-117.678
0
LINE
8
BLACK
6
CONTINUOUS
10
107.876
20
-117.678
11
107.816
21
-117.847
0
LINE
8
BLACK
6
CONTINUOUS
10
107.816
20
-117.847
11
107.721
21
-117.999
0
LINE
8
BLACK
6
CONTINUOUS
10
107.721
20
-117.999
11
107.594
21
-118.126
0
LINE
8
BLACK
6
CONTINUOUS
10
107.594
20
-118.126
11
107.443
21
-118.221
0
LINE
8
BLACK
6
CONTINUOUS
10
107.443
20
-118.221
11
107.274
21
-118.28
0
LINE
8
BLACK
6
CONTINUOUS
10
107.274
20
-118.28
11
107.096
21
-118.3
0
LINE
8
BLACK
6
CONTINUOUS
10
107.096
20
-118.3
11
106.918
21
-118.28
0
LINE
8
BLACK
6
CONTINUOUS
10
106.918
20
-118.28
11
106.748
21
-118.221
0
LINE
8
BLACK
6
CONTINUOUS
10
106.748
20
-118.221
11
106.597
21
-118.126
0
LINE
8
BLACK
6
CONTINUOUS
10
106.597
20
-118.126
11
106.47
21
-117.999
0
LINE
8
BLACK
6
CONTINUOUS
10
106.47
20
-117.999
11
106.375
21
-117.847
0
LINE
8
BLACK
6
CONTINUOUS
10
106.375
20
-117.847
11
106.316
21
-117.678
0
LINE
8
BLACK
6
CONTINUOUS
10
106.316
20
-117.678
11
106.295
21
-117.5
0
LINE
8
BLACK
6
CONTINUOUS
10
106.295
20
-117.5
11
106.316
21
-117.322
0
LINE
8
BLACK
6
CONTINUOUS
10
106.316
20
-117.322
11
106.375
21
-117.153
0
LINE
8
BLACK
6
CONTINUOUS
10
106.375
20
-117.153
11
106.47
21
-117.001
0
LINE
8
BLACK
6
CONTINUOUS
10
106.47
20
-117.001
11
106.597
21
-116.874
0
LINE
8
BLACK
6
CONTINUOUS
10
106.597
20
-116.874
11
106.748
21
-116.779
0
LINE
8
BLACK
6
CONTINUOUS
10
106.748
20
-116.779
11
106.918
21
-116.72
0
LINE
8
BLACK
6
CONTINUOUS
10
106.918
20
-116.72
11
107.096
21
-116.7
0
LINE
8
BLACK
6
CONTINUOUS
10
107.096
20
-116.7
11
107.274
21
-116.72
0
LINE
8
BLACK
6
CONTINUOUS
10
110.274
20
-116.72
11
110.443
21
-116.779
0
LINE
8
BLACK
6
CONTINUOUS
10
110.443
20
-116.779
11
110.594
21
-116.874
0
LINE
8
BLACK
6
CONTINUOUS
10
110.594
20
-116.874
11
110.721
21
-117.001
0
LINE
8
BLACK
6
CONTINUOUS
10
110.721
20
-117.001
11
110.816
21
-117.153
0
LINE
8
BLACK
6
CONTINUOUS
10
110.816
20
-117.153
11
110.876
21
-117.322
0
LINE
8
BLACK
6
CONTINUOUS
10
110.876
20
-117.322
11
110.896
21
-117.5
0
LINE
8
BLACK
6
CONTINUOUS
10
110.896
20
-117.5
11
110.876
21
-117.678
0
LINE
8
BLACK
6
CONTINUOUS
10
110.876
20
-117.678
11
110.816
21
-117.847
0
LINE
8
BLACK
6
CONTINUOUS
10
110.816
20
-117.847
11
110.721
21
-117.999
0
LINE
8
BLACK
6
CONTINUOUS
10
110.721
20
-117.999
11
110.594
21
-118.126
0
LINE
8
BLACK
6
CONTINUOUS
10
110.594
20
-118.126
11
110.443
21
-118.221
0
LINE
8
BLACK
6
CONTINUOUS
10
110.443
20
-118.221
11
110.274
21
-118.28
0
LINE
8
BLACK
6
CONTINUOUS
10
110.274
20
-118.28
11
110.096
21
-118.3
0
LINE
8
BLACK
6
CONTINUOUS
10
110.096
20
-118.3
11
109.918
21
-118.28
0
LINE
8
BLACK
6
CONTINUOUS
10
109.918
20
-118.28
11
109.748
21
-118.221
0
LINE
8
BLACK
6
CONTINUOUS
10
109.748
20
-118.221
11
109.597
21
-118.126
0
LINE
8
BLACK
6
CONTINUOUS
10
109.597
20
-118.126
11
109.47
21
-117.999
0
LINE
8
BLACK
6
CONTINUOUS
10
109.47
20
-117.999
11
109.375
21
-117.847
0
LINE
8
BLACK
6
CONTINUOUS
10
109.375
20
-117.847
11
109.316
21
-117.678
0
LINE
8
BLACK
6
CONTINUOUS
10
109.316
20
-117.678
11
109.295
21
-117.5
0
LINE
8
BLACK
6
CONTINUOUS
10
109.295
20
-117.5
11
109.316
21
-117.322
0
LINE
8
BLACK
6
CONTINUOUS
10
109.316
20
-117.322
11
109.375
21
-117.153
0
LINE
8
BLACK
6
CONTINUOUS
10
109.375
20
-117.153
11
109.47
21
-117.001
0
LINE
8
BLACK
6
CONTINUOUS
10
109.47
20
-117.001
11
109.597
21
-116.874
0
LINE
8
BLACK
6
CONTINUOUS
10
109.597
20
-116.874
11
109.748
21
-116.779
0
LINE
8
BLACK
6
CONTINUOUS
10
109.748
20
-116.779
11
109.918
21
-116.72
0
LINE
8
BLACK
6
CONTINUOUS
10
109.918
20
-116.72
11
110.096
21
-116.7
0
LINE
8
BLACK
6
CONTINUOUS
10
110.096
20
-116.7
11
110.274
21
-116.72
0
LINE
8
BLACK
6
CONTINUOUS
10
168.621
20
-114.794
11
168.702
21
-114.848
0
LINE
8
BLACK
6
CONTINUOUS
10
168.702
20
-114.848
11
168.756
21
-114.929
0
LINE
8
BLACK
6
CONTINUOUS
10
168.756
20
-114.929
11
168.775
21
-115.025
0
LINE
8
BLACK
6
CONTINUOUS
10
168.775
20
-115.025
11
168.775
21
-116.875
0
LINE
8
BLACK
6
CONTINUOUS
10
168.775
20
-116.875
11
168.756
21
-116.971
0
LINE
8
BLACK
6
CONTINUOUS
10
168.756
20
-116.971
11
168.702
21
-117.052
0
LINE
8
BLACK
6
CONTINUOUS
10
168.702
20
-117.052
11
168.621
21
-117.106
0
LINE
8
BLACK
6
CONTINUOUS
10
168.621
20
-117.106
11
168.525
21
-117.125
0
LINE
8
BLACK
6
CONTINUOUS
10
168.525
20
-117.125
11
166.95
21
-117.125
0
LINE
8
BLACK
6
CONTINUOUS
10
166.95
20
-117.125
11
166.854
21
-117.106
0
LINE
8
BLACK
6
CONTINUOUS
10
166.854
20
-117.106
11
166.773
21
-117.052
0
LINE
8
BLACK
6
CONTINUOUS
10
166.773
20
-117.052
11
166.719
21
-116.971
0
LINE
8
BLACK
6
CONTINUOUS
10
166.719
20
-116.971
11
166.7
21
-116.875
0
LINE
8
BLACK
6
CONTINUOUS
10
166.7
20
-116.875
11
166.7
21
-115.025
0
LINE
8
BLACK
6
CONTINUOUS
10
166.7
20
-115.025
11
166.719
21
-114.929
0
LINE
8
BLACK
6
CONTINUOUS
10
166.719
20
-114.929
11
166.773
21
-114.848
0
LINE
8
BLACK
6
CONTINUOUS
10
166.773
20
-114.848
11
166.854
21
-114.794
0
LINE
8
BLACK
6
CONTINUOUS
10
166.854
20
-114.794
11
166.95
21
-114.775
0
LINE
8
BLACK
6
CONTINUOUS
10
166.95
20
-114.775
11
168.525
21
-114.775
0
LINE
8
BLACK
6
CONTINUOUS
10
168.525
20
-114.775
11
168.621
21
-114.794
0
LINE
8
BLACK
6
CONTINUOUS
10
173.546
20
-114.794
11
173.627
21
-114.848
0
LINE
8
BLACK
6
CONTINUOUS
10
173.627
20
-114.848
11
173.681
21
-114.929
0
LINE
8
BLACK
6
CONTINUOUS
10
173.681
20
-114.929
11
173.7
21
-115.025
0
LINE
8
BLACK
6
CONTINUOUS
10
173.7
20
-115.025
11
173.7
21
-116.875
0
LINE
8
BLACK
6
CONTINUOUS
10
173.7
20
-116.875
11
173.681
21
-116.971
0
LINE
8
BLACK
6
CONTINUOUS
10
173.681
20
-116.971
11
173.627
21
-117.052
0
LINE
8
BLACK
6
CONTINUOUS
10
173.627
20
-117.052
11
173.546
21
-117.106
0
LINE
8
BLACK
6
CONTINUOUS
10
173.546
20
-117.106
11
173.45
21
-117.125
0
LINE
8
BLACK
6
CONTINUOUS
10
173.45
20
-117.125
11
171.875
21
-117.125
0
LINE
8
BLACK
6
CONTINUOUS
10
171.875
20
-117.125
11
171.779
21
-117.106
0
LINE
8
BLACK
6
CONTINUOUS
10
171.779
20
-117.106
11
171.698
21
-117.052
0
LINE
8
BLACK
6
CONTINUOUS
10
171.698
20
-117.052
11
171.644
21
-116.971
0
LINE
8
BLACK
6
CONTINUOUS
10
171.644
20
-116.971
11
171.625
21
-116.875
0
LINE
8
BLACK
6
CONTINUOUS
10
171.625
20
-116.875
11
171.625
21
-115.025
0
LINE
8
BLACK
6
CONTINUOUS
10
171.625
20
-115.025
11
171.644
21
-114.929
0
LINE
8
BLACK
6
CONTINUOUS
10
171.644
20
-114.929
11
171.698
21
-114.848
0
LINE
8
BLACK
6
CONTINUOUS
10
171.698
20
-114.848
11
171.779
21
-114.794
0
LINE
8
BLACK
6
CONTINUOUS
10
171.779
20
-114.794
11
171.875
21
-114.775
0
LINE
8
BLACK
6
CONTINUOUS
10
171.875
20
-114.775
11
173.45
21
-114.775
0
LINE
8
BLACK
6
CONTINUOUS
10
173.45
20
-114.775
11
173.546
21
-114.794
0
LINE
8
BLACK
6
CONTINUOUS
10
147.445
20
-115.019
11
147.633
21
-115.076
0
LINE
8
BLACK
6
CONTINUOUS
10
147.633
20
-115.076
11
147.806
21
-115.169
0
LINE
8
BLACK
6
CONTINUOUS
10
147.806
20
-115.169
11
147.957
21
-115.293
0
LINE
8
BLACK
6
CONTINUOUS
10
147.957
20
-115.293
11
148.081
21
-115.444
0
LINE
8
BLACK
6
CONTINUOUS
10
148.081
20
-115.444
11
148.174
21
-115.617
0
LINE
8
BLACK
6
CONTINUOUS
10
148.174
20
-115.617
11
148.231
21
-115.805
0
LINE
8
BLACK
6
CONTINUOUS
10
148.231
20
-115.805
11
148.25
21
-116
0
LINE
8
BLACK
6
CONTINUOUS
10
148.25
20
-116
11
148.231
21
-116.195
0
LINE
8
BLACK
6
CONTINUOUS
10
148.231
20
-116.195
11
148.174
21
-116.383
0
LINE
8
BLACK
6
CONTINUOUS
10
148.174
20
-116.383
11
148.081
21
-116.556
0
LINE
8
BLACK
6
CONTINUOUS
10
148.081
20
-116.556
11
147.957
21
-116.707
0
LINE
8
BLACK
6
CONTINUOUS
10
147.957
20
-116.707
11
147.806
21
-116.831
0
LINE
8
BLACK
6
CONTINUOUS
10
147.806
20
-116.831
11
147.633
21
-116.924
0
LINE
8
BLACK
6
CONTINUOUS
10
147.633
20
-116.924
11
147.445
21
-116.981
0
LINE
8
BLACK
6
CONTINUOUS
10
147.445
20
-116.981
11
147.25
21
-117
0
LINE
8
BLACK
6
CONTINUOUS
10
147.25
20
-117
11
147.055
21
-116.981
0
LINE
8
BLACK
6
CONTINUOUS
10
147.055
20
-116.981
11
146.867
21
-116.924
0
LINE
8
BLACK
6
CONTINUOUS
10
146.867
20
-116.924
11
146.694
21
-116.831
0
LINE
8
BLACK
6
CONTINUOUS
10
146.694
20
-116.831
11
146.543
21
-116.707
0
LINE
8
BLACK
6
CONTINUOUS
10
146.543
20
-116.707
11
146.419
21
-116.556
0
LINE
8
BLACK
6
CONTINUOUS
10
146.419
20
-116.556
11
146.326
21
-116.383
0
LINE
8
BLACK
6
CONTINUOUS
10
146.326
20
-116.383
11
146.269
21
-116.195
0
LINE
8
BLACK
6
CONTINUOUS
10
146.269
20
-116.195
11
146.25
21
-116
0
LINE
8
BLACK
6
CONTINUOUS
10
146.25
20
-116
11
146.269
21
-115.805
0
LINE
8
BLACK
6
CONTINUOUS
10
146.269
20
-115.805
11
146.326
21
-115.617
0
LINE
8
BLACK
6
CONTINUOUS
10
146.326
20
-115.617
11
146.419
21
-115.444
0
LINE
8
BLACK
6
CONTINUOUS
10
146.419
20
-115.444
11
146.543
21
-115.293
0
LINE
8
BLACK
6
CONTINUOUS
10
146.543
20
-115.293
11
146.694
21
-115.169
0
LINE
8
BLACK
6
CONTINUOUS
10
146.694
20
-115.169
11
146.867
21
-115.076
0
LINE
8
BLACK
6
CONTINUOUS
10
146.867
20
-115.076
11
147.055
21
-115.019
0
LINE
8
BLACK
6
CONTINUOUS
10
147.055
20
-115.019
11
147.25
21
-115
0
LINE
8
BLACK
6
CONTINUOUS
10
147.25
20
-115
11
147.445
21
-115.019
0
LINE
8
BLACK
6
CONTINUOUS
10
107.274
20
-114.22
11
107.443
21
-114.279
0
LINE
8
BLACK
6
CONTINUOUS
10
107.443
20
-114.279
11
107.594
21
-114.374
0
LINE
8
BLACK
6
CONTINUOUS
10
107.594
20
-114.374
11
107.721
21
-114.501
0
LINE
8
BLACK
6
CONTINUOUS
10
107.721
20
-114.501
11
107.816
21
-114.653
0
LINE
8
BLACK
6
CONTINUOUS
10
107.816
20
-114.653
11
107.876
21
-114.822
0
LINE
8
BLACK
6
CONTINUOUS
10
107.876
20
-114.822
11
107.896
21
-115
0
LINE
8
BLACK
6
CONTINUOUS
10
107.896
20
-115
11
107.876
21
-115.178
0
LINE
8
BLACK
6
CONTINUOUS
10
107.876
20
-115.178
11
107.816
21
-115.347
0
LINE
8
BLACK
6
CONTINUOUS
10
107.816
20
-115.347
11
107.721
21
-115.499
0
LINE
8
BLACK
6
CONTINUOUS
10
107.721
20
-115.499
11
107.594
21
-115.626
0
LINE
8
BLACK
6
CONTINUOUS
10
107.594
20
-115.626
11
107.443
21
-115.721
0
LINE
8
BLACK
6
CONTINUOUS
10
107.443
20
-115.721
11
107.274
21
-115.78
0
LINE
8
BLACK
6
CONTINUOUS
10
107.274
20
-115.78
11
107.096
21
-115.8
0
LINE
8
BLACK
6
CONTINUOUS
10
107.096
20
-115.8
11
106.918
21
-115.78
0
LINE
8
BLACK
6
CONTINUOUS
10
106.918
20
-115.78
11
106.748
21
-115.721
0
LINE
8
BLACK
6
CONTINUOUS
10
106.748
20
-115.721
11
106.597
21
-115.626
0
LINE
8
BLACK
6
CONTINUOUS
10
106.597
20
-115.626
11
106.47
21
-115.499
0
LINE
8
BLACK
6
CONTINUOUS
10
106.47
20
-115.499
11
106.375
21
-115.347
0
LINE
8
BLACK
6
CONTINUOUS
10
106.375
20
-115.347
11
106.316
21
-115.178
0
LINE
8
BLACK
6
CONTINUOUS
10
106.316
20
-115.178
11
106.295
21
-115
0
LINE
8
BLACK
6
CONTINUOUS
10
106.295
20
-115
11
106.316
21
-114.822
0
LINE
8
BLACK
6
CONTINUOUS
10
106.316
20
-114.822
11
106.375
21
-114.653
0
LINE
8
BLACK
6
CONTINUOUS
10
106.375
20
-114.653
11
106.47
21
-114.501
0
LINE
8
BLACK
6
CONTINUOUS
10
106.47
20
-114.501
11
106.597
21
-114.374
0
LINE
8
BLACK
6
CONTINUOUS
10
106.597
20
-114.374
11
106.748
21
-114.279
0
LINE
8
BLACK
6
CONTINUOUS
10
106.748
20
-114.279
11
106.918
21
-114.22
0
LINE
8
BLACK
6
CONTINUOUS
10
106.918
20
-114.22
11
107.096
21
-114.2
0
LINE
8
BLACK
6
CONTINUOUS
10
107.096
20
-114.2
11
107.274
21
-114.22
0
LINE
8
BLACK
6
CONTINUOUS
10
110.274
20
-114.22
11
110.443
21
-114.279
0
LINE
8
BLACK
6
CONTINUOUS
10
110.443
20
-114.279
11
110.594
21
-114.374
0
LINE
8
BLACK
6
CONTINUOUS
10
110.594
20
-114.374
11
110.721
21
-114.501
0
LINE
8
BLACK
6
CONTINUOUS
10
110.721
20
-114.501
11
110.816
21
-114.653
0
LINE
8
BLACK
6
CONTINUOUS
10
110.816
20
-114.653
11
110.876
21
-114.822
0
LINE
8
BLACK
6
CONTINUOUS
10
110.876
20
-114.822
11
110.896
21
-115
0
LINE
8
BLACK
6
CONTINUOUS
10
110.896
20
-115
11
110.876
21
-115.178
0
LINE
8
BLACK
6
CONTINUOUS
10
110.876
20
-115.178
11
110.816
21
-115.347
0
LINE
8
BLACK
6
CONTINUOUS
10
110.816
20
-115.347
11
110.721
21
-115.499
0
LINE
8
BLACK
6
CONTINUOUS
10
110.721
20
-115.499
11
110.594
21
-115.626
0
LINE
8
BLACK
6
CONTINUOUS
10
110.594
20
-115.626
11
110.443
21
-115.721
0
LINE
8
BLACK
6
CONTINUOUS
10
110.443
20
-115.721
11
110.274
21
-115.78
0
LINE
8
BLACK
6
CONTINUOUS
10
110.274
20
-115.78
11
110.096
21
-115.8
0
LINE
8
BLACK
6
CONTINUOUS
10
110.096
20
-115.8
11
109.918
21
-115.78
0
LINE
8
BLACK
6
CONTINUOUS
10
109.918
20
-115.78
11
109.748
21
-115.721
0
LINE
8
BLACK
6
CONTINUOUS
10
109.748
20
-115.721
11
109.597
21
-115.626
0
LINE
8
BLACK
6
CONTINUOUS
10
109.597
20
-115.626
11
109.47
21
-115.499
0
LINE
8
BLACK
6
CONTINUOUS
10
109.47
20
-115.499
11
109.375
21
-115.347
0
LINE
8
BLACK
6
CONTINUOUS
10
109.375
20
-115.347
11
109.316
21
-115.178
0
LINE
8
BLACK
6
CONTINUOUS
10
109.316
20
-115.178
11
109.295
21
-115
0
LINE
8
BLACK
6
CONTINUOUS
10
109.295
20
-115
11
109.316
21
-114.822
0
LINE
8
BLACK
6
CONTINUOUS
10
109.316
20
-114.822
11
109.375
21
-114.653
0
LINE
8
BLACK
6
CONTINUOUS
10
109.375
20
-114.653
11
109.47
21
-114.501
0
LINE
8
BLACK
6
CONTINUOUS
10
109.47
20
-114.501
11
109.597
21
-114.374
0
LINE
8
BLACK
6
CONTINUOUS
10
109.597
20
-114.374
11
109.748
21
-114.279
0
LINE
8
BLACK
6
CONTINUOUS
10
109.748
20
-114.279
11
109.918
21
-114.22
0
LINE
8
BLACK
6
CONTINUOUS
10
109.918
20
-114.22
11
110.096
21
-114.2
0
LINE
8
BLACK
6
CONTINUOUS
10
110.096
20
-114.2
11
110.274
21
-114.22
0
LINE
8
BLACK
6
CONTINUOUS
10
107.274
20
-111.72
11
107.443
21
-111.779
0
LINE
8
BLACK
6
CONTINUOUS
10
107.443
20
-111.779
11
107.594
21
-111.874
0
LINE
8
BLACK
6
CONTINUOUS
10
107.594
20
-111.874
11
107.721
21
-112.001
0
LINE
8
BLACK
6
CONTINUOUS
10
107.721
20
-112.001
11
107.816
21
-112.153
0
LINE
8
BLACK
6
CONTINUOUS
10
107.816
20
-112.153
11
107.876
21
-112.322
0
LINE
8
BLACK
6
CONTINUOUS
10
107.876
20
-112.322
11
107.896
21
-112.5
0
LINE
8
BLACK
6
CONTINUOUS
10
107.896
20
-112.5
11
107.876
21
-112.678
0
LINE
8
BLACK
6
CONTINUOUS
10
107.876
20
-112.678
11
107.816
21
-112.847
0
LINE
8
BLACK
6
CONTINUOUS
10
107.816
20
-112.847
11
107.721
21
-112.999
0
LINE
8
BLACK
6
CONTINUOUS
10
107.721
20
-112.999
11
107.594
21
-113.126
0
LINE
8
BLACK
6
CONTINUOUS
10
107.594
20
-113.126
11
107.443
21
-113.221
0
LINE
8
BLACK
6
CONTINUOUS
10
107.443
20
-113.221
11
107.274
21
-113.28
0
LINE
8
BLACK
6
CONTINUOUS
10
107.274
20
-113.28
11
107.096
21
-113.3
0
LINE
8
BLACK
6
CONTINUOUS
10
107.096
20
-113.3
11
106.918
21
-113.28
0
LINE
8
BLACK
6
CONTINUOUS
10
106.918
20
-113.28
11
106.748
21
-113.221
0
LINE
8
BLACK
6
CONTINUOUS
10
106.748
20
-113.221
11
106.597
21
-113.126
0
LINE
8
BLACK
6
CONTINUOUS
10
106.597
20
-113.126
11
106.47
21
-112.999
0
LINE
8
BLACK
6
CONTINUOUS
10
106.47
20
-112.999
11
106.375
21
-112.847
0
LINE
8
BLACK
6
CONTINUOUS
10
106.375
20
-112.847
11
106.316
21
-112.678
0
LINE
8
BLACK
6
CONTINUOUS
10
106.316
20
-112.678
11
106.295
21
-112.5
0
LINE
8
BLACK
6
CONTINUOUS
10
106.295
20
-112.5
11
106.316
21
-112.322
0
LINE
8
BLACK
6
CONTINUOUS
10
106.316
20
-112.322
11
106.375
21
-112.153
0
LINE
8
BLACK
6
CONTINUOUS
10
106.375
20
-112.153
11
106.47
21
-112.001
0
LINE
8
BLACK
6
CONTINUOUS
10
106.47
20
-112.001
11
106.597
21
-111.874
0
LINE
8
BLACK
6
CONTINUOUS
10
106.597
20
-111.874
11
106.748
21
-111.779
0
LINE
8
BLACK
6
CONTINUOUS
10
106.748
20
-111.779
11
106.918
21
-111.72
0
LINE
8
BLACK
6
CONTINUOUS
10
106.918
20
-111.72
11
107.096
21
-111.7
0
LINE
8
BLACK
6
CONTINUOUS
10
107.096
20
-111.7
11
107.274
21
-111.72
0
LINE
8
BLACK
6
CONTINUOUS
10
110.274
20
-111.72
11
110.443
21
-111.779
0
LINE
8
BLACK
6
CONTINUOUS
10
110.443
20
-111.779
11
110.594
21
-111.874
0
LINE
8
BLACK
6
CONTINUOUS
10
110.594
20
-111.874
11
110.721
21
-112.001
0
LINE
8
BLACK
6
CONTINUOUS
10
110.721
20
-112.001
11
110.816
21
-112.153
0
LINE
8
BLACK
6
CONTINUOUS
10
110.816
20
-112.153
11
110.876
21
-112.322
0
LINE
8
BLACK
6
CONTINUOUS
10
110.876
20
-112.322
11
110.896
21
-112.5
0
LINE
8
BLACK
6
CONTINUOUS
10
110.896
20
-112.5
11
110.876
21
-112.678
0
LINE
8
BLACK
6
CONTINUOUS
10
110.876
20
-112.678
11
110.816
21
-112.847
0
LINE
8
BLACK
6
CONTINUOUS
10
110.816
20
-112.847
11
110.721
21
-112.999
0
LINE
8
BLACK
6
CONTINUOUS
10
110.721
20
-112.999
11
110.594
21
-113.126
0
LINE
8
BLACK
6
CONTINUOUS
10
110.594
20
-113.126
11
110.443
21
-113.221
0
LINE
8
BLACK
6
CONTINUOUS
10
110.443
20
-113.221
11
110.274
21
-113.28
0
LINE
8
BLACK
6
CONTINUOUS
10
110.274
20
-113.28
11
110.096
21
-113.3
0
LINE
8
BLACK
6
CONTINUOUS
10
110.096
20
-113.3
11
109.918
21
-113.28
0
LINE
8
BLACK
6
CONTINUOUS
10
109.918
20
-113.28
11
109.748
21
-113.221
0
LINE
8
BLACK
6
CONTINUOUS
10
109.748
20
-113.221
11
109.597
21
-113.126
0
LINE
8
BLACK
6
CONTINUOUS
10
109.597
20
-113.126
11
109.47
21
-112.999
0
LINE
8
BLACK
6
CONTINUOUS
10
109.47
20
-112.999
11
109.375
21
-112.847
0
LINE
8
BLACK
6
CONTINUOUS
10
109.375
20
-112.847
11
109.316
21
-112.678
0
LINE
8
BLACK
6
CONTINUOUS
10
109.316
20
-112.678
11
109.295
21
-112.5
0
LINE
8
BLACK
6
CONTINUOUS
10
109.295
20
-112.5
11
109.316
21
-112.322
0
LINE
8
BLACK
6
CONTINUOUS
10
109.316
20
-112.322
11
109.375
21
-112.153
0
LINE
8
BLACK
6
CONTINUOUS
10
109.375
20
-112.153
11
109.47
21
-112.001
0
LINE
8
BLACK
6
CONTINUOUS
10
109.47
20
-112.001
11
109.597
21
-111.874
0
LINE
8
BLACK
6
CONTINUOUS
10
109.597
20
-111.874
11
109.748
21
-111.779
0
LINE
8
BLACK
6
CONTINUOUS
10
109.748
20
-111.779
11
109.918
21
-111.72
0
LINE
8
BLACK
6
CONTINUOUS
10
109.918
20
-111.72
11
110.096
21
-111.7
0
LINE
8
BLACK
6
CONTINUOUS
10
110.096
20
-111.7
11
110.274
21
-111.72
0
LINE
8
BLACK
6
CONTINUOUS
10
168.621
20
-110.944
11
168.702
21
-110.998
0
LINE
8
BLACK
6
CONTINUOUS
10
168.702
20
-110.998
11
168.756
21
-111.079
0
LINE
8
BLACK
6
CONTINUOUS
10
168.756
20
-111.079
11
168.775
21
-111.175
0
LINE
8
BLACK
6
CONTINUOUS
10
168.775
20
-111.175
11
168.775
21
-113.025
0
LINE
8
BLACK
6
CONTINUOUS
10
168.775
20
-113.025
11
168.756
21
-113.121
0
LINE
8
BLACK
6
CONTINUOUS
10
168.756
20
-113.121
11
168.702
21
-113.202
0
LINE
8
BLACK
6
CONTINUOUS
10
168.702
20
-113.202
11
168.621
21
-113.256
0
LINE
8
BLACK
6
CONTINUOUS
10
168.621
20
-113.256
11
168.525
21
-113.275
0
LINE
8
BLACK
6
CONTINUOUS
10
168.525
20
-113.275
11
166.95
21
-113.275
0
LINE
8
BLACK
6
CONTINUOUS
10
166.95
20
-113.275
11
166.854
21
-113.256
0
LINE
8
BLACK
6
CONTINUOUS
10
166.854
20
-113.256
11
166.773
21
-113.202
0
LINE
8
BLACK
6
CONTINUOUS
10
166.773
20
-113.202
11
166.719
21
-113.121
0
LINE
8
BLACK
6
CONTINUOUS
10
166.719
20
-113.121
11
166.7
21
-113.025
0
LINE
8
BLACK
6
CONTINUOUS
10
166.7
20
-113.025
11
166.7
21
-111.175
0
LINE
8
BLACK
6
CONTINUOUS
10
166.7
20
-111.175
11
166.719
21
-111.079
0
LINE
8
BLACK
6
CONTINUOUS
10
166.719
20
-111.079
11
166.773
21
-110.998
0
LINE
8
BLACK
6
CONTINUOUS
10
166.773
20
-110.998
11
166.854
21
-110.944
0
LINE
8
BLACK
6
CONTINUOUS
10
166.854
20
-110.944
11
166.95
21
-110.925
0
LINE
8
BLACK
6
CONTINUOUS
10
166.95
20
-110.925
11
168.525
21
-110.925
0
LINE
8
BLACK
6
CONTINUOUS
10
168.525
20
-110.925
11
168.621
21
-110.944
0
LINE
8
BLACK
6
CONTINUOUS
10
173.546
20
-110.944
11
173.627
21
-110.998
0
LINE
8
BLACK
6
CONTINUOUS
10
173.627
20
-110.998
11
173.681
21
-111.079
0
LINE
8
BLACK
6
CONTINUOUS
10
173.681
20
-111.079
11
173.7
21
-111.175
0
LINE
8
BLACK
6
CONTINUOUS
10
173.7
20
-111.175
11
173.7
21
-113.025
0
LINE
8
BLACK
6
CONTINUOUS
10
173.7
20
-113.025
11
173.681
21
-113.121
0
LINE
8
BLACK
6
CONTINUOUS
10
173.681
20
-113.121
11
173.627
21
-113.202
0
LINE
8
BLACK
6
CONTINUOUS
10
173.627
20
-113.202
11
173.546
21
-113.256
0
LINE
8
BLACK
6
CONTINUOUS
10
173.546
20
-113.256
11
173.45
21
-113.275
0
LINE
8
BLACK
6
CONTINUOUS
10
173.45
20
-113.275
11
171.875
21
-113.275
0
LINE
8
BLACK
6
CONTINUOUS
10
171.875
20
-113.275
11
171.779
21
-113.256
0
LINE
8
BLACK
6
CONTINUOUS
10
171.779
20
-113.256
11
171.698
21
-113.202
0
LINE
8
BLACK
6
CONTINUOUS
10
171.698
20
-113.202
11
171.644
21
-113.121
0
LINE
8
BLACK
6
CONTINUOUS
10
171.644
20
-113.121
11
171.625
21
-113.025
0
LINE
8
BLACK
6
CONTINUOUS
10
171.625
20
-113.025
11
171.625
21
-111.175
0
LINE
8
BLACK
6
CONTINUOUS
10
171.625
20
-111.175
11
171.644
21
-111.079
0
LINE
8
BLACK
6
CONTINUOUS
10
171.644
20
-111.079
11
171.698
21
-110.998
0
LINE
8
BLACK
6
CONTINUOUS
10
171.698
20
-110.998
11
171.779
21
-110.944
0
LINE
8
BLACK
6
CONTINUOUS
10
171.779
20
-110.944
11
171.875
21
-110.925
0
LINE
8
BLACK
6
CONTINUOUS
10
171.875
20
-110.925
11
173.45
21
-110.925
0
LINE
8
BLACK
6
CONTINUOUS
10
173.45
20
-110.925
11
173.546
21
-110.944
0
LINE
8
BLACK
6
CONTINUOUS
10
107.274
20
-109.22
11
107.443
21
-109.279
0
LINE
8
BLACK
6
CONTINUOUS
10
107.443
20
-109.279
11
107.594
21
-109.374
0
LINE
8
BLACK
6
CONTINUOUS
10
107.594
20
-109.374
11
107.721
21
-109.501
0
LINE
8
BLACK
6
CONTINUOUS
10
107.721
20
-109.501
11
107.816
21
-109.653
0
LINE
8
BLACK
6
CONTINUOUS
10
107.816
20
-109.653
11
107.876
21
-109.822
0
LINE
8
BLACK
6
CONTINUOUS
10
107.876
20
-109.822
11
107.896
21
-110
0
LINE
8
BLACK
6
CONTINUOUS
10
107.896
20
-110
11
107.876
21
-110.178
0
LINE
8
BLACK
6
CONTINUOUS
10
107.876
20
-110.178
11
107.816
21
-110.347
0
LINE
8
BLACK
6
CONTINUOUS
10
107.816
20
-110.347
11
107.721
21
-110.499
0
LINE
8
BLACK
6
CONTINUOUS
10
107.721
20
-110.499
11
107.594
21
-110.626
0
LINE
8
BLACK
6
CONTINUOUS
10
107.594
20
-110.626
11
107.443
21
-110.721
0
LINE
8
BLACK
6
CONTINUOUS
10
107.443
20
-110.721
11
107.274
21
-110.78
0
LINE
8
BLACK
6
CONTINUOUS
10
107.274
20
-110.78
11
107.096
21
-110.8
0
LINE
8
BLACK
6
CONTINUOUS
10
107.096
20
-110.8
11
106.918
21
-110.78
0
LINE
8
BLACK
6
CONTINUOUS
10
106.918
20
-110.78
11
106.748
21
-110.721
0
LINE
8
BLACK
6
CONTINUOUS
10
106.748
20
-110.721
11
106.597
21
-110.626
0
LINE
8
BLACK
6
CONTINUOUS
10
106.597
20
-110.626
11
106.47
21
-110.499
0
LINE
8
BLACK
6
CONTINUOUS
10
106.47
20
-110.499
11
106.375
21
-110.347
0
LINE
8
BLACK
6
CONTINUOUS
10
106.375
20
-110.347
11
106.316
21
-110.178
0
LINE
8
BLACK
6
CONTINUOUS
10
106.316
20
-110.178
11
106.295
21
-110
0
LINE
8
BLACK
6
CONTINUOUS
10
106.295
20
-110
11
106.316
21
-109.822
0
LINE
8
BLACK
6
CONTINUOUS
10
106.316
20
-109.822
11
106.375
21
-109.653
0
LINE
8
BLACK
6
CONTINUOUS
10
106.375
20
-109.653
11
106.47
21
-109.501
0
LINE
8
BLACK
6
CONTINUOUS
10
106.47
20
-109.501
11
106.597
21
-109.374
0
LINE
8
BLACK
6
CONTINUOUS
10
106.597
20
-109.374
11
106.748
21
-109.279
0
LINE
8
BLACK
6
CONTINUOUS
10
106.748
20
-109.279
11
106.918
21
-109.22
0
LINE
8
BLACK
6
CONTINUOUS
10
106.918
20
-109.22
11
107.096
21
-109.2
0
LINE
8
BLACK
6
CONTINUOUS
10
107.096
20
-109.2
11
107.274
21
-109.22
0
LINE
8
BLACK
6
CONTINUOUS
10
110.274
20
-109.22
11
110.443
21
-109.279
0
LINE
8
BLACK
6
CONTINUOUS
10
110.443
20
-109.279
11
110.594
21
-109.374
0
LINE
8
BLACK
6
CONTINUOUS
10
110.594
20
-109.374
11
110.721
21
-109.501
0
LINE
8
BLACK
6
CONTINUOUS
10
110.721
20
-109.501
11
110.816
21
-109.653
0
LINE
8
BLACK
6
CONTINUOUS
10
110.816
20
-109.653
11
110.876
21
-109.822
0
LINE
8
BLACK
6
CONTINUOUS
10
110.876
20
-109.822
11
110.896
21
-110
0
LINE
8
BLACK
6
CONTINUOUS
10
110.896
20
-110
11
110.876
21
-110.178
0
LINE
8
BLACK
6
CONTINUOUS
10
110.876
20
-110.178
11
110.816
21
-110.347
0
LINE
8
BLACK
6
CONTINUOUS
10
110.816
20
-110.347
11
110.721
21
-110.499
0
LINE
8
BLACK
6
CONTINUOUS
10
110.721
20
-110.499
11
110.594
21
-110.626
0
LINE
8
BLACK
6
CONTINUOUS
10
110.594
20
-110.626
11
110.443
21
-110.721
0
LINE
8
BLACK
6
CONTINUOUS
10
110.443
20
-110.721
11
110.274
21
-110.78
0
LINE
8
BLACK
6
CONTINUOUS
10
110.274
20
-110.78
11
110.096
21
-110.8
0
LINE
8
BLACK
6
CONTINUOUS
10
110.096
20
-110.8
11
109.918
21
-110.78
0
LINE
8
BLACK
6
CONTINUOUS
10
109.918
20
-110.78
11
109.748
21
-110.721
0
LINE
8
BLACK
6
CONTINUOUS
10
109.748
20
-110.721
11
109.597
21
-110.626
0
LINE
8
BLACK
6
CONTINUOUS
10
109.597
20
-110.626
11
109.47
21
-110.499
0
LINE
8
BLACK
6
CONTINUOUS
10
109.47
20
-110.499
11
109.375
21
-110.347
0
LINE
8
BLACK
6
CONTINUOUS
10
109.375
20
-110.347
11
109.316
21
-110.178
0
LINE
8
BLACK
6
CONTINUOUS
10
109.316
20
-110.178
11
109.295
21
-110
0
LINE
8
BLACK
6
CONTINUOUS
10
109.295
20
-110
11
109.316
21
-109.822
0
LINE
8
BLACK
6
CONTINUOUS
10
109.316
20
-109.822
11
109.375
21
-109.653
0
LINE
8
BLACK
6
CONTINUOUS
10
109.375
20
-109.653
11
109.47
21
-109.501
0
LINE
8
BLACK
6
CONTINUOUS
10
109.47
20
-109.501
11
109.597
21
-109.374
0
LINE
8
BLACK
6
CONTINUOUS
10
109.597
20
-109.374
11
109.748
21
-109.279
0
LINE
8
BLACK
6
CONTINUOUS
10
109.748
20
-109.279
11
109.918
21
-109.22
0
LINE
8
BLACK
6
CONTINUOUS
10
109.918
20
-109.22
11
110.096
21
-109.2
0
LINE
8
BLACK
6
CONTINUOUS
10
110.096
20
-109.2
11
110.274
21
-109.22
0
LINE
8
BLACK
6
CONTINUOUS
10
170.146
20
-108.144
11
170.227
21
-108.198
0
LINE
8
BLACK
6
CONTINUOUS
10
170.227
20
-108.198
11
170.281
21
-108.279
0
LINE
8
BLACK
6
CONTINUOUS
10
170.281
20
-108.279
11
170.3
21
-108.375
0
LINE
8
BLACK
6
CONTINUOUS
10
170.3
20
-108.375
11
170.3
21
-109.625
0
LINE
8
BLACK
6
CONTINUOUS
10
170.3
20
-109.625
11
170.281
21
-109.721
0
LINE
8
BLACK
6
CONTINUOUS
10
170.281
20
-109.721
11
170.227
21
-109.802
0
LINE
8
BLACK
6
CONTINUOUS
10
170.227
20
-109.802
11
170.146
21
-109.856
0
LINE
8
BLACK
6
CONTINUOUS
10
170.146
20
-109.856
11
170.05
21
-109.875
0
LINE
8
BLACK
6
CONTINUOUS
10
170.05
20
-109.875
11
169.425
21
-109.875
0
LINE
8
BLACK
6
CONTINUOUS
10
169.425
20
-109.875
11
169.329
21
-109.856
0
LINE
8
BLACK
6
CONTINUOUS
10
169.329
20
-109.856
11
169.248
21
-109.802
0
LINE
8
BLACK
6
CONTINUOUS
10
169.248
20
-109.802
11
169.194
21
-109.721
0
LINE
8
BLACK
6
CONTINUOUS
10
169.194
20
-109.721
11
169.175
21
-109.625
0
LINE
8
BLACK
6
CONTINUOUS
10
169.175
20
-109.625
11
169.175
21
-108.375
0
LINE
8
BLACK
6
CONTINUOUS
10
169.175
20
-108.375
11
169.194
21
-108.279
0
LINE
8
BLACK
6
CONTINUOUS
10
169.194
20
-108.279
11
169.248
21
-108.198
0
LINE
8
BLACK
6
CONTINUOUS
10
169.248
20
-108.198
11
169.329
21
-108.144
0
LINE
8
BLACK
6
CONTINUOUS
10
169.329
20
-108.144
11
169.425
21
-108.125
0
LINE
8
BLACK
6
CONTINUOUS
10
169.425
20
-108.125
11
170.05
21
-108.125
0
LINE
8
BLACK
6
CONTINUOUS
10
170.05
20
-108.125
11
170.146
21
-108.144
0
LINE
8
BLACK
6
CONTINUOUS
10
173.071
20
-108.144
11
173.152
21
-108.198
0
LINE
8
BLACK
6
CONTINUOUS
10
173.152
20
-108.198
11
173.206
21
-108.279
0
LINE
8
BLACK
6
CONTINUOUS
10
173.206
20
-108.279
11
173.225
21
-108.375
0
LINE
8
BLACK
6
CONTINUOUS
10
173.225
20
-108.375
11
173.225
21
-109.625
0
LINE
8
BLACK
6
CONTINUOUS
10
173.225
20
-109.625
11
173.206
21
-109.721
0
LINE
8
BLACK
6
CONTINUOUS
10
173.206
20
-109.721
11
173.152
21
-109.802
0
LINE
8
BLACK
6
CONTINUOUS
10
173.152
20
-109.802
11
173.071
21
-109.856
0
LINE
8
BLACK
6
CONTINUOUS
10
173.071
20
-109.856
11
172.975
21
-109.875
0
LINE
8
BLACK
6
CONTINUOUS
10
172.975
20
-109.875
11
172.35
21
-109.875
0
LINE
8
BLACK
6
CONTINUOUS
10
172.35
20
-109.875
11
172.254
21
-109.856
0
LINE
8
BLACK
6
CONTINUOUS
10
172.254
20
-109.856
11
172.173
21
-109.802
0
LINE
8
BLACK
6
CONTINUOUS
10
172.173
20
-109.802
11
172.119
21
-109.721
0
LINE
8
BLACK
6
CONTINUOUS
10
172.119
20
-109.721
11
172.1
21
-109.625
0
LINE
8
BLACK
6
CONTINUOUS
10
172.1
20
-109.625
11
172.1
21
-108.375
0
LINE
8
BLACK
6
CONTINUOUS
10
172.1
20
-108.375
11
172.119
21
-108.279
0
LINE
8
BLACK
6
CONTINUOUS
10
172.119
20
-108.279
11
172.173
21
-108.198
0
LINE
8
BLACK
6
CONTINUOUS
10
172.173
20
-108.198
11
172.254
21
-108.144
0
LINE
8
BLACK
6
CONTINUOUS
10
172.254
20
-108.144
11
172.35
21
-108.125
0
LINE
8
BLACK
6
CONTINUOUS
10
172.35
20
-108.125
11
172.975
21
-108.125
0
LINE
8
BLACK
6
CONTINUOUS
10
172.975
20
-108.125
11
173.071
21
-108.144
0
LINE
8
BLACK
6
CONTINUOUS
10
107.274
20
-106.72
11
107.443
21
-106.779
0
LINE
8
BLACK
6
CONTINUOUS
10
107.443
20
-106.779
11
107.594
21
-106.874
0
LINE
8
BLACK
6
CONTINUOUS
10
107.594
20
-106.874
11
107.721
21
-107.001
0
LINE
8
BLACK
6
CONTINUOUS
10
107.721
20
-107.001
11
107.816
21
-107.153
0
LINE
8
BLACK
6
CONTINUOUS
10
107.816
20
-107.153
11
107.876
21
-107.322
0
LINE
8
BLACK
6
CONTINUOUS
10
107.876
20
-107.322
11
107.896
21
-107.5
0
LINE
8
BLACK
6
CONTINUOUS
10
107.896
20
-107.5
11
107.876
21
-107.678
0
LINE
8
BLACK
6
CONTINUOUS
10
107.876
20
-107.678
11
107.816
21
-107.847
0
LINE
8
BLACK
6
CONTINUOUS
10
107.816
20
-107.847
11
107.721
21
-107.999
0
LINE
8
BLACK
6
CONTINUOUS
10
107.721
20
-107.999
11
107.594
21
-108.126
0
LINE
8
BLACK
6
CONTINUOUS
10
107.594
20
-108.126
11
107.443
21
-108.221
0
LINE
8
BLACK
6
CONTINUOUS
10
107.443
20
-108.221
11
107.274
21
-108.28
0
LINE
8
BLACK
6
CONTINUOUS
10
107.274
20
-108.28
11
107.096
21
-108.3
0
LINE
8
BLACK
6
CONTINUOUS
10
107.096
20
-108.3
11
106.918
21
-108.28
0
LINE
8
BLACK
6
CONTINUOUS
10
106.918
20
-108.28
11
106.748
21
-108.221
0
LINE
8
BLACK
6
CONTINUOUS
10
106.748
20
-108.221
11
106.597
21
-108.126
0
LINE
8
BLACK
6
CONTINUOUS
10
106.597
20
-108.126
11
106.47
21
-107.999
0
LINE
8
BLACK
6
CONTINUOUS
10
106.47
20
-107.999
11
106.375
21
-107.847
0
LINE
8
BLACK
6
CONTINUOUS
10
106.375
20
-107.847
11
106.316
21
-107.678
0
LINE
8
BLACK
6
CONTINUOUS
10
106.316
20
-107.678
11
106.295
21
-107.5
0
LINE
8
BLACK
6
CONTINUOUS
10
106.295
20
-107.5
11
106.316
21
-107.322
0
LINE
8
BLACK
6
CONTINUOUS
10
106.316
20
-107.322
11
106.375
21
-107.153
0
LINE
8
BLACK
6
CONTINUOUS
10
106.375
20
-107.153
11
106.47
21
-107.001
0
LINE
8
BLACK
6
CONTINUOUS
10
106.47
20
-107.001
11
106.597
21
-106.874
0
LINE
8
BLACK
6
CONTINUOUS
10
106.597
20
-106.874
11
106.748
21
-106.779
0
LINE
8
BLACK
6
CONTINUOUS
10
106.748
20
-106.779
11
106.918
21
-106.72
0
LINE
8
BLACK
6
CONTINUOUS
10
106.918
20
-106.72
11
107.096
21
-106.7
0
LINE
8
BLACK
6
CONTINUOUS
10
107.096
20
-106.7
11
107.274
21
-106.72
0
LINE
8
BLACK
6
CONTINUOUS
10
110.274
20
-106.72
11
110.443
21
-106.779
0
LINE
8
BLACK
6
CONTINUOUS
10
110.443
20
-106.779
11
110.594
21
-106.874
0
LINE
8
BLACK
6
CONTINUOUS
10
110.594
20
-106.874
11
110.721
21
-107.001
0
LINE
8
BLACK
6
CONTINUOUS
10
110.721
20
-107.001
11
110.816
21
-107.153
0
LINE
8
BLACK
6
CONTINUOUS
10
110.816
20
-107.153
11
110.876
21
-107.322
0
LINE
8
BLACK
6
CONTINUOUS
10
110.876
20
-107.322
11
110.896
21
-107.5
0
LINE
8
BLACK
6
CONTINUOUS
10
110.896
20
-107.5
11
110.876
21
-107.678
0
LINE
8
BLACK
6
CONTINUOUS
10
110.876
20
-107.678
11
110.816
21
-107.847
0
LINE
8
BLACK
6
CONTINUOUS
10
110.816
20
-107.847
11
110.721
21
-107.999
0
LINE
8
BLACK
6
CONTINUOUS
10
110.721
20
-107.999
11
110.594
21
-108.126
0
LINE
8
BLACK
6
CONTINUOUS
10
110.594
20
-108.126
11
110.443
21
-108.221
0
LINE
8
BLACK
6
CONTINUOUS
10
110.443
20
-108.221
11
110.274
21
-108.28
0
LINE
8
BLACK
6
CONTINUOUS
10
110.274
20
-108.28
11
110.096
21
-108.3
0
LINE
8
BLACK
6
CONTINUOUS
10
110.096
20
-108.3
11
109.918
21
-108.28
0
LINE
8
BLACK
6
CONTINUOUS
10
109.918
20
-108.28
11
109.748
21
-108.221
0
LINE
8
BLACK
6
CONTINUOUS
10
109.748
20
-108.221
11
109.597
21
-108.126
0
LINE
8
BLACK
6
CONTINUOUS
10
109.597
20
-108.126
11
109.47
21
-107.999
0
LINE
8
BLACK
6
CONTINUOUS
10
109.47
20
-107.999
11
109.375
21
-107.847
0
LINE
8
BLACK
6
CONTINUOUS
10
109.375
20
-107.847
11
109.316
21
-107.678
0
LINE
8
BLACK
6
CONTINUOUS
10
109.316
20
-107.678
11
109.295
21
-107.5
0
LINE
8
BLACK
6
CONTINUOUS
10
109.295
20
-107.5
11
109.316
21
-107.322
0
LINE
8
BLACK
6
CONTINUOUS
10
109.316
20
-107.322
11
109.375
21
-107.153
0
LINE
8
BLACK
6
CONTINUOUS
10
109.375
20
-107.153
11
109.47
21
-107.001
0
LINE
8
BLACK
6
CONTINUOUS
10
109.47
20
-107.001
11
109.597
21
-106.874
0
LINE
8
BLACK
6
CONTINUOUS
10
109.597
20
-106.874
11
109.748
21
-106.779
0
LINE
8
BLACK
6
CONTINUOUS
10
109.748
20
-106.779
11
109.918
21
-106.72
0
LINE
8
BLACK
6
CONTINUOUS
10
109.918
20
-106.72
11
110.096
21
-106.7
0
LINE
8
BLACK
6
CONTINUOUS
10
110.096
20
-106.7
11
110.274
21
-106.72
0
LINE
8
BLACK
6
CONTINUOUS
10
107.274
20
-104.22
11
107.443
21
-104.279
0
LINE
8
BLACK
6
CONTINUOUS
10
107.443
20
-104.279
11
107.594
21
-104.374
0
LINE
8
BLACK
6
CONTINUOUS
10
107.594
20
-104.374
11
107.721
21
-104.501
0
LINE
8
BLACK
6
CONTINUOUS
10
107.721
20
-104.501
11
107.816
21
-104.653
0
LINE
8
BLACK
6
CONTINUOUS
10
107.816
20
-104.653
11
107.876
21
-104.822
0
LINE
8
BLACK
6
CONTINUOUS
10
107.876
20
-104.822
11
107.896
21
-105
0
LINE
8
BLACK
6
CONTINUOUS
10
107.896
20
-105
11
107.876
21
-105.178
0
LINE
8
BLACK
6
CONTINUOUS
10
107.876
20
-105.178
11
107.816
21
-105.347
0
LINE
8
BLACK
6
CONTINUOUS
10
107.816
20
-105.347
11
107.721
21
-105.499
0
LINE
8
BLACK
6
CONTINUOUS
10
107.721
20
-105.499
11
107.594
21
-105.626
0
LINE
8
BLACK
6
CONTINUOUS
10
107.594
20
-105.626
11
107.443
21
-105.721
0
LINE
8
BLACK
6
CONTINUOUS
10
107.443
20
-105.721
11
107.274
21
-105.78
0
LINE
8
BLACK
6
CONTINUOUS
10
107.274
20
-105.78
11
107.096
21
-105.8
0
LINE
8
BLACK
6
CONTINUOUS
10
107.096
20
-105.8
11
106.918
21
-105.78
0
LINE
8
BLACK
6
CONTINUOUS
10
106.918
20
-105.78
11
106.748
21
-105.721
0
LINE
8
BLACK
6
CONTINUOUS
10
106.748
20
-105.721
11
106.597
21
-105.626
0
LINE
8
BLACK
6
CONTINUOUS
10
106.597
20
-105.626
11
106.47
21
-105.499
0
LINE
8
BLACK
6
CONTINUOUS
10
106.47
20
-105.499
11
106.375
21
-105.347
0
LINE
8
BLACK
6
CONTINUOUS
10
106.375
20
-105.347
11
106.316
21
-105.178
0
LINE
8
BLACK
6
CONTINUOUS
10
106.316
20
-105.178
11
106.295
21
-105
0
LINE
8
BLACK
6
CONTINUOUS
10
106.295
20
-105
11
106.316
21
-104.822
0
LINE
8
BLACK
6
CONTINUOUS
10
106.316
20
-104.822
11
106.375
21
-104.653
0
LINE
8
BLACK
6
CONTINUOUS
10
106.375
20
-104.653
11
106.47
21
-104.501
0
LINE
8
BLACK
6
CONTINUOUS
10
106.47
20
-104.501
11
106.597
21
-104.374
0
LINE
8
BLACK
6
CONTINUOUS
10
106.597
20
-104.374
11
106.748
21
-104.279
0
LINE
8
BLACK
6
CONTINUOUS
10
106.748
20
-104.279
11
106.918
21
-104.22
0
LINE
8
BLACK
6
CONTINUOUS
10
106.918
20
-104.22
11
107.096
21
-104.2
0
LINE
8
BLACK
6
CONTINUOUS
10
107.096
20
-104.2
11
107.274
21
-104.22
0
LINE
8
BLACK
6
CONTINUOUS
10
110.274
20
-104.22
11
110.443
21
-104.279
0
LINE
8
BLACK
6
CONTINUOUS
10
110.443
20
-104.279
11
110.594
21
-104.374
0
LINE
8
BLACK
6
CONTINUOUS
10
110.594
20
-104.374
11
110.721
21
-104.501
0
LINE
8
BLACK
6
CONTINUOUS
10
110.721
20
-104.501
11
110.816
21
-104.653
0
LINE
8
BLACK
6
CONTINUOUS
10
110.816
20
-104.653
11
110.876
21
-104.822
0
LINE
8
BLACK
6
CONTINUOUS
10
110.876
20
-104.822
11
110.896
21
-105
0
LINE
8
BLACK
6
CONTINUOUS
10
110.896
20
-105
11
110.876
21
-105.178
0
LINE
8
BLACK
6
CONTINUOUS
10
110.876
20
-105.178
11
110.816
21
-105.347
0
LINE
8
BLACK
6
CONTINUOUS
10
110.816
20
-105.347
11
110.721
21
-105.499
0
LINE
8
BLACK
6
CONTINUOUS
10
110.721
20
-105.499
11
110.594
21
-105.626
0
LINE
8
BLACK
6
CONTINUOUS
10
110.594
20
-105.626
11
110.443
21
-105.721
0
LINE
8
BLACK
6
CONTINUOUS
10
110.443
20
-105.721
11
110.274
21
-105.78
0
LINE
8
BLACK
6
CONTINUOUS
10
110.274
20
-105.78
11
110.096
21
-105.8
0
LINE
8
BLACK
6
CONTINUOUS
10
110.096
20
-105.8
11
109.918
21
-105.78
0
LINE
8
BLACK
6
CONTINUOUS
10
109.918
20
-105.78
11
109.748
21
-105.721
0
LINE
8
BLACK
6
CONTINUOUS
10
109.748
20
-105.721
11
109.597
21
-105.626
0
LINE
8
BLACK
6
CONTINUOUS
10
109.597
20
-105.626
11
109.47
21
-105.499
0
LINE
8
BLACK
6
CONTINUOUS
10
109.47
20
-105.499
11
109.375
21
-105.347
0
LINE
8
BLACK
6
CONTINUOUS
10
109.375
20
-105.347
11
109.316
21
-105.178
0
LINE
8
BLACK
6
CONTINUOUS
10
109.316
20
-105.178
11
109.295
21
-105
0
LINE
8
BLACK
6
CONTINUOUS
10
109.295
20
-105
11
109.316
21
-104.822
0
LINE
8
BLACK
6
CONTINUOUS
10
109.316
20
-104.822
11
109.375
21
-104.653
0
LINE
8
BLACK
6
CONTINUOUS
10
109.375
20
-104.653
11
109.47
21
-104.501
0
LINE
8
BLACK
6
CONTINUOUS
10
109.47
20
-104.501
11
109.597
21
-104.374
0
LINE
8
BLACK
6
CONTINUOUS
10
109.597
20
-104.374
11
109.748
21
-104.279
0
LINE
8
BLACK
6
CONTINUOUS
10
109.748
20
-104.279
11
109.918
21
-104.22
0
LINE
8
BLACK
6
CONTINUOUS
10
109.918
20
-104.22
11
110.096
21
-104.2
0
LINE
8
BLACK
6
CONTINUOUS
10
110.096
20
-104.2
11
110.274
21
-104.22
0
LINE
8
BLACK
6
CONTINUOUS
10
105.846
20
-97.9195
11
106.09
21
-97.9781
0
LINE
8
BLACK
6
CONTINUOUS
10
106.09
20
-97.9781
11
106.322
21
-98.0742
0
LINE
8
BLACK
6
CONTINUOUS
10
106.322
20
-98.0742
11
106.536
21
-98.2054
0
LINE
8
BLACK
6
CONTINUOUS
10
106.536
20
-98.2054
11
106.727
21
-98.3685
0
LINE
8
BLACK
6
CONTINUOUS
10
106.727
20
-98.3685
11
106.89
21
-98.5594
0
LINE
8
BLACK
6
CONTINUOUS
10
106.89
20
-98.5594
11
107.021
21
-98.7735
0
LINE
8
BLACK
6
CONTINUOUS
10
107.021
20
-98.7735
11
107.117
21
-99.0055
0
LINE
8
BLACK
6
CONTINUOUS
10
107.117
20
-99.0055
11
107.176
21
-99.2497
0
LINE
8
BLACK
6
CONTINUOUS
10
107.176
20
-99.2497
11
107.196
21
-99.5
0
LINE
8
BLACK
6
CONTINUOUS
10
107.196
20
-99.5
11
107.176
21
-99.7503
0
LINE
8
BLACK
6
CONTINUOUS
10
107.176
20
-99.7503
11
107.117
21
-99.9945
0
LINE
8
BLACK
6
CONTINUOUS
10
107.117
20
-99.9945
11
107.021
21
-100.226
0
LINE
8
BLACK
6
CONTINUOUS
10
107.021
20
-100.226
11
106.89
21
-100.441
0
LINE
8
BLACK
6
CONTINUOUS
10
106.89
20
-100.441
11
106.727
21
-100.632
0
LINE
8
BLACK
6
CONTINUOUS
10
106.727
20
-100.632
11
106.536
21
-100.795
0
LINE
8
BLACK
6
CONTINUOUS
10
106.536
20
-100.795
11
106.322
21
-100.926
0
LINE
8
BLACK
6
CONTINUOUS
10
106.322
20
-100.926
11
106.09
21
-101.022
0
LINE
8
BLACK
6
CONTINUOUS
10
106.09
20
-101.022
11
105.846
21
-101.081
0
LINE
8
BLACK
6
CONTINUOUS
10
105.846
20
-101.081
11
105.596
21
-101.1
0
LINE
8
BLACK
6
CONTINUOUS
10
105.596
20
-101.1
11
105.345
21
-101.081
0
LINE
8
BLACK
6
CONTINUOUS
10
105.345
20
-101.081
11
105.101
21
-101.022
0
LINE
8
BLACK
6
CONTINUOUS
10
105.101
20
-101.022
11
104.869
21
-100.926
0
LINE
8
BLACK
6
CONTINUOUS
10
104.869
20
-100.926
11
104.655
21
-100.795
0
LINE
8
BLACK
6
CONTINUOUS
10
104.655
20
-100.795
11
104.464
21
-100.632
0
LINE
8
BLACK
6
CONTINUOUS
10
104.464
20
-100.632
11
104.301
21
-100.441
0
LINE
8
BLACK
6
CONTINUOUS
10
104.301
20
-100.441
11
104.17
21
-100.226
0
LINE
8
BLACK
6
CONTINUOUS
10
104.17
20
-100.226
11
104.074
21
-99.9945
0
LINE
8
BLACK
6
CONTINUOUS
10
104.074
20
-99.9945
11
104.015
21
-99.7503
0
LINE
8
BLACK
6
CONTINUOUS
10
104.015
20
-99.7503
11
103.995
21
-99.5
0
LINE
8
BLACK
6
CONTINUOUS
10
103.995
20
-99.5
11
104.015
21
-99.2497
0
LINE
8
BLACK
6
CONTINUOUS
10
104.015
20
-99.2497
11
104.074
21
-99.0055
0
LINE
8
BLACK
6
CONTINUOUS
10
104.074
20
-99.0055
11
104.17
21
-98.7735
0
LINE
8
BLACK
6
CONTINUOUS
10
104.17
20
-98.7735
11
104.301
21
-98.5594
0
LINE
8
BLACK
6
CONTINUOUS
10
104.301
20
-98.5594
11
104.464
21
-98.3685
0
LINE
8
BLACK
6
CONTINUOUS
10
104.464
20
-98.3685
11
104.655
21
-98.2054
0
LINE
8
BLACK
6
CONTINUOUS
10
104.655
20
-98.2054
11
104.869
21
-98.0742
0
LINE
8
BLACK
6
CONTINUOUS
10
104.869
20
-98.0742
11
105.101
21
-97.9781
0
LINE
8
BLACK
6
CONTINUOUS
10
105.101
20
-97.9781
11
105.345
21
-97.9195
0
LINE
8
BLACK
6
CONTINUOUS
10
105.345
20
-97.9195
11
105.596
21
-97.8998
0
LINE
8
BLACK
6
CONTINUOUS
10
105.596
20
-97.8998
11
105.846
21
-97.9195
0
LINE
8
BLACK
6
CONTINUOUS
10
133.91
20
-94.0665
11
133.981
21
-94.1139
0
LINE
8
BLACK
6
CONTINUOUS
10
133.981
20
-94.1139
11
134.028
21
-94.1849
0
LINE
8
BLACK
6
CONTINUOUS
10
134.028
20
-94.1849
11
134.045
21
-94.2686
0
LINE
8
BLACK
6
CONTINUOUS
10
134.045
20
-94.2686
11
134.045
21
-94.7061
0
LINE
8
BLACK
6
CONTINUOUS
10
134.045
20
-94.7061
11
134.028
21
-94.7898
0
LINE
8
BLACK
6
CONTINUOUS
10
134.028
20
-94.7898
11
133.981
21
-94.8608
0
LINE
8
BLACK
6
CONTINUOUS
10
133.981
20
-94.8608
11
133.91
21
-94.9082
0
LINE
8
BLACK
6
CONTINUOUS
10
133.91
20
-94.9082
11
133.826
21
-94.9248
0
LINE
8
BLACK
6
CONTINUOUS
10
133.826
20
-94.9248
11
133.314
21
-94.9248
0
LINE
8
BLACK
6
CONTINUOUS
10
133.314
20
-94.9248
11
133.23
21
-94.9082
0
LINE
8
BLACK
6
CONTINUOUS
10
133.23
20
-94.9082
11
133.159
21
-94.8608
0
LINE
8
BLACK
6
CONTINUOUS
10
133.159
20
-94.8608
11
133.112
21
-94.7898
0
LINE
8
BLACK
6
CONTINUOUS
10
133.112
20
-94.7898
11
133.095
21
-94.7061
0
LINE
8
BLACK
6
CONTINUOUS
10
133.095
20
-94.7061
11
133.095
21
-94.2686
0
LINE
8
BLACK
6
CONTINUOUS
10
133.095
20
-94.2686
11
133.112
21
-94.1849
0
LINE
8
BLACK
6
CONTINUOUS
10
133.112
20
-94.1849
11
133.159
21
-94.1139
0
LINE
8
BLACK
6
CONTINUOUS
10
133.159
20
-94.1139
11
133.23
21
-94.0665
0
LINE
8
BLACK
6
CONTINUOUS
10
133.23
20
-94.0665
11
133.314
21
-94.0498
0
LINE
8
BLACK
6
CONTINUOUS
10
133.314
20
-94.0498
11
133.826
21
-94.0498
0
LINE
8
BLACK
6
CONTINUOUS
10
133.826
20
-94.0498
11
133.91
21
-94.0665
0
LINE
8
BLACK
6
CONTINUOUS
10
143.91
20
-94.0665
11
143.981
21
-94.1139
0
LINE
8
BLACK
6
CONTINUOUS
10
143.981
20
-94.1139
11
144.028
21
-94.1849
0
LINE
8
BLACK
6
CONTINUOUS
10
144.028
20
-94.1849
11
144.045
21
-94.2686
0
LINE
8
BLACK
6
CONTINUOUS
10
144.045
20
-94.2686
11
144.045
21
-94.7061
0
LINE
8
BLACK
6
CONTINUOUS
10
144.045
20
-94.7061
11
144.028
21
-94.7898
0
LINE
8
BLACK
6
CONTINUOUS
10
144.028
20
-94.7898
11
143.981
21
-94.8608
0
LINE
8
BLACK
6
CONTINUOUS
10
143.981
20
-94.8608
11
143.91
21
-94.9082
0
LINE
8
BLACK
6
CONTINUOUS
10
143.91
20
-94.9082
11
143.826
21
-94.9248
0
LINE
8
BLACK
6
CONTINUOUS
10
143.826
20
-94.9248
11
143.314
21
-94.9248
0
LINE
8
BLACK
6
CONTINUOUS
10
143.314
20
-94.9248
11
143.23
21
-94.9082
0
LINE
8
BLACK
6
CONTINUOUS
10
143.23
20
-94.9082
11
143.159
21
-94.8608
0
LINE
8
BLACK
6
CONTINUOUS
10
143.159
20
-94.8608
11
143.112
21
-94.7898
0
LINE
8
BLACK
6
CONTINUOUS
10
143.112
20
-94.7898
11
143.095
21
-94.7061
0
LINE
8
BLACK
6
CONTINUOUS
10
143.095
20
-94.7061
11
143.095
21
-94.2686
0
LINE
8
BLACK
6
CONTINUOUS
10
143.095
20
-94.2686
11
143.112
21
-94.1849
0
LINE
8
BLACK
6
CONTINUOUS
10
143.112
20
-94.1849
11
143.159
21
-94.1139
0
LINE
8
BLACK
6
CONTINUOUS
10
143.159
20
-94.1139
11
143.23
21
-94.0665
0
LINE
8
BLACK
6
CONTINUOUS
10
143.23
20
-94.0665
11
143.314
21
-94.0498
0
LINE
8
BLACK
6
CONTINUOUS
10
143.314
20
-94.0498
11
143.826
21
-94.0498
0
LINE
8
BLACK
6
CONTINUOUS
10
143.826
20
-94.0498
11
143.91
21
-94.0665
0
LINE
8
BLACK
6
CONTINUOUS
10
152.34
20
-94.0542
11
152.411
21
-94.1016
0
LINE
8
BLACK
6
CONTINUOUS
10
152.411
20
-94.1016
11
152.458
21
-94.1725
0
LINE
8
BLACK
6
CONTINUOUS
10
152.458
20
-94.1725
11
152.475
21
-94.2562
0
LINE
8
BLACK
6
CONTINUOUS
10
152.475
20
-94.2562
11
152.475
21
-94.6937
0
LINE
8
BLACK
6
CONTINUOUS
10
152.475
20
-94.6937
11
152.458
21
-94.7775
0
LINE
8
BLACK
6
CONTINUOUS
10
152.458
20
-94.7775
11
152.411
21
-94.8484
0
LINE
8
BLACK
6
CONTINUOUS
10
152.411
20
-94.8484
11
152.34
21
-94.8958
0
LINE
8
BLACK
6
CONTINUOUS
10
152.34
20
-94.8958
11
152.256
21
-94.9125
0
LINE
8
BLACK
6
CONTINUOUS
10
152.256
20
-94.9125
11
151.744
21
-94.9125
0
LINE
8
BLACK
6
CONTINUOUS
10
151.744
20
-94.9125
11
151.66
21
-94.8958
0
LINE
8
BLACK
6
CONTINUOUS
10
151.66
20
-94.8958
11
151.589
21
-94.8484
0
LINE
8
BLACK
6
CONTINUOUS
10
151.589
20
-94.8484
11
151.542
21
-94.7775
0
LINE
8
BLACK
6
CONTINUOUS
10
151.542
20
-94.7775
11
151.525
21
-94.6937
0
LINE
8
BLACK
6
CONTINUOUS
10
151.525
20
-94.6937
11
151.525
21
-94.2562
0
LINE
8
BLACK
6
CONTINUOUS
10
151.525
20
-94.2562
11
151.542
21
-94.1725
0
LINE
8
BLACK
6
CONTINUOUS
10
151.542
20
-94.1725
11
151.589
21
-94.1016
0
LINE
8
BLACK
6
CONTINUOUS
10
151.589
20
-94.1016
11
151.66
21
-94.0542
0
LINE
8
BLACK
6
CONTINUOUS
10
151.66
20
-94.0542
11
151.744
21
-94.0375
0
LINE
8
BLACK
6
CONTINUOUS
10
151.744
20
-94.0375
11
152.256
21
-94.0375
0
LINE
8
BLACK
6
CONTINUOUS
10
152.256
20
-94.0375
11
152.34
21
-94.0542
0
LINE
8
BLACK
6
CONTINUOUS
10
113.9
20
-93.4
11
112.5
21
-93.4
0
LINE
8
BLACK
6
CONTINUOUS
10
112.5
20
-93.4
11
112.5
21
-92
0
LINE
8
BLACK
6
CONTINUOUS
10
112.5
20
-92
11
113.9
21
-92
0
LINE
8
BLACK
6
CONTINUOUS
10
113.9
20
-92
11
113.9
21
-93.4
0
LINE
8
BLACK
6
CONTINUOUS
10
117.15
20
-93.4
11
115.75
21
-93.4
0
LINE
8
BLACK
6
CONTINUOUS
10
115.75
20
-93.4
11
115.75
21
-92
0
LINE
8
BLACK
6
CONTINUOUS
10
115.75
20
-92
11
117.15
21
-92
0
LINE
8
BLACK
6
CONTINUOUS
10
117.15
20
-92
11
117.15
21
-93.4
0
LINE
8
BLACK
6
CONTINUOUS
10
133.91
20
-92.4915
11
133.981
21
-92.5389
0
LINE
8
BLACK
6
CONTINUOUS
10
133.981
20
-92.5389
11
134.028
21
-92.6099
0
LINE
8
BLACK
6
CONTINUOUS
10
134.028
20
-92.6099
11
134.045
21
-92.6936
0
LINE
8
BLACK
6
CONTINUOUS
10
134.045
20
-92.6936
11
134.045
21
-93.1311
0
LINE
8
BLACK
6
CONTINUOUS
10
134.045
20
-93.1311
11
134.028
21
-93.2148
0
LINE
8
BLACK
6
CONTINUOUS
10
134.028
20
-93.2148
11
133.981
21
-93.2858
0
LINE
8
BLACK
6
CONTINUOUS
10
133.981
20
-93.2858
11
133.91
21
-93.3332
0
LINE
8
BLACK
6
CONTINUOUS
10
133.91
20
-93.3332
11
133.826
21
-93.3498
0
LINE
8
BLACK
6
CONTINUOUS
10
133.826
20
-93.3498
11
133.314
21
-93.3498
0
LINE
8
BLACK
6
CONTINUOUS
10
133.314
20
-93.3498
11
133.23
21
-93.3332
0
LINE
8
BLACK
6
CONTINUOUS
10
133.23
20
-93.3332
11
133.159
21
-93.2858
0
LINE
8
BLACK
6
CONTINUOUS
10
133.159
20
-93.2858
11
133.112
21
-93.2148
0
LINE
8
BLACK
6
CONTINUOUS
10
133.112
20
-93.2148
11
133.095
21
-93.1311
0
LINE
8
BLACK
6
CONTINUOUS
10
133.095
20
-93.1311
11
133.095
21
-92.6936
0
LINE
8
BLACK
6
CONTINUOUS
10
133.095
20
-92.6936
11
133.112
21
-92.6099
0
LINE
8
BLACK
6
CONTINUOUS
10
133.112
20
-92.6099
11
133.159
21
-92.5389
0
LINE
8
BLACK
6
CONTINUOUS
10
133.159
20
-92.5389
11
133.23
21
-92.4915
0
LINE
8
BLACK
6
CONTINUOUS
10
133.23
20
-92.4915
11
133.314
21
-92.4748
0
LINE
8
BLACK
6
CONTINUOUS
10
133.314
20
-92.4748
11
133.826
21
-92.4748
0
LINE
8
BLACK
6
CONTINUOUS
10
133.826
20
-92.4748
11
133.91
21
-92.4915
0
LINE
8
BLACK
6
CONTINUOUS
10
143.91
20
-92.4915
11
143.981
21
-92.5389
0
LINE
8
BLACK
6
CONTINUOUS
10
143.981
20
-92.5389
11
144.028
21
-92.6099
0
LINE
8
BLACK
6
CONTINUOUS
10
144.028
20
-92.6099
11
144.045
21
-92.6936
0
LINE
8
BLACK
6
CONTINUOUS
10
144.045
20
-92.6936
11
144.045
21
-93.1311
0
LINE
8
BLACK
6
CONTINUOUS
10
144.045
20
-93.1311
11
144.028
21
-93.2148
0
LINE
8
BLACK
6
CONTINUOUS
10
144.028
20
-93.2148
11
143.981
21
-93.2858
0
LINE
8
BLACK
6
CONTINUOUS
10
143.981
20
-93.2858
11
143.91
21
-93.3332
0
LINE
8
BLACK
6
CONTINUOUS
10
143.91
20
-93.3332
11
143.826
21
-93.3498
0
LINE
8
BLACK
6
CONTINUOUS
10
143.826
20
-93.3498
11
143.314
21
-93.3498
0
LINE
8
BLACK
6
CONTINUOUS
10
143.314
20
-93.3498
11
143.23
21
-93.3332
0
LINE
8
BLACK
6
CONTINUOUS
10
143.23
20
-93.3332
11
143.159
21
-93.2858
0
LINE
8
BLACK
6
CONTINUOUS
10
143.159
20
-93.2858
11
143.112
21
-93.2148
0
LINE
8
BLACK
6
CONTINUOUS
10
143.112
20
-93.2148
11
143.095
21
-93.1311
0
LINE
8
BLACK
6
CONTINUOUS
10
143.095
20
-93.1311
11
143.095
21
-92.6936
0
LINE
8
BLACK
6
CONTINUOUS
10
143.095
20
-92.6936
11
143.112
21
-92.6099
0
LINE
8
BLACK
6
CONTINUOUS
10
143.112
20
-92.6099
11
143.159
21
-92.5389
0
LINE
8
BLACK
6
CONTINUOUS
10
143.159
20
-92.5389
11
143.23
21
-92.4915
0
LINE
8
BLACK
6
CONTINUOUS
10
143.23
20
-92.4915
11
143.314
21
-92.4748
0
LINE
8
BLACK
6
CONTINUOUS
10
143.314
20
-92.4748
11
143.826
21
-92.4748
0
LINE
8
BLACK
6
CONTINUOUS
10
143.826
20
-92.4748
11
143.91
21
-92.4915
0
LINE
8
BLACK
6
CONTINUOUS
10
152.34
20
-92.4792
11
152.411
21
-92.5266
0
LINE
8
BLACK
6
CONTINUOUS
10
152.411
20
-92.5266
11
152.458
21
-92.5975
0
LINE
8
BLACK
6
CONTINUOUS
10
152.458
20
-92.5975
11
152.475
21
-92.6812
0
LINE
8
BLACK
6
CONTINUOUS
10
152.475
20
-92.6812
11
152.475
21
-93.1187
0
LINE
8
BLACK
6
CONTINUOUS
10
152.475
20
-93.1187
11
152.458
21
-93.2025
0
LINE
8
BLACK
6
CONTINUOUS
10
152.458
20
-93.2025
11
152.411
21
-93.2734
0
LINE
8
BLACK
6
CONTINUOUS
10
152.411
20
-93.2734
11
152.34
21
-93.3208
0
LINE
8
BLACK
6
CONTINUOUS
10
152.34
20
-93.3208
11
152.256
21
-93.3375
0
LINE
8
BLACK
6
CONTINUOUS
10
152.256
20
-93.3375
11
151.744
21
-93.3375
0
LINE
8
BLACK
6
CONTINUOUS
10
151.744
20
-93.3375
11
151.66
21
-93.3208
0
LINE
8
BLACK
6
CONTINUOUS
10
151.66
20
-93.3208
11
151.589
21
-93.2734
0
LINE
8
BLACK
6
CONTINUOUS
10
151.589
20
-93.2734
11
151.542
21
-93.2025
0
LINE
8
BLACK
6
CONTINUOUS
10
151.542
20
-93.2025
11
151.525
21
-93.1187
0
LINE
8
BLACK
6
CONTINUOUS
10
151.525
20
-93.1187
11
151.525
21
-92.6812
0
LINE
8
BLACK
6
CONTINUOUS
10
151.525
20
-92.6812
11
151.542
21
-92.5975
0
LINE
8
BLACK
6
CONTINUOUS
10
151.542
20
-92.5975
11
151.589
21
-92.5266
0
LINE
8
BLACK
6
CONTINUOUS
10
151.589
20
-92.5266
11
151.66
21
-92.4792
0
LINE
8
BLACK
6
CONTINUOUS
10
151.66
20
-92.4792
11
151.744
21
-92.4625
0
LINE
8
BLACK
6
CONTINUOUS
10
151.744
20
-92.4625
11
152.256
21
-92.4625
0
LINE
8
BLACK
6
CONTINUOUS
10
152.256
20
-92.4625
11
152.34
21
-92.4792
0
LINE
8
BLACK
6
CONTINUOUS
10
105.486
20
-87.2425
11
105.803
21
-87.3176
0
LINE
8
BLACK
6
CONTINUOUS
10
105.803
20
-87.3176
11
106.109
21
-87.429
0
LINE
8
BLACK
6
CONTINUOUS
10
106.109
20
-87.429
11
106.4
21
-87.5751
0
LINE
8
BLACK
6
CONTINUOUS
10
106.4
20
-87.5751
11
106.672
21
-87.7541
0
LINE
8
BLACK
6
CONTINUOUS
10
106.672
20
-87.7541
11
106.921
21
-87.9634
0
LINE
8
BLACK
6
CONTINUOUS
10
106.921
20
-87.9634
11
107.145
21
-88.2002
0
LINE
8
BLACK
6
CONTINUOUS
10
107.145
20
-88.2002
11
107.339
21
-88.4614
0
LINE
8
BLACK
6
CONTINUOUS
10
107.339
20
-88.4614
11
107.502
21
-88.7434
0
LINE
8
BLACK
6
CONTINUOUS
10
107.502
20
-88.7434
11
107.631
21
-89.0423
0
LINE
8
BLACK
6
CONTINUOUS
10
107.631
20
-89.0423
11
107.725
21
-89.3543
0
LINE
8
BLACK
6
CONTINUOUS
10
107.725
20
-89.3543
11
107.781
21
-89.6749
0
LINE
8
BLACK
6
CONTINUOUS
10
107.781
20
-89.6749
11
107.8
21
-90
0
LINE
8
BLACK
6
CONTINUOUS
10
107.8
20
-90
11
107.781
21
-90.3251
0
LINE
8
BLACK
6
CONTINUOUS
10
107.781
20
-90.3251
11
107.725
21
-90.6457
0
LINE
8
BLACK
6
CONTINUOUS
10
107.725
20
-90.6457
11
107.631
21
-90.9577
0
LINE
8
BLACK
6
CONTINUOUS
10
107.631
20
-90.9577
11
107.502
21
-91.2566
0
LINE
8
BLACK
6
CONTINUOUS
10
107.502
20
-91.2566
11
107.339
21
-91.5386
0
LINE
8
BLACK
6
CONTINUOUS
10
107.339
20
-91.5386
11
107.145
21
-91.7998
0
LINE
8
BLACK
6
CONTINUOUS
10
107.145
20
-91.7998
11
106.921
21
-92.0366
0
LINE
8
BLACK
6
CONTINUOUS
10
106.921
20
-92.0366
11
106.672
21
-92.2459
0
LINE
8
BLACK
6
CONTINUOUS
10
106.672
20
-92.2459
11
106.4
21
-92.4249
0
LINE
8
BLACK
6
CONTINUOUS
10
106.4
20
-92.4249
11
106.109
21
-92.571
0
LINE
8
BLACK
6
CONTINUOUS
10
106.109
20
-92.571
11
105.803
21
-92.6824
0
LINE
8
BLACK
6
CONTINUOUS
10
105.803
20
-92.6824
11
105.486
21
-92.7575
0
LINE
8
BLACK
6
CONTINUOUS
10
105.486
20
-92.7575
11
105.163
21
-92.7953
0
LINE
8
BLACK
6
CONTINUOUS
10
105.163
20
-92.7953
11
104.837
21
-92.7953
0
LINE
8
BLACK
6
CONTINUOUS
10
104.837
20
-92.7953
11
104.514
21
-92.7575
0
LINE
8
BLACK
6
CONTINUOUS
10
104.514
20
-92.7575
11
104.197
21
-92.6824
0
LINE
8
BLACK
6
CONTINUOUS
10
104.197
20
-92.6824
11
103.891
21
-92.571
0
LINE
8
BLACK
6
CONTINUOUS
10
103.891
20
-92.571
11
103.6
21
-92.4249
0
LINE
8
BLACK
6
CONTINUOUS
10
103.6
20
-92.4249
11
103.328
21
-92.2459
0
LINE
8
BLACK
6
CONTINUOUS
10
103.328
20
-92.2459
11
103.079
21
-92.0366
0
LINE
8
BLACK
6
CONTINUOUS
10
103.079
20
-92.0366
11
102.855
21
-91.7998
0
LINE
8
BLACK
6
CONTINUOUS
10
102.855
20
-91.7998
11
102.661
21
-91.5386
0
LINE
8
BLACK
6
CONTINUOUS
10
102.661
20
-91.5386
11
102.498
21
-91.2566
0
LINE
8
BLACK
6
CONTINUOUS
10
102.498
20
-91.2566
11
102.369
21
-90.9577
0
LINE
8
BLACK
6
CONTINUOUS
10
102.369
20
-90.9577
11
102.275
21
-90.6457
0
LINE
8
BLACK
6
CONTINUOUS
10
102.275
20
-90.6457
11
102.219
21
-90.3251
0
LINE
8
BLACK
6
CONTINUOUS
10
102.219
20
-90.3251
11
102.2
21
-90
0
LINE
8
BLACK
6
CONTINUOUS
10
102.2
20
-90
11
102.219
21
-89.6749
0
LINE
8
BLACK
6
CONTINUOUS
10
102.219
20
-89.6749
11
102.275
21
-89.3543
0
LINE
8
BLACK
6
CONTINUOUS
10
102.275
20
-89.3543
11
102.369
21
-89.0423
0
LINE
8
BLACK
6
CONTINUOUS
10
102.369
20
-89.0423
11
102.498
21
-88.7434
0
LINE
8
BLACK
6
CONTINUOUS
10
102.498
20
-88.7434
11
102.661
21
-88.4614
0
LINE
8
BLACK
6
CONTINUOUS
10
102.661
20
-88.4614
11
102.855
21
-88.2002
0
LINE
8
BLACK
6
CONTINUOUS
10
102.855
20
-88.2002
11
103.079
21
-87.9634
0
LINE
8
BLACK
6
CONTINUOUS
10
103.079
20
-87.9634
11
103.328
21
-87.7541
0
LINE
8
BLACK
6
CONTINUOUS
10
103.328
20
-87.7541
11
103.6
21
-87.5751
0
LINE
8
BLACK
6
CONTINUOUS
10
103.6
20
-87.5751
11
103.891
21
-87.429
0
LINE
8
BLACK
6
CONTINUOUS
10
103.891
20
-87.429
11
104.197
21
-87.3176
0
LINE
8
BLACK
6
CONTINUOUS
10
104.197
20
-87.3176
11
104.514
21
-87.2425
0
LINE
8
BLACK
6
CONTINUOUS
10
104.514
20
-87.2425
11
104.837
21
-87.2047
0
LINE
8
BLACK
6
CONTINUOUS
10
104.837
20
-87.2047
11
105.163
21
-87.2047
0
LINE
8
BLACK
6
CONTINUOUS
10
105.163
20
-87.2047
11
105.486
21
-87.2425
0
LINE
8
BLACK
6
CONTINUOUS
10
181.486
20
-87.2425
11
181.803
21
-87.3176
0
LINE
8
BLACK
6
CONTINUOUS
10
181.803
20
-87.3176
11
182.109
21
-87.429
0
LINE
8
BLACK
6
CONTINUOUS
10
182.109
20
-87.429
11
182.4
21
-87.5751
0
LINE
8
BLACK
6
CONTINUOUS
10
182.4
20
-87.5751
11
182.672
21
-87.7541
0
LINE
8
BLACK
6
CONTINUOUS
10
182.672
20
-87.7541
11
182.921
21
-87.9634
0
LINE
8
BLACK
6
CONTINUOUS
10
182.921
20
-87.9634
11
183.145
21
-88.2002
0
LINE
8
BLACK
6
CONTINUOUS
10
183.145
20
-88.2002
11
183.339
21
-88.4614
0
LINE
8
BLACK
6
CONTINUOUS
10
183.339
20
-88.4614
11
183.502
21
-88.7434
0
LINE
8
BLACK
6
CONTINUOUS
10
183.502
20
-88.7434
11
183.631
21
-89.0423
0
LINE
8
BLACK
6
CONTINUOUS
10
183.631
20
-89.0423
11
183.725
21
-89.3543
0
LINE
8
BLACK
6
CONTINUOUS
10
183.725
20
-89.3543
11
183.781
21
-89.6749
0
LINE
8
BLACK
6
CONTINUOUS
10
183.781
20
-89.6749
11
183.8
21
-90
0
LINE
8
BLACK
6
CONTINUOUS
10
183.8
20
-90
11
183.781
21
-90.3251
0
LINE
8
BLACK
6
CONTINUOUS
10
183.781
20
-90.3251
11
183.725
21
-90.6457
0
LINE
8
BLACK
6
CONTINUOUS
10
183.725
20
-90.6457
11
183.631
21
-90.9577
0
LINE
8
BLACK
6
CONTINUOUS
10
183.631
20
-90.9577
11
183.502
21
-91.2566
0
LINE
8
BLACK
6
CONTINUOUS
10
183.502
20
-91.2566
11
183.339
21
-91.5386
0
LINE
8
BLACK
6
CONTINUOUS
10
183.339
20
-91.5386
11
183.145
21
-91.7998
0
LINE
8
BLACK
6
CONTINUOUS
10
183.145
20
-91.7998
11
182.921
21
-92.0366
0
LINE
8
BLACK
6
CONTINUOUS
10
182.921
20
-92.0366
11
182.672
21
-92.2459
0
LINE
8
BLACK
6
CONTINUOUS
10
182.672
20
-92.2459
11
182.4
21
-92.4249
0
LINE
8
BLACK
6
CONTINUOUS
10
182.4
20
-92.4249
11
182.109
21
-92.571
0
LINE
8
BLACK
6
CONTINUOUS
10
182.109
20
-92.571
11
181.803
21
-92.6824
0
LINE
8
BLACK
6
CONTINUOUS
10
181.803
20
-92.6824
11
181.486
21
-92.7575
0
LINE
8
BLACK
6
CONTINUOUS
10
181.486
20
-92.7575
11
181.163
21
-92.7953
0
LINE
8
BLACK
6
CONTINUOUS
10
181.163
20
-92.7953
11
180.837
21
-92.7953
0
LINE
8
BLACK
6
CONTINUOUS
10
180.837
20
-92.7953
11
180.514
21
-92.7575
0
LINE
8
BLACK
6
CONTINUOUS
10
180.514
20
-92.7575
11
180.197
21
-92.6824
0
LINE
8
BLACK
6
CONTINUOUS
10
180.197
20
-92.6824
11
179.891
21
-92.571
0
LINE
8
BLACK
6
CONTINUOUS
10
179.891
20
-92.571
11
179.6
21
-92.4249
0
LINE
8
BLACK
6
CONTINUOUS
10
179.6
20
-92.4249
11
179.328
21
-92.2459
0
LINE
8
BLACK
6
CONTINUOUS
10
179.328
20
-92.2459
11
179.079
21
-92.0366
0
LINE
8
BLACK
6
CONTINUOUS
10
179.079
20
-92.0366
11
178.855
21
-91.7998
0
LINE
8
BLACK
6
CONTINUOUS
10
178.855
20
-91.7998
11
178.661
21
-91.5386
0
LINE
8
BLACK
6
CONTINUOUS
10
178.661
20
-91.5386
11
178.498
21
-91.2566
0
LINE
8
BLACK
6
CONTINUOUS
10
178.498
20
-91.2566
11
178.369
21
-90.9577
0
LINE
8
BLACK
6
CONTINUOUS
10
178.369
20
-90.9577
11
178.275
21
-90.6457
0
LINE
8
BLACK
6
CONTINUOUS
10
178.275
20
-90.6457
11
178.219
21
-90.3251
0
LINE
8
BLACK
6
CONTINUOUS
10
178.219
20
-90.3251
11
178.2
21
-90
0
LINE
8
BLACK
6
CONTINUOUS
10
178.2
20
-90
11
178.219
21
-89.6749
0
LINE
8
BLACK
6
CONTINUOUS
10
178.219
20
-89.6749
11
178.275
21
-89.3543
0
LINE
8
BLACK
6
CONTINUOUS
10
178.275
20
-89.3543
11
178.369
21
-89.0423
0
LINE
8
BLACK
6
CONTINUOUS
10
178.369
20
-89.0423
11
178.498
21
-88.7434
0
LINE
8
BLACK
6
CONTINUOUS
10
178.498
20
-88.7434
11
178.661
21
-88.4614
0
LINE
8
BLACK
6
CONTINUOUS
10
178.661
20
-88.4614
11
178.855
21
-88.2002
0
LINE
8
BLACK
6
CONTINUOUS
10
178.855
20
-88.2002
11
179.079
21
-87.9634
0
LINE
8
BLACK
6
CONTINUOUS
10
179.079
20
-87.9634
11
179.328
21
-87.7541
0
LINE
8
BLACK
6
CONTINUOUS
10
179.328
20
-87.7541
11
179.6
21
-87.5751
0
LINE
8
BLACK
6
CONTINUOUS
10
179.6
20
-87.5751
11
179.891
21
-87.429
0
LINE
8
BLACK
6
CONTINUOUS
10
179.891
20
-87.429
11
180.197
21
-87.3176
0
LINE
8
BLACK
6
CONTINUOUS
10
180.197
20
-87.3176
11
180.514
21
-87.2425
0
LINE
8
BLACK
6
CONTINUOUS
10
180.514
20
-87.2425
11
180.837
21
-87.2047
0
LINE
8
BLACK
6
CONTINUOUS
10
180.837
20
-87.2047
11
181.163
21
-87.2047
0
LINE
8
BLACK
6
CONTINUOUS
10
181.163
20
-87.2047
11
181.486
21
-87.2425
0
LINE
8
BLACK
6
CONTINUOUS
10
143.922
20
-90.6776
11
143.986
21
-90.7209
0
LINE
8
BLACK
6
CONTINUOUS
10
143.986
20
-90.7209
11
144.03
21
-90.7858
0
LINE
8
BLACK
6
CONTINUOUS
10
144.03
20
-90.7858
11
144.045
21
-90.8623
0
LINE
8
BLACK
6
CONTINUOUS
10
144.045
20
-90.8623
11
144.045
21
-91.2623
0
LINE
8
BLACK
6
CONTINUOUS
10
144.045
20
-91.2623
11
144.03
21
-91.3389
0
LINE
8
BLACK
6
CONTINUOUS
10
144.03
20
-91.3389
11
143.986
21
-91.4038
0
LINE
8
BLACK
6
CONTINUOUS
10
143.986
20
-91.4038
11
143.922
21
-91.4471
0
LINE
8
BLACK
6
CONTINUOUS
10
143.922
20
-91.4471
11
143.845
21
-91.4623
0
LINE
8
BLACK
6
CONTINUOUS
10
143.845
20
-91.4623
11
143.295
21
-91.4623
0
LINE
8
BLACK
6
CONTINUOUS
10
143.295
20
-91.4623
11
143.218
21
-91.4471
0
LINE
8
BLACK
6
CONTINUOUS
10
143.218
20
-91.4471
11
143.154
21
-91.4038
0
LINE
8
BLACK
6
CONTINUOUS
10
143.154
20
-91.4038
11
143.11
21
-91.3389
0
LINE
8
BLACK
6
CONTINUOUS
10
143.11
20
-91.3389
11
143.095
21
-91.2623
0
LINE
8
BLACK
6
CONTINUOUS
10
143.095
20
-91.2623
11
143.095
21
-90.8623
0
LINE
8
BLACK
6
CONTINUOUS
10
143.095
20
-90.8623
11
143.11
21
-90.7858
0
LINE
8
BLACK
6
CONTINUOUS
10
143.11
20
-90.7858
11
143.154
21
-90.7209
0
LINE
8
BLACK
6
CONTINUOUS
10
143.154
20
-90.7209
11
143.218
21
-90.6776
0
LINE
8
BLACK
6
CONTINUOUS
10
143.218
20
-90.6776
11
143.295
21
-90.6623
0
LINE
8
BLACK
6
CONTINUOUS
10
143.295
20
-90.6623
11
143.845
21
-90.6623
0
LINE
8
BLACK
6
CONTINUOUS
10
143.845
20
-90.6623
11
143.922
21
-90.6776
0
LINE
8
BLACK
6
CONTINUOUS
10
133.947
20
-90.6652
11
134.011
21
-90.7086
0
LINE
8
BLACK
6
CONTINUOUS
10
134.011
20
-90.7086
11
134.055
21
-90.7735
0
LINE
8
BLACK
6
CONTINUOUS
10
134.055
20
-90.7735
11
134.07
21
-90.85
0
LINE
8
BLACK
6
CONTINUOUS
10
134.07
20
-90.85
11
134.07
21
-91.25
0
LINE
8
BLACK
6
CONTINUOUS
10
134.07
20
-91.25
11
134.055
21
-91.3265
0
LINE
8
BLACK
6
CONTINUOUS
10
134.055
20
-91.3265
11
134.011
21
-91.3914
0
LINE
8
BLACK
6
CONTINUOUS
10
134.011
20
-91.3914
11
133.947
21
-91.4348
0
LINE
8
BLACK
6
CONTINUOUS
10
133.947
20
-91.4348
11
133.87
21
-91.45
0
LINE
8
BLACK
6
CONTINUOUS
10
133.87
20
-91.45
11
133.32
21
-91.45
0
LINE
8
BLACK
6
CONTINUOUS
10
133.32
20
-91.45
11
133.243
21
-91.4348
0
LINE
8
BLACK
6
CONTINUOUS
10
133.243
20
-91.4348
11
133.179
21
-91.3914
0
LINE
8
BLACK
6
CONTINUOUS
10
133.179
20
-91.3914
11
133.135
21
-91.3265
0
LINE
8
BLACK
6
CONTINUOUS
10
133.135
20
-91.3265
11
133.12
21
-91.25
0
LINE
8
BLACK
6
CONTINUOUS
10
133.12
20
-91.25
11
133.12
21
-90.85
0
LINE
8
BLACK
6
CONTINUOUS
10
133.12
20
-90.85
11
133.135
21
-90.7735
0
LINE
8
BLACK
6
CONTINUOUS
10
133.135
20
-90.7735
11
133.179
21
-90.7086
0
LINE
8
BLACK
6
CONTINUOUS
10
133.179
20
-90.7086
11
133.243
21
-90.6652
0
LINE
8
BLACK
6
CONTINUOUS
10
133.243
20
-90.6652
11
133.32
21
-90.65
0
LINE
8
BLACK
6
CONTINUOUS
10
133.32
20
-90.65
11
133.87
21
-90.65
0
LINE
8
BLACK
6
CONTINUOUS
10
133.87
20
-90.65
11
133.947
21
-90.6652
0
LINE
8
BLACK
6
CONTINUOUS
10
152.352
20
-90.5652
11
152.416
21
-90.6086
0
LINE
8
BLACK
6
CONTINUOUS
10
152.416
20
-90.6086
11
152.46
21
-90.6735
0
LINE
8
BLACK
6
CONTINUOUS
10
152.46
20
-90.6735
11
152.475
21
-90.75
0
LINE
8
BLACK
6
CONTINUOUS
10
152.475
20
-90.75
11
152.475
21
-91.15
0
LINE
8
BLACK
6
CONTINUOUS
10
152.475
20
-91.15
11
152.46
21
-91.2265
0
LINE
8
BLACK
6
CONTINUOUS
10
152.46
20
-91.2265
11
152.416
21
-91.2914
0
LINE
8
BLACK
6
CONTINUOUS
10
152.416
20
-91.2914
11
152.352
21
-91.3348
0
LINE
8
BLACK
6
CONTINUOUS
10
152.352
20
-91.3348
11
152.275
21
-91.35
0
LINE
8
BLACK
6
CONTINUOUS
10
152.275
20
-91.35
11
151.725
21
-91.35
0
LINE
8
BLACK
6
CONTINUOUS
10
151.725
20
-91.35
11
151.648
21
-91.3348
0
LINE
8
BLACK
6
CONTINUOUS
10
151.648
20
-91.3348
11
151.584
21
-91.2914
0
LINE
8
BLACK
6
CONTINUOUS
10
151.584
20
-91.2914
11
151.54
21
-91.2265
0
LINE
8
BLACK
6
CONTINUOUS
10
151.54
20
-91.2265
11
151.525
21
-91.15
0
LINE
8
BLACK
6
CONTINUOUS
10
151.525
20
-91.15
11
151.525
21
-90.75
0
LINE
8
BLACK
6
CONTINUOUS
10
151.525
20
-90.75
11
151.54
21
-90.6735
0
LINE
8
BLACK
6
CONTINUOUS
10
151.54
20
-90.6735
11
151.584
21
-90.6086
0
LINE
8
BLACK
6
CONTINUOUS
10
151.584
20
-90.6086
11
151.648
21
-90.5652
0
LINE
8
BLACK
6
CONTINUOUS
10
151.648
20
-90.5652
11
151.725
21
-90.55
0
LINE
8
BLACK
6
CONTINUOUS
10
151.725
20
-90.55
11
152.275
21
-90.55
0
LINE
8
BLACK
6
CONTINUOUS
10
152.275
20
-90.55
11
152.352
21
-90.5652
0
LINE
8
BLACK
6
CONTINUOUS
10
113.43
20
-89.3922
11
113.569
21
-89.4651
0
LINE
8
BLACK
6
CONTINUOUS
10
113.569
20
-89.4651
11
113.687
21
-89.569
0
LINE
8
BLACK
6
CONTINUOUS
10
113.687
20
-89.569
11
113.776
21
-89.6979
0
LINE
8
BLACK
6
CONTINUOUS
10
113.776
20
-89.6979
11
113.831
21
-89.8444
0
LINE
8
BLACK
6
CONTINUOUS
10
113.831
20
-89.8444
11
113.85
21
-90
0
LINE
8
BLACK
6
CONTINUOUS
10
113.85
20
-90
11
113.831
21
-90.1556
0
LINE
8
BLACK
6
CONTINUOUS
10
113.831
20
-90.1556
11
113.776
21
-90.3021
0
LINE
8
BLACK
6
CONTINUOUS
10
113.776
20
-90.3021
11
113.687
21
-90.431
0
LINE
8
BLACK
6
CONTINUOUS
10
113.687
20
-90.431
11
113.569
21
-90.5349
0
LINE
8
BLACK
6
CONTINUOUS
10
113.569
20
-90.5349
11
113.43
21
-90.6078
0
LINE
8
BLACK
6
CONTINUOUS
10
113.43
20
-90.6078
11
113.278
21
-90.6453
0
LINE
8
BLACK
6
CONTINUOUS
10
113.278
20
-90.6453
11
113.122
21
-90.6453
0
LINE
8
BLACK
6
CONTINUOUS
10
113.122
20
-90.6453
11
112.97
21
-90.6078
0
LINE
8
BLACK
6
CONTINUOUS
10
112.97
20
-90.6078
11
112.831
21
-90.5349
0
LINE
8
BLACK
6
CONTINUOUS
10
112.831
20
-90.5349
11
112.713
21
-90.431
0
LINE
8
BLACK
6
CONTINUOUS
10
112.713
20
-90.431
11
112.624
21
-90.3021
0
LINE
8
BLACK
6
CONTINUOUS
10
112.624
20
-90.3021
11
112.569
21
-90.1556
0
LINE
8
BLACK
6
CONTINUOUS
10
112.569
20
-90.1556
11
112.55
21
-90
0
LINE
8
BLACK
6
CONTINUOUS
10
112.55
20
-90
11
112.569
21
-89.8444
0
LINE
8
BLACK
6
CONTINUOUS
10
112.569
20
-89.8444
11
112.624
21
-89.6979
0
LINE
8
BLACK
6
CONTINUOUS
10
112.624
20
-89.6979
11
112.713
21
-89.569
0
LINE
8
BLACK
6
CONTINUOUS
10
112.713
20
-89.569
11
112.831
21
-89.4651
0
LINE
8
BLACK
6
CONTINUOUS
10
112.831
20
-89.4651
11
112.97
21
-89.3922
0
LINE
8
BLACK
6
CONTINUOUS
10
112.97
20
-89.3922
11
113.122
21
-89.3547
0
LINE
8
BLACK
6
CONTINUOUS
10
113.122
20
-89.3547
11
113.278
21
-89.3547
0
LINE
8
BLACK
6
CONTINUOUS
10
113.278
20
-89.3547
11
113.43
21
-89.3922
0
LINE
8
BLACK
6
CONTINUOUS
10
116.78
20
-89.3922
11
116.919
21
-89.4651
0
LINE
8
BLACK
6
CONTINUOUS
10
116.919
20
-89.4651
11
117.037
21
-89.569
0
LINE
8
BLACK
6
CONTINUOUS
10
117.037
20
-89.569
11
117.126
21
-89.6979
0
LINE
8
BLACK
6
CONTINUOUS
10
117.126
20
-89.6979
11
117.181
21
-89.8444
0
LINE
8
BLACK
6
CONTINUOUS
10
117.181
20
-89.8444
11
117.2
21
-90
0
LINE
8
BLACK
6
CONTINUOUS
10
117.2
20
-90
11
117.181
21
-90.1556
0
LINE
8
BLACK
6
CONTINUOUS
10
117.181
20
-90.1556
11
117.126
21
-90.3021
0
LINE
8
BLACK
6
CONTINUOUS
10
117.126
20
-90.3021
11
117.037
21
-90.431
0
LINE
8
BLACK
6
CONTINUOUS
10
117.037
20
-90.431
11
116.919
21
-90.5349
0
LINE
8
BLACK
6
CONTINUOUS
10
116.919
20
-90.5349
11
116.78
21
-90.6078
0
LINE
8
BLACK
6
CONTINUOUS
10
116.78
20
-90.6078
11
116.628
21
-90.6453
0
LINE
8
BLACK
6
CONTINUOUS
10
116.628
20
-90.6453
11
116.472
21
-90.6453
0
LINE
8
BLACK
6
CONTINUOUS
10
116.472
20
-90.6453
11
116.32
21
-90.6078
0
LINE
8
BLACK
6
CONTINUOUS
10
116.32
20
-90.6078
11
116.181
21
-90.5349
0
LINE
8
BLACK
6
CONTINUOUS
10
116.181
20
-90.5349
11
116.063
21
-90.431
0
LINE
8
BLACK
6
CONTINUOUS
10
116.063
20
-90.431
11
115.974
21
-90.3021
0
LINE
8
BLACK
6
CONTINUOUS
10
115.974
20
-90.3021
11
115.919
21
-90.1556
0
LINE
8
BLACK
6
CONTINUOUS
10
115.919
20
-90.1556
11
115.9
21
-90
0
LINE
8
BLACK
6
CONTINUOUS
10
115.9
20
-90
11
115.919
21
-89.8444
0
LINE
8
BLACK
6
CONTINUOUS
10
115.919
20
-89.8444
11
115.974
21
-89.6979
0
LINE
8
BLACK
6
CONTINUOUS
10
115.974
20
-89.6979
11
116.063
21
-89.569
0
LINE
8
BLACK
6
CONTINUOUS
10
116.063
20
-89.569
11
116.181
21
-89.4651
0
LINE
8
BLACK
6
CONTINUOUS
10
116.181
20
-89.4651
11
116.32
21
-89.3922
0
LINE
8
BLACK
6
CONTINUOUS
10
116.32
20
-89.3922
11
116.472
21
-89.3547
0
LINE
8
BLACK
6
CONTINUOUS
10
116.472
20
-89.3547
11
116.628
21
-89.3547
0
LINE
8
BLACK
6
CONTINUOUS
10
116.628
20
-89.3547
11
116.78
21
-89.3922
0
LINE
8
BLACK
6
CONTINUOUS
10
143.922
20
-89.0276
11
143.986
21
-89.0709
0
LINE
8
BLACK
6
CONTINUOUS
10
143.986
20
-89.0709
11
144.03
21
-89.1358
0
LINE
8
BLACK
6
CONTINUOUS
10
144.03
20
-89.1358
11
144.045
21
-89.2123
0
LINE
8
BLACK
6
CONTINUOUS
10
144.045
20
-89.2123
11
144.045
21
-89.6123
0
LINE
8
BLACK
6
CONTINUOUS
10
144.045
20
-89.6123
11
144.03
21
-89.6889
0
LINE
8
BLACK
6
CONTINUOUS
10
144.03
20
-89.6889
11
143.986
21
-89.7538
0
LINE
8
BLACK
6
CONTINUOUS
10
143.986
20
-89.7538
11
143.922
21
-89.7971
0
LINE
8
BLACK
6
CONTINUOUS
10
143.922
20
-89.7971
11
143.845
21
-89.8123
0
LINE
8
BLACK
6
CONTINUOUS
10
143.845
20
-89.8123
11
143.295
21
-89.8123
0
LINE
8
BLACK
6
CONTINUOUS
10
143.295
20
-89.8123
11
143.218
21
-89.7971
0
LINE
8
BLACK
6
CONTINUOUS
10
143.218
20
-89.7971
11
143.154
21
-89.7538
0
LINE
8
BLACK
6
CONTINUOUS
10
143.154
20
-89.7538
11
143.11
21
-89.6889
0
LINE
8
BLACK
6
CONTINUOUS
10
143.11
20
-89.6889
11
143.095
21
-89.6123
0
LINE
8
BLACK
6
CONTINUOUS
10
143.095
20
-89.6123
11
143.095
21
-89.2123
0
LINE
8
BLACK
6
CONTINUOUS
10
143.095
20
-89.2123
11
143.11
21
-89.1358
0
LINE
8
BLACK
6
CONTINUOUS
10
143.11
20
-89.1358
11
143.154
21
-89.0709
0
LINE
8
BLACK
6
CONTINUOUS
10
143.154
20
-89.0709
11
143.218
21
-89.0276
0
LINE
8
BLACK
6
CONTINUOUS
10
143.218
20
-89.0276
11
143.295
21
-89.0123
0
LINE
8
BLACK
6
CONTINUOUS
10
143.295
20
-89.0123
11
143.845
21
-89.0123
0
LINE
8
BLACK
6
CONTINUOUS
10
143.845
20
-89.0123
11
143.922
21
-89.0276
0
LINE
8
BLACK
6
CONTINUOUS
10
133.947
20
-89.0152
11
134.011
21
-89.0586
0
LINE
8
BLACK
6
CONTINUOUS
10
134.011
20
-89.0586
11
134.055
21
-89.1235
0
LINE
8
BLACK
6
CONTINUOUS
10
134.055
20
-89.1235
11
134.07
21
-89.2
0
LINE
8
BLACK
6
CONTINUOUS
10
134.07
20
-89.2
11
134.07
21
-89.6
0
LINE
8
BLACK
6
CONTINUOUS
10
134.07
20
-89.6
11
134.055
21
-89.6765
0
LINE
8
BLACK
6
CONTINUOUS
10
134.055
20
-89.6765
11
134.011
21
-89.7414
0
LINE
8
BLACK
6
CONTINUOUS
10
134.011
20
-89.7414
11
133.947
21
-89.7848
0
LINE
8
BLACK
6
CONTINUOUS
10
133.947
20
-89.7848
11
133.87
21
-89.8
0
LINE
8
BLACK
6
CONTINUOUS
10
133.87
20
-89.8
11
133.32
21
-89.8
0
LINE
8
BLACK
6
CONTINUOUS
10
133.32
20
-89.8
11
133.243
21
-89.7848
0
LINE
8
BLACK
6
CONTINUOUS
10
133.243
20
-89.7848
11
133.179
21
-89.7414
0
LINE
8
BLACK
6
CONTINUOUS
10
133.179
20
-89.7414
11
133.135
21
-89.6765
0
LINE
8
BLACK
6
CONTINUOUS
10
133.135
20
-89.6765
11
133.12
21
-89.6
0
LINE
8
BLACK
6
CONTINUOUS
10
133.12
20
-89.6
11
133.12
21
-89.2
0
LINE
8
BLACK
6
CONTINUOUS
10
133.12
20
-89.2
11
133.135
21
-89.1235
0
LINE
8
BLACK
6
CONTINUOUS
10
133.135
20
-89.1235
11
133.179
21
-89.0586
0
LINE
8
BLACK
6
CONTINUOUS
10
133.179
20
-89.0586
11
133.243
21
-89.0152
0
LINE
8
BLACK
6
CONTINUOUS
10
133.243
20
-89.0152
11
133.32
21
-89
0
LINE
8
BLACK
6
CONTINUOUS
10
133.32
20
-89
11
133.87
21
-89
0
LINE
8
BLACK
6
CONTINUOUS
10
133.87
20
-89
11
133.947
21
-89.0152
0
LINE
8
BLACK
6
CONTINUOUS
10
152.352
20
-88.9152
11
152.416
21
-88.9586
0
LINE
8
BLACK
6
CONTINUOUS
10
152.416
20
-88.9586
11
152.46
21
-89.0235
0
LINE
8
BLACK
6
CONTINUOUS
10
152.46
20
-89.0235
11
152.475
21
-89.1
0
LINE
8
BLACK
6
CONTINUOUS
10
152.475
20
-89.1
11
152.475
21
-89.5
0
LINE
8
BLACK
6
CONTINUOUS
10
152.475
20
-89.5
11
152.46
21
-89.5765
0
LINE
8
BLACK
6
CONTINUOUS
10
152.46
20
-89.5765
11
152.416
21
-89.6414
0
LINE
8
BLACK
6
CONTINUOUS
10
152.416
20
-89.6414
11
152.352
21
-89.6848
0
LINE
8
BLACK
6
CONTINUOUS
10
152.352
20
-89.6848
11
152.275
21
-89.7
0
LINE
8
BLACK
6
CONTINUOUS
10
152.275
20
-89.7
11
151.725
21
-89.7
0
LINE
8
BLACK
6
CONTINUOUS
10
151.725
20
-89.7
11
151.648
21
-89.6848
0
LINE
8
BLACK
6
CONTINUOUS
10
151.648
20
-89.6848
11
151.584
21
-89.6414
0
LINE
8
BLACK
6
CONTINUOUS
10
151.584
20
-89.6414
11
151.54
21
-89.5765
0
LINE
8
BLACK
6
CONTINUOUS
10
151.54
20
-89.5765
11
151.525
21
-89.5
0
LINE
8
BLACK
6
CONTINUOUS
10
151.525
20
-89.5
11
151.525
21
-89.1
0
LINE
8
BLACK
6
CONTINUOUS
10
151.525
20
-89.1
11
151.54
21
-89.0235
0
LINE
8
BLACK
6
CONTINUOUS
10
151.54
20
-89.0235
11
151.584
21
-88.9586
0
LINE
8
BLACK
6
CONTINUOUS
10
151.584
20
-88.9586
11
151.648
21
-88.9152
0
LINE
8
BLACK
6
CONTINUOUS
10
151.648
20
-88.9152
11
151.725
21
-88.9
0
LINE
8
BLACK
6
CONTINUOUS
10
151.725
20
-88.9
11
152.275
21
-88.9
0
LINE
8
BLACK
6
CONTINUOUS
10
152.275
20
-88.9
11
152.352
21
-88.9152
0
LINE
8
BLACK
6
CONTINUOUS
10
113.9
20
-88
11
112.5
21
-88
0
LINE
8
BLACK
6
CONTINUOUS
10
112.5
20
-88
11
112.5
21
-86.6
0
LINE
8
BLACK
6
CONTINUOUS
10
112.5
20
-86.6
11
113.9
21
-86.6
0
LINE
8
BLACK
6
CONTINUOUS
10
113.9
20
-86.6
11
113.9
21
-88
0
LINE
8
BLACK
6
CONTINUOUS
10
117.15
20
-88
11
115.75
21
-88
0
LINE
8
BLACK
6
CONTINUOUS
10
115.75
20
-88
11
115.75
21
-86.6
0
LINE
8
BLACK
6
CONTINUOUS
10
115.75
20
-86.6
11
117.15
21
-86.6
0
LINE
8
BLACK
6
CONTINUOUS
10
117.15
20
-86.6
11
117.15
21
-88
  0
ENDSEC
  0
EOF
