%TF.GenerationSoftware,KiCad,Pcbnew,(6.0.10)*%
%TF.CreationDate,2023-01-02T14:56:33+01:00*%
%TF.ProjectId,roam,726f616d-2e6b-4696-9361-645f70636258,rev?*%
%TF.SameCoordinates,Original*%
%TF.FileFunction,Paste,Top*%
%TF.FilePolarity,Positive*%
%FSLAX46Y46*%
G04 Gerber Fmt 4.6, Leading zero omitted, Abs format (unit mm)*
G04 Created by KiCad (PCBNEW (6.0.10)) date 2023-01-02 14:56:33*
%MOMM*%
%LPD*%
G01*
G04 APERTURE LIST*
G04 Aperture macros list*
%AMRoundRect*
0 Rectangle with rounded corners*
0 $1 Rounding radius*
0 $2 $3 $4 $5 $6 $7 $8 $9 X,Y pos of 4 corners*
0 Add a 4 corners polygon primitive as box body*
4,1,4,$2,$3,$4,$5,$6,$7,$8,$9,$2,$3,0*
0 Add four circle primitives for the rounded corners*
1,1,$1+$1,$2,$3*
1,1,$1+$1,$4,$5*
1,1,$1+$1,$6,$7*
1,1,$1+$1,$8,$9*
0 Add four rect primitives between the rounded corners*
20,1,$1+$1,$2,$3,$4,$5,0*
20,1,$1+$1,$4,$5,$6,$7,0*
20,1,$1+$1,$6,$7,$8,$9,0*
20,1,$1+$1,$8,$9,$2,$3,0*%
%AMFreePoly0*
4,1,21,-0.300000,0.075000,-0.294291,0.103701,-0.278033,0.128033,-0.253701,0.144291,-0.225000,0.150000,0.225000,0.150000,0.253701,0.144291,0.278033,0.128033,0.294291,0.103701,0.300000,0.075000,0.300000,-0.075000,0.294291,-0.103701,0.278033,-0.128033,0.253701,-0.144291,0.225000,-0.150000,-0.225000,-0.150000,-0.253701,-0.144291,-0.278033,-0.128033,-0.294291,-0.103701,-0.300000,-0.075000,
-0.300000,0.075000,-0.300000,0.075000,$1*%
%AMFreePoly1*
4,1,21,-0.400000,0.050000,-0.396194,0.069134,-0.385355,0.085355,-0.369134,0.096194,-0.350000,0.100000,0.350000,0.100000,0.369134,0.096194,0.385355,0.085355,0.396194,0.069134,0.400000,0.050000,0.400000,-0.050000,0.396194,-0.069134,0.385355,-0.085355,0.369134,-0.096194,0.350000,-0.100000,-0.350000,-0.100000,-0.369134,-0.096194,-0.385355,-0.085355,-0.396194,-0.069134,-0.400000,-0.050000,
-0.400000,0.050000,-0.400000,0.050000,$1*%
%AMFreePoly2*
4,1,18,-0.350000,0.000000,-0.225000,0.125000,0.337500,0.125000,0.342284,0.124048,0.346339,0.121339,0.349048,0.117284,0.350000,0.112500,0.350000,-0.112500,0.349048,-0.117284,0.346339,-0.121339,0.342284,-0.124048,0.337500,-0.125000,-0.337500,-0.125000,-0.342284,-0.124048,-0.346339,-0.121339,-0.349048,-0.117284,-0.350000,-0.112500,-0.350000,0.000000,-0.350000,0.000000,$1*%
G04 Aperture macros list end*
%ADD10C,0.010000*%
%ADD11C,0.100000*%
%ADD12RoundRect,0.250000X-0.650000X0.325000X-0.650000X-0.325000X0.650000X-0.325000X0.650000X0.325000X0*%
%ADD13RoundRect,0.200000X0.275000X-0.200000X0.275000X0.200000X-0.275000X0.200000X-0.275000X-0.200000X0*%
%ADD14RoundRect,0.200000X-0.275000X0.200000X-0.275000X-0.200000X0.275000X-0.200000X0.275000X0.200000X0*%
%ADD15RoundRect,0.218750X-0.218750X-0.381250X0.218750X-0.381250X0.218750X0.381250X-0.218750X0.381250X0*%
%ADD16RoundRect,0.218750X0.256250X-0.218750X0.256250X0.218750X-0.256250X0.218750X-0.256250X-0.218750X0*%
%ADD17R,1.400000X1.200000*%
%ADD18R,0.400000X0.650000*%
%ADD19RoundRect,0.225000X-0.225000X-0.250000X0.225000X-0.250000X0.225000X0.250000X-0.225000X0.250000X0*%
%ADD20RoundRect,0.100000X-0.637500X-0.100000X0.637500X-0.100000X0.637500X0.100000X-0.637500X0.100000X0*%
%ADD21RoundRect,0.200000X-0.200000X-0.275000X0.200000X-0.275000X0.200000X0.275000X-0.200000X0.275000X0*%
%ADD22RoundRect,0.250000X-0.475000X0.250000X-0.475000X-0.250000X0.475000X-0.250000X0.475000X0.250000X0*%
%ADD23R,0.350000X0.300000*%
%ADD24R,0.300000X0.350000*%
%ADD25RoundRect,0.250000X0.275000X0.700000X-0.275000X0.700000X-0.275000X-0.700000X0.275000X-0.700000X0*%
%ADD26RoundRect,0.225000X0.250000X-0.225000X0.250000X0.225000X-0.250000X0.225000X-0.250000X-0.225000X0*%
%ADD27R,0.609600X0.228600*%
%ADD28RoundRect,0.135000X0.185000X-0.135000X0.185000X0.135000X-0.185000X0.135000X-0.185000X-0.135000X0*%
%ADD29RoundRect,0.200000X0.200000X0.275000X-0.200000X0.275000X-0.200000X-0.275000X0.200000X-0.275000X0*%
%ADD30R,2.700000X0.800000*%
%ADD31RoundRect,0.225000X0.225000X0.250000X-0.225000X0.250000X-0.225000X-0.250000X0.225000X-0.250000X0*%
%ADD32RoundRect,0.218750X0.218750X0.256250X-0.218750X0.256250X-0.218750X-0.256250X0.218750X-0.256250X0*%
%ADD33RoundRect,0.147500X-0.172500X0.147500X-0.172500X-0.147500X0.172500X-0.147500X0.172500X0.147500X0*%
%ADD34RoundRect,0.140000X-0.140000X-0.170000X0.140000X-0.170000X0.140000X0.170000X-0.140000X0.170000X0*%
%ADD35RoundRect,0.250000X0.475000X-0.250000X0.475000X0.250000X-0.475000X0.250000X-0.475000X-0.250000X0*%
%ADD36RoundRect,0.150000X-0.150000X0.820000X-0.150000X-0.820000X0.150000X-0.820000X0.150000X0.820000X0*%
%ADD37RoundRect,0.250000X-0.485000X0.300000X-0.485000X-0.300000X0.485000X-0.300000X0.485000X0.300000X0*%
%ADD38R,0.300000X0.600000*%
%ADD39FreePoly0,90.000000*%
%ADD40FreePoly1,0.000000*%
%ADD41FreePoly1,180.000000*%
%ADD42RoundRect,0.008100X-0.346900X-0.126900X0.346900X-0.126900X0.346900X0.126900X-0.346900X0.126900X0*%
%ADD43RoundRect,0.140000X0.170000X-0.140000X0.170000X0.140000X-0.170000X0.140000X-0.170000X-0.140000X0*%
%ADD44R,1.100000X0.200000*%
%ADD45R,1.000000X0.200000*%
%ADD46RoundRect,0.012500X0.337500X0.112500X-0.337500X0.112500X-0.337500X-0.112500X0.337500X-0.112500X0*%
%ADD47FreePoly2,180.000000*%
%ADD48RoundRect,0.012500X0.112500X-0.337500X0.112500X0.337500X-0.112500X0.337500X-0.112500X-0.337500X0*%
%ADD49RoundRect,0.012500X-0.337500X-0.112500X0.337500X-0.112500X0.337500X0.112500X-0.337500X0.112500X0*%
%ADD50RoundRect,0.012500X-0.112500X0.337500X-0.112500X-0.337500X0.112500X-0.337500X0.112500X0.337500X0*%
%ADD51RoundRect,0.225000X-0.250000X0.225000X-0.250000X-0.225000X0.250000X-0.225000X0.250000X0.225000X0*%
%ADD52RoundRect,0.250000X0.925000X-0.787500X0.925000X0.787500X-0.925000X0.787500X-0.925000X-0.787500X0*%
%ADD53R,1.500000X3.600000*%
%ADD54R,1.295400X0.508000*%
%ADD55R,0.508000X1.295400*%
%ADD56RoundRect,0.218750X0.218750X0.381250X-0.218750X0.381250X-0.218750X-0.381250X0.218750X-0.381250X0*%
%ADD57RoundRect,0.250000X-0.375000X-0.625000X0.375000X-0.625000X0.375000X0.625000X-0.375000X0.625000X0*%
%ADD58RoundRect,0.150000X-0.587500X-0.150000X0.587500X-0.150000X0.587500X0.150000X-0.587500X0.150000X0*%
%ADD59R,2.997200X0.990600*%
%ADD60R,1.092200X0.990600*%
%ADD61RoundRect,0.150000X-0.512500X-0.150000X0.512500X-0.150000X0.512500X0.150000X-0.512500X0.150000X0*%
%ADD62RoundRect,0.250000X-0.250000X-0.475000X0.250000X-0.475000X0.250000X0.475000X-0.250000X0.475000X0*%
%ADD63RoundRect,0.008100X-0.126900X0.346900X-0.126900X-0.346900X0.126900X-0.346900X0.126900X0.346900X0*%
%ADD64RoundRect,0.218750X-0.218750X-0.256250X0.218750X-0.256250X0.218750X0.256250X-0.218750X0.256250X0*%
%ADD65RoundRect,0.135000X-0.185000X0.135000X-0.185000X-0.135000X0.185000X-0.135000X0.185000X0.135000X0*%
%ADD66R,0.406400X0.609600*%
%ADD67R,0.609600X0.406400*%
%ADD68RoundRect,0.250000X0.250000X0.475000X-0.250000X0.475000X-0.250000X-0.475000X0.250000X-0.475000X0*%
%ADD69RoundRect,0.150000X-0.150000X0.512500X-0.150000X-0.512500X0.150000X-0.512500X0.150000X0.512500X0*%
%ADD70R,0.500000X0.375000*%
%ADD71R,0.650000X0.300000*%
%ADD72R,3.600000X1.500000*%
%ADD73R,1.600000X5.700000*%
%ADD74RoundRect,0.250000X-0.625000X0.312500X-0.625000X-0.312500X0.625000X-0.312500X0.625000X0.312500X0*%
%ADD75R,0.700000X0.600000*%
%ADD76R,0.650000X0.350000*%
%ADD77R,0.600000X1.000000*%
%ADD78RoundRect,0.140000X0.140000X0.170000X-0.140000X0.170000X-0.140000X-0.170000X0.140000X-0.170000X0*%
%ADD79RoundRect,0.135000X-0.135000X-0.185000X0.135000X-0.185000X0.135000X0.185000X-0.135000X0.185000X0*%
%ADD80R,1.100000X1.100000*%
%ADD81RoundRect,0.147500X-0.147500X-0.172500X0.147500X-0.172500X0.147500X0.172500X-0.147500X0.172500X0*%
G04 APERTURE END LIST*
%TO.C,U1*%
G36*
X176860000Y-90065000D02*
G01*
X176540000Y-90065000D01*
X176540000Y-89525000D01*
X176860000Y-89525000D01*
X176860000Y-90065000D01*
G37*
D10*
X176860000Y-90065000D02*
X176540000Y-90065000D01*
X176540000Y-89525000D01*
X176860000Y-89525000D01*
X176860000Y-90065000D01*
%TO.C,U15*%
G36*
X166370000Y-130600000D02*
G01*
X165830000Y-130600000D01*
X165830000Y-130280000D01*
X166370000Y-130280000D01*
X166370000Y-130600000D01*
G37*
X166370000Y-130600000D02*
X165830000Y-130600000D01*
X165830000Y-130280000D01*
X166370000Y-130280000D01*
X166370000Y-130600000D01*
%TO.C,U14*%
G36*
X182360000Y-89965000D02*
G01*
X182040000Y-89965000D01*
X182040000Y-89425000D01*
X182360000Y-89425000D01*
X182360000Y-89965000D01*
G37*
X182360000Y-89965000D02*
X182040000Y-89965000D01*
X182040000Y-89425000D01*
X182360000Y-89425000D01*
X182360000Y-89965000D01*
%TO.C,U8*%
G36*
X128599364Y-88014366D02*
G01*
X127900635Y-88014366D01*
X127900635Y-87785634D01*
X128599364Y-87785634D01*
X128599364Y-88014366D01*
G37*
D11*
X128599364Y-88014366D02*
X127900635Y-88014366D01*
X127900635Y-87785634D01*
X128599364Y-87785634D01*
X128599364Y-88014366D01*
G36*
X129682270Y-87800000D02*
G01*
X129541421Y-87800000D01*
X129400000Y-87658579D01*
X129400000Y-87225630D01*
X129682270Y-87225630D01*
X129682270Y-87800000D01*
G37*
X129682270Y-87800000D02*
X129541421Y-87800000D01*
X129400000Y-87658579D01*
X129400000Y-87225630D01*
X129682270Y-87225630D01*
X129682270Y-87800000D01*
G36*
X128599364Y-88814364D02*
G01*
X127900635Y-88814364D01*
X127900635Y-88585635D01*
X128599364Y-88585635D01*
X128599364Y-88814364D01*
G37*
X128599364Y-88814364D02*
X127900635Y-88814364D01*
X127900635Y-88585635D01*
X128599364Y-88585635D01*
X128599364Y-88814364D01*
G36*
X130699365Y-88814364D02*
G01*
X130000636Y-88814364D01*
X130000636Y-88585635D01*
X130699365Y-88585635D01*
X130699365Y-88814364D01*
G37*
X130699365Y-88814364D02*
X130000636Y-88814364D01*
X130000636Y-88585635D01*
X130699365Y-88585635D01*
X130699365Y-88814364D01*
G36*
X129682270Y-88574370D02*
G01*
X129400000Y-88574370D01*
X129400000Y-88141421D01*
X129541421Y-88000000D01*
X129682270Y-88000000D01*
X129682270Y-88574370D01*
G37*
X129682270Y-88574370D02*
X129400000Y-88574370D01*
X129400000Y-88141421D01*
X129541421Y-88000000D01*
X129682270Y-88000000D01*
X129682270Y-88574370D01*
G36*
X129200000Y-88141421D02*
G01*
X129200000Y-88574370D01*
X128917730Y-88574370D01*
X128917730Y-88000000D01*
X129058579Y-88000000D01*
X129200000Y-88141421D01*
G37*
X129200000Y-88141421D02*
X129200000Y-88574370D01*
X128917730Y-88574370D01*
X128917730Y-88000000D01*
X129058579Y-88000000D01*
X129200000Y-88141421D01*
G36*
X128599364Y-87614364D02*
G01*
X127900635Y-87614364D01*
X127900635Y-87385635D01*
X128599364Y-87385635D01*
X128599364Y-87614364D01*
G37*
X128599364Y-87614364D02*
X127900635Y-87614364D01*
X127900635Y-87385635D01*
X128599364Y-87385635D01*
X128599364Y-87614364D01*
G36*
X130699365Y-87214365D02*
G01*
X130000636Y-87214365D01*
X130000636Y-86985636D01*
X130699365Y-86985636D01*
X130699365Y-87214365D01*
G37*
X130699365Y-87214365D02*
X130000636Y-87214365D01*
X130000636Y-86985636D01*
X130699365Y-86985636D01*
X130699365Y-87214365D01*
G36*
X130699365Y-88014366D02*
G01*
X130000636Y-88014366D01*
X130000636Y-87785634D01*
X130699365Y-87785634D01*
X130699365Y-88014366D01*
G37*
X130699365Y-88014366D02*
X130000636Y-88014366D01*
X130000636Y-87785634D01*
X130699365Y-87785634D01*
X130699365Y-88014366D01*
G36*
X130699365Y-87614364D02*
G01*
X130000636Y-87614364D01*
X130000636Y-87385635D01*
X130699365Y-87385635D01*
X130699365Y-87614364D01*
G37*
X130699365Y-87614364D02*
X130000636Y-87614364D01*
X130000636Y-87385635D01*
X130699365Y-87385635D01*
X130699365Y-87614364D01*
G36*
X130699365Y-88414365D02*
G01*
X130000636Y-88414365D01*
X130000636Y-88185636D01*
X130699365Y-88185636D01*
X130699365Y-88414365D01*
G37*
X130699365Y-88414365D02*
X130000636Y-88414365D01*
X130000636Y-88185636D01*
X130699365Y-88185636D01*
X130699365Y-88414365D01*
G36*
X128599364Y-87214365D02*
G01*
X127900635Y-87214365D01*
X127900635Y-86985636D01*
X128599364Y-86985636D01*
X128599364Y-87214365D01*
G37*
X128599364Y-87214365D02*
X127900635Y-87214365D01*
X127900635Y-86985636D01*
X128599364Y-86985636D01*
X128599364Y-87214365D01*
G36*
X129200000Y-87658579D02*
G01*
X129058579Y-87800000D01*
X128917730Y-87800000D01*
X128917730Y-87225630D01*
X129200000Y-87225630D01*
X129200000Y-87658579D01*
G37*
X129200000Y-87658579D02*
X129058579Y-87800000D01*
X128917730Y-87800000D01*
X128917730Y-87225630D01*
X129200000Y-87225630D01*
X129200000Y-87658579D01*
G36*
X128599364Y-88414365D02*
G01*
X127900635Y-88414365D01*
X127900635Y-88185636D01*
X128599364Y-88185636D01*
X128599364Y-88414365D01*
G37*
X128599364Y-88414365D02*
X127900635Y-88414365D01*
X127900635Y-88185636D01*
X128599364Y-88185636D01*
X128599364Y-88414365D01*
%TD*%
D12*
%TO.C,C20*%
X113670000Y-126830000D03*
X113670000Y-129780000D03*
%TD*%
D13*
%TO.C,R20*%
X121000000Y-92625000D03*
X121000000Y-90975000D03*
%TD*%
%TO.C,R22*%
X116930000Y-135665000D03*
X116930000Y-134015000D03*
%TD*%
D14*
%TO.C,R43*%
X115500000Y-97275000D03*
X115500000Y-98925000D03*
%TD*%
D15*
%TO.C,C42*%
X132818750Y-96481250D03*
X134943750Y-96481250D03*
%TD*%
D16*
%TO.C,R39*%
X123281250Y-102768750D03*
X123281250Y-101193750D03*
%TD*%
%TO.C,R36*%
X124881250Y-101181250D03*
X124881250Y-102756250D03*
%TD*%
D17*
%TO.C,Y2*%
X171620000Y-139915000D03*
X173820000Y-139915000D03*
X173820000Y-138215000D03*
X171620000Y-138215000D03*
%TD*%
D14*
%TO.C,R32*%
X139600000Y-117975000D03*
X139600000Y-119625000D03*
%TD*%
D18*
%TO.C,U9*%
X129150000Y-111450000D03*
X129800000Y-111450000D03*
X130450000Y-111450000D03*
X130450000Y-109550000D03*
X129800000Y-109550000D03*
X129150000Y-109550000D03*
%TD*%
D19*
%TO.C,C46*%
X181425000Y-87790000D03*
X182975000Y-87790000D03*
%TD*%
D20*
%TO.C,U11*%
X160860000Y-134610000D03*
X160860000Y-135260000D03*
X160860000Y-135910000D03*
X160860000Y-136560000D03*
X160860000Y-137210000D03*
X160860000Y-137860000D03*
X160860000Y-138510000D03*
X160860000Y-139160000D03*
X160860000Y-139810000D03*
X160860000Y-140460000D03*
X166585000Y-140460000D03*
X166585000Y-139810000D03*
X166585000Y-139160000D03*
X166585000Y-138510000D03*
X166585000Y-137860000D03*
X166585000Y-137210000D03*
X166585000Y-136560000D03*
X166585000Y-135910000D03*
X166585000Y-135260000D03*
X166585000Y-134610000D03*
%TD*%
D21*
%TO.C,R2*%
X174200000Y-128300000D03*
X175850000Y-128300000D03*
%TD*%
D22*
%TO.C,C24*%
X113700000Y-116000000D03*
X113700000Y-117900000D03*
%TD*%
D23*
%TO.C,U13*%
X186300000Y-97050000D03*
X186300000Y-96550000D03*
X186300000Y-96050000D03*
X186300000Y-95550000D03*
D24*
X185750000Y-95500000D03*
X185250000Y-95500000D03*
D23*
X184700000Y-95550000D03*
X184700000Y-96050000D03*
X184700000Y-96550000D03*
X184700000Y-97050000D03*
D24*
X185250000Y-97100000D03*
X185750000Y-97100000D03*
%TD*%
D25*
%TO.C,C35*%
X129306250Y-106281250D03*
X132456250Y-106281250D03*
%TD*%
D26*
%TO.C,C48*%
X164195000Y-131215000D03*
X164195000Y-129665000D03*
%TD*%
D22*
%TO.C,C31*%
X123500000Y-115700000D03*
X123500000Y-113800000D03*
%TD*%
D13*
%TO.C,R14*%
X135100000Y-112700000D03*
X135100000Y-114350000D03*
%TD*%
D27*
%TO.C,U20*%
X128177250Y-101814583D03*
X128177250Y-101314584D03*
X128177250Y-100814585D03*
X129879050Y-100814585D03*
X129879050Y-101314584D03*
X129879050Y-101814583D03*
%TD*%
D19*
%TO.C,C21*%
X172025000Y-142300000D03*
X173575000Y-142300000D03*
%TD*%
D26*
%TO.C,C5*%
X153600000Y-97450000D03*
X153600000Y-95900000D03*
%TD*%
D28*
%TO.C,R12*%
X163625860Y-97471620D03*
X163625860Y-96451620D03*
%TD*%
D26*
%TO.C,C4*%
X155200000Y-97450000D03*
X155200000Y-95900000D03*
%TD*%
D29*
%TO.C,R16*%
X181800000Y-142240000D03*
X180150000Y-142240000D03*
%TD*%
D22*
%TO.C,C27*%
X118270000Y-127330000D03*
X118270000Y-129230000D03*
%TD*%
D14*
%TO.C,R25*%
X126420000Y-126255000D03*
X126420000Y-127905000D03*
%TD*%
D30*
%TO.C,L5*%
X144380000Y-110935000D03*
X144380000Y-113135000D03*
%TD*%
D19*
%TO.C,C19*%
X127250000Y-90800000D03*
X128800000Y-90800000D03*
%TD*%
D31*
%TO.C,C32*%
X127920000Y-124805000D03*
X129470000Y-124805000D03*
%TD*%
D13*
%TO.C,R21*%
X116930000Y-138765000D03*
X116930000Y-137115000D03*
%TD*%
D32*
%TO.C,D8*%
X126187500Y-87200000D03*
X124612500Y-87200000D03*
%TD*%
D14*
%TO.C,R4*%
X144632000Y-105050000D03*
X144632000Y-106700000D03*
%TD*%
D33*
%TO.C,L1*%
X171840000Y-95530000D03*
X171840000Y-96500000D03*
%TD*%
D34*
%TO.C,C13*%
X163545860Y-98561620D03*
X164505860Y-98561620D03*
%TD*%
D31*
%TO.C,C2*%
X177475000Y-91700000D03*
X175925000Y-91700000D03*
%TD*%
D13*
%TO.C,R6*%
X143000000Y-106725000D03*
X143000000Y-105075000D03*
%TD*%
D22*
%TO.C,C30*%
X125600000Y-115700000D03*
X125600000Y-113800000D03*
%TD*%
D35*
%TO.C,C25*%
X123500000Y-110300000D03*
X123500000Y-112200000D03*
%TD*%
D36*
%TO.C,U6*%
X124825000Y-131010000D03*
X123555000Y-131010000D03*
X122285000Y-131010000D03*
X121015000Y-131010000D03*
X121015000Y-126050000D03*
X122285000Y-126050000D03*
X123555000Y-126050000D03*
X124825000Y-126050000D03*
D37*
X122045000Y-127875000D03*
X123795000Y-129185000D03*
X123795000Y-127875000D03*
X122045000Y-129185000D03*
%TD*%
D31*
%TO.C,C49*%
X182975000Y-91600000D03*
X181425000Y-91600000D03*
%TD*%
D14*
%TO.C,R33*%
X121600000Y-113525000D03*
X121600000Y-111875000D03*
%TD*%
D38*
%TO.C,U4*%
X190800000Y-120000000D03*
D39*
X191600000Y-120000000D03*
X192400000Y-120000000D03*
X193200000Y-120000000D03*
X193200000Y-117600000D03*
X192400000Y-117600000D03*
X191600000Y-117600000D03*
X190800000Y-117600000D03*
D40*
X191200000Y-118800000D03*
D41*
X192800000Y-118800000D03*
%TD*%
D42*
%TO.C,U1*%
X175905000Y-89545000D03*
X175905000Y-90045000D03*
X177495000Y-90045000D03*
X177495000Y-89545000D03*
%TD*%
D43*
%TO.C,C7*%
X174040000Y-96500000D03*
X174040000Y-95540000D03*
%TD*%
D44*
%TO.C,U5*%
X179350000Y-103200000D03*
D45*
X179300000Y-103600000D03*
X179300000Y-104000000D03*
X179300000Y-104400000D03*
X179300000Y-104800000D03*
X179300000Y-105200000D03*
X179300000Y-105600000D03*
X179300000Y-106000000D03*
X179300000Y-106400000D03*
X179300000Y-106800000D03*
X181100000Y-106800000D03*
X181100000Y-106400000D03*
X181100000Y-106000000D03*
X181100000Y-105600000D03*
X181100000Y-105200000D03*
X181100000Y-104800000D03*
X181100000Y-104400000D03*
X181100000Y-104000000D03*
X181100000Y-103600000D03*
X181100000Y-103200000D03*
%TD*%
D46*
%TO.C,U18*%
X118900000Y-115450000D03*
D47*
X118900000Y-115950000D03*
D48*
X119150000Y-116700000D03*
X118650000Y-116700000D03*
D49*
X117900000Y-116450000D03*
X117900000Y-115950000D03*
X117900000Y-115450000D03*
X117900000Y-114950000D03*
D50*
X118650000Y-114700000D03*
X119150000Y-114700000D03*
D46*
X119900000Y-114950000D03*
X119900000Y-115450000D03*
X119900000Y-115950000D03*
X119900000Y-116450000D03*
%TD*%
D21*
%TO.C,R35*%
X175850000Y-142300000D03*
X177500000Y-142300000D03*
%TD*%
%TO.C,R11*%
X193519000Y-97700000D03*
X195169000Y-97700000D03*
%TD*%
D15*
%TO.C,C50*%
X132818750Y-94714582D03*
X134943750Y-94714582D03*
%TD*%
D19*
%TO.C,C16*%
X156597500Y-142100000D03*
X158147500Y-142100000D03*
%TD*%
D14*
%TO.C,R34*%
X121600000Y-108775000D03*
X121600000Y-110425000D03*
%TD*%
D31*
%TO.C,C45*%
X183000000Y-95500000D03*
X181450000Y-95500000D03*
%TD*%
D20*
%TO.C,U10*%
X176207500Y-134870000D03*
X176207500Y-135520000D03*
X176207500Y-136170000D03*
X176207500Y-136820000D03*
X176207500Y-137470000D03*
X176207500Y-138120000D03*
X176207500Y-138770000D03*
X176207500Y-139420000D03*
X176207500Y-140070000D03*
X176207500Y-140720000D03*
X181932500Y-140720000D03*
X181932500Y-140070000D03*
X181932500Y-139420000D03*
X181932500Y-138770000D03*
X181932500Y-138120000D03*
X181932500Y-137470000D03*
X181932500Y-136820000D03*
X181932500Y-136170000D03*
X181932500Y-135520000D03*
X181932500Y-134870000D03*
%TD*%
D31*
%TO.C,C22*%
X173495000Y-136525000D03*
X171945000Y-136525000D03*
%TD*%
%TO.C,C17*%
X158287500Y-136265000D03*
X156737500Y-136265000D03*
%TD*%
D12*
%TO.C,C26*%
X116070000Y-126830000D03*
X116070000Y-129780000D03*
%TD*%
D21*
%TO.C,R10*%
X193519000Y-94652000D03*
X195169000Y-94652000D03*
%TD*%
D19*
%TO.C,C1*%
X175925000Y-87890000D03*
X177475000Y-87890000D03*
%TD*%
D31*
%TO.C,C44*%
X182975000Y-97100000D03*
X181425000Y-97100000D03*
%TD*%
D51*
%TO.C,C29*%
X118570000Y-130905000D03*
X118570000Y-132455000D03*
%TD*%
D29*
%TO.C,R29*%
X135900000Y-106500000D03*
X134250000Y-106500000D03*
%TD*%
%TO.C,R30*%
X119625000Y-119500000D03*
X117975000Y-119500000D03*
%TD*%
D52*
%TO.C,CP2*%
X147015000Y-98057500D03*
X147015000Y-93132500D03*
%TD*%
D51*
%TO.C,C47*%
X168005000Y-129665000D03*
X168005000Y-131215000D03*
%TD*%
D31*
%TO.C,C3*%
X197775000Y-121500000D03*
X196225000Y-121500000D03*
%TD*%
D29*
%TO.C,R48*%
X166452500Y-142240000D03*
X164802500Y-142240000D03*
%TD*%
D53*
%TO.C,L3*%
X113675000Y-110600000D03*
X116725000Y-110600000D03*
%TD*%
D54*
%TO.C,U3*%
X151965200Y-105100001D03*
X151965200Y-106100001D03*
X151965200Y-107099999D03*
X151965200Y-108100000D03*
X151965200Y-109100000D03*
X151965200Y-110100001D03*
X151965200Y-111099999D03*
X151965200Y-112099999D03*
X151965200Y-113100000D03*
X151965200Y-114100001D03*
X151965200Y-115100001D03*
X151965200Y-116099999D03*
X151965200Y-117100000D03*
X151965200Y-118100000D03*
X151965200Y-119100001D03*
X151965200Y-120100001D03*
X151965200Y-121099999D03*
D55*
X155700001Y-124834800D03*
X156699999Y-124834800D03*
X157699999Y-124834800D03*
X158700000Y-124834800D03*
X159700000Y-124834800D03*
X160700001Y-124834800D03*
X161699999Y-124834800D03*
X162699999Y-124834800D03*
X163700000Y-124834800D03*
X164700001Y-124834800D03*
X165700001Y-124834800D03*
X166699999Y-124834800D03*
X167700000Y-124834800D03*
X168700000Y-124834800D03*
X169700001Y-124834800D03*
X170700001Y-124834800D03*
X171699999Y-124834800D03*
D54*
X175434800Y-121099999D03*
X175434800Y-120100001D03*
X175434800Y-119100001D03*
X175434800Y-118100000D03*
X175434800Y-117100000D03*
X175434800Y-116099999D03*
X175434800Y-115100001D03*
X175434800Y-114100001D03*
X175434800Y-113100000D03*
X175434800Y-112099999D03*
X175434800Y-111099999D03*
X175434800Y-110100001D03*
X175434800Y-109100000D03*
X175434800Y-108100000D03*
X175434800Y-107099999D03*
X175434800Y-106099999D03*
X175434800Y-105100001D03*
D55*
X171699999Y-101365200D03*
X170700001Y-101365200D03*
X169700001Y-101365200D03*
X168700000Y-101365200D03*
X167700000Y-101365200D03*
X166699999Y-101365200D03*
X165700001Y-101365200D03*
X164700001Y-101365200D03*
X163700000Y-101365200D03*
X162699999Y-101365200D03*
X161699999Y-101365200D03*
X160700001Y-101365200D03*
X159700000Y-101365200D03*
X158700000Y-101365200D03*
X157699999Y-101365200D03*
X156699999Y-101365200D03*
X155700001Y-101365200D03*
%TD*%
D18*
%TO.C,U7*%
X132050000Y-109550000D03*
X132700000Y-109550000D03*
X133350000Y-109550000D03*
X133350000Y-111450000D03*
X132700000Y-111450000D03*
X132050000Y-111450000D03*
%TD*%
D56*
%TO.C,C43*%
X131343750Y-96481250D03*
X129218750Y-96481250D03*
%TD*%
D26*
%TO.C,C53*%
X115500000Y-95775000D03*
X115500000Y-94225000D03*
%TD*%
D57*
%TO.C,F1*%
X113500000Y-124800000D03*
X116300000Y-124800000D03*
%TD*%
D58*
%TO.C,Q2*%
X146194500Y-119127000D03*
X146194500Y-121027000D03*
X148069500Y-120077000D03*
%TD*%
D59*
%TO.C,J1*%
X193000000Y-123363100D03*
X193000000Y-133963100D03*
D60*
X187100002Y-131203100D03*
X187100002Y-128663100D03*
X187100002Y-126123100D03*
X198899998Y-131203100D03*
X198899998Y-128663100D03*
X198899998Y-126123100D03*
%TD*%
D52*
%TO.C,C33*%
X128470000Y-134730000D03*
X128470000Y-139655000D03*
%TD*%
D13*
%TO.C,R27*%
X135100000Y-111225000D03*
X135100000Y-109575000D03*
%TD*%
D61*
%TO.C,U19*%
X185262500Y-138650000D03*
X185262500Y-139600000D03*
X185262500Y-140550000D03*
X187537500Y-140550000D03*
X187537500Y-138650000D03*
%TD*%
D62*
%TO.C,C36*%
X139330000Y-109175000D03*
X141230000Y-109175000D03*
%TD*%
D63*
%TO.C,U15*%
X166350000Y-129645000D03*
X165850000Y-129645000D03*
X165850000Y-131235000D03*
X166350000Y-131235000D03*
%TD*%
D29*
%TO.C,R18*%
X162200000Y-142200000D03*
X160550000Y-142200000D03*
%TD*%
D64*
%TO.C,D5*%
X197112500Y-97700000D03*
X198687500Y-97700000D03*
%TD*%
D19*
%TO.C,C40*%
X180200000Y-133350000D03*
X181750000Y-133350000D03*
%TD*%
D13*
%TO.C,R7*%
X144332000Y-121102000D03*
X144332000Y-119452000D03*
%TD*%
D51*
%TO.C,C6*%
X181300000Y-112650000D03*
X181300000Y-114200000D03*
%TD*%
D26*
%TO.C,C14*%
X180900000Y-100950000D03*
X180900000Y-99400000D03*
%TD*%
D21*
%TO.C,R1*%
X174200000Y-129900000D03*
X175850000Y-129900000D03*
%TD*%
D64*
%TO.C,D3*%
X197112500Y-96176000D03*
X198687500Y-96176000D03*
%TD*%
D65*
%TO.C,R8*%
X172940000Y-95500000D03*
X172940000Y-96520000D03*
%TD*%
D64*
%TO.C,D4*%
X197112500Y-94652000D03*
X198687500Y-94652000D03*
%TD*%
D21*
%TO.C,R23*%
X132087500Y-87300000D03*
X133737500Y-87300000D03*
%TD*%
D43*
%TO.C,C9*%
X170754140Y-97460000D03*
X170754140Y-96500000D03*
%TD*%
D66*
%TO.C,U2*%
X195449999Y-103650002D03*
X194350000Y-103650002D03*
X193549999Y-103650002D03*
X191950001Y-103650002D03*
X191550001Y-104550002D03*
X191150000Y-103650002D03*
X190750000Y-104550002D03*
X190349999Y-103650002D03*
X189949999Y-104550002D03*
X189550001Y-103650002D03*
X189150001Y-104550002D03*
X188750000Y-103650002D03*
X188350000Y-104550002D03*
X187950001Y-103650002D03*
D67*
X184549999Y-103499999D03*
X184549999Y-104300000D03*
X184549999Y-105100001D03*
X184549999Y-105900000D03*
X185449999Y-106300000D03*
X184549999Y-106700001D03*
X185449999Y-107100001D03*
X184549999Y-107499999D03*
X185449999Y-107899999D03*
X184549999Y-108300000D03*
X185449999Y-108700000D03*
X184549999Y-109100001D03*
X185449999Y-109500001D03*
X184549999Y-109899999D03*
X185449999Y-110299999D03*
X184549999Y-110700000D03*
X184549999Y-111499999D03*
X184549999Y-112300000D03*
X184549999Y-113099998D03*
D66*
X185550001Y-112949998D03*
X186350001Y-112949998D03*
X186750001Y-112049998D03*
X187150001Y-112949998D03*
X187550001Y-112049998D03*
X187950000Y-112949998D03*
X188350000Y-112049998D03*
X188750001Y-112949998D03*
X189150001Y-112049998D03*
X189949999Y-112049998D03*
X190349999Y-112949998D03*
X190750000Y-112049998D03*
X191150000Y-112949998D03*
X191550001Y-112049998D03*
X191950001Y-112949998D03*
X192350001Y-112049998D03*
X193149999Y-112049998D03*
X193549999Y-112949998D03*
X193950000Y-112049998D03*
X194350000Y-112949998D03*
X194750000Y-112049998D03*
X195449999Y-112949998D03*
D67*
X191149999Y-106300000D03*
X191149999Y-107100001D03*
X191149999Y-107899999D03*
X191149999Y-108700000D03*
X191149999Y-109500001D03*
X191149999Y-110299999D03*
%TD*%
D16*
%TO.C,D9*%
X113900000Y-95787500D03*
X113900000Y-94212500D03*
%TD*%
D64*
%TO.C,R40*%
X123281250Y-104281250D03*
X124856250Y-104281250D03*
%TD*%
D52*
%TO.C,CP3*%
X143205000Y-98057500D03*
X143205000Y-93132500D03*
%TD*%
D26*
%TO.C,C12*%
X150132000Y-106877000D03*
X150132000Y-105327000D03*
%TD*%
D42*
%TO.C,U14*%
X181405000Y-89445000D03*
X181405000Y-89945000D03*
X182995000Y-89945000D03*
X182995000Y-89445000D03*
%TD*%
D32*
%TO.C,C52*%
X130768750Y-98181250D03*
X129193750Y-98181250D03*
%TD*%
D21*
%TO.C,R3*%
X174200000Y-126700000D03*
X175850000Y-126700000D03*
%TD*%
D13*
%TO.C,R42*%
X113900000Y-98950000D03*
X113900000Y-97300000D03*
%TD*%
D35*
%TO.C,C34*%
X125470000Y-134180000D03*
X125470000Y-136080000D03*
%TD*%
%TO.C,C28*%
X125600000Y-110300000D03*
X125600000Y-112200000D03*
%TD*%
D26*
%TO.C,C11*%
X149932000Y-121077000D03*
X149932000Y-119527000D03*
%TD*%
%TO.C,C15*%
X179300000Y-100950000D03*
X179300000Y-99400000D03*
%TD*%
D22*
%TO.C,C23*%
X115800000Y-116000000D03*
X115800000Y-117900000D03*
%TD*%
D68*
%TO.C,C38*%
X141380000Y-114725000D03*
X139480000Y-114725000D03*
%TD*%
D21*
%TO.C,R15*%
X117950000Y-121100000D03*
X119600000Y-121100000D03*
%TD*%
%TO.C,R26*%
X124612500Y-88800000D03*
X126262500Y-88800000D03*
%TD*%
D69*
%TO.C,D1*%
X182450000Y-126662500D03*
X181500000Y-126662500D03*
X180550000Y-126662500D03*
X180550000Y-128937500D03*
X181500000Y-128937500D03*
X182450000Y-128937500D03*
%TD*%
D34*
%TO.C,C8*%
X170754140Y-98600000D03*
X171714140Y-98600000D03*
%TD*%
D21*
%TO.C,R9*%
X193519000Y-96176000D03*
X195169000Y-96176000D03*
%TD*%
D61*
%TO.C,U12*%
X139210500Y-111025000D03*
X139210500Y-111975000D03*
X139210500Y-112925000D03*
X141485500Y-112925000D03*
X141485500Y-111025000D03*
%TD*%
D70*
%TO.C,Z1*%
X115350000Y-102137500D03*
D71*
X115425000Y-101600000D03*
D70*
X115350000Y-101062500D03*
X113650000Y-101062500D03*
D71*
X113575000Y-101600000D03*
D70*
X113650000Y-102137500D03*
%TD*%
D72*
%TO.C,L4*%
X133781250Y-101531250D03*
X133781250Y-98481250D03*
%TD*%
D31*
%TO.C,C18*%
X131850000Y-90800000D03*
X130300000Y-90800000D03*
%TD*%
D29*
%TO.C,R38*%
X189425000Y-97100000D03*
X187775000Y-97100000D03*
%TD*%
D32*
%TO.C,C37*%
X129393750Y-104281250D03*
X130968750Y-104281250D03*
%TD*%
D73*
%TO.C,L2*%
X125520000Y-140230000D03*
X120820000Y-140230000D03*
%TD*%
D74*
%TO.C,FB1*%
X140030000Y-97692500D03*
X140030000Y-94767500D03*
%TD*%
D17*
%TO.C,Y1*%
X156272500Y-139655000D03*
X158472500Y-139655000D03*
X158472500Y-137955000D03*
X156272500Y-137955000D03*
%TD*%
D58*
%TO.C,Q1*%
X146457000Y-104927000D03*
X146457000Y-106827000D03*
X148332000Y-105877000D03*
%TD*%
D29*
%TO.C,R24*%
X127870000Y-126330000D03*
X129520000Y-126330000D03*
%TD*%
D19*
%TO.C,C41*%
X164992500Y-133090000D03*
X166542500Y-133090000D03*
%TD*%
D21*
%TO.C,R5*%
X144182000Y-117477000D03*
X145832000Y-117477000D03*
%TD*%
D75*
%TO.C,D2*%
X140400000Y-99200000D03*
X140400000Y-100600000D03*
%TD*%
D14*
%TO.C,TH1*%
X110900000Y-88800000D03*
X110900000Y-90450000D03*
%TD*%
D13*
%TO.C,R31*%
X138000000Y-119625000D03*
X138000000Y-117975000D03*
%TD*%
D76*
%TO.C,U16*%
X155542500Y-133725000D03*
X155542500Y-133075000D03*
X155542500Y-132425000D03*
X155542500Y-131775000D03*
X158642500Y-131775000D03*
X158642500Y-132425000D03*
X158642500Y-133075000D03*
X158642500Y-133725000D03*
D77*
X156705000Y-133350000D03*
X157480000Y-133350000D03*
X156705000Y-132150000D03*
X157480000Y-132150000D03*
%TD*%
D56*
%TO.C,C51*%
X131343750Y-94714584D03*
X129218750Y-94714584D03*
%TD*%
D64*
%TO.C,R41*%
X126306250Y-104281250D03*
X127881250Y-104281250D03*
%TD*%
D14*
%TO.C,R19*%
X122600000Y-90975000D03*
X122600000Y-92625000D03*
%TD*%
D29*
%TO.C,R28*%
X135925000Y-108100000D03*
X134275000Y-108100000D03*
%TD*%
D78*
%TO.C,C10*%
X170800000Y-95500000D03*
X169840000Y-95500000D03*
%TD*%
D76*
%TO.C,U17*%
X171170000Y-134325000D03*
X171170000Y-133675000D03*
X171170000Y-133025000D03*
X171170000Y-132375000D03*
X174270000Y-132375000D03*
X174270000Y-133025000D03*
X174270000Y-133675000D03*
X174270000Y-134325000D03*
D77*
X172332500Y-133950000D03*
X172332500Y-132750000D03*
X173107500Y-132750000D03*
X173107500Y-133950000D03*
%TD*%
D79*
%TO.C,R13*%
X179990000Y-108700000D03*
X181010000Y-108700000D03*
%TD*%
D80*
%TO.C,D7*%
X120670000Y-134530000D03*
X123470000Y-134530000D03*
%TD*%
D81*
%TO.C,D6*%
X163640860Y-95261620D03*
X164610860Y-95261620D03*
%TD*%
D29*
%TO.C,R37*%
X189450000Y-95500000D03*
X187800000Y-95500000D03*
%TD*%
D81*
%TO.C,C39*%
X123481250Y-105681250D03*
X124451250Y-105681250D03*
%TD*%
D14*
%TO.C,R46*%
X137300000Y-111150000D03*
X137300000Y-112800000D03*
%TD*%
D21*
%TO.C,R17*%
X132087500Y-88800000D03*
X133737500Y-88800000D03*
%TD*%
D52*
%TO.C,CP1*%
X150825000Y-98057500D03*
X150825000Y-93132500D03*
%TD*%
M02*
