M48
; DRILL file {KiCad (6.0.2-0)} date 2023 February 02, Thursday 10:49:54
; FORMAT={-:-/ absolute / metric / decimal}
; #@! TF.CreationDate,2023-02-02T10:49:54+01:00
; #@! TF.GenerationSoftware,Kicad,Pcbnew,(6.0.2-0)
; #@! TF.FileFunction,Plated,1,4,PTH
FMAT,2
METRIC
; #@! TA.AperFunction,Plated,PTH,ComponentDrill
T1C0.250
; #@! TA.AperFunction,Plated,PTH,ViaDrill
T2C0.300
; #@! TA.AperFunction,Plated,PTH,ComponentDrill
T3C0.300
; #@! TA.AperFunction,Plated,PTH,ViaDrill
T4C0.500
; #@! TA.AperFunction,Plated,PTH,ComponentDrill
T5C0.500
; #@! TA.AperFunction,Plated,PTH,ComponentDrill
T6C0.650
; #@! TA.AperFunction,Plated,PTH,ComponentDrill
T7C1.092
; #@! TA.AperFunction,Plated,PTH,ComponentDrill
T8C1.300
; #@! TA.AperFunction,Plated,PTH,ComponentDrill
T9C3.200
%
G90
G05
T1
X121.3Y-130.844
X121.3Y-132.244
X122.3Y-130.844
X122.3Y-132.244
X123.3Y-130.844
X123.3Y-132.244
T2
X101.0Y-90.0
X101.0Y-91.0
X101.0Y-92.0
X101.0Y-93.0
X101.0Y-94.0
X101.0Y-95.0
X101.0Y-96.0
X101.0Y-97.0
X101.0Y-98.0
X101.0Y-99.0
X101.0Y-100.0
X101.0Y-101.0
X101.0Y-102.0
X101.0Y-103.0
X101.0Y-104.0
X101.0Y-105.0
X101.0Y-106.0
X101.0Y-107.0
X101.0Y-108.0
X101.0Y-109.0
X101.0Y-110.0
X101.0Y-111.0
X101.0Y-112.0
X101.0Y-113.0
X101.0Y-114.0
X101.0Y-115.0
X101.0Y-116.0
X101.0Y-117.0
X101.0Y-118.0
X101.0Y-119.0
X101.0Y-120.0
X101.0Y-121.0
X101.0Y-122.0
X101.0Y-123.0
X101.0Y-124.0
X101.0Y-125.0
X101.0Y-126.0
X101.0Y-127.0
X101.0Y-128.0
X101.0Y-129.0
X101.0Y-130.0
X101.0Y-131.0
X101.0Y-132.0
X101.0Y-133.0
X101.0Y-134.0
X101.0Y-135.0
X101.0Y-136.0
X101.0Y-137.0
X101.0Y-138.0
X101.0Y-139.0
X101.0Y-140.0
X101.2Y-89.0
X101.3Y-141.2
X101.7Y-88.0
X101.9Y-142.3
X102.5Y-87.1
X102.8Y-143.1
X103.4Y-106.1
X103.6Y-86.4
X103.8Y-143.6
X104.4Y-102.5
X105.0Y-86.0
X105.0Y-144.0
X105.989Y-102.212
X106.0Y-86.0
X106.0Y-144.0
X107.0Y-86.0
X107.0Y-144.0
X108.0Y-86.0
X108.0Y-144.0
X108.805Y-99.327
X109.0Y-86.0
X109.0Y-144.0
X109.15Y-95.425
X109.15Y-96.475
X109.21Y-100.14
X109.3Y-101.1
X110.0Y-86.0
X110.0Y-144.0
X111.0Y-86.0
X111.0Y-144.0
X111.05Y-108.8
X111.5Y-120.2
X111.7Y-117.9
X111.825Y-89.225
X112.0Y-86.0
X112.0Y-144.0
X112.2Y-91.9
X112.55Y-116.15
X112.67Y-121.93
X112.7Y-94.2
X112.99Y-123.3
X113.0Y-86.0
X113.0Y-144.0
X113.15Y-108.75
X113.25Y-112.25
X113.5Y-121.45
X114.0Y-86.0
X114.0Y-144.0
X114.45Y-91.8
X114.65Y-113.9
X114.65Y-123.3
X114.7Y-93.5
X114.73Y-99.76
X115.0Y-86.0
X115.0Y-110.8
X115.0Y-144.0
X115.25Y-112.25
X115.25Y-142.85
X115.325Y-124.175
X115.55Y-125.675
X115.8Y-100.6
X115.9Y-105.15
X115.9Y-126.6
X115.9Y-130.225
X116.0Y-86.0
X116.0Y-144.0
X116.2Y-142.55
X116.282Y-101.314
X116.55Y-108.25
X116.55Y-109.4
X116.575Y-92.1
X116.7Y-92.9
X116.7Y-114.025
X116.8Y-102.08
X117.0Y-86.0
X117.0Y-144.0
X117.1Y-93.7
X117.8Y-91.0
X118.0Y-86.0
X118.0Y-144.0
X119.0Y-86.0
X119.0Y-114.5
X119.0Y-116.5
X119.0Y-124.838
X119.0Y-125.838
X119.0Y-126.838
X119.0Y-127.838
X119.0Y-128.838
X119.0Y-129.838
X119.0Y-130.838
X119.0Y-131.838
X119.0Y-132.838
X119.0Y-133.838
X119.0Y-134.838
X119.0Y-144.0
X119.2Y-118.2
X119.2Y-119.0
X119.25Y-94.0
X119.25Y-96.0
X119.25Y-98.0
X119.25Y-100.0
X119.25Y-102.0
X119.25Y-104.25
X119.25Y-108.0
X119.25Y-109.75
X119.25Y-119.85
X119.25Y-140.838
X119.45Y-87.625
X119.65Y-120.55
X119.9Y-114.5
X120.0Y-86.0
X120.0Y-124.838
X120.0Y-125.838
X120.0Y-126.838
X120.0Y-130.838
X120.0Y-131.838
X120.0Y-144.0
X120.36Y-109.75
X120.4Y-135.638
X120.45Y-120.55
X120.55Y-118.25
X120.6Y-119.45
X121.0Y-86.0
X121.0Y-124.838
X121.0Y-127.338
X121.0Y-144.0
X121.25Y-120.55
X122.0Y-86.0
X122.0Y-124.838
X122.0Y-144.0
X122.15Y-120.55
X122.25Y-101.35
X122.325Y-89.325
X122.35Y-102.25
X122.35Y-103.05
X122.35Y-103.85
X122.35Y-127.544
X122.5Y-98.15
X122.5Y-125.588
X123.0Y-86.0
X123.0Y-124.838
X123.0Y-144.0
X123.05Y-120.55
X123.25Y-102.25
X123.25Y-103.05
X123.3Y-103.85
X123.45Y-100.8
X123.5Y-99.25
X123.5Y-110.15
X123.75Y-94.0
X123.75Y-95.0
X123.75Y-96.0
X123.75Y-97.0
X123.75Y-98.0
X123.95Y-120.55
X124.0Y-86.0
X124.0Y-144.0
X124.1Y-124.8
X124.2Y-102.25
X124.2Y-135.594
X124.3Y-93.3
X124.4Y-88.1
X124.474Y-99.574
X124.5Y-130.838
X124.5Y-132.338
X124.65Y-110.15
X124.8Y-120.55
X125.0Y-86.0
X125.0Y-144.0
X125.1Y-102.25
X125.2Y-124.8
X125.3Y-93.3
X125.3Y-119.5
X125.325Y-116.6
X125.326Y-99.574
X125.7Y-120.55
X125.75Y-110.2
X125.825Y-90.6
X125.872Y-131.028
X126.0Y-144.0
X126.05Y-132.794
X126.2Y-88.1
X126.2Y-99.6
X126.3Y-124.8
X126.35Y-113.5
X126.35Y-114.3
X126.35Y-119.55
X126.4Y-93.3
X126.6Y-111.2
X126.6Y-120.55
X126.8Y-133.694
X127.0Y-86.0
X127.0Y-144.0
X127.15Y-113.5
X127.15Y-114.3
X127.25Y-110.15
X127.25Y-136.838
X127.3Y-124.8
X127.4Y-119.5
X127.5Y-93.3
X127.5Y-131.838
X127.5Y-132.838
X127.5Y-137.838
X127.5Y-138.838
X127.5Y-139.838
X127.95Y-112.65
X128.0Y-86.0
X128.0Y-144.0
X128.25Y-114.65
X128.3Y-113.6
X128.3Y-119.1
X128.3Y-120.5
X128.4Y-124.8
X128.5Y-131.838
X128.5Y-132.838
X128.5Y-133.838
X128.5Y-134.838
X128.5Y-137.838
X128.5Y-138.838
X128.5Y-139.838
X128.7Y-93.3
X128.75Y-112.05
X128.9Y-87.15
X128.9Y-88.05
X128.9Y-88.925
X129.0Y-86.0
X129.0Y-144.0
X129.2Y-117.5
X129.2Y-118.35
X129.25Y-119.6
X129.3Y-120.5
X129.5Y-90.7
X129.5Y-124.8
X129.5Y-131.838
X129.5Y-132.838
X129.5Y-133.838
X129.5Y-134.838
X129.5Y-137.838
X129.55Y-113.45
X129.7Y-111.85
X129.8Y-93.3
X129.9Y-112.7
X130.0Y-86.0
X130.0Y-144.0
X130.05Y-87.15
X130.05Y-88.05
X130.05Y-88.925
X130.05Y-117.5
X130.05Y-118.35
X130.2Y-119.3
X130.5Y-131.838
X130.5Y-134.838
X130.5Y-135.838
X130.5Y-136.838
X130.5Y-137.838
X130.6Y-124.8
X131.0Y-86.0
X131.0Y-93.3
X131.0Y-144.0
X131.05Y-140.688
X131.2Y-119.1
X131.5Y-131.838
X131.5Y-134.838
X131.5Y-135.838
X131.5Y-136.838
X131.5Y-137.838
X131.6Y-110.65
X131.7Y-124.8
X131.775Y-86.85
X131.9Y-120.1
X132.0Y-86.0
X132.0Y-144.0
X132.15Y-119.1
X132.3Y-94.0
X132.3Y-95.1
X132.3Y-96.1
X132.3Y-97.1
X132.55Y-110.65
X132.7Y-99.2
X132.7Y-100.4
X132.7Y-101.5
X132.7Y-102.6
X132.7Y-103.7
X132.8Y-124.8
X132.825Y-98.125
X133.0Y-86.0
X133.0Y-144.0
X133.05Y-90.68
X133.1Y-119.1
X133.15Y-111.4
X133.9Y-94.0
X133.9Y-95.1
X133.9Y-96.1
X133.9Y-97.1
X133.9Y-99.2
X133.9Y-100.3
X133.9Y-101.5
X133.9Y-102.6
X133.9Y-103.7
X133.9Y-124.8
X134.0Y-86.0
X134.0Y-144.0
X134.05Y-90.68
X134.1Y-119.1
X134.15Y-111.4
X134.8Y-115.75
X135.0Y-86.0
X135.0Y-124.8
X135.0Y-144.0
X135.05Y-90.7
X135.1Y-94.0
X135.1Y-95.1
X135.1Y-96.1
X135.1Y-97.1
X135.1Y-99.2
X135.1Y-100.3
X135.1Y-101.5
X135.1Y-102.6
X135.1Y-103.7
X135.1Y-104.8
X135.1Y-109.2
X135.1Y-111.6
X135.1Y-112.5
X135.1Y-113.6
X135.1Y-114.75
X135.1Y-119.1
X135.11Y-108.25
X135.3Y-120.1
X136.0Y-86.0
X136.0Y-144.0
X136.82Y-127.0
X137.0Y-86.0
X137.0Y-115.775
X137.0Y-144.0
X137.7Y-128.5
X137.7Y-129.7
X137.7Y-130.9
X137.7Y-132.2
X137.7Y-133.4
X137.7Y-134.6
X137.7Y-135.9
X137.7Y-137.1
X137.7Y-138.3
X137.7Y-139.5
X137.7Y-140.7
X137.7Y-141.9
X138.0Y-86.0
X138.0Y-144.0
X138.05Y-126.925
X138.85Y-126.125
X138.95Y-92.7
X139.0Y-86.0
X139.0Y-144.0
X139.4Y-138.0
X139.575Y-127.475
X140.0Y-86.0
X140.0Y-102.0
X140.0Y-144.0
X140.025Y-86.875
X140.025Y-87.75
X140.025Y-88.65
X140.325Y-123.125
X140.375Y-126.475
X140.5Y-117.3
X141.0Y-86.0
X141.0Y-144.0
X141.5Y-125.275
X141.55Y-126.45
X141.7Y-91.9
X142.0Y-86.0
X142.0Y-94.7
X142.0Y-144.0
X142.225Y-136.625
X142.3Y-132.6
X142.325Y-124.675
X142.4Y-117.2
X142.475Y-119.55
X142.9Y-141.7
X143.0Y-86.0
X143.0Y-94.7
X143.0Y-144.0
X143.175Y-118.575
X143.575Y-103.175
X143.575Y-135.075
X143.85Y-141.9
X144.0Y-86.0
X144.0Y-94.7
X144.0Y-107.55
X144.0Y-108.5
X144.0Y-144.0
X144.2Y-123.8
X144.2Y-132.6
X144.6Y-112.65
X145.0Y-86.0
X145.0Y-94.7
X145.0Y-144.0
X145.2Y-120.2
X145.2Y-126.8
X145.45Y-112.25
X146.0Y-86.0
X146.0Y-94.7
X146.0Y-144.0
X146.1Y-123.8
X146.2Y-120.2
X146.4Y-107.7
X146.7Y-117.5
X146.8Y-141.8
X147.0Y-86.0
X147.0Y-94.7
X147.0Y-144.0
X147.08Y-136.2
X147.4Y-138.0
X147.75Y-110.225
X148.0Y-86.0
X148.0Y-94.7
X148.0Y-144.0
X148.1Y-133.6
X148.2Y-135.9
X148.7Y-117.5
X149.0Y-86.0
X149.0Y-94.7
X149.0Y-144.0
X149.3Y-141.6
X149.45Y-114.3
X150.0Y-86.0
X150.0Y-94.7
X150.0Y-144.0
X150.1Y-108.1
X150.1Y-109.1
X150.2Y-112.6
X150.2Y-123.8
X150.225Y-111.8
X150.5Y-117.5
X150.8Y-121.2
X150.8Y-124.8
X151.0Y-86.0
X151.0Y-94.7
X151.0Y-144.0
X151.95Y-121.75
X152.0Y-86.0
X152.0Y-94.7
X152.0Y-144.0
X152.1Y-123.8
X152.2Y-135.7
X152.95Y-105.725
X152.975Y-106.825
X153.0Y-86.0
X153.0Y-144.0
X153.025Y-109.55
X153.2Y-129.4
X153.25Y-90.85
X153.3Y-118.3
X153.55Y-130.7
X153.7Y-119.1
X153.9Y-121.3
X154.0Y-86.0
X154.0Y-123.8
X154.0Y-144.0
X154.1Y-120.4
X154.15Y-94.875
X154.2Y-90.825
X154.275Y-108.125
X154.3Y-107.225
X154.4Y-109.15
X154.45Y-110.1
X154.9Y-120.1
X155.0Y-86.0
X155.0Y-144.0
X155.1Y-131.75
X155.2Y-94.9
X155.71Y-123.73
X155.73Y-126.08
X155.75Y-112.225
X155.9Y-134.8
X156.0Y-86.0
X156.0Y-144.0
X156.1Y-137.6
X156.175Y-102.6
X156.225Y-110.3
X156.325Y-111.3
X156.74Y-123.72
X156.775Y-118.4
X157.0Y-86.0
X157.0Y-87.0
X157.0Y-88.0
X157.0Y-89.0
X157.0Y-90.0
X157.0Y-144.0
X157.05Y-102.6
X157.35Y-108.275
X157.4Y-141.7
X157.425Y-109.2
X157.7Y-92.6
X157.7Y-99.7
X157.725Y-112.45
X158.0Y-86.0
X158.0Y-91.0
X158.0Y-97.3
X158.0Y-144.0
X158.05Y-102.6
X158.16Y-131.29
X158.375Y-118.375
X158.71Y-142.51
X159.0Y-86.0
X159.0Y-92.0
X159.0Y-100.0
X159.0Y-144.0
X159.05Y-102.6
X159.075Y-111.225
X159.2Y-126.27
X159.45Y-131.7
X159.47Y-143.17
X159.8Y-127.2
X159.9Y-131.0
X160.0Y-86.0
X160.0Y-92.0
X160.0Y-94.0
X160.0Y-100.0
X160.0Y-144.0
X160.05Y-102.6
X160.09Y-132.29
X160.13Y-130.21
X160.5Y-137.2
X160.6Y-120.7
X160.675Y-110.325
X160.8Y-111.5
X160.9Y-135.4
X160.96Y-141.2
X161.0Y-86.0
X161.0Y-93.0
X161.0Y-95.0
X161.0Y-100.0
X161.0Y-144.0
X161.05Y-102.6
X161.34Y-134.18
X162.0Y-86.0
X162.0Y-91.0
X162.0Y-94.0
X162.0Y-95.0
X162.0Y-96.0
X162.0Y-100.0
X162.0Y-144.0
X162.05Y-102.6
X162.65Y-111.275
X163.0Y-86.0
X163.0Y-91.0
X163.0Y-92.0
X163.0Y-99.5
X163.0Y-144.0
X163.05Y-102.6
X163.4Y-129.0
X163.5Y-94.1
X163.9Y-118.35
X164.0Y-86.0
X164.0Y-87.0
X164.0Y-88.0
X164.0Y-89.0
X164.0Y-90.0
X164.0Y-91.0
X164.0Y-93.0
X164.0Y-120.675
X164.0Y-144.0
X164.05Y-102.6
X164.1Y-123.675
X164.9Y-141.4
X165.0Y-87.0
X165.0Y-88.0
X165.0Y-89.0
X165.0Y-90.0
X165.0Y-91.0
X165.0Y-94.0
X165.0Y-100.0
X165.0Y-115.5
X165.0Y-144.0
X165.002Y-130.876
X165.05Y-102.6
X165.2Y-98.6
X165.3Y-95.3
X165.725Y-111.275
X165.9Y-115.5
X165.95Y-120.675
X166.0Y-87.0
X166.0Y-88.0
X166.0Y-89.0
X166.0Y-90.0
X166.0Y-91.0
X166.0Y-96.0
X166.0Y-99.0
X166.0Y-100.0
X166.0Y-118.35
X166.0Y-144.0
X166.06Y-94.77
X166.7Y-123.7
X166.9Y-126.7
X167.0Y-87.0
X167.0Y-88.0
X167.0Y-89.0
X167.0Y-90.0
X167.0Y-91.0
X167.0Y-93.0
X167.0Y-95.0
X167.0Y-96.0
X167.0Y-100.0
X167.0Y-140.5
X167.0Y-144.0
X167.5Y-99.0
X167.7Y-132.0
X167.725Y-126.725
X168.0Y-86.0
X168.0Y-87.0
X168.0Y-88.0
X168.0Y-89.0
X168.0Y-90.0
X168.0Y-91.0
X168.0Y-100.0
X168.0Y-120.7
X168.0Y-144.0
X168.6Y-140.975
X168.7Y-135.2
X169.0Y-86.0
X169.0Y-91.0
X169.0Y-93.0
X169.0Y-94.0
X169.0Y-99.0
X169.0Y-100.0
X169.0Y-144.0
X169.1Y-95.5
X169.2Y-132.8
X169.4Y-141.4
X169.6Y-111.4
X169.6Y-115.5
X169.7Y-127.8
X169.8Y-133.6
X170.0Y-86.0
X170.0Y-91.0
X170.0Y-92.0
X170.0Y-93.0
X170.0Y-100.0
X170.0Y-144.0
X170.1Y-118.4
X170.634Y-130.79
X170.8Y-94.1
X171.0Y-86.0
X171.0Y-144.0
X171.018Y-134.619
X171.2Y-140.975
X171.275Y-114.3
X171.3Y-111.4
X171.3Y-127.9
X171.85Y-100.02
X172.0Y-86.0
X172.0Y-92.0
X172.0Y-93.0
X172.0Y-144.0
X172.275Y-102.5
X172.4Y-116.0
X172.404Y-124.5
X172.44Y-98.61
X172.6Y-131.7
X172.7Y-133.16
X172.8Y-101.375
X173.0Y-86.0
X173.0Y-91.0
X173.0Y-92.0
X173.0Y-100.0
X173.0Y-144.0
X173.2Y-123.1
X173.4Y-135.659
X173.5Y-110.7
X173.5Y-111.5
X173.5Y-117.4
X173.6Y-136.5
X173.7Y-137.6
X173.7Y-138.4
X173.8Y-120.7
X174.0Y-86.0
X174.0Y-87.0
X174.0Y-88.0
X174.0Y-89.0
X174.0Y-90.0
X174.0Y-94.9
X174.0Y-134.2
X174.0Y-144.0
X174.1Y-122.7
X174.3Y-110.7
X174.3Y-111.5
X174.3Y-117.4
X174.43Y-121.94
X174.8Y-132.6
X174.9Y-96.525
X174.9Y-129.2
X174.9Y-133.4
X174.92Y-88.83
X174.956Y-131.694
X175.0Y-86.0
X175.47Y-122.818
X175.6Y-136.5
X175.6Y-137.4
X175.6Y-138.2
X175.9Y-92.7
X176.0Y-86.0
X176.0Y-144.0
X176.275Y-103.125
X176.289Y-103.979
X176.325Y-102.3
X176.38Y-94.43
X176.4Y-124.9
X176.4Y-129.2
X176.6Y-135.3
X176.625Y-105.925
X176.65Y-107.75
X176.75Y-106.85
X176.875Y-104.75
X176.9Y-110.7
X176.9Y-111.9
X177.0Y-86.0
X177.0Y-144.0
X177.075Y-108.475
X177.1Y-117.4
X177.125Y-118.7
X177.349Y-105.524
X177.4Y-109.35
X177.5Y-86.7
X177.6Y-92.86
X177.6Y-96.51
X177.6Y-111.3
X177.7Y-98.5
X177.8Y-125.0
X177.9Y-129.2
X177.925Y-102.05
X178.0Y-86.0
X178.0Y-144.0
X178.3Y-87.9
X178.3Y-108.2
X178.45Y-96.05
X178.538Y-90.55
X178.6Y-130.2
X178.725Y-96.825
X178.8Y-100.4
X179.0Y-86.0
X179.0Y-144.0
X179.025Y-98.475
X179.1Y-116.0
X179.5Y-107.575
X179.5Y-114.3
X179.5Y-129.2
X179.825Y-89.175
X179.98Y-115.01
X180.0Y-86.0
X180.0Y-144.0
X180.1Y-141.6
X180.2Y-111.0
X180.7Y-124.1
X180.763Y-96.2
X180.95Y-98.15
X181.0Y-86.0
X181.0Y-132.25
X181.1Y-107.425
X181.4Y-92.5
X181.4Y-94.3
X181.693Y-111.373
X181.7Y-141.0
X181.71Y-116.26
X181.9Y-102.3
X182.0Y-86.0
X182.0Y-144.0
X182.26Y-114.87
X182.3Y-104.95
X182.58Y-108.3
X182.625Y-105.725
X182.73Y-112.22
X182.875Y-92.725
X182.95Y-94.425
X183.0Y-86.0
X183.0Y-114.28
X183.0Y-131.6
X183.0Y-139.8
X183.0Y-144.0
X183.1Y-129.7
X183.2Y-109.0
X183.275Y-124.15
X183.5Y-103.5
X183.5Y-104.35
X183.7Y-101.5
X183.7Y-116.39
X183.775Y-106.7
X183.8Y-87.8
X183.9Y-107.55
X184.0Y-86.0
X184.0Y-98.2
X184.0Y-144.0
X184.3Y-94.4
X184.3Y-117.6
X184.4Y-137.2
X184.5Y-90.7
X184.5Y-92.9
X184.5Y-119.2
X184.8Y-98.751
X184.9Y-101.1
X184.9Y-120.7
X184.925Y-138.15
X185.0Y-86.0
X185.0Y-134.1
X185.0Y-144.0
X185.1Y-100.0
X185.1Y-136.6
X185.3Y-103.4
X185.45Y-111.274
X185.525Y-112.15
X185.6Y-135.9
X185.7Y-88.0
X185.706Y-126.694
X185.856Y-105.456
X186.0Y-86.0
X186.0Y-144.0
X186.025Y-134.075
X186.075Y-139.1
X186.2Y-107.6
X186.204Y-108.5
X186.3Y-104.025
X186.3Y-122.1
X186.3Y-123.7
X186.401Y-106.701
X186.425Y-115.9
X186.7Y-101.249
X186.706Y-98.125
X186.9Y-105.2
X187.0Y-86.0
X187.0Y-110.9
X187.0Y-144.0
X187.2Y-128.6
X187.5Y-105.9
X187.559Y-101.28
X187.6Y-104.6
X187.6Y-115.6
X187.614Y-98.114
X187.7Y-107.3
X187.7Y-108.8
X187.7Y-122.3
X187.76Y-124.7
X187.8Y-91.7
X187.9Y-129.5
X187.925Y-130.375
X188.0Y-86.0
X188.0Y-144.0
X188.1Y-94.1
X188.1Y-131.2
X188.3Y-105.8
X188.31Y-102.7
X188.376Y-111.2
X188.4Y-110.4
X188.75Y-124.69
X188.774Y-115.725
X188.86Y-101.92
X188.9Y-140.425
X188.9Y-141.225
X188.95Y-121.7
X189.0Y-86.0
X189.0Y-144.0
X189.1Y-108.0
X189.375Y-138.0
X189.5Y-90.3
X189.7Y-94.3
X189.7Y-111.0
X189.78Y-124.68
X189.8Y-101.7
X189.86Y-107.09
X189.9Y-89.5
X189.97Y-123.88
X190.0Y-86.0
X190.0Y-144.0
X190.1Y-92.3
X190.1Y-109.4
X190.1Y-110.2
X190.2Y-91.0
X190.374Y-137.15
X190.396Y-106.1
X190.6Y-101.2
X190.675Y-136.275
X191.0Y-86.0
X191.0Y-105.4
X191.0Y-144.0
X191.099Y-116.25
X191.215Y-111.017
X191.275Y-114.75
X191.3Y-125.2
X191.5Y-127.1
X191.55Y-133.4
X191.8Y-131.4
X191.875Y-135.725
X191.9Y-116.7
X191.975Y-130.25
X192.0Y-86.0
X192.0Y-144.0
X192.1Y-108.7
X192.2Y-101.0
X192.2Y-105.4
X192.2Y-107.9
X192.575Y-113.95
X192.575Y-115.525
X192.581Y-111.197
X192.7Y-99.349
X192.7Y-103.1
X192.725Y-96.05
X192.75Y-134.4
X192.775Y-98.025
X192.8Y-126.5
X193.0Y-86.0
X193.0Y-105.1
X193.1Y-109.1
X193.1Y-110.5
X193.1Y-144.0
X193.2Y-101.0
X193.55Y-116.35
X193.575Y-111.2
X193.8Y-108.5
X194.0Y-86.0
X194.2Y-123.9
X194.3Y-101.0
X194.3Y-104.6
X194.3Y-105.4
X194.3Y-144.0
X194.9Y-125.5
X195.0Y-86.0
X195.0Y-110.0
X195.025Y-116.1
X195.225Y-128.1
X195.3Y-132.23
X195.4Y-101.0
X195.4Y-104.6
X195.4Y-105.4
X195.5Y-97.9
X195.675Y-136.2
X195.7Y-116.6
X195.7Y-125.7
X195.7Y-143.8
X196.0Y-115.0
X196.1Y-86.2
X196.375Y-130.225
X196.5Y-101.0
X196.712Y-121.629
X196.726Y-116.666
X196.9Y-117.5
X196.9Y-143.2
X197.2Y-86.8
X197.2Y-124.8
X197.3Y-137.0
X197.525Y-118.075
X197.6Y-122.0
X197.8Y-93.9
X197.8Y-99.0
X197.9Y-142.4
X198.0Y-128.9
X198.1Y-87.7
X198.1Y-119.7
X198.243Y-118.839
X198.3Y-120.5
X198.3Y-133.5
X198.6Y-141.3
X198.7Y-88.8
X198.9Y-140.1
X199.0Y-90.0
X199.0Y-91.5
X199.0Y-135.0
X199.0Y-136.0
X199.0Y-137.0
X199.0Y-138.0
X199.0Y-139.0
X199.025Y-92.85
X199.4Y-122.07
X199.4Y-123.37
X199.4Y-124.77
X199.4Y-126.0
X199.4Y-127.3
X199.4Y-128.6
X199.4Y-129.9
X199.4Y-131.3
X199.4Y-132.7
X199.4Y-133.9
T3
X159.726Y-87.7
X159.726Y-89.4
X161.326Y-87.7
X161.326Y-89.4
X170.374Y-87.7
X170.374Y-89.4
X171.974Y-87.7
X171.974Y-89.4
T4
X110.4Y-95.45
X121.9Y-110.25
X123.8Y-105.0
X126.7Y-105.0
X138.38Y-109.91
X138.4Y-117.175
T5
X114.5Y-88.45
X115.75Y-88.45
X117.0Y-88.45
T6
X150.19Y-127.25
X151.46Y-127.25
X152.73Y-127.25
X154.0Y-127.25
T7
X107.096Y-105.0
X107.096Y-107.5
X107.096Y-110.0
X107.096Y-112.5
X107.096Y-115.0
X107.096Y-117.5
X107.096Y-120.0
X107.096Y-122.5
X107.096Y-125.0
X110.096Y-105.0
X110.096Y-107.5
X110.096Y-110.0
X110.096Y-112.5
X110.096Y-115.0
X110.096Y-117.5
X110.096Y-120.0
X110.096Y-122.5
X110.096Y-125.0
T8
X154.049Y-140.13
X157.399Y-140.13
T9
X105.0Y-90.0
X105.0Y-140.0
X195.0Y-90.0
X195.0Y-140.0
T0
M30
