M48
; DRILL file {KiCad 7.0.5} date Fri Jun 30 09:15:04 2023
; FORMAT={-:-/ absolute / metric / decimal}
; #@! TF.CreationDate,2023-06-30T09:15:04+08:00
; #@! TF.GenerationSoftware,Kicad,Pcbnew,7.0.5
; #@! TF.FileFunction,MixedPlating,1,4
FMAT,2
METRIC
; #@! TA.AperFunction,Plated,PTH,ViaDrill
T1C0.300
; #@! TA.AperFunction,Plated,PTH,ViaDrill
T2C0.500
; #@! TA.AperFunction,Plated,PTH,ComponentDrill
T3C0.500
; #@! TA.AperFunction,Plated,PTH,ComponentDrill
T4C1.092
; #@! TA.AperFunction,Plated,PTH,ComponentDrill
T5C1.250
; #@! TA.AperFunction,Plated,PTH,ComponentDrill
T6C3.200
; #@! TA.AperFunction,NonPlated,NPTH,ComponentDrill
T7C1.300
; #@! TA.AperFunction,NonPlated,NPTH,ComponentDrill
T8C3.200
%
G90
G05
T1
X100.56Y-91.0
X100.56Y-93.5
X100.56Y-96.0
X100.56Y-98.5
X100.56Y-101.0
X100.56Y-103.5
X100.56Y-106.0
X100.56Y-108.5
X100.56Y-111.0
X100.56Y-113.5
X100.56Y-116.0
X100.56Y-118.5
X100.56Y-121.0
X100.56Y-123.5
X100.56Y-126.0
X100.56Y-128.5
X100.56Y-131.0
X100.56Y-133.5
X100.56Y-136.0
X100.56Y-138.5
X101.06Y-141.23
X101.17Y-88.54
X102.08Y-119.11
X103.0Y-143.5
X103.17Y-86.36
X103.95Y-123.54
X103.99Y-121.32
X104.0Y-120.35
X104.525Y-127.9
X104.75Y-124.05
X105.85Y-108.75
X105.85Y-111.25
X105.85Y-113.85
X106.0Y-85.56
X106.0Y-144.43
X106.55Y-135.5
X108.0Y-133.0
X108.5Y-85.56
X108.5Y-123.6
X108.5Y-144.43
X108.55Y-118.65
X108.55Y-121.1
X108.6Y-106.3
X108.65Y-116.2
X109.0Y-102.0
X110.0Y-141.5
X110.15Y-88.775
X111.0Y-85.56
X111.0Y-144.43
X111.1Y-103.675
X111.64Y-94.43
X112.69Y-97.81
X112.92Y-91.44
X113.1Y-125.9
X113.2Y-101.1
X113.27Y-93.8
X113.45Y-96.0
X113.5Y-85.56
X113.5Y-144.43
X113.964Y-91.555
X114.1Y-114.2
X114.46Y-119.18
X114.46Y-120.66
X114.85Y-90.8
X114.9Y-89.6
X115.5Y-94.45
X115.5Y-123.5
X115.525Y-98.375
X115.575Y-113.375
X115.625Y-110.825
X115.65Y-134.7
X116.0Y-85.56
X116.0Y-144.43
X116.6Y-127.8
X116.6Y-129.4
X116.65Y-117.387
X116.73Y-91.35
X116.8Y-123.5
X116.9Y-97.0
X117.0Y-114.3
X117.0Y-138.7
X117.4Y-94.45
X118.0Y-97.74
X118.0Y-114.2
X118.075Y-100.8
X118.125Y-105.975
X118.2Y-123.5
X118.5Y-85.56
X118.5Y-144.43
X118.7Y-90.7
X118.8Y-95.875
X119.225Y-114.25
X119.375Y-91.225
X119.7Y-123.5
X119.975Y-116.125
X120.2Y-89.8
X120.7Y-110.8
X120.7Y-113.4
X120.75Y-94.4
X120.75Y-98.325
X120.975Y-116.65
X121.0Y-85.56
X121.0Y-118.025
X121.0Y-144.43
X121.25Y-130.75
X121.5Y-135.25
X121.91Y-89.19
X122.0Y-124.4
X122.1Y-114.3
X122.1Y-118.037
X122.2Y-91.2
X122.5Y-126.8
X122.675Y-97.0
X122.75Y-94.875
X122.8Y-116.1
X123.05Y-118.037
X123.2Y-114.3
X123.2Y-120.287
X123.4Y-107.249
X123.5Y-85.56
X123.5Y-144.43
X123.6Y-91.25
X124.04Y-100.64
X124.05Y-118.037
X124.1Y-110.7
X124.1Y-123.6
X124.1Y-125.8
X124.1Y-127.7
X124.1Y-129.7
X124.35Y-141.25
X124.4Y-105.8
X124.411Y-89.039
X124.59Y-137.9
X124.8Y-116.1
X124.9Y-132.9
X125.0Y-118.037
X125.15Y-102.15
X125.375Y-95.7
X125.375Y-96.55
X125.4Y-134.3
X125.41Y-98.76
X125.7Y-110.7
X125.85Y-105.55
X126.0Y-85.56
X126.0Y-123.6
X126.0Y-144.43
X126.05Y-131.35
X126.1Y-102.15
X126.25Y-97.95
X126.5Y-114.25
X126.55Y-143.3
X126.735Y-88.115
X127.11Y-105.52
X127.13Y-139.13
X127.2Y-110.7
X127.2Y-111.7
X127.28Y-132.62
X127.4Y-137.6
X127.45Y-133.6
X127.45Y-134.55
X127.45Y-135.6
X127.65Y-88.55
X127.65Y-114.25
X127.8Y-117.2
X127.9Y-123.6
X128.0Y-97.3
X128.3Y-113.55
X128.5Y-85.56
X128.5Y-134.35
X128.5Y-135.25
X128.5Y-144.43
X128.6Y-114.95
X128.65Y-103.3
X128.65Y-105.9
X128.7Y-110.7
X128.9Y-117.8
X128.9Y-119.2
X128.9Y-120.7
X128.95Y-96.65
X129.0Y-100.45
X129.0Y-140.7
X129.1Y-104.05
X129.35Y-114.35
X129.52Y-89.1
X129.625Y-95.775
X129.67Y-137.27
X129.68Y-93.71
X129.8Y-123.6
X129.951Y-107.8
X130.05Y-106.65
X130.07Y-89.8
X130.2Y-110.7
X130.25Y-135.3
X130.3Y-134.3
X130.45Y-97.7
X130.55Y-140.65
X130.6Y-92.05
X130.6Y-95.1
X130.6Y-115.27
X130.832Y-100.5
X130.97Y-111.94
X131.0Y-85.56
X131.0Y-144.43
X131.15Y-142.1
X131.25Y-106.15
X131.35Y-89.1
X131.65Y-115.27
X131.7Y-110.7
X131.7Y-113.65
X131.7Y-123.6
X131.8Y-132.5
X131.9Y-139.8
X132.05Y-96.5
X132.05Y-105.6
X132.1Y-92.0
X132.1Y-116.95
X132.22Y-93.69
X132.35Y-135.6
X132.35Y-136.75
X132.6Y-132.5
X132.65Y-124.35
X132.65Y-142.1
X132.7Y-140.6
X132.8Y-113.9
X132.85Y-96.7
X133.3Y-110.7
X133.45Y-132.5
X133.45Y-136.75
X133.5Y-85.56
X133.5Y-123.6
X133.5Y-135.55
X133.5Y-144.43
X133.6Y-97.15
X133.6Y-112.35
X133.7Y-114.4
X133.75Y-96.3
X133.95Y-137.9
X133.95Y-139.2
X133.95Y-140.6
X133.95Y-142.05
X133.969Y-134.8
X134.0Y-104.55
X134.02Y-105.61
X134.35Y-97.45
X134.35Y-132.5
X134.55Y-89.7
X134.65Y-135.55
X134.65Y-136.8
X134.7Y-93.9
X134.8Y-113.5
X134.9Y-91.25
X134.9Y-110.7
X134.9Y-112.3
X135.1Y-101.7
X135.23Y-97.65
X135.3Y-117.15
X135.537Y-92.837
X135.7Y-121.0
X135.8Y-101.25
X135.85Y-113.4
X135.89Y-90.55
X135.9Y-133.05
X135.95Y-134.3
X135.95Y-135.55
X135.95Y-136.8
X136.0Y-85.56
X136.0Y-128.6
X136.0Y-129.7
X136.0Y-130.8
X136.0Y-131.85
X136.0Y-144.43
X136.1Y-124.4
X136.11Y-91.46
X136.2Y-109.3
X136.4Y-110.7
X136.4Y-112.3
X136.7Y-93.65
X136.7Y-95.05
X136.75Y-90.3
X136.75Y-96.35
X136.8Y-108.6
X136.8Y-121.0
X136.85Y-113.4
X136.98Y-106.47
X137.05Y-104.9
X137.05Y-133.05
X137.05Y-134.35
X137.05Y-135.55
X137.25Y-103.8
X137.34Y-136.46
X137.34Y-137.26
X137.75Y-103.0
X137.95Y-113.4
X138.0Y-121.0
X138.0Y-134.9
X138.2Y-110.9
X138.2Y-112.3
X138.2Y-136.46
X138.2Y-137.27
X138.5Y-85.56
X138.5Y-144.43
X138.8Y-88.7
X139.05Y-113.4
X139.1Y-100.35
X139.1Y-124.4
X139.2Y-121.0
X139.5Y-138.4
X139.5Y-140.1
X139.7Y-88.25
X139.75Y-127.9
X139.8Y-94.575
X140.0Y-110.9
X140.0Y-112.3
X140.025Y-126.425
X140.35Y-93.95
X140.5Y-90.675
X140.55Y-95.65
X140.6Y-138.25
X140.75Y-104.75
X141.0Y-85.56
X141.0Y-97.75
X141.0Y-144.43
X141.1Y-134.5
X141.11Y-133.67
X141.44Y-111.33
X141.46Y-119.01
X141.46Y-120.76
X141.46Y-122.51
X141.56Y-115.51
X141.56Y-117.26
X141.8Y-90.7
X141.8Y-100.95
X141.862Y-89.612
X141.925Y-133.675
X141.93Y-134.49
X142.375Y-103.05
X142.5Y-114.0
X142.7Y-132.5
X142.75Y-133.5
X142.775Y-134.5
X142.85Y-109.95
X143.0Y-98.5
X143.5Y-85.56
X143.5Y-144.43
X143.75Y-113.0
X143.8Y-129.5
X143.8Y-130.5
X143.8Y-131.5
X143.8Y-132.5
X143.8Y-133.5
X143.8Y-134.5
X143.8Y-137.9
X144.2Y-139.6
X144.2Y-140.6
X144.2Y-141.6
X144.475Y-90.05
X144.6Y-125.4
X144.75Y-99.5
X144.8Y-105.05
X144.85Y-138.0
X144.9Y-130.55
X144.9Y-131.45
X144.9Y-132.45
X144.9Y-133.55
X144.9Y-134.55
X145.4Y-139.6
X145.75Y-98.25
X146.0Y-85.56
X146.0Y-144.43
X146.1Y-90.6
X146.4Y-100.15
X146.8Y-107.4
X146.936Y-132.064
X147.0Y-134.25
X147.4Y-136.7
X147.4Y-140.2
X147.8Y-104.35
X147.8Y-128.65
X148.2Y-98.75
X148.2Y-133.5
X148.5Y-85.56
X148.5Y-89.85
X148.5Y-144.43
X148.8Y-138.2
X148.95Y-98.35
X149.45Y-95.5
X149.5Y-100.15
X149.5Y-111.8
X149.55Y-96.4
X149.686Y-134.814
X149.75Y-92.9
X149.9Y-94.15
X150.0Y-91.0
X150.4Y-129.6
X150.75Y-110.95
X150.75Y-122.8
X150.85Y-119.25
X151.0Y-85.56
X151.0Y-144.43
X151.35Y-89.9
X151.35Y-98.85
X151.938Y-102.366
X151.97Y-103.8
X152.0Y-101.0
X152.2Y-138.7
X152.5Y-103.05
X152.55Y-101.65
X152.85Y-104.6
X152.9Y-94.6
X152.921Y-90.55
X152.93Y-99.58
X153.2Y-87.15
X153.35Y-118.9
X153.35Y-119.7
X153.35Y-123.25
X153.4Y-107.75
X153.4Y-110.2
X153.5Y-144.43
X153.6Y-101.17
X153.65Y-120.5
X153.7Y-91.3
X153.85Y-122.2
X154.0Y-129.2
X154.2Y-93.7
X154.25Y-107.75
X154.3Y-133.8
X154.35Y-100.35
X154.375Y-120.875
X154.9Y-92.7
X154.9Y-142.4
X155.05Y-104.75
X155.45Y-94.6
X155.45Y-107.55
X156.0Y-101.15
X156.0Y-144.43
X156.675Y-107.325
X156.775Y-139.95
X156.8Y-101.15
X156.95Y-89.17
X156.95Y-90.2
X157.05Y-92.877
X158.0Y-112.0
X158.0Y-117.0
X158.0Y-132.0
X158.05Y-95.7
X158.1Y-120.4
X158.5Y-144.43
X158.8Y-98.9
X159.25Y-101.5
X159.3Y-92.8
X159.5Y-103.3
X159.5Y-141.75
X159.6Y-98.9
X159.75Y-126.95
X160.0Y-133.1
X160.1Y-102.45
X160.225Y-94.475
X160.3Y-95.55
X160.4Y-98.9
X160.8Y-101.25
X161.0Y-144.43
X161.254Y-94.854
X161.35Y-98.249
X161.4Y-120.4
X161.46Y-97.08
X162.3Y-96.45
X162.4Y-138.65
X162.4Y-140.4
X162.65Y-89.45
X162.9Y-139.55
X162.95Y-93.046
X163.0Y-112.0
X163.0Y-117.0
X163.02Y-91.9
X163.025Y-141.55
X163.34Y-97.39
X163.35Y-133.4
X163.4Y-138.65
X163.4Y-140.4
X163.42Y-131.67
X163.43Y-130.04
X163.5Y-144.43
X163.6Y-91.2
X163.6Y-102.1
X163.6Y-126.0
X163.65Y-132.53
X163.74Y-99.58
X163.75Y-96.6
X163.76Y-130.85
X163.775Y-93.325
X163.811Y-94.611
X163.9Y-95.8
X164.6Y-120.4
X164.696Y-99.6
X164.7Y-134.5
X165.5Y-95.4
X165.626Y-138.474
X165.75Y-126.95
X166.0Y-144.43
X166.1Y-96.2
X166.25Y-100.4
X166.25Y-139.9
X166.35Y-97.8
X166.45Y-91.4
X166.625Y-105.612
X166.75Y-126.95
X166.964Y-94.936
X167.25Y-91.4
X167.45Y-95.82
X167.47Y-97.13
X167.72Y-129.88
X168.15Y-91.4
X168.22Y-88.06
X168.5Y-144.43
X168.74Y-96.31
X168.99Y-129.9
X169.05Y-88.8
X169.05Y-91.3
X169.1Y-111.2
X169.1Y-112.9
X169.1Y-115.05
X169.1Y-116.6
X169.1Y-118.65
X169.1Y-120.3
X169.45Y-87.18
X169.6Y-95.905
X169.65Y-135.1
X170.3Y-100.6
X170.34Y-93.35
X170.38Y-85.58
X170.75Y-106.1
X170.8Y-126.1
X171.0Y-144.43
X171.15Y-95.6
X171.53Y-129.95
X171.6Y-131.05
X171.601Y-93.371
X171.61Y-86.28
X172.2Y-141.1
X172.54Y-94.16
X172.8Y-129.85
X172.83Y-93.39
X172.88Y-86.29
X172.9Y-101.5
X172.95Y-100.6
X173.0Y-131.05
X173.12Y-99.68
X173.5Y-144.43
X173.89Y-99.05
X173.9Y-106.4
X174.05Y-93.45
X174.1Y-94.3
X174.15Y-86.29
X174.2Y-118.8
X174.21Y-119.68
X174.22Y-120.56
X174.4Y-111.25
X174.4Y-112.25
X174.4Y-113.25
X174.4Y-114.25
X174.4Y-115.2
X174.4Y-117.0
X174.695Y-91.3
X174.85Y-93.75
X174.9Y-126.0
X175.1Y-135.5
X175.4Y-87.5
X175.55Y-131.0
X175.65Y-90.25
X176.0Y-144.43
X176.15Y-104.25
X176.65Y-111.3
X176.65Y-112.3
X176.75Y-124.25
X176.8Y-110.25
X176.92Y-119.52
X177.0Y-140.55
X177.05Y-134.5
X177.1Y-89.35
X177.15Y-100.1
X177.2Y-95.61
X177.2Y-96.5
X177.5Y-85.6
X178.25Y-120.275
X178.275Y-121.9
X178.5Y-96.5
X178.5Y-144.43
X178.51Y-95.57
X178.8Y-99.95
X179.0Y-128.0
X179.45Y-105.0
X179.5Y-113.5
X179.5Y-119.0
X179.62Y-99.95
X179.75Y-102.5
X180.0Y-85.6
X180.0Y-121.1
X180.57Y-100.04
X181.0Y-110.0
X181.0Y-144.43
X181.3Y-102.95
X181.4Y-131.3
X182.57Y-100.08
X182.6Y-85.6
X182.85Y-103.4
X183.0Y-113.5
X183.0Y-119.0
X184.1Y-143.5
X184.6Y-87.5
X184.7Y-90.0
X184.7Y-92.5
X184.7Y-95.0
X184.7Y-97.5
X184.7Y-100.0
X184.7Y-102.5
X184.7Y-105.0
X184.7Y-107.5
X184.7Y-110.0
X184.7Y-112.5
X184.7Y-120.0
X184.7Y-122.5
X184.7Y-125.0
X184.7Y-127.5
X184.7Y-130.0
X184.7Y-132.5
X184.7Y-135.0
X184.7Y-137.5
X184.7Y-140.0
T2
X109.15Y-137.1
X109.15Y-138.35
X125.73Y-122.2
X127.67Y-122.23
X133.15Y-125.65
X136.11Y-122.2
X137.84Y-122.21
X140.25Y-116.4
X140.25Y-117.95
X167.25Y-142.15
T3
X149.15Y-136.6
X150.4Y-136.6
X151.65Y-136.6
T4
X107.096Y-105.0
X107.096Y-107.5
X107.096Y-110.0
X107.096Y-112.5
X107.096Y-115.0
X107.096Y-117.5
X107.096Y-120.0
X107.096Y-122.5
X107.096Y-125.0
X110.096Y-105.0
X110.096Y-107.5
X110.096Y-110.0
X110.096Y-112.5
X110.096Y-115.0
X110.096Y-117.5
X110.096Y-120.0
X110.096Y-122.5
X110.096Y-125.0
T5
X147.25Y-116.0
T6
X105.0Y-90.0
X105.0Y-140.0
X181.0Y-90.0
X181.0Y-140.0
T7
X113.2Y-90.0
X116.55Y-90.0
T8
X105.596Y-99.5
X105.596Y-130.5
T0
M30
