%TF.GenerationSoftware,KiCad,Pcbnew,(7.0.0)*%
%TF.CreationDate,2023-02-21T14:53:18+08:00*%
%TF.ProjectId,roam,726f616d-2e6b-4696-9361-645f70636258,rev?*%
%TF.SameCoordinates,Original*%
%TF.FileFunction,Soldermask,Bot*%
%TF.FilePolarity,Negative*%
%FSLAX46Y46*%
G04 Gerber Fmt 4.6, Leading zero omitted, Abs format (unit mm)*
G04 Created by KiCad (PCBNEW (7.0.0)) date 2023-02-21 14:53:18*
%MOMM*%
%LPD*%
G01*
G04 APERTURE LIST*
G04 Aperture macros list*
%AMRoundRect*
0 Rectangle with rounded corners*
0 $1 Rounding radius*
0 $2 $3 $4 $5 $6 $7 $8 $9 X,Y pos of 4 corners*
0 Add a 4 corners polygon primitive as box body*
4,1,4,$2,$3,$4,$5,$6,$7,$8,$9,$2,$3,0*
0 Add four circle primitives for the rounded corners*
1,1,$1+$1,$2,$3*
1,1,$1+$1,$4,$5*
1,1,$1+$1,$6,$7*
1,1,$1+$1,$8,$9*
0 Add four rect primitives between the rounded corners*
20,1,$1+$1,$2,$3,$4,$5,0*
20,1,$1+$1,$4,$5,$6,$7,0*
20,1,$1+$1,$6,$7,$8,$9,0*
20,1,$1+$1,$8,$9,$2,$3,0*%
G04 Aperture macros list end*
%ADD10C,0.010000*%
%ADD11R,1.000000X1.000000*%
%ADD12O,1.000000X1.000000*%
%ADD13C,5.600000*%
%ADD14C,3.200400*%
%ADD15C,1.600200*%
%ADD16RoundRect,0.200000X0.200000X0.450000X-0.200000X0.450000X-0.200000X-0.450000X0.200000X-0.450000X0*%
%ADD17O,0.800000X1.300000*%
%ADD18C,2.000000*%
%ADD19RoundRect,0.225000X0.225000X0.250000X-0.225000X0.250000X-0.225000X-0.250000X0.225000X-0.250000X0*%
%ADD20C,1.300000*%
%ADD21R,1.400000X1.400000*%
%ADD22RoundRect,0.200000X-0.275000X0.200000X-0.275000X-0.200000X0.275000X-0.200000X0.275000X0.200000X0*%
%ADD23RoundRect,0.250000X0.787500X0.925000X-0.787500X0.925000X-0.787500X-0.925000X0.787500X-0.925000X0*%
%ADD24R,0.900000X1.200000*%
%ADD25R,1.300000X1.800000*%
%ADD26RoundRect,0.218750X-0.256250X0.218750X-0.256250X-0.218750X0.256250X-0.218750X0.256250X0.218750X0*%
%ADD27RoundRect,0.225000X-0.225000X-0.250000X0.225000X-0.250000X0.225000X0.250000X-0.225000X0.250000X0*%
%ADD28RoundRect,0.250000X-0.312500X-0.625000X0.312500X-0.625000X0.312500X0.625000X-0.312500X0.625000X0*%
%ADD29RoundRect,0.150000X-0.150000X-0.200000X0.150000X-0.200000X0.150000X0.200000X-0.150000X0.200000X0*%
G04 APERTURE END LIST*
%TO.C,H5*%
G36*
X176895058Y-109780979D02*
G01*
X175905795Y-109780979D01*
X175905795Y-109620558D01*
X176895058Y-109620558D01*
X176895058Y-109780979D01*
G37*
D10*
X176895058Y-109780979D02*
X175905795Y-109780979D01*
X175905795Y-109620558D01*
X176895058Y-109620558D01*
X176895058Y-109780979D01*
G36*
X179461795Y-113069611D02*
G01*
X179034005Y-113069611D01*
X179034005Y-113550874D01*
X179461795Y-113550874D01*
X179461795Y-113711295D01*
X178472532Y-113711295D01*
X178472532Y-113550874D01*
X178873584Y-113550874D01*
X178873584Y-113069611D01*
X178472532Y-113069611D01*
X178472532Y-112882453D01*
X179461795Y-112882453D01*
X179461795Y-113069611D01*
G37*
X179461795Y-113069611D02*
X179034005Y-113069611D01*
X179034005Y-113550874D01*
X179461795Y-113550874D01*
X179461795Y-113711295D01*
X178472532Y-113711295D01*
X178472532Y-113550874D01*
X178873584Y-113550874D01*
X178873584Y-113069611D01*
X178472532Y-113069611D01*
X178472532Y-112882453D01*
X179461795Y-112882453D01*
X179461795Y-113069611D01*
G36*
X178178426Y-111144558D02*
G01*
X177750637Y-111144558D01*
X177750637Y-111625821D01*
X178178426Y-111625821D01*
X178178426Y-111786243D01*
X177189163Y-111786243D01*
X177189163Y-111625821D01*
X177590216Y-111625821D01*
X177590216Y-111144558D01*
X177189163Y-111144558D01*
X177189163Y-110957400D01*
X178178426Y-110957400D01*
X178178426Y-111144558D01*
G37*
X178178426Y-111144558D02*
X177750637Y-111144558D01*
X177750637Y-111625821D01*
X178178426Y-111625821D01*
X178178426Y-111786243D01*
X177189163Y-111786243D01*
X177189163Y-111625821D01*
X177590216Y-111625821D01*
X177590216Y-111144558D01*
X177189163Y-111144558D01*
X177189163Y-110957400D01*
X178178426Y-110957400D01*
X178178426Y-111144558D01*
G36*
X176066216Y-108176769D02*
G01*
X176306847Y-108176769D01*
X176306847Y-107722243D01*
X176467268Y-107722243D01*
X176467268Y-108176769D01*
X176734637Y-108176769D01*
X176734637Y-107668769D01*
X176895058Y-107668769D01*
X176895058Y-108363927D01*
X175905795Y-108363927D01*
X175905795Y-107642032D01*
X176066216Y-107642032D01*
X176066216Y-108176769D01*
G37*
X176066216Y-108176769D02*
X176306847Y-108176769D01*
X176306847Y-107722243D01*
X176467268Y-107722243D01*
X176467268Y-108176769D01*
X176734637Y-108176769D01*
X176734637Y-107668769D01*
X176895058Y-107668769D01*
X176895058Y-108363927D01*
X175905795Y-108363927D01*
X175905795Y-107642032D01*
X176066216Y-107642032D01*
X176066216Y-108176769D01*
G36*
X176052847Y-111799611D02*
G01*
X176060467Y-112073664D01*
X176068087Y-112347716D01*
X176306847Y-112347716D01*
X176306847Y-111866453D01*
X176467268Y-111866453D01*
X176467268Y-112347716D01*
X176734637Y-112347716D01*
X176734637Y-111812979D01*
X176895058Y-111812979D01*
X176895058Y-112508137D01*
X175905795Y-112508137D01*
X175905795Y-111782691D01*
X176052847Y-111799611D01*
G37*
X176052847Y-111799611D02*
X176060467Y-112073664D01*
X176068087Y-112347716D01*
X176306847Y-112347716D01*
X176306847Y-111866453D01*
X176467268Y-111866453D01*
X176467268Y-112347716D01*
X176734637Y-112347716D01*
X176734637Y-111812979D01*
X176895058Y-111812979D01*
X176895058Y-112508137D01*
X175905795Y-112508137D01*
X175905795Y-111782691D01*
X176052847Y-111799611D01*
G36*
X177262690Y-112994309D02*
G01*
X177336216Y-113002769D01*
X177343835Y-113276821D01*
X177351455Y-113550874D01*
X177590216Y-113550874D01*
X177590216Y-113069611D01*
X177750637Y-113069611D01*
X177750637Y-113550874D01*
X178018005Y-113550874D01*
X178018005Y-113016137D01*
X178178426Y-113016137D01*
X178178426Y-113711295D01*
X177189163Y-113711295D01*
X177189163Y-112985849D01*
X177262690Y-112994309D01*
G37*
X177262690Y-112994309D02*
X177336216Y-113002769D01*
X177343835Y-113276821D01*
X177351455Y-113550874D01*
X177590216Y-113550874D01*
X177590216Y-113069611D01*
X177750637Y-113069611D01*
X177750637Y-113550874D01*
X178018005Y-113550874D01*
X178018005Y-113016137D01*
X178178426Y-113016137D01*
X178178426Y-113711295D01*
X177189163Y-113711295D01*
X177189163Y-112985849D01*
X177262690Y-112994309D01*
G36*
X178178426Y-114647085D02*
G01*
X178096989Y-114647085D01*
X178051665Y-114644464D01*
X178028179Y-114627856D01*
X178019352Y-114584100D01*
X178018005Y-114500032D01*
X178018005Y-114352979D01*
X177189163Y-114352979D01*
X177189163Y-114165821D01*
X178018005Y-114165821D01*
X178018005Y-114016520D01*
X178019435Y-113933426D01*
X178028494Y-113890368D01*
X178052361Y-113874186D01*
X178098216Y-113871716D01*
X178178426Y-113871716D01*
X178178426Y-114647085D01*
G37*
X178178426Y-114647085D02*
X178096989Y-114647085D01*
X178051665Y-114644464D01*
X178028179Y-114627856D01*
X178019352Y-114584100D01*
X178018005Y-114500032D01*
X178018005Y-114352979D01*
X177189163Y-114352979D01*
X177189163Y-114165821D01*
X178018005Y-114165821D01*
X178018005Y-114016520D01*
X178019435Y-113933426D01*
X178028494Y-113890368D01*
X178052361Y-113874186D01*
X178098216Y-113871716D01*
X178178426Y-113871716D01*
X178178426Y-114647085D01*
G36*
X179461795Y-114647085D02*
G01*
X179380358Y-114647085D01*
X179335033Y-114644464D01*
X179311547Y-114627856D01*
X179302721Y-114584100D01*
X179301374Y-114500032D01*
X179301374Y-114352979D01*
X178472532Y-114352979D01*
X178472532Y-114165821D01*
X179301374Y-114165821D01*
X179301374Y-114016520D01*
X179302803Y-113933426D01*
X179311862Y-113890368D01*
X179335729Y-113874186D01*
X179381584Y-113871716D01*
X179461795Y-113871716D01*
X179461795Y-114647085D01*
G37*
X179461795Y-114647085D02*
X179380358Y-114647085D01*
X179335033Y-114644464D01*
X179311547Y-114627856D01*
X179302721Y-114584100D01*
X179301374Y-114500032D01*
X179301374Y-114352979D01*
X178472532Y-114352979D01*
X178472532Y-114165821D01*
X179301374Y-114165821D01*
X179301374Y-114016520D01*
X179302803Y-113933426D01*
X179311862Y-113890368D01*
X179335729Y-113874186D01*
X179381584Y-113871716D01*
X179461795Y-113871716D01*
X179461795Y-114647085D01*
G36*
X176895058Y-110716769D02*
G01*
X176813621Y-110716769D01*
X176768297Y-110714148D01*
X176744811Y-110697541D01*
X176735984Y-110653784D01*
X176734637Y-110569716D01*
X176734637Y-110422664D01*
X175905795Y-110422664D01*
X175905795Y-110235506D01*
X176734637Y-110235506D01*
X176734637Y-110086204D01*
X176736066Y-110003110D01*
X176745125Y-109960052D01*
X176768992Y-109943870D01*
X176814847Y-109941400D01*
X176895058Y-109941400D01*
X176895058Y-110716769D01*
G37*
X176895058Y-110716769D02*
X176813621Y-110716769D01*
X176768297Y-110714148D01*
X176744811Y-110697541D01*
X176735984Y-110653784D01*
X176734637Y-110569716D01*
X176734637Y-110422664D01*
X175905795Y-110422664D01*
X175905795Y-110235506D01*
X176734637Y-110235506D01*
X176734637Y-110086204D01*
X176736066Y-110003110D01*
X176745125Y-109960052D01*
X176768992Y-109943870D01*
X176814847Y-109941400D01*
X176895058Y-109941400D01*
X176895058Y-110716769D01*
G36*
X178632953Y-112454664D02*
G01*
X178871502Y-112454664D01*
X178879228Y-112220716D01*
X178879704Y-112206317D01*
X178884008Y-112099375D01*
X178890615Y-112033911D01*
X178903147Y-111999118D01*
X178925228Y-111984186D01*
X178960479Y-111978309D01*
X179034005Y-111969849D01*
X179034005Y-112454664D01*
X179301374Y-112454664D01*
X179301374Y-111919927D01*
X179463347Y-111919927D01*
X179455887Y-112274190D01*
X179448426Y-112628453D01*
X178960479Y-112635740D01*
X178472532Y-112643028D01*
X178472532Y-111919927D01*
X178632953Y-111919927D01*
X178632953Y-112454664D01*
G37*
X178632953Y-112454664D02*
X178871502Y-112454664D01*
X178879228Y-112220716D01*
X178879704Y-112206317D01*
X178884008Y-112099375D01*
X178890615Y-112033911D01*
X178903147Y-111999118D01*
X178925228Y-111984186D01*
X178960479Y-111978309D01*
X179034005Y-111969849D01*
X179034005Y-112454664D01*
X179301374Y-112454664D01*
X179301374Y-111919927D01*
X179463347Y-111919927D01*
X179455887Y-112274190D01*
X179448426Y-112628453D01*
X178960479Y-112635740D01*
X178472532Y-112643028D01*
X178472532Y-111919927D01*
X178632953Y-111919927D01*
X178632953Y-112454664D01*
G36*
X178178426Y-109966628D02*
G01*
X177463484Y-109981506D01*
X177820955Y-110259073D01*
X177903358Y-110323257D01*
X178012238Y-110409681D01*
X178087958Y-110473593D01*
X178136477Y-110521123D01*
X178163755Y-110558399D01*
X178175752Y-110591550D01*
X178178426Y-110626705D01*
X178178426Y-110716769D01*
X177189163Y-110716769D01*
X177189163Y-110529611D01*
X177891489Y-110529611D01*
X177540326Y-110257952D01*
X177426320Y-110169445D01*
X177328771Y-110091820D01*
X177262459Y-110034747D01*
X177221362Y-109991809D01*
X177199460Y-109956590D01*
X177190734Y-109922671D01*
X177189163Y-109883637D01*
X177189163Y-109780979D01*
X178178426Y-109780979D01*
X178178426Y-109966628D01*
G37*
X178178426Y-109966628D02*
X177463484Y-109981506D01*
X177820955Y-110259073D01*
X177903358Y-110323257D01*
X178012238Y-110409681D01*
X178087958Y-110473593D01*
X178136477Y-110521123D01*
X178163755Y-110558399D01*
X178175752Y-110591550D01*
X178178426Y-110626705D01*
X178178426Y-110716769D01*
X177189163Y-110716769D01*
X177189163Y-110529611D01*
X177891489Y-110529611D01*
X177540326Y-110257952D01*
X177426320Y-110169445D01*
X177328771Y-110091820D01*
X177262459Y-110034747D01*
X177221362Y-109991809D01*
X177199460Y-109956590D01*
X177190734Y-109922671D01*
X177189163Y-109883637D01*
X177189163Y-109780979D01*
X178178426Y-109780979D01*
X178178426Y-109966628D01*
G36*
X177814265Y-117860838D02*
G01*
X177972528Y-117861595D01*
X178094532Y-117862874D01*
X178174542Y-117864655D01*
X178206817Y-117866915D01*
X178209950Y-117869698D01*
X178236666Y-117907448D01*
X178285991Y-117985111D01*
X178354902Y-118097666D01*
X178440378Y-118240088D01*
X178539395Y-118407353D01*
X178648933Y-118594438D01*
X178765967Y-118796319D01*
X178797190Y-118850425D01*
X178913459Y-119051686D01*
X179021755Y-119238813D01*
X179118961Y-119406438D01*
X179201955Y-119549194D01*
X179267620Y-119661714D01*
X179312836Y-119738630D01*
X179334484Y-119774576D01*
X179373311Y-119834734D01*
X178250111Y-119834734D01*
X177959628Y-119333418D01*
X177669146Y-118832102D01*
X177080080Y-118824922D01*
X176491013Y-118817741D01*
X176218607Y-118343658D01*
X175946200Y-117869576D01*
X177061778Y-117862593D01*
X177179313Y-117861921D01*
X177411920Y-117860979D01*
X177625483Y-117860625D01*
X177814265Y-117860838D01*
G37*
X177814265Y-117860838D02*
X177972528Y-117861595D01*
X178094532Y-117862874D01*
X178174542Y-117864655D01*
X178206817Y-117866915D01*
X178209950Y-117869698D01*
X178236666Y-117907448D01*
X178285991Y-117985111D01*
X178354902Y-118097666D01*
X178440378Y-118240088D01*
X178539395Y-118407353D01*
X178648933Y-118594438D01*
X178765967Y-118796319D01*
X178797190Y-118850425D01*
X178913459Y-119051686D01*
X179021755Y-119238813D01*
X179118961Y-119406438D01*
X179201955Y-119549194D01*
X179267620Y-119661714D01*
X179312836Y-119738630D01*
X179334484Y-119774576D01*
X179373311Y-119834734D01*
X178250111Y-119834734D01*
X177959628Y-119333418D01*
X177669146Y-118832102D01*
X177080080Y-118824922D01*
X176491013Y-118817741D01*
X176218607Y-118343658D01*
X175946200Y-117869576D01*
X177061778Y-117862593D01*
X177179313Y-117861921D01*
X177411920Y-117860979D01*
X177625483Y-117860625D01*
X177814265Y-117860838D01*
G36*
X176892384Y-108525908D02*
G01*
X176890200Y-108589806D01*
X176881690Y-108689124D01*
X176542138Y-108828200D01*
X176505843Y-108843113D01*
X176385281Y-108893375D01*
X176285884Y-108935910D01*
X176217124Y-108966616D01*
X176188472Y-108981390D01*
X176189915Y-108984756D01*
X176224580Y-109005683D01*
X176297387Y-109040910D01*
X176399933Y-109086500D01*
X176523818Y-109138517D01*
X176567784Y-109156733D01*
X176689385Y-109209607D01*
X176789210Y-109256661D01*
X176857916Y-109293343D01*
X176886163Y-109315101D01*
X176892305Y-109351042D01*
X176890368Y-109415972D01*
X176881690Y-109483271D01*
X176440532Y-109302823D01*
X176316199Y-109252033D01*
X176182547Y-109197599D01*
X176071400Y-109152507D01*
X175991748Y-109120405D01*
X175952584Y-109104937D01*
X175947059Y-109102588D01*
X175915501Y-109064638D01*
X175905986Y-108986397D01*
X175906178Y-108885295D01*
X176353829Y-108705352D01*
X176483375Y-108653364D01*
X176617999Y-108599538D01*
X176729984Y-108554976D01*
X176810345Y-108523255D01*
X176850095Y-108507949D01*
X176879941Y-108502930D01*
X176892384Y-108525908D01*
G37*
X176892384Y-108525908D02*
X176890200Y-108589806D01*
X176881690Y-108689124D01*
X176542138Y-108828200D01*
X176505843Y-108843113D01*
X176385281Y-108893375D01*
X176285884Y-108935910D01*
X176217124Y-108966616D01*
X176188472Y-108981390D01*
X176189915Y-108984756D01*
X176224580Y-109005683D01*
X176297387Y-109040910D01*
X176399933Y-109086500D01*
X176523818Y-109138517D01*
X176567784Y-109156733D01*
X176689385Y-109209607D01*
X176789210Y-109256661D01*
X176857916Y-109293343D01*
X176886163Y-109315101D01*
X176892305Y-109351042D01*
X176890368Y-109415972D01*
X176881690Y-109483271D01*
X176440532Y-109302823D01*
X176316199Y-109252033D01*
X176182547Y-109197599D01*
X176071400Y-109152507D01*
X175991748Y-109120405D01*
X175952584Y-109104937D01*
X175947059Y-109102588D01*
X175915501Y-109064638D01*
X175905986Y-108986397D01*
X175906178Y-108885295D01*
X176353829Y-108705352D01*
X176483375Y-108653364D01*
X176617999Y-108599538D01*
X176729984Y-108554976D01*
X176810345Y-108523255D01*
X176850095Y-108507949D01*
X176879941Y-108502930D01*
X176892384Y-108525908D01*
G36*
X175905795Y-113524137D02*
G01*
X175905795Y-113363716D01*
X176226637Y-113363716D01*
X176387058Y-113363716D01*
X176734637Y-113363716D01*
X176734637Y-113189927D01*
X176728918Y-113091325D01*
X176699759Y-112988244D01*
X176644321Y-112928480D01*
X176560847Y-112909190D01*
X176504227Y-112922213D01*
X176440532Y-112962664D01*
X176432387Y-112971311D01*
X176404731Y-113017368D01*
X176390858Y-113084984D01*
X176387058Y-113189927D01*
X176387058Y-113363716D01*
X176226637Y-113363716D01*
X176225991Y-113250085D01*
X176225563Y-113222759D01*
X176219021Y-113170250D01*
X176196817Y-113129560D01*
X176149149Y-113087156D01*
X176066216Y-113029506D01*
X176027869Y-113003536D01*
X175960359Y-112953688D01*
X175924152Y-112913619D01*
X175909446Y-112869779D01*
X175906440Y-112808620D01*
X175905795Y-112694682D01*
X176071184Y-112815027D01*
X176236574Y-112935372D01*
X176305132Y-112853866D01*
X176392935Y-112783102D01*
X176513945Y-112744817D01*
X176648837Y-112750574D01*
X176684281Y-112759582D01*
X176767772Y-112799802D01*
X176827665Y-112866582D01*
X176866877Y-112966312D01*
X176888320Y-113105385D01*
X176894909Y-113290190D01*
X176895058Y-113524137D01*
X176734637Y-113524137D01*
X175905795Y-113524137D01*
G37*
X175905795Y-113524137D02*
X175905795Y-113363716D01*
X176226637Y-113363716D01*
X176387058Y-113363716D01*
X176734637Y-113363716D01*
X176734637Y-113189927D01*
X176728918Y-113091325D01*
X176699759Y-112988244D01*
X176644321Y-112928480D01*
X176560847Y-112909190D01*
X176504227Y-112922213D01*
X176440532Y-112962664D01*
X176432387Y-112971311D01*
X176404731Y-113017368D01*
X176390858Y-113084984D01*
X176387058Y-113189927D01*
X176387058Y-113363716D01*
X176226637Y-113363716D01*
X176225991Y-113250085D01*
X176225563Y-113222759D01*
X176219021Y-113170250D01*
X176196817Y-113129560D01*
X176149149Y-113087156D01*
X176066216Y-113029506D01*
X176027869Y-113003536D01*
X175960359Y-112953688D01*
X175924152Y-112913619D01*
X175909446Y-112869779D01*
X175906440Y-112808620D01*
X175905795Y-112694682D01*
X176071184Y-112815027D01*
X176236574Y-112935372D01*
X176305132Y-112853866D01*
X176392935Y-112783102D01*
X176513945Y-112744817D01*
X176648837Y-112750574D01*
X176684281Y-112759582D01*
X176767772Y-112799802D01*
X176827665Y-112866582D01*
X176866877Y-112966312D01*
X176888320Y-113105385D01*
X176894909Y-113290190D01*
X176895058Y-113524137D01*
X176734637Y-113524137D01*
X175905795Y-113524137D01*
G36*
X178070518Y-112012636D02*
G01*
X178113529Y-112065042D01*
X178164226Y-112169581D01*
X178195074Y-112287987D01*
X178198397Y-112397184D01*
X178189200Y-112449295D01*
X178134158Y-112598525D01*
X178046714Y-112717424D01*
X177935024Y-112804513D01*
X177807250Y-112858310D01*
X177671550Y-112877334D01*
X177536084Y-112860104D01*
X177409011Y-112805140D01*
X177298491Y-112710961D01*
X177212683Y-112576086D01*
X177176724Y-112466309D01*
X177168894Y-112304626D01*
X177212250Y-112147190D01*
X177255891Y-112061809D01*
X177300843Y-112007913D01*
X177346909Y-111997375D01*
X177401306Y-112025553D01*
X177465454Y-112073939D01*
X177407519Y-112147591D01*
X177379440Y-112195495D01*
X177352107Y-112304124D01*
X177354769Y-112423815D01*
X177388512Y-112532597D01*
X177426121Y-112585079D01*
X177517293Y-112650785D01*
X177630335Y-112686544D01*
X177748870Y-112688192D01*
X177856519Y-112651566D01*
X177910218Y-112610593D01*
X177980859Y-112510987D01*
X178015837Y-112390200D01*
X178012028Y-112262698D01*
X177966311Y-112142949D01*
X177954179Y-112122933D01*
X177929983Y-112075033D01*
X177934054Y-112045100D01*
X177966411Y-112011805D01*
X177996592Y-111986671D01*
X178028660Y-111980813D01*
X178070518Y-112012636D01*
G37*
X178070518Y-112012636D02*
X178113529Y-112065042D01*
X178164226Y-112169581D01*
X178195074Y-112287987D01*
X178198397Y-112397184D01*
X178189200Y-112449295D01*
X178134158Y-112598525D01*
X178046714Y-112717424D01*
X177935024Y-112804513D01*
X177807250Y-112858310D01*
X177671550Y-112877334D01*
X177536084Y-112860104D01*
X177409011Y-112805140D01*
X177298491Y-112710961D01*
X177212683Y-112576086D01*
X177176724Y-112466309D01*
X177168894Y-112304626D01*
X177212250Y-112147190D01*
X177255891Y-112061809D01*
X177300843Y-112007913D01*
X177346909Y-111997375D01*
X177401306Y-112025553D01*
X177465454Y-112073939D01*
X177407519Y-112147591D01*
X177379440Y-112195495D01*
X177352107Y-112304124D01*
X177354769Y-112423815D01*
X177388512Y-112532597D01*
X177426121Y-112585079D01*
X177517293Y-112650785D01*
X177630335Y-112686544D01*
X177748870Y-112688192D01*
X177856519Y-112651566D01*
X177910218Y-112610593D01*
X177980859Y-112510987D01*
X178015837Y-112390200D01*
X178012028Y-112262698D01*
X177966311Y-112142949D01*
X177954179Y-112122933D01*
X177929983Y-112075033D01*
X177934054Y-112045100D01*
X177966411Y-112011805D01*
X177996592Y-111986671D01*
X178028660Y-111980813D01*
X178070518Y-112012636D01*
G36*
X178831118Y-115630257D02*
G01*
X178991393Y-115631152D01*
X179131637Y-115633268D01*
X179243488Y-115636383D01*
X179318588Y-115640274D01*
X179348575Y-115644717D01*
X179346193Y-115653610D01*
X179322420Y-115702856D01*
X179275918Y-115790755D01*
X179209368Y-115912466D01*
X179125455Y-116063152D01*
X179026861Y-116237973D01*
X178916270Y-116432090D01*
X178796364Y-116640664D01*
X178229679Y-117622137D01*
X177121994Y-117629123D01*
X177011752Y-117629756D01*
X176779354Y-117630667D01*
X176565747Y-117630939D01*
X176376712Y-117630598D01*
X176218029Y-117629673D01*
X176095477Y-117628191D01*
X176014836Y-117626180D01*
X175981887Y-117623668D01*
X175979783Y-117608588D01*
X176001036Y-117550403D01*
X176049541Y-117450787D01*
X176124285Y-117311779D01*
X176224256Y-117135418D01*
X176499048Y-116659611D01*
X177091790Y-116646242D01*
X177684532Y-116632874D01*
X177953567Y-116166191D01*
X177967894Y-116141358D01*
X178050508Y-115999018D01*
X178124692Y-115872570D01*
X178185914Y-115769643D01*
X178229642Y-115697868D01*
X178251344Y-115664875D01*
X178258934Y-115658856D01*
X178295258Y-115647625D01*
X178362638Y-115639497D01*
X178466673Y-115634123D01*
X178612959Y-115631154D01*
X178807093Y-115630242D01*
X178831118Y-115630257D01*
G37*
X178831118Y-115630257D02*
X178991393Y-115631152D01*
X179131637Y-115633268D01*
X179243488Y-115636383D01*
X179318588Y-115640274D01*
X179348575Y-115644717D01*
X179346193Y-115653610D01*
X179322420Y-115702856D01*
X179275918Y-115790755D01*
X179209368Y-115912466D01*
X179125455Y-116063152D01*
X179026861Y-116237973D01*
X178916270Y-116432090D01*
X178796364Y-116640664D01*
X178229679Y-117622137D01*
X177121994Y-117629123D01*
X177011752Y-117629756D01*
X176779354Y-117630667D01*
X176565747Y-117630939D01*
X176376712Y-117630598D01*
X176218029Y-117629673D01*
X176095477Y-117628191D01*
X176014836Y-117626180D01*
X175981887Y-117623668D01*
X175979783Y-117608588D01*
X176001036Y-117550403D01*
X176049541Y-117450787D01*
X176124285Y-117311779D01*
X176224256Y-117135418D01*
X176499048Y-116659611D01*
X177091790Y-116646242D01*
X177684532Y-116632874D01*
X177953567Y-116166191D01*
X177967894Y-116141358D01*
X178050508Y-115999018D01*
X178124692Y-115872570D01*
X178185914Y-115769643D01*
X178229642Y-115697868D01*
X178251344Y-115664875D01*
X178258934Y-115658856D01*
X178295258Y-115647625D01*
X178362638Y-115639497D01*
X178466673Y-115634123D01*
X178612959Y-115631154D01*
X178807093Y-115630242D01*
X178831118Y-115630257D01*
G36*
X176765373Y-113721214D02*
G01*
X176804462Y-113763022D01*
X176852561Y-113850229D01*
X176906055Y-113987489D01*
X176919029Y-114115605D01*
X176891366Y-114248726D01*
X176865512Y-114312959D01*
X176779601Y-114441793D01*
X176666958Y-114535064D01*
X176536505Y-114592167D01*
X176397163Y-114612497D01*
X176257852Y-114595448D01*
X176127493Y-114540416D01*
X176015007Y-114446795D01*
X175929314Y-114313980D01*
X175921475Y-114295350D01*
X175892115Y-114194716D01*
X175880232Y-114098979D01*
X175887812Y-114024507D01*
X175919329Y-113912510D01*
X175967392Y-113810506D01*
X176023331Y-113740233D01*
X176046363Y-113723610D01*
X176080219Y-113721281D01*
X176124133Y-113757329D01*
X176179135Y-113812331D01*
X176121063Y-113890877D01*
X176075596Y-113981141D01*
X176061303Y-114100951D01*
X176087881Y-114219434D01*
X176151726Y-114322404D01*
X176249238Y-114395674D01*
X176315696Y-114419614D01*
X176439436Y-114427475D01*
X176553363Y-114392362D01*
X176647304Y-114320625D01*
X176711086Y-114218617D01*
X176734537Y-114092688D01*
X176722280Y-113983876D01*
X176682942Y-113880844D01*
X176675787Y-113869051D01*
X176648446Y-113816892D01*
X176649582Y-113785391D01*
X176678463Y-113753844D01*
X176726328Y-113719840D01*
X176765373Y-113721214D01*
G37*
X176765373Y-113721214D02*
X176804462Y-113763022D01*
X176852561Y-113850229D01*
X176906055Y-113987489D01*
X176919029Y-114115605D01*
X176891366Y-114248726D01*
X176865512Y-114312959D01*
X176779601Y-114441793D01*
X176666958Y-114535064D01*
X176536505Y-114592167D01*
X176397163Y-114612497D01*
X176257852Y-114595448D01*
X176127493Y-114540416D01*
X176015007Y-114446795D01*
X175929314Y-114313980D01*
X175921475Y-114295350D01*
X175892115Y-114194716D01*
X175880232Y-114098979D01*
X175887812Y-114024507D01*
X175919329Y-113912510D01*
X175967392Y-113810506D01*
X176023331Y-113740233D01*
X176046363Y-113723610D01*
X176080219Y-113721281D01*
X176124133Y-113757329D01*
X176179135Y-113812331D01*
X176121063Y-113890877D01*
X176075596Y-113981141D01*
X176061303Y-114100951D01*
X176087881Y-114219434D01*
X176151726Y-114322404D01*
X176249238Y-114395674D01*
X176315696Y-114419614D01*
X176439436Y-114427475D01*
X176553363Y-114392362D01*
X176647304Y-114320625D01*
X176711086Y-114218617D01*
X176734537Y-114092688D01*
X176722280Y-113983876D01*
X176682942Y-113880844D01*
X176675787Y-113869051D01*
X176648446Y-113816892D01*
X176649582Y-113785391D01*
X176678463Y-113753844D01*
X176726328Y-113719840D01*
X176765373Y-113721214D01*
G36*
X177614491Y-109581202D02*
G01*
X177477204Y-109542311D01*
X177354073Y-109469177D01*
X177254932Y-109363737D01*
X177189614Y-109227928D01*
X177178051Y-109182383D01*
X177170831Y-109036699D01*
X177329032Y-109036699D01*
X177330056Y-109117189D01*
X177362487Y-109212295D01*
X177412424Y-109291037D01*
X177503818Y-109361984D01*
X177614375Y-109398290D01*
X177732104Y-109400163D01*
X177845013Y-109367807D01*
X177941112Y-109301427D01*
X178008411Y-109201230D01*
X178023327Y-109157840D01*
X178033014Y-109035417D01*
X177999633Y-108922679D01*
X177930879Y-108828121D01*
X177834445Y-108760239D01*
X177718027Y-108727528D01*
X177589317Y-108738484D01*
X177525519Y-108762832D01*
X177421577Y-108843302D01*
X177351365Y-108960562D01*
X177329032Y-109036699D01*
X177170831Y-109036699D01*
X177169945Y-109018819D01*
X177212540Y-108861784D01*
X177303836Y-108720161D01*
X177394977Y-108635944D01*
X177526268Y-108571574D01*
X177683795Y-108551085D01*
X177810137Y-108563644D01*
X177946223Y-108618254D01*
X178063754Y-108720161D01*
X178115819Y-108788276D01*
X178183416Y-108935673D01*
X178199644Y-109090705D01*
X178164399Y-109248177D01*
X178077575Y-109402890D01*
X178012943Y-109473035D01*
X177892195Y-109548501D01*
X177756099Y-109583911D01*
X177732104Y-109583451D01*
X177614491Y-109581202D01*
G37*
X177614491Y-109581202D02*
X177477204Y-109542311D01*
X177354073Y-109469177D01*
X177254932Y-109363737D01*
X177189614Y-109227928D01*
X177178051Y-109182383D01*
X177170831Y-109036699D01*
X177329032Y-109036699D01*
X177330056Y-109117189D01*
X177362487Y-109212295D01*
X177412424Y-109291037D01*
X177503818Y-109361984D01*
X177614375Y-109398290D01*
X177732104Y-109400163D01*
X177845013Y-109367807D01*
X177941112Y-109301427D01*
X178008411Y-109201230D01*
X178023327Y-109157840D01*
X178033014Y-109035417D01*
X177999633Y-108922679D01*
X177930879Y-108828121D01*
X177834445Y-108760239D01*
X177718027Y-108727528D01*
X177589317Y-108738484D01*
X177525519Y-108762832D01*
X177421577Y-108843302D01*
X177351365Y-108960562D01*
X177329032Y-109036699D01*
X177170831Y-109036699D01*
X177169945Y-109018819D01*
X177212540Y-108861784D01*
X177303836Y-108720161D01*
X177394977Y-108635944D01*
X177526268Y-108571574D01*
X177683795Y-108551085D01*
X177810137Y-108563644D01*
X177946223Y-108618254D01*
X178063754Y-108720161D01*
X178115819Y-108788276D01*
X178183416Y-108935673D01*
X178199644Y-109090705D01*
X178164399Y-109248177D01*
X178077575Y-109402890D01*
X178012943Y-109473035D01*
X177892195Y-109548501D01*
X177756099Y-109583911D01*
X177732104Y-109583451D01*
X177614491Y-109581202D01*
G36*
X176258322Y-111537842D02*
G01*
X176129611Y-111593791D01*
X176026031Y-111638054D01*
X175955477Y-111667255D01*
X175925847Y-111678017D01*
X175923841Y-111677697D01*
X175911032Y-111649608D01*
X175905795Y-111589772D01*
X175905845Y-111581380D01*
X175913594Y-111525319D01*
X175944488Y-111490100D01*
X176012742Y-111458239D01*
X176119690Y-111416228D01*
X176119418Y-111166762D01*
X176119410Y-111159604D01*
X176280111Y-111159604D01*
X176281897Y-111243593D01*
X176286928Y-111307335D01*
X176294066Y-111331716D01*
X176307096Y-111328714D01*
X176357463Y-111309189D01*
X176429529Y-111277250D01*
X176509153Y-111239659D01*
X176582195Y-111203176D01*
X176634511Y-111174564D01*
X176651962Y-111160585D01*
X176650728Y-111159649D01*
X176617066Y-111141959D01*
X176549343Y-111109636D01*
X176460584Y-111068920D01*
X176280111Y-110987491D01*
X176280111Y-111159604D01*
X176119410Y-111159604D01*
X176119146Y-110917295D01*
X176012470Y-110872491D01*
X175998929Y-110866726D01*
X175937775Y-110834034D01*
X175911437Y-110795740D01*
X175905795Y-110733443D01*
X175905795Y-110639198D01*
X176206584Y-110773671D01*
X176314410Y-110821612D01*
X176460299Y-110885816D01*
X176596135Y-110944939D01*
X176702575Y-110990523D01*
X176787371Y-111026872D01*
X176850417Y-111058479D01*
X176882026Y-111086330D01*
X176891898Y-111119596D01*
X176889733Y-111167444D01*
X176881690Y-111261985D01*
X176413795Y-111469362D01*
X176404264Y-111473585D01*
X176294066Y-111522105D01*
X176258322Y-111537842D01*
G37*
X176258322Y-111537842D02*
X176129611Y-111593791D01*
X176026031Y-111638054D01*
X175955477Y-111667255D01*
X175925847Y-111678017D01*
X175923841Y-111677697D01*
X175911032Y-111649608D01*
X175905795Y-111589772D01*
X175905845Y-111581380D01*
X175913594Y-111525319D01*
X175944488Y-111490100D01*
X176012742Y-111458239D01*
X176119690Y-111416228D01*
X176119418Y-111166762D01*
X176119410Y-111159604D01*
X176280111Y-111159604D01*
X176281897Y-111243593D01*
X176286928Y-111307335D01*
X176294066Y-111331716D01*
X176307096Y-111328714D01*
X176357463Y-111309189D01*
X176429529Y-111277250D01*
X176509153Y-111239659D01*
X176582195Y-111203176D01*
X176634511Y-111174564D01*
X176651962Y-111160585D01*
X176650728Y-111159649D01*
X176617066Y-111141959D01*
X176549343Y-111109636D01*
X176460584Y-111068920D01*
X176280111Y-110987491D01*
X176280111Y-111159604D01*
X176119410Y-111159604D01*
X176119146Y-110917295D01*
X176012470Y-110872491D01*
X175998929Y-110866726D01*
X175937775Y-110834034D01*
X175911437Y-110795740D01*
X175905795Y-110733443D01*
X175905795Y-110639198D01*
X176206584Y-110773671D01*
X176314410Y-110821612D01*
X176460299Y-110885816D01*
X176596135Y-110944939D01*
X176702575Y-110990523D01*
X176787371Y-111026872D01*
X176850417Y-111058479D01*
X176882026Y-111086330D01*
X176891898Y-111119596D01*
X176889733Y-111167444D01*
X176881690Y-111261985D01*
X176413795Y-111469362D01*
X176404264Y-111473585D01*
X176294066Y-111522105D01*
X176258322Y-111537842D01*
G36*
X176286804Y-106757535D02*
G01*
X176357613Y-106812460D01*
X176420412Y-106910067D01*
X176480875Y-107055698D01*
X176503444Y-107117907D01*
X176537894Y-107203713D01*
X176565802Y-107253104D01*
X176593397Y-107275691D01*
X176626903Y-107281085D01*
X176676616Y-107268717D01*
X176733415Y-107208156D01*
X176749132Y-107177558D01*
X176760045Y-107133675D01*
X176752230Y-107079718D01*
X176724898Y-106995992D01*
X176699487Y-106921524D01*
X176689069Y-106872955D01*
X176697121Y-106844838D01*
X176723520Y-106821606D01*
X176741735Y-106808819D01*
X176786146Y-106790019D01*
X176820398Y-106809640D01*
X176859369Y-106873348D01*
X176870729Y-106897478D01*
X176900642Y-107009595D01*
X176907384Y-107134156D01*
X176891253Y-107250807D01*
X176852548Y-107339198D01*
X176762905Y-107429112D01*
X176661285Y-107469023D01*
X176546870Y-107457850D01*
X176532664Y-107453353D01*
X176462095Y-107419066D01*
X176408556Y-107363779D01*
X176364279Y-107276791D01*
X176321496Y-107147400D01*
X176321329Y-107146824D01*
X176285065Y-107033982D01*
X176252001Y-106964661D01*
X176216120Y-106929750D01*
X176171406Y-106920137D01*
X176154001Y-106922777D01*
X176099958Y-106959013D01*
X176056994Y-107022897D01*
X176039479Y-107095345D01*
X176044254Y-107125669D01*
X176068404Y-107198855D01*
X176106100Y-107283238D01*
X176172721Y-107414769D01*
X176112784Y-107460376D01*
X176076710Y-107485578D01*
X176043858Y-107490327D01*
X176006911Y-107460376D01*
X175997769Y-107450130D01*
X175957723Y-107387099D01*
X175921900Y-107307821D01*
X175905293Y-107255827D01*
X175884122Y-107108609D01*
X175901334Y-106975530D01*
X175953582Y-106864875D01*
X176037519Y-106784927D01*
X176149794Y-106743970D01*
X176202307Y-106739946D01*
X176286804Y-106757535D01*
G37*
X176286804Y-106757535D02*
X176357613Y-106812460D01*
X176420412Y-106910067D01*
X176480875Y-107055698D01*
X176503444Y-107117907D01*
X176537894Y-107203713D01*
X176565802Y-107253104D01*
X176593397Y-107275691D01*
X176626903Y-107281085D01*
X176676616Y-107268717D01*
X176733415Y-107208156D01*
X176749132Y-107177558D01*
X176760045Y-107133675D01*
X176752230Y-107079718D01*
X176724898Y-106995992D01*
X176699487Y-106921524D01*
X176689069Y-106872955D01*
X176697121Y-106844838D01*
X176723520Y-106821606D01*
X176741735Y-106808819D01*
X176786146Y-106790019D01*
X176820398Y-106809640D01*
X176859369Y-106873348D01*
X176870729Y-106897478D01*
X176900642Y-107009595D01*
X176907384Y-107134156D01*
X176891253Y-107250807D01*
X176852548Y-107339198D01*
X176762905Y-107429112D01*
X176661285Y-107469023D01*
X176546870Y-107457850D01*
X176532664Y-107453353D01*
X176462095Y-107419066D01*
X176408556Y-107363779D01*
X176364279Y-107276791D01*
X176321496Y-107147400D01*
X176321329Y-107146824D01*
X176285065Y-107033982D01*
X176252001Y-106964661D01*
X176216120Y-106929750D01*
X176171406Y-106920137D01*
X176154001Y-106922777D01*
X176099958Y-106959013D01*
X176056994Y-107022897D01*
X176039479Y-107095345D01*
X176044254Y-107125669D01*
X176068404Y-107198855D01*
X176106100Y-107283238D01*
X176172721Y-107414769D01*
X176112784Y-107460376D01*
X176076710Y-107485578D01*
X176043858Y-107490327D01*
X176006911Y-107460376D01*
X175997769Y-107450130D01*
X175957723Y-107387099D01*
X175921900Y-107307821D01*
X175905293Y-107255827D01*
X175884122Y-107108609D01*
X175901334Y-106975530D01*
X175953582Y-106864875D01*
X176037519Y-106784927D01*
X176149794Y-106743970D01*
X176202307Y-106739946D01*
X176286804Y-106757535D01*
G36*
X179539098Y-115836090D02*
G01*
X179540398Y-115837879D01*
X179570270Y-115884171D01*
X179618318Y-115963855D01*
X179679523Y-116068093D01*
X179748860Y-116188048D01*
X179821309Y-116314882D01*
X179891847Y-116439758D01*
X179955452Y-116553840D01*
X180007102Y-116648289D01*
X180041775Y-116714268D01*
X180054449Y-116742941D01*
X180053215Y-116747082D01*
X180032977Y-116788299D01*
X179990959Y-116866395D01*
X179931110Y-116974229D01*
X179857378Y-117104661D01*
X179773712Y-117250551D01*
X179747083Y-117296753D01*
X179666112Y-117438255D01*
X179596276Y-117561815D01*
X179541514Y-117660365D01*
X179505767Y-117726836D01*
X179492975Y-117754158D01*
X179494193Y-117757877D01*
X179514394Y-117797776D01*
X179556400Y-117874643D01*
X179616258Y-117981407D01*
X179690013Y-118110995D01*
X179773712Y-118256335D01*
X179799328Y-118300675D01*
X179880588Y-118442778D01*
X179950699Y-118567551D01*
X180005692Y-118667791D01*
X180041598Y-118736295D01*
X180054449Y-118765860D01*
X180041957Y-118795806D01*
X180007530Y-118861885D01*
X179955973Y-118955791D01*
X179892089Y-119069249D01*
X179820682Y-119193980D01*
X179746556Y-119321707D01*
X179674515Y-119444152D01*
X179609363Y-119553039D01*
X179555903Y-119640088D01*
X179518941Y-119697024D01*
X179503278Y-119715568D01*
X179498550Y-119708207D01*
X179470646Y-119661361D01*
X179420347Y-119575564D01*
X179350472Y-119455668D01*
X179263841Y-119306525D01*
X179163276Y-119132986D01*
X179051596Y-118939903D01*
X178931621Y-118732128D01*
X178867373Y-118620736D01*
X178752002Y-118420533D01*
X178646799Y-118237750D01*
X178554529Y-118077201D01*
X178477954Y-117943700D01*
X178419837Y-117842061D01*
X178382941Y-117777098D01*
X178370028Y-117753625D01*
X178374137Y-117745884D01*
X178400815Y-117698581D01*
X178449940Y-117612448D01*
X178518763Y-117492281D01*
X178604532Y-117342874D01*
X178704496Y-117169022D01*
X178815904Y-116975520D01*
X178936004Y-116767163D01*
X178972080Y-116704631D01*
X179104312Y-116475935D01*
X179213159Y-116288951D01*
X179301095Y-116139857D01*
X179370596Y-116024831D01*
X179424138Y-115940051D01*
X179464196Y-115881697D01*
X179493245Y-115845945D01*
X179513762Y-115828974D01*
X179528221Y-115826963D01*
X179539098Y-115836090D01*
G37*
X179539098Y-115836090D02*
X179540398Y-115837879D01*
X179570270Y-115884171D01*
X179618318Y-115963855D01*
X179679523Y-116068093D01*
X179748860Y-116188048D01*
X179821309Y-116314882D01*
X179891847Y-116439758D01*
X179955452Y-116553840D01*
X180007102Y-116648289D01*
X180041775Y-116714268D01*
X180054449Y-116742941D01*
X180053215Y-116747082D01*
X180032977Y-116788299D01*
X179990959Y-116866395D01*
X179931110Y-116974229D01*
X179857378Y-117104661D01*
X179773712Y-117250551D01*
X179747083Y-117296753D01*
X179666112Y-117438255D01*
X179596276Y-117561815D01*
X179541514Y-117660365D01*
X179505767Y-117726836D01*
X179492975Y-117754158D01*
X179494193Y-117757877D01*
X179514394Y-117797776D01*
X179556400Y-117874643D01*
X179616258Y-117981407D01*
X179690013Y-118110995D01*
X179773712Y-118256335D01*
X179799328Y-118300675D01*
X179880588Y-118442778D01*
X179950699Y-118567551D01*
X180005692Y-118667791D01*
X180041598Y-118736295D01*
X180054449Y-118765860D01*
X180041957Y-118795806D01*
X180007530Y-118861885D01*
X179955973Y-118955791D01*
X179892089Y-119069249D01*
X179820682Y-119193980D01*
X179746556Y-119321707D01*
X179674515Y-119444152D01*
X179609363Y-119553039D01*
X179555903Y-119640088D01*
X179518941Y-119697024D01*
X179503278Y-119715568D01*
X179498550Y-119708207D01*
X179470646Y-119661361D01*
X179420347Y-119575564D01*
X179350472Y-119455668D01*
X179263841Y-119306525D01*
X179163276Y-119132986D01*
X179051596Y-118939903D01*
X178931621Y-118732128D01*
X178867373Y-118620736D01*
X178752002Y-118420533D01*
X178646799Y-118237750D01*
X178554529Y-118077201D01*
X178477954Y-117943700D01*
X178419837Y-117842061D01*
X178382941Y-117777098D01*
X178370028Y-117753625D01*
X178374137Y-117745884D01*
X178400815Y-117698581D01*
X178449940Y-117612448D01*
X178518763Y-117492281D01*
X178604532Y-117342874D01*
X178704496Y-117169022D01*
X178815904Y-116975520D01*
X178936004Y-116767163D01*
X178972080Y-116704631D01*
X179104312Y-116475935D01*
X179213159Y-116288951D01*
X179301095Y-116139857D01*
X179370596Y-116024831D01*
X179424138Y-115940051D01*
X179464196Y-115881697D01*
X179493245Y-115845945D01*
X179513762Y-115828974D01*
X179528221Y-115826963D01*
X179539098Y-115836090D01*
%TD*%
D11*
%TO.C,J10*%
X161499999Y-136979999D03*
D12*
X161499999Y-138249999D03*
X161499999Y-139519999D03*
X161499999Y-140789999D03*
%TD*%
D13*
%TO.C,H2*%
X105000000Y-90000000D03*
%TD*%
%TO.C,H3*%
X181000000Y-90000000D03*
%TD*%
D14*
%TO.C,J7*%
X105595553Y-99500005D03*
X105595553Y-130499994D03*
D15*
X110095552Y-125000000D03*
X110095552Y-122500000D03*
X110095552Y-120000000D03*
X110095552Y-117500000D03*
X110095552Y-115000000D03*
X110095552Y-112499999D03*
X110095552Y-109999999D03*
X110095552Y-107499999D03*
X110095552Y-104999999D03*
X107095553Y-125000000D03*
X107095553Y-122500000D03*
X107095553Y-120000000D03*
X107095553Y-117500000D03*
X107095553Y-115000000D03*
X107095553Y-112499999D03*
X107095553Y-109999999D03*
X107095553Y-107499999D03*
X107095553Y-104999999D03*
%TD*%
D16*
%TO.C,J2*%
X117000000Y-88450000D03*
D17*
X115749999Y-88449999D03*
X114499999Y-88449999D03*
%TD*%
D13*
%TO.C,H4*%
X181000000Y-140000000D03*
%TD*%
%TO.C,H1*%
X105000000Y-140000000D03*
%TD*%
D18*
%TO.C,U21*%
X147250000Y-116000000D03*
%TD*%
D19*
%TO.C,C5*%
X171025000Y-124250000D03*
X169475000Y-124250000D03*
%TD*%
D20*
%TO.C,S1*%
X142525000Y-137250000D03*
X145875000Y-137250000D03*
D21*
X145874999Y-139949999D03*
X145874999Y-134549999D03*
X142624999Y-139949999D03*
X142624999Y-134549999D03*
%TD*%
D19*
%TO.C,C4*%
X171025000Y-122500000D03*
X169475000Y-122500000D03*
%TD*%
D22*
%TO.C,R11*%
X143167340Y-89387340D03*
X143167340Y-91037340D03*
%TD*%
%TO.C,R10*%
X137167340Y-89387340D03*
X137167340Y-91037340D03*
%TD*%
D23*
%TO.C,CP2*%
X172675000Y-115750000D03*
X167750000Y-115750000D03*
%TD*%
D24*
%TO.C,J1*%
X173919999Y-128679999D03*
X171379999Y-128679999D03*
X168839999Y-128679999D03*
X172649999Y-128679999D03*
X170109999Y-128679999D03*
X167569999Y-128679999D03*
D25*
X176899999Y-132779999D03*
X164599999Y-132779999D03*
X176899999Y-141579999D03*
X164599999Y-141579999D03*
%TD*%
D26*
%TO.C,D5*%
X143167340Y-92849840D03*
X143167340Y-94424840D03*
%TD*%
D27*
%TO.C,C6*%
X173855000Y-105115000D03*
X175405000Y-105115000D03*
%TD*%
D26*
%TO.C,D3*%
X140167340Y-92887340D03*
X140167340Y-94462340D03*
%TD*%
%TO.C,D4*%
X137167340Y-92887340D03*
X137167340Y-94462340D03*
%TD*%
D23*
%TO.C,CP3*%
X172675000Y-111750000D03*
X167750000Y-111750000D03*
%TD*%
D22*
%TO.C,R9*%
X140167340Y-89387340D03*
X140167340Y-91037340D03*
%TD*%
D28*
%TO.C,FB1*%
X169287500Y-107000000D03*
X172212500Y-107000000D03*
%TD*%
D29*
%TO.C,D2*%
X172450000Y-109000000D03*
X171050000Y-109000000D03*
%TD*%
D23*
%TO.C,CP1*%
X172712500Y-119750000D03*
X167787500Y-119750000D03*
%TD*%
M02*
