M48
; DRILL file {KiCad (7.0.0-0)} date Thursday, 16 March 2023 at 16:39:46
; FORMAT={-:-/ absolute / metric / decimal}
; #@! TF.CreationDate,2023-03-16T16:39:46+01:00
; #@! TF.GenerationSoftware,Kicad,Pcbnew,(7.0.0-0)
; #@! TF.FileFunction,Plated,1,4,PTH
FMAT,2
METRIC
; #@! TA.AperFunction,Plated,PTH,ViaDrill
T1C0.300
; #@! TA.AperFunction,Plated,PTH,ViaDrill
T2C0.500
; #@! TA.AperFunction,Plated,PTH,ComponentDrill
T3C0.500
; #@! TA.AperFunction,Plated,PTH,ComponentDrill
T4C1.092
; #@! TA.AperFunction,Plated,PTH,ComponentDrill
T5C1.250
; #@! TA.AperFunction,Plated,PTH,ComponentDrill
T6C3.200
%
G90
G05
T1
X100.75Y-91.05
X100.75Y-92.05
X100.75Y-93.05
X100.75Y-94.05
X100.75Y-95.05
X100.75Y-96.05
X100.75Y-97.05
X100.75Y-98.05
X100.75Y-99.05
X100.75Y-100.05
X100.75Y-101.05
X100.75Y-102.05
X100.75Y-103.05
X100.75Y-104.05
X100.75Y-105.05
X100.75Y-106.05
X100.75Y-107.05
X100.75Y-108.05
X100.75Y-109.05
X100.75Y-110.05
X100.75Y-111.05
X100.75Y-112.05
X100.75Y-113.05
X100.75Y-114.05
X100.75Y-115.05
X100.75Y-116.05
X100.75Y-117.05
X100.75Y-118.05
X100.75Y-119.05
X100.75Y-120.05
X100.75Y-121.05
X100.75Y-122.05
X100.75Y-123.05
X100.75Y-124.05
X100.75Y-125.05
X100.75Y-126.05
X100.75Y-127.05
X100.75Y-128.05
X100.75Y-129.05
X100.75Y-130.05
X100.75Y-131.05
X100.75Y-132.05
X100.75Y-133.05
X100.75Y-134.05
X100.75Y-135.05
X100.75Y-136.05
X100.75Y-137.05
X100.75Y-138.05
X100.75Y-139.05
X100.85Y-89.9
X100.9Y-140.2
X101.2Y-89.0
X101.3Y-141.2
X101.7Y-88.0
X101.9Y-142.3
X101.95Y-115.95
X102.15Y-115.125
X102.2Y-119.1
X102.35Y-123.85
X102.448Y-124.648
X102.5Y-87.1
X102.6Y-93.2
X102.8Y-118.2
X102.8Y-143.1
X103.6Y-86.4
X103.8Y-143.6
X104.05Y-116.0
X104.1Y-93.85
X104.15Y-102.9
X104.2Y-127.35
X104.3Y-128.05
X105.0Y-144.0
X105.25Y-85.8
X105.8Y-135.6
X106.0Y-144.0
X106.25Y-85.8
X106.35Y-108.75
X106.41Y-116.26
X106.56Y-123.78
X106.6Y-135.6
X107.0Y-144.0
X107.25Y-85.8
X107.55Y-132.3
X107.7Y-126.35
X107.73Y-111.24
X108.0Y-144.0
X108.25Y-85.8
X108.4Y-142.4
X108.56Y-112.77
X108.58Y-114.93
X108.75Y-89.8
X108.95Y-96.8
X108.95Y-118.175
X109.0Y-144.0
X109.25Y-85.8
X109.32Y-108.75
X109.65Y-96.8
X109.96Y-103.61
X110.0Y-144.0
X110.25Y-85.8
X111.0Y-144.0
X111.1Y-118.75
X111.25Y-85.8
X111.29Y-121.96
X111.3Y-94.7
X111.56Y-125.91
X111.6Y-90.75
X111.68Y-105.56
X111.75Y-142.3
X111.8Y-115.6
X111.906Y-89.656
X112.0Y-144.0
X112.25Y-85.8
X112.569Y-118.559
X112.662Y-115.137
X113.0Y-144.0
X113.05Y-104.93
X113.05Y-106.37
X113.09Y-96.17
X113.1Y-125.15
X113.25Y-85.8
X113.45Y-127.15
X113.5Y-129.0
X113.53Y-95.38
X113.65Y-115.06
X113.728Y-121.452
X113.8Y-109.45
X113.84Y-124.91
X113.9Y-118.5
X113.9Y-120.45
X113.9Y-128.05
X113.95Y-125.95
X114.0Y-144.0
X114.1Y-105.05
X114.25Y-85.8
X114.55Y-128.6
X114.65Y-99.95
X114.71Y-101.58
X114.78Y-98.5
X114.85Y-133.85
X115.0Y-144.0
X115.19Y-108.72
X115.21Y-104.81
X115.25Y-85.8
X115.33Y-94.04
X115.45Y-134.4
X115.64Y-112.38
X115.8Y-120.35
X115.95Y-110.5
X115.95Y-125.83
X115.99Y-114.92
X116.0Y-144.0
X116.0Y-115.93
X116.05Y-133.75
X116.25Y-85.8
X116.55Y-123.4
X116.55Y-124.3
X116.6Y-125.3
X116.8Y-122.7
X116.8Y-133.75
X117.0Y-144.0
X117.15Y-111.44
X117.15Y-112.62
X117.25Y-85.8
X117.45Y-130.3
X117.7Y-122.7
X118.0Y-144.0
X118.2Y-129.525
X118.25Y-85.8
X118.45Y-128.5
X118.65Y-122.7
X118.95Y-131.65
X119.0Y-114.5
X119.0Y-116.5
X119.0Y-144.0
X119.2Y-118.2
X119.2Y-119.0
X119.25Y-85.8
X119.25Y-94.0
X119.25Y-96.0
X119.25Y-98.0
X119.25Y-100.0
X119.25Y-102.0
X119.25Y-104.25
X119.25Y-119.85
X119.4Y-134.7
X119.45Y-87.625
X119.6Y-122.7
X119.61Y-106.67
X119.65Y-120.55
X119.68Y-109.03
X119.9Y-114.5
X120.0Y-144.0
X120.25Y-85.8
X120.45Y-120.55
X120.55Y-118.25
X120.6Y-119.45
X120.6Y-122.7
X120.8Y-131.8
X120.825Y-127.575
X121.0Y-144.0
X121.25Y-85.8
X121.25Y-120.55
X121.75Y-122.7
X121.8Y-131.8
X122.0Y-144.0
X122.15Y-120.55
X122.25Y-85.8
X122.25Y-101.35
X122.35Y-102.25
X122.35Y-103.05
X122.35Y-103.85
X122.5Y-98.15
X122.8Y-123.2
X122.8Y-124.4
X122.8Y-125.6
X122.8Y-127.05
X122.8Y-127.95
X122.8Y-128.8
X122.8Y-131.8
X123.0Y-144.0
X123.05Y-120.55
X123.2Y-130.35
X123.25Y-85.8
X123.25Y-102.25
X123.25Y-103.05
X123.3Y-103.85
X123.45Y-100.8
X123.5Y-99.25
X123.5Y-110.15
X123.7Y-127.05
X123.7Y-127.95
X123.7Y-128.8
X123.75Y-94.0
X123.75Y-95.0
X123.75Y-96.0
X123.75Y-97.0
X123.75Y-98.0
X123.9Y-131.7
X123.95Y-120.55
X124.0Y-123.2
X124.0Y-124.4
X124.0Y-125.6
X124.0Y-144.0
X124.2Y-102.25
X124.25Y-85.8
X124.3Y-93.3
X124.4Y-88.1
X124.474Y-99.574
X124.65Y-110.15
X124.725Y-120.55
X125.0Y-144.0
X125.1Y-102.25
X125.2Y-123.2
X125.2Y-124.4
X125.2Y-125.6
X125.25Y-85.8
X125.25Y-119.225
X125.3Y-93.3
X125.325Y-116.6
X125.326Y-99.574
X125.49Y-90.55
X125.75Y-110.2
X126.0Y-144.0
X126.2Y-88.1
X126.2Y-99.6
X126.25Y-85.8
X126.3Y-129.25
X126.35Y-113.5
X126.35Y-114.3
X126.35Y-134.85
X126.4Y-93.3
X126.4Y-123.2
X126.4Y-124.4
X126.4Y-125.6
X126.4Y-133.6
X126.525Y-131.7
X126.6Y-111.2
X127.0Y-144.0
X127.15Y-113.5
X127.15Y-114.3
X127.25Y-85.8
X127.25Y-110.15
X127.5Y-93.3
X127.6Y-123.2
X127.6Y-124.4
X127.6Y-125.6
X127.95Y-112.65
X128.0Y-133.6
X128.0Y-144.0
X128.25Y-85.8
X128.25Y-114.65
X128.3Y-113.6
X128.3Y-119.1
X128.7Y-93.3
X128.75Y-112.05
X128.942Y-87.562
X128.942Y-88.362
X128.992Y-89.162
X129.0Y-144.0
X129.2Y-117.5
X129.2Y-118.35
X129.25Y-85.8
X129.4Y-136.8
X129.52Y-90.75
X129.55Y-113.45
X129.7Y-111.85
X129.8Y-93.3
X129.8Y-133.6
X129.9Y-112.7
X129.942Y-87.562
X129.942Y-88.362
X129.992Y-89.162
X130.0Y-144.0
X130.05Y-117.5
X130.05Y-118.35
X130.1Y-135.1
X130.125Y-120.275
X130.2Y-119.3
X130.25Y-85.8
X130.85Y-136.8
X131.0Y-93.3
X131.0Y-144.0
X131.2Y-119.1
X131.25Y-85.8
X131.6Y-133.6
X132.0Y-144.0
X132.15Y-119.1
X132.25Y-85.8
X132.3Y-94.0
X132.3Y-95.1
X132.3Y-96.1
X132.3Y-97.1
X132.5Y-136.8
X132.7Y-100.4
X132.7Y-101.5
X132.7Y-102.6
X132.7Y-103.7
X132.825Y-98.125
X133.0Y-144.0
X133.05Y-90.68
X133.1Y-119.1
X133.23Y-111.599
X133.25Y-85.8
X133.4Y-133.6
X133.7Y-103.75
X133.7Y-110.65
X133.75Y-131.8
X133.77Y-122.77
X133.8Y-119.1
X133.85Y-90.68
X133.9Y-94.0
X133.9Y-95.1
X133.9Y-96.1
X133.9Y-97.1
X134.0Y-129.0
X134.0Y-129.8
X134.0Y-144.0
X134.15Y-136.8
X134.236Y-111.599
X134.25Y-85.8
X134.5Y-110.65
X134.625Y-90.7
X135.0Y-144.0
X135.1Y-109.2
X135.1Y-111.6
X135.1Y-112.5
X135.1Y-113.6
X135.1Y-135.2
X135.11Y-108.25
X135.112Y-104.788
X135.12Y-127.74
X135.2Y-94.05
X135.2Y-95.15
X135.2Y-96.15
X135.2Y-97.15
X135.2Y-98.3
X135.2Y-99.4
X135.2Y-100.4
X135.2Y-101.4
X135.25Y-85.8
X135.25Y-133.4
X136.0Y-136.8
X136.0Y-144.0
X136.05Y-122.83
X136.25Y-85.8
X136.68Y-127.64
X136.69Y-124.71
X136.75Y-129.95
X136.8Y-138.2
X137.0Y-144.0
X137.25Y-85.8
X137.28Y-106.31
X137.5Y-95.32
X137.595Y-136.305
X137.9Y-96.6
X137.9Y-98.7
X137.9Y-100.4
X138.0Y-133.55
X138.0Y-144.0
X138.25Y-85.8
X138.39Y-91.22
X138.59Y-97.66
X138.6Y-95.75
X138.75Y-138.2
X138.76Y-116.57
X139.0Y-144.0
X139.25Y-85.8
X139.35Y-101.15
X139.41Y-122.72
X139.5Y-120.42
X139.55Y-87.075
X140.0Y-144.0
X140.195Y-86.595
X140.25Y-85.8
X140.275Y-112.675
X140.35Y-113.91
X140.775Y-113.175
X140.95Y-88.4
X141.0Y-144.0
X141.25Y-85.8
X141.27Y-118.6
X141.35Y-138.05
X141.95Y-107.64
X142.0Y-144.0
X142.09Y-103.45
X142.136Y-112.636
X142.25Y-85.8
X142.4Y-131.4
X142.46Y-105.8
X142.468Y-102.745
X142.47Y-110.28
X142.48Y-101.23
X142.48Y-104.048
X142.6Y-111.95
X142.6Y-113.3
X142.6Y-133.5
X142.638Y-90.159
X142.73Y-115.9
X142.74Y-88.54
X142.9Y-130.1
X143.0Y-114.8
X143.0Y-144.0
X143.02Y-108.29
X143.23Y-97.14
X143.25Y-85.8
X143.25Y-99.6
X143.31Y-109.99
X143.43Y-93.42
X143.451Y-96.403
X143.55Y-130.75
X143.6Y-138.3
X143.72Y-102.72
X144.0Y-144.0
X144.25Y-85.8
X144.42Y-101.57
X144.45Y-131.6
X144.499Y-125.7
X144.53Y-138.115
X144.87Y-107.74
X145.0Y-144.0
X145.25Y-85.8
X145.34Y-131.61
X145.45Y-130.85
X145.47Y-88.36
X145.58Y-93.86
X145.65Y-113.2
X145.75Y-127.15
X145.849Y-95.254
X145.992Y-92.1
X146.0Y-144.0
X146.194Y-112.651
X146.25Y-85.8
X146.346Y-96.751
X146.358Y-88.757
X146.403Y-97.476
X146.45Y-112.0
X146.6Y-128.0
X146.8Y-113.2
X147.0Y-144.0
X147.008Y-121.042
X147.1Y-109.5
X147.1Y-135.05
X147.15Y-133.55
X147.175Y-103.8
X147.18Y-99.165
X147.192Y-92.1
X147.219Y-111.159
X147.23Y-104.86
X147.3Y-85.8
X147.8Y-113.2
X147.992Y-95.482
X148.0Y-129.0
X148.036Y-106.614
X148.05Y-91.775
X148.09Y-107.35
X148.2Y-122.0
X148.2Y-144.2
X148.275Y-141.701
X148.31Y-88.47
X148.4Y-85.8
X148.65Y-119.85
X148.87Y-116.97
X149.05Y-97.05
X149.05Y-97.9
X149.09Y-99.19
X149.13Y-105.01
X149.2Y-144.2
X149.25Y-95.4
X149.3Y-91.85
X149.35Y-139.0
X149.5Y-85.8
X149.6Y-122.2
X149.613Y-101.157
X149.63Y-120.71
X149.7Y-94.0
X149.7Y-107.45
X149.906Y-102.349
X149.92Y-108.67
X149.95Y-141.66
X150.0Y-129.2
X150.02Y-88.8
X150.04Y-105.1
X150.092Y-93.412
X150.142Y-88.012
X150.2Y-144.312
X150.25Y-138.45
X150.385Y-106.999
X150.4Y-110.0
X150.4Y-123.2
X150.7Y-85.8
X150.725Y-92.711
X151.2Y-144.312
X151.62Y-95.7
X151.874Y-99.54
X151.9Y-85.8
X152.1Y-101.1
X152.118Y-104.62
X152.143Y-96.24
X152.15Y-98.67
X152.2Y-103.8
X152.2Y-141.8
X152.223Y-144.299
X152.4Y-129.2
X152.55Y-141.1
X152.911Y-140.199
X153.0Y-120.25
X153.0Y-121.25
X153.0Y-122.25
X153.0Y-123.25
X153.1Y-85.8
X153.2Y-144.299
X153.242Y-96.1
X153.29Y-110.12
X153.4Y-137.05
X153.5Y-119.7
X153.52Y-115.82
X153.543Y-93.707
X153.55Y-122.7
X153.6Y-120.7
X153.6Y-121.7
X153.8Y-133.55
X153.95Y-138.25
X154.08Y-113.12
X154.2Y-144.299
X154.25Y-92.9
X154.5Y-122.15
X154.55Y-138.95
X154.6Y-128.8
X154.66Y-116.55
X154.674Y-94.86
X154.75Y-92.35
X154.84Y-86.814
X155.02Y-87.55
X155.065Y-88.299
X155.2Y-144.299
X155.4Y-139.55
X155.5Y-137.05
X155.6Y-121.2
X156.15Y-133.55
X156.2Y-136.45
X156.2Y-144.299
X156.292Y-88.712
X156.35Y-113.28
X156.48Y-87.54
X157.0Y-106.65
X157.0Y-134.1
X157.05Y-136.45
X157.2Y-144.299
X157.264Y-87.464
X157.35Y-135.75
X157.464Y-92.164
X157.55Y-101.339
X157.6Y-126.8
X157.66Y-106.93
X157.67Y-90.81
X157.692Y-116.112
X157.8Y-120.6
X158.0Y-139.45
X158.084Y-105.466
X158.2Y-144.299
X158.25Y-101.75
X158.489Y-90.911
X158.7Y-134.95
X158.8Y-105.84
X158.892Y-89.912
X159.0Y-135.65
X159.2Y-144.299
X159.25Y-136.45
X159.25Y-137.55
X159.31Y-87.901
X159.33Y-98.24
X159.37Y-99.67
X159.74Y-129.2
X159.8Y-126.2
X160.0Y-120.6
X160.092Y-97.312
X160.19Y-91.67
X160.2Y-144.299
X160.4Y-130.85
X160.45Y-132.15
X160.65Y-132.9
X160.892Y-96.512
X160.969Y-98.1
X161.2Y-144.2
X161.272Y-117.392
X161.63Y-99.39
X161.65Y-106.3
X161.68Y-103.418
X161.73Y-97.215
X161.83Y-107.39
X161.869Y-88.712
X161.892Y-102.312
X161.935Y-89.555
X162.0Y-126.2
X162.05Y-138.6
X162.2Y-120.6
X162.2Y-144.2
X162.25Y-137.7
X162.311Y-98.711
X162.384Y-96.623
X162.39Y-87.4
X162.465Y-91.265
X162.479Y-100.099
X162.775Y-106.225
X163.0Y-101.7
X163.036Y-87.994
X163.2Y-144.2
X163.35Y-132.35
X163.55Y-107.075
X163.55Y-141.6
X163.586Y-88.713
X163.75Y-101.35
X163.75Y-105.725
X163.8Y-102.25
X164.2Y-120.6
X164.2Y-126.2
X164.2Y-144.2
X164.28Y-89.48
X164.672Y-117.192
X164.92Y-90.11
X165.2Y-144.2
X165.55Y-90.77
X165.6Y-141.55
X165.742Y-96.395
X165.742Y-97.215
X165.77Y-129.17
X165.9Y-138.6
X166.0Y-126.2
X166.2Y-120.6
X166.2Y-144.2
X166.264Y-97.914
X166.342Y-101.212
X166.55Y-102.875
X166.55Y-129.14
X166.77Y-106.79
X167.2Y-144.2
X167.55Y-130.5
X167.6Y-90.252
X167.822Y-103.58
X167.842Y-91.849
X168.057Y-98.863
X168.2Y-126.2
X168.2Y-144.2
X168.33Y-101.165
X168.48Y-135.915
X168.5Y-130.55
X168.504Y-90.222
X168.67Y-95.75
X168.79Y-89.54
X168.862Y-95.038
X168.88Y-103.564
X169.1Y-115.8
X169.13Y-101.165
X169.15Y-116.65
X169.2Y-144.2
X169.4Y-119.8
X169.4Y-120.6
X169.45Y-95.825
X169.73Y-103.963
X169.751Y-95.15
X169.825Y-139.425
X170.092Y-115.712
X170.175Y-130.625
X170.2Y-144.2
X170.23Y-105.814
X170.4Y-126.2
X170.4Y-134.1
X170.51Y-98.745
X170.64Y-97.615
X171.2Y-144.2
X171.5Y-89.9
X171.5Y-98.79
X171.642Y-101.027
X171.664Y-97.01
X171.98Y-93.015
X172.08Y-101.63
X172.2Y-144.2
X172.271Y-98.215
X172.57Y-129.8
X172.791Y-98.904
X172.8Y-126.2
X172.86Y-97.46
X172.904Y-90.624
X173.088Y-92.179
X173.2Y-144.2
X173.377Y-96.767
X173.52Y-105.115
X173.55Y-140.75
X173.6Y-139.05
X173.7Y-131.25
X173.815Y-94.964
X173.91Y-96.12
X173.92Y-130.08
X173.95Y-108.68
X174.093Y-98.423
X174.2Y-144.2
X174.22Y-104.52
X174.225Y-90.899
X174.297Y-95.471
X174.375Y-114.25
X174.375Y-115.25
X174.375Y-117.175
X174.47Y-92.56
X174.6Y-126.2
X174.643Y-97.664
X175.2Y-144.2
X175.31Y-107.17
X175.71Y-133.36
X176.08Y-103.715
X176.1Y-101.0
X176.156Y-101.897
X176.17Y-92.347
X176.2Y-126.2
X176.2Y-144.2
X176.23Y-95.365
X176.6Y-122.3
X176.6Y-123.2
X176.86Y-140.17
X177.0Y-95.4
X177.2Y-144.2
X177.24Y-105.81
X177.3Y-91.75
X177.302Y-103.292
X177.389Y-104.061
X177.396Y-90.204
X177.4Y-89.39
X177.42Y-109.85
X177.546Y-110.666
X177.742Y-93.03
X177.99Y-105.145
X178.2Y-144.2
X178.556Y-92.918
X178.57Y-131.46
X178.605Y-135.24
X178.725Y-122.85
X178.73Y-103.0
X178.91Y-112.462
X178.95Y-97.6
X179.07Y-130.6
X179.2Y-144.2
X179.23Y-98.365
X179.275Y-95.65
X179.28Y-100.415
X179.3Y-123.625
X179.509Y-101.076
X179.53Y-94.965
X179.534Y-99.571
X179.925Y-132.59
X179.934Y-100.167
X180.0Y-119.0
X180.0Y-119.8
X180.0Y-120.6
X180.0Y-121.4
X180.179Y-102.92
X180.2Y-144.2
X180.366Y-94.979
X180.41Y-102.26
X180.7Y-100.27
X180.9Y-119.0
X181.18Y-95.015
X181.2Y-144.2
X181.244Y-97.624
X181.33Y-112.47
X181.48Y-113.23
X181.83Y-128.13
X181.84Y-121.72
X181.855Y-102.185
X182.03Y-123.82
X182.2Y-144.2
X182.3Y-119.0
X182.4Y-113.44
X182.416Y-94.901
X182.425Y-97.64
X182.64Y-105.37
X182.64Y-112.69
X182.675Y-99.527
X182.85Y-121.02
X182.88Y-124.44
X183.2Y-144.2
X183.225Y-100.162
X183.23Y-94.865
X183.43Y-106.67
X183.49Y-133.83
X183.5Y-132.92
X183.53Y-112.91
X183.56Y-131.39
X183.58Y-129.82
X183.7Y-103.65
X183.774Y-99.662
X183.78Y-104.525
X183.8Y-119.0
X183.83Y-92.915
X183.83Y-95.465
X183.831Y-96.315
X184.2Y-144.2
X184.3Y-92.0
X184.4Y-136.0
X184.5Y-128.2
X184.6Y-93.9
X184.6Y-122.8
X184.6Y-125.8
T2
X107.625Y-137.025
X108.875Y-137.025
X123.8Y-105.0
X126.7Y-105.0
X133.15Y-124.35
X134.8Y-114.55
X134.8Y-115.7
X135.0Y-125.7
X135.0Y-126.75
X138.55Y-106.35
X138.55Y-107.85
X139.2Y-124.9
X139.2Y-125.95
X172.39Y-116.37
X172.4Y-117.55
X172.4Y-118.775
T3
X114.5Y-88.45
X115.75Y-88.45
X117.0Y-88.45
T4
X107.096Y-105.0
X107.096Y-107.5
X107.096Y-110.0
X107.096Y-112.5
X107.096Y-115.0
X107.096Y-117.5
X107.096Y-120.0
X107.096Y-122.5
X107.096Y-125.0
X110.096Y-105.0
X110.096Y-107.5
X110.096Y-110.0
X110.096Y-112.5
X110.096Y-115.0
X110.096Y-117.5
X110.096Y-120.0
X110.096Y-122.5
X110.096Y-125.0
T5
X147.25Y-116.0
T6
X105.0Y-90.0
X105.0Y-140.0
X181.0Y-90.0
X181.0Y-140.0
T0
M30
