%TF.GenerationSoftware,KiCad,Pcbnew,(7.0.0)*%
%TF.CreationDate,2023-02-21T11:21:45+08:00*%
%TF.ProjectId,roam,726f616d-2e6b-4696-9361-645f70636258,rev?*%
%TF.SameCoordinates,Original*%
%TF.FileFunction,Paste,Top*%
%TF.FilePolarity,Positive*%
%FSLAX46Y46*%
G04 Gerber Fmt 4.6, Leading zero omitted, Abs format (unit mm)*
G04 Created by KiCad (PCBNEW (7.0.0)) date 2023-02-21 11:21:45*
%MOMM*%
%LPD*%
G01*
G04 APERTURE LIST*
G04 Aperture macros list*
%AMRoundRect*
0 Rectangle with rounded corners*
0 $1 Rounding radius*
0 $2 $3 $4 $5 $6 $7 $8 $9 X,Y pos of 4 corners*
0 Add a 4 corners polygon primitive as box body*
4,1,4,$2,$3,$4,$5,$6,$7,$8,$9,$2,$3,0*
0 Add four circle primitives for the rounded corners*
1,1,$1+$1,$2,$3*
1,1,$1+$1,$4,$5*
1,1,$1+$1,$6,$7*
1,1,$1+$1,$8,$9*
0 Add four rect primitives between the rounded corners*
20,1,$1+$1,$2,$3,$4,$5,0*
20,1,$1+$1,$4,$5,$6,$7,0*
20,1,$1+$1,$6,$7,$8,$9,0*
20,1,$1+$1,$8,$9,$2,$3,0*%
%AMFreePoly0*
4,1,18,-0.350000,0.000000,-0.225000,0.125000,0.337500,0.125000,0.342284,0.124048,0.346339,0.121339,0.349048,0.117284,0.350000,0.112500,0.350000,-0.112500,0.349048,-0.117284,0.346339,-0.121339,0.342284,-0.124048,0.337500,-0.125000,-0.337500,-0.125000,-0.342284,-0.124048,-0.346339,-0.121339,-0.349048,-0.117284,-0.350000,-0.112500,-0.350000,0.000000,-0.350000,0.000000,$1*%
G04 Aperture macros list end*
%ADD10C,0.300000*%
%ADD11C,0.010000*%
%ADD12RoundRect,0.225000X0.250000X-0.225000X0.250000X0.225000X-0.250000X0.225000X-0.250000X-0.225000X0*%
%ADD13RoundRect,0.218750X-0.256250X0.218750X-0.256250X-0.218750X0.256250X-0.218750X0.256250X0.218750X0*%
%ADD14RoundRect,0.250000X-0.325000X-0.650000X0.325000X-0.650000X0.325000X0.650000X-0.325000X0.650000X0*%
%ADD15RoundRect,0.200000X-0.200000X-0.275000X0.200000X-0.275000X0.200000X0.275000X-0.200000X0.275000X0*%
%ADD16RoundRect,0.200000X0.200000X0.275000X-0.200000X0.275000X-0.200000X-0.275000X0.200000X-0.275000X0*%
%ADD17RoundRect,0.225000X-0.225000X-0.250000X0.225000X-0.250000X0.225000X0.250000X-0.225000X0.250000X0*%
%ADD18RoundRect,0.135000X-0.185000X0.135000X-0.185000X-0.135000X0.185000X-0.135000X0.185000X0.135000X0*%
%ADD19RoundRect,0.200000X-0.275000X0.200000X-0.275000X-0.200000X0.275000X-0.200000X0.275000X0.200000X0*%
%ADD20RoundRect,0.218750X0.256250X-0.218750X0.256250X0.218750X-0.256250X0.218750X-0.256250X-0.218750X0*%
%ADD21RoundRect,0.250000X0.475000X-0.250000X0.475000X0.250000X-0.475000X0.250000X-0.475000X-0.250000X0*%
%ADD22RoundRect,0.147500X-0.172500X0.147500X-0.172500X-0.147500X0.172500X-0.147500X0.172500X0.147500X0*%
%ADD23R,1.000000X1.000000*%
%ADD24R,4.150000X1.000000*%
%ADD25R,2.800000X1.000000*%
%ADD26R,1.000000X3.580000*%
%ADD27R,1.000000X3.000000*%
%ADD28R,3.000000X1.000000*%
%ADD29RoundRect,0.200000X0.275000X-0.200000X0.275000X0.200000X-0.275000X0.200000X-0.275000X-0.200000X0*%
%ADD30RoundRect,0.135000X0.185000X-0.135000X0.185000X0.135000X-0.185000X0.135000X-0.185000X-0.135000X0*%
%ADD31R,1.400000X1.200000*%
%ADD32RoundRect,0.218750X-0.218750X-0.256250X0.218750X-0.256250X0.218750X0.256250X-0.218750X0.256250X0*%
%ADD33RoundRect,0.140000X0.140000X0.170000X-0.140000X0.170000X-0.140000X-0.170000X0.140000X-0.170000X0*%
%ADD34R,0.400000X0.650000*%
%ADD35RoundRect,0.100000X-0.637500X-0.100000X0.637500X-0.100000X0.637500X0.100000X-0.637500X0.100000X0*%
%ADD36RoundRect,0.250000X-0.475000X0.250000X-0.475000X-0.250000X0.475000X-0.250000X0.475000X0.250000X0*%
%ADD37R,0.300000X0.350000*%
%ADD38R,0.350000X0.300000*%
%ADD39RoundRect,0.250000X-0.275000X-0.700000X0.275000X-0.700000X0.275000X0.700000X-0.275000X0.700000X0*%
%ADD40R,0.609600X0.228600*%
%ADD41RoundRect,0.135000X-0.135000X-0.185000X0.135000X-0.185000X0.135000X0.185000X-0.135000X0.185000X0*%
%ADD42RoundRect,0.250000X0.250000X0.475000X-0.250000X0.475000X-0.250000X-0.475000X0.250000X-0.475000X0*%
%ADD43RoundRect,0.135000X0.135000X0.185000X-0.135000X0.185000X-0.135000X-0.185000X0.135000X-0.185000X0*%
%ADD44R,2.700000X0.800000*%
%ADD45R,0.600000X1.475000*%
%ADD46R,1.475000X0.600000*%
%ADD47RoundRect,0.147500X0.017678X-0.226274X0.226274X-0.017678X-0.017678X0.226274X-0.226274X0.017678X0*%
%ADD48RoundRect,0.140000X-0.170000X0.140000X-0.170000X-0.140000X0.170000X-0.140000X0.170000X0.140000X0*%
%ADD49RoundRect,0.250000X0.485000X-0.300000X0.485000X0.300000X-0.485000X0.300000X-0.485000X-0.300000X0*%
%ADD50RoundRect,0.150000X0.150000X-0.820000X0.150000X0.820000X-0.150000X0.820000X-0.150000X-0.820000X0*%
%ADD51RoundRect,0.225000X0.225000X0.250000X-0.225000X0.250000X-0.225000X-0.250000X0.225000X-0.250000X0*%
%ADD52RoundRect,0.250000X0.555000X-0.435000X0.555000X0.435000X-0.555000X0.435000X-0.555000X-0.435000X0*%
%ADD53RoundRect,0.125000X0.125000X-0.262500X0.125000X0.262500X-0.125000X0.262500X-0.125000X-0.262500X0*%
%ADD54RoundRect,0.008100X-0.126900X0.346900X-0.126900X-0.346900X0.126900X-0.346900X0.126900X0.346900X0*%
%ADD55RoundRect,0.140000X0.170000X-0.140000X0.170000X0.140000X-0.170000X0.140000X-0.170000X-0.140000X0*%
%ADD56R,0.200000X1.100000*%
%ADD57R,0.200000X1.000000*%
%ADD58RoundRect,0.012500X0.337500X0.112500X-0.337500X0.112500X-0.337500X-0.112500X0.337500X-0.112500X0*%
%ADD59RoundRect,0.012500X-0.112500X0.337500X-0.112500X-0.337500X0.112500X-0.337500X0.112500X0.337500X0*%
%ADD60RoundRect,0.012500X-0.337500X-0.112500X0.337500X-0.112500X0.337500X0.112500X-0.337500X0.112500X0*%
%ADD61RoundRect,0.012500X0.112500X-0.337500X0.112500X0.337500X-0.112500X0.337500X-0.112500X-0.337500X0*%
%ADD62FreePoly0,180.000000*%
%ADD63R,0.800000X0.300000*%
%ADD64R,1.750000X2.450000*%
%ADD65R,1.675000X1.000000*%
%ADD66R,3.750000X1.000000*%
%ADD67R,3.775000X1.000000*%
%ADD68R,1.925000X1.000000*%
%ADD69R,1.000000X1.712500*%
%ADD70R,1.000000X3.750000*%
%ADD71R,1.000000X3.775000*%
%ADD72R,1.000000X1.900000*%
%ADD73R,1.050000X1.000000*%
%ADD74R,1.900000X1.000000*%
%ADD75RoundRect,0.225000X-0.250000X0.225000X-0.250000X-0.225000X0.250000X-0.225000X0.250000X0.225000X0*%
%ADD76R,1.500000X3.600000*%
%ADD77R,0.508000X1.295400*%
%ADD78R,1.295400X0.508000*%
%ADD79RoundRect,0.250000X-0.625000X0.375000X-0.625000X-0.375000X0.625000X-0.375000X0.625000X0.375000X0*%
%ADD80RoundRect,0.150000X0.587500X0.150000X-0.587500X0.150000X-0.587500X-0.150000X0.587500X-0.150000X0*%
%ADD81R,0.750000X0.700000*%
%ADD82RoundRect,0.250000X0.787500X0.925000X-0.787500X0.925000X-0.787500X-0.925000X0.787500X-0.925000X0*%
%ADD83RoundRect,0.150000X-0.512500X-0.150000X0.512500X-0.150000X0.512500X0.150000X-0.512500X0.150000X0*%
%ADD84R,1.250000X1.200000*%
%ADD85R,1.400000X1.270000*%
%ADD86R,0.700000X0.450000*%
%ADD87RoundRect,0.218750X0.218750X0.256250X-0.218750X0.256250X-0.218750X-0.256250X0.218750X-0.256250X0*%
%ADD88R,0.609600X0.406400*%
%ADD89R,0.406400X0.609600*%
%ADD90RoundRect,0.008100X-0.346900X-0.126900X0.346900X-0.126900X0.346900X0.126900X-0.346900X0.126900X0*%
%ADD91RoundRect,0.150000X0.150000X-0.512500X0.150000X0.512500X-0.150000X0.512500X-0.150000X-0.512500X0*%
%ADD92R,0.500000X0.375000*%
%ADD93R,0.650000X0.300000*%
%ADD94R,3.600000X1.500000*%
%ADD95R,1.600000X5.700000*%
%ADD96R,0.230000X0.700000*%
%ADD97RoundRect,0.147500X0.172500X-0.147500X0.172500X0.147500X-0.172500X0.147500X-0.172500X-0.147500X0*%
%ADD98R,0.600000X1.000000*%
%ADD99R,0.650000X0.350000*%
%ADD100RoundRect,0.250000X0.625000X-0.375000X0.625000X0.375000X-0.625000X0.375000X-0.625000X-0.375000X0*%
%ADD101RoundRect,0.140000X0.219203X0.021213X0.021213X0.219203X-0.219203X-0.021213X-0.021213X-0.219203X0*%
%ADD102R,1.100000X1.100000*%
G04 APERTURE END LIST*
D10*
X107152858Y-93881071D02*
X107152858Y-94881071D01*
X106795715Y-93309642D02*
X106438572Y-94381071D01*
X106438572Y-94381071D02*
X107367143Y-94381071D01*
X107867143Y-94452500D02*
X108581429Y-94452500D01*
X107724286Y-94881071D02*
X108224286Y-93381071D01*
X108224286Y-93381071D02*
X108724286Y-94881071D01*
X112162858Y-127361071D02*
X112162858Y-128361071D01*
X111805715Y-126789642D02*
X111448572Y-127861071D01*
X111448572Y-127861071D02*
X112377143Y-127861071D01*
X112877143Y-127932500D02*
X113591429Y-127932500D01*
X112734286Y-128361071D02*
X113234286Y-126861071D01*
X113234286Y-126861071D02*
X113734286Y-128361071D01*
%TO.C,U1*%
G36*
X143845000Y-127205000D02*
G01*
X143305000Y-127205000D01*
X143305000Y-126885000D01*
X143845000Y-126885000D01*
X143845000Y-127205000D01*
G37*
D11*
X143845000Y-127205000D02*
X143305000Y-127205000D01*
X143305000Y-126885000D01*
X143845000Y-126885000D01*
X143845000Y-127205000D01*
%TO.C,U15*%
G36*
X147520000Y-88660000D02*
G01*
X146980000Y-88660000D01*
X146980000Y-88340000D01*
X147520000Y-88340000D01*
X147520000Y-88660000D01*
G37*
X147520000Y-88660000D02*
X146980000Y-88660000D01*
X146980000Y-88340000D01*
X147520000Y-88340000D01*
X147520000Y-88660000D01*
%TO.C,U14*%
G36*
X182160000Y-125520000D02*
G01*
X181840000Y-125520000D01*
X181840000Y-124980000D01*
X182160000Y-124980000D01*
X182160000Y-125520000D01*
G37*
X182160000Y-125520000D02*
X181840000Y-125520000D01*
X181840000Y-124980000D01*
X182160000Y-124980000D01*
X182160000Y-125520000D01*
%TD*%
D12*
%TO.C,C55*%
X146000000Y-131800000D03*
X146000000Y-130250000D03*
%TD*%
%TO.C,C62*%
X129550000Y-115875000D03*
X129550000Y-114325000D03*
%TD*%
D13*
%TO.C,D19*%
X143727500Y-87772500D03*
X143727500Y-89347500D03*
%TD*%
D14*
%TO.C,C20*%
X123150000Y-139988767D03*
X126100000Y-139988767D03*
%TD*%
D15*
%TO.C,R20*%
X123050000Y-90425000D03*
X124700000Y-90425000D03*
%TD*%
D16*
%TO.C,R52*%
X183000000Y-118750000D03*
X181350000Y-118750000D03*
%TD*%
D17*
%TO.C,C61*%
X178475000Y-104750000D03*
X180025000Y-104750000D03*
%TD*%
D18*
%TO.C,R22*%
X126800000Y-134583767D03*
X126800000Y-135603767D03*
%TD*%
D19*
%TO.C,R43*%
X115500000Y-97275000D03*
X115500000Y-98925000D03*
%TD*%
D20*
%TO.C,D17*%
X179500000Y-124325000D03*
X179500000Y-122750000D03*
%TD*%
D21*
%TO.C,C42*%
X131050000Y-96025000D03*
X131050000Y-94125000D03*
%TD*%
D22*
%TO.C,R39*%
X120300000Y-101365000D03*
X120300000Y-102335000D03*
%TD*%
D23*
%TO.C,J5*%
X118149999Y-121629999D03*
D24*
X120724999Y-121629999D03*
D25*
X127199999Y-121629999D03*
D24*
X133874999Y-121629999D03*
D23*
X136449999Y-121629999D03*
D26*
X118149999Y-119339999D03*
X136449999Y-119339999D03*
D27*
X118149999Y-113049999D03*
X136449999Y-113049999D03*
X118149999Y-107049999D03*
X136449999Y-107049999D03*
X118149999Y-101049999D03*
X136449999Y-101049999D03*
D26*
X118149999Y-94759999D03*
X136449999Y-94759999D03*
D23*
X118149999Y-92469999D03*
D24*
X120724999Y-92469999D03*
D28*
X127299999Y-92469999D03*
D24*
X133874999Y-92469999D03*
D23*
X136449999Y-92469999D03*
%TD*%
D29*
%TO.C,R50*%
X177500000Y-127575000D03*
X177500000Y-125925000D03*
%TD*%
D30*
%TO.C,R36*%
X121400000Y-102360000D03*
X121400000Y-101340000D03*
%TD*%
D31*
%TO.C,Y2*%
X153229999Y-99659999D03*
X155429999Y-99659999D03*
X155429999Y-97959999D03*
X153229999Y-97959999D03*
%TD*%
D32*
%TO.C,D22*%
X137087500Y-87225000D03*
X138662500Y-87225000D03*
%TD*%
D29*
%TO.C,R32*%
X115900000Y-129200000D03*
X115900000Y-127550000D03*
%TD*%
D33*
%TO.C,C59*%
X141180000Y-138000000D03*
X140220000Y-138000000D03*
%TD*%
D34*
%TO.C,U9*%
X138449999Y-123419999D03*
X139099999Y-123419999D03*
X139749999Y-123419999D03*
X139749999Y-121519999D03*
X139099999Y-121519999D03*
X138449999Y-121519999D03*
%TD*%
D17*
%TO.C,C46*%
X181225000Y-123345000D03*
X182775000Y-123345000D03*
%TD*%
D35*
%TO.C,U11*%
X144662500Y-94675000D03*
X144662500Y-95325000D03*
X144662500Y-95975000D03*
X144662500Y-96625000D03*
X144662500Y-97275000D03*
X144662500Y-97925000D03*
X144662500Y-98575000D03*
X144662500Y-99225000D03*
X144662500Y-99875000D03*
X144662500Y-100525000D03*
X150387500Y-100525000D03*
X150387500Y-99875000D03*
X150387500Y-99225000D03*
X150387500Y-98575000D03*
X150387500Y-97925000D03*
X150387500Y-97275000D03*
X150387500Y-96625000D03*
X150387500Y-95975000D03*
X150387500Y-95325000D03*
X150387500Y-94675000D03*
%TD*%
D15*
%TO.C,R2*%
X167605000Y-139715000D03*
X169255000Y-139715000D03*
%TD*%
D12*
%TO.C,C54*%
X140750000Y-131775000D03*
X140750000Y-130225000D03*
%TD*%
D36*
%TO.C,C24*%
X121850000Y-117600000D03*
X121850000Y-119500000D03*
%TD*%
D37*
%TO.C,U13*%
X181249999Y-134549999D03*
X181749999Y-134549999D03*
X182249999Y-134549999D03*
X182749999Y-134549999D03*
D38*
X182799999Y-133999999D03*
X182799999Y-133499999D03*
D37*
X182749999Y-132949999D03*
X182249999Y-132949999D03*
X181749999Y-132949999D03*
X181249999Y-132949999D03*
D38*
X181199999Y-133499999D03*
X181199999Y-133999999D03*
%TD*%
D39*
%TO.C,C35*%
X127878100Y-103850000D03*
X131028100Y-103850000D03*
%TD*%
D12*
%TO.C,C48*%
X145500000Y-89275000D03*
X145500000Y-87725000D03*
%TD*%
D36*
%TO.C,C31*%
X131400000Y-116200000D03*
X131400000Y-118100000D03*
%TD*%
D40*
%TO.C,U20*%
X126175899Y-101349998D03*
X126175899Y-100849999D03*
X126175899Y-100350000D03*
X124474099Y-100350000D03*
X124474099Y-100849999D03*
X124474099Y-101349998D03*
%TD*%
D17*
%TO.C,C21*%
X153785000Y-102045000D03*
X155335000Y-102045000D03*
%TD*%
D41*
%TO.C,R12*%
X178540000Y-116250000D03*
X179560000Y-116250000D03*
%TD*%
D29*
%TO.C,R47*%
X144250000Y-131750000D03*
X144250000Y-130100000D03*
%TD*%
%TO.C,R16*%
X161100000Y-92725000D03*
X161100000Y-91075000D03*
%TD*%
D42*
%TO.C,C27*%
X121400000Y-137043767D03*
X119500000Y-137043767D03*
%TD*%
D43*
%TO.C,R25*%
X131060000Y-139637517D03*
X130040000Y-139637517D03*
%TD*%
D44*
%TO.C,L5*%
X132774729Y-106649999D03*
X132774729Y-108849999D03*
%TD*%
D17*
%TO.C,C19*%
X127250000Y-90700000D03*
X128800000Y-90700000D03*
%TD*%
D33*
%TO.C,C32*%
X133030000Y-140687517D03*
X132070000Y-140687517D03*
%TD*%
D30*
%TO.C,R21*%
X125700000Y-135603767D03*
X125700000Y-134583767D03*
%TD*%
D32*
%TO.C,D8*%
X137087500Y-88850000D03*
X138662500Y-88850000D03*
%TD*%
D29*
%TO.C,R4*%
X144250000Y-106575000D03*
X144250000Y-104925000D03*
%TD*%
D22*
%TO.C,L1*%
X145900000Y-119615000D03*
X145900000Y-120585000D03*
%TD*%
D45*
%TO.C,IC1*%
X151199999Y-142237999D03*
X151999999Y-142237999D03*
X152799999Y-142237999D03*
X153599999Y-142237999D03*
X154399999Y-142237999D03*
X155199999Y-142237999D03*
X155999999Y-142237999D03*
X156799999Y-142237999D03*
D46*
X158237999Y-140799999D03*
X158237999Y-139999999D03*
X158237999Y-139199999D03*
X158237999Y-138399999D03*
X158237999Y-137599999D03*
X158237999Y-136799999D03*
X158237999Y-135999999D03*
X158237999Y-135199999D03*
D45*
X156799999Y-133761999D03*
X155999999Y-133761999D03*
X155199999Y-133761999D03*
X154399999Y-133761999D03*
X153599999Y-133761999D03*
X152799999Y-133761999D03*
X151999999Y-133761999D03*
X151199999Y-133761999D03*
D46*
X149761999Y-135199999D03*
X149761999Y-135999999D03*
X149761999Y-136799999D03*
X149761999Y-137599999D03*
X149761999Y-138399999D03*
X149761999Y-139199999D03*
X149761999Y-139999999D03*
X149761999Y-140799999D03*
%TD*%
D47*
%TO.C,L6*%
X146732340Y-124982340D03*
X147418234Y-124296446D03*
%TD*%
D48*
%TO.C,C13*%
X177322340Y-116412340D03*
X177322340Y-117372340D03*
%TD*%
D12*
%TO.C,C2*%
X141850000Y-127775000D03*
X141850000Y-126225000D03*
%TD*%
D19*
%TO.C,R6*%
X145800000Y-104925000D03*
X145800000Y-106575000D03*
%TD*%
D36*
%TO.C,C30*%
X133500000Y-116200000D03*
X133500000Y-118100000D03*
%TD*%
D21*
%TO.C,C25*%
X131400000Y-114600000D03*
X131400000Y-112700000D03*
%TD*%
D49*
%TO.C,U6*%
X121425000Y-132198767D03*
X123175000Y-132198767D03*
X121425000Y-130888767D03*
X123175000Y-130888767D03*
D50*
X120395000Y-134023767D03*
X121665000Y-134023767D03*
X122935000Y-134023767D03*
X124205000Y-134023767D03*
X124205000Y-129063767D03*
X122935000Y-129063767D03*
X121665000Y-129063767D03*
X120395000Y-129063767D03*
%TD*%
D51*
%TO.C,C49*%
X182775000Y-127155000D03*
X181225000Y-127155000D03*
%TD*%
D41*
%TO.C,R33*%
X132490000Y-120100000D03*
X133510000Y-120100000D03*
%TD*%
D52*
%TO.C,U4*%
X180142340Y-112099840D03*
X182142340Y-112099840D03*
X180142340Y-110399840D03*
X182142340Y-110399840D03*
D53*
X179237340Y-113912340D03*
X180507340Y-113912340D03*
X181777340Y-113912340D03*
X183047340Y-113912340D03*
X183047340Y-108587340D03*
X181777340Y-108587340D03*
X180507340Y-108587340D03*
X179237340Y-108587340D03*
%TD*%
D54*
%TO.C,U1*%
X143825000Y-126250000D03*
X143325000Y-126250000D03*
X143325000Y-127840000D03*
X143825000Y-127840000D03*
%TD*%
D32*
%TO.C,D18*%
X181387500Y-120500000D03*
X182962500Y-120500000D03*
%TD*%
D55*
%TO.C,C7*%
X145950000Y-118530000D03*
X145950000Y-117570000D03*
%TD*%
D56*
%TO.C,U5*%
X183624999Y-96724999D03*
D57*
X183224999Y-96674999D03*
X182824999Y-96674999D03*
X182424999Y-96674999D03*
X182024999Y-96674999D03*
X181624999Y-96674999D03*
X181224999Y-96674999D03*
X180824999Y-96674999D03*
X180424999Y-96674999D03*
X180024999Y-96674999D03*
X180024999Y-98474999D03*
X180424999Y-98474999D03*
X180824999Y-98474999D03*
X181224999Y-98474999D03*
X181624999Y-98474999D03*
X182024999Y-98474999D03*
X182424999Y-98474999D03*
X182824999Y-98474999D03*
X183224999Y-98474999D03*
X183624999Y-98474999D03*
%TD*%
D58*
%TO.C,U18*%
X128150000Y-118500000D03*
X128150000Y-118000000D03*
X128150000Y-117500000D03*
X128150000Y-117000000D03*
D59*
X127400000Y-116750000D03*
X126900000Y-116750000D03*
D60*
X126150000Y-117000000D03*
X126150000Y-117500000D03*
X126150000Y-118000000D03*
X126150000Y-118500000D03*
D61*
X126900000Y-118750000D03*
X127400000Y-118750000D03*
D62*
X127149999Y-117999999D03*
D58*
X127150000Y-117500000D03*
%TD*%
D29*
%TO.C,R35*%
X159300000Y-92725000D03*
X159300000Y-91075000D03*
%TD*%
D21*
%TO.C,C50*%
X128703100Y-96000000D03*
X128703100Y-94100000D03*
%TD*%
D17*
%TO.C,C16*%
X140375000Y-101900000D03*
X141925000Y-101900000D03*
%TD*%
D41*
%TO.C,R34*%
X130190000Y-120100000D03*
X131210000Y-120100000D03*
%TD*%
D55*
%TO.C,C58*%
X146950000Y-142430000D03*
X146950000Y-141470000D03*
%TD*%
D12*
%TO.C,C45*%
X182800000Y-131250000D03*
X182800000Y-129700000D03*
%TD*%
D35*
%TO.C,U10*%
X157967500Y-94535000D03*
X157967500Y-95185000D03*
X157967500Y-95835000D03*
X157967500Y-96485000D03*
X157967500Y-97135000D03*
X157967500Y-97785000D03*
X157967500Y-98435000D03*
X157967500Y-99085000D03*
X157967500Y-99735000D03*
X157967500Y-100385000D03*
X163692500Y-100385000D03*
X163692500Y-99735000D03*
X163692500Y-99085000D03*
X163692500Y-98435000D03*
X163692500Y-97785000D03*
X163692500Y-97135000D03*
X163692500Y-96485000D03*
X163692500Y-95835000D03*
X163692500Y-95185000D03*
X163692500Y-94535000D03*
%TD*%
D51*
%TO.C,C22*%
X155267340Y-96210000D03*
X153717340Y-96210000D03*
%TD*%
D63*
%TO.C,IC2*%
X130973999Y-89061499D03*
X130973999Y-88561499D03*
X130973999Y-88061499D03*
X130973999Y-87561499D03*
X130973999Y-87061499D03*
X127973999Y-87061499D03*
X127973999Y-87561499D03*
X127973999Y-88061499D03*
X127973999Y-88561499D03*
X127973999Y-89061499D03*
D64*
X129473999Y-88061499D03*
%TD*%
D51*
%TO.C,C17*%
X141855000Y-95940000D03*
X140305000Y-95940000D03*
%TD*%
D14*
%TO.C,C26*%
X123150000Y-137543767D03*
X126100000Y-137543767D03*
%TD*%
D23*
%TO.C,J9*%
X117642339Y-142387339D03*
D65*
X118979839Y-142387339D03*
D66*
X123942339Y-142387339D03*
D67*
X129942339Y-142387339D03*
D68*
X135029839Y-142387339D03*
D23*
X136492339Y-142387339D03*
D69*
X117642339Y-141031089D03*
X136492339Y-141031089D03*
D70*
X117642339Y-136049839D03*
X136492339Y-136049839D03*
D71*
X117642339Y-130049839D03*
X136492339Y-130049839D03*
D72*
X117642339Y-124987339D03*
X136492339Y-124987339D03*
D73*
X117667339Y-123537339D03*
D65*
X119017339Y-123537339D03*
D66*
X123979839Y-123537339D03*
D67*
X129979839Y-123537339D03*
D74*
X135042339Y-123537339D03*
D23*
X136492339Y-123537339D03*
%TD*%
D75*
%TO.C,C1*%
X145325000Y-126250000D03*
X145325000Y-127800000D03*
%TD*%
D12*
%TO.C,C44*%
X181000000Y-131275000D03*
X181000000Y-129725000D03*
%TD*%
%TO.C,C29*%
X125850000Y-130125000D03*
X125850000Y-128575000D03*
%TD*%
D43*
%TO.C,R29*%
X139510000Y-120120000D03*
X138490000Y-120120000D03*
%TD*%
D19*
%TO.C,R30*%
X119900000Y-115775000D03*
X119900000Y-117425000D03*
%TD*%
D75*
%TO.C,C47*%
X149000000Y-87725000D03*
X149000000Y-89275000D03*
%TD*%
%TO.C,C3*%
X173380000Y-132315000D03*
X173380000Y-133865000D03*
%TD*%
D16*
%TO.C,R48*%
X150700000Y-102550000D03*
X149050000Y-102550000D03*
%TD*%
D76*
%TO.C,L3*%
X121924999Y-112999999D03*
X124974999Y-112999999D03*
%TD*%
D77*
%TO.C,U3*%
X171749998Y-104515199D03*
X170749998Y-104515199D03*
X169750000Y-104515199D03*
X168749999Y-104515199D03*
X167749999Y-104515199D03*
X166749998Y-104515199D03*
X165750000Y-104515199D03*
X164750000Y-104515199D03*
X163749999Y-104515199D03*
X162749998Y-104515199D03*
X161749998Y-104515199D03*
X160750000Y-104515199D03*
X159749999Y-104515199D03*
X158749999Y-104515199D03*
X157749998Y-104515199D03*
X156749998Y-104515199D03*
X155750000Y-104515199D03*
D78*
X152015199Y-108250000D03*
X152015199Y-109249998D03*
X152015199Y-110249998D03*
X152015199Y-111249999D03*
X152015199Y-112249999D03*
X152015199Y-113250000D03*
X152015199Y-114249998D03*
X152015199Y-115249998D03*
X152015199Y-116249999D03*
X152015199Y-117250000D03*
X152015199Y-118250000D03*
X152015199Y-119249998D03*
X152015199Y-120249999D03*
X152015199Y-121249999D03*
X152015199Y-122250000D03*
X152015199Y-123250000D03*
X152015199Y-124249998D03*
D77*
X155750000Y-127984799D03*
X156749998Y-127984799D03*
X157749998Y-127984799D03*
X158749999Y-127984799D03*
X159749999Y-127984799D03*
X160750000Y-127984799D03*
X161749998Y-127984799D03*
X162749998Y-127984799D03*
X163749999Y-127984799D03*
X164750000Y-127984799D03*
X165750000Y-127984799D03*
X166749998Y-127984799D03*
X167749999Y-127984799D03*
X168749999Y-127984799D03*
X169750000Y-127984799D03*
X170750000Y-127984799D03*
X171749998Y-127984799D03*
D78*
X175484799Y-124249998D03*
X175484799Y-123250000D03*
X175484799Y-122250000D03*
X175484799Y-121249999D03*
X175484799Y-120249999D03*
X175484799Y-119249998D03*
X175484799Y-118250000D03*
X175484799Y-117250000D03*
X175484799Y-116249999D03*
X175484799Y-115249998D03*
X175484799Y-114249998D03*
X175484799Y-113250000D03*
X175484799Y-112249999D03*
X175484799Y-111249999D03*
X175484799Y-110249998D03*
X175484799Y-109249998D03*
X175484799Y-108250000D03*
%TD*%
D17*
%TO.C,C60*%
X140725000Y-133650000D03*
X142275000Y-133650000D03*
%TD*%
D48*
%TO.C,C57*%
X143300000Y-139920000D03*
X143300000Y-140880000D03*
%TD*%
D34*
%TO.C,U7*%
X141839999Y-123319999D03*
X142489999Y-123319999D03*
X143139999Y-123319999D03*
X143139999Y-121419999D03*
X142489999Y-121419999D03*
X141839999Y-121419999D03*
%TD*%
D42*
%TO.C,C43*%
X126703100Y-94600000D03*
X124803100Y-94600000D03*
%TD*%
D12*
%TO.C,C53*%
X115500000Y-95775000D03*
X115500000Y-94225000D03*
%TD*%
D79*
%TO.C,F1*%
X112750000Y-129850000D03*
X112750000Y-132650000D03*
%TD*%
D80*
%TO.C,Q2*%
X142187500Y-111200000D03*
X142187500Y-109300000D03*
X140312500Y-110250000D03*
%TD*%
D29*
%TO.C,R49*%
X142500000Y-131825000D03*
X142500000Y-130175000D03*
%TD*%
D81*
%TO.C,Y3*%
X141899999Y-140499999D03*
X140524999Y-140499999D03*
X140524999Y-139499999D03*
X141874999Y-139499999D03*
%TD*%
D82*
%TO.C,C33*%
X133812500Y-136293767D03*
X128887500Y-136293767D03*
%TD*%
D36*
%TO.C,C36*%
X125444730Y-105972682D03*
X125444730Y-107872682D03*
%TD*%
D54*
%TO.C,U15*%
X147500000Y-87705000D03*
X147000000Y-87705000D03*
X147000000Y-89295000D03*
X147500000Y-89295000D03*
%TD*%
D16*
%TO.C,R18*%
X146525000Y-102525000D03*
X144875000Y-102525000D03*
%TD*%
D83*
%TO.C,U19*%
X151362500Y-87550000D03*
X151362500Y-88500000D03*
X151362500Y-89450000D03*
X153637500Y-89450000D03*
X153637500Y-87550000D03*
%TD*%
D84*
%TO.C,D21*%
X114449999Y-139149999D03*
X114449999Y-137459999D03*
X114449999Y-135799999D03*
X112749999Y-139149999D03*
X112749999Y-137459999D03*
X112749999Y-135799999D03*
X111049999Y-139149999D03*
X111049999Y-137459999D03*
X111049999Y-135799999D03*
D85*
X113789999Y-141264999D03*
X111709999Y-141264999D03*
%TD*%
D17*
%TO.C,C40*%
X150375000Y-91250000D03*
X151925000Y-91250000D03*
%TD*%
D19*
%TO.C,R7*%
X146187500Y-109425000D03*
X146187500Y-111075000D03*
%TD*%
D17*
%TO.C,C14*%
X182255000Y-103215000D03*
X183805000Y-103215000D03*
%TD*%
D15*
%TO.C,R1*%
X167655000Y-138065000D03*
X169305000Y-138065000D03*
%TD*%
D29*
%TO.C,R56*%
X149250000Y-131650000D03*
X149250000Y-130000000D03*
%TD*%
D15*
%TO.C,R44*%
X112225000Y-107100000D03*
X113875000Y-107100000D03*
%TD*%
D86*
%TO.C,D11*%
X112249999Y-108749999D03*
X112249999Y-110049999D03*
X114249999Y-109399999D03*
%TD*%
D43*
%TO.C,R8*%
X146240000Y-123915000D03*
X145220000Y-123915000D03*
%TD*%
D87*
%TO.C,D15*%
X140037500Y-117750000D03*
X138462500Y-117750000D03*
%TD*%
D88*
%TO.C,U2*%
X166850001Y-89500000D03*
X166850001Y-90599999D03*
X166850001Y-91400000D03*
X166850001Y-92999998D03*
X167750001Y-93399998D03*
X166850001Y-93799999D03*
X167750001Y-94199999D03*
X166850001Y-94600000D03*
X167750001Y-95000000D03*
X166850001Y-95399998D03*
X167750001Y-95799998D03*
X166850001Y-96199999D03*
X167750001Y-96599999D03*
X166850001Y-96999998D03*
D89*
X166699998Y-100400000D03*
X167499999Y-100400000D03*
X168300000Y-100400000D03*
X169099999Y-100400000D03*
X169499999Y-99500000D03*
X169900000Y-100400000D03*
X170300000Y-99500000D03*
X170699998Y-100400000D03*
X171099998Y-99500000D03*
X171499999Y-100400000D03*
X171899999Y-99500000D03*
X172300000Y-100400000D03*
X172700000Y-99500000D03*
X173099998Y-100400000D03*
X173499998Y-99500000D03*
X173899999Y-100400000D03*
X174699998Y-100400000D03*
X175499999Y-100400000D03*
X176299997Y-100400000D03*
D88*
X176149997Y-99399998D03*
X176149997Y-98599998D03*
X175249997Y-98199998D03*
X176149997Y-97799998D03*
X175249997Y-97399998D03*
X176149997Y-96999999D03*
X175249997Y-96599999D03*
X176149997Y-96199998D03*
X175249997Y-95799998D03*
X175249997Y-95000000D03*
X176149997Y-94600000D03*
X175249997Y-94199999D03*
X176149997Y-93799999D03*
X175249997Y-93399998D03*
X176149997Y-92999998D03*
X175249997Y-92599998D03*
X175249997Y-91800000D03*
X176149997Y-91400000D03*
X175249997Y-90999999D03*
X176149997Y-90599999D03*
X175249997Y-90199999D03*
X176149997Y-89500000D03*
D89*
X169499999Y-93800000D03*
X170300000Y-93800000D03*
X171099998Y-93800000D03*
X171899999Y-93800000D03*
X172700000Y-93800000D03*
X173499998Y-93800000D03*
%TD*%
D20*
%TO.C,D9*%
X113900000Y-95787500D03*
X113900000Y-94212500D03*
%TD*%
D22*
%TO.C,R40*%
X121400000Y-99015000D03*
X121400000Y-99985000D03*
%TD*%
D86*
%TO.C,D10*%
X114249999Y-112899999D03*
X114249999Y-111599999D03*
X112249999Y-112249999D03*
%TD*%
D29*
%TO.C,R51*%
X179500000Y-127575000D03*
X179500000Y-125925000D03*
%TD*%
D75*
%TO.C,C12*%
X138750000Y-104748000D03*
X138750000Y-106298000D03*
%TD*%
D90*
%TO.C,U14*%
X181205000Y-125000000D03*
X181205000Y-125500000D03*
X182795000Y-125500000D03*
X182795000Y-125000000D03*
%TD*%
D87*
%TO.C,C52*%
X126340600Y-98450000D03*
X124765600Y-98450000D03*
%TD*%
D15*
%TO.C,R3*%
X167605000Y-141815000D03*
X169255000Y-141815000D03*
%TD*%
D29*
%TO.C,R42*%
X113900000Y-98950000D03*
X113900000Y-97300000D03*
%TD*%
D42*
%TO.C,C34*%
X132850000Y-133087517D03*
X130950000Y-133087517D03*
%TD*%
D21*
%TO.C,C28*%
X133500000Y-114600000D03*
X133500000Y-112700000D03*
%TD*%
D75*
%TO.C,C11*%
X138437500Y-109475000D03*
X138437500Y-111025000D03*
%TD*%
D17*
%TO.C,C15*%
X182055000Y-93915000D03*
X183605000Y-93915000D03*
%TD*%
D36*
%TO.C,C23*%
X123950000Y-117600000D03*
X123950000Y-119500000D03*
%TD*%
D42*
%TO.C,C38*%
X130650000Y-110650000D03*
X128750000Y-110650000D03*
%TD*%
D19*
%TO.C,R15*%
X119900000Y-111675000D03*
X119900000Y-113325000D03*
%TD*%
D15*
%TO.C,R54*%
X138500000Y-115110000D03*
X140150000Y-115110000D03*
%TD*%
D16*
%TO.C,R26*%
X135575000Y-88850000D03*
X133925000Y-88850000D03*
%TD*%
D91*
%TO.C,D1*%
X167550000Y-134637500D03*
X168500000Y-134637500D03*
X169450000Y-134637500D03*
X169450000Y-132362500D03*
X168500000Y-132362500D03*
X167550000Y-132362500D03*
%TD*%
D48*
%TO.C,C8*%
X144730000Y-121685000D03*
X144730000Y-122645000D03*
%TD*%
D83*
%TO.C,U12*%
X127605230Y-106900000D03*
X127605230Y-107850000D03*
X127605230Y-108800000D03*
X129880230Y-108800000D03*
X129880230Y-106900000D03*
%TD*%
D15*
%TO.C,R23*%
X140700000Y-135200000D03*
X142350000Y-135200000D03*
%TD*%
D92*
%TO.C,Z1*%
X114899999Y-101687499D03*
D93*
X114974999Y-101149999D03*
D92*
X114899999Y-100612499D03*
X113199999Y-100612499D03*
D93*
X113124999Y-101149999D03*
D92*
X113199999Y-101687499D03*
%TD*%
D94*
%TO.C,L4*%
X129799999Y-101174999D03*
X129799999Y-98124999D03*
%TD*%
D51*
%TO.C,C18*%
X131850000Y-90700000D03*
X130300000Y-90700000D03*
%TD*%
D15*
%TO.C,R38*%
X176930000Y-132315000D03*
X178580000Y-132315000D03*
%TD*%
D13*
%TO.C,D20*%
X151000000Y-130075000D03*
X151000000Y-131650000D03*
%TD*%
D51*
%TO.C,C37*%
X126128100Y-103350000D03*
X124578100Y-103350000D03*
%TD*%
D95*
%TO.C,L2*%
X127849999Y-128143766D03*
X132549999Y-128143766D03*
%TD*%
D29*
%TO.C,R53*%
X142000000Y-89420000D03*
X142000000Y-87770000D03*
%TD*%
D31*
%TO.C,Y1*%
X139899999Y-99624999D03*
X142099999Y-99624999D03*
X142099999Y-97924999D03*
X139899999Y-97924999D03*
%TD*%
D80*
%TO.C,Q1*%
X142425000Y-106698000D03*
X142425000Y-104798000D03*
X140550000Y-105748000D03*
%TD*%
D87*
%TO.C,D14*%
X140037500Y-113500000D03*
X138462500Y-113500000D03*
%TD*%
D12*
%TO.C,C56*%
X145450000Y-142775000D03*
X145450000Y-141225000D03*
%TD*%
D96*
%TO.C,U8*%
X147007999Y-121784999D03*
X146499999Y-121784999D03*
X145991999Y-121784999D03*
X145991999Y-122714999D03*
X146499999Y-122714999D03*
X147007999Y-122714999D03*
%TD*%
D43*
%TO.C,R24*%
X133060000Y-139637517D03*
X132040000Y-139637517D03*
%TD*%
D12*
%TO.C,C41*%
X142700000Y-92675000D03*
X142700000Y-91125000D03*
%TD*%
D97*
%TO.C,L7*%
X150400000Y-127585000D03*
X150400000Y-126615000D03*
%TD*%
D29*
%TO.C,R5*%
X144437500Y-111075000D03*
X144437500Y-109425000D03*
%TD*%
D19*
%TO.C,TH1*%
X110700000Y-87475000D03*
X110700000Y-89125000D03*
%TD*%
D29*
%TO.C,R31*%
X115900000Y-132900000D03*
X115900000Y-131250000D03*
%TD*%
D98*
%TO.C,U16*%
X146937499Y-92674999D03*
X146937499Y-91474999D03*
X146162499Y-92674999D03*
X146162499Y-91474999D03*
D99*
X148099999Y-93049999D03*
X148099999Y-92399999D03*
X148099999Y-91749999D03*
X148099999Y-91099999D03*
X144999999Y-91099999D03*
X144999999Y-91749999D03*
X144999999Y-92399999D03*
X144999999Y-93049999D03*
%TD*%
D42*
%TO.C,C51*%
X126703100Y-96650000D03*
X124803100Y-96650000D03*
%TD*%
D97*
%TO.C,R41*%
X120300000Y-99985000D03*
X120300000Y-99015000D03*
%TD*%
D15*
%TO.C,R19*%
X119975000Y-90425000D03*
X121625000Y-90425000D03*
%TD*%
D43*
%TO.C,R28*%
X143000000Y-120120000D03*
X141980000Y-120120000D03*
%TD*%
D48*
%TO.C,C9*%
X180922340Y-116482340D03*
X180922340Y-117442340D03*
%TD*%
D100*
%TO.C,F2*%
X110350000Y-93850000D03*
X110350000Y-91050000D03*
%TD*%
D101*
%TO.C,C10*%
X149189411Y-125789411D03*
X148510589Y-125110589D03*
%TD*%
D98*
%TO.C,U17*%
X155237499Y-92799999D03*
X155237499Y-91599999D03*
X154462499Y-92799999D03*
X154462499Y-91599999D03*
D99*
X156399999Y-93174999D03*
X156399999Y-92524999D03*
X156399999Y-91874999D03*
X156399999Y-91224999D03*
X153299999Y-91224999D03*
X153299999Y-91874999D03*
X153299999Y-92524999D03*
X153299999Y-93174999D03*
%TD*%
D16*
%TO.C,R55*%
X143225000Y-117700000D03*
X141575000Y-117700000D03*
%TD*%
D30*
%TO.C,R13*%
X178830000Y-99975000D03*
X178830000Y-98955000D03*
%TD*%
D102*
%TO.C,D7*%
X124149999Y-125943766D03*
X121349999Y-125943766D03*
%TD*%
D16*
%TO.C,R14*%
X135575000Y-87250000D03*
X133925000Y-87250000D03*
%TD*%
D15*
%TO.C,R37*%
X176955000Y-134165000D03*
X178605000Y-134165000D03*
%TD*%
D22*
%TO.C,C39*%
X122500000Y-99015000D03*
X122500000Y-99985000D03*
%TD*%
D19*
%TO.C,R46*%
X122394730Y-106197682D03*
X122394730Y-107847682D03*
%TD*%
D16*
%TO.C,R17*%
X126100000Y-87100000D03*
X124450000Y-87100000D03*
%TD*%
D20*
%TO.C,D16*%
X177500000Y-124287500D03*
X177500000Y-122712500D03*
%TD*%
D15*
%TO.C,R45*%
X112175000Y-114600000D03*
X113825000Y-114600000D03*
%TD*%
M02*
