%TF.GenerationSoftware,KiCad,Pcbnew,7.0.5*%
%TF.CreationDate,2023-06-30T09:15:04+08:00*%
%TF.ProjectId,roam,726f616d-2e6b-4696-9361-645f70636258,rev?*%
%TF.SameCoordinates,Original*%
%TF.FileFunction,Drillmap*%
%TF.FilePolarity,Positive*%
%FSLAX45Y45*%
G04 Gerber Fmt 4.5, Leading zero omitted, Abs format (unit mm)*
G04 Created by KiCad (PCBNEW 7.0.5) date 2023-06-30 09:15:04*
%MOMM*%
%LPD*%
G01*
G04 APERTURE LIST*
%ADD10C,0.100000*%
%ADD11C,0.200000*%
%ADD12C,0.030000*%
%ADD13C,0.050000*%
%ADD14C,0.109220*%
%ADD15C,0.125000*%
%ADD16C,0.320000*%
%ADD17C,0.130000*%
%ADD18C,0.320040*%
G04 APERTURE END LIST*
D10*
X10599264Y-8499999D02*
G75*
G03*
X10000000Y-9100000I-734J-598531D01*
G01*
X19999889Y-8600111D02*
X20000000Y-14400000D01*
X10000000Y-13900736D02*
G75*
G03*
X10599264Y-14500000I598530J-734D01*
G01*
X19900000Y-14500000D02*
G75*
G03*
X20000000Y-14400000I0J100000D01*
G01*
X19999889Y-8600111D02*
G75*
G03*
X19899889Y-8500111I-99999J1D01*
G01*
X10599264Y-8500000D02*
X19899889Y-8500111D01*
X10000000Y-13900736D02*
X10000000Y-9100000D01*
X19900000Y-14500000D02*
X10599264Y-14500000D01*
D11*
D12*
X10041000Y-9085000D02*
X10071000Y-9115000D01*
X10071000Y-9085000D02*
X10041000Y-9115000D01*
X10041000Y-9335000D02*
X10071000Y-9365000D01*
X10071000Y-9335000D02*
X10041000Y-9365000D01*
X10041000Y-9585000D02*
X10071000Y-9615000D01*
X10071000Y-9585000D02*
X10041000Y-9615000D01*
X10041000Y-9835000D02*
X10071000Y-9865000D01*
X10071000Y-9835000D02*
X10041000Y-9865000D01*
X10041000Y-10085000D02*
X10071000Y-10115000D01*
X10071000Y-10085000D02*
X10041000Y-10115000D01*
X10041000Y-10335000D02*
X10071000Y-10365000D01*
X10071000Y-10335000D02*
X10041000Y-10365000D01*
X10041000Y-10585000D02*
X10071000Y-10615000D01*
X10071000Y-10585000D02*
X10041000Y-10615000D01*
X10041000Y-10835000D02*
X10071000Y-10865000D01*
X10071000Y-10835000D02*
X10041000Y-10865000D01*
X10041000Y-11085000D02*
X10071000Y-11115000D01*
X10071000Y-11085000D02*
X10041000Y-11115000D01*
X10041000Y-11335000D02*
X10071000Y-11365000D01*
X10071000Y-11335000D02*
X10041000Y-11365000D01*
X10041000Y-11585000D02*
X10071000Y-11615000D01*
X10071000Y-11585000D02*
X10041000Y-11615000D01*
X10041000Y-11835000D02*
X10071000Y-11865000D01*
X10071000Y-11835000D02*
X10041000Y-11865000D01*
X10041000Y-12085000D02*
X10071000Y-12115000D01*
X10071000Y-12085000D02*
X10041000Y-12115000D01*
X10041000Y-12335000D02*
X10071000Y-12365000D01*
X10071000Y-12335000D02*
X10041000Y-12365000D01*
X10041000Y-12585000D02*
X10071000Y-12615000D01*
X10071000Y-12585000D02*
X10041000Y-12615000D01*
X10041000Y-12835000D02*
X10071000Y-12865000D01*
X10071000Y-12835000D02*
X10041000Y-12865000D01*
X10041000Y-13085000D02*
X10071000Y-13115000D01*
X10071000Y-13085000D02*
X10041000Y-13115000D01*
X10041000Y-13335000D02*
X10071000Y-13365000D01*
X10071000Y-13335000D02*
X10041000Y-13365000D01*
X10041000Y-13585000D02*
X10071000Y-13615000D01*
X10071000Y-13585000D02*
X10041000Y-13615000D01*
X10041000Y-13835000D02*
X10071000Y-13865000D01*
X10071000Y-13835000D02*
X10041000Y-13865000D01*
X10091000Y-14108000D02*
X10121000Y-14138000D01*
X10121000Y-14108000D02*
X10091000Y-14138000D01*
X10102000Y-8839000D02*
X10132000Y-8869000D01*
X10132000Y-8839000D02*
X10102000Y-8869000D01*
X10193000Y-11896000D02*
X10223000Y-11926000D01*
X10223000Y-11896000D02*
X10193000Y-11926000D01*
X10285000Y-14335000D02*
X10315000Y-14365000D01*
X10315000Y-14335000D02*
X10285000Y-14365000D01*
X10302000Y-8621000D02*
X10332000Y-8651000D01*
X10332000Y-8621000D02*
X10302000Y-8651000D01*
X10380000Y-12339000D02*
X10410000Y-12369000D01*
X10410000Y-12339000D02*
X10380000Y-12369000D01*
X10384000Y-12117000D02*
X10414000Y-12147000D01*
X10414000Y-12117000D02*
X10384000Y-12147000D01*
X10385000Y-12020000D02*
X10415000Y-12050000D01*
X10415000Y-12020000D02*
X10385000Y-12050000D01*
X10437500Y-12775000D02*
X10467500Y-12805000D01*
X10467500Y-12775000D02*
X10437500Y-12805000D01*
X10460000Y-12390000D02*
X10490000Y-12420000D01*
X10490000Y-12390000D02*
X10460000Y-12420000D01*
X10570000Y-10860000D02*
X10600000Y-10890000D01*
X10600000Y-10860000D02*
X10570000Y-10890000D01*
X10570000Y-11110000D02*
X10600000Y-11140000D01*
X10600000Y-11110000D02*
X10570000Y-11140000D01*
X10570000Y-11370000D02*
X10600000Y-11400000D01*
X10600000Y-11370000D02*
X10570000Y-11400000D01*
X10585000Y-8541000D02*
X10615000Y-8571000D01*
X10615000Y-8541000D02*
X10585000Y-8571000D01*
X10585000Y-14428000D02*
X10615000Y-14458000D01*
X10615000Y-14428000D02*
X10585000Y-14458000D01*
X10640000Y-13535000D02*
X10670000Y-13565000D01*
X10670000Y-13535000D02*
X10640000Y-13565000D01*
X10785000Y-13285000D02*
X10815000Y-13315000D01*
X10815000Y-13285000D02*
X10785000Y-13315000D01*
X10835000Y-8541000D02*
X10865000Y-8571000D01*
X10865000Y-8541000D02*
X10835000Y-8571000D01*
X10835000Y-12345000D02*
X10865000Y-12375000D01*
X10865000Y-12345000D02*
X10835000Y-12375000D01*
X10835000Y-14428000D02*
X10865000Y-14458000D01*
X10865000Y-14428000D02*
X10835000Y-14458000D01*
X10840000Y-11850000D02*
X10870000Y-11880000D01*
X10870000Y-11850000D02*
X10840000Y-11880000D01*
X10840000Y-12095000D02*
X10870000Y-12125000D01*
X10870000Y-12095000D02*
X10840000Y-12125000D01*
X10845000Y-10615000D02*
X10875000Y-10645000D01*
X10875000Y-10615000D02*
X10845000Y-10645000D01*
X10850000Y-11605000D02*
X10880000Y-11635000D01*
X10880000Y-11605000D02*
X10850000Y-11635000D01*
X10885000Y-10185000D02*
X10915000Y-10215000D01*
X10915000Y-10185000D02*
X10885000Y-10215000D01*
X10985000Y-14135000D02*
X11015000Y-14165000D01*
X11015000Y-14135000D02*
X10985000Y-14165000D01*
X11000000Y-8862500D02*
X11030000Y-8892500D01*
X11030000Y-8862500D02*
X11000000Y-8892500D01*
X11085000Y-8541000D02*
X11115000Y-8571000D01*
X11115000Y-8541000D02*
X11085000Y-8571000D01*
X11085000Y-14428000D02*
X11115000Y-14458000D01*
X11115000Y-14428000D02*
X11085000Y-14458000D01*
X11095000Y-10352500D02*
X11125000Y-10382500D01*
X11125000Y-10352500D02*
X11095000Y-10382500D01*
X11149000Y-9428000D02*
X11179000Y-9458000D01*
X11179000Y-9428000D02*
X11149000Y-9458000D01*
X11254000Y-9766000D02*
X11284000Y-9796000D01*
X11284000Y-9766000D02*
X11254000Y-9796000D01*
X11277000Y-9129000D02*
X11307000Y-9159000D01*
X11307000Y-9129000D02*
X11277000Y-9159000D01*
X11295000Y-12575000D02*
X11325000Y-12605000D01*
X11325000Y-12575000D02*
X11295000Y-12605000D01*
X11305000Y-10095000D02*
X11335000Y-10125000D01*
X11335000Y-10095000D02*
X11305000Y-10125000D01*
X11312000Y-9365000D02*
X11342000Y-9395000D01*
X11342000Y-9365000D02*
X11312000Y-9395000D01*
X11330000Y-9585000D02*
X11360000Y-9615000D01*
X11360000Y-9585000D02*
X11330000Y-9615000D01*
X11335000Y-8541000D02*
X11365000Y-8571000D01*
X11365000Y-8541000D02*
X11335000Y-8571000D01*
X11335000Y-14428000D02*
X11365000Y-14458000D01*
X11365000Y-14428000D02*
X11335000Y-14458000D01*
X11381357Y-9140502D02*
X11411357Y-9170502D01*
X11411357Y-9140502D02*
X11381357Y-9170502D01*
X11395000Y-11405000D02*
X11425000Y-11435000D01*
X11425000Y-11405000D02*
X11395000Y-11435000D01*
X11431000Y-11903000D02*
X11461000Y-11933000D01*
X11461000Y-11903000D02*
X11431000Y-11933000D01*
X11431000Y-12051000D02*
X11461000Y-12081000D01*
X11461000Y-12051000D02*
X11431000Y-12081000D01*
X11470000Y-9065000D02*
X11500000Y-9095000D01*
X11500000Y-9065000D02*
X11470000Y-9095000D01*
X11475000Y-8945000D02*
X11505000Y-8975000D01*
X11505000Y-8945000D02*
X11475000Y-8975000D01*
X11535000Y-9430000D02*
X11565000Y-9460000D01*
X11565000Y-9430000D02*
X11535000Y-9460000D01*
X11535000Y-12335000D02*
X11565000Y-12365000D01*
X11565000Y-12335000D02*
X11535000Y-12365000D01*
X11537500Y-9822500D02*
X11567500Y-9852500D01*
X11567500Y-9822500D02*
X11537500Y-9852500D01*
X11542500Y-11322500D02*
X11572500Y-11352500D01*
X11572500Y-11322500D02*
X11542500Y-11352500D01*
X11547500Y-11067500D02*
X11577500Y-11097500D01*
X11577500Y-11067500D02*
X11547500Y-11097500D01*
X11550000Y-13455000D02*
X11580000Y-13485000D01*
X11580000Y-13455000D02*
X11550000Y-13485000D01*
X11585000Y-8541000D02*
X11615000Y-8571000D01*
X11615000Y-8541000D02*
X11585000Y-8571000D01*
X11585000Y-14428000D02*
X11615000Y-14458000D01*
X11615000Y-14428000D02*
X11585000Y-14458000D01*
X11645000Y-12765000D02*
X11675000Y-12795000D01*
X11675000Y-12765000D02*
X11645000Y-12795000D01*
X11645000Y-12925000D02*
X11675000Y-12955000D01*
X11675000Y-12925000D02*
X11645000Y-12955000D01*
X11650000Y-11723750D02*
X11680000Y-11753750D01*
X11680000Y-11723750D02*
X11650000Y-11753750D01*
X11658000Y-9120000D02*
X11688000Y-9150000D01*
X11688000Y-9120000D02*
X11658000Y-9150000D01*
X11665000Y-12335000D02*
X11695000Y-12365000D01*
X11695000Y-12335000D02*
X11665000Y-12365000D01*
X11675000Y-9685000D02*
X11705000Y-9715000D01*
X11705000Y-9685000D02*
X11675000Y-9715000D01*
X11685000Y-11415000D02*
X11715000Y-11445000D01*
X11715000Y-11415000D02*
X11685000Y-11445000D01*
X11685000Y-13855000D02*
X11715000Y-13885000D01*
X11715000Y-13855000D02*
X11685000Y-13885000D01*
X11725000Y-9430000D02*
X11755000Y-9460000D01*
X11755000Y-9430000D02*
X11725000Y-9460000D01*
X11785000Y-9759000D02*
X11815000Y-9789000D01*
X11815000Y-9759000D02*
X11785000Y-9789000D01*
X11785000Y-11405000D02*
X11815000Y-11435000D01*
X11815000Y-11405000D02*
X11785000Y-11435000D01*
X11792500Y-10065000D02*
X11822500Y-10095000D01*
X11822500Y-10065000D02*
X11792500Y-10095000D01*
X11797500Y-10582500D02*
X11827500Y-10612500D01*
X11827500Y-10582500D02*
X11797500Y-10612500D01*
X11805000Y-12335000D02*
X11835000Y-12365000D01*
X11835000Y-12335000D02*
X11805000Y-12365000D01*
X11835000Y-8541000D02*
X11865000Y-8571000D01*
X11865000Y-8541000D02*
X11835000Y-8571000D01*
X11835000Y-14428000D02*
X11865000Y-14458000D01*
X11865000Y-14428000D02*
X11835000Y-14458000D01*
X11855000Y-9055000D02*
X11885000Y-9085000D01*
X11885000Y-9055000D02*
X11855000Y-9085000D01*
X11865000Y-9572500D02*
X11895000Y-9602500D01*
X11895000Y-9572500D02*
X11865000Y-9602500D01*
X11907500Y-11410000D02*
X11937500Y-11440000D01*
X11937500Y-11410000D02*
X11907500Y-11440000D01*
X11922500Y-9107500D02*
X11952500Y-9137500D01*
X11952500Y-9107500D02*
X11922500Y-9137500D01*
X11955000Y-12335000D02*
X11985000Y-12365000D01*
X11985000Y-12335000D02*
X11955000Y-12365000D01*
X11982500Y-11597500D02*
X12012500Y-11627500D01*
X12012500Y-11597500D02*
X11982500Y-11627500D01*
X12005000Y-8965000D02*
X12035000Y-8995000D01*
X12035000Y-8965000D02*
X12005000Y-8995000D01*
X12055000Y-11065000D02*
X12085000Y-11095000D01*
X12085000Y-11065000D02*
X12055000Y-11095000D01*
X12055000Y-11325000D02*
X12085000Y-11355000D01*
X12085000Y-11325000D02*
X12055000Y-11355000D01*
X12060000Y-9425000D02*
X12090000Y-9455000D01*
X12090000Y-9425000D02*
X12060000Y-9455000D01*
X12060000Y-9817500D02*
X12090000Y-9847500D01*
X12090000Y-9817500D02*
X12060000Y-9847500D01*
X12082500Y-11650000D02*
X12112500Y-11680000D01*
X12112500Y-11650000D02*
X12082500Y-11680000D01*
X12085000Y-8541000D02*
X12115000Y-8571000D01*
X12115000Y-8541000D02*
X12085000Y-8571000D01*
X12085000Y-11787500D02*
X12115000Y-11817500D01*
X12115000Y-11787500D02*
X12085000Y-11817500D01*
X12085000Y-14428000D02*
X12115000Y-14458000D01*
X12115000Y-14428000D02*
X12085000Y-14458000D01*
X12110000Y-13060000D02*
X12140000Y-13090000D01*
X12140000Y-13060000D02*
X12110000Y-13090000D01*
X12135000Y-13510000D02*
X12165000Y-13540000D01*
X12165000Y-13510000D02*
X12135000Y-13540000D01*
X12176000Y-8904000D02*
X12206000Y-8934000D01*
X12206000Y-8904000D02*
X12176000Y-8934000D01*
X12185000Y-12425000D02*
X12215000Y-12455000D01*
X12215000Y-12425000D02*
X12185000Y-12455000D01*
X12195000Y-11415000D02*
X12225000Y-11445000D01*
X12225000Y-11415000D02*
X12195000Y-11445000D01*
X12195000Y-11788750D02*
X12225000Y-11818750D01*
X12225000Y-11788750D02*
X12195000Y-11818750D01*
X12205000Y-9105000D02*
X12235000Y-9135000D01*
X12235000Y-9105000D02*
X12205000Y-9135000D01*
X12235000Y-12665000D02*
X12265000Y-12695000D01*
X12265000Y-12665000D02*
X12235000Y-12695000D01*
X12252500Y-9685000D02*
X12282500Y-9715000D01*
X12282500Y-9685000D02*
X12252500Y-9715000D01*
X12260000Y-9472500D02*
X12290000Y-9502500D01*
X12290000Y-9472500D02*
X12260000Y-9502500D01*
X12265000Y-11595000D02*
X12295000Y-11625000D01*
X12295000Y-11595000D02*
X12265000Y-11625000D01*
X12290000Y-11788750D02*
X12320000Y-11818750D01*
X12320000Y-11788750D02*
X12290000Y-11818750D01*
X12305000Y-11415000D02*
X12335000Y-11445000D01*
X12335000Y-11415000D02*
X12305000Y-11445000D01*
X12305000Y-12013750D02*
X12335000Y-12043750D01*
X12335000Y-12013750D02*
X12305000Y-12043750D01*
X12325000Y-10709950D02*
X12355000Y-10739950D01*
X12355000Y-10709950D02*
X12325000Y-10739950D01*
X12335000Y-8541000D02*
X12365000Y-8571000D01*
X12365000Y-8541000D02*
X12335000Y-8571000D01*
X12335000Y-14428000D02*
X12365000Y-14458000D01*
X12365000Y-14428000D02*
X12335000Y-14458000D01*
X12345000Y-9110000D02*
X12375000Y-9140000D01*
X12375000Y-9110000D02*
X12345000Y-9140000D01*
X12389000Y-10049000D02*
X12419000Y-10079000D01*
X12419000Y-10049000D02*
X12389000Y-10079000D01*
X12390000Y-11788750D02*
X12420000Y-11818750D01*
X12420000Y-11788750D02*
X12390000Y-11818750D01*
X12395000Y-11055000D02*
X12425000Y-11085000D01*
X12425000Y-11055000D02*
X12395000Y-11085000D01*
X12395000Y-12345000D02*
X12425000Y-12375000D01*
X12425000Y-12345000D02*
X12395000Y-12375000D01*
X12395000Y-12565000D02*
X12425000Y-12595000D01*
X12425000Y-12565000D02*
X12395000Y-12595000D01*
X12395000Y-12755000D02*
X12425000Y-12785000D01*
X12425000Y-12755000D02*
X12395000Y-12785000D01*
X12395000Y-12955000D02*
X12425000Y-12985000D01*
X12425000Y-12955000D02*
X12395000Y-12985000D01*
X12420000Y-14110000D02*
X12450000Y-14140000D01*
X12450000Y-14110000D02*
X12420000Y-14140000D01*
X12425000Y-10565000D02*
X12455000Y-10595000D01*
X12455000Y-10565000D02*
X12425000Y-10595000D01*
X12426109Y-8888891D02*
X12456109Y-8918891D01*
X12456109Y-8888891D02*
X12426109Y-8918891D01*
X12444000Y-13775000D02*
X12474000Y-13805000D01*
X12474000Y-13775000D02*
X12444000Y-13805000D01*
X12465000Y-11595000D02*
X12495000Y-11625000D01*
X12495000Y-11595000D02*
X12465000Y-11625000D01*
X12475000Y-13275000D02*
X12505000Y-13305000D01*
X12505000Y-13275000D02*
X12475000Y-13305000D01*
X12485000Y-11788750D02*
X12515000Y-11818750D01*
X12515000Y-11788750D02*
X12485000Y-11818750D01*
X12500000Y-10200000D02*
X12530000Y-10230000D01*
X12530000Y-10200000D02*
X12500000Y-10230000D01*
X12522500Y-9555000D02*
X12552500Y-9585000D01*
X12552500Y-9555000D02*
X12522500Y-9585000D01*
X12522500Y-9640050D02*
X12552500Y-9670050D01*
X12552500Y-9640050D02*
X12522500Y-9670050D01*
X12525000Y-13415000D02*
X12555000Y-13445000D01*
X12555000Y-13415000D02*
X12525000Y-13445000D01*
X12526000Y-9861000D02*
X12556000Y-9891000D01*
X12556000Y-9861000D02*
X12526000Y-9891000D01*
X12555000Y-11055000D02*
X12585000Y-11085000D01*
X12585000Y-11055000D02*
X12555000Y-11085000D01*
X12570000Y-10540000D02*
X12600000Y-10570000D01*
X12600000Y-10540000D02*
X12570000Y-10570000D01*
X12585000Y-8541000D02*
X12615000Y-8571000D01*
X12615000Y-8541000D02*
X12585000Y-8571000D01*
X12585000Y-12345000D02*
X12615000Y-12375000D01*
X12615000Y-12345000D02*
X12585000Y-12375000D01*
X12585000Y-14428000D02*
X12615000Y-14458000D01*
X12615000Y-14428000D02*
X12585000Y-14458000D01*
X12590000Y-13120000D02*
X12620000Y-13150000D01*
X12620000Y-13120000D02*
X12590000Y-13150000D01*
X12595000Y-10200000D02*
X12625000Y-10230000D01*
X12625000Y-10200000D02*
X12595000Y-10230000D01*
X12610000Y-9780000D02*
X12640000Y-9810000D01*
X12640000Y-9780000D02*
X12610000Y-9810000D01*
X12635000Y-11410000D02*
X12665000Y-11440000D01*
X12665000Y-11410000D02*
X12635000Y-11440000D01*
X12640000Y-14315000D02*
X12670000Y-14345000D01*
X12670000Y-14315000D02*
X12640000Y-14345000D01*
X12658500Y-8796500D02*
X12688500Y-8826500D01*
X12688500Y-8796500D02*
X12658500Y-8826500D01*
X12696000Y-10537000D02*
X12726000Y-10567000D01*
X12726000Y-10537000D02*
X12696000Y-10567000D01*
X12698000Y-13898000D02*
X12728000Y-13928000D01*
X12728000Y-13898000D02*
X12698000Y-13928000D01*
X12705000Y-11055000D02*
X12735000Y-11085000D01*
X12735000Y-11055000D02*
X12705000Y-11085000D01*
X12705000Y-11155000D02*
X12735000Y-11185000D01*
X12735000Y-11155000D02*
X12705000Y-11185000D01*
X12713000Y-13247000D02*
X12743000Y-13277000D01*
X12743000Y-13247000D02*
X12713000Y-13277000D01*
X12725000Y-13745000D02*
X12755000Y-13775000D01*
X12755000Y-13745000D02*
X12725000Y-13775000D01*
X12730000Y-13345000D02*
X12760000Y-13375000D01*
X12760000Y-13345000D02*
X12730000Y-13375000D01*
X12730000Y-13440000D02*
X12760000Y-13470000D01*
X12760000Y-13440000D02*
X12730000Y-13470000D01*
X12730000Y-13545000D02*
X12760000Y-13575000D01*
X12760000Y-13545000D02*
X12730000Y-13575000D01*
X12750000Y-8840000D02*
X12780000Y-8870000D01*
X12780000Y-8840000D02*
X12750000Y-8870000D01*
X12750000Y-11410000D02*
X12780000Y-11440000D01*
X12780000Y-11410000D02*
X12750000Y-11440000D01*
X12765000Y-11705000D02*
X12795000Y-11735000D01*
X12795000Y-11705000D02*
X12765000Y-11735000D01*
X12775000Y-12345000D02*
X12805000Y-12375000D01*
X12805000Y-12345000D02*
X12775000Y-12375000D01*
X12785000Y-9715000D02*
X12815000Y-9745000D01*
X12815000Y-9715000D02*
X12785000Y-9745000D01*
X12815000Y-11340000D02*
X12845000Y-11370000D01*
X12845000Y-11340000D02*
X12815000Y-11370000D01*
X12835000Y-8541000D02*
X12865000Y-8571000D01*
X12865000Y-8541000D02*
X12835000Y-8571000D01*
X12835000Y-13420000D02*
X12865000Y-13450000D01*
X12865000Y-13420000D02*
X12835000Y-13450000D01*
X12835000Y-13510000D02*
X12865000Y-13540000D01*
X12865000Y-13510000D02*
X12835000Y-13540000D01*
X12835000Y-14428000D02*
X12865000Y-14458000D01*
X12865000Y-14428000D02*
X12835000Y-14458000D01*
X12845000Y-11480000D02*
X12875000Y-11510000D01*
X12875000Y-11480000D02*
X12845000Y-11510000D01*
X12850000Y-10315000D02*
X12880000Y-10345000D01*
X12880000Y-10315000D02*
X12850000Y-10345000D01*
X12850000Y-10575000D02*
X12880000Y-10605000D01*
X12880000Y-10575000D02*
X12850000Y-10605000D01*
X12855000Y-11055000D02*
X12885000Y-11085000D01*
X12885000Y-11055000D02*
X12855000Y-11085000D01*
X12875000Y-11765000D02*
X12905000Y-11795000D01*
X12905000Y-11765000D02*
X12875000Y-11795000D01*
X12875000Y-11905000D02*
X12905000Y-11935000D01*
X12905000Y-11905000D02*
X12875000Y-11935000D01*
X12875000Y-12055000D02*
X12905000Y-12085000D01*
X12905000Y-12055000D02*
X12875000Y-12085000D01*
X12880000Y-9650000D02*
X12910000Y-9680000D01*
X12910000Y-9650000D02*
X12880000Y-9680000D01*
X12885000Y-10030000D02*
X12915000Y-10060000D01*
X12915000Y-10030000D02*
X12885000Y-10060000D01*
X12885000Y-14055000D02*
X12915000Y-14085000D01*
X12915000Y-14055000D02*
X12885000Y-14085000D01*
X12895000Y-10390000D02*
X12925000Y-10420000D01*
X12925000Y-10390000D02*
X12895000Y-10420000D01*
X12920000Y-11420000D02*
X12950000Y-11450000D01*
X12950000Y-11420000D02*
X12920000Y-11450000D01*
X12937050Y-8895000D02*
X12967050Y-8925000D01*
X12967050Y-8895000D02*
X12937050Y-8925000D01*
X12947500Y-9562500D02*
X12977500Y-9592500D01*
X12977500Y-9562500D02*
X12947500Y-9592500D01*
X12952000Y-13712000D02*
X12982000Y-13742000D01*
X12982000Y-13712000D02*
X12952000Y-13742000D01*
X12953000Y-9356000D02*
X12983000Y-9386000D01*
X12983000Y-9356000D02*
X12953000Y-9386000D01*
X12965000Y-12345000D02*
X12995000Y-12375000D01*
X12995000Y-12345000D02*
X12965000Y-12375000D01*
X12980050Y-10765000D02*
X13010050Y-10795000D01*
X13010050Y-10765000D02*
X12980050Y-10795000D01*
X12990000Y-10650000D02*
X13020000Y-10680000D01*
X13020000Y-10650000D02*
X12990000Y-10680000D01*
X12992000Y-8965000D02*
X13022000Y-8995000D01*
X13022000Y-8965000D02*
X12992000Y-8995000D01*
X13005000Y-11055000D02*
X13035000Y-11085000D01*
X13035000Y-11055000D02*
X13005000Y-11085000D01*
X13010000Y-13515000D02*
X13040000Y-13545000D01*
X13040000Y-13515000D02*
X13010000Y-13545000D01*
X13015000Y-13415000D02*
X13045000Y-13445000D01*
X13045000Y-13415000D02*
X13015000Y-13445000D01*
X13030000Y-9755000D02*
X13060000Y-9785000D01*
X13060000Y-9755000D02*
X13030000Y-9785000D01*
X13040000Y-14050000D02*
X13070000Y-14080000D01*
X13070000Y-14050000D02*
X13040000Y-14080000D01*
X13045000Y-9190000D02*
X13075000Y-9220000D01*
X13075000Y-9190000D02*
X13045000Y-9220000D01*
X13045000Y-9495000D02*
X13075000Y-9525000D01*
X13075000Y-9495000D02*
X13045000Y-9525000D01*
X13045000Y-11512000D02*
X13075000Y-11542000D01*
X13075000Y-11512000D02*
X13045000Y-11542000D01*
X13068233Y-10035000D02*
X13098233Y-10065000D01*
X13098233Y-10035000D02*
X13068233Y-10065000D01*
X13082023Y-11179043D02*
X13112023Y-11209042D01*
X13112023Y-11179043D02*
X13082023Y-11209042D01*
X13085000Y-8541000D02*
X13115000Y-8571000D01*
X13115000Y-8541000D02*
X13085000Y-8571000D01*
X13085000Y-14428000D02*
X13115000Y-14458000D01*
X13115000Y-14428000D02*
X13085000Y-14458000D01*
X13100000Y-14195000D02*
X13130000Y-14225000D01*
X13130000Y-14195000D02*
X13100000Y-14225000D01*
X13110000Y-10600000D02*
X13140000Y-10630000D01*
X13140000Y-10600000D02*
X13110000Y-10630000D01*
X13120000Y-8895000D02*
X13150000Y-8925000D01*
X13150000Y-8895000D02*
X13120000Y-8925000D01*
X13150000Y-11512000D02*
X13180000Y-11542000D01*
X13180000Y-11512000D02*
X13150000Y-11542000D01*
X13155000Y-11055000D02*
X13185000Y-11085000D01*
X13185000Y-11055000D02*
X13155000Y-11085000D01*
X13155000Y-11350000D02*
X13185000Y-11380000D01*
X13185000Y-11350000D02*
X13155000Y-11380000D01*
X13155000Y-12345000D02*
X13185000Y-12375000D01*
X13185000Y-12345000D02*
X13155000Y-12375000D01*
X13165000Y-13235000D02*
X13195000Y-13265000D01*
X13195000Y-13235000D02*
X13165000Y-13265000D01*
X13175000Y-13965000D02*
X13205000Y-13995000D01*
X13205000Y-13965000D02*
X13175000Y-13995000D01*
X13190000Y-9635000D02*
X13220000Y-9665000D01*
X13220000Y-9635000D02*
X13190000Y-9665000D01*
X13190000Y-10545000D02*
X13220000Y-10575000D01*
X13220000Y-10545000D02*
X13190000Y-10575000D01*
X13195000Y-9185000D02*
X13225000Y-9215000D01*
X13225000Y-9185000D02*
X13195000Y-9215000D01*
X13195000Y-11680000D02*
X13225000Y-11710000D01*
X13225000Y-11680000D02*
X13195000Y-11710000D01*
X13207000Y-9354000D02*
X13237000Y-9384000D01*
X13237000Y-9354000D02*
X13207000Y-9384000D01*
X13220000Y-13545000D02*
X13250000Y-13575000D01*
X13250000Y-13545000D02*
X13220000Y-13575000D01*
X13220000Y-13660000D02*
X13250000Y-13690000D01*
X13250000Y-13660000D02*
X13220000Y-13690000D01*
X13245000Y-13235000D02*
X13275000Y-13265000D01*
X13275000Y-13235000D02*
X13245000Y-13265000D01*
X13250000Y-12420000D02*
X13280000Y-12450000D01*
X13280000Y-12420000D02*
X13250000Y-12450000D01*
X13250000Y-14195000D02*
X13280000Y-14225000D01*
X13280000Y-14195000D02*
X13250000Y-14225000D01*
X13255000Y-14045000D02*
X13285000Y-14075000D01*
X13285000Y-14045000D02*
X13255000Y-14075000D01*
X13265000Y-11375000D02*
X13295000Y-11405000D01*
X13295000Y-11375000D02*
X13265000Y-11405000D01*
X13270000Y-9655000D02*
X13300000Y-9685000D01*
X13300000Y-9655000D02*
X13270000Y-9685000D01*
X13315000Y-11055000D02*
X13345000Y-11085000D01*
X13345000Y-11055000D02*
X13315000Y-11085000D01*
X13330000Y-13235000D02*
X13360000Y-13265000D01*
X13360000Y-13235000D02*
X13330000Y-13265000D01*
X13330000Y-13660000D02*
X13360000Y-13690000D01*
X13360000Y-13660000D02*
X13330000Y-13690000D01*
X13335000Y-8541000D02*
X13365000Y-8571000D01*
X13365000Y-8541000D02*
X13335000Y-8571000D01*
X13335000Y-12345000D02*
X13365000Y-12375000D01*
X13365000Y-12345000D02*
X13335000Y-12375000D01*
X13335000Y-13540000D02*
X13365000Y-13570000D01*
X13365000Y-13540000D02*
X13335000Y-13570000D01*
X13335000Y-14428000D02*
X13365000Y-14458000D01*
X13365000Y-14428000D02*
X13335000Y-14458000D01*
X13345000Y-9700000D02*
X13375000Y-9730000D01*
X13375000Y-9700000D02*
X13345000Y-9730000D01*
X13345000Y-11220000D02*
X13375000Y-11250000D01*
X13375000Y-11220000D02*
X13345000Y-11250000D01*
X13355000Y-11425000D02*
X13385000Y-11455000D01*
X13385000Y-11425000D02*
X13355000Y-11455000D01*
X13360000Y-9615000D02*
X13390000Y-9645000D01*
X13390000Y-9615000D02*
X13360000Y-9645000D01*
X13380000Y-13775000D02*
X13410000Y-13805000D01*
X13410000Y-13775000D02*
X13380000Y-13805000D01*
X13380000Y-13905000D02*
X13410000Y-13935000D01*
X13410000Y-13905000D02*
X13380000Y-13935000D01*
X13380000Y-14045000D02*
X13410000Y-14075000D01*
X13410000Y-14045000D02*
X13380000Y-14075000D01*
X13380000Y-14190000D02*
X13410000Y-14220000D01*
X13410000Y-14190000D02*
X13380000Y-14220000D01*
X13381950Y-13465000D02*
X13411950Y-13495000D01*
X13411950Y-13465000D02*
X13381950Y-13495000D01*
X13385000Y-10440000D02*
X13415000Y-10470000D01*
X13415000Y-10440000D02*
X13385000Y-10470000D01*
X13387000Y-10546000D02*
X13417000Y-10576000D01*
X13417000Y-10546000D02*
X13387000Y-10576000D01*
X13420000Y-9730000D02*
X13450000Y-9760000D01*
X13450000Y-9730000D02*
X13420000Y-9760000D01*
X13420000Y-13235000D02*
X13450000Y-13265000D01*
X13450000Y-13235000D02*
X13420000Y-13265000D01*
X13439974Y-8955000D02*
X13469974Y-8985000D01*
X13469974Y-8955000D02*
X13439974Y-8985000D01*
X13450000Y-13540000D02*
X13480000Y-13570000D01*
X13480000Y-13540000D02*
X13450000Y-13570000D01*
X13450000Y-13665000D02*
X13480000Y-13695000D01*
X13480000Y-13665000D02*
X13450000Y-13695000D01*
X13455000Y-9375000D02*
X13485000Y-9405000D01*
X13485000Y-9375000D02*
X13455000Y-9405000D01*
X13465000Y-11335000D02*
X13495000Y-11365000D01*
X13495000Y-11335000D02*
X13465000Y-11365000D01*
X13475000Y-9110000D02*
X13505000Y-9140000D01*
X13505000Y-9110000D02*
X13475000Y-9140000D01*
X13475000Y-11055000D02*
X13505000Y-11085000D01*
X13505000Y-11055000D02*
X13475000Y-11085000D01*
X13475000Y-11215000D02*
X13505000Y-11245000D01*
X13505000Y-11215000D02*
X13475000Y-11245000D01*
X13495000Y-10155000D02*
X13525000Y-10185000D01*
X13525000Y-10155000D02*
X13495000Y-10185000D01*
X13508000Y-9750000D02*
X13538000Y-9780000D01*
X13538000Y-9750000D02*
X13508000Y-9780000D01*
X13515000Y-11700000D02*
X13545000Y-11730000D01*
X13545000Y-11700000D02*
X13515000Y-11730000D01*
X13538750Y-9268750D02*
X13568750Y-9298750D01*
X13568750Y-9268750D02*
X13538750Y-9298750D01*
X13555000Y-12085000D02*
X13585000Y-12115000D01*
X13585000Y-12085000D02*
X13555000Y-12115000D01*
X13565000Y-10110000D02*
X13595000Y-10140000D01*
X13595000Y-10110000D02*
X13565000Y-10140000D01*
X13570000Y-11325000D02*
X13600000Y-11355000D01*
X13600000Y-11325000D02*
X13570000Y-11355000D01*
X13574000Y-9040000D02*
X13604000Y-9070000D01*
X13604000Y-9040000D02*
X13574000Y-9070000D01*
X13575000Y-13290000D02*
X13605000Y-13320000D01*
X13605000Y-13290000D02*
X13575000Y-13320000D01*
X13580000Y-13415000D02*
X13610000Y-13445000D01*
X13610000Y-13415000D02*
X13580000Y-13445000D01*
X13580000Y-13540000D02*
X13610000Y-13570000D01*
X13610000Y-13540000D02*
X13580000Y-13570000D01*
X13580000Y-13665000D02*
X13610000Y-13695000D01*
X13610000Y-13665000D02*
X13580000Y-13695000D01*
X13585000Y-8541000D02*
X13615000Y-8571000D01*
X13615000Y-8541000D02*
X13585000Y-8571000D01*
X13585000Y-12845000D02*
X13615000Y-12875000D01*
X13615000Y-12845000D02*
X13585000Y-12875000D01*
X13585000Y-12955000D02*
X13615000Y-12985000D01*
X13615000Y-12955000D02*
X13585000Y-12985000D01*
X13585000Y-13065000D02*
X13615000Y-13095000D01*
X13615000Y-13065000D02*
X13585000Y-13095000D01*
X13585000Y-13170000D02*
X13615000Y-13200000D01*
X13615000Y-13170000D02*
X13585000Y-13200000D01*
X13585000Y-14428000D02*
X13615000Y-14458000D01*
X13615000Y-14428000D02*
X13585000Y-14458000D01*
X13595000Y-12425000D02*
X13625000Y-12455000D01*
X13625000Y-12425000D02*
X13595000Y-12455000D01*
X13596000Y-9131000D02*
X13626000Y-9161000D01*
X13626000Y-9131000D02*
X13596000Y-9161000D01*
X13605000Y-10915000D02*
X13635000Y-10945000D01*
X13635000Y-10915000D02*
X13605000Y-10945000D01*
X13625000Y-11055000D02*
X13655000Y-11085000D01*
X13655000Y-11055000D02*
X13625000Y-11085000D01*
X13625000Y-11215000D02*
X13655000Y-11245000D01*
X13655000Y-11215000D02*
X13625000Y-11245000D01*
X13655000Y-9350000D02*
X13685000Y-9380000D01*
X13685000Y-9350000D02*
X13655000Y-9380000D01*
X13655000Y-9490000D02*
X13685000Y-9520000D01*
X13685000Y-9490000D02*
X13655000Y-9520000D01*
X13660000Y-9015000D02*
X13690000Y-9045000D01*
X13690000Y-9015000D02*
X13660000Y-9045000D01*
X13660000Y-9620000D02*
X13690000Y-9650000D01*
X13690000Y-9620000D02*
X13660000Y-9650000D01*
X13665000Y-10845000D02*
X13695000Y-10875000D01*
X13695000Y-10845000D02*
X13665000Y-10875000D01*
X13665000Y-12085000D02*
X13695000Y-12115000D01*
X13695000Y-12085000D02*
X13665000Y-12115000D01*
X13670000Y-11325000D02*
X13700000Y-11355000D01*
X13700000Y-11325000D02*
X13670000Y-11355000D01*
X13683000Y-10632000D02*
X13713000Y-10662000D01*
X13713000Y-10632000D02*
X13683000Y-10662000D01*
X13690000Y-10475000D02*
X13720000Y-10505000D01*
X13720000Y-10475000D02*
X13690000Y-10505000D01*
X13690000Y-13290000D02*
X13720000Y-13320000D01*
X13720000Y-13290000D02*
X13690000Y-13320000D01*
X13690000Y-13420000D02*
X13720000Y-13450000D01*
X13720000Y-13420000D02*
X13690000Y-13450000D01*
X13690000Y-13540000D02*
X13720000Y-13570000D01*
X13720000Y-13540000D02*
X13690000Y-13570000D01*
X13710000Y-10365000D02*
X13740000Y-10395000D01*
X13740000Y-10365000D02*
X13710000Y-10395000D01*
X13719000Y-13631000D02*
X13749000Y-13661000D01*
X13749000Y-13631000D02*
X13719000Y-13661000D01*
X13719000Y-13711000D02*
X13749000Y-13741000D01*
X13749000Y-13711000D02*
X13719000Y-13741000D01*
X13760000Y-10285000D02*
X13790000Y-10315000D01*
X13790000Y-10285000D02*
X13760000Y-10315000D01*
X13780000Y-11325000D02*
X13810000Y-11355000D01*
X13810000Y-11325000D02*
X13780000Y-11355000D01*
X13785000Y-12085000D02*
X13815000Y-12115000D01*
X13815000Y-12085000D02*
X13785000Y-12115000D01*
X13785000Y-13475000D02*
X13815000Y-13505000D01*
X13815000Y-13475000D02*
X13785000Y-13505000D01*
X13805000Y-11075000D02*
X13835000Y-11105000D01*
X13835000Y-11075000D02*
X13805000Y-11105000D01*
X13805000Y-11215000D02*
X13835000Y-11245000D01*
X13835000Y-11215000D02*
X13805000Y-11245000D01*
X13805000Y-13631000D02*
X13835000Y-13661000D01*
X13835000Y-13631000D02*
X13805000Y-13661000D01*
X13805000Y-13712000D02*
X13835000Y-13742000D01*
X13835000Y-13712000D02*
X13805000Y-13742000D01*
X13835000Y-8541000D02*
X13865000Y-8571000D01*
X13865000Y-8541000D02*
X13835000Y-8571000D01*
X13835000Y-14428000D02*
X13865000Y-14458000D01*
X13865000Y-14428000D02*
X13835000Y-14458000D01*
X13865000Y-8855000D02*
X13895000Y-8885000D01*
X13895000Y-8855000D02*
X13865000Y-8885000D01*
X13890000Y-11325000D02*
X13920000Y-11355000D01*
X13920000Y-11325000D02*
X13890000Y-11355000D01*
X13895000Y-10020000D02*
X13925000Y-10050000D01*
X13925000Y-10020000D02*
X13895000Y-10050000D01*
X13895000Y-12425000D02*
X13925000Y-12455000D01*
X13925000Y-12425000D02*
X13895000Y-12455000D01*
X13905000Y-12085000D02*
X13935000Y-12115000D01*
X13935000Y-12085000D02*
X13905000Y-12115000D01*
X13935000Y-13825000D02*
X13965000Y-13855000D01*
X13965000Y-13825000D02*
X13935000Y-13855000D01*
X13935000Y-13995000D02*
X13965000Y-14025000D01*
X13965000Y-13995000D02*
X13935000Y-14025000D01*
X13955000Y-8810000D02*
X13985000Y-8840000D01*
X13985000Y-8810000D02*
X13955000Y-8840000D01*
X13960000Y-12775000D02*
X13990000Y-12805000D01*
X13990000Y-12775000D02*
X13960000Y-12805000D01*
X13965000Y-9442550D02*
X13995000Y-9472550D01*
X13995000Y-9442550D02*
X13965000Y-9472550D01*
X13985000Y-11075000D02*
X14015000Y-11105000D01*
X14015000Y-11075000D02*
X13985000Y-11105000D01*
X13985000Y-11215000D02*
X14015000Y-11245000D01*
X14015000Y-11215000D02*
X13985000Y-11245000D01*
X13987500Y-12627500D02*
X14017500Y-12657500D01*
X14017500Y-12627500D02*
X13987500Y-12657500D01*
X14020000Y-9380000D02*
X14050000Y-9410000D01*
X14050000Y-9380000D02*
X14020000Y-9410000D01*
X14035000Y-9052500D02*
X14065000Y-9082500D01*
X14065000Y-9052500D02*
X14035000Y-9082500D01*
X14040000Y-9550000D02*
X14070000Y-9580000D01*
X14070000Y-9550000D02*
X14040000Y-9580000D01*
X14045000Y-13810000D02*
X14075000Y-13840000D01*
X14075000Y-13810000D02*
X14045000Y-13840000D01*
X14060000Y-10460000D02*
X14090000Y-10490000D01*
X14090000Y-10460000D02*
X14060000Y-10490000D01*
X14085000Y-8541000D02*
X14115000Y-8571000D01*
X14115000Y-8541000D02*
X14085000Y-8571000D01*
X14085000Y-9760000D02*
X14115000Y-9790000D01*
X14115000Y-9760000D02*
X14085000Y-9790000D01*
X14085000Y-14428000D02*
X14115000Y-14458000D01*
X14115000Y-14428000D02*
X14085000Y-14458000D01*
X14095000Y-13435000D02*
X14125000Y-13465000D01*
X14125000Y-13435000D02*
X14095000Y-13465000D01*
X14096000Y-13352000D02*
X14126000Y-13382000D01*
X14126000Y-13352000D02*
X14096000Y-13382000D01*
X14129000Y-11118000D02*
X14159000Y-11148000D01*
X14159000Y-11118000D02*
X14129000Y-11148000D01*
X14131000Y-11886000D02*
X14161000Y-11916000D01*
X14161000Y-11886000D02*
X14131000Y-11916000D01*
X14131000Y-12061000D02*
X14161000Y-12091000D01*
X14161000Y-12061000D02*
X14131000Y-12091000D01*
X14131000Y-12236000D02*
X14161000Y-12266000D01*
X14161000Y-12236000D02*
X14131000Y-12266000D01*
X14141000Y-11536000D02*
X14171000Y-11566000D01*
X14171000Y-11536000D02*
X14141000Y-11566000D01*
X14141000Y-11711000D02*
X14171000Y-11741000D01*
X14171000Y-11711000D02*
X14141000Y-11741000D01*
X14165000Y-9055000D02*
X14195000Y-9085000D01*
X14195000Y-9055000D02*
X14165000Y-9085000D01*
X14165000Y-10080000D02*
X14195000Y-10110000D01*
X14195000Y-10080000D02*
X14165000Y-10110000D01*
X14171225Y-8946225D02*
X14201225Y-8976225D01*
X14201225Y-8946225D02*
X14171225Y-8976225D01*
X14177500Y-13352500D02*
X14207500Y-13382500D01*
X14207500Y-13352500D02*
X14177500Y-13382500D01*
X14178000Y-13434000D02*
X14208000Y-13464000D01*
X14208000Y-13434000D02*
X14178000Y-13464000D01*
X14222500Y-10290000D02*
X14252500Y-10320000D01*
X14252500Y-10290000D02*
X14222500Y-10320000D01*
X14235000Y-11385000D02*
X14265000Y-11415000D01*
X14265000Y-11385000D02*
X14235000Y-11415000D01*
X14255000Y-13235000D02*
X14285000Y-13265000D01*
X14285000Y-13235000D02*
X14255000Y-13265000D01*
X14260000Y-13335000D02*
X14290000Y-13365000D01*
X14290000Y-13335000D02*
X14260000Y-13365000D01*
X14262500Y-13435000D02*
X14292500Y-13465000D01*
X14292500Y-13435000D02*
X14262500Y-13465000D01*
X14270000Y-10980000D02*
X14300000Y-11010000D01*
X14300000Y-10980000D02*
X14270000Y-11010000D01*
X14285000Y-9835000D02*
X14315000Y-9865000D01*
X14315000Y-9835000D02*
X14285000Y-9865000D01*
X14335000Y-8541000D02*
X14365000Y-8571000D01*
X14365000Y-8541000D02*
X14335000Y-8571000D01*
X14335000Y-14428000D02*
X14365000Y-14458000D01*
X14365000Y-14428000D02*
X14335000Y-14458000D01*
X14360000Y-11285000D02*
X14390000Y-11315000D01*
X14390000Y-11285000D02*
X14360000Y-11315000D01*
X14365000Y-12935000D02*
X14395000Y-12965000D01*
X14395000Y-12935000D02*
X14365000Y-12965000D01*
X14365000Y-13035000D02*
X14395000Y-13065000D01*
X14395000Y-13035000D02*
X14365000Y-13065000D01*
X14365000Y-13135000D02*
X14395000Y-13165000D01*
X14395000Y-13135000D02*
X14365000Y-13165000D01*
X14365000Y-13235000D02*
X14395000Y-13265000D01*
X14395000Y-13235000D02*
X14365000Y-13265000D01*
X14365000Y-13335000D02*
X14395000Y-13365000D01*
X14395000Y-13335000D02*
X14365000Y-13365000D01*
X14365000Y-13435000D02*
X14395000Y-13465000D01*
X14395000Y-13435000D02*
X14365000Y-13465000D01*
X14365000Y-13775000D02*
X14395000Y-13805000D01*
X14395000Y-13775000D02*
X14365000Y-13805000D01*
X14405000Y-13945000D02*
X14435000Y-13975000D01*
X14435000Y-13945000D02*
X14405000Y-13975000D01*
X14405000Y-14045000D02*
X14435000Y-14075000D01*
X14435000Y-14045000D02*
X14405000Y-14075000D01*
X14405000Y-14145000D02*
X14435000Y-14175000D01*
X14435000Y-14145000D02*
X14405000Y-14175000D01*
X14432500Y-8990000D02*
X14462500Y-9020000D01*
X14462500Y-8990000D02*
X14432500Y-9020000D01*
X14445000Y-12525000D02*
X14475000Y-12555000D01*
X14475000Y-12525000D02*
X14445000Y-12555000D01*
X14460000Y-9935000D02*
X14490000Y-9965000D01*
X14490000Y-9935000D02*
X14460000Y-9965000D01*
X14465000Y-10490000D02*
X14495000Y-10520000D01*
X14495000Y-10490000D02*
X14465000Y-10520000D01*
X14470000Y-13785000D02*
X14500000Y-13815000D01*
X14500000Y-13785000D02*
X14470000Y-13815000D01*
X14475000Y-13040000D02*
X14505000Y-13070000D01*
X14505000Y-13040000D02*
X14475000Y-13070000D01*
X14475000Y-13130000D02*
X14505000Y-13160000D01*
X14505000Y-13130000D02*
X14475000Y-13160000D01*
X14475000Y-13230000D02*
X14505000Y-13260000D01*
X14505000Y-13230000D02*
X14475000Y-13260000D01*
X14475000Y-13340000D02*
X14505000Y-13370000D01*
X14505000Y-13340000D02*
X14475000Y-13370000D01*
X14475000Y-13440000D02*
X14505000Y-13470000D01*
X14505000Y-13440000D02*
X14475000Y-13470000D01*
X14525000Y-13945000D02*
X14555000Y-13975000D01*
X14555000Y-13945000D02*
X14525000Y-13975000D01*
X14560000Y-9810000D02*
X14590000Y-9840000D01*
X14590000Y-9810000D02*
X14560000Y-9840000D01*
X14585000Y-8541000D02*
X14615000Y-8571000D01*
X14615000Y-8541000D02*
X14585000Y-8571000D01*
X14585000Y-14428000D02*
X14615000Y-14458000D01*
X14615000Y-14428000D02*
X14585000Y-14458000D01*
X14595000Y-9045000D02*
X14625000Y-9075000D01*
X14625000Y-9045000D02*
X14595000Y-9075000D01*
X14625000Y-10000000D02*
X14655000Y-10030000D01*
X14655000Y-10000000D02*
X14625000Y-10030000D01*
X14665000Y-10725000D02*
X14695000Y-10755000D01*
X14695000Y-10725000D02*
X14665000Y-10755000D01*
X14678644Y-13191356D02*
X14708644Y-13221356D01*
X14708644Y-13191356D02*
X14678644Y-13221356D01*
X14685000Y-13410000D02*
X14715000Y-13440000D01*
X14715000Y-13410000D02*
X14685000Y-13440000D01*
X14725000Y-13655000D02*
X14755000Y-13685000D01*
X14755000Y-13655000D02*
X14725000Y-13685000D01*
X14725000Y-14005000D02*
X14755000Y-14035000D01*
X14755000Y-14005000D02*
X14725000Y-14035000D01*
X14765000Y-10420000D02*
X14795000Y-10450000D01*
X14795000Y-10420000D02*
X14765000Y-10450000D01*
X14765000Y-12850000D02*
X14795000Y-12880000D01*
X14795000Y-12850000D02*
X14765000Y-12880000D01*
X14805000Y-9860000D02*
X14835000Y-9890000D01*
X14835000Y-9860000D02*
X14805000Y-9890000D01*
X14805000Y-13335000D02*
X14835000Y-13365000D01*
X14835000Y-13335000D02*
X14805000Y-13365000D01*
X14835000Y-8541000D02*
X14865000Y-8571000D01*
X14865000Y-8541000D02*
X14835000Y-8571000D01*
X14835000Y-8970000D02*
X14865000Y-9000000D01*
X14865000Y-8970000D02*
X14835000Y-9000000D01*
X14835000Y-14428000D02*
X14865000Y-14458000D01*
X14865000Y-14428000D02*
X14835000Y-14458000D01*
X14865000Y-13805000D02*
X14895000Y-13835000D01*
X14895000Y-13805000D02*
X14865000Y-13835000D01*
X14880000Y-9820000D02*
X14910000Y-9850000D01*
X14910000Y-9820000D02*
X14880000Y-9850000D01*
X14930000Y-9535000D02*
X14960000Y-9565000D01*
X14960000Y-9535000D02*
X14930000Y-9565000D01*
X14935000Y-10000000D02*
X14965000Y-10030000D01*
X14965000Y-10000000D02*
X14935000Y-10030000D01*
X14935000Y-11165000D02*
X14965000Y-11195000D01*
X14965000Y-11165000D02*
X14935000Y-11195000D01*
X14940000Y-9625000D02*
X14970000Y-9655000D01*
X14970000Y-9625000D02*
X14940000Y-9655000D01*
X14953644Y-13466356D02*
X14983644Y-13496356D01*
X14983644Y-13466356D02*
X14953644Y-13496356D01*
X14960000Y-9275000D02*
X14990000Y-9305000D01*
X14990000Y-9275000D02*
X14960000Y-9305000D01*
X14975000Y-9400000D02*
X15005000Y-9430000D01*
X15005000Y-9400000D02*
X14975000Y-9430000D01*
X14985000Y-9085000D02*
X15015000Y-9115000D01*
X15015000Y-9085000D02*
X14985000Y-9115000D01*
X15025000Y-12945000D02*
X15055000Y-12975000D01*
X15055000Y-12945000D02*
X15025000Y-12975000D01*
X15060000Y-11080000D02*
X15090000Y-11110000D01*
X15090000Y-11080000D02*
X15060000Y-11110000D01*
X15060000Y-12265000D02*
X15090000Y-12295000D01*
X15090000Y-12265000D02*
X15060000Y-12295000D01*
X15070000Y-11910000D02*
X15100000Y-11940000D01*
X15100000Y-11910000D02*
X15070000Y-11940000D01*
X15085000Y-8541000D02*
X15115000Y-8571000D01*
X15115000Y-8541000D02*
X15085000Y-8571000D01*
X15085000Y-14428000D02*
X15115000Y-14458000D01*
X15115000Y-14428000D02*
X15085000Y-14458000D01*
X15120000Y-8975000D02*
X15150000Y-9005000D01*
X15150000Y-8975000D02*
X15120000Y-9005000D01*
X15120000Y-9870000D02*
X15150000Y-9900000D01*
X15150000Y-9870000D02*
X15120000Y-9900000D01*
X15178833Y-10221604D02*
X15208833Y-10251604D01*
X15208833Y-10221604D02*
X15178833Y-10251604D01*
X15182000Y-10365000D02*
X15212000Y-10395000D01*
X15212000Y-10365000D02*
X15182000Y-10395000D01*
X15185000Y-10085000D02*
X15215000Y-10115000D01*
X15215000Y-10085000D02*
X15185000Y-10115000D01*
X15205000Y-13855000D02*
X15235000Y-13885000D01*
X15235000Y-13855000D02*
X15205000Y-13885000D01*
X15235000Y-10290000D02*
X15265000Y-10320000D01*
X15265000Y-10290000D02*
X15235000Y-10320000D01*
X15240000Y-10150000D02*
X15270000Y-10180000D01*
X15270000Y-10150000D02*
X15240000Y-10180000D01*
X15270000Y-10445000D02*
X15300000Y-10475000D01*
X15300000Y-10445000D02*
X15270000Y-10475000D01*
X15275000Y-9445000D02*
X15305000Y-9475000D01*
X15305000Y-9445000D02*
X15275000Y-9475000D01*
X15277140Y-9040000D02*
X15307140Y-9070000D01*
X15307140Y-9040000D02*
X15277140Y-9070000D01*
X15278000Y-9943000D02*
X15308000Y-9973000D01*
X15308000Y-9943000D02*
X15278000Y-9973000D01*
X15305000Y-8700000D02*
X15335000Y-8730000D01*
X15335000Y-8700000D02*
X15305000Y-8730000D01*
X15320000Y-11875000D02*
X15350000Y-11905000D01*
X15350000Y-11875000D02*
X15320000Y-11905000D01*
X15320000Y-11955000D02*
X15350000Y-11985000D01*
X15350000Y-11955000D02*
X15320000Y-11985000D01*
X15320000Y-12310000D02*
X15350000Y-12340000D01*
X15350000Y-12310000D02*
X15320000Y-12340000D01*
X15325000Y-10760000D02*
X15355000Y-10790000D01*
X15355000Y-10760000D02*
X15325000Y-10790000D01*
X15325000Y-11005000D02*
X15355000Y-11035000D01*
X15355000Y-11005000D02*
X15325000Y-11035000D01*
X15335000Y-14428000D02*
X15365000Y-14458000D01*
X15365000Y-14428000D02*
X15335000Y-14458000D01*
X15345000Y-10102000D02*
X15375000Y-10132000D01*
X15375000Y-10102000D02*
X15345000Y-10132000D01*
X15350000Y-12035000D02*
X15380000Y-12065000D01*
X15380000Y-12035000D02*
X15350000Y-12065000D01*
X15355000Y-9115000D02*
X15385000Y-9145000D01*
X15385000Y-9115000D02*
X15355000Y-9145000D01*
X15370000Y-12205000D02*
X15400000Y-12235000D01*
X15400000Y-12205000D02*
X15370000Y-12235000D01*
X15385000Y-12905000D02*
X15415000Y-12935000D01*
X15415000Y-12905000D02*
X15385000Y-12935000D01*
X15405000Y-9355000D02*
X15435000Y-9385000D01*
X15435000Y-9355000D02*
X15405000Y-9385000D01*
X15410000Y-10760000D02*
X15440000Y-10790000D01*
X15440000Y-10760000D02*
X15410000Y-10790000D01*
X15415000Y-13365000D02*
X15445000Y-13395000D01*
X15445000Y-13365000D02*
X15415000Y-13395000D01*
X15420000Y-10020000D02*
X15450000Y-10050000D01*
X15450000Y-10020000D02*
X15420000Y-10050000D01*
X15422500Y-12072500D02*
X15452500Y-12102500D01*
X15452500Y-12072500D02*
X15422500Y-12102500D01*
X15475000Y-9255000D02*
X15505000Y-9285000D01*
X15505000Y-9255000D02*
X15475000Y-9285000D01*
X15475000Y-14225000D02*
X15505000Y-14255000D01*
X15505000Y-14225000D02*
X15475000Y-14255000D01*
X15490000Y-10460000D02*
X15520000Y-10490000D01*
X15520000Y-10460000D02*
X15490000Y-10490000D01*
X15530000Y-9445000D02*
X15560000Y-9475000D01*
X15560000Y-9445000D02*
X15530000Y-9475000D01*
X15530000Y-10740000D02*
X15560000Y-10770000D01*
X15560000Y-10740000D02*
X15530000Y-10770000D01*
X15585000Y-10100000D02*
X15615000Y-10130000D01*
X15615000Y-10100000D02*
X15585000Y-10130000D01*
X15585000Y-14428000D02*
X15615000Y-14458000D01*
X15615000Y-14428000D02*
X15585000Y-14458000D01*
X15652500Y-10717500D02*
X15682500Y-10747500D01*
X15682500Y-10717500D02*
X15652500Y-10747500D01*
X15662500Y-13980000D02*
X15692500Y-14010000D01*
X15692500Y-13980000D02*
X15662500Y-14010000D01*
X15665000Y-10100000D02*
X15695000Y-10130000D01*
X15695000Y-10100000D02*
X15665000Y-10130000D01*
X15680000Y-8902000D02*
X15710000Y-8932000D01*
X15710000Y-8902000D02*
X15680000Y-8932000D01*
X15680000Y-9005000D02*
X15710000Y-9035000D01*
X15710000Y-9005000D02*
X15680000Y-9035000D01*
X15690000Y-9272711D02*
X15720000Y-9302711D01*
X15720000Y-9272711D02*
X15690000Y-9302711D01*
X15785000Y-11185000D02*
X15815000Y-11215000D01*
X15815000Y-11185000D02*
X15785000Y-11215000D01*
X15785000Y-11685000D02*
X15815000Y-11715000D01*
X15815000Y-11685000D02*
X15785000Y-11715000D01*
X15785000Y-13185000D02*
X15815000Y-13215000D01*
X15815000Y-13185000D02*
X15785000Y-13215000D01*
X15790000Y-9555000D02*
X15820000Y-9585000D01*
X15820000Y-9555000D02*
X15790000Y-9585000D01*
X15795000Y-12025000D02*
X15825000Y-12055000D01*
X15825000Y-12025000D02*
X15795000Y-12055000D01*
X15835000Y-14428000D02*
X15865000Y-14458000D01*
X15865000Y-14428000D02*
X15835000Y-14458000D01*
X15865000Y-9875000D02*
X15895000Y-9905000D01*
X15895000Y-9875000D02*
X15865000Y-9905000D01*
X15910000Y-10135000D02*
X15940000Y-10165000D01*
X15940000Y-10135000D02*
X15910000Y-10165000D01*
X15915000Y-9265000D02*
X15945000Y-9295000D01*
X15945000Y-9265000D02*
X15915000Y-9295000D01*
X15935000Y-10315000D02*
X15965000Y-10345000D01*
X15965000Y-10315000D02*
X15935000Y-10345000D01*
X15935000Y-14160000D02*
X15965000Y-14190000D01*
X15965000Y-14160000D02*
X15935000Y-14190000D01*
X15945000Y-9875000D02*
X15975000Y-9905000D01*
X15975000Y-9875000D02*
X15945000Y-9905000D01*
X15960000Y-12680000D02*
X15990000Y-12710000D01*
X15990000Y-12680000D02*
X15960000Y-12710000D01*
X15985000Y-13295000D02*
X16015000Y-13325000D01*
X16015000Y-13295000D02*
X15985000Y-13325000D01*
X15995000Y-10230000D02*
X16025000Y-10260000D01*
X16025000Y-10230000D02*
X15995000Y-10260000D01*
X16007475Y-9432475D02*
X16037475Y-9462475D01*
X16037475Y-9432475D02*
X16007475Y-9462475D01*
X16015000Y-9540000D02*
X16045000Y-9570000D01*
X16045000Y-9540000D02*
X16015000Y-9570000D01*
X16025000Y-9875000D02*
X16055000Y-9905000D01*
X16055000Y-9875000D02*
X16025000Y-9905000D01*
X16065000Y-10110000D02*
X16095000Y-10140000D01*
X16095000Y-10110000D02*
X16065000Y-10140000D01*
X16085000Y-14428000D02*
X16115000Y-14458000D01*
X16115000Y-14428000D02*
X16085000Y-14458000D01*
X16110400Y-9470400D02*
X16140400Y-9500400D01*
X16140400Y-9470400D02*
X16110400Y-9500400D01*
X16120000Y-9809950D02*
X16150000Y-9839950D01*
X16150000Y-9809950D02*
X16120000Y-9839950D01*
X16125000Y-12025000D02*
X16155000Y-12055000D01*
X16155000Y-12025000D02*
X16125000Y-12055000D01*
X16131000Y-9693000D02*
X16161000Y-9723000D01*
X16161000Y-9693000D02*
X16131000Y-9723000D01*
X16215000Y-9630000D02*
X16245000Y-9660000D01*
X16245000Y-9630000D02*
X16215000Y-9660000D01*
X16225000Y-13850000D02*
X16255000Y-13880000D01*
X16255000Y-13850000D02*
X16225000Y-13880000D01*
X16225000Y-14025000D02*
X16255000Y-14055000D01*
X16255000Y-14025000D02*
X16225000Y-14055000D01*
X16250000Y-8930050D02*
X16280000Y-8960050D01*
X16280000Y-8930050D02*
X16250000Y-8960050D01*
X16275000Y-13940000D02*
X16305000Y-13970000D01*
X16305000Y-13940000D02*
X16275000Y-13970000D01*
X16279950Y-9289570D02*
X16309950Y-9319570D01*
X16309950Y-9289570D02*
X16279950Y-9319570D01*
X16285000Y-11185000D02*
X16315000Y-11215000D01*
X16315000Y-11185000D02*
X16285000Y-11215000D01*
X16285000Y-11685000D02*
X16315000Y-11715000D01*
X16315000Y-11685000D02*
X16285000Y-11715000D01*
X16287000Y-9175000D02*
X16317000Y-9205000D01*
X16317000Y-9175000D02*
X16287000Y-9205000D01*
X16287500Y-14140000D02*
X16317500Y-14170000D01*
X16317500Y-14140000D02*
X16287500Y-14170000D01*
X16319000Y-9724000D02*
X16349000Y-9754000D01*
X16349000Y-9724000D02*
X16319000Y-9754000D01*
X16320000Y-13325000D02*
X16350000Y-13355000D01*
X16350000Y-13325000D02*
X16320000Y-13355000D01*
X16325000Y-13850000D02*
X16355000Y-13880000D01*
X16355000Y-13850000D02*
X16325000Y-13880000D01*
X16325000Y-14025000D02*
X16355000Y-14055000D01*
X16355000Y-14025000D02*
X16325000Y-14055000D01*
X16327000Y-13152000D02*
X16357000Y-13182000D01*
X16357000Y-13152000D02*
X16327000Y-13182000D01*
X16328000Y-12989000D02*
X16358000Y-13019000D01*
X16358000Y-12989000D02*
X16328000Y-13019000D01*
X16335000Y-14428000D02*
X16365000Y-14458000D01*
X16365000Y-14428000D02*
X16335000Y-14458000D01*
X16345000Y-9105000D02*
X16375000Y-9135000D01*
X16375000Y-9105000D02*
X16345000Y-9135000D01*
X16345000Y-10195000D02*
X16375000Y-10225000D01*
X16375000Y-10195000D02*
X16345000Y-10225000D01*
X16345000Y-12585000D02*
X16375000Y-12615000D01*
X16375000Y-12585000D02*
X16345000Y-12615000D01*
X16350000Y-13238000D02*
X16380000Y-13268000D01*
X16380000Y-13238000D02*
X16350000Y-13268000D01*
X16359000Y-9943000D02*
X16389000Y-9973000D01*
X16389000Y-9943000D02*
X16359000Y-9973000D01*
X16360000Y-9645000D02*
X16390000Y-9675000D01*
X16390000Y-9645000D02*
X16360000Y-9675000D01*
X16361000Y-13070000D02*
X16391000Y-13100000D01*
X16391000Y-13070000D02*
X16361000Y-13100000D01*
X16362500Y-9317500D02*
X16392500Y-9347500D01*
X16392500Y-9317500D02*
X16362500Y-9347500D01*
X16366090Y-9446090D02*
X16396090Y-9476090D01*
X16396090Y-9446090D02*
X16366090Y-9476090D01*
X16375000Y-9565000D02*
X16405000Y-9595000D01*
X16405000Y-9565000D02*
X16375000Y-9595000D01*
X16445000Y-12025000D02*
X16475000Y-12055000D01*
X16475000Y-12025000D02*
X16445000Y-12055000D01*
X16454569Y-9945000D02*
X16484569Y-9975000D01*
X16484569Y-9945000D02*
X16454569Y-9975000D01*
X16455000Y-13435000D02*
X16485000Y-13465000D01*
X16485000Y-13435000D02*
X16455000Y-13465000D01*
X16535000Y-9525000D02*
X16565000Y-9555000D01*
X16565000Y-9525000D02*
X16535000Y-9555000D01*
X16547606Y-13832394D02*
X16577606Y-13862394D01*
X16577606Y-13832394D02*
X16547606Y-13862394D01*
X16560000Y-12680000D02*
X16590000Y-12710000D01*
X16590000Y-12680000D02*
X16560000Y-12710000D01*
X16585000Y-14428000D02*
X16615000Y-14458000D01*
X16615000Y-14428000D02*
X16585000Y-14458000D01*
X16595000Y-9605000D02*
X16625000Y-9635000D01*
X16625000Y-9605000D02*
X16595000Y-9635000D01*
X16610000Y-10025000D02*
X16640000Y-10055000D01*
X16640000Y-10025000D02*
X16610000Y-10055000D01*
X16610000Y-13975000D02*
X16640000Y-14005000D01*
X16640000Y-13975000D02*
X16610000Y-14005000D01*
X16620000Y-9765000D02*
X16650000Y-9795000D01*
X16650000Y-9765000D02*
X16620000Y-9795000D01*
X16630000Y-9125000D02*
X16660000Y-9155000D01*
X16660000Y-9125000D02*
X16630000Y-9155000D01*
X16647500Y-10546240D02*
X16677500Y-10576240D01*
X16677500Y-10546240D02*
X16647500Y-10576240D01*
X16660000Y-12680000D02*
X16690000Y-12710000D01*
X16690000Y-12680000D02*
X16660000Y-12710000D01*
X16681356Y-9478644D02*
X16711356Y-9508644D01*
X16711356Y-9478644D02*
X16681356Y-9508644D01*
X16710000Y-9125000D02*
X16740000Y-9155000D01*
X16740000Y-9125000D02*
X16710000Y-9155000D01*
X16730000Y-9567000D02*
X16760000Y-9597000D01*
X16760000Y-9567000D02*
X16730000Y-9597000D01*
X16732000Y-9698000D02*
X16762000Y-9728000D01*
X16762000Y-9698000D02*
X16732000Y-9728000D01*
X16757000Y-12973000D02*
X16787000Y-13003000D01*
X16787000Y-12973000D02*
X16757000Y-13003000D01*
X16800000Y-9125000D02*
X16830000Y-9155000D01*
X16830000Y-9125000D02*
X16800000Y-9155000D01*
X16807000Y-8791000D02*
X16837000Y-8821000D01*
X16837000Y-8791000D02*
X16807000Y-8821000D01*
X16835000Y-14428000D02*
X16865000Y-14458000D01*
X16865000Y-14428000D02*
X16835000Y-14458000D01*
X16859000Y-9616000D02*
X16889000Y-9646000D01*
X16889000Y-9616000D02*
X16859000Y-9646000D01*
X16884000Y-12975000D02*
X16914000Y-13005000D01*
X16914000Y-12975000D02*
X16884000Y-13005000D01*
X16890000Y-8865000D02*
X16920000Y-8895000D01*
X16920000Y-8865000D02*
X16890000Y-8895000D01*
X16890000Y-9115000D02*
X16920000Y-9145000D01*
X16920000Y-9115000D02*
X16890000Y-9145000D01*
X16895000Y-11105000D02*
X16925000Y-11135000D01*
X16925000Y-11105000D02*
X16895000Y-11135000D01*
X16895000Y-11275000D02*
X16925000Y-11305000D01*
X16925000Y-11275000D02*
X16895000Y-11305000D01*
X16895000Y-11490000D02*
X16925000Y-11520000D01*
X16925000Y-11490000D02*
X16895000Y-11520000D01*
X16895000Y-11645000D02*
X16925000Y-11675000D01*
X16925000Y-11645000D02*
X16895000Y-11675000D01*
X16895000Y-11850000D02*
X16925000Y-11880000D01*
X16925000Y-11850000D02*
X16895000Y-11880000D01*
X16895000Y-12015000D02*
X16925000Y-12045000D01*
X16925000Y-12015000D02*
X16895000Y-12045000D01*
X16930000Y-8703000D02*
X16960000Y-8733000D01*
X16960000Y-8703000D02*
X16930000Y-8733000D01*
X16945050Y-9575475D02*
X16975050Y-9605475D01*
X16975050Y-9575475D02*
X16945050Y-9605475D01*
X16950000Y-13495000D02*
X16980000Y-13525000D01*
X16980000Y-13495000D02*
X16950000Y-13525000D01*
X17015000Y-10045000D02*
X17045000Y-10075000D01*
X17045000Y-10045000D02*
X17015000Y-10075000D01*
X17019000Y-9320000D02*
X17049000Y-9350000D01*
X17049000Y-9320000D02*
X17019000Y-9350000D01*
X17023000Y-8543000D02*
X17053000Y-8573000D01*
X17053000Y-8543000D02*
X17023000Y-8573000D01*
X17060000Y-10595000D02*
X17090000Y-10625000D01*
X17090000Y-10595000D02*
X17060000Y-10625000D01*
X17065000Y-12595000D02*
X17095000Y-12625000D01*
X17095000Y-12595000D02*
X17065000Y-12625000D01*
X17085000Y-14428000D02*
X17115000Y-14458000D01*
X17115000Y-14428000D02*
X17085000Y-14458000D01*
X17100000Y-9545000D02*
X17130000Y-9575000D01*
X17130000Y-9545000D02*
X17100000Y-9575000D01*
X17138000Y-12980000D02*
X17168000Y-13010000D01*
X17168000Y-12980000D02*
X17138000Y-13010000D01*
X17145050Y-13090000D02*
X17175050Y-13120000D01*
X17175050Y-13090000D02*
X17145050Y-13120000D01*
X17145144Y-9322144D02*
X17175144Y-9352144D01*
X17175144Y-9322144D02*
X17145144Y-9352144D01*
X17146000Y-8613000D02*
X17176000Y-8643000D01*
X17176000Y-8613000D02*
X17146000Y-8643000D01*
X17205000Y-14095000D02*
X17235000Y-14125000D01*
X17235000Y-14095000D02*
X17205000Y-14125000D01*
X17239000Y-9401000D02*
X17269000Y-9431000D01*
X17269000Y-9401000D02*
X17239000Y-9431000D01*
X17265000Y-12970000D02*
X17295000Y-13000000D01*
X17295000Y-12970000D02*
X17265000Y-13000000D01*
X17268000Y-9324000D02*
X17298000Y-9354000D01*
X17298000Y-9324000D02*
X17268000Y-9354000D01*
X17273000Y-8614000D02*
X17303000Y-8644000D01*
X17303000Y-8614000D02*
X17273000Y-8644000D01*
X17275000Y-10135000D02*
X17305000Y-10165000D01*
X17305000Y-10135000D02*
X17275000Y-10165000D01*
X17280000Y-10045000D02*
X17310000Y-10075000D01*
X17310000Y-10045000D02*
X17280000Y-10075000D01*
X17285000Y-13090000D02*
X17315000Y-13120000D01*
X17315000Y-13090000D02*
X17285000Y-13120000D01*
X17297000Y-9953000D02*
X17327000Y-9983000D01*
X17327000Y-9953000D02*
X17297000Y-9983000D01*
X17335000Y-14428000D02*
X17365000Y-14458000D01*
X17365000Y-14428000D02*
X17335000Y-14458000D01*
X17374000Y-9890000D02*
X17404000Y-9920000D01*
X17404000Y-9890000D02*
X17374000Y-9920000D01*
X17375000Y-10625000D02*
X17405000Y-10655000D01*
X17405000Y-10625000D02*
X17375000Y-10655000D01*
X17390000Y-9330000D02*
X17420000Y-9360000D01*
X17420000Y-9330000D02*
X17390000Y-9360000D01*
X17395000Y-9415000D02*
X17425000Y-9445000D01*
X17425000Y-9415000D02*
X17395000Y-9445000D01*
X17400000Y-8614000D02*
X17430000Y-8644000D01*
X17430000Y-8614000D02*
X17400000Y-8644000D01*
X17405000Y-11865000D02*
X17435000Y-11895000D01*
X17435000Y-11865000D02*
X17405000Y-11895000D01*
X17406000Y-11953000D02*
X17436000Y-11983000D01*
X17436000Y-11953000D02*
X17406000Y-11983000D01*
X17407000Y-12041000D02*
X17437000Y-12071000D01*
X17437000Y-12041000D02*
X17407000Y-12071000D01*
X17425000Y-11110000D02*
X17455000Y-11140000D01*
X17455000Y-11110000D02*
X17425000Y-11140000D01*
X17425000Y-11210000D02*
X17455000Y-11240000D01*
X17455000Y-11210000D02*
X17425000Y-11240000D01*
X17425000Y-11310000D02*
X17455000Y-11340000D01*
X17455000Y-11310000D02*
X17425000Y-11340000D01*
X17425000Y-11410000D02*
X17455000Y-11440000D01*
X17455000Y-11410000D02*
X17425000Y-11440000D01*
X17425000Y-11505000D02*
X17455000Y-11535000D01*
X17455000Y-11505000D02*
X17425000Y-11535000D01*
X17425000Y-11685000D02*
X17455000Y-11715000D01*
X17455000Y-11685000D02*
X17425000Y-11715000D01*
X17454450Y-9115000D02*
X17484450Y-9145000D01*
X17484450Y-9115000D02*
X17454450Y-9145000D01*
X17470000Y-9360000D02*
X17500000Y-9390000D01*
X17500000Y-9360000D02*
X17470000Y-9390000D01*
X17475000Y-12585000D02*
X17505000Y-12615000D01*
X17505000Y-12585000D02*
X17475000Y-12615000D01*
X17495000Y-13535000D02*
X17525000Y-13565000D01*
X17525000Y-13535000D02*
X17495000Y-13565000D01*
X17525000Y-8735000D02*
X17555000Y-8765000D01*
X17555000Y-8735000D02*
X17525000Y-8765000D01*
X17540000Y-13085000D02*
X17570000Y-13115000D01*
X17570000Y-13085000D02*
X17540000Y-13115000D01*
X17550000Y-9010000D02*
X17580000Y-9040000D01*
X17580000Y-9010000D02*
X17550000Y-9040000D01*
X17585000Y-14428000D02*
X17615000Y-14458000D01*
X17615000Y-14428000D02*
X17585000Y-14458000D01*
X17600000Y-10410000D02*
X17630000Y-10440000D01*
X17630000Y-10410000D02*
X17600000Y-10440000D01*
X17650000Y-11115000D02*
X17680000Y-11145000D01*
X17680000Y-11115000D02*
X17650000Y-11145000D01*
X17650000Y-11215000D02*
X17680000Y-11245000D01*
X17680000Y-11215000D02*
X17650000Y-11245000D01*
X17660000Y-12410000D02*
X17690000Y-12440000D01*
X17690000Y-12410000D02*
X17660000Y-12440000D01*
X17665000Y-11010000D02*
X17695000Y-11040000D01*
X17695000Y-11010000D02*
X17665000Y-11040000D01*
X17677000Y-11937000D02*
X17707000Y-11967000D01*
X17707000Y-11937000D02*
X17677000Y-11967000D01*
X17685000Y-14040000D02*
X17715000Y-14070000D01*
X17715000Y-14040000D02*
X17685000Y-14070000D01*
X17690000Y-13435000D02*
X17720000Y-13465000D01*
X17720000Y-13435000D02*
X17690000Y-13465000D01*
X17695000Y-8920000D02*
X17725000Y-8950000D01*
X17725000Y-8920000D02*
X17695000Y-8950000D01*
X17700000Y-9995000D02*
X17730000Y-10025000D01*
X17730000Y-9995000D02*
X17700000Y-10025000D01*
X17705000Y-9546000D02*
X17735000Y-9576000D01*
X17735000Y-9546000D02*
X17705000Y-9576000D01*
X17705000Y-9635000D02*
X17735000Y-9665000D01*
X17735000Y-9635000D02*
X17705000Y-9665000D01*
X17735000Y-8545000D02*
X17765000Y-8575000D01*
X17765000Y-8545000D02*
X17735000Y-8575000D01*
X17810000Y-12012500D02*
X17840000Y-12042500D01*
X17840000Y-12012500D02*
X17810000Y-12042500D01*
X17812500Y-12175000D02*
X17842500Y-12205000D01*
X17842500Y-12175000D02*
X17812500Y-12205000D01*
X17835000Y-9635000D02*
X17865000Y-9665000D01*
X17865000Y-9635000D02*
X17835000Y-9665000D01*
X17835000Y-14428000D02*
X17865000Y-14458000D01*
X17865000Y-14428000D02*
X17835000Y-14458000D01*
X17836000Y-9542000D02*
X17866000Y-9572000D01*
X17866000Y-9542000D02*
X17836000Y-9572000D01*
X17865000Y-9980000D02*
X17895000Y-10010000D01*
X17895000Y-9980000D02*
X17865000Y-10010000D01*
X17885000Y-12785000D02*
X17915000Y-12815000D01*
X17915000Y-12785000D02*
X17885000Y-12815000D01*
X17930000Y-10485000D02*
X17960000Y-10515000D01*
X17960000Y-10485000D02*
X17930000Y-10515000D01*
X17935000Y-11335000D02*
X17965000Y-11365000D01*
X17965000Y-11335000D02*
X17935000Y-11365000D01*
X17935000Y-11885000D02*
X17965000Y-11915000D01*
X17965000Y-11885000D02*
X17935000Y-11915000D01*
X17947000Y-9980000D02*
X17977000Y-10010000D01*
X17977000Y-9980000D02*
X17947000Y-10010000D01*
X17960000Y-10235000D02*
X17990000Y-10265000D01*
X17990000Y-10235000D02*
X17960000Y-10265000D01*
X17985000Y-8545000D02*
X18015000Y-8575000D01*
X18015000Y-8545000D02*
X17985000Y-8575000D01*
X17985000Y-12095000D02*
X18015000Y-12125000D01*
X18015000Y-12095000D02*
X17985000Y-12125000D01*
X18042000Y-9989000D02*
X18072000Y-10019000D01*
X18072000Y-9989000D02*
X18042000Y-10019000D01*
X18085000Y-10985000D02*
X18115000Y-11015000D01*
X18115000Y-10985000D02*
X18085000Y-11015000D01*
X18085000Y-14428000D02*
X18115000Y-14458000D01*
X18115000Y-14428000D02*
X18085000Y-14458000D01*
X18115000Y-10280000D02*
X18145000Y-10310000D01*
X18145000Y-10280000D02*
X18115000Y-10310000D01*
X18125000Y-13115000D02*
X18155000Y-13145000D01*
X18155000Y-13115000D02*
X18125000Y-13145000D01*
X18242000Y-9993000D02*
X18272000Y-10023000D01*
X18272000Y-9993000D02*
X18242000Y-10023000D01*
X18245000Y-8545000D02*
X18275000Y-8575000D01*
X18275000Y-8545000D02*
X18245000Y-8575000D01*
X18270000Y-10325000D02*
X18300000Y-10355000D01*
X18300000Y-10325000D02*
X18270000Y-10355000D01*
X18285000Y-11335000D02*
X18315000Y-11365000D01*
X18315000Y-11335000D02*
X18285000Y-11365000D01*
X18285000Y-11885000D02*
X18315000Y-11915000D01*
X18315000Y-11885000D02*
X18285000Y-11915000D01*
X18395000Y-14335000D02*
X18425000Y-14365000D01*
X18425000Y-14335000D02*
X18395000Y-14365000D01*
X18445000Y-8735000D02*
X18475000Y-8765000D01*
X18475000Y-8735000D02*
X18445000Y-8765000D01*
X18455000Y-8985000D02*
X18485000Y-9015000D01*
X18485000Y-8985000D02*
X18455000Y-9015000D01*
X18455000Y-9235000D02*
X18485000Y-9265000D01*
X18485000Y-9235000D02*
X18455000Y-9265000D01*
X18455000Y-9485000D02*
X18485000Y-9515000D01*
X18485000Y-9485000D02*
X18455000Y-9515000D01*
X18455000Y-9735000D02*
X18485000Y-9765000D01*
X18485000Y-9735000D02*
X18455000Y-9765000D01*
X18455000Y-9985000D02*
X18485000Y-10015000D01*
X18485000Y-9985000D02*
X18455000Y-10015000D01*
X18455000Y-10235000D02*
X18485000Y-10265000D01*
X18485000Y-10235000D02*
X18455000Y-10265000D01*
X18455000Y-10485000D02*
X18485000Y-10515000D01*
X18485000Y-10485000D02*
X18455000Y-10515000D01*
X18455000Y-10735000D02*
X18485000Y-10765000D01*
X18485000Y-10735000D02*
X18455000Y-10765000D01*
X18455000Y-10985000D02*
X18485000Y-11015000D01*
X18485000Y-10985000D02*
X18455000Y-11015000D01*
X18455000Y-11235000D02*
X18485000Y-11265000D01*
X18485000Y-11235000D02*
X18455000Y-11265000D01*
X18455000Y-11985000D02*
X18485000Y-12015000D01*
X18485000Y-11985000D02*
X18455000Y-12015000D01*
X18455000Y-12235000D02*
X18485000Y-12265000D01*
X18485000Y-12235000D02*
X18455000Y-12265000D01*
X18455000Y-12485000D02*
X18485000Y-12515000D01*
X18485000Y-12485000D02*
X18455000Y-12515000D01*
X18455000Y-12735000D02*
X18485000Y-12765000D01*
X18485000Y-12735000D02*
X18455000Y-12765000D01*
X18455000Y-12985000D02*
X18485000Y-13015000D01*
X18485000Y-12985000D02*
X18455000Y-13015000D01*
X18455000Y-13235000D02*
X18485000Y-13265000D01*
X18485000Y-13235000D02*
X18455000Y-13265000D01*
X18455000Y-13485000D02*
X18485000Y-13515000D01*
X18485000Y-13485000D02*
X18455000Y-13515000D01*
X18455000Y-13735000D02*
X18485000Y-13765000D01*
X18485000Y-13735000D02*
X18455000Y-13765000D01*
X18455000Y-13985000D02*
X18485000Y-14015000D01*
X18485000Y-13985000D02*
X18455000Y-14015000D01*
D13*
X10940000Y-13710000D02*
G75*
G03*
X10940000Y-13710000I-25000J0D01*
G01*
X10940000Y-13835000D02*
G75*
G03*
X10940000Y-13835000I-25000J0D01*
G01*
X12598000Y-12220000D02*
G75*
G03*
X12598000Y-12220000I-25000J0D01*
G01*
X12792000Y-12223000D02*
G75*
G03*
X12792000Y-12223000I-25000J0D01*
G01*
X13340000Y-12565000D02*
G75*
G03*
X13340000Y-12565000I-25000J0D01*
G01*
X13636000Y-12220000D02*
G75*
G03*
X13636000Y-12220000I-25000J0D01*
G01*
X13809000Y-12221000D02*
G75*
G03*
X13809000Y-12221000I-25000J0D01*
G01*
X14050000Y-11640000D02*
G75*
G03*
X14050000Y-11640000I-25000J0D01*
G01*
X14050000Y-11795000D02*
G75*
G03*
X14050000Y-11795000I-25000J0D01*
G01*
X16750000Y-14215000D02*
G75*
G03*
X16750000Y-14215000I-25000J0D01*
G01*
X14915000Y-13635000D02*
X14915000Y-13685000D01*
X14890000Y-13660000D02*
X14940000Y-13660000D01*
X15040000Y-13635000D02*
X15040000Y-13685000D01*
X15015000Y-13660000D02*
X15065000Y-13660000D01*
X15165000Y-13635000D02*
X15165000Y-13685000D01*
X15140000Y-13660000D02*
X15190000Y-13660000D01*
D14*
X10748171Y-10538615D02*
X10748171Y-10461384D01*
X10670940Y-10461384D01*
X10670940Y-10538615D01*
X10748171Y-10538615D01*
X10748171Y-10788615D02*
X10748171Y-10711384D01*
X10670940Y-10711384D01*
X10670940Y-10788615D01*
X10748171Y-10788615D01*
X10748171Y-11038615D02*
X10748171Y-10961384D01*
X10670940Y-10961384D01*
X10670940Y-11038615D01*
X10748171Y-11038615D01*
X10748171Y-11288615D02*
X10748171Y-11211384D01*
X10670940Y-11211384D01*
X10670940Y-11288615D01*
X10748171Y-11288615D01*
X10748171Y-11538615D02*
X10748171Y-11461384D01*
X10670940Y-11461384D01*
X10670940Y-11538615D01*
X10748171Y-11538615D01*
X10748171Y-11788615D02*
X10748171Y-11711384D01*
X10670940Y-11711384D01*
X10670940Y-11788615D01*
X10748171Y-11788615D01*
X10748171Y-12038615D02*
X10748171Y-11961384D01*
X10670940Y-11961384D01*
X10670940Y-12038615D01*
X10748171Y-12038615D01*
X10748171Y-12288615D02*
X10748171Y-12211384D01*
X10670940Y-12211384D01*
X10670940Y-12288615D01*
X10748171Y-12288615D01*
X10748171Y-12538615D02*
X10748171Y-12461384D01*
X10670940Y-12461384D01*
X10670940Y-12538615D01*
X10748171Y-12538615D01*
X11048171Y-10538615D02*
X11048171Y-10461384D01*
X10970940Y-10461384D01*
X10970940Y-10538615D01*
X11048171Y-10538615D01*
X11048171Y-10788615D02*
X11048171Y-10711384D01*
X10970940Y-10711384D01*
X10970940Y-10788615D01*
X11048171Y-10788615D01*
X11048171Y-11038615D02*
X11048171Y-10961384D01*
X10970940Y-10961384D01*
X10970940Y-11038615D01*
X11048171Y-11038615D01*
X11048171Y-11288615D02*
X11048171Y-11211384D01*
X10970940Y-11211384D01*
X10970940Y-11288615D01*
X11048171Y-11288615D01*
X11048171Y-11538615D02*
X11048171Y-11461384D01*
X10970940Y-11461384D01*
X10970940Y-11538615D01*
X11048171Y-11538615D01*
X11048171Y-11788615D02*
X11048171Y-11711384D01*
X10970940Y-11711384D01*
X10970940Y-11788615D01*
X11048171Y-11788615D01*
X11048171Y-12038615D02*
X11048171Y-11961384D01*
X10970940Y-11961384D01*
X10970940Y-12038615D01*
X11048171Y-12038615D01*
X11048171Y-12288615D02*
X11048171Y-12211384D01*
X10970940Y-12211384D01*
X10970940Y-12288615D01*
X11048171Y-12288615D01*
X11048171Y-12538615D02*
X11048171Y-12461384D01*
X10970940Y-12461384D01*
X10970940Y-12538615D01*
X11048171Y-12538615D01*
D15*
X14725000Y-11662500D02*
X14787500Y-11600000D01*
X14725000Y-11537500D01*
X14662500Y-11600000D01*
X14725000Y-11662500D01*
D16*
X10340000Y-8840000D02*
X10660000Y-9160000D01*
X10660000Y-8840000D02*
X10340000Y-9160000D01*
X10660000Y-9000000D02*
G75*
G03*
X10660000Y-9000000I-160000J0D01*
G01*
X10340000Y-13840000D02*
X10660000Y-14160000D01*
X10660000Y-13840000D02*
X10340000Y-14160000D01*
X10660000Y-14000000D02*
G75*
G03*
X10660000Y-14000000I-160000J0D01*
G01*
X17940000Y-8840000D02*
X18260000Y-9160000D01*
X18260000Y-8840000D02*
X17940000Y-9160000D01*
X18260000Y-9000000D02*
G75*
G03*
X18260000Y-9000000I-160000J0D01*
G01*
X17940000Y-13840000D02*
X18260000Y-14160000D01*
X18260000Y-13840000D02*
X17940000Y-14160000D01*
X18260000Y-14000000D02*
G75*
G03*
X18260000Y-14000000I-160000J0D01*
G01*
D17*
X11255000Y-8935000D02*
X11385000Y-9065000D01*
X11385000Y-8935000D02*
X11255000Y-9065000D01*
X11320000Y-8935000D02*
X11320000Y-9065000D01*
X11255000Y-9000000D02*
X11385000Y-9000000D01*
X11590000Y-8935000D02*
X11720000Y-9065000D01*
X11720000Y-8935000D02*
X11590000Y-9065000D01*
X11655000Y-8935000D02*
X11655000Y-9065000D01*
X11590000Y-9000000D02*
X11720000Y-9000000D01*
D18*
X10399535Y-9789981D02*
X10719575Y-10110021D01*
X10719575Y-9789981D02*
X10399535Y-10110021D01*
X10672708Y-10063153D02*
X10672708Y-9836848D01*
X10446403Y-9836848D01*
X10446403Y-10063153D01*
X10672708Y-10063153D01*
X10399535Y-12889979D02*
X10719575Y-13210019D01*
X10719575Y-12889979D02*
X10399535Y-13210019D01*
X10672708Y-13163152D02*
X10672708Y-12936847D01*
X10446403Y-12936847D01*
X10446403Y-13163152D01*
X10672708Y-13163152D01*
D11*
X10255775Y-14816484D02*
X10255775Y-14616484D01*
X10255775Y-14616484D02*
X10303394Y-14616484D01*
X10303394Y-14616484D02*
X10331966Y-14626008D01*
X10331966Y-14626008D02*
X10351013Y-14645056D01*
X10351013Y-14645056D02*
X10360537Y-14664103D01*
X10360537Y-14664103D02*
X10370061Y-14702198D01*
X10370061Y-14702198D02*
X10370061Y-14730770D01*
X10370061Y-14730770D02*
X10360537Y-14768865D01*
X10360537Y-14768865D02*
X10351013Y-14787913D01*
X10351013Y-14787913D02*
X10331966Y-14806960D01*
X10331966Y-14806960D02*
X10303394Y-14816484D01*
X10303394Y-14816484D02*
X10255775Y-14816484D01*
X10455775Y-14816484D02*
X10455775Y-14683151D01*
X10455775Y-14721246D02*
X10465299Y-14702198D01*
X10465299Y-14702198D02*
X10474823Y-14692675D01*
X10474823Y-14692675D02*
X10493870Y-14683151D01*
X10493870Y-14683151D02*
X10512918Y-14683151D01*
X10579585Y-14816484D02*
X10579585Y-14683151D01*
X10579585Y-14616484D02*
X10570061Y-14626008D01*
X10570061Y-14626008D02*
X10579585Y-14635532D01*
X10579585Y-14635532D02*
X10589108Y-14626008D01*
X10589108Y-14626008D02*
X10579585Y-14616484D01*
X10579585Y-14616484D02*
X10579585Y-14635532D01*
X10703394Y-14816484D02*
X10684346Y-14806960D01*
X10684346Y-14806960D02*
X10674823Y-14787913D01*
X10674823Y-14787913D02*
X10674823Y-14616484D01*
X10808156Y-14816484D02*
X10789108Y-14806960D01*
X10789108Y-14806960D02*
X10779585Y-14787913D01*
X10779585Y-14787913D02*
X10779585Y-14616484D01*
X11036727Y-14816484D02*
X11036727Y-14616484D01*
X11036727Y-14616484D02*
X11103394Y-14759341D01*
X11103394Y-14759341D02*
X11170061Y-14616484D01*
X11170061Y-14616484D02*
X11170061Y-14816484D01*
X11351013Y-14816484D02*
X11351013Y-14711722D01*
X11351013Y-14711722D02*
X11341489Y-14692675D01*
X11341489Y-14692675D02*
X11322442Y-14683151D01*
X11322442Y-14683151D02*
X11284346Y-14683151D01*
X11284346Y-14683151D02*
X11265299Y-14692675D01*
X11351013Y-14806960D02*
X11331965Y-14816484D01*
X11331965Y-14816484D02*
X11284346Y-14816484D01*
X11284346Y-14816484D02*
X11265299Y-14806960D01*
X11265299Y-14806960D02*
X11255775Y-14787913D01*
X11255775Y-14787913D02*
X11255775Y-14768865D01*
X11255775Y-14768865D02*
X11265299Y-14749818D01*
X11265299Y-14749818D02*
X11284346Y-14740294D01*
X11284346Y-14740294D02*
X11331965Y-14740294D01*
X11331965Y-14740294D02*
X11351013Y-14730770D01*
X11446251Y-14683151D02*
X11446251Y-14883151D01*
X11446251Y-14692675D02*
X11465299Y-14683151D01*
X11465299Y-14683151D02*
X11503394Y-14683151D01*
X11503394Y-14683151D02*
X11522442Y-14692675D01*
X11522442Y-14692675D02*
X11531965Y-14702198D01*
X11531965Y-14702198D02*
X11541489Y-14721246D01*
X11541489Y-14721246D02*
X11541489Y-14778389D01*
X11541489Y-14778389D02*
X11531965Y-14797437D01*
X11531965Y-14797437D02*
X11522442Y-14806960D01*
X11522442Y-14806960D02*
X11503394Y-14816484D01*
X11503394Y-14816484D02*
X11465299Y-14816484D01*
X11465299Y-14816484D02*
X11446251Y-14806960D01*
X11627204Y-14797437D02*
X11636727Y-14806960D01*
X11636727Y-14806960D02*
X11627204Y-14816484D01*
X11627204Y-14816484D02*
X11617680Y-14806960D01*
X11617680Y-14806960D02*
X11627204Y-14797437D01*
X11627204Y-14797437D02*
X11627204Y-14816484D01*
X11627204Y-14692675D02*
X11636727Y-14702198D01*
X11636727Y-14702198D02*
X11627204Y-14711722D01*
X11627204Y-14711722D02*
X11617680Y-14702198D01*
X11617680Y-14702198D02*
X11627204Y-14692675D01*
X11627204Y-14692675D02*
X11627204Y-14711722D01*
D12*
X9964998Y-15130000D02*
X9994998Y-15160000D01*
X9994998Y-15130000D02*
X9964998Y-15160000D01*
D11*
X10293870Y-15036484D02*
X10312918Y-15036484D01*
X10312918Y-15036484D02*
X10331966Y-15046008D01*
X10331966Y-15046008D02*
X10341489Y-15055532D01*
X10341489Y-15055532D02*
X10351013Y-15074579D01*
X10351013Y-15074579D02*
X10360537Y-15112675D01*
X10360537Y-15112675D02*
X10360537Y-15160294D01*
X10360537Y-15160294D02*
X10351013Y-15198389D01*
X10351013Y-15198389D02*
X10341489Y-15217437D01*
X10341489Y-15217437D02*
X10331966Y-15226960D01*
X10331966Y-15226960D02*
X10312918Y-15236484D01*
X10312918Y-15236484D02*
X10293870Y-15236484D01*
X10293870Y-15236484D02*
X10274823Y-15226960D01*
X10274823Y-15226960D02*
X10265299Y-15217437D01*
X10265299Y-15217437D02*
X10255775Y-15198389D01*
X10255775Y-15198389D02*
X10246251Y-15160294D01*
X10246251Y-15160294D02*
X10246251Y-15112675D01*
X10246251Y-15112675D02*
X10255775Y-15074579D01*
X10255775Y-15074579D02*
X10265299Y-15055532D01*
X10265299Y-15055532D02*
X10274823Y-15046008D01*
X10274823Y-15046008D02*
X10293870Y-15036484D01*
X10446251Y-15217437D02*
X10455775Y-15226960D01*
X10455775Y-15226960D02*
X10446251Y-15236484D01*
X10446251Y-15236484D02*
X10436727Y-15226960D01*
X10436727Y-15226960D02*
X10446251Y-15217437D01*
X10446251Y-15217437D02*
X10446251Y-15236484D01*
X10522442Y-15036484D02*
X10646251Y-15036484D01*
X10646251Y-15036484D02*
X10579585Y-15112675D01*
X10579585Y-15112675D02*
X10608156Y-15112675D01*
X10608156Y-15112675D02*
X10627204Y-15122198D01*
X10627204Y-15122198D02*
X10636727Y-15131722D01*
X10636727Y-15131722D02*
X10646251Y-15150770D01*
X10646251Y-15150770D02*
X10646251Y-15198389D01*
X10646251Y-15198389D02*
X10636727Y-15217437D01*
X10636727Y-15217437D02*
X10627204Y-15226960D01*
X10627204Y-15226960D02*
X10608156Y-15236484D01*
X10608156Y-15236484D02*
X10551013Y-15236484D01*
X10551013Y-15236484D02*
X10531966Y-15226960D01*
X10531966Y-15226960D02*
X10522442Y-15217437D01*
X10770061Y-15036484D02*
X10789108Y-15036484D01*
X10789108Y-15036484D02*
X10808156Y-15046008D01*
X10808156Y-15046008D02*
X10817680Y-15055532D01*
X10817680Y-15055532D02*
X10827204Y-15074579D01*
X10827204Y-15074579D02*
X10836727Y-15112675D01*
X10836727Y-15112675D02*
X10836727Y-15160294D01*
X10836727Y-15160294D02*
X10827204Y-15198389D01*
X10827204Y-15198389D02*
X10817680Y-15217437D01*
X10817680Y-15217437D02*
X10808156Y-15226960D01*
X10808156Y-15226960D02*
X10789108Y-15236484D01*
X10789108Y-15236484D02*
X10770061Y-15236484D01*
X10770061Y-15236484D02*
X10751013Y-15226960D01*
X10751013Y-15226960D02*
X10741489Y-15217437D01*
X10741489Y-15217437D02*
X10731966Y-15198389D01*
X10731966Y-15198389D02*
X10722442Y-15160294D01*
X10722442Y-15160294D02*
X10722442Y-15112675D01*
X10722442Y-15112675D02*
X10731966Y-15074579D01*
X10731966Y-15074579D02*
X10741489Y-15055532D01*
X10741489Y-15055532D02*
X10751013Y-15046008D01*
X10751013Y-15046008D02*
X10770061Y-15036484D01*
X10960537Y-15036484D02*
X10979585Y-15036484D01*
X10979585Y-15036484D02*
X10998632Y-15046008D01*
X10998632Y-15046008D02*
X11008156Y-15055532D01*
X11008156Y-15055532D02*
X11017680Y-15074579D01*
X11017680Y-15074579D02*
X11027204Y-15112675D01*
X11027204Y-15112675D02*
X11027204Y-15160294D01*
X11027204Y-15160294D02*
X11017680Y-15198389D01*
X11017680Y-15198389D02*
X11008156Y-15217437D01*
X11008156Y-15217437D02*
X10998632Y-15226960D01*
X10998632Y-15226960D02*
X10979585Y-15236484D01*
X10979585Y-15236484D02*
X10960537Y-15236484D01*
X10960537Y-15236484D02*
X10941489Y-15226960D01*
X10941489Y-15226960D02*
X10931966Y-15217437D01*
X10931966Y-15217437D02*
X10922442Y-15198389D01*
X10922442Y-15198389D02*
X10912918Y-15160294D01*
X10912918Y-15160294D02*
X10912918Y-15112675D01*
X10912918Y-15112675D02*
X10922442Y-15074579D01*
X10922442Y-15074579D02*
X10931966Y-15055532D01*
X10931966Y-15055532D02*
X10941489Y-15046008D01*
X10941489Y-15046008D02*
X10960537Y-15036484D01*
X11112918Y-15236484D02*
X11112918Y-15103151D01*
X11112918Y-15122198D02*
X11122442Y-15112675D01*
X11122442Y-15112675D02*
X11141489Y-15103151D01*
X11141489Y-15103151D02*
X11170061Y-15103151D01*
X11170061Y-15103151D02*
X11189108Y-15112675D01*
X11189108Y-15112675D02*
X11198632Y-15131722D01*
X11198632Y-15131722D02*
X11198632Y-15236484D01*
X11198632Y-15131722D02*
X11208156Y-15112675D01*
X11208156Y-15112675D02*
X11227204Y-15103151D01*
X11227204Y-15103151D02*
X11255775Y-15103151D01*
X11255775Y-15103151D02*
X11274823Y-15112675D01*
X11274823Y-15112675D02*
X11284346Y-15131722D01*
X11284346Y-15131722D02*
X11284346Y-15236484D01*
X11379585Y-15236484D02*
X11379585Y-15103151D01*
X11379585Y-15122198D02*
X11389108Y-15112675D01*
X11389108Y-15112675D02*
X11408156Y-15103151D01*
X11408156Y-15103151D02*
X11436727Y-15103151D01*
X11436727Y-15103151D02*
X11455775Y-15112675D01*
X11455775Y-15112675D02*
X11465299Y-15131722D01*
X11465299Y-15131722D02*
X11465299Y-15236484D01*
X11465299Y-15131722D02*
X11474823Y-15112675D01*
X11474823Y-15112675D02*
X11493870Y-15103151D01*
X11493870Y-15103151D02*
X11522442Y-15103151D01*
X11522442Y-15103151D02*
X11541489Y-15112675D01*
X11541489Y-15112675D02*
X11551013Y-15131722D01*
X11551013Y-15131722D02*
X11551013Y-15236484D01*
X11941489Y-15026960D02*
X11770061Y-15284103D01*
X12198632Y-15036484D02*
X12217680Y-15036484D01*
X12217680Y-15036484D02*
X12236728Y-15046008D01*
X12236728Y-15046008D02*
X12246251Y-15055532D01*
X12246251Y-15055532D02*
X12255775Y-15074579D01*
X12255775Y-15074579D02*
X12265299Y-15112675D01*
X12265299Y-15112675D02*
X12265299Y-15160294D01*
X12265299Y-15160294D02*
X12255775Y-15198389D01*
X12255775Y-15198389D02*
X12246251Y-15217437D01*
X12246251Y-15217437D02*
X12236728Y-15226960D01*
X12236728Y-15226960D02*
X12217680Y-15236484D01*
X12217680Y-15236484D02*
X12198632Y-15236484D01*
X12198632Y-15236484D02*
X12179585Y-15226960D01*
X12179585Y-15226960D02*
X12170061Y-15217437D01*
X12170061Y-15217437D02*
X12160537Y-15198389D01*
X12160537Y-15198389D02*
X12151013Y-15160294D01*
X12151013Y-15160294D02*
X12151013Y-15112675D01*
X12151013Y-15112675D02*
X12160537Y-15074579D01*
X12160537Y-15074579D02*
X12170061Y-15055532D01*
X12170061Y-15055532D02*
X12179585Y-15046008D01*
X12179585Y-15046008D02*
X12198632Y-15036484D01*
X12351013Y-15217437D02*
X12360537Y-15226960D01*
X12360537Y-15226960D02*
X12351013Y-15236484D01*
X12351013Y-15236484D02*
X12341489Y-15226960D01*
X12341489Y-15226960D02*
X12351013Y-15217437D01*
X12351013Y-15217437D02*
X12351013Y-15236484D01*
X12484347Y-15036484D02*
X12503394Y-15036484D01*
X12503394Y-15036484D02*
X12522442Y-15046008D01*
X12522442Y-15046008D02*
X12531966Y-15055532D01*
X12531966Y-15055532D02*
X12541489Y-15074579D01*
X12541489Y-15074579D02*
X12551013Y-15112675D01*
X12551013Y-15112675D02*
X12551013Y-15160294D01*
X12551013Y-15160294D02*
X12541489Y-15198389D01*
X12541489Y-15198389D02*
X12531966Y-15217437D01*
X12531966Y-15217437D02*
X12522442Y-15226960D01*
X12522442Y-15226960D02*
X12503394Y-15236484D01*
X12503394Y-15236484D02*
X12484347Y-15236484D01*
X12484347Y-15236484D02*
X12465299Y-15226960D01*
X12465299Y-15226960D02*
X12455775Y-15217437D01*
X12455775Y-15217437D02*
X12446251Y-15198389D01*
X12446251Y-15198389D02*
X12436728Y-15160294D01*
X12436728Y-15160294D02*
X12436728Y-15112675D01*
X12436728Y-15112675D02*
X12446251Y-15074579D01*
X12446251Y-15074579D02*
X12455775Y-15055532D01*
X12455775Y-15055532D02*
X12465299Y-15046008D01*
X12465299Y-15046008D02*
X12484347Y-15036484D01*
X12741489Y-15236484D02*
X12627204Y-15236484D01*
X12684347Y-15236484D02*
X12684347Y-15036484D01*
X12684347Y-15036484D02*
X12665299Y-15065056D01*
X12665299Y-15065056D02*
X12646251Y-15084103D01*
X12646251Y-15084103D02*
X12627204Y-15093627D01*
X12931966Y-15236484D02*
X12817680Y-15236484D01*
X12874823Y-15236484D02*
X12874823Y-15036484D01*
X12874823Y-15036484D02*
X12855775Y-15065056D01*
X12855775Y-15065056D02*
X12836728Y-15084103D01*
X12836728Y-15084103D02*
X12817680Y-15093627D01*
X13046251Y-15122198D02*
X13027204Y-15112675D01*
X13027204Y-15112675D02*
X13017680Y-15103151D01*
X13017680Y-15103151D02*
X13008156Y-15084103D01*
X13008156Y-15084103D02*
X13008156Y-15074579D01*
X13008156Y-15074579D02*
X13017680Y-15055532D01*
X13017680Y-15055532D02*
X13027204Y-15046008D01*
X13027204Y-15046008D02*
X13046251Y-15036484D01*
X13046251Y-15036484D02*
X13084347Y-15036484D01*
X13084347Y-15036484D02*
X13103394Y-15046008D01*
X13103394Y-15046008D02*
X13112918Y-15055532D01*
X13112918Y-15055532D02*
X13122442Y-15074579D01*
X13122442Y-15074579D02*
X13122442Y-15084103D01*
X13122442Y-15084103D02*
X13112918Y-15103151D01*
X13112918Y-15103151D02*
X13103394Y-15112675D01*
X13103394Y-15112675D02*
X13084347Y-15122198D01*
X13084347Y-15122198D02*
X13046251Y-15122198D01*
X13046251Y-15122198D02*
X13027204Y-15131722D01*
X13027204Y-15131722D02*
X13017680Y-15141246D01*
X13017680Y-15141246D02*
X13008156Y-15160294D01*
X13008156Y-15160294D02*
X13008156Y-15198389D01*
X13008156Y-15198389D02*
X13017680Y-15217437D01*
X13017680Y-15217437D02*
X13027204Y-15226960D01*
X13027204Y-15226960D02*
X13046251Y-15236484D01*
X13046251Y-15236484D02*
X13084347Y-15236484D01*
X13084347Y-15236484D02*
X13103394Y-15226960D01*
X13103394Y-15226960D02*
X13112918Y-15217437D01*
X13112918Y-15217437D02*
X13122442Y-15198389D01*
X13122442Y-15198389D02*
X13122442Y-15160294D01*
X13122442Y-15160294D02*
X13112918Y-15141246D01*
X13112918Y-15141246D02*
X13103394Y-15131722D01*
X13103394Y-15131722D02*
X13084347Y-15122198D01*
X13198632Y-15036484D02*
X13198632Y-15074579D01*
X13274823Y-15036484D02*
X13274823Y-15074579D01*
X13570061Y-15312675D02*
X13560537Y-15303151D01*
X13560537Y-15303151D02*
X13541490Y-15274579D01*
X13541490Y-15274579D02*
X13531966Y-15255532D01*
X13531966Y-15255532D02*
X13522442Y-15226960D01*
X13522442Y-15226960D02*
X13512918Y-15179341D01*
X13512918Y-15179341D02*
X13512918Y-15141246D01*
X13512918Y-15141246D02*
X13522442Y-15093627D01*
X13522442Y-15093627D02*
X13531966Y-15065056D01*
X13531966Y-15065056D02*
X13541490Y-15046008D01*
X13541490Y-15046008D02*
X13560537Y-15017437D01*
X13560537Y-15017437D02*
X13570061Y-15007913D01*
X13731966Y-15036484D02*
X13693870Y-15036484D01*
X13693870Y-15036484D02*
X13674823Y-15046008D01*
X13674823Y-15046008D02*
X13665299Y-15055532D01*
X13665299Y-15055532D02*
X13646251Y-15084103D01*
X13646251Y-15084103D02*
X13636728Y-15122198D01*
X13636728Y-15122198D02*
X13636728Y-15198389D01*
X13636728Y-15198389D02*
X13646251Y-15217437D01*
X13646251Y-15217437D02*
X13655775Y-15226960D01*
X13655775Y-15226960D02*
X13674823Y-15236484D01*
X13674823Y-15236484D02*
X13712918Y-15236484D01*
X13712918Y-15236484D02*
X13731966Y-15226960D01*
X13731966Y-15226960D02*
X13741490Y-15217437D01*
X13741490Y-15217437D02*
X13751013Y-15198389D01*
X13751013Y-15198389D02*
X13751013Y-15150770D01*
X13751013Y-15150770D02*
X13741490Y-15131722D01*
X13741490Y-15131722D02*
X13731966Y-15122198D01*
X13731966Y-15122198D02*
X13712918Y-15112675D01*
X13712918Y-15112675D02*
X13674823Y-15112675D01*
X13674823Y-15112675D02*
X13655775Y-15122198D01*
X13655775Y-15122198D02*
X13646251Y-15131722D01*
X13646251Y-15131722D02*
X13636728Y-15150770D01*
X13827204Y-15055532D02*
X13836728Y-15046008D01*
X13836728Y-15046008D02*
X13855775Y-15036484D01*
X13855775Y-15036484D02*
X13903394Y-15036484D01*
X13903394Y-15036484D02*
X13922442Y-15046008D01*
X13922442Y-15046008D02*
X13931966Y-15055532D01*
X13931966Y-15055532D02*
X13941490Y-15074579D01*
X13941490Y-15074579D02*
X13941490Y-15093627D01*
X13941490Y-15093627D02*
X13931966Y-15122198D01*
X13931966Y-15122198D02*
X13817680Y-15236484D01*
X13817680Y-15236484D02*
X13941490Y-15236484D01*
X14055775Y-15122198D02*
X14036728Y-15112675D01*
X14036728Y-15112675D02*
X14027204Y-15103151D01*
X14027204Y-15103151D02*
X14017680Y-15084103D01*
X14017680Y-15084103D02*
X14017680Y-15074579D01*
X14017680Y-15074579D02*
X14027204Y-15055532D01*
X14027204Y-15055532D02*
X14036728Y-15046008D01*
X14036728Y-15046008D02*
X14055775Y-15036484D01*
X14055775Y-15036484D02*
X14093871Y-15036484D01*
X14093871Y-15036484D02*
X14112918Y-15046008D01*
X14112918Y-15046008D02*
X14122442Y-15055532D01*
X14122442Y-15055532D02*
X14131966Y-15074579D01*
X14131966Y-15074579D02*
X14131966Y-15084103D01*
X14131966Y-15084103D02*
X14122442Y-15103151D01*
X14122442Y-15103151D02*
X14112918Y-15112675D01*
X14112918Y-15112675D02*
X14093871Y-15122198D01*
X14093871Y-15122198D02*
X14055775Y-15122198D01*
X14055775Y-15122198D02*
X14036728Y-15131722D01*
X14036728Y-15131722D02*
X14027204Y-15141246D01*
X14027204Y-15141246D02*
X14017680Y-15160294D01*
X14017680Y-15160294D02*
X14017680Y-15198389D01*
X14017680Y-15198389D02*
X14027204Y-15217437D01*
X14027204Y-15217437D02*
X14036728Y-15226960D01*
X14036728Y-15226960D02*
X14055775Y-15236484D01*
X14055775Y-15236484D02*
X14093871Y-15236484D01*
X14093871Y-15236484D02*
X14112918Y-15226960D01*
X14112918Y-15226960D02*
X14122442Y-15217437D01*
X14122442Y-15217437D02*
X14131966Y-15198389D01*
X14131966Y-15198389D02*
X14131966Y-15160294D01*
X14131966Y-15160294D02*
X14122442Y-15141246D01*
X14122442Y-15141246D02*
X14112918Y-15131722D01*
X14112918Y-15131722D02*
X14093871Y-15122198D01*
X14370061Y-15236484D02*
X14370061Y-15036484D01*
X14455775Y-15236484D02*
X14455775Y-15131722D01*
X14455775Y-15131722D02*
X14446252Y-15112675D01*
X14446252Y-15112675D02*
X14427204Y-15103151D01*
X14427204Y-15103151D02*
X14398632Y-15103151D01*
X14398632Y-15103151D02*
X14379585Y-15112675D01*
X14379585Y-15112675D02*
X14370061Y-15122198D01*
X14579585Y-15236484D02*
X14560537Y-15226960D01*
X14560537Y-15226960D02*
X14551013Y-15217437D01*
X14551013Y-15217437D02*
X14541490Y-15198389D01*
X14541490Y-15198389D02*
X14541490Y-15141246D01*
X14541490Y-15141246D02*
X14551013Y-15122198D01*
X14551013Y-15122198D02*
X14560537Y-15112675D01*
X14560537Y-15112675D02*
X14579585Y-15103151D01*
X14579585Y-15103151D02*
X14608156Y-15103151D01*
X14608156Y-15103151D02*
X14627204Y-15112675D01*
X14627204Y-15112675D02*
X14636728Y-15122198D01*
X14636728Y-15122198D02*
X14646252Y-15141246D01*
X14646252Y-15141246D02*
X14646252Y-15198389D01*
X14646252Y-15198389D02*
X14636728Y-15217437D01*
X14636728Y-15217437D02*
X14627204Y-15226960D01*
X14627204Y-15226960D02*
X14608156Y-15236484D01*
X14608156Y-15236484D02*
X14579585Y-15236484D01*
X14760537Y-15236484D02*
X14741490Y-15226960D01*
X14741490Y-15226960D02*
X14731966Y-15207913D01*
X14731966Y-15207913D02*
X14731966Y-15036484D01*
X14912918Y-15226960D02*
X14893871Y-15236484D01*
X14893871Y-15236484D02*
X14855775Y-15236484D01*
X14855775Y-15236484D02*
X14836728Y-15226960D01*
X14836728Y-15226960D02*
X14827204Y-15207913D01*
X14827204Y-15207913D02*
X14827204Y-15131722D01*
X14827204Y-15131722D02*
X14836728Y-15112675D01*
X14836728Y-15112675D02*
X14855775Y-15103151D01*
X14855775Y-15103151D02*
X14893871Y-15103151D01*
X14893871Y-15103151D02*
X14912918Y-15112675D01*
X14912918Y-15112675D02*
X14922442Y-15131722D01*
X14922442Y-15131722D02*
X14922442Y-15150770D01*
X14922442Y-15150770D02*
X14827204Y-15169818D01*
X14998633Y-15226960D02*
X15017680Y-15236484D01*
X15017680Y-15236484D02*
X15055775Y-15236484D01*
X15055775Y-15236484D02*
X15074823Y-15226960D01*
X15074823Y-15226960D02*
X15084347Y-15207913D01*
X15084347Y-15207913D02*
X15084347Y-15198389D01*
X15084347Y-15198389D02*
X15074823Y-15179341D01*
X15074823Y-15179341D02*
X15055775Y-15169818D01*
X15055775Y-15169818D02*
X15027204Y-15169818D01*
X15027204Y-15169818D02*
X15008156Y-15160294D01*
X15008156Y-15160294D02*
X14998633Y-15141246D01*
X14998633Y-15141246D02*
X14998633Y-15131722D01*
X14998633Y-15131722D02*
X15008156Y-15112675D01*
X15008156Y-15112675D02*
X15027204Y-15103151D01*
X15027204Y-15103151D02*
X15055775Y-15103151D01*
X15055775Y-15103151D02*
X15074823Y-15112675D01*
X15151014Y-15312675D02*
X15160537Y-15303151D01*
X15160537Y-15303151D02*
X15179585Y-15274579D01*
X15179585Y-15274579D02*
X15189109Y-15255532D01*
X15189109Y-15255532D02*
X15198633Y-15226960D01*
X15198633Y-15226960D02*
X15208156Y-15179341D01*
X15208156Y-15179341D02*
X15208156Y-15141246D01*
X15208156Y-15141246D02*
X15198633Y-15093627D01*
X15198633Y-15093627D02*
X15189109Y-15065056D01*
X15189109Y-15065056D02*
X15179585Y-15046008D01*
X15179585Y-15046008D02*
X15160537Y-15017437D01*
X15160537Y-15017437D02*
X15151014Y-15007913D01*
D13*
X9994998Y-15409000D02*
G75*
G03*
X9994998Y-15409000I-25000J0D01*
G01*
D11*
X10293870Y-15300484D02*
X10312918Y-15300484D01*
X10312918Y-15300484D02*
X10331966Y-15310008D01*
X10331966Y-15310008D02*
X10341489Y-15319532D01*
X10341489Y-15319532D02*
X10351013Y-15338579D01*
X10351013Y-15338579D02*
X10360537Y-15376675D01*
X10360537Y-15376675D02*
X10360537Y-15424294D01*
X10360537Y-15424294D02*
X10351013Y-15462389D01*
X10351013Y-15462389D02*
X10341489Y-15481437D01*
X10341489Y-15481437D02*
X10331966Y-15490960D01*
X10331966Y-15490960D02*
X10312918Y-15500484D01*
X10312918Y-15500484D02*
X10293870Y-15500484D01*
X10293870Y-15500484D02*
X10274823Y-15490960D01*
X10274823Y-15490960D02*
X10265299Y-15481437D01*
X10265299Y-15481437D02*
X10255775Y-15462389D01*
X10255775Y-15462389D02*
X10246251Y-15424294D01*
X10246251Y-15424294D02*
X10246251Y-15376675D01*
X10246251Y-15376675D02*
X10255775Y-15338579D01*
X10255775Y-15338579D02*
X10265299Y-15319532D01*
X10265299Y-15319532D02*
X10274823Y-15310008D01*
X10274823Y-15310008D02*
X10293870Y-15300484D01*
X10446251Y-15481437D02*
X10455775Y-15490960D01*
X10455775Y-15490960D02*
X10446251Y-15500484D01*
X10446251Y-15500484D02*
X10436727Y-15490960D01*
X10436727Y-15490960D02*
X10446251Y-15481437D01*
X10446251Y-15481437D02*
X10446251Y-15500484D01*
X10636727Y-15300484D02*
X10541489Y-15300484D01*
X10541489Y-15300484D02*
X10531966Y-15395722D01*
X10531966Y-15395722D02*
X10541489Y-15386198D01*
X10541489Y-15386198D02*
X10560537Y-15376675D01*
X10560537Y-15376675D02*
X10608156Y-15376675D01*
X10608156Y-15376675D02*
X10627204Y-15386198D01*
X10627204Y-15386198D02*
X10636727Y-15395722D01*
X10636727Y-15395722D02*
X10646251Y-15414770D01*
X10646251Y-15414770D02*
X10646251Y-15462389D01*
X10646251Y-15462389D02*
X10636727Y-15481437D01*
X10636727Y-15481437D02*
X10627204Y-15490960D01*
X10627204Y-15490960D02*
X10608156Y-15500484D01*
X10608156Y-15500484D02*
X10560537Y-15500484D01*
X10560537Y-15500484D02*
X10541489Y-15490960D01*
X10541489Y-15490960D02*
X10531966Y-15481437D01*
X10770061Y-15300484D02*
X10789108Y-15300484D01*
X10789108Y-15300484D02*
X10808156Y-15310008D01*
X10808156Y-15310008D02*
X10817680Y-15319532D01*
X10817680Y-15319532D02*
X10827204Y-15338579D01*
X10827204Y-15338579D02*
X10836727Y-15376675D01*
X10836727Y-15376675D02*
X10836727Y-15424294D01*
X10836727Y-15424294D02*
X10827204Y-15462389D01*
X10827204Y-15462389D02*
X10817680Y-15481437D01*
X10817680Y-15481437D02*
X10808156Y-15490960D01*
X10808156Y-15490960D02*
X10789108Y-15500484D01*
X10789108Y-15500484D02*
X10770061Y-15500484D01*
X10770061Y-15500484D02*
X10751013Y-15490960D01*
X10751013Y-15490960D02*
X10741489Y-15481437D01*
X10741489Y-15481437D02*
X10731966Y-15462389D01*
X10731966Y-15462389D02*
X10722442Y-15424294D01*
X10722442Y-15424294D02*
X10722442Y-15376675D01*
X10722442Y-15376675D02*
X10731966Y-15338579D01*
X10731966Y-15338579D02*
X10741489Y-15319532D01*
X10741489Y-15319532D02*
X10751013Y-15310008D01*
X10751013Y-15310008D02*
X10770061Y-15300484D01*
X10960537Y-15300484D02*
X10979585Y-15300484D01*
X10979585Y-15300484D02*
X10998632Y-15310008D01*
X10998632Y-15310008D02*
X11008156Y-15319532D01*
X11008156Y-15319532D02*
X11017680Y-15338579D01*
X11017680Y-15338579D02*
X11027204Y-15376675D01*
X11027204Y-15376675D02*
X11027204Y-15424294D01*
X11027204Y-15424294D02*
X11017680Y-15462389D01*
X11017680Y-15462389D02*
X11008156Y-15481437D01*
X11008156Y-15481437D02*
X10998632Y-15490960D01*
X10998632Y-15490960D02*
X10979585Y-15500484D01*
X10979585Y-15500484D02*
X10960537Y-15500484D01*
X10960537Y-15500484D02*
X10941489Y-15490960D01*
X10941489Y-15490960D02*
X10931966Y-15481437D01*
X10931966Y-15481437D02*
X10922442Y-15462389D01*
X10922442Y-15462389D02*
X10912918Y-15424294D01*
X10912918Y-15424294D02*
X10912918Y-15376675D01*
X10912918Y-15376675D02*
X10922442Y-15338579D01*
X10922442Y-15338579D02*
X10931966Y-15319532D01*
X10931966Y-15319532D02*
X10941489Y-15310008D01*
X10941489Y-15310008D02*
X10960537Y-15300484D01*
X11112918Y-15500484D02*
X11112918Y-15367151D01*
X11112918Y-15386198D02*
X11122442Y-15376675D01*
X11122442Y-15376675D02*
X11141489Y-15367151D01*
X11141489Y-15367151D02*
X11170061Y-15367151D01*
X11170061Y-15367151D02*
X11189108Y-15376675D01*
X11189108Y-15376675D02*
X11198632Y-15395722D01*
X11198632Y-15395722D02*
X11198632Y-15500484D01*
X11198632Y-15395722D02*
X11208156Y-15376675D01*
X11208156Y-15376675D02*
X11227204Y-15367151D01*
X11227204Y-15367151D02*
X11255775Y-15367151D01*
X11255775Y-15367151D02*
X11274823Y-15376675D01*
X11274823Y-15376675D02*
X11284346Y-15395722D01*
X11284346Y-15395722D02*
X11284346Y-15500484D01*
X11379585Y-15500484D02*
X11379585Y-15367151D01*
X11379585Y-15386198D02*
X11389108Y-15376675D01*
X11389108Y-15376675D02*
X11408156Y-15367151D01*
X11408156Y-15367151D02*
X11436727Y-15367151D01*
X11436727Y-15367151D02*
X11455775Y-15376675D01*
X11455775Y-15376675D02*
X11465299Y-15395722D01*
X11465299Y-15395722D02*
X11465299Y-15500484D01*
X11465299Y-15395722D02*
X11474823Y-15376675D01*
X11474823Y-15376675D02*
X11493870Y-15367151D01*
X11493870Y-15367151D02*
X11522442Y-15367151D01*
X11522442Y-15367151D02*
X11541489Y-15376675D01*
X11541489Y-15376675D02*
X11551013Y-15395722D01*
X11551013Y-15395722D02*
X11551013Y-15500484D01*
X11941489Y-15290960D02*
X11770061Y-15548103D01*
X12198632Y-15300484D02*
X12217680Y-15300484D01*
X12217680Y-15300484D02*
X12236728Y-15310008D01*
X12236728Y-15310008D02*
X12246251Y-15319532D01*
X12246251Y-15319532D02*
X12255775Y-15338579D01*
X12255775Y-15338579D02*
X12265299Y-15376675D01*
X12265299Y-15376675D02*
X12265299Y-15424294D01*
X12265299Y-15424294D02*
X12255775Y-15462389D01*
X12255775Y-15462389D02*
X12246251Y-15481437D01*
X12246251Y-15481437D02*
X12236728Y-15490960D01*
X12236728Y-15490960D02*
X12217680Y-15500484D01*
X12217680Y-15500484D02*
X12198632Y-15500484D01*
X12198632Y-15500484D02*
X12179585Y-15490960D01*
X12179585Y-15490960D02*
X12170061Y-15481437D01*
X12170061Y-15481437D02*
X12160537Y-15462389D01*
X12160537Y-15462389D02*
X12151013Y-15424294D01*
X12151013Y-15424294D02*
X12151013Y-15376675D01*
X12151013Y-15376675D02*
X12160537Y-15338579D01*
X12160537Y-15338579D02*
X12170061Y-15319532D01*
X12170061Y-15319532D02*
X12179585Y-15310008D01*
X12179585Y-15310008D02*
X12198632Y-15300484D01*
X12351013Y-15481437D02*
X12360537Y-15490960D01*
X12360537Y-15490960D02*
X12351013Y-15500484D01*
X12351013Y-15500484D02*
X12341489Y-15490960D01*
X12341489Y-15490960D02*
X12351013Y-15481437D01*
X12351013Y-15481437D02*
X12351013Y-15500484D01*
X12484347Y-15300484D02*
X12503394Y-15300484D01*
X12503394Y-15300484D02*
X12522442Y-15310008D01*
X12522442Y-15310008D02*
X12531966Y-15319532D01*
X12531966Y-15319532D02*
X12541489Y-15338579D01*
X12541489Y-15338579D02*
X12551013Y-15376675D01*
X12551013Y-15376675D02*
X12551013Y-15424294D01*
X12551013Y-15424294D02*
X12541489Y-15462389D01*
X12541489Y-15462389D02*
X12531966Y-15481437D01*
X12531966Y-15481437D02*
X12522442Y-15490960D01*
X12522442Y-15490960D02*
X12503394Y-15500484D01*
X12503394Y-15500484D02*
X12484347Y-15500484D01*
X12484347Y-15500484D02*
X12465299Y-15490960D01*
X12465299Y-15490960D02*
X12455775Y-15481437D01*
X12455775Y-15481437D02*
X12446251Y-15462389D01*
X12446251Y-15462389D02*
X12436728Y-15424294D01*
X12436728Y-15424294D02*
X12436728Y-15376675D01*
X12436728Y-15376675D02*
X12446251Y-15338579D01*
X12446251Y-15338579D02*
X12455775Y-15319532D01*
X12455775Y-15319532D02*
X12465299Y-15310008D01*
X12465299Y-15310008D02*
X12484347Y-15300484D01*
X12741489Y-15500484D02*
X12627204Y-15500484D01*
X12684347Y-15500484D02*
X12684347Y-15300484D01*
X12684347Y-15300484D02*
X12665299Y-15329056D01*
X12665299Y-15329056D02*
X12646251Y-15348103D01*
X12646251Y-15348103D02*
X12627204Y-15357627D01*
X12836728Y-15500484D02*
X12874823Y-15500484D01*
X12874823Y-15500484D02*
X12893870Y-15490960D01*
X12893870Y-15490960D02*
X12903394Y-15481437D01*
X12903394Y-15481437D02*
X12922442Y-15452865D01*
X12922442Y-15452865D02*
X12931966Y-15414770D01*
X12931966Y-15414770D02*
X12931966Y-15338579D01*
X12931966Y-15338579D02*
X12922442Y-15319532D01*
X12922442Y-15319532D02*
X12912918Y-15310008D01*
X12912918Y-15310008D02*
X12893870Y-15300484D01*
X12893870Y-15300484D02*
X12855775Y-15300484D01*
X12855775Y-15300484D02*
X12836728Y-15310008D01*
X12836728Y-15310008D02*
X12827204Y-15319532D01*
X12827204Y-15319532D02*
X12817680Y-15338579D01*
X12817680Y-15338579D02*
X12817680Y-15386198D01*
X12817680Y-15386198D02*
X12827204Y-15405246D01*
X12827204Y-15405246D02*
X12836728Y-15414770D01*
X12836728Y-15414770D02*
X12855775Y-15424294D01*
X12855775Y-15424294D02*
X12893870Y-15424294D01*
X12893870Y-15424294D02*
X12912918Y-15414770D01*
X12912918Y-15414770D02*
X12922442Y-15405246D01*
X12922442Y-15405246D02*
X12931966Y-15386198D01*
X12998632Y-15300484D02*
X13131966Y-15300484D01*
X13131966Y-15300484D02*
X13046251Y-15500484D01*
X13198632Y-15300484D02*
X13198632Y-15338579D01*
X13274823Y-15300484D02*
X13274823Y-15338579D01*
X13570061Y-15576675D02*
X13560537Y-15567151D01*
X13560537Y-15567151D02*
X13541490Y-15538579D01*
X13541490Y-15538579D02*
X13531966Y-15519532D01*
X13531966Y-15519532D02*
X13522442Y-15490960D01*
X13522442Y-15490960D02*
X13512918Y-15443341D01*
X13512918Y-15443341D02*
X13512918Y-15405246D01*
X13512918Y-15405246D02*
X13522442Y-15357627D01*
X13522442Y-15357627D02*
X13531966Y-15329056D01*
X13531966Y-15329056D02*
X13541490Y-15310008D01*
X13541490Y-15310008D02*
X13560537Y-15281437D01*
X13560537Y-15281437D02*
X13570061Y-15271913D01*
X13751013Y-15500484D02*
X13636728Y-15500484D01*
X13693870Y-15500484D02*
X13693870Y-15300484D01*
X13693870Y-15300484D02*
X13674823Y-15329056D01*
X13674823Y-15329056D02*
X13655775Y-15348103D01*
X13655775Y-15348103D02*
X13636728Y-15357627D01*
X13874823Y-15300484D02*
X13893871Y-15300484D01*
X13893871Y-15300484D02*
X13912918Y-15310008D01*
X13912918Y-15310008D02*
X13922442Y-15319532D01*
X13922442Y-15319532D02*
X13931966Y-15338579D01*
X13931966Y-15338579D02*
X13941490Y-15376675D01*
X13941490Y-15376675D02*
X13941490Y-15424294D01*
X13941490Y-15424294D02*
X13931966Y-15462389D01*
X13931966Y-15462389D02*
X13922442Y-15481437D01*
X13922442Y-15481437D02*
X13912918Y-15490960D01*
X13912918Y-15490960D02*
X13893871Y-15500484D01*
X13893871Y-15500484D02*
X13874823Y-15500484D01*
X13874823Y-15500484D02*
X13855775Y-15490960D01*
X13855775Y-15490960D02*
X13846251Y-15481437D01*
X13846251Y-15481437D02*
X13836728Y-15462389D01*
X13836728Y-15462389D02*
X13827204Y-15424294D01*
X13827204Y-15424294D02*
X13827204Y-15376675D01*
X13827204Y-15376675D02*
X13836728Y-15338579D01*
X13836728Y-15338579D02*
X13846251Y-15319532D01*
X13846251Y-15319532D02*
X13855775Y-15310008D01*
X13855775Y-15310008D02*
X13874823Y-15300484D01*
X14179585Y-15500484D02*
X14179585Y-15300484D01*
X14265299Y-15500484D02*
X14265299Y-15395722D01*
X14265299Y-15395722D02*
X14255775Y-15376675D01*
X14255775Y-15376675D02*
X14236728Y-15367151D01*
X14236728Y-15367151D02*
X14208156Y-15367151D01*
X14208156Y-15367151D02*
X14189109Y-15376675D01*
X14189109Y-15376675D02*
X14179585Y-15386198D01*
X14389109Y-15500484D02*
X14370061Y-15490960D01*
X14370061Y-15490960D02*
X14360537Y-15481437D01*
X14360537Y-15481437D02*
X14351013Y-15462389D01*
X14351013Y-15462389D02*
X14351013Y-15405246D01*
X14351013Y-15405246D02*
X14360537Y-15386198D01*
X14360537Y-15386198D02*
X14370061Y-15376675D01*
X14370061Y-15376675D02*
X14389109Y-15367151D01*
X14389109Y-15367151D02*
X14417680Y-15367151D01*
X14417680Y-15367151D02*
X14436728Y-15376675D01*
X14436728Y-15376675D02*
X14446252Y-15386198D01*
X14446252Y-15386198D02*
X14455775Y-15405246D01*
X14455775Y-15405246D02*
X14455775Y-15462389D01*
X14455775Y-15462389D02*
X14446252Y-15481437D01*
X14446252Y-15481437D02*
X14436728Y-15490960D01*
X14436728Y-15490960D02*
X14417680Y-15500484D01*
X14417680Y-15500484D02*
X14389109Y-15500484D01*
X14570061Y-15500484D02*
X14551013Y-15490960D01*
X14551013Y-15490960D02*
X14541490Y-15471913D01*
X14541490Y-15471913D02*
X14541490Y-15300484D01*
X14722442Y-15490960D02*
X14703394Y-15500484D01*
X14703394Y-15500484D02*
X14665299Y-15500484D01*
X14665299Y-15500484D02*
X14646252Y-15490960D01*
X14646252Y-15490960D02*
X14636728Y-15471913D01*
X14636728Y-15471913D02*
X14636728Y-15395722D01*
X14636728Y-15395722D02*
X14646252Y-15376675D01*
X14646252Y-15376675D02*
X14665299Y-15367151D01*
X14665299Y-15367151D02*
X14703394Y-15367151D01*
X14703394Y-15367151D02*
X14722442Y-15376675D01*
X14722442Y-15376675D02*
X14731966Y-15395722D01*
X14731966Y-15395722D02*
X14731966Y-15414770D01*
X14731966Y-15414770D02*
X14636728Y-15433818D01*
X14808156Y-15490960D02*
X14827204Y-15500484D01*
X14827204Y-15500484D02*
X14865299Y-15500484D01*
X14865299Y-15500484D02*
X14884347Y-15490960D01*
X14884347Y-15490960D02*
X14893871Y-15471913D01*
X14893871Y-15471913D02*
X14893871Y-15462389D01*
X14893871Y-15462389D02*
X14884347Y-15443341D01*
X14884347Y-15443341D02*
X14865299Y-15433818D01*
X14865299Y-15433818D02*
X14836728Y-15433818D01*
X14836728Y-15433818D02*
X14817680Y-15424294D01*
X14817680Y-15424294D02*
X14808156Y-15405246D01*
X14808156Y-15405246D02*
X14808156Y-15395722D01*
X14808156Y-15395722D02*
X14817680Y-15376675D01*
X14817680Y-15376675D02*
X14836728Y-15367151D01*
X14836728Y-15367151D02*
X14865299Y-15367151D01*
X14865299Y-15367151D02*
X14884347Y-15376675D01*
X14960537Y-15576675D02*
X14970061Y-15567151D01*
X14970061Y-15567151D02*
X14989109Y-15538579D01*
X14989109Y-15538579D02*
X14998633Y-15519532D01*
X14998633Y-15519532D02*
X15008156Y-15490960D01*
X15008156Y-15490960D02*
X15017680Y-15443341D01*
X15017680Y-15443341D02*
X15017680Y-15405246D01*
X15017680Y-15405246D02*
X15008156Y-15357627D01*
X15008156Y-15357627D02*
X14998633Y-15329056D01*
X14998633Y-15329056D02*
X14989109Y-15310008D01*
X14989109Y-15310008D02*
X14970061Y-15281437D01*
X14970061Y-15281437D02*
X14960537Y-15271913D01*
D13*
X9969998Y-15648000D02*
X9969998Y-15698000D01*
X9944998Y-15673000D02*
X9994998Y-15673000D01*
D11*
X10293870Y-15564484D02*
X10312918Y-15564484D01*
X10312918Y-15564484D02*
X10331966Y-15574008D01*
X10331966Y-15574008D02*
X10341489Y-15583532D01*
X10341489Y-15583532D02*
X10351013Y-15602579D01*
X10351013Y-15602579D02*
X10360537Y-15640675D01*
X10360537Y-15640675D02*
X10360537Y-15688294D01*
X10360537Y-15688294D02*
X10351013Y-15726389D01*
X10351013Y-15726389D02*
X10341489Y-15745437D01*
X10341489Y-15745437D02*
X10331966Y-15754960D01*
X10331966Y-15754960D02*
X10312918Y-15764484D01*
X10312918Y-15764484D02*
X10293870Y-15764484D01*
X10293870Y-15764484D02*
X10274823Y-15754960D01*
X10274823Y-15754960D02*
X10265299Y-15745437D01*
X10265299Y-15745437D02*
X10255775Y-15726389D01*
X10255775Y-15726389D02*
X10246251Y-15688294D01*
X10246251Y-15688294D02*
X10246251Y-15640675D01*
X10246251Y-15640675D02*
X10255775Y-15602579D01*
X10255775Y-15602579D02*
X10265299Y-15583532D01*
X10265299Y-15583532D02*
X10274823Y-15574008D01*
X10274823Y-15574008D02*
X10293870Y-15564484D01*
X10446251Y-15745437D02*
X10455775Y-15754960D01*
X10455775Y-15754960D02*
X10446251Y-15764484D01*
X10446251Y-15764484D02*
X10436727Y-15754960D01*
X10436727Y-15754960D02*
X10446251Y-15745437D01*
X10446251Y-15745437D02*
X10446251Y-15764484D01*
X10636727Y-15564484D02*
X10541489Y-15564484D01*
X10541489Y-15564484D02*
X10531966Y-15659722D01*
X10531966Y-15659722D02*
X10541489Y-15650198D01*
X10541489Y-15650198D02*
X10560537Y-15640675D01*
X10560537Y-15640675D02*
X10608156Y-15640675D01*
X10608156Y-15640675D02*
X10627204Y-15650198D01*
X10627204Y-15650198D02*
X10636727Y-15659722D01*
X10636727Y-15659722D02*
X10646251Y-15678770D01*
X10646251Y-15678770D02*
X10646251Y-15726389D01*
X10646251Y-15726389D02*
X10636727Y-15745437D01*
X10636727Y-15745437D02*
X10627204Y-15754960D01*
X10627204Y-15754960D02*
X10608156Y-15764484D01*
X10608156Y-15764484D02*
X10560537Y-15764484D01*
X10560537Y-15764484D02*
X10541489Y-15754960D01*
X10541489Y-15754960D02*
X10531966Y-15745437D01*
X10770061Y-15564484D02*
X10789108Y-15564484D01*
X10789108Y-15564484D02*
X10808156Y-15574008D01*
X10808156Y-15574008D02*
X10817680Y-15583532D01*
X10817680Y-15583532D02*
X10827204Y-15602579D01*
X10827204Y-15602579D02*
X10836727Y-15640675D01*
X10836727Y-15640675D02*
X10836727Y-15688294D01*
X10836727Y-15688294D02*
X10827204Y-15726389D01*
X10827204Y-15726389D02*
X10817680Y-15745437D01*
X10817680Y-15745437D02*
X10808156Y-15754960D01*
X10808156Y-15754960D02*
X10789108Y-15764484D01*
X10789108Y-15764484D02*
X10770061Y-15764484D01*
X10770061Y-15764484D02*
X10751013Y-15754960D01*
X10751013Y-15754960D02*
X10741489Y-15745437D01*
X10741489Y-15745437D02*
X10731966Y-15726389D01*
X10731966Y-15726389D02*
X10722442Y-15688294D01*
X10722442Y-15688294D02*
X10722442Y-15640675D01*
X10722442Y-15640675D02*
X10731966Y-15602579D01*
X10731966Y-15602579D02*
X10741489Y-15583532D01*
X10741489Y-15583532D02*
X10751013Y-15574008D01*
X10751013Y-15574008D02*
X10770061Y-15564484D01*
X10960537Y-15564484D02*
X10979585Y-15564484D01*
X10979585Y-15564484D02*
X10998632Y-15574008D01*
X10998632Y-15574008D02*
X11008156Y-15583532D01*
X11008156Y-15583532D02*
X11017680Y-15602579D01*
X11017680Y-15602579D02*
X11027204Y-15640675D01*
X11027204Y-15640675D02*
X11027204Y-15688294D01*
X11027204Y-15688294D02*
X11017680Y-15726389D01*
X11017680Y-15726389D02*
X11008156Y-15745437D01*
X11008156Y-15745437D02*
X10998632Y-15754960D01*
X10998632Y-15754960D02*
X10979585Y-15764484D01*
X10979585Y-15764484D02*
X10960537Y-15764484D01*
X10960537Y-15764484D02*
X10941489Y-15754960D01*
X10941489Y-15754960D02*
X10931966Y-15745437D01*
X10931966Y-15745437D02*
X10922442Y-15726389D01*
X10922442Y-15726389D02*
X10912918Y-15688294D01*
X10912918Y-15688294D02*
X10912918Y-15640675D01*
X10912918Y-15640675D02*
X10922442Y-15602579D01*
X10922442Y-15602579D02*
X10931966Y-15583532D01*
X10931966Y-15583532D02*
X10941489Y-15574008D01*
X10941489Y-15574008D02*
X10960537Y-15564484D01*
X11112918Y-15764484D02*
X11112918Y-15631151D01*
X11112918Y-15650198D02*
X11122442Y-15640675D01*
X11122442Y-15640675D02*
X11141489Y-15631151D01*
X11141489Y-15631151D02*
X11170061Y-15631151D01*
X11170061Y-15631151D02*
X11189108Y-15640675D01*
X11189108Y-15640675D02*
X11198632Y-15659722D01*
X11198632Y-15659722D02*
X11198632Y-15764484D01*
X11198632Y-15659722D02*
X11208156Y-15640675D01*
X11208156Y-15640675D02*
X11227204Y-15631151D01*
X11227204Y-15631151D02*
X11255775Y-15631151D01*
X11255775Y-15631151D02*
X11274823Y-15640675D01*
X11274823Y-15640675D02*
X11284346Y-15659722D01*
X11284346Y-15659722D02*
X11284346Y-15764484D01*
X11379585Y-15764484D02*
X11379585Y-15631151D01*
X11379585Y-15650198D02*
X11389108Y-15640675D01*
X11389108Y-15640675D02*
X11408156Y-15631151D01*
X11408156Y-15631151D02*
X11436727Y-15631151D01*
X11436727Y-15631151D02*
X11455775Y-15640675D01*
X11455775Y-15640675D02*
X11465299Y-15659722D01*
X11465299Y-15659722D02*
X11465299Y-15764484D01*
X11465299Y-15659722D02*
X11474823Y-15640675D01*
X11474823Y-15640675D02*
X11493870Y-15631151D01*
X11493870Y-15631151D02*
X11522442Y-15631151D01*
X11522442Y-15631151D02*
X11541489Y-15640675D01*
X11541489Y-15640675D02*
X11551013Y-15659722D01*
X11551013Y-15659722D02*
X11551013Y-15764484D01*
X11941489Y-15554960D02*
X11770061Y-15812103D01*
X12198632Y-15564484D02*
X12217680Y-15564484D01*
X12217680Y-15564484D02*
X12236728Y-15574008D01*
X12236728Y-15574008D02*
X12246251Y-15583532D01*
X12246251Y-15583532D02*
X12255775Y-15602579D01*
X12255775Y-15602579D02*
X12265299Y-15640675D01*
X12265299Y-15640675D02*
X12265299Y-15688294D01*
X12265299Y-15688294D02*
X12255775Y-15726389D01*
X12255775Y-15726389D02*
X12246251Y-15745437D01*
X12246251Y-15745437D02*
X12236728Y-15754960D01*
X12236728Y-15754960D02*
X12217680Y-15764484D01*
X12217680Y-15764484D02*
X12198632Y-15764484D01*
X12198632Y-15764484D02*
X12179585Y-15754960D01*
X12179585Y-15754960D02*
X12170061Y-15745437D01*
X12170061Y-15745437D02*
X12160537Y-15726389D01*
X12160537Y-15726389D02*
X12151013Y-15688294D01*
X12151013Y-15688294D02*
X12151013Y-15640675D01*
X12151013Y-15640675D02*
X12160537Y-15602579D01*
X12160537Y-15602579D02*
X12170061Y-15583532D01*
X12170061Y-15583532D02*
X12179585Y-15574008D01*
X12179585Y-15574008D02*
X12198632Y-15564484D01*
X12351013Y-15745437D02*
X12360537Y-15754960D01*
X12360537Y-15754960D02*
X12351013Y-15764484D01*
X12351013Y-15764484D02*
X12341489Y-15754960D01*
X12341489Y-15754960D02*
X12351013Y-15745437D01*
X12351013Y-15745437D02*
X12351013Y-15764484D01*
X12484347Y-15564484D02*
X12503394Y-15564484D01*
X12503394Y-15564484D02*
X12522442Y-15574008D01*
X12522442Y-15574008D02*
X12531966Y-15583532D01*
X12531966Y-15583532D02*
X12541489Y-15602579D01*
X12541489Y-15602579D02*
X12551013Y-15640675D01*
X12551013Y-15640675D02*
X12551013Y-15688294D01*
X12551013Y-15688294D02*
X12541489Y-15726389D01*
X12541489Y-15726389D02*
X12531966Y-15745437D01*
X12531966Y-15745437D02*
X12522442Y-15754960D01*
X12522442Y-15754960D02*
X12503394Y-15764484D01*
X12503394Y-15764484D02*
X12484347Y-15764484D01*
X12484347Y-15764484D02*
X12465299Y-15754960D01*
X12465299Y-15754960D02*
X12455775Y-15745437D01*
X12455775Y-15745437D02*
X12446251Y-15726389D01*
X12446251Y-15726389D02*
X12436728Y-15688294D01*
X12436728Y-15688294D02*
X12436728Y-15640675D01*
X12436728Y-15640675D02*
X12446251Y-15602579D01*
X12446251Y-15602579D02*
X12455775Y-15583532D01*
X12455775Y-15583532D02*
X12465299Y-15574008D01*
X12465299Y-15574008D02*
X12484347Y-15564484D01*
X12741489Y-15764484D02*
X12627204Y-15764484D01*
X12684347Y-15764484D02*
X12684347Y-15564484D01*
X12684347Y-15564484D02*
X12665299Y-15593056D01*
X12665299Y-15593056D02*
X12646251Y-15612103D01*
X12646251Y-15612103D02*
X12627204Y-15621627D01*
X12836728Y-15764484D02*
X12874823Y-15764484D01*
X12874823Y-15764484D02*
X12893870Y-15754960D01*
X12893870Y-15754960D02*
X12903394Y-15745437D01*
X12903394Y-15745437D02*
X12922442Y-15716865D01*
X12922442Y-15716865D02*
X12931966Y-15678770D01*
X12931966Y-15678770D02*
X12931966Y-15602579D01*
X12931966Y-15602579D02*
X12922442Y-15583532D01*
X12922442Y-15583532D02*
X12912918Y-15574008D01*
X12912918Y-15574008D02*
X12893870Y-15564484D01*
X12893870Y-15564484D02*
X12855775Y-15564484D01*
X12855775Y-15564484D02*
X12836728Y-15574008D01*
X12836728Y-15574008D02*
X12827204Y-15583532D01*
X12827204Y-15583532D02*
X12817680Y-15602579D01*
X12817680Y-15602579D02*
X12817680Y-15650198D01*
X12817680Y-15650198D02*
X12827204Y-15669246D01*
X12827204Y-15669246D02*
X12836728Y-15678770D01*
X12836728Y-15678770D02*
X12855775Y-15688294D01*
X12855775Y-15688294D02*
X12893870Y-15688294D01*
X12893870Y-15688294D02*
X12912918Y-15678770D01*
X12912918Y-15678770D02*
X12922442Y-15669246D01*
X12922442Y-15669246D02*
X12931966Y-15650198D01*
X12998632Y-15564484D02*
X13131966Y-15564484D01*
X13131966Y-15564484D02*
X13046251Y-15764484D01*
X13198632Y-15564484D02*
X13198632Y-15602579D01*
X13274823Y-15564484D02*
X13274823Y-15602579D01*
X13570061Y-15840675D02*
X13560537Y-15831151D01*
X13560537Y-15831151D02*
X13541490Y-15802579D01*
X13541490Y-15802579D02*
X13531966Y-15783532D01*
X13531966Y-15783532D02*
X13522442Y-15754960D01*
X13522442Y-15754960D02*
X13512918Y-15707341D01*
X13512918Y-15707341D02*
X13512918Y-15669246D01*
X13512918Y-15669246D02*
X13522442Y-15621627D01*
X13522442Y-15621627D02*
X13531966Y-15593056D01*
X13531966Y-15593056D02*
X13541490Y-15574008D01*
X13541490Y-15574008D02*
X13560537Y-15545437D01*
X13560537Y-15545437D02*
X13570061Y-15535913D01*
X13627204Y-15564484D02*
X13751013Y-15564484D01*
X13751013Y-15564484D02*
X13684347Y-15640675D01*
X13684347Y-15640675D02*
X13712918Y-15640675D01*
X13712918Y-15640675D02*
X13731966Y-15650198D01*
X13731966Y-15650198D02*
X13741490Y-15659722D01*
X13741490Y-15659722D02*
X13751013Y-15678770D01*
X13751013Y-15678770D02*
X13751013Y-15726389D01*
X13751013Y-15726389D02*
X13741490Y-15745437D01*
X13741490Y-15745437D02*
X13731966Y-15754960D01*
X13731966Y-15754960D02*
X13712918Y-15764484D01*
X13712918Y-15764484D02*
X13655775Y-15764484D01*
X13655775Y-15764484D02*
X13636728Y-15754960D01*
X13636728Y-15754960D02*
X13627204Y-15745437D01*
X13989109Y-15764484D02*
X13989109Y-15564484D01*
X14074823Y-15764484D02*
X14074823Y-15659722D01*
X14074823Y-15659722D02*
X14065299Y-15640675D01*
X14065299Y-15640675D02*
X14046252Y-15631151D01*
X14046252Y-15631151D02*
X14017680Y-15631151D01*
X14017680Y-15631151D02*
X13998632Y-15640675D01*
X13998632Y-15640675D02*
X13989109Y-15650198D01*
X14198632Y-15764484D02*
X14179585Y-15754960D01*
X14179585Y-15754960D02*
X14170061Y-15745437D01*
X14170061Y-15745437D02*
X14160537Y-15726389D01*
X14160537Y-15726389D02*
X14160537Y-15669246D01*
X14160537Y-15669246D02*
X14170061Y-15650198D01*
X14170061Y-15650198D02*
X14179585Y-15640675D01*
X14179585Y-15640675D02*
X14198632Y-15631151D01*
X14198632Y-15631151D02*
X14227204Y-15631151D01*
X14227204Y-15631151D02*
X14246252Y-15640675D01*
X14246252Y-15640675D02*
X14255775Y-15650198D01*
X14255775Y-15650198D02*
X14265299Y-15669246D01*
X14265299Y-15669246D02*
X14265299Y-15726389D01*
X14265299Y-15726389D02*
X14255775Y-15745437D01*
X14255775Y-15745437D02*
X14246252Y-15754960D01*
X14246252Y-15754960D02*
X14227204Y-15764484D01*
X14227204Y-15764484D02*
X14198632Y-15764484D01*
X14379585Y-15764484D02*
X14360537Y-15754960D01*
X14360537Y-15754960D02*
X14351013Y-15735913D01*
X14351013Y-15735913D02*
X14351013Y-15564484D01*
X14531966Y-15754960D02*
X14512918Y-15764484D01*
X14512918Y-15764484D02*
X14474823Y-15764484D01*
X14474823Y-15764484D02*
X14455775Y-15754960D01*
X14455775Y-15754960D02*
X14446252Y-15735913D01*
X14446252Y-15735913D02*
X14446252Y-15659722D01*
X14446252Y-15659722D02*
X14455775Y-15640675D01*
X14455775Y-15640675D02*
X14474823Y-15631151D01*
X14474823Y-15631151D02*
X14512918Y-15631151D01*
X14512918Y-15631151D02*
X14531966Y-15640675D01*
X14531966Y-15640675D02*
X14541490Y-15659722D01*
X14541490Y-15659722D02*
X14541490Y-15678770D01*
X14541490Y-15678770D02*
X14446252Y-15697818D01*
X14617680Y-15754960D02*
X14636728Y-15764484D01*
X14636728Y-15764484D02*
X14674823Y-15764484D01*
X14674823Y-15764484D02*
X14693871Y-15754960D01*
X14693871Y-15754960D02*
X14703394Y-15735913D01*
X14703394Y-15735913D02*
X14703394Y-15726389D01*
X14703394Y-15726389D02*
X14693871Y-15707341D01*
X14693871Y-15707341D02*
X14674823Y-15697818D01*
X14674823Y-15697818D02*
X14646252Y-15697818D01*
X14646252Y-15697818D02*
X14627204Y-15688294D01*
X14627204Y-15688294D02*
X14617680Y-15669246D01*
X14617680Y-15669246D02*
X14617680Y-15659722D01*
X14617680Y-15659722D02*
X14627204Y-15640675D01*
X14627204Y-15640675D02*
X14646252Y-15631151D01*
X14646252Y-15631151D02*
X14674823Y-15631151D01*
X14674823Y-15631151D02*
X14693871Y-15640675D01*
X14770061Y-15840675D02*
X14779585Y-15831151D01*
X14779585Y-15831151D02*
X14798633Y-15802579D01*
X14798633Y-15802579D02*
X14808156Y-15783532D01*
X14808156Y-15783532D02*
X14817680Y-15754960D01*
X14817680Y-15754960D02*
X14827204Y-15707341D01*
X14827204Y-15707341D02*
X14827204Y-15669246D01*
X14827204Y-15669246D02*
X14817680Y-15621627D01*
X14817680Y-15621627D02*
X14808156Y-15593056D01*
X14808156Y-15593056D02*
X14798633Y-15574008D01*
X14798633Y-15574008D02*
X14779585Y-15545437D01*
X14779585Y-15545437D02*
X14770061Y-15535913D01*
D14*
X9979004Y-15975616D02*
X9979004Y-15898385D01*
X9901773Y-15898385D01*
X9901773Y-15975616D01*
X9979004Y-15975616D01*
D11*
X10360537Y-16028484D02*
X10246251Y-16028484D01*
X10303394Y-16028484D02*
X10303394Y-15828484D01*
X10303394Y-15828484D02*
X10284346Y-15857056D01*
X10284346Y-15857056D02*
X10265299Y-15876103D01*
X10265299Y-15876103D02*
X10246251Y-15885627D01*
X10446251Y-16009437D02*
X10455775Y-16018960D01*
X10455775Y-16018960D02*
X10446251Y-16028484D01*
X10446251Y-16028484D02*
X10436727Y-16018960D01*
X10436727Y-16018960D02*
X10446251Y-16009437D01*
X10446251Y-16009437D02*
X10446251Y-16028484D01*
X10579585Y-15828484D02*
X10598632Y-15828484D01*
X10598632Y-15828484D02*
X10617680Y-15838008D01*
X10617680Y-15838008D02*
X10627204Y-15847532D01*
X10627204Y-15847532D02*
X10636727Y-15866579D01*
X10636727Y-15866579D02*
X10646251Y-15904675D01*
X10646251Y-15904675D02*
X10646251Y-15952294D01*
X10646251Y-15952294D02*
X10636727Y-15990389D01*
X10636727Y-15990389D02*
X10627204Y-16009437D01*
X10627204Y-16009437D02*
X10617680Y-16018960D01*
X10617680Y-16018960D02*
X10598632Y-16028484D01*
X10598632Y-16028484D02*
X10579585Y-16028484D01*
X10579585Y-16028484D02*
X10560537Y-16018960D01*
X10560537Y-16018960D02*
X10551013Y-16009437D01*
X10551013Y-16009437D02*
X10541489Y-15990389D01*
X10541489Y-15990389D02*
X10531966Y-15952294D01*
X10531966Y-15952294D02*
X10531966Y-15904675D01*
X10531966Y-15904675D02*
X10541489Y-15866579D01*
X10541489Y-15866579D02*
X10551013Y-15847532D01*
X10551013Y-15847532D02*
X10560537Y-15838008D01*
X10560537Y-15838008D02*
X10579585Y-15828484D01*
X10741489Y-16028484D02*
X10779585Y-16028484D01*
X10779585Y-16028484D02*
X10798632Y-16018960D01*
X10798632Y-16018960D02*
X10808156Y-16009437D01*
X10808156Y-16009437D02*
X10827204Y-15980865D01*
X10827204Y-15980865D02*
X10836727Y-15942770D01*
X10836727Y-15942770D02*
X10836727Y-15866579D01*
X10836727Y-15866579D02*
X10827204Y-15847532D01*
X10827204Y-15847532D02*
X10817680Y-15838008D01*
X10817680Y-15838008D02*
X10798632Y-15828484D01*
X10798632Y-15828484D02*
X10760537Y-15828484D01*
X10760537Y-15828484D02*
X10741489Y-15838008D01*
X10741489Y-15838008D02*
X10731966Y-15847532D01*
X10731966Y-15847532D02*
X10722442Y-15866579D01*
X10722442Y-15866579D02*
X10722442Y-15914198D01*
X10722442Y-15914198D02*
X10731966Y-15933246D01*
X10731966Y-15933246D02*
X10741489Y-15942770D01*
X10741489Y-15942770D02*
X10760537Y-15952294D01*
X10760537Y-15952294D02*
X10798632Y-15952294D01*
X10798632Y-15952294D02*
X10817680Y-15942770D01*
X10817680Y-15942770D02*
X10827204Y-15933246D01*
X10827204Y-15933246D02*
X10836727Y-15914198D01*
X10912918Y-15847532D02*
X10922442Y-15838008D01*
X10922442Y-15838008D02*
X10941489Y-15828484D01*
X10941489Y-15828484D02*
X10989108Y-15828484D01*
X10989108Y-15828484D02*
X11008156Y-15838008D01*
X11008156Y-15838008D02*
X11017680Y-15847532D01*
X11017680Y-15847532D02*
X11027204Y-15866579D01*
X11027204Y-15866579D02*
X11027204Y-15885627D01*
X11027204Y-15885627D02*
X11017680Y-15914198D01*
X11017680Y-15914198D02*
X10903394Y-16028484D01*
X10903394Y-16028484D02*
X11027204Y-16028484D01*
X11112918Y-16028484D02*
X11112918Y-15895151D01*
X11112918Y-15914198D02*
X11122442Y-15904675D01*
X11122442Y-15904675D02*
X11141489Y-15895151D01*
X11141489Y-15895151D02*
X11170061Y-15895151D01*
X11170061Y-15895151D02*
X11189108Y-15904675D01*
X11189108Y-15904675D02*
X11198632Y-15923722D01*
X11198632Y-15923722D02*
X11198632Y-16028484D01*
X11198632Y-15923722D02*
X11208156Y-15904675D01*
X11208156Y-15904675D02*
X11227204Y-15895151D01*
X11227204Y-15895151D02*
X11255775Y-15895151D01*
X11255775Y-15895151D02*
X11274823Y-15904675D01*
X11274823Y-15904675D02*
X11284346Y-15923722D01*
X11284346Y-15923722D02*
X11284346Y-16028484D01*
X11379585Y-16028484D02*
X11379585Y-15895151D01*
X11379585Y-15914198D02*
X11389108Y-15904675D01*
X11389108Y-15904675D02*
X11408156Y-15895151D01*
X11408156Y-15895151D02*
X11436727Y-15895151D01*
X11436727Y-15895151D02*
X11455775Y-15904675D01*
X11455775Y-15904675D02*
X11465299Y-15923722D01*
X11465299Y-15923722D02*
X11465299Y-16028484D01*
X11465299Y-15923722D02*
X11474823Y-15904675D01*
X11474823Y-15904675D02*
X11493870Y-15895151D01*
X11493870Y-15895151D02*
X11522442Y-15895151D01*
X11522442Y-15895151D02*
X11541489Y-15904675D01*
X11541489Y-15904675D02*
X11551013Y-15923722D01*
X11551013Y-15923722D02*
X11551013Y-16028484D01*
X11941489Y-15818960D02*
X11770061Y-16076103D01*
X12198632Y-15828484D02*
X12217680Y-15828484D01*
X12217680Y-15828484D02*
X12236728Y-15838008D01*
X12236728Y-15838008D02*
X12246251Y-15847532D01*
X12246251Y-15847532D02*
X12255775Y-15866579D01*
X12255775Y-15866579D02*
X12265299Y-15904675D01*
X12265299Y-15904675D02*
X12265299Y-15952294D01*
X12265299Y-15952294D02*
X12255775Y-15990389D01*
X12255775Y-15990389D02*
X12246251Y-16009437D01*
X12246251Y-16009437D02*
X12236728Y-16018960D01*
X12236728Y-16018960D02*
X12217680Y-16028484D01*
X12217680Y-16028484D02*
X12198632Y-16028484D01*
X12198632Y-16028484D02*
X12179585Y-16018960D01*
X12179585Y-16018960D02*
X12170061Y-16009437D01*
X12170061Y-16009437D02*
X12160537Y-15990389D01*
X12160537Y-15990389D02*
X12151013Y-15952294D01*
X12151013Y-15952294D02*
X12151013Y-15904675D01*
X12151013Y-15904675D02*
X12160537Y-15866579D01*
X12160537Y-15866579D02*
X12170061Y-15847532D01*
X12170061Y-15847532D02*
X12179585Y-15838008D01*
X12179585Y-15838008D02*
X12198632Y-15828484D01*
X12351013Y-16009437D02*
X12360537Y-16018960D01*
X12360537Y-16018960D02*
X12351013Y-16028484D01*
X12351013Y-16028484D02*
X12341489Y-16018960D01*
X12341489Y-16018960D02*
X12351013Y-16009437D01*
X12351013Y-16009437D02*
X12351013Y-16028484D01*
X12484347Y-15828484D02*
X12503394Y-15828484D01*
X12503394Y-15828484D02*
X12522442Y-15838008D01*
X12522442Y-15838008D02*
X12531966Y-15847532D01*
X12531966Y-15847532D02*
X12541489Y-15866579D01*
X12541489Y-15866579D02*
X12551013Y-15904675D01*
X12551013Y-15904675D02*
X12551013Y-15952294D01*
X12551013Y-15952294D02*
X12541489Y-15990389D01*
X12541489Y-15990389D02*
X12531966Y-16009437D01*
X12531966Y-16009437D02*
X12522442Y-16018960D01*
X12522442Y-16018960D02*
X12503394Y-16028484D01*
X12503394Y-16028484D02*
X12484347Y-16028484D01*
X12484347Y-16028484D02*
X12465299Y-16018960D01*
X12465299Y-16018960D02*
X12455775Y-16009437D01*
X12455775Y-16009437D02*
X12446251Y-15990389D01*
X12446251Y-15990389D02*
X12436728Y-15952294D01*
X12436728Y-15952294D02*
X12436728Y-15904675D01*
X12436728Y-15904675D02*
X12446251Y-15866579D01*
X12446251Y-15866579D02*
X12455775Y-15847532D01*
X12455775Y-15847532D02*
X12465299Y-15838008D01*
X12465299Y-15838008D02*
X12484347Y-15828484D01*
X12722442Y-15895151D02*
X12722442Y-16028484D01*
X12674823Y-15818960D02*
X12627204Y-15961818D01*
X12627204Y-15961818D02*
X12751013Y-15961818D01*
X12808156Y-15828484D02*
X12931966Y-15828484D01*
X12931966Y-15828484D02*
X12865299Y-15904675D01*
X12865299Y-15904675D02*
X12893870Y-15904675D01*
X12893870Y-15904675D02*
X12912918Y-15914198D01*
X12912918Y-15914198D02*
X12922442Y-15923722D01*
X12922442Y-15923722D02*
X12931966Y-15942770D01*
X12931966Y-15942770D02*
X12931966Y-15990389D01*
X12931966Y-15990389D02*
X12922442Y-16009437D01*
X12922442Y-16009437D02*
X12912918Y-16018960D01*
X12912918Y-16018960D02*
X12893870Y-16028484D01*
X12893870Y-16028484D02*
X12836728Y-16028484D01*
X12836728Y-16028484D02*
X12817680Y-16018960D01*
X12817680Y-16018960D02*
X12808156Y-16009437D01*
X13055775Y-15828484D02*
X13074823Y-15828484D01*
X13074823Y-15828484D02*
X13093870Y-15838008D01*
X13093870Y-15838008D02*
X13103394Y-15847532D01*
X13103394Y-15847532D02*
X13112918Y-15866579D01*
X13112918Y-15866579D02*
X13122442Y-15904675D01*
X13122442Y-15904675D02*
X13122442Y-15952294D01*
X13122442Y-15952294D02*
X13112918Y-15990389D01*
X13112918Y-15990389D02*
X13103394Y-16009437D01*
X13103394Y-16009437D02*
X13093870Y-16018960D01*
X13093870Y-16018960D02*
X13074823Y-16028484D01*
X13074823Y-16028484D02*
X13055775Y-16028484D01*
X13055775Y-16028484D02*
X13036728Y-16018960D01*
X13036728Y-16018960D02*
X13027204Y-16009437D01*
X13027204Y-16009437D02*
X13017680Y-15990389D01*
X13017680Y-15990389D02*
X13008156Y-15952294D01*
X13008156Y-15952294D02*
X13008156Y-15904675D01*
X13008156Y-15904675D02*
X13017680Y-15866579D01*
X13017680Y-15866579D02*
X13027204Y-15847532D01*
X13027204Y-15847532D02*
X13036728Y-15838008D01*
X13036728Y-15838008D02*
X13055775Y-15828484D01*
X13198632Y-15828484D02*
X13198632Y-15866579D01*
X13274823Y-15828484D02*
X13274823Y-15866579D01*
X13570061Y-16104675D02*
X13560537Y-16095151D01*
X13560537Y-16095151D02*
X13541490Y-16066579D01*
X13541490Y-16066579D02*
X13531966Y-16047532D01*
X13531966Y-16047532D02*
X13522442Y-16018960D01*
X13522442Y-16018960D02*
X13512918Y-15971341D01*
X13512918Y-15971341D02*
X13512918Y-15933246D01*
X13512918Y-15933246D02*
X13522442Y-15885627D01*
X13522442Y-15885627D02*
X13531966Y-15857056D01*
X13531966Y-15857056D02*
X13541490Y-15838008D01*
X13541490Y-15838008D02*
X13560537Y-15809437D01*
X13560537Y-15809437D02*
X13570061Y-15799913D01*
X13751013Y-16028484D02*
X13636728Y-16028484D01*
X13693870Y-16028484D02*
X13693870Y-15828484D01*
X13693870Y-15828484D02*
X13674823Y-15857056D01*
X13674823Y-15857056D02*
X13655775Y-15876103D01*
X13655775Y-15876103D02*
X13636728Y-15885627D01*
X13865299Y-15914198D02*
X13846251Y-15904675D01*
X13846251Y-15904675D02*
X13836728Y-15895151D01*
X13836728Y-15895151D02*
X13827204Y-15876103D01*
X13827204Y-15876103D02*
X13827204Y-15866579D01*
X13827204Y-15866579D02*
X13836728Y-15847532D01*
X13836728Y-15847532D02*
X13846251Y-15838008D01*
X13846251Y-15838008D02*
X13865299Y-15828484D01*
X13865299Y-15828484D02*
X13903394Y-15828484D01*
X13903394Y-15828484D02*
X13922442Y-15838008D01*
X13922442Y-15838008D02*
X13931966Y-15847532D01*
X13931966Y-15847532D02*
X13941490Y-15866579D01*
X13941490Y-15866579D02*
X13941490Y-15876103D01*
X13941490Y-15876103D02*
X13931966Y-15895151D01*
X13931966Y-15895151D02*
X13922442Y-15904675D01*
X13922442Y-15904675D02*
X13903394Y-15914198D01*
X13903394Y-15914198D02*
X13865299Y-15914198D01*
X13865299Y-15914198D02*
X13846251Y-15923722D01*
X13846251Y-15923722D02*
X13836728Y-15933246D01*
X13836728Y-15933246D02*
X13827204Y-15952294D01*
X13827204Y-15952294D02*
X13827204Y-15990389D01*
X13827204Y-15990389D02*
X13836728Y-16009437D01*
X13836728Y-16009437D02*
X13846251Y-16018960D01*
X13846251Y-16018960D02*
X13865299Y-16028484D01*
X13865299Y-16028484D02*
X13903394Y-16028484D01*
X13903394Y-16028484D02*
X13922442Y-16018960D01*
X13922442Y-16018960D02*
X13931966Y-16009437D01*
X13931966Y-16009437D02*
X13941490Y-15990389D01*
X13941490Y-15990389D02*
X13941490Y-15952294D01*
X13941490Y-15952294D02*
X13931966Y-15933246D01*
X13931966Y-15933246D02*
X13922442Y-15923722D01*
X13922442Y-15923722D02*
X13903394Y-15914198D01*
X14179585Y-16028484D02*
X14179585Y-15828484D01*
X14265299Y-16028484D02*
X14265299Y-15923722D01*
X14265299Y-15923722D02*
X14255775Y-15904675D01*
X14255775Y-15904675D02*
X14236728Y-15895151D01*
X14236728Y-15895151D02*
X14208156Y-15895151D01*
X14208156Y-15895151D02*
X14189109Y-15904675D01*
X14189109Y-15904675D02*
X14179585Y-15914198D01*
X14389109Y-16028484D02*
X14370061Y-16018960D01*
X14370061Y-16018960D02*
X14360537Y-16009437D01*
X14360537Y-16009437D02*
X14351013Y-15990389D01*
X14351013Y-15990389D02*
X14351013Y-15933246D01*
X14351013Y-15933246D02*
X14360537Y-15914198D01*
X14360537Y-15914198D02*
X14370061Y-15904675D01*
X14370061Y-15904675D02*
X14389109Y-15895151D01*
X14389109Y-15895151D02*
X14417680Y-15895151D01*
X14417680Y-15895151D02*
X14436728Y-15904675D01*
X14436728Y-15904675D02*
X14446252Y-15914198D01*
X14446252Y-15914198D02*
X14455775Y-15933246D01*
X14455775Y-15933246D02*
X14455775Y-15990389D01*
X14455775Y-15990389D02*
X14446252Y-16009437D01*
X14446252Y-16009437D02*
X14436728Y-16018960D01*
X14436728Y-16018960D02*
X14417680Y-16028484D01*
X14417680Y-16028484D02*
X14389109Y-16028484D01*
X14570061Y-16028484D02*
X14551013Y-16018960D01*
X14551013Y-16018960D02*
X14541490Y-15999913D01*
X14541490Y-15999913D02*
X14541490Y-15828484D01*
X14722442Y-16018960D02*
X14703394Y-16028484D01*
X14703394Y-16028484D02*
X14665299Y-16028484D01*
X14665299Y-16028484D02*
X14646252Y-16018960D01*
X14646252Y-16018960D02*
X14636728Y-15999913D01*
X14636728Y-15999913D02*
X14636728Y-15923722D01*
X14636728Y-15923722D02*
X14646252Y-15904675D01*
X14646252Y-15904675D02*
X14665299Y-15895151D01*
X14665299Y-15895151D02*
X14703394Y-15895151D01*
X14703394Y-15895151D02*
X14722442Y-15904675D01*
X14722442Y-15904675D02*
X14731966Y-15923722D01*
X14731966Y-15923722D02*
X14731966Y-15942770D01*
X14731966Y-15942770D02*
X14636728Y-15961818D01*
X14808156Y-16018960D02*
X14827204Y-16028484D01*
X14827204Y-16028484D02*
X14865299Y-16028484D01*
X14865299Y-16028484D02*
X14884347Y-16018960D01*
X14884347Y-16018960D02*
X14893871Y-15999913D01*
X14893871Y-15999913D02*
X14893871Y-15990389D01*
X14893871Y-15990389D02*
X14884347Y-15971341D01*
X14884347Y-15971341D02*
X14865299Y-15961818D01*
X14865299Y-15961818D02*
X14836728Y-15961818D01*
X14836728Y-15961818D02*
X14817680Y-15952294D01*
X14817680Y-15952294D02*
X14808156Y-15933246D01*
X14808156Y-15933246D02*
X14808156Y-15923722D01*
X14808156Y-15923722D02*
X14817680Y-15904675D01*
X14817680Y-15904675D02*
X14836728Y-15895151D01*
X14836728Y-15895151D02*
X14865299Y-15895151D01*
X14865299Y-15895151D02*
X14884347Y-15904675D01*
X14960537Y-16104675D02*
X14970061Y-16095151D01*
X14970061Y-16095151D02*
X14989109Y-16066579D01*
X14989109Y-16066579D02*
X14998633Y-16047532D01*
X14998633Y-16047532D02*
X15008156Y-16018960D01*
X15008156Y-16018960D02*
X15017680Y-15971341D01*
X15017680Y-15971341D02*
X15017680Y-15933246D01*
X15017680Y-15933246D02*
X15008156Y-15885627D01*
X15008156Y-15885627D02*
X14998633Y-15857056D01*
X14998633Y-15857056D02*
X14989109Y-15838008D01*
X14989109Y-15838008D02*
X14970061Y-15809437D01*
X14970061Y-15809437D02*
X14960537Y-15799913D01*
D15*
X9932498Y-16263500D02*
X9994998Y-16201000D01*
X9932498Y-16138500D01*
X9869998Y-16201000D01*
X9932498Y-16263500D01*
D11*
X10360537Y-16292484D02*
X10246251Y-16292484D01*
X10303394Y-16292484D02*
X10303394Y-16092484D01*
X10303394Y-16092484D02*
X10284346Y-16121056D01*
X10284346Y-16121056D02*
X10265299Y-16140103D01*
X10265299Y-16140103D02*
X10246251Y-16149627D01*
X10446251Y-16273437D02*
X10455775Y-16282960D01*
X10455775Y-16282960D02*
X10446251Y-16292484D01*
X10446251Y-16292484D02*
X10436727Y-16282960D01*
X10436727Y-16282960D02*
X10446251Y-16273437D01*
X10446251Y-16273437D02*
X10446251Y-16292484D01*
X10531966Y-16111532D02*
X10541489Y-16102008D01*
X10541489Y-16102008D02*
X10560537Y-16092484D01*
X10560537Y-16092484D02*
X10608156Y-16092484D01*
X10608156Y-16092484D02*
X10627204Y-16102008D01*
X10627204Y-16102008D02*
X10636727Y-16111532D01*
X10636727Y-16111532D02*
X10646251Y-16130579D01*
X10646251Y-16130579D02*
X10646251Y-16149627D01*
X10646251Y-16149627D02*
X10636727Y-16178198D01*
X10636727Y-16178198D02*
X10522442Y-16292484D01*
X10522442Y-16292484D02*
X10646251Y-16292484D01*
X10827204Y-16092484D02*
X10731966Y-16092484D01*
X10731966Y-16092484D02*
X10722442Y-16187722D01*
X10722442Y-16187722D02*
X10731966Y-16178198D01*
X10731966Y-16178198D02*
X10751013Y-16168675D01*
X10751013Y-16168675D02*
X10798632Y-16168675D01*
X10798632Y-16168675D02*
X10817680Y-16178198D01*
X10817680Y-16178198D02*
X10827204Y-16187722D01*
X10827204Y-16187722D02*
X10836727Y-16206770D01*
X10836727Y-16206770D02*
X10836727Y-16254389D01*
X10836727Y-16254389D02*
X10827204Y-16273437D01*
X10827204Y-16273437D02*
X10817680Y-16282960D01*
X10817680Y-16282960D02*
X10798632Y-16292484D01*
X10798632Y-16292484D02*
X10751013Y-16292484D01*
X10751013Y-16292484D02*
X10731966Y-16282960D01*
X10731966Y-16282960D02*
X10722442Y-16273437D01*
X10960537Y-16092484D02*
X10979585Y-16092484D01*
X10979585Y-16092484D02*
X10998632Y-16102008D01*
X10998632Y-16102008D02*
X11008156Y-16111532D01*
X11008156Y-16111532D02*
X11017680Y-16130579D01*
X11017680Y-16130579D02*
X11027204Y-16168675D01*
X11027204Y-16168675D02*
X11027204Y-16216294D01*
X11027204Y-16216294D02*
X11017680Y-16254389D01*
X11017680Y-16254389D02*
X11008156Y-16273437D01*
X11008156Y-16273437D02*
X10998632Y-16282960D01*
X10998632Y-16282960D02*
X10979585Y-16292484D01*
X10979585Y-16292484D02*
X10960537Y-16292484D01*
X10960537Y-16292484D02*
X10941489Y-16282960D01*
X10941489Y-16282960D02*
X10931966Y-16273437D01*
X10931966Y-16273437D02*
X10922442Y-16254389D01*
X10922442Y-16254389D02*
X10912918Y-16216294D01*
X10912918Y-16216294D02*
X10912918Y-16168675D01*
X10912918Y-16168675D02*
X10922442Y-16130579D01*
X10922442Y-16130579D02*
X10931966Y-16111532D01*
X10931966Y-16111532D02*
X10941489Y-16102008D01*
X10941489Y-16102008D02*
X10960537Y-16092484D01*
X11112918Y-16292484D02*
X11112918Y-16159151D01*
X11112918Y-16178198D02*
X11122442Y-16168675D01*
X11122442Y-16168675D02*
X11141489Y-16159151D01*
X11141489Y-16159151D02*
X11170061Y-16159151D01*
X11170061Y-16159151D02*
X11189108Y-16168675D01*
X11189108Y-16168675D02*
X11198632Y-16187722D01*
X11198632Y-16187722D02*
X11198632Y-16292484D01*
X11198632Y-16187722D02*
X11208156Y-16168675D01*
X11208156Y-16168675D02*
X11227204Y-16159151D01*
X11227204Y-16159151D02*
X11255775Y-16159151D01*
X11255775Y-16159151D02*
X11274823Y-16168675D01*
X11274823Y-16168675D02*
X11284346Y-16187722D01*
X11284346Y-16187722D02*
X11284346Y-16292484D01*
X11379585Y-16292484D02*
X11379585Y-16159151D01*
X11379585Y-16178198D02*
X11389108Y-16168675D01*
X11389108Y-16168675D02*
X11408156Y-16159151D01*
X11408156Y-16159151D02*
X11436727Y-16159151D01*
X11436727Y-16159151D02*
X11455775Y-16168675D01*
X11455775Y-16168675D02*
X11465299Y-16187722D01*
X11465299Y-16187722D02*
X11465299Y-16292484D01*
X11465299Y-16187722D02*
X11474823Y-16168675D01*
X11474823Y-16168675D02*
X11493870Y-16159151D01*
X11493870Y-16159151D02*
X11522442Y-16159151D01*
X11522442Y-16159151D02*
X11541489Y-16168675D01*
X11541489Y-16168675D02*
X11551013Y-16187722D01*
X11551013Y-16187722D02*
X11551013Y-16292484D01*
X11941489Y-16082960D02*
X11770061Y-16340103D01*
X12198632Y-16092484D02*
X12217680Y-16092484D01*
X12217680Y-16092484D02*
X12236728Y-16102008D01*
X12236728Y-16102008D02*
X12246251Y-16111532D01*
X12246251Y-16111532D02*
X12255775Y-16130579D01*
X12255775Y-16130579D02*
X12265299Y-16168675D01*
X12265299Y-16168675D02*
X12265299Y-16216294D01*
X12265299Y-16216294D02*
X12255775Y-16254389D01*
X12255775Y-16254389D02*
X12246251Y-16273437D01*
X12246251Y-16273437D02*
X12236728Y-16282960D01*
X12236728Y-16282960D02*
X12217680Y-16292484D01*
X12217680Y-16292484D02*
X12198632Y-16292484D01*
X12198632Y-16292484D02*
X12179585Y-16282960D01*
X12179585Y-16282960D02*
X12170061Y-16273437D01*
X12170061Y-16273437D02*
X12160537Y-16254389D01*
X12160537Y-16254389D02*
X12151013Y-16216294D01*
X12151013Y-16216294D02*
X12151013Y-16168675D01*
X12151013Y-16168675D02*
X12160537Y-16130579D01*
X12160537Y-16130579D02*
X12170061Y-16111532D01*
X12170061Y-16111532D02*
X12179585Y-16102008D01*
X12179585Y-16102008D02*
X12198632Y-16092484D01*
X12351013Y-16273437D02*
X12360537Y-16282960D01*
X12360537Y-16282960D02*
X12351013Y-16292484D01*
X12351013Y-16292484D02*
X12341489Y-16282960D01*
X12341489Y-16282960D02*
X12351013Y-16273437D01*
X12351013Y-16273437D02*
X12351013Y-16292484D01*
X12484347Y-16092484D02*
X12503394Y-16092484D01*
X12503394Y-16092484D02*
X12522442Y-16102008D01*
X12522442Y-16102008D02*
X12531966Y-16111532D01*
X12531966Y-16111532D02*
X12541489Y-16130579D01*
X12541489Y-16130579D02*
X12551013Y-16168675D01*
X12551013Y-16168675D02*
X12551013Y-16216294D01*
X12551013Y-16216294D02*
X12541489Y-16254389D01*
X12541489Y-16254389D02*
X12531966Y-16273437D01*
X12531966Y-16273437D02*
X12522442Y-16282960D01*
X12522442Y-16282960D02*
X12503394Y-16292484D01*
X12503394Y-16292484D02*
X12484347Y-16292484D01*
X12484347Y-16292484D02*
X12465299Y-16282960D01*
X12465299Y-16282960D02*
X12455775Y-16273437D01*
X12455775Y-16273437D02*
X12446251Y-16254389D01*
X12446251Y-16254389D02*
X12436728Y-16216294D01*
X12436728Y-16216294D02*
X12436728Y-16168675D01*
X12436728Y-16168675D02*
X12446251Y-16130579D01*
X12446251Y-16130579D02*
X12455775Y-16111532D01*
X12455775Y-16111532D02*
X12465299Y-16102008D01*
X12465299Y-16102008D02*
X12484347Y-16092484D01*
X12722442Y-16159151D02*
X12722442Y-16292484D01*
X12674823Y-16082960D02*
X12627204Y-16225818D01*
X12627204Y-16225818D02*
X12751013Y-16225818D01*
X12836728Y-16292484D02*
X12874823Y-16292484D01*
X12874823Y-16292484D02*
X12893870Y-16282960D01*
X12893870Y-16282960D02*
X12903394Y-16273437D01*
X12903394Y-16273437D02*
X12922442Y-16244865D01*
X12922442Y-16244865D02*
X12931966Y-16206770D01*
X12931966Y-16206770D02*
X12931966Y-16130579D01*
X12931966Y-16130579D02*
X12922442Y-16111532D01*
X12922442Y-16111532D02*
X12912918Y-16102008D01*
X12912918Y-16102008D02*
X12893870Y-16092484D01*
X12893870Y-16092484D02*
X12855775Y-16092484D01*
X12855775Y-16092484D02*
X12836728Y-16102008D01*
X12836728Y-16102008D02*
X12827204Y-16111532D01*
X12827204Y-16111532D02*
X12817680Y-16130579D01*
X12817680Y-16130579D02*
X12817680Y-16178198D01*
X12817680Y-16178198D02*
X12827204Y-16197246D01*
X12827204Y-16197246D02*
X12836728Y-16206770D01*
X12836728Y-16206770D02*
X12855775Y-16216294D01*
X12855775Y-16216294D02*
X12893870Y-16216294D01*
X12893870Y-16216294D02*
X12912918Y-16206770D01*
X12912918Y-16206770D02*
X12922442Y-16197246D01*
X12922442Y-16197246D02*
X12931966Y-16178198D01*
X13008156Y-16111532D02*
X13017680Y-16102008D01*
X13017680Y-16102008D02*
X13036728Y-16092484D01*
X13036728Y-16092484D02*
X13084347Y-16092484D01*
X13084347Y-16092484D02*
X13103394Y-16102008D01*
X13103394Y-16102008D02*
X13112918Y-16111532D01*
X13112918Y-16111532D02*
X13122442Y-16130579D01*
X13122442Y-16130579D02*
X13122442Y-16149627D01*
X13122442Y-16149627D02*
X13112918Y-16178198D01*
X13112918Y-16178198D02*
X12998632Y-16292484D01*
X12998632Y-16292484D02*
X13122442Y-16292484D01*
X13198632Y-16092484D02*
X13198632Y-16130579D01*
X13274823Y-16092484D02*
X13274823Y-16130579D01*
X13570061Y-16368675D02*
X13560537Y-16359151D01*
X13560537Y-16359151D02*
X13541490Y-16330579D01*
X13541490Y-16330579D02*
X13531966Y-16311532D01*
X13531966Y-16311532D02*
X13522442Y-16282960D01*
X13522442Y-16282960D02*
X13512918Y-16235341D01*
X13512918Y-16235341D02*
X13512918Y-16197246D01*
X13512918Y-16197246D02*
X13522442Y-16149627D01*
X13522442Y-16149627D02*
X13531966Y-16121056D01*
X13531966Y-16121056D02*
X13541490Y-16102008D01*
X13541490Y-16102008D02*
X13560537Y-16073437D01*
X13560537Y-16073437D02*
X13570061Y-16063913D01*
X13751013Y-16292484D02*
X13636728Y-16292484D01*
X13693870Y-16292484D02*
X13693870Y-16092484D01*
X13693870Y-16092484D02*
X13674823Y-16121056D01*
X13674823Y-16121056D02*
X13655775Y-16140103D01*
X13655775Y-16140103D02*
X13636728Y-16149627D01*
X13989109Y-16292484D02*
X13989109Y-16092484D01*
X14074823Y-16292484D02*
X14074823Y-16187722D01*
X14074823Y-16187722D02*
X14065299Y-16168675D01*
X14065299Y-16168675D02*
X14046252Y-16159151D01*
X14046252Y-16159151D02*
X14017680Y-16159151D01*
X14017680Y-16159151D02*
X13998632Y-16168675D01*
X13998632Y-16168675D02*
X13989109Y-16178198D01*
X14198632Y-16292484D02*
X14179585Y-16282960D01*
X14179585Y-16282960D02*
X14170061Y-16273437D01*
X14170061Y-16273437D02*
X14160537Y-16254389D01*
X14160537Y-16254389D02*
X14160537Y-16197246D01*
X14160537Y-16197246D02*
X14170061Y-16178198D01*
X14170061Y-16178198D02*
X14179585Y-16168675D01*
X14179585Y-16168675D02*
X14198632Y-16159151D01*
X14198632Y-16159151D02*
X14227204Y-16159151D01*
X14227204Y-16159151D02*
X14246252Y-16168675D01*
X14246252Y-16168675D02*
X14255775Y-16178198D01*
X14255775Y-16178198D02*
X14265299Y-16197246D01*
X14265299Y-16197246D02*
X14265299Y-16254389D01*
X14265299Y-16254389D02*
X14255775Y-16273437D01*
X14255775Y-16273437D02*
X14246252Y-16282960D01*
X14246252Y-16282960D02*
X14227204Y-16292484D01*
X14227204Y-16292484D02*
X14198632Y-16292484D01*
X14379585Y-16292484D02*
X14360537Y-16282960D01*
X14360537Y-16282960D02*
X14351013Y-16263913D01*
X14351013Y-16263913D02*
X14351013Y-16092484D01*
X14531966Y-16282960D02*
X14512918Y-16292484D01*
X14512918Y-16292484D02*
X14474823Y-16292484D01*
X14474823Y-16292484D02*
X14455775Y-16282960D01*
X14455775Y-16282960D02*
X14446252Y-16263913D01*
X14446252Y-16263913D02*
X14446252Y-16187722D01*
X14446252Y-16187722D02*
X14455775Y-16168675D01*
X14455775Y-16168675D02*
X14474823Y-16159151D01*
X14474823Y-16159151D02*
X14512918Y-16159151D01*
X14512918Y-16159151D02*
X14531966Y-16168675D01*
X14531966Y-16168675D02*
X14541490Y-16187722D01*
X14541490Y-16187722D02*
X14541490Y-16206770D01*
X14541490Y-16206770D02*
X14446252Y-16225818D01*
X14608156Y-16368675D02*
X14617680Y-16359151D01*
X14617680Y-16359151D02*
X14636728Y-16330579D01*
X14636728Y-16330579D02*
X14646252Y-16311532D01*
X14646252Y-16311532D02*
X14655775Y-16282960D01*
X14655775Y-16282960D02*
X14665299Y-16235341D01*
X14665299Y-16235341D02*
X14665299Y-16197246D01*
X14665299Y-16197246D02*
X14655775Y-16149627D01*
X14655775Y-16149627D02*
X14646252Y-16121056D01*
X14646252Y-16121056D02*
X14636728Y-16102008D01*
X14636728Y-16102008D02*
X14617680Y-16073437D01*
X14617680Y-16073437D02*
X14608156Y-16063913D01*
X9794998Y-16365000D02*
X9994998Y-16565000D01*
X9994998Y-16365000D02*
X9794998Y-16565000D01*
X9994998Y-16465000D02*
G75*
G03*
X9994998Y-16465000I-100000J0D01*
G01*
X10236727Y-16356484D02*
X10360537Y-16356484D01*
X10360537Y-16356484D02*
X10293870Y-16432675D01*
X10293870Y-16432675D02*
X10322442Y-16432675D01*
X10322442Y-16432675D02*
X10341489Y-16442198D01*
X10341489Y-16442198D02*
X10351013Y-16451722D01*
X10351013Y-16451722D02*
X10360537Y-16470770D01*
X10360537Y-16470770D02*
X10360537Y-16518389D01*
X10360537Y-16518389D02*
X10351013Y-16537437D01*
X10351013Y-16537437D02*
X10341489Y-16546960D01*
X10341489Y-16546960D02*
X10322442Y-16556484D01*
X10322442Y-16556484D02*
X10265299Y-16556484D01*
X10265299Y-16556484D02*
X10246251Y-16546960D01*
X10246251Y-16546960D02*
X10236727Y-16537437D01*
X10446251Y-16537437D02*
X10455775Y-16546960D01*
X10455775Y-16546960D02*
X10446251Y-16556484D01*
X10446251Y-16556484D02*
X10436727Y-16546960D01*
X10436727Y-16546960D02*
X10446251Y-16537437D01*
X10446251Y-16537437D02*
X10446251Y-16556484D01*
X10531966Y-16375532D02*
X10541489Y-16366008D01*
X10541489Y-16366008D02*
X10560537Y-16356484D01*
X10560537Y-16356484D02*
X10608156Y-16356484D01*
X10608156Y-16356484D02*
X10627204Y-16366008D01*
X10627204Y-16366008D02*
X10636727Y-16375532D01*
X10636727Y-16375532D02*
X10646251Y-16394579D01*
X10646251Y-16394579D02*
X10646251Y-16413627D01*
X10646251Y-16413627D02*
X10636727Y-16442198D01*
X10636727Y-16442198D02*
X10522442Y-16556484D01*
X10522442Y-16556484D02*
X10646251Y-16556484D01*
X10770061Y-16356484D02*
X10789108Y-16356484D01*
X10789108Y-16356484D02*
X10808156Y-16366008D01*
X10808156Y-16366008D02*
X10817680Y-16375532D01*
X10817680Y-16375532D02*
X10827204Y-16394579D01*
X10827204Y-16394579D02*
X10836727Y-16432675D01*
X10836727Y-16432675D02*
X10836727Y-16480294D01*
X10836727Y-16480294D02*
X10827204Y-16518389D01*
X10827204Y-16518389D02*
X10817680Y-16537437D01*
X10817680Y-16537437D02*
X10808156Y-16546960D01*
X10808156Y-16546960D02*
X10789108Y-16556484D01*
X10789108Y-16556484D02*
X10770061Y-16556484D01*
X10770061Y-16556484D02*
X10751013Y-16546960D01*
X10751013Y-16546960D02*
X10741489Y-16537437D01*
X10741489Y-16537437D02*
X10731966Y-16518389D01*
X10731966Y-16518389D02*
X10722442Y-16480294D01*
X10722442Y-16480294D02*
X10722442Y-16432675D01*
X10722442Y-16432675D02*
X10731966Y-16394579D01*
X10731966Y-16394579D02*
X10741489Y-16375532D01*
X10741489Y-16375532D02*
X10751013Y-16366008D01*
X10751013Y-16366008D02*
X10770061Y-16356484D01*
X10960537Y-16356484D02*
X10979585Y-16356484D01*
X10979585Y-16356484D02*
X10998632Y-16366008D01*
X10998632Y-16366008D02*
X11008156Y-16375532D01*
X11008156Y-16375532D02*
X11017680Y-16394579D01*
X11017680Y-16394579D02*
X11027204Y-16432675D01*
X11027204Y-16432675D02*
X11027204Y-16480294D01*
X11027204Y-16480294D02*
X11017680Y-16518389D01*
X11017680Y-16518389D02*
X11008156Y-16537437D01*
X11008156Y-16537437D02*
X10998632Y-16546960D01*
X10998632Y-16546960D02*
X10979585Y-16556484D01*
X10979585Y-16556484D02*
X10960537Y-16556484D01*
X10960537Y-16556484D02*
X10941489Y-16546960D01*
X10941489Y-16546960D02*
X10931966Y-16537437D01*
X10931966Y-16537437D02*
X10922442Y-16518389D01*
X10922442Y-16518389D02*
X10912918Y-16480294D01*
X10912918Y-16480294D02*
X10912918Y-16432675D01*
X10912918Y-16432675D02*
X10922442Y-16394579D01*
X10922442Y-16394579D02*
X10931966Y-16375532D01*
X10931966Y-16375532D02*
X10941489Y-16366008D01*
X10941489Y-16366008D02*
X10960537Y-16356484D01*
X11112918Y-16556484D02*
X11112918Y-16423151D01*
X11112918Y-16442198D02*
X11122442Y-16432675D01*
X11122442Y-16432675D02*
X11141489Y-16423151D01*
X11141489Y-16423151D02*
X11170061Y-16423151D01*
X11170061Y-16423151D02*
X11189108Y-16432675D01*
X11189108Y-16432675D02*
X11198632Y-16451722D01*
X11198632Y-16451722D02*
X11198632Y-16556484D01*
X11198632Y-16451722D02*
X11208156Y-16432675D01*
X11208156Y-16432675D02*
X11227204Y-16423151D01*
X11227204Y-16423151D02*
X11255775Y-16423151D01*
X11255775Y-16423151D02*
X11274823Y-16432675D01*
X11274823Y-16432675D02*
X11284346Y-16451722D01*
X11284346Y-16451722D02*
X11284346Y-16556484D01*
X11379585Y-16556484D02*
X11379585Y-16423151D01*
X11379585Y-16442198D02*
X11389108Y-16432675D01*
X11389108Y-16432675D02*
X11408156Y-16423151D01*
X11408156Y-16423151D02*
X11436727Y-16423151D01*
X11436727Y-16423151D02*
X11455775Y-16432675D01*
X11455775Y-16432675D02*
X11465299Y-16451722D01*
X11465299Y-16451722D02*
X11465299Y-16556484D01*
X11465299Y-16451722D02*
X11474823Y-16432675D01*
X11474823Y-16432675D02*
X11493870Y-16423151D01*
X11493870Y-16423151D02*
X11522442Y-16423151D01*
X11522442Y-16423151D02*
X11541489Y-16432675D01*
X11541489Y-16432675D02*
X11551013Y-16451722D01*
X11551013Y-16451722D02*
X11551013Y-16556484D01*
X11941489Y-16346960D02*
X11770061Y-16604103D01*
X12198632Y-16356484D02*
X12217680Y-16356484D01*
X12217680Y-16356484D02*
X12236728Y-16366008D01*
X12236728Y-16366008D02*
X12246251Y-16375532D01*
X12246251Y-16375532D02*
X12255775Y-16394579D01*
X12255775Y-16394579D02*
X12265299Y-16432675D01*
X12265299Y-16432675D02*
X12265299Y-16480294D01*
X12265299Y-16480294D02*
X12255775Y-16518389D01*
X12255775Y-16518389D02*
X12246251Y-16537437D01*
X12246251Y-16537437D02*
X12236728Y-16546960D01*
X12236728Y-16546960D02*
X12217680Y-16556484D01*
X12217680Y-16556484D02*
X12198632Y-16556484D01*
X12198632Y-16556484D02*
X12179585Y-16546960D01*
X12179585Y-16546960D02*
X12170061Y-16537437D01*
X12170061Y-16537437D02*
X12160537Y-16518389D01*
X12160537Y-16518389D02*
X12151013Y-16480294D01*
X12151013Y-16480294D02*
X12151013Y-16432675D01*
X12151013Y-16432675D02*
X12160537Y-16394579D01*
X12160537Y-16394579D02*
X12170061Y-16375532D01*
X12170061Y-16375532D02*
X12179585Y-16366008D01*
X12179585Y-16366008D02*
X12198632Y-16356484D01*
X12351013Y-16537437D02*
X12360537Y-16546960D01*
X12360537Y-16546960D02*
X12351013Y-16556484D01*
X12351013Y-16556484D02*
X12341489Y-16546960D01*
X12341489Y-16546960D02*
X12351013Y-16537437D01*
X12351013Y-16537437D02*
X12351013Y-16556484D01*
X12551013Y-16556484D02*
X12436728Y-16556484D01*
X12493870Y-16556484D02*
X12493870Y-16356484D01*
X12493870Y-16356484D02*
X12474823Y-16385056D01*
X12474823Y-16385056D02*
X12455775Y-16404103D01*
X12455775Y-16404103D02*
X12436728Y-16413627D01*
X12627204Y-16375532D02*
X12636728Y-16366008D01*
X12636728Y-16366008D02*
X12655775Y-16356484D01*
X12655775Y-16356484D02*
X12703394Y-16356484D01*
X12703394Y-16356484D02*
X12722442Y-16366008D01*
X12722442Y-16366008D02*
X12731966Y-16375532D01*
X12731966Y-16375532D02*
X12741489Y-16394579D01*
X12741489Y-16394579D02*
X12741489Y-16413627D01*
X12741489Y-16413627D02*
X12731966Y-16442198D01*
X12731966Y-16442198D02*
X12617680Y-16556484D01*
X12617680Y-16556484D02*
X12741489Y-16556484D01*
X12912918Y-16356484D02*
X12874823Y-16356484D01*
X12874823Y-16356484D02*
X12855775Y-16366008D01*
X12855775Y-16366008D02*
X12846251Y-16375532D01*
X12846251Y-16375532D02*
X12827204Y-16404103D01*
X12827204Y-16404103D02*
X12817680Y-16442198D01*
X12817680Y-16442198D02*
X12817680Y-16518389D01*
X12817680Y-16518389D02*
X12827204Y-16537437D01*
X12827204Y-16537437D02*
X12836728Y-16546960D01*
X12836728Y-16546960D02*
X12855775Y-16556484D01*
X12855775Y-16556484D02*
X12893870Y-16556484D01*
X12893870Y-16556484D02*
X12912918Y-16546960D01*
X12912918Y-16546960D02*
X12922442Y-16537437D01*
X12922442Y-16537437D02*
X12931966Y-16518389D01*
X12931966Y-16518389D02*
X12931966Y-16470770D01*
X12931966Y-16470770D02*
X12922442Y-16451722D01*
X12922442Y-16451722D02*
X12912918Y-16442198D01*
X12912918Y-16442198D02*
X12893870Y-16432675D01*
X12893870Y-16432675D02*
X12855775Y-16432675D01*
X12855775Y-16432675D02*
X12836728Y-16442198D01*
X12836728Y-16442198D02*
X12827204Y-16451722D01*
X12827204Y-16451722D02*
X12817680Y-16470770D01*
X13055775Y-16356484D02*
X13074823Y-16356484D01*
X13074823Y-16356484D02*
X13093870Y-16366008D01*
X13093870Y-16366008D02*
X13103394Y-16375532D01*
X13103394Y-16375532D02*
X13112918Y-16394579D01*
X13112918Y-16394579D02*
X13122442Y-16432675D01*
X13122442Y-16432675D02*
X13122442Y-16480294D01*
X13122442Y-16480294D02*
X13112918Y-16518389D01*
X13112918Y-16518389D02*
X13103394Y-16537437D01*
X13103394Y-16537437D02*
X13093870Y-16546960D01*
X13093870Y-16546960D02*
X13074823Y-16556484D01*
X13074823Y-16556484D02*
X13055775Y-16556484D01*
X13055775Y-16556484D02*
X13036728Y-16546960D01*
X13036728Y-16546960D02*
X13027204Y-16537437D01*
X13027204Y-16537437D02*
X13017680Y-16518389D01*
X13017680Y-16518389D02*
X13008156Y-16480294D01*
X13008156Y-16480294D02*
X13008156Y-16432675D01*
X13008156Y-16432675D02*
X13017680Y-16394579D01*
X13017680Y-16394579D02*
X13027204Y-16375532D01*
X13027204Y-16375532D02*
X13036728Y-16366008D01*
X13036728Y-16366008D02*
X13055775Y-16356484D01*
X13198632Y-16356484D02*
X13198632Y-16394579D01*
X13274823Y-16356484D02*
X13274823Y-16394579D01*
X13570061Y-16632675D02*
X13560537Y-16623151D01*
X13560537Y-16623151D02*
X13541490Y-16594579D01*
X13541490Y-16594579D02*
X13531966Y-16575532D01*
X13531966Y-16575532D02*
X13522442Y-16546960D01*
X13522442Y-16546960D02*
X13512918Y-16499341D01*
X13512918Y-16499341D02*
X13512918Y-16461246D01*
X13512918Y-16461246D02*
X13522442Y-16413627D01*
X13522442Y-16413627D02*
X13531966Y-16385056D01*
X13531966Y-16385056D02*
X13541490Y-16366008D01*
X13541490Y-16366008D02*
X13560537Y-16337437D01*
X13560537Y-16337437D02*
X13570061Y-16327913D01*
X13731966Y-16423151D02*
X13731966Y-16556484D01*
X13684347Y-16346960D02*
X13636728Y-16489818D01*
X13636728Y-16489818D02*
X13760537Y-16489818D01*
X13989109Y-16556484D02*
X13989109Y-16356484D01*
X14074823Y-16556484D02*
X14074823Y-16451722D01*
X14074823Y-16451722D02*
X14065299Y-16432675D01*
X14065299Y-16432675D02*
X14046252Y-16423151D01*
X14046252Y-16423151D02*
X14017680Y-16423151D01*
X14017680Y-16423151D02*
X13998632Y-16432675D01*
X13998632Y-16432675D02*
X13989109Y-16442198D01*
X14198632Y-16556484D02*
X14179585Y-16546960D01*
X14179585Y-16546960D02*
X14170061Y-16537437D01*
X14170061Y-16537437D02*
X14160537Y-16518389D01*
X14160537Y-16518389D02*
X14160537Y-16461246D01*
X14160537Y-16461246D02*
X14170061Y-16442198D01*
X14170061Y-16442198D02*
X14179585Y-16432675D01*
X14179585Y-16432675D02*
X14198632Y-16423151D01*
X14198632Y-16423151D02*
X14227204Y-16423151D01*
X14227204Y-16423151D02*
X14246252Y-16432675D01*
X14246252Y-16432675D02*
X14255775Y-16442198D01*
X14255775Y-16442198D02*
X14265299Y-16461246D01*
X14265299Y-16461246D02*
X14265299Y-16518389D01*
X14265299Y-16518389D02*
X14255775Y-16537437D01*
X14255775Y-16537437D02*
X14246252Y-16546960D01*
X14246252Y-16546960D02*
X14227204Y-16556484D01*
X14227204Y-16556484D02*
X14198632Y-16556484D01*
X14379585Y-16556484D02*
X14360537Y-16546960D01*
X14360537Y-16546960D02*
X14351013Y-16527913D01*
X14351013Y-16527913D02*
X14351013Y-16356484D01*
X14531966Y-16546960D02*
X14512918Y-16556484D01*
X14512918Y-16556484D02*
X14474823Y-16556484D01*
X14474823Y-16556484D02*
X14455775Y-16546960D01*
X14455775Y-16546960D02*
X14446252Y-16527913D01*
X14446252Y-16527913D02*
X14446252Y-16451722D01*
X14446252Y-16451722D02*
X14455775Y-16432675D01*
X14455775Y-16432675D02*
X14474823Y-16423151D01*
X14474823Y-16423151D02*
X14512918Y-16423151D01*
X14512918Y-16423151D02*
X14531966Y-16432675D01*
X14531966Y-16432675D02*
X14541490Y-16451722D01*
X14541490Y-16451722D02*
X14541490Y-16470770D01*
X14541490Y-16470770D02*
X14446252Y-16489818D01*
X14617680Y-16546960D02*
X14636728Y-16556484D01*
X14636728Y-16556484D02*
X14674823Y-16556484D01*
X14674823Y-16556484D02*
X14693871Y-16546960D01*
X14693871Y-16546960D02*
X14703394Y-16527913D01*
X14703394Y-16527913D02*
X14703394Y-16518389D01*
X14703394Y-16518389D02*
X14693871Y-16499341D01*
X14693871Y-16499341D02*
X14674823Y-16489818D01*
X14674823Y-16489818D02*
X14646252Y-16489818D01*
X14646252Y-16489818D02*
X14627204Y-16480294D01*
X14627204Y-16480294D02*
X14617680Y-16461246D01*
X14617680Y-16461246D02*
X14617680Y-16451722D01*
X14617680Y-16451722D02*
X14627204Y-16432675D01*
X14627204Y-16432675D02*
X14646252Y-16423151D01*
X14646252Y-16423151D02*
X14674823Y-16423151D01*
X14674823Y-16423151D02*
X14693871Y-16432675D01*
X14770061Y-16632675D02*
X14779585Y-16623151D01*
X14779585Y-16623151D02*
X14798633Y-16594579D01*
X14798633Y-16594579D02*
X14808156Y-16575532D01*
X14808156Y-16575532D02*
X14817680Y-16546960D01*
X14817680Y-16546960D02*
X14827204Y-16499341D01*
X14827204Y-16499341D02*
X14827204Y-16461246D01*
X14827204Y-16461246D02*
X14817680Y-16413627D01*
X14817680Y-16413627D02*
X14808156Y-16385056D01*
X14808156Y-16385056D02*
X14798633Y-16366008D01*
X14798633Y-16366008D02*
X14779585Y-16337437D01*
X14779585Y-16337437D02*
X14770061Y-16327913D01*
D17*
X9864998Y-16720000D02*
X9994998Y-16850001D01*
X9994998Y-16720000D02*
X9864998Y-16850001D01*
X9929998Y-16720000D02*
X9929998Y-16850001D01*
X9864998Y-16785001D02*
X9994998Y-16785001D01*
D11*
X10360537Y-16876484D02*
X10246251Y-16876484D01*
X10303394Y-16876484D02*
X10303394Y-16676484D01*
X10303394Y-16676484D02*
X10284346Y-16705056D01*
X10284346Y-16705056D02*
X10265299Y-16724103D01*
X10265299Y-16724103D02*
X10246251Y-16733627D01*
X10446251Y-16857437D02*
X10455775Y-16866961D01*
X10455775Y-16866961D02*
X10446251Y-16876484D01*
X10446251Y-16876484D02*
X10436727Y-16866961D01*
X10436727Y-16866961D02*
X10446251Y-16857437D01*
X10446251Y-16857437D02*
X10446251Y-16876484D01*
X10522442Y-16676484D02*
X10646251Y-16676484D01*
X10646251Y-16676484D02*
X10579585Y-16752675D01*
X10579585Y-16752675D02*
X10608156Y-16752675D01*
X10608156Y-16752675D02*
X10627204Y-16762198D01*
X10627204Y-16762198D02*
X10636727Y-16771722D01*
X10636727Y-16771722D02*
X10646251Y-16790770D01*
X10646251Y-16790770D02*
X10646251Y-16838389D01*
X10646251Y-16838389D02*
X10636727Y-16857437D01*
X10636727Y-16857437D02*
X10627204Y-16866961D01*
X10627204Y-16866961D02*
X10608156Y-16876484D01*
X10608156Y-16876484D02*
X10551013Y-16876484D01*
X10551013Y-16876484D02*
X10531966Y-16866961D01*
X10531966Y-16866961D02*
X10522442Y-16857437D01*
X10770061Y-16676484D02*
X10789108Y-16676484D01*
X10789108Y-16676484D02*
X10808156Y-16686008D01*
X10808156Y-16686008D02*
X10817680Y-16695532D01*
X10817680Y-16695532D02*
X10827204Y-16714579D01*
X10827204Y-16714579D02*
X10836727Y-16752675D01*
X10836727Y-16752675D02*
X10836727Y-16800294D01*
X10836727Y-16800294D02*
X10827204Y-16838389D01*
X10827204Y-16838389D02*
X10817680Y-16857437D01*
X10817680Y-16857437D02*
X10808156Y-16866961D01*
X10808156Y-16866961D02*
X10789108Y-16876484D01*
X10789108Y-16876484D02*
X10770061Y-16876484D01*
X10770061Y-16876484D02*
X10751013Y-16866961D01*
X10751013Y-16866961D02*
X10741489Y-16857437D01*
X10741489Y-16857437D02*
X10731966Y-16838389D01*
X10731966Y-16838389D02*
X10722442Y-16800294D01*
X10722442Y-16800294D02*
X10722442Y-16752675D01*
X10722442Y-16752675D02*
X10731966Y-16714579D01*
X10731966Y-16714579D02*
X10741489Y-16695532D01*
X10741489Y-16695532D02*
X10751013Y-16686008D01*
X10751013Y-16686008D02*
X10770061Y-16676484D01*
X10960537Y-16676484D02*
X10979585Y-16676484D01*
X10979585Y-16676484D02*
X10998632Y-16686008D01*
X10998632Y-16686008D02*
X11008156Y-16695532D01*
X11008156Y-16695532D02*
X11017680Y-16714579D01*
X11017680Y-16714579D02*
X11027204Y-16752675D01*
X11027204Y-16752675D02*
X11027204Y-16800294D01*
X11027204Y-16800294D02*
X11017680Y-16838389D01*
X11017680Y-16838389D02*
X11008156Y-16857437D01*
X11008156Y-16857437D02*
X10998632Y-16866961D01*
X10998632Y-16866961D02*
X10979585Y-16876484D01*
X10979585Y-16876484D02*
X10960537Y-16876484D01*
X10960537Y-16876484D02*
X10941489Y-16866961D01*
X10941489Y-16866961D02*
X10931966Y-16857437D01*
X10931966Y-16857437D02*
X10922442Y-16838389D01*
X10922442Y-16838389D02*
X10912918Y-16800294D01*
X10912918Y-16800294D02*
X10912918Y-16752675D01*
X10912918Y-16752675D02*
X10922442Y-16714579D01*
X10922442Y-16714579D02*
X10931966Y-16695532D01*
X10931966Y-16695532D02*
X10941489Y-16686008D01*
X10941489Y-16686008D02*
X10960537Y-16676484D01*
X11112918Y-16876484D02*
X11112918Y-16743151D01*
X11112918Y-16762198D02*
X11122442Y-16752675D01*
X11122442Y-16752675D02*
X11141489Y-16743151D01*
X11141489Y-16743151D02*
X11170061Y-16743151D01*
X11170061Y-16743151D02*
X11189108Y-16752675D01*
X11189108Y-16752675D02*
X11198632Y-16771722D01*
X11198632Y-16771722D02*
X11198632Y-16876484D01*
X11198632Y-16771722D02*
X11208156Y-16752675D01*
X11208156Y-16752675D02*
X11227204Y-16743151D01*
X11227204Y-16743151D02*
X11255775Y-16743151D01*
X11255775Y-16743151D02*
X11274823Y-16752675D01*
X11274823Y-16752675D02*
X11284346Y-16771722D01*
X11284346Y-16771722D02*
X11284346Y-16876484D01*
X11379585Y-16876484D02*
X11379585Y-16743151D01*
X11379585Y-16762198D02*
X11389108Y-16752675D01*
X11389108Y-16752675D02*
X11408156Y-16743151D01*
X11408156Y-16743151D02*
X11436727Y-16743151D01*
X11436727Y-16743151D02*
X11455775Y-16752675D01*
X11455775Y-16752675D02*
X11465299Y-16771722D01*
X11465299Y-16771722D02*
X11465299Y-16876484D01*
X11465299Y-16771722D02*
X11474823Y-16752675D01*
X11474823Y-16752675D02*
X11493870Y-16743151D01*
X11493870Y-16743151D02*
X11522442Y-16743151D01*
X11522442Y-16743151D02*
X11541489Y-16752675D01*
X11541489Y-16752675D02*
X11551013Y-16771722D01*
X11551013Y-16771722D02*
X11551013Y-16876484D01*
X11941489Y-16666960D02*
X11770061Y-16924103D01*
X12198632Y-16676484D02*
X12217680Y-16676484D01*
X12217680Y-16676484D02*
X12236728Y-16686008D01*
X12236728Y-16686008D02*
X12246251Y-16695532D01*
X12246251Y-16695532D02*
X12255775Y-16714579D01*
X12255775Y-16714579D02*
X12265299Y-16752675D01*
X12265299Y-16752675D02*
X12265299Y-16800294D01*
X12265299Y-16800294D02*
X12255775Y-16838389D01*
X12255775Y-16838389D02*
X12246251Y-16857437D01*
X12246251Y-16857437D02*
X12236728Y-16866961D01*
X12236728Y-16866961D02*
X12217680Y-16876484D01*
X12217680Y-16876484D02*
X12198632Y-16876484D01*
X12198632Y-16876484D02*
X12179585Y-16866961D01*
X12179585Y-16866961D02*
X12170061Y-16857437D01*
X12170061Y-16857437D02*
X12160537Y-16838389D01*
X12160537Y-16838389D02*
X12151013Y-16800294D01*
X12151013Y-16800294D02*
X12151013Y-16752675D01*
X12151013Y-16752675D02*
X12160537Y-16714579D01*
X12160537Y-16714579D02*
X12170061Y-16695532D01*
X12170061Y-16695532D02*
X12179585Y-16686008D01*
X12179585Y-16686008D02*
X12198632Y-16676484D01*
X12351013Y-16857437D02*
X12360537Y-16866961D01*
X12360537Y-16866961D02*
X12351013Y-16876484D01*
X12351013Y-16876484D02*
X12341489Y-16866961D01*
X12341489Y-16866961D02*
X12351013Y-16857437D01*
X12351013Y-16857437D02*
X12351013Y-16876484D01*
X12484347Y-16676484D02*
X12503394Y-16676484D01*
X12503394Y-16676484D02*
X12522442Y-16686008D01*
X12522442Y-16686008D02*
X12531966Y-16695532D01*
X12531966Y-16695532D02*
X12541489Y-16714579D01*
X12541489Y-16714579D02*
X12551013Y-16752675D01*
X12551013Y-16752675D02*
X12551013Y-16800294D01*
X12551013Y-16800294D02*
X12541489Y-16838389D01*
X12541489Y-16838389D02*
X12531966Y-16857437D01*
X12531966Y-16857437D02*
X12522442Y-16866961D01*
X12522442Y-16866961D02*
X12503394Y-16876484D01*
X12503394Y-16876484D02*
X12484347Y-16876484D01*
X12484347Y-16876484D02*
X12465299Y-16866961D01*
X12465299Y-16866961D02*
X12455775Y-16857437D01*
X12455775Y-16857437D02*
X12446251Y-16838389D01*
X12446251Y-16838389D02*
X12436728Y-16800294D01*
X12436728Y-16800294D02*
X12436728Y-16752675D01*
X12436728Y-16752675D02*
X12446251Y-16714579D01*
X12446251Y-16714579D02*
X12455775Y-16695532D01*
X12455775Y-16695532D02*
X12465299Y-16686008D01*
X12465299Y-16686008D02*
X12484347Y-16676484D01*
X12731966Y-16676484D02*
X12636728Y-16676484D01*
X12636728Y-16676484D02*
X12627204Y-16771722D01*
X12627204Y-16771722D02*
X12636728Y-16762198D01*
X12636728Y-16762198D02*
X12655775Y-16752675D01*
X12655775Y-16752675D02*
X12703394Y-16752675D01*
X12703394Y-16752675D02*
X12722442Y-16762198D01*
X12722442Y-16762198D02*
X12731966Y-16771722D01*
X12731966Y-16771722D02*
X12741489Y-16790770D01*
X12741489Y-16790770D02*
X12741489Y-16838389D01*
X12741489Y-16838389D02*
X12731966Y-16857437D01*
X12731966Y-16857437D02*
X12722442Y-16866961D01*
X12722442Y-16866961D02*
X12703394Y-16876484D01*
X12703394Y-16876484D02*
X12655775Y-16876484D01*
X12655775Y-16876484D02*
X12636728Y-16866961D01*
X12636728Y-16866961D02*
X12627204Y-16857437D01*
X12931966Y-16876484D02*
X12817680Y-16876484D01*
X12874823Y-16876484D02*
X12874823Y-16676484D01*
X12874823Y-16676484D02*
X12855775Y-16705056D01*
X12855775Y-16705056D02*
X12836728Y-16724103D01*
X12836728Y-16724103D02*
X12817680Y-16733627D01*
X13008156Y-16695532D02*
X13017680Y-16686008D01*
X13017680Y-16686008D02*
X13036728Y-16676484D01*
X13036728Y-16676484D02*
X13084347Y-16676484D01*
X13084347Y-16676484D02*
X13103394Y-16686008D01*
X13103394Y-16686008D02*
X13112918Y-16695532D01*
X13112918Y-16695532D02*
X13122442Y-16714579D01*
X13122442Y-16714579D02*
X13122442Y-16733627D01*
X13122442Y-16733627D02*
X13112918Y-16762198D01*
X13112918Y-16762198D02*
X12998632Y-16876484D01*
X12998632Y-16876484D02*
X13122442Y-16876484D01*
X13198632Y-16676484D02*
X13198632Y-16714579D01*
X13274823Y-16676484D02*
X13274823Y-16714579D01*
X13570061Y-16952675D02*
X13560537Y-16943151D01*
X13560537Y-16943151D02*
X13541490Y-16914580D01*
X13541490Y-16914580D02*
X13531966Y-16895532D01*
X13531966Y-16895532D02*
X13522442Y-16866961D01*
X13522442Y-16866961D02*
X13512918Y-16819341D01*
X13512918Y-16819341D02*
X13512918Y-16781246D01*
X13512918Y-16781246D02*
X13522442Y-16733627D01*
X13522442Y-16733627D02*
X13531966Y-16705056D01*
X13531966Y-16705056D02*
X13541490Y-16686008D01*
X13541490Y-16686008D02*
X13560537Y-16657437D01*
X13560537Y-16657437D02*
X13570061Y-16647913D01*
X13636728Y-16695532D02*
X13646251Y-16686008D01*
X13646251Y-16686008D02*
X13665299Y-16676484D01*
X13665299Y-16676484D02*
X13712918Y-16676484D01*
X13712918Y-16676484D02*
X13731966Y-16686008D01*
X13731966Y-16686008D02*
X13741490Y-16695532D01*
X13741490Y-16695532D02*
X13751013Y-16714579D01*
X13751013Y-16714579D02*
X13751013Y-16733627D01*
X13751013Y-16733627D02*
X13741490Y-16762198D01*
X13741490Y-16762198D02*
X13627204Y-16876484D01*
X13627204Y-16876484D02*
X13751013Y-16876484D01*
X13989109Y-16876484D02*
X13989109Y-16676484D01*
X14074823Y-16876484D02*
X14074823Y-16771722D01*
X14074823Y-16771722D02*
X14065299Y-16752675D01*
X14065299Y-16752675D02*
X14046252Y-16743151D01*
X14046252Y-16743151D02*
X14017680Y-16743151D01*
X14017680Y-16743151D02*
X13998632Y-16752675D01*
X13998632Y-16752675D02*
X13989109Y-16762198D01*
X14198632Y-16876484D02*
X14179585Y-16866961D01*
X14179585Y-16866961D02*
X14170061Y-16857437D01*
X14170061Y-16857437D02*
X14160537Y-16838389D01*
X14160537Y-16838389D02*
X14160537Y-16781246D01*
X14160537Y-16781246D02*
X14170061Y-16762198D01*
X14170061Y-16762198D02*
X14179585Y-16752675D01*
X14179585Y-16752675D02*
X14198632Y-16743151D01*
X14198632Y-16743151D02*
X14227204Y-16743151D01*
X14227204Y-16743151D02*
X14246252Y-16752675D01*
X14246252Y-16752675D02*
X14255775Y-16762198D01*
X14255775Y-16762198D02*
X14265299Y-16781246D01*
X14265299Y-16781246D02*
X14265299Y-16838389D01*
X14265299Y-16838389D02*
X14255775Y-16857437D01*
X14255775Y-16857437D02*
X14246252Y-16866961D01*
X14246252Y-16866961D02*
X14227204Y-16876484D01*
X14227204Y-16876484D02*
X14198632Y-16876484D01*
X14379585Y-16876484D02*
X14360537Y-16866961D01*
X14360537Y-16866961D02*
X14351013Y-16847913D01*
X14351013Y-16847913D02*
X14351013Y-16676484D01*
X14531966Y-16866961D02*
X14512918Y-16876484D01*
X14512918Y-16876484D02*
X14474823Y-16876484D01*
X14474823Y-16876484D02*
X14455775Y-16866961D01*
X14455775Y-16866961D02*
X14446252Y-16847913D01*
X14446252Y-16847913D02*
X14446252Y-16771722D01*
X14446252Y-16771722D02*
X14455775Y-16752675D01*
X14455775Y-16752675D02*
X14474823Y-16743151D01*
X14474823Y-16743151D02*
X14512918Y-16743151D01*
X14512918Y-16743151D02*
X14531966Y-16752675D01*
X14531966Y-16752675D02*
X14541490Y-16771722D01*
X14541490Y-16771722D02*
X14541490Y-16790770D01*
X14541490Y-16790770D02*
X14446252Y-16809818D01*
X14617680Y-16866961D02*
X14636728Y-16876484D01*
X14636728Y-16876484D02*
X14674823Y-16876484D01*
X14674823Y-16876484D02*
X14693871Y-16866961D01*
X14693871Y-16866961D02*
X14703394Y-16847913D01*
X14703394Y-16847913D02*
X14703394Y-16838389D01*
X14703394Y-16838389D02*
X14693871Y-16819341D01*
X14693871Y-16819341D02*
X14674823Y-16809818D01*
X14674823Y-16809818D02*
X14646252Y-16809818D01*
X14646252Y-16809818D02*
X14627204Y-16800294D01*
X14627204Y-16800294D02*
X14617680Y-16781246D01*
X14617680Y-16781246D02*
X14617680Y-16771722D01*
X14617680Y-16771722D02*
X14627204Y-16752675D01*
X14627204Y-16752675D02*
X14646252Y-16743151D01*
X14646252Y-16743151D02*
X14674823Y-16743151D01*
X14674823Y-16743151D02*
X14693871Y-16752675D01*
X14770061Y-16952675D02*
X14779585Y-16943151D01*
X14779585Y-16943151D02*
X14798633Y-16914580D01*
X14798633Y-16914580D02*
X14808156Y-16895532D01*
X14808156Y-16895532D02*
X14817680Y-16866961D01*
X14817680Y-16866961D02*
X14827204Y-16819341D01*
X14827204Y-16819341D02*
X14827204Y-16781246D01*
X14827204Y-16781246D02*
X14817680Y-16733627D01*
X14817680Y-16733627D02*
X14808156Y-16705056D01*
X14808156Y-16705056D02*
X14798633Y-16686008D01*
X14798633Y-16686008D02*
X14779585Y-16657437D01*
X14779585Y-16657437D02*
X14770061Y-16647913D01*
X15131966Y-16952675D02*
X15122442Y-16943151D01*
X15122442Y-16943151D02*
X15103394Y-16914580D01*
X15103394Y-16914580D02*
X15093871Y-16895532D01*
X15093871Y-16895532D02*
X15084347Y-16866961D01*
X15084347Y-16866961D02*
X15074823Y-16819341D01*
X15074823Y-16819341D02*
X15074823Y-16781246D01*
X15074823Y-16781246D02*
X15084347Y-16733627D01*
X15084347Y-16733627D02*
X15093871Y-16705056D01*
X15093871Y-16705056D02*
X15103394Y-16686008D01*
X15103394Y-16686008D02*
X15122442Y-16657437D01*
X15122442Y-16657437D02*
X15131966Y-16647913D01*
X15208156Y-16743151D02*
X15208156Y-16876484D01*
X15208156Y-16762198D02*
X15217680Y-16752675D01*
X15217680Y-16752675D02*
X15236728Y-16743151D01*
X15236728Y-16743151D02*
X15265299Y-16743151D01*
X15265299Y-16743151D02*
X15284347Y-16752675D01*
X15284347Y-16752675D02*
X15293871Y-16771722D01*
X15293871Y-16771722D02*
X15293871Y-16876484D01*
X15417680Y-16876484D02*
X15398633Y-16866961D01*
X15398633Y-16866961D02*
X15389109Y-16857437D01*
X15389109Y-16857437D02*
X15379585Y-16838389D01*
X15379585Y-16838389D02*
X15379585Y-16781246D01*
X15379585Y-16781246D02*
X15389109Y-16762198D01*
X15389109Y-16762198D02*
X15398633Y-16752675D01*
X15398633Y-16752675D02*
X15417680Y-16743151D01*
X15417680Y-16743151D02*
X15446252Y-16743151D01*
X15446252Y-16743151D02*
X15465299Y-16752675D01*
X15465299Y-16752675D02*
X15474823Y-16762198D01*
X15474823Y-16762198D02*
X15484347Y-16781246D01*
X15484347Y-16781246D02*
X15484347Y-16838389D01*
X15484347Y-16838389D02*
X15474823Y-16857437D01*
X15474823Y-16857437D02*
X15465299Y-16866961D01*
X15465299Y-16866961D02*
X15446252Y-16876484D01*
X15446252Y-16876484D02*
X15417680Y-16876484D01*
X15541490Y-16743151D02*
X15617680Y-16743151D01*
X15570061Y-16676484D02*
X15570061Y-16847913D01*
X15570061Y-16847913D02*
X15579585Y-16866961D01*
X15579585Y-16866961D02*
X15598633Y-16876484D01*
X15598633Y-16876484D02*
X15617680Y-16876484D01*
X15836728Y-16743151D02*
X15836728Y-16943151D01*
X15836728Y-16752675D02*
X15855775Y-16743151D01*
X15855775Y-16743151D02*
X15893871Y-16743151D01*
X15893871Y-16743151D02*
X15912918Y-16752675D01*
X15912918Y-16752675D02*
X15922442Y-16762198D01*
X15922442Y-16762198D02*
X15931966Y-16781246D01*
X15931966Y-16781246D02*
X15931966Y-16838389D01*
X15931966Y-16838389D02*
X15922442Y-16857437D01*
X15922442Y-16857437D02*
X15912918Y-16866961D01*
X15912918Y-16866961D02*
X15893871Y-16876484D01*
X15893871Y-16876484D02*
X15855775Y-16876484D01*
X15855775Y-16876484D02*
X15836728Y-16866961D01*
X16046252Y-16876484D02*
X16027204Y-16866961D01*
X16027204Y-16866961D02*
X16017680Y-16847913D01*
X16017680Y-16847913D02*
X16017680Y-16676484D01*
X16208156Y-16876484D02*
X16208156Y-16771722D01*
X16208156Y-16771722D02*
X16198633Y-16752675D01*
X16198633Y-16752675D02*
X16179585Y-16743151D01*
X16179585Y-16743151D02*
X16141490Y-16743151D01*
X16141490Y-16743151D02*
X16122442Y-16752675D01*
X16208156Y-16866961D02*
X16189109Y-16876484D01*
X16189109Y-16876484D02*
X16141490Y-16876484D01*
X16141490Y-16876484D02*
X16122442Y-16866961D01*
X16122442Y-16866961D02*
X16112918Y-16847913D01*
X16112918Y-16847913D02*
X16112918Y-16828865D01*
X16112918Y-16828865D02*
X16122442Y-16809818D01*
X16122442Y-16809818D02*
X16141490Y-16800294D01*
X16141490Y-16800294D02*
X16189109Y-16800294D01*
X16189109Y-16800294D02*
X16208156Y-16790770D01*
X16274823Y-16743151D02*
X16351014Y-16743151D01*
X16303395Y-16676484D02*
X16303395Y-16847913D01*
X16303395Y-16847913D02*
X16312918Y-16866961D01*
X16312918Y-16866961D02*
X16331966Y-16876484D01*
X16331966Y-16876484D02*
X16351014Y-16876484D01*
X16493871Y-16866961D02*
X16474823Y-16876484D01*
X16474823Y-16876484D02*
X16436728Y-16876484D01*
X16436728Y-16876484D02*
X16417680Y-16866961D01*
X16417680Y-16866961D02*
X16408156Y-16847913D01*
X16408156Y-16847913D02*
X16408156Y-16771722D01*
X16408156Y-16771722D02*
X16417680Y-16752675D01*
X16417680Y-16752675D02*
X16436728Y-16743151D01*
X16436728Y-16743151D02*
X16474823Y-16743151D01*
X16474823Y-16743151D02*
X16493871Y-16752675D01*
X16493871Y-16752675D02*
X16503395Y-16771722D01*
X16503395Y-16771722D02*
X16503395Y-16790770D01*
X16503395Y-16790770D02*
X16408156Y-16809818D01*
X16674823Y-16876484D02*
X16674823Y-16676484D01*
X16674823Y-16866961D02*
X16655776Y-16876484D01*
X16655776Y-16876484D02*
X16617680Y-16876484D01*
X16617680Y-16876484D02*
X16598633Y-16866961D01*
X16598633Y-16866961D02*
X16589109Y-16857437D01*
X16589109Y-16857437D02*
X16579585Y-16838389D01*
X16579585Y-16838389D02*
X16579585Y-16781246D01*
X16579585Y-16781246D02*
X16589109Y-16762198D01*
X16589109Y-16762198D02*
X16598633Y-16752675D01*
X16598633Y-16752675D02*
X16617680Y-16743151D01*
X16617680Y-16743151D02*
X16655776Y-16743151D01*
X16655776Y-16743151D02*
X16674823Y-16752675D01*
X16751014Y-16952675D02*
X16760537Y-16943151D01*
X16760537Y-16943151D02*
X16779585Y-16914580D01*
X16779585Y-16914580D02*
X16789109Y-16895532D01*
X16789109Y-16895532D02*
X16798633Y-16866961D01*
X16798633Y-16866961D02*
X16808157Y-16819341D01*
X16808157Y-16819341D02*
X16808157Y-16781246D01*
X16808157Y-16781246D02*
X16798633Y-16733627D01*
X16798633Y-16733627D02*
X16789109Y-16705056D01*
X16789109Y-16705056D02*
X16779585Y-16686008D01*
X16779585Y-16686008D02*
X16760537Y-16657437D01*
X16760537Y-16657437D02*
X16751014Y-16647913D01*
X9794998Y-16949001D02*
X9994998Y-17149001D01*
X9994998Y-16949001D02*
X9794998Y-17149001D01*
X9965710Y-17119712D02*
X9965710Y-16978289D01*
X9824287Y-16978289D01*
X9824287Y-17119712D01*
X9965710Y-17119712D01*
X10236727Y-16940484D02*
X10360537Y-16940484D01*
X10360537Y-16940484D02*
X10293870Y-17016675D01*
X10293870Y-17016675D02*
X10322442Y-17016675D01*
X10322442Y-17016675D02*
X10341489Y-17026199D01*
X10341489Y-17026199D02*
X10351013Y-17035722D01*
X10351013Y-17035722D02*
X10360537Y-17054770D01*
X10360537Y-17054770D02*
X10360537Y-17102389D01*
X10360537Y-17102389D02*
X10351013Y-17121437D01*
X10351013Y-17121437D02*
X10341489Y-17130961D01*
X10341489Y-17130961D02*
X10322442Y-17140484D01*
X10322442Y-17140484D02*
X10265299Y-17140484D01*
X10265299Y-17140484D02*
X10246251Y-17130961D01*
X10246251Y-17130961D02*
X10236727Y-17121437D01*
X10446251Y-17121437D02*
X10455775Y-17130961D01*
X10455775Y-17130961D02*
X10446251Y-17140484D01*
X10446251Y-17140484D02*
X10436727Y-17130961D01*
X10436727Y-17130961D02*
X10446251Y-17121437D01*
X10446251Y-17121437D02*
X10446251Y-17140484D01*
X10531966Y-16959532D02*
X10541489Y-16950008D01*
X10541489Y-16950008D02*
X10560537Y-16940484D01*
X10560537Y-16940484D02*
X10608156Y-16940484D01*
X10608156Y-16940484D02*
X10627204Y-16950008D01*
X10627204Y-16950008D02*
X10636727Y-16959532D01*
X10636727Y-16959532D02*
X10646251Y-16978580D01*
X10646251Y-16978580D02*
X10646251Y-16997627D01*
X10646251Y-16997627D02*
X10636727Y-17026199D01*
X10636727Y-17026199D02*
X10522442Y-17140484D01*
X10522442Y-17140484D02*
X10646251Y-17140484D01*
X10770061Y-16940484D02*
X10789108Y-16940484D01*
X10789108Y-16940484D02*
X10808156Y-16950008D01*
X10808156Y-16950008D02*
X10817680Y-16959532D01*
X10817680Y-16959532D02*
X10827204Y-16978580D01*
X10827204Y-16978580D02*
X10836727Y-17016675D01*
X10836727Y-17016675D02*
X10836727Y-17064294D01*
X10836727Y-17064294D02*
X10827204Y-17102389D01*
X10827204Y-17102389D02*
X10817680Y-17121437D01*
X10817680Y-17121437D02*
X10808156Y-17130961D01*
X10808156Y-17130961D02*
X10789108Y-17140484D01*
X10789108Y-17140484D02*
X10770061Y-17140484D01*
X10770061Y-17140484D02*
X10751013Y-17130961D01*
X10751013Y-17130961D02*
X10741489Y-17121437D01*
X10741489Y-17121437D02*
X10731966Y-17102389D01*
X10731966Y-17102389D02*
X10722442Y-17064294D01*
X10722442Y-17064294D02*
X10722442Y-17016675D01*
X10722442Y-17016675D02*
X10731966Y-16978580D01*
X10731966Y-16978580D02*
X10741489Y-16959532D01*
X10741489Y-16959532D02*
X10751013Y-16950008D01*
X10751013Y-16950008D02*
X10770061Y-16940484D01*
X10960537Y-16940484D02*
X10979585Y-16940484D01*
X10979585Y-16940484D02*
X10998632Y-16950008D01*
X10998632Y-16950008D02*
X11008156Y-16959532D01*
X11008156Y-16959532D02*
X11017680Y-16978580D01*
X11017680Y-16978580D02*
X11027204Y-17016675D01*
X11027204Y-17016675D02*
X11027204Y-17064294D01*
X11027204Y-17064294D02*
X11017680Y-17102389D01*
X11017680Y-17102389D02*
X11008156Y-17121437D01*
X11008156Y-17121437D02*
X10998632Y-17130961D01*
X10998632Y-17130961D02*
X10979585Y-17140484D01*
X10979585Y-17140484D02*
X10960537Y-17140484D01*
X10960537Y-17140484D02*
X10941489Y-17130961D01*
X10941489Y-17130961D02*
X10931966Y-17121437D01*
X10931966Y-17121437D02*
X10922442Y-17102389D01*
X10922442Y-17102389D02*
X10912918Y-17064294D01*
X10912918Y-17064294D02*
X10912918Y-17016675D01*
X10912918Y-17016675D02*
X10922442Y-16978580D01*
X10922442Y-16978580D02*
X10931966Y-16959532D01*
X10931966Y-16959532D02*
X10941489Y-16950008D01*
X10941489Y-16950008D02*
X10960537Y-16940484D01*
X11112918Y-17140484D02*
X11112918Y-17007151D01*
X11112918Y-17026199D02*
X11122442Y-17016675D01*
X11122442Y-17016675D02*
X11141489Y-17007151D01*
X11141489Y-17007151D02*
X11170061Y-17007151D01*
X11170061Y-17007151D02*
X11189108Y-17016675D01*
X11189108Y-17016675D02*
X11198632Y-17035722D01*
X11198632Y-17035722D02*
X11198632Y-17140484D01*
X11198632Y-17035722D02*
X11208156Y-17016675D01*
X11208156Y-17016675D02*
X11227204Y-17007151D01*
X11227204Y-17007151D02*
X11255775Y-17007151D01*
X11255775Y-17007151D02*
X11274823Y-17016675D01*
X11274823Y-17016675D02*
X11284346Y-17035722D01*
X11284346Y-17035722D02*
X11284346Y-17140484D01*
X11379585Y-17140484D02*
X11379585Y-17007151D01*
X11379585Y-17026199D02*
X11389108Y-17016675D01*
X11389108Y-17016675D02*
X11408156Y-17007151D01*
X11408156Y-17007151D02*
X11436727Y-17007151D01*
X11436727Y-17007151D02*
X11455775Y-17016675D01*
X11455775Y-17016675D02*
X11465299Y-17035722D01*
X11465299Y-17035722D02*
X11465299Y-17140484D01*
X11465299Y-17035722D02*
X11474823Y-17016675D01*
X11474823Y-17016675D02*
X11493870Y-17007151D01*
X11493870Y-17007151D02*
X11522442Y-17007151D01*
X11522442Y-17007151D02*
X11541489Y-17016675D01*
X11541489Y-17016675D02*
X11551013Y-17035722D01*
X11551013Y-17035722D02*
X11551013Y-17140484D01*
X11941489Y-16930961D02*
X11770061Y-17188103D01*
X12198632Y-16940484D02*
X12217680Y-16940484D01*
X12217680Y-16940484D02*
X12236728Y-16950008D01*
X12236728Y-16950008D02*
X12246251Y-16959532D01*
X12246251Y-16959532D02*
X12255775Y-16978580D01*
X12255775Y-16978580D02*
X12265299Y-17016675D01*
X12265299Y-17016675D02*
X12265299Y-17064294D01*
X12265299Y-17064294D02*
X12255775Y-17102389D01*
X12255775Y-17102389D02*
X12246251Y-17121437D01*
X12246251Y-17121437D02*
X12236728Y-17130961D01*
X12236728Y-17130961D02*
X12217680Y-17140484D01*
X12217680Y-17140484D02*
X12198632Y-17140484D01*
X12198632Y-17140484D02*
X12179585Y-17130961D01*
X12179585Y-17130961D02*
X12170061Y-17121437D01*
X12170061Y-17121437D02*
X12160537Y-17102389D01*
X12160537Y-17102389D02*
X12151013Y-17064294D01*
X12151013Y-17064294D02*
X12151013Y-17016675D01*
X12151013Y-17016675D02*
X12160537Y-16978580D01*
X12160537Y-16978580D02*
X12170061Y-16959532D01*
X12170061Y-16959532D02*
X12179585Y-16950008D01*
X12179585Y-16950008D02*
X12198632Y-16940484D01*
X12351013Y-17121437D02*
X12360537Y-17130961D01*
X12360537Y-17130961D02*
X12351013Y-17140484D01*
X12351013Y-17140484D02*
X12341489Y-17130961D01*
X12341489Y-17130961D02*
X12351013Y-17121437D01*
X12351013Y-17121437D02*
X12351013Y-17140484D01*
X12551013Y-17140484D02*
X12436728Y-17140484D01*
X12493870Y-17140484D02*
X12493870Y-16940484D01*
X12493870Y-16940484D02*
X12474823Y-16969056D01*
X12474823Y-16969056D02*
X12455775Y-16988103D01*
X12455775Y-16988103D02*
X12436728Y-16997627D01*
X12627204Y-16959532D02*
X12636728Y-16950008D01*
X12636728Y-16950008D02*
X12655775Y-16940484D01*
X12655775Y-16940484D02*
X12703394Y-16940484D01*
X12703394Y-16940484D02*
X12722442Y-16950008D01*
X12722442Y-16950008D02*
X12731966Y-16959532D01*
X12731966Y-16959532D02*
X12741489Y-16978580D01*
X12741489Y-16978580D02*
X12741489Y-16997627D01*
X12741489Y-16997627D02*
X12731966Y-17026199D01*
X12731966Y-17026199D02*
X12617680Y-17140484D01*
X12617680Y-17140484D02*
X12741489Y-17140484D01*
X12912918Y-16940484D02*
X12874823Y-16940484D01*
X12874823Y-16940484D02*
X12855775Y-16950008D01*
X12855775Y-16950008D02*
X12846251Y-16959532D01*
X12846251Y-16959532D02*
X12827204Y-16988103D01*
X12827204Y-16988103D02*
X12817680Y-17026199D01*
X12817680Y-17026199D02*
X12817680Y-17102389D01*
X12817680Y-17102389D02*
X12827204Y-17121437D01*
X12827204Y-17121437D02*
X12836728Y-17130961D01*
X12836728Y-17130961D02*
X12855775Y-17140484D01*
X12855775Y-17140484D02*
X12893870Y-17140484D01*
X12893870Y-17140484D02*
X12912918Y-17130961D01*
X12912918Y-17130961D02*
X12922442Y-17121437D01*
X12922442Y-17121437D02*
X12931966Y-17102389D01*
X12931966Y-17102389D02*
X12931966Y-17054770D01*
X12931966Y-17054770D02*
X12922442Y-17035722D01*
X12922442Y-17035722D02*
X12912918Y-17026199D01*
X12912918Y-17026199D02*
X12893870Y-17016675D01*
X12893870Y-17016675D02*
X12855775Y-17016675D01*
X12855775Y-17016675D02*
X12836728Y-17026199D01*
X12836728Y-17026199D02*
X12827204Y-17035722D01*
X12827204Y-17035722D02*
X12817680Y-17054770D01*
X13055775Y-16940484D02*
X13074823Y-16940484D01*
X13074823Y-16940484D02*
X13093870Y-16950008D01*
X13093870Y-16950008D02*
X13103394Y-16959532D01*
X13103394Y-16959532D02*
X13112918Y-16978580D01*
X13112918Y-16978580D02*
X13122442Y-17016675D01*
X13122442Y-17016675D02*
X13122442Y-17064294D01*
X13122442Y-17064294D02*
X13112918Y-17102389D01*
X13112918Y-17102389D02*
X13103394Y-17121437D01*
X13103394Y-17121437D02*
X13093870Y-17130961D01*
X13093870Y-17130961D02*
X13074823Y-17140484D01*
X13074823Y-17140484D02*
X13055775Y-17140484D01*
X13055775Y-17140484D02*
X13036728Y-17130961D01*
X13036728Y-17130961D02*
X13027204Y-17121437D01*
X13027204Y-17121437D02*
X13017680Y-17102389D01*
X13017680Y-17102389D02*
X13008156Y-17064294D01*
X13008156Y-17064294D02*
X13008156Y-17016675D01*
X13008156Y-17016675D02*
X13017680Y-16978580D01*
X13017680Y-16978580D02*
X13027204Y-16959532D01*
X13027204Y-16959532D02*
X13036728Y-16950008D01*
X13036728Y-16950008D02*
X13055775Y-16940484D01*
X13198632Y-16940484D02*
X13198632Y-16978580D01*
X13274823Y-16940484D02*
X13274823Y-16978580D01*
X13570061Y-17216675D02*
X13560537Y-17207151D01*
X13560537Y-17207151D02*
X13541490Y-17178580D01*
X13541490Y-17178580D02*
X13531966Y-17159532D01*
X13531966Y-17159532D02*
X13522442Y-17130961D01*
X13522442Y-17130961D02*
X13512918Y-17083341D01*
X13512918Y-17083341D02*
X13512918Y-17045246D01*
X13512918Y-17045246D02*
X13522442Y-16997627D01*
X13522442Y-16997627D02*
X13531966Y-16969056D01*
X13531966Y-16969056D02*
X13541490Y-16950008D01*
X13541490Y-16950008D02*
X13560537Y-16921437D01*
X13560537Y-16921437D02*
X13570061Y-16911913D01*
X13636728Y-16959532D02*
X13646251Y-16950008D01*
X13646251Y-16950008D02*
X13665299Y-16940484D01*
X13665299Y-16940484D02*
X13712918Y-16940484D01*
X13712918Y-16940484D02*
X13731966Y-16950008D01*
X13731966Y-16950008D02*
X13741490Y-16959532D01*
X13741490Y-16959532D02*
X13751013Y-16978580D01*
X13751013Y-16978580D02*
X13751013Y-16997627D01*
X13751013Y-16997627D02*
X13741490Y-17026199D01*
X13741490Y-17026199D02*
X13627204Y-17140484D01*
X13627204Y-17140484D02*
X13751013Y-17140484D01*
X13989109Y-17140484D02*
X13989109Y-16940484D01*
X14074823Y-17140484D02*
X14074823Y-17035722D01*
X14074823Y-17035722D02*
X14065299Y-17016675D01*
X14065299Y-17016675D02*
X14046252Y-17007151D01*
X14046252Y-17007151D02*
X14017680Y-17007151D01*
X14017680Y-17007151D02*
X13998632Y-17016675D01*
X13998632Y-17016675D02*
X13989109Y-17026199D01*
X14198632Y-17140484D02*
X14179585Y-17130961D01*
X14179585Y-17130961D02*
X14170061Y-17121437D01*
X14170061Y-17121437D02*
X14160537Y-17102389D01*
X14160537Y-17102389D02*
X14160537Y-17045246D01*
X14160537Y-17045246D02*
X14170061Y-17026199D01*
X14170061Y-17026199D02*
X14179585Y-17016675D01*
X14179585Y-17016675D02*
X14198632Y-17007151D01*
X14198632Y-17007151D02*
X14227204Y-17007151D01*
X14227204Y-17007151D02*
X14246252Y-17016675D01*
X14246252Y-17016675D02*
X14255775Y-17026199D01*
X14255775Y-17026199D02*
X14265299Y-17045246D01*
X14265299Y-17045246D02*
X14265299Y-17102389D01*
X14265299Y-17102389D02*
X14255775Y-17121437D01*
X14255775Y-17121437D02*
X14246252Y-17130961D01*
X14246252Y-17130961D02*
X14227204Y-17140484D01*
X14227204Y-17140484D02*
X14198632Y-17140484D01*
X14379585Y-17140484D02*
X14360537Y-17130961D01*
X14360537Y-17130961D02*
X14351013Y-17111913D01*
X14351013Y-17111913D02*
X14351013Y-16940484D01*
X14531966Y-17130961D02*
X14512918Y-17140484D01*
X14512918Y-17140484D02*
X14474823Y-17140484D01*
X14474823Y-17140484D02*
X14455775Y-17130961D01*
X14455775Y-17130961D02*
X14446252Y-17111913D01*
X14446252Y-17111913D02*
X14446252Y-17035722D01*
X14446252Y-17035722D02*
X14455775Y-17016675D01*
X14455775Y-17016675D02*
X14474823Y-17007151D01*
X14474823Y-17007151D02*
X14512918Y-17007151D01*
X14512918Y-17007151D02*
X14531966Y-17016675D01*
X14531966Y-17016675D02*
X14541490Y-17035722D01*
X14541490Y-17035722D02*
X14541490Y-17054770D01*
X14541490Y-17054770D02*
X14446252Y-17073818D01*
X14617680Y-17130961D02*
X14636728Y-17140484D01*
X14636728Y-17140484D02*
X14674823Y-17140484D01*
X14674823Y-17140484D02*
X14693871Y-17130961D01*
X14693871Y-17130961D02*
X14703394Y-17111913D01*
X14703394Y-17111913D02*
X14703394Y-17102389D01*
X14703394Y-17102389D02*
X14693871Y-17083341D01*
X14693871Y-17083341D02*
X14674823Y-17073818D01*
X14674823Y-17073818D02*
X14646252Y-17073818D01*
X14646252Y-17073818D02*
X14627204Y-17064294D01*
X14627204Y-17064294D02*
X14617680Y-17045246D01*
X14617680Y-17045246D02*
X14617680Y-17035722D01*
X14617680Y-17035722D02*
X14627204Y-17016675D01*
X14627204Y-17016675D02*
X14646252Y-17007151D01*
X14646252Y-17007151D02*
X14674823Y-17007151D01*
X14674823Y-17007151D02*
X14693871Y-17016675D01*
X14770061Y-17216675D02*
X14779585Y-17207151D01*
X14779585Y-17207151D02*
X14798633Y-17178580D01*
X14798633Y-17178580D02*
X14808156Y-17159532D01*
X14808156Y-17159532D02*
X14817680Y-17130961D01*
X14817680Y-17130961D02*
X14827204Y-17083341D01*
X14827204Y-17083341D02*
X14827204Y-17045246D01*
X14827204Y-17045246D02*
X14817680Y-16997627D01*
X14817680Y-16997627D02*
X14808156Y-16969056D01*
X14808156Y-16969056D02*
X14798633Y-16950008D01*
X14798633Y-16950008D02*
X14779585Y-16921437D01*
X14779585Y-16921437D02*
X14770061Y-16911913D01*
X15131966Y-17216675D02*
X15122442Y-17207151D01*
X15122442Y-17207151D02*
X15103394Y-17178580D01*
X15103394Y-17178580D02*
X15093871Y-17159532D01*
X15093871Y-17159532D02*
X15084347Y-17130961D01*
X15084347Y-17130961D02*
X15074823Y-17083341D01*
X15074823Y-17083341D02*
X15074823Y-17045246D01*
X15074823Y-17045246D02*
X15084347Y-16997627D01*
X15084347Y-16997627D02*
X15093871Y-16969056D01*
X15093871Y-16969056D02*
X15103394Y-16950008D01*
X15103394Y-16950008D02*
X15122442Y-16921437D01*
X15122442Y-16921437D02*
X15131966Y-16911913D01*
X15208156Y-17007151D02*
X15208156Y-17140484D01*
X15208156Y-17026199D02*
X15217680Y-17016675D01*
X15217680Y-17016675D02*
X15236728Y-17007151D01*
X15236728Y-17007151D02*
X15265299Y-17007151D01*
X15265299Y-17007151D02*
X15284347Y-17016675D01*
X15284347Y-17016675D02*
X15293871Y-17035722D01*
X15293871Y-17035722D02*
X15293871Y-17140484D01*
X15417680Y-17140484D02*
X15398633Y-17130961D01*
X15398633Y-17130961D02*
X15389109Y-17121437D01*
X15389109Y-17121437D02*
X15379585Y-17102389D01*
X15379585Y-17102389D02*
X15379585Y-17045246D01*
X15379585Y-17045246D02*
X15389109Y-17026199D01*
X15389109Y-17026199D02*
X15398633Y-17016675D01*
X15398633Y-17016675D02*
X15417680Y-17007151D01*
X15417680Y-17007151D02*
X15446252Y-17007151D01*
X15446252Y-17007151D02*
X15465299Y-17016675D01*
X15465299Y-17016675D02*
X15474823Y-17026199D01*
X15474823Y-17026199D02*
X15484347Y-17045246D01*
X15484347Y-17045246D02*
X15484347Y-17102389D01*
X15484347Y-17102389D02*
X15474823Y-17121437D01*
X15474823Y-17121437D02*
X15465299Y-17130961D01*
X15465299Y-17130961D02*
X15446252Y-17140484D01*
X15446252Y-17140484D02*
X15417680Y-17140484D01*
X15541490Y-17007151D02*
X15617680Y-17007151D01*
X15570061Y-16940484D02*
X15570061Y-17111913D01*
X15570061Y-17111913D02*
X15579585Y-17130961D01*
X15579585Y-17130961D02*
X15598633Y-17140484D01*
X15598633Y-17140484D02*
X15617680Y-17140484D01*
X15836728Y-17007151D02*
X15836728Y-17207151D01*
X15836728Y-17016675D02*
X15855775Y-17007151D01*
X15855775Y-17007151D02*
X15893871Y-17007151D01*
X15893871Y-17007151D02*
X15912918Y-17016675D01*
X15912918Y-17016675D02*
X15922442Y-17026199D01*
X15922442Y-17026199D02*
X15931966Y-17045246D01*
X15931966Y-17045246D02*
X15931966Y-17102389D01*
X15931966Y-17102389D02*
X15922442Y-17121437D01*
X15922442Y-17121437D02*
X15912918Y-17130961D01*
X15912918Y-17130961D02*
X15893871Y-17140484D01*
X15893871Y-17140484D02*
X15855775Y-17140484D01*
X15855775Y-17140484D02*
X15836728Y-17130961D01*
X16046252Y-17140484D02*
X16027204Y-17130961D01*
X16027204Y-17130961D02*
X16017680Y-17111913D01*
X16017680Y-17111913D02*
X16017680Y-16940484D01*
X16208156Y-17140484D02*
X16208156Y-17035722D01*
X16208156Y-17035722D02*
X16198633Y-17016675D01*
X16198633Y-17016675D02*
X16179585Y-17007151D01*
X16179585Y-17007151D02*
X16141490Y-17007151D01*
X16141490Y-17007151D02*
X16122442Y-17016675D01*
X16208156Y-17130961D02*
X16189109Y-17140484D01*
X16189109Y-17140484D02*
X16141490Y-17140484D01*
X16141490Y-17140484D02*
X16122442Y-17130961D01*
X16122442Y-17130961D02*
X16112918Y-17111913D01*
X16112918Y-17111913D02*
X16112918Y-17092865D01*
X16112918Y-17092865D02*
X16122442Y-17073818D01*
X16122442Y-17073818D02*
X16141490Y-17064294D01*
X16141490Y-17064294D02*
X16189109Y-17064294D01*
X16189109Y-17064294D02*
X16208156Y-17054770D01*
X16274823Y-17007151D02*
X16351014Y-17007151D01*
X16303395Y-16940484D02*
X16303395Y-17111913D01*
X16303395Y-17111913D02*
X16312918Y-17130961D01*
X16312918Y-17130961D02*
X16331966Y-17140484D01*
X16331966Y-17140484D02*
X16351014Y-17140484D01*
X16493871Y-17130961D02*
X16474823Y-17140484D01*
X16474823Y-17140484D02*
X16436728Y-17140484D01*
X16436728Y-17140484D02*
X16417680Y-17130961D01*
X16417680Y-17130961D02*
X16408156Y-17111913D01*
X16408156Y-17111913D02*
X16408156Y-17035722D01*
X16408156Y-17035722D02*
X16417680Y-17016675D01*
X16417680Y-17016675D02*
X16436728Y-17007151D01*
X16436728Y-17007151D02*
X16474823Y-17007151D01*
X16474823Y-17007151D02*
X16493871Y-17016675D01*
X16493871Y-17016675D02*
X16503395Y-17035722D01*
X16503395Y-17035722D02*
X16503395Y-17054770D01*
X16503395Y-17054770D02*
X16408156Y-17073818D01*
X16674823Y-17140484D02*
X16674823Y-16940484D01*
X16674823Y-17130961D02*
X16655776Y-17140484D01*
X16655776Y-17140484D02*
X16617680Y-17140484D01*
X16617680Y-17140484D02*
X16598633Y-17130961D01*
X16598633Y-17130961D02*
X16589109Y-17121437D01*
X16589109Y-17121437D02*
X16579585Y-17102389D01*
X16579585Y-17102389D02*
X16579585Y-17045246D01*
X16579585Y-17045246D02*
X16589109Y-17026199D01*
X16589109Y-17026199D02*
X16598633Y-17016675D01*
X16598633Y-17016675D02*
X16617680Y-17007151D01*
X16617680Y-17007151D02*
X16655776Y-17007151D01*
X16655776Y-17007151D02*
X16674823Y-17016675D01*
X16751014Y-17216675D02*
X16760537Y-17207151D01*
X16760537Y-17207151D02*
X16779585Y-17178580D01*
X16779585Y-17178580D02*
X16789109Y-17159532D01*
X16789109Y-17159532D02*
X16798633Y-17130961D01*
X16798633Y-17130961D02*
X16808157Y-17083341D01*
X16808157Y-17083341D02*
X16808157Y-17045246D01*
X16808157Y-17045246D02*
X16798633Y-16997627D01*
X16798633Y-16997627D02*
X16789109Y-16969056D01*
X16789109Y-16969056D02*
X16779585Y-16950008D01*
X16779585Y-16950008D02*
X16760537Y-16921437D01*
X16760537Y-16921437D02*
X16751014Y-16911913D01*
M02*
