%TF.GenerationSoftware,KiCad,Pcbnew,(7.0.0)*%
%TF.CreationDate,2023-02-21T14:44:16+08:00*%
%TF.ProjectId,roam,726f616d-2e6b-4696-9361-645f70636258,rev?*%
%TF.SameCoordinates,Original*%
%TF.FileFunction,Legend,Bot*%
%TF.FilePolarity,Positive*%
%FSLAX46Y46*%
G04 Gerber Fmt 4.6, Leading zero omitted, Abs format (unit mm)*
G04 Created by KiCad (PCBNEW (7.0.0)) date 2023-02-21 14:44:16*
%MOMM*%
%LPD*%
G01*
G04 APERTURE LIST*
%ADD10C,0.200000*%
%ADD11C,0.150000*%
%ADD12C,0.254000*%
%ADD13C,0.120000*%
%ADD14C,0.127000*%
%ADD15C,0.100000*%
G04 APERTURE END LIST*
D10*
G36*
X194150000Y-116750000D02*
G01*
X190650000Y-116750000D01*
X190650000Y-142750000D01*
X195650000Y-142750000D01*
X195650000Y-105250000D01*
X197150000Y-105250000D01*
X197150000Y-144250000D01*
X189150000Y-144250000D01*
X189150000Y-116750000D01*
X184950000Y-116750000D01*
X184950000Y-115750000D01*
X186150000Y-115750000D01*
X186150000Y-112250000D01*
X189650000Y-112250000D01*
X189650000Y-107250000D01*
X184950000Y-107250000D01*
X184950000Y-105750000D01*
X191150000Y-105750000D01*
X191150000Y-112250000D01*
X192150000Y-112250000D01*
X192150000Y-102750000D01*
X188150000Y-102750000D01*
X188150000Y-86750000D01*
X194150000Y-86750000D01*
X194150000Y-116750000D01*
G37*
X194150000Y-116750000D02*
X190650000Y-116750000D01*
X190650000Y-142750000D01*
X195650000Y-142750000D01*
X195650000Y-105250000D01*
X197150000Y-105250000D01*
X197150000Y-144250000D01*
X189150000Y-144250000D01*
X189150000Y-116750000D01*
X184950000Y-116750000D01*
X184950000Y-115750000D01*
X186150000Y-115750000D01*
X186150000Y-112250000D01*
X189650000Y-112250000D01*
X189650000Y-107250000D01*
X184950000Y-107250000D01*
X184950000Y-105750000D01*
X191150000Y-105750000D01*
X191150000Y-112250000D01*
X192150000Y-112250000D01*
X192150000Y-102750000D01*
X188150000Y-102750000D01*
X188150000Y-86750000D01*
X194150000Y-86750000D01*
X194150000Y-116750000D01*
X113561904Y-124722619D02*
X112990476Y-124722619D01*
X113276190Y-124722619D02*
X113276190Y-125722619D01*
X113276190Y-125722619D02*
X113180952Y-125579761D01*
X113180952Y-125579761D02*
X113085714Y-125484523D01*
X113085714Y-125484523D02*
X112990476Y-125436904D01*
X114180952Y-125722619D02*
X114276190Y-125722619D01*
X114276190Y-125722619D02*
X114371428Y-125675000D01*
X114371428Y-125675000D02*
X114419047Y-125627380D01*
X114419047Y-125627380D02*
X114466666Y-125532142D01*
X114466666Y-125532142D02*
X114514285Y-125341666D01*
X114514285Y-125341666D02*
X114514285Y-125103571D01*
X114514285Y-125103571D02*
X114466666Y-124913095D01*
X114466666Y-124913095D02*
X114419047Y-124817857D01*
X114419047Y-124817857D02*
X114371428Y-124770238D01*
X114371428Y-124770238D02*
X114276190Y-124722619D01*
X114276190Y-124722619D02*
X114180952Y-124722619D01*
X114180952Y-124722619D02*
X114085714Y-124770238D01*
X114085714Y-124770238D02*
X114038095Y-124817857D01*
X114038095Y-124817857D02*
X113990476Y-124913095D01*
X113990476Y-124913095D02*
X113942857Y-125103571D01*
X113942857Y-125103571D02*
X113942857Y-125341666D01*
X113942857Y-125341666D02*
X113990476Y-125532142D01*
X113990476Y-125532142D02*
X114038095Y-125627380D01*
X114038095Y-125627380D02*
X114085714Y-125675000D01*
X114085714Y-125675000D02*
X114180952Y-125722619D01*
X115495238Y-124770238D02*
X115638095Y-124722619D01*
X115638095Y-124722619D02*
X115876190Y-124722619D01*
X115876190Y-124722619D02*
X115971428Y-124770238D01*
X115971428Y-124770238D02*
X116019047Y-124817857D01*
X116019047Y-124817857D02*
X116066666Y-124913095D01*
X116066666Y-124913095D02*
X116066666Y-125008333D01*
X116066666Y-125008333D02*
X116019047Y-125103571D01*
X116019047Y-125103571D02*
X115971428Y-125151190D01*
X115971428Y-125151190D02*
X115876190Y-125198809D01*
X115876190Y-125198809D02*
X115685714Y-125246428D01*
X115685714Y-125246428D02*
X115590476Y-125294047D01*
X115590476Y-125294047D02*
X115542857Y-125341666D01*
X115542857Y-125341666D02*
X115495238Y-125436904D01*
X115495238Y-125436904D02*
X115495238Y-125532142D01*
X115495238Y-125532142D02*
X115542857Y-125627380D01*
X115542857Y-125627380D02*
X115590476Y-125675000D01*
X115590476Y-125675000D02*
X115685714Y-125722619D01*
X115685714Y-125722619D02*
X115923809Y-125722619D01*
X115923809Y-125722619D02*
X116066666Y-125675000D01*
X116400000Y-125722619D02*
X116638095Y-124722619D01*
X116638095Y-124722619D02*
X116828571Y-125436904D01*
X116828571Y-125436904D02*
X117019047Y-124722619D01*
X117019047Y-124722619D02*
X117257143Y-125722619D01*
X117638095Y-124722619D02*
X117638095Y-125722619D01*
X117638095Y-125722619D02*
X117876190Y-125722619D01*
X117876190Y-125722619D02*
X118019047Y-125675000D01*
X118019047Y-125675000D02*
X118114285Y-125579761D01*
X118114285Y-125579761D02*
X118161904Y-125484523D01*
X118161904Y-125484523D02*
X118209523Y-125294047D01*
X118209523Y-125294047D02*
X118209523Y-125151190D01*
X118209523Y-125151190D02*
X118161904Y-124960714D01*
X118161904Y-124960714D02*
X118114285Y-124865476D01*
X118114285Y-124865476D02*
X118019047Y-124770238D01*
X118019047Y-124770238D02*
X117876190Y-124722619D01*
X117876190Y-124722619D02*
X117638095Y-124722619D01*
X118638095Y-124722619D02*
X118638095Y-125722619D01*
X119304761Y-125722619D02*
X119495237Y-125722619D01*
X119495237Y-125722619D02*
X119590475Y-125675000D01*
X119590475Y-125675000D02*
X119685713Y-125579761D01*
X119685713Y-125579761D02*
X119733332Y-125389285D01*
X119733332Y-125389285D02*
X119733332Y-125055952D01*
X119733332Y-125055952D02*
X119685713Y-124865476D01*
X119685713Y-124865476D02*
X119590475Y-124770238D01*
X119590475Y-124770238D02*
X119495237Y-124722619D01*
X119495237Y-124722619D02*
X119304761Y-124722619D01*
X119304761Y-124722619D02*
X119209523Y-124770238D01*
X119209523Y-124770238D02*
X119114285Y-124865476D01*
X119114285Y-124865476D02*
X119066666Y-125055952D01*
X119066666Y-125055952D02*
X119066666Y-125389285D01*
X119066666Y-125389285D02*
X119114285Y-125579761D01*
X119114285Y-125579761D02*
X119209523Y-125675000D01*
X119209523Y-125675000D02*
X119304761Y-125722619D01*
X113561904Y-123102619D02*
X112990476Y-123102619D01*
X113276190Y-123102619D02*
X113276190Y-124102619D01*
X113276190Y-124102619D02*
X113180952Y-123959761D01*
X113180952Y-123959761D02*
X113085714Y-123864523D01*
X113085714Y-123864523D02*
X112990476Y-123816904D01*
X114514285Y-123102619D02*
X113942857Y-123102619D01*
X114228571Y-123102619D02*
X114228571Y-124102619D01*
X114228571Y-124102619D02*
X114133333Y-123959761D01*
X114133333Y-123959761D02*
X114038095Y-123864523D01*
X114038095Y-123864523D02*
X113942857Y-123816904D01*
X115495238Y-123150238D02*
X115638095Y-123102619D01*
X115638095Y-123102619D02*
X115876190Y-123102619D01*
X115876190Y-123102619D02*
X115971428Y-123150238D01*
X115971428Y-123150238D02*
X116019047Y-123197857D01*
X116019047Y-123197857D02*
X116066666Y-123293095D01*
X116066666Y-123293095D02*
X116066666Y-123388333D01*
X116066666Y-123388333D02*
X116019047Y-123483571D01*
X116019047Y-123483571D02*
X115971428Y-123531190D01*
X115971428Y-123531190D02*
X115876190Y-123578809D01*
X115876190Y-123578809D02*
X115685714Y-123626428D01*
X115685714Y-123626428D02*
X115590476Y-123674047D01*
X115590476Y-123674047D02*
X115542857Y-123721666D01*
X115542857Y-123721666D02*
X115495238Y-123816904D01*
X115495238Y-123816904D02*
X115495238Y-123912142D01*
X115495238Y-123912142D02*
X115542857Y-124007380D01*
X115542857Y-124007380D02*
X115590476Y-124055000D01*
X115590476Y-124055000D02*
X115685714Y-124102619D01*
X115685714Y-124102619D02*
X115923809Y-124102619D01*
X115923809Y-124102619D02*
X116066666Y-124055000D01*
X116400000Y-124102619D02*
X116638095Y-123102619D01*
X116638095Y-123102619D02*
X116828571Y-123816904D01*
X116828571Y-123816904D02*
X117019047Y-123102619D01*
X117019047Y-123102619D02*
X117257143Y-124102619D01*
X118209523Y-123197857D02*
X118161904Y-123150238D01*
X118161904Y-123150238D02*
X118019047Y-123102619D01*
X118019047Y-123102619D02*
X117923809Y-123102619D01*
X117923809Y-123102619D02*
X117780952Y-123150238D01*
X117780952Y-123150238D02*
X117685714Y-123245476D01*
X117685714Y-123245476D02*
X117638095Y-123340714D01*
X117638095Y-123340714D02*
X117590476Y-123531190D01*
X117590476Y-123531190D02*
X117590476Y-123674047D01*
X117590476Y-123674047D02*
X117638095Y-123864523D01*
X117638095Y-123864523D02*
X117685714Y-123959761D01*
X117685714Y-123959761D02*
X117780952Y-124055000D01*
X117780952Y-124055000D02*
X117923809Y-124102619D01*
X117923809Y-124102619D02*
X118019047Y-124102619D01*
X118019047Y-124102619D02*
X118161904Y-124055000D01*
X118161904Y-124055000D02*
X118209523Y-124007380D01*
X119114285Y-123102619D02*
X118638095Y-123102619D01*
X118638095Y-123102619D02*
X118638095Y-124102619D01*
X119447619Y-123102619D02*
X119447619Y-124102619D01*
X120019047Y-123102619D02*
X119590476Y-123674047D01*
X120019047Y-124102619D02*
X119447619Y-123531190D01*
X113561904Y-121482619D02*
X112990476Y-121482619D01*
X113276190Y-121482619D02*
X113276190Y-122482619D01*
X113276190Y-122482619D02*
X113180952Y-122339761D01*
X113180952Y-122339761D02*
X113085714Y-122244523D01*
X113085714Y-122244523D02*
X112990476Y-122196904D01*
X113942857Y-122387380D02*
X113990476Y-122435000D01*
X113990476Y-122435000D02*
X114085714Y-122482619D01*
X114085714Y-122482619D02*
X114323809Y-122482619D01*
X114323809Y-122482619D02*
X114419047Y-122435000D01*
X114419047Y-122435000D02*
X114466666Y-122387380D01*
X114466666Y-122387380D02*
X114514285Y-122292142D01*
X114514285Y-122292142D02*
X114514285Y-122196904D01*
X114514285Y-122196904D02*
X114466666Y-122054047D01*
X114466666Y-122054047D02*
X113895238Y-121482619D01*
X113895238Y-121482619D02*
X114514285Y-121482619D01*
X113561904Y-119862619D02*
X112990476Y-119862619D01*
X113276190Y-119862619D02*
X113276190Y-120862619D01*
X113276190Y-120862619D02*
X113180952Y-120719761D01*
X113180952Y-120719761D02*
X113085714Y-120624523D01*
X113085714Y-120624523D02*
X112990476Y-120576904D01*
X113895238Y-120862619D02*
X114514285Y-120862619D01*
X114514285Y-120862619D02*
X114180952Y-120481666D01*
X114180952Y-120481666D02*
X114323809Y-120481666D01*
X114323809Y-120481666D02*
X114419047Y-120434047D01*
X114419047Y-120434047D02*
X114466666Y-120386428D01*
X114466666Y-120386428D02*
X114514285Y-120291190D01*
X114514285Y-120291190D02*
X114514285Y-120053095D01*
X114514285Y-120053095D02*
X114466666Y-119957857D01*
X114466666Y-119957857D02*
X114419047Y-119910238D01*
X114419047Y-119910238D02*
X114323809Y-119862619D01*
X114323809Y-119862619D02*
X114038095Y-119862619D01*
X114038095Y-119862619D02*
X113942857Y-119910238D01*
X113942857Y-119910238D02*
X113895238Y-119957857D01*
X113561904Y-118242619D02*
X112990476Y-118242619D01*
X113276190Y-118242619D02*
X113276190Y-119242619D01*
X113276190Y-119242619D02*
X113180952Y-119099761D01*
X113180952Y-119099761D02*
X113085714Y-119004523D01*
X113085714Y-119004523D02*
X112990476Y-118956904D01*
X114419047Y-118909285D02*
X114419047Y-118242619D01*
X114180952Y-119290238D02*
X113942857Y-118575952D01*
X113942857Y-118575952D02*
X114561904Y-118575952D01*
X113561904Y-116622619D02*
X112990476Y-116622619D01*
X113276190Y-116622619D02*
X113276190Y-117622619D01*
X113276190Y-117622619D02*
X113180952Y-117479761D01*
X113180952Y-117479761D02*
X113085714Y-117384523D01*
X113085714Y-117384523D02*
X112990476Y-117336904D01*
X114466666Y-117622619D02*
X113990476Y-117622619D01*
X113990476Y-117622619D02*
X113942857Y-117146428D01*
X113942857Y-117146428D02*
X113990476Y-117194047D01*
X113990476Y-117194047D02*
X114085714Y-117241666D01*
X114085714Y-117241666D02*
X114323809Y-117241666D01*
X114323809Y-117241666D02*
X114419047Y-117194047D01*
X114419047Y-117194047D02*
X114466666Y-117146428D01*
X114466666Y-117146428D02*
X114514285Y-117051190D01*
X114514285Y-117051190D02*
X114514285Y-116813095D01*
X114514285Y-116813095D02*
X114466666Y-116717857D01*
X114466666Y-116717857D02*
X114419047Y-116670238D01*
X114419047Y-116670238D02*
X114323809Y-116622619D01*
X114323809Y-116622619D02*
X114085714Y-116622619D01*
X114085714Y-116622619D02*
X113990476Y-116670238D01*
X113990476Y-116670238D02*
X113942857Y-116717857D01*
X113561904Y-115002619D02*
X112990476Y-115002619D01*
X113276190Y-115002619D02*
X113276190Y-116002619D01*
X113276190Y-116002619D02*
X113180952Y-115859761D01*
X113180952Y-115859761D02*
X113085714Y-115764523D01*
X113085714Y-115764523D02*
X112990476Y-115716904D01*
X114419047Y-116002619D02*
X114228571Y-116002619D01*
X114228571Y-116002619D02*
X114133333Y-115955000D01*
X114133333Y-115955000D02*
X114085714Y-115907380D01*
X114085714Y-115907380D02*
X113990476Y-115764523D01*
X113990476Y-115764523D02*
X113942857Y-115574047D01*
X113942857Y-115574047D02*
X113942857Y-115193095D01*
X113942857Y-115193095D02*
X113990476Y-115097857D01*
X113990476Y-115097857D02*
X114038095Y-115050238D01*
X114038095Y-115050238D02*
X114133333Y-115002619D01*
X114133333Y-115002619D02*
X114323809Y-115002619D01*
X114323809Y-115002619D02*
X114419047Y-115050238D01*
X114419047Y-115050238D02*
X114466666Y-115097857D01*
X114466666Y-115097857D02*
X114514285Y-115193095D01*
X114514285Y-115193095D02*
X114514285Y-115431190D01*
X114514285Y-115431190D02*
X114466666Y-115526428D01*
X114466666Y-115526428D02*
X114419047Y-115574047D01*
X114419047Y-115574047D02*
X114323809Y-115621666D01*
X114323809Y-115621666D02*
X114133333Y-115621666D01*
X114133333Y-115621666D02*
X114038095Y-115574047D01*
X114038095Y-115574047D02*
X113990476Y-115526428D01*
X113990476Y-115526428D02*
X113942857Y-115431190D01*
X113561904Y-113382619D02*
X112990476Y-113382619D01*
X113276190Y-113382619D02*
X113276190Y-114382619D01*
X113276190Y-114382619D02*
X113180952Y-114239761D01*
X113180952Y-114239761D02*
X113085714Y-114144523D01*
X113085714Y-114144523D02*
X112990476Y-114096904D01*
X113895238Y-114382619D02*
X114561904Y-114382619D01*
X114561904Y-114382619D02*
X114133333Y-113382619D01*
X113561904Y-111762619D02*
X112990476Y-111762619D01*
X113276190Y-111762619D02*
X113276190Y-112762619D01*
X113276190Y-112762619D02*
X113180952Y-112619761D01*
X113180952Y-112619761D02*
X113085714Y-112524523D01*
X113085714Y-112524523D02*
X112990476Y-112476904D01*
X114133333Y-112334047D02*
X114038095Y-112381666D01*
X114038095Y-112381666D02*
X113990476Y-112429285D01*
X113990476Y-112429285D02*
X113942857Y-112524523D01*
X113942857Y-112524523D02*
X113942857Y-112572142D01*
X113942857Y-112572142D02*
X113990476Y-112667380D01*
X113990476Y-112667380D02*
X114038095Y-112715000D01*
X114038095Y-112715000D02*
X114133333Y-112762619D01*
X114133333Y-112762619D02*
X114323809Y-112762619D01*
X114323809Y-112762619D02*
X114419047Y-112715000D01*
X114419047Y-112715000D02*
X114466666Y-112667380D01*
X114466666Y-112667380D02*
X114514285Y-112572142D01*
X114514285Y-112572142D02*
X114514285Y-112524523D01*
X114514285Y-112524523D02*
X114466666Y-112429285D01*
X114466666Y-112429285D02*
X114419047Y-112381666D01*
X114419047Y-112381666D02*
X114323809Y-112334047D01*
X114323809Y-112334047D02*
X114133333Y-112334047D01*
X114133333Y-112334047D02*
X114038095Y-112286428D01*
X114038095Y-112286428D02*
X113990476Y-112238809D01*
X113990476Y-112238809D02*
X113942857Y-112143571D01*
X113942857Y-112143571D02*
X113942857Y-111953095D01*
X113942857Y-111953095D02*
X113990476Y-111857857D01*
X113990476Y-111857857D02*
X114038095Y-111810238D01*
X114038095Y-111810238D02*
X114133333Y-111762619D01*
X114133333Y-111762619D02*
X114323809Y-111762619D01*
X114323809Y-111762619D02*
X114419047Y-111810238D01*
X114419047Y-111810238D02*
X114466666Y-111857857D01*
X114466666Y-111857857D02*
X114514285Y-111953095D01*
X114514285Y-111953095D02*
X114514285Y-112143571D01*
X114514285Y-112143571D02*
X114466666Y-112238809D01*
X114466666Y-112238809D02*
X114419047Y-112286428D01*
X114419047Y-112286428D02*
X114323809Y-112334047D01*
X116066666Y-112715000D02*
X115971428Y-112762619D01*
X115971428Y-112762619D02*
X115828571Y-112762619D01*
X115828571Y-112762619D02*
X115685714Y-112715000D01*
X115685714Y-112715000D02*
X115590476Y-112619761D01*
X115590476Y-112619761D02*
X115542857Y-112524523D01*
X115542857Y-112524523D02*
X115495238Y-112334047D01*
X115495238Y-112334047D02*
X115495238Y-112191190D01*
X115495238Y-112191190D02*
X115542857Y-112000714D01*
X115542857Y-112000714D02*
X115590476Y-111905476D01*
X115590476Y-111905476D02*
X115685714Y-111810238D01*
X115685714Y-111810238D02*
X115828571Y-111762619D01*
X115828571Y-111762619D02*
X115923809Y-111762619D01*
X115923809Y-111762619D02*
X116066666Y-111810238D01*
X116066666Y-111810238D02*
X116114285Y-111857857D01*
X116114285Y-111857857D02*
X116114285Y-112191190D01*
X116114285Y-112191190D02*
X115923809Y-112191190D01*
X116542857Y-111762619D02*
X116542857Y-112762619D01*
X116542857Y-112762619D02*
X117114285Y-111762619D01*
X117114285Y-111762619D02*
X117114285Y-112762619D01*
X117590476Y-111762619D02*
X117590476Y-112762619D01*
X117590476Y-112762619D02*
X117828571Y-112762619D01*
X117828571Y-112762619D02*
X117971428Y-112715000D01*
X117971428Y-112715000D02*
X118066666Y-112619761D01*
X118066666Y-112619761D02*
X118114285Y-112524523D01*
X118114285Y-112524523D02*
X118161904Y-112334047D01*
X118161904Y-112334047D02*
X118161904Y-112191190D01*
X118161904Y-112191190D02*
X118114285Y-112000714D01*
X118114285Y-112000714D02*
X118066666Y-111905476D01*
X118066666Y-111905476D02*
X117971428Y-111810238D01*
X117971428Y-111810238D02*
X117828571Y-111762619D01*
X117828571Y-111762619D02*
X117590476Y-111762619D01*
G36*
X165673761Y-125931500D02*
G01*
X165653977Y-126127871D01*
X165653028Y-126137899D01*
X165652525Y-126147806D01*
X165652512Y-126149364D01*
X165653980Y-126159518D01*
X165659763Y-126167416D01*
X165669932Y-126170349D01*
X165671074Y-126170369D01*
X165681235Y-126168080D01*
X165689483Y-126162103D01*
X165696100Y-126153677D01*
X165699895Y-126146922D01*
X165706715Y-126133645D01*
X165713801Y-126120681D01*
X165721155Y-126108030D01*
X165728777Y-126095692D01*
X165736665Y-126083667D01*
X165744820Y-126071955D01*
X165753243Y-126060555D01*
X165761933Y-126049469D01*
X165770889Y-126038696D01*
X165780113Y-126028235D01*
X165789604Y-126018088D01*
X165799363Y-126008253D01*
X165809388Y-125998732D01*
X165819681Y-125989523D01*
X165830240Y-125980627D01*
X165841067Y-125972044D01*
X165852130Y-125963881D01*
X165863396Y-125956245D01*
X165874867Y-125949135D01*
X165886542Y-125942552D01*
X165898421Y-125936495D01*
X165910505Y-125930966D01*
X165922792Y-125925962D01*
X165935284Y-125921486D01*
X165947980Y-125917536D01*
X165960880Y-125914113D01*
X165973984Y-125911216D01*
X165987292Y-125908846D01*
X166000805Y-125907003D01*
X166014522Y-125905686D01*
X166028442Y-125904896D01*
X166042568Y-125904633D01*
X166060696Y-125905117D01*
X166078322Y-125906568D01*
X166095447Y-125908987D01*
X166112070Y-125912373D01*
X166128191Y-125916726D01*
X166143810Y-125922047D01*
X166158927Y-125928335D01*
X166173543Y-125935591D01*
X166187656Y-125943814D01*
X166201268Y-125953005D01*
X166214378Y-125963163D01*
X166226986Y-125974288D01*
X166239092Y-125986381D01*
X166250697Y-125999441D01*
X166261799Y-126013469D01*
X166272400Y-126028464D01*
X166282426Y-126044089D01*
X166291806Y-126060067D01*
X166300539Y-126076398D01*
X166308624Y-126093082D01*
X166316063Y-126110119D01*
X166322855Y-126127509D01*
X166329000Y-126145251D01*
X166334499Y-126163347D01*
X166339350Y-126181796D01*
X166343555Y-126200598D01*
X166347113Y-126219753D01*
X166348649Y-126229463D01*
X166350023Y-126239261D01*
X166351236Y-126249147D01*
X166352288Y-126259122D01*
X166353177Y-126269185D01*
X166353905Y-126279336D01*
X166354471Y-126289575D01*
X166354875Y-126299903D01*
X166355118Y-126310319D01*
X166355198Y-126320823D01*
X166355109Y-126332511D01*
X166354841Y-126344065D01*
X166354393Y-126355487D01*
X166353767Y-126366775D01*
X166352962Y-126377930D01*
X166351978Y-126388952D01*
X166350816Y-126399841D01*
X166349474Y-126410597D01*
X166347953Y-126421220D01*
X166346254Y-126431710D01*
X166344376Y-126442067D01*
X166342318Y-126452290D01*
X166340082Y-126462381D01*
X166337667Y-126472338D01*
X166335073Y-126482163D01*
X166332301Y-126491854D01*
X166329349Y-126501412D01*
X166326218Y-126510837D01*
X166322909Y-126520129D01*
X166319421Y-126529288D01*
X166311907Y-126547206D01*
X166303678Y-126564593D01*
X166294734Y-126581446D01*
X166285074Y-126597768D01*
X166274698Y-126613557D01*
X166263607Y-126628813D01*
X166252001Y-126643335D01*
X166240141Y-126656920D01*
X166228027Y-126669568D01*
X166215659Y-126681280D01*
X166203038Y-126692054D01*
X166190163Y-126701891D01*
X166177034Y-126710792D01*
X166163651Y-126718756D01*
X166150014Y-126725782D01*
X166136124Y-126731872D01*
X166121980Y-126737025D01*
X166107582Y-126741241D01*
X166092930Y-126744520D01*
X166078025Y-126746863D01*
X166062865Y-126748268D01*
X166047452Y-126748736D01*
X166037546Y-126748524D01*
X166027609Y-126747886D01*
X166017642Y-126746824D01*
X166007645Y-126745336D01*
X165997618Y-126743423D01*
X165987560Y-126741086D01*
X165977473Y-126738323D01*
X165967356Y-126735135D01*
X165957209Y-126731522D01*
X165947031Y-126727484D01*
X165940230Y-126724556D01*
X165930317Y-126719934D01*
X165921096Y-126715226D01*
X165912566Y-126710431D01*
X165902267Y-126703905D01*
X165893198Y-126697227D01*
X165885357Y-126690396D01*
X165877285Y-126681642D01*
X165871132Y-126672650D01*
X165870132Y-126670823D01*
X165865629Y-126661038D01*
X165861889Y-126650000D01*
X165859446Y-126640269D01*
X165857493Y-126629736D01*
X165856027Y-126618401D01*
X165855050Y-126606266D01*
X165854562Y-126593328D01*
X165854501Y-126586559D01*
X165854537Y-126571713D01*
X165854646Y-126557582D01*
X165854827Y-126544167D01*
X165855081Y-126531467D01*
X165855407Y-126519483D01*
X165855806Y-126508214D01*
X165856277Y-126497661D01*
X165856821Y-126487824D01*
X165857773Y-126474409D01*
X165858887Y-126462605D01*
X165860165Y-126452410D01*
X165862123Y-126441322D01*
X165863782Y-126434884D01*
X165867683Y-126424188D01*
X165872426Y-126414814D01*
X165878010Y-126406763D01*
X165885588Y-126399041D01*
X165894312Y-126393119D01*
X165903835Y-126388934D01*
X165914145Y-126385631D01*
X165923947Y-126383108D01*
X165935131Y-126380692D01*
X165947696Y-126378384D01*
X165958026Y-126376722D01*
X165969134Y-126375121D01*
X165981018Y-126373579D01*
X165990916Y-126372080D01*
X166000069Y-126368572D01*
X166006196Y-126360368D01*
X166006420Y-126357948D01*
X166003054Y-126348422D01*
X165994054Y-126343553D01*
X165983956Y-126342332D01*
X165982484Y-126342316D01*
X165878681Y-126342316D01*
X165561898Y-126342316D01*
X165551626Y-126343282D01*
X165542724Y-126348088D01*
X165540648Y-126354528D01*
X165546131Y-126362900D01*
X165548953Y-126364054D01*
X165559511Y-126366281D01*
X165569357Y-126367959D01*
X165579766Y-126369606D01*
X165589535Y-126371086D01*
X165600587Y-126372712D01*
X165606594Y-126373579D01*
X165617540Y-126376536D01*
X165627173Y-126379910D01*
X165637002Y-126384509D01*
X165646082Y-126390635D01*
X165653310Y-126398638D01*
X165653977Y-126399713D01*
X165657070Y-126409629D01*
X165658816Y-126419894D01*
X165660481Y-126433396D01*
X165661546Y-126444197D01*
X165662575Y-126456435D01*
X165663567Y-126470113D01*
X165664523Y-126485229D01*
X165665443Y-126501784D01*
X165666326Y-126519778D01*
X165667173Y-126539211D01*
X165667583Y-126549467D01*
X165667984Y-126560082D01*
X165668376Y-126571057D01*
X165668759Y-126582392D01*
X165669133Y-126594087D01*
X165669497Y-126606141D01*
X165669853Y-126618555D01*
X165670219Y-126629172D01*
X165670677Y-126640704D01*
X165671227Y-126651993D01*
X165671960Y-126662717D01*
X165672784Y-126668869D01*
X165681251Y-126675686D01*
X165691263Y-126681688D01*
X165702046Y-126687735D01*
X165711751Y-126692997D01*
X165722843Y-126698881D01*
X165735321Y-126705387D01*
X165744411Y-126710071D01*
X165754117Y-126715031D01*
X165764120Y-126720048D01*
X165774164Y-126724904D01*
X165784247Y-126729597D01*
X165794371Y-126734128D01*
X165804535Y-126738496D01*
X165814739Y-126742703D01*
X165824982Y-126746747D01*
X165835266Y-126750629D01*
X165845590Y-126754349D01*
X165855955Y-126757907D01*
X165866359Y-126761303D01*
X165876803Y-126764536D01*
X165887287Y-126767607D01*
X165897812Y-126770516D01*
X165908376Y-126773263D01*
X165918981Y-126775847D01*
X165929571Y-126778243D01*
X165940153Y-126780484D01*
X165950728Y-126782571D01*
X165961296Y-126784503D01*
X165971855Y-126786280D01*
X165982407Y-126787903D01*
X165992952Y-126789371D01*
X166003489Y-126790685D01*
X166014018Y-126791844D01*
X166024539Y-126792849D01*
X166035053Y-126793699D01*
X166045560Y-126794395D01*
X166056058Y-126794936D01*
X166066549Y-126795322D01*
X166077032Y-126795554D01*
X166087508Y-126795631D01*
X166105068Y-126795414D01*
X166122393Y-126794765D01*
X166139483Y-126793682D01*
X166156339Y-126792166D01*
X166172960Y-126790217D01*
X166189346Y-126787834D01*
X166205498Y-126785019D01*
X166221414Y-126781770D01*
X166237096Y-126778088D01*
X166252544Y-126773974D01*
X166267757Y-126769426D01*
X166282735Y-126764444D01*
X166297478Y-126759030D01*
X166311986Y-126753182D01*
X166326260Y-126746902D01*
X166340300Y-126740188D01*
X166354023Y-126733050D01*
X166367411Y-126725556D01*
X166380462Y-126717708D01*
X166393178Y-126709505D01*
X166405558Y-126700947D01*
X166417602Y-126692034D01*
X166429311Y-126682766D01*
X166440683Y-126673143D01*
X166451720Y-126663166D01*
X166462421Y-126652833D01*
X166472786Y-126642145D01*
X166482815Y-126631103D01*
X166492509Y-126619706D01*
X166501866Y-126607953D01*
X166510888Y-126595846D01*
X166519574Y-126583384D01*
X166527796Y-126570594D01*
X166535488Y-126557502D01*
X166542649Y-126544109D01*
X166549280Y-126530414D01*
X166555380Y-126516418D01*
X166560950Y-126502120D01*
X166565990Y-126487521D01*
X166570498Y-126472620D01*
X166574477Y-126457418D01*
X166577925Y-126441914D01*
X166580843Y-126426109D01*
X166583230Y-126410002D01*
X166585086Y-126393594D01*
X166586412Y-126376884D01*
X166587208Y-126359873D01*
X166587473Y-126342561D01*
X166587340Y-126330264D01*
X166586941Y-126318072D01*
X166586275Y-126305986D01*
X166585344Y-126294006D01*
X166584146Y-126282131D01*
X166582682Y-126270361D01*
X166580952Y-126258697D01*
X166578955Y-126247138D01*
X166576693Y-126235685D01*
X166574164Y-126224337D01*
X166571369Y-126213094D01*
X166568308Y-126201957D01*
X166564981Y-126190925D01*
X166561387Y-126179999D01*
X166557527Y-126169178D01*
X166553401Y-126158463D01*
X166549009Y-126147853D01*
X166544351Y-126137348D01*
X166539427Y-126126949D01*
X166534236Y-126116655D01*
X166528779Y-126106467D01*
X166523056Y-126096384D01*
X166517067Y-126086406D01*
X166510812Y-126076534D01*
X166504290Y-126066768D01*
X166497502Y-126057107D01*
X166490448Y-126047551D01*
X166483128Y-126038100D01*
X166475542Y-126028755D01*
X166467689Y-126019516D01*
X166459571Y-126010382D01*
X166451186Y-126001353D01*
X166442555Y-125992518D01*
X166433727Y-125983962D01*
X166424704Y-125975688D01*
X166415484Y-125967694D01*
X166406069Y-125959980D01*
X166396457Y-125952547D01*
X166386650Y-125945394D01*
X166376646Y-125938522D01*
X166366446Y-125931930D01*
X166356050Y-125925619D01*
X166345458Y-125919588D01*
X166334671Y-125913838D01*
X166323687Y-125908368D01*
X166312506Y-125903179D01*
X166301130Y-125898270D01*
X166289558Y-125893642D01*
X166277790Y-125889294D01*
X166265826Y-125885227D01*
X166253665Y-125881441D01*
X166241309Y-125877934D01*
X166228756Y-125874709D01*
X166216008Y-125871763D01*
X166203063Y-125869099D01*
X166189922Y-125866714D01*
X166176586Y-125864611D01*
X166163053Y-125862787D01*
X166149324Y-125861245D01*
X166135399Y-125859982D01*
X166121278Y-125859001D01*
X166106961Y-125858300D01*
X166092448Y-125857879D01*
X166077739Y-125857739D01*
X166067330Y-125857811D01*
X166057047Y-125858029D01*
X166046889Y-125858391D01*
X166036858Y-125858899D01*
X166026953Y-125859551D01*
X166017174Y-125860349D01*
X166002741Y-125861817D01*
X165988592Y-125863612D01*
X165974726Y-125865733D01*
X165961143Y-125868180D01*
X165947844Y-125870953D01*
X165934828Y-125874053D01*
X165926308Y-125876301D01*
X165913462Y-125879877D01*
X165900293Y-125883737D01*
X165886803Y-125887880D01*
X165872990Y-125892307D01*
X165863603Y-125895415D01*
X165854073Y-125898649D01*
X165844400Y-125902009D01*
X165834583Y-125905496D01*
X165824624Y-125909108D01*
X165814521Y-125912846D01*
X165804275Y-125916710D01*
X165793886Y-125920700D01*
X165783354Y-125924816D01*
X165772679Y-125929057D01*
X165763429Y-125932363D01*
X165753121Y-125934935D01*
X165743126Y-125935896D01*
X165733726Y-125933045D01*
X165726619Y-125925424D01*
X165721877Y-125915624D01*
X165718081Y-125906577D01*
X165712326Y-125897425D01*
X165704016Y-125890665D01*
X165696475Y-125889002D01*
X165687174Y-125892363D01*
X165680820Y-125900996D01*
X165677236Y-125910956D01*
X165675024Y-125921539D01*
X165673761Y-125931500D01*
G37*
G36*
X165227041Y-125875324D02*
G01*
X165206585Y-125898103D01*
X165186343Y-125920645D01*
X165166314Y-125942950D01*
X165146498Y-125965018D01*
X165126895Y-125986849D01*
X165107506Y-126008443D01*
X165088330Y-126029800D01*
X165069367Y-126050919D01*
X165050617Y-126071802D01*
X165032080Y-126092447D01*
X165013757Y-126112856D01*
X164995647Y-126133027D01*
X164977751Y-126152961D01*
X164960067Y-126172658D01*
X164942597Y-126192118D01*
X164925340Y-126211341D01*
X164908296Y-126230327D01*
X164891465Y-126249076D01*
X164874848Y-126267587D01*
X164858444Y-126285862D01*
X164842253Y-126303899D01*
X164826275Y-126321700D01*
X164810511Y-126339263D01*
X164794960Y-126356589D01*
X164779622Y-126373678D01*
X164764497Y-126390530D01*
X164749586Y-126407145D01*
X164734888Y-126423523D01*
X164720403Y-126439664D01*
X164706131Y-126455568D01*
X164692072Y-126471234D01*
X164678227Y-126486664D01*
X164678055Y-126475223D01*
X164677906Y-126464835D01*
X164677753Y-126453331D01*
X164677635Y-126443473D01*
X164677529Y-126432437D01*
X164677494Y-126424626D01*
X164676762Y-126145212D01*
X164676804Y-126133097D01*
X164676933Y-126121418D01*
X164677148Y-126110176D01*
X164677448Y-126099371D01*
X164677835Y-126089003D01*
X164678307Y-126079072D01*
X164679177Y-126064995D01*
X164680239Y-126051901D01*
X164681495Y-126039790D01*
X164682944Y-126028663D01*
X164684586Y-126018518D01*
X164687076Y-126006522D01*
X164687752Y-126003796D01*
X164690889Y-125993393D01*
X164694805Y-125983554D01*
X164699499Y-125974281D01*
X164704972Y-125965572D01*
X164711223Y-125957428D01*
X164718252Y-125949849D01*
X164726060Y-125942834D01*
X164734647Y-125936385D01*
X164743745Y-125930538D01*
X164753210Y-125925333D01*
X164763040Y-125920768D01*
X164773237Y-125916845D01*
X164783801Y-125913563D01*
X164794731Y-125910922D01*
X164806027Y-125908923D01*
X164817690Y-125907564D01*
X164827587Y-125905697D01*
X164836741Y-125901580D01*
X164842694Y-125893085D01*
X164843091Y-125889490D01*
X164839794Y-125879667D01*
X164830978Y-125874645D01*
X164821086Y-125873386D01*
X164819644Y-125873370D01*
X164809849Y-125873370D01*
X164799393Y-125873370D01*
X164788717Y-125873370D01*
X164786182Y-125873370D01*
X164775787Y-125873370D01*
X164764262Y-125873370D01*
X164751607Y-125873370D01*
X164741374Y-125873370D01*
X164730506Y-125873370D01*
X164719003Y-125873370D01*
X164706864Y-125873370D01*
X164694090Y-125873370D01*
X164680681Y-125873370D01*
X164671388Y-125873370D01*
X164659719Y-125873370D01*
X164648403Y-125873370D01*
X164637439Y-125873370D01*
X164626829Y-125873370D01*
X164616572Y-125873370D01*
X164606668Y-125873370D01*
X164592473Y-125873370D01*
X164579073Y-125873370D01*
X164566467Y-125873370D01*
X164554655Y-125873370D01*
X164543638Y-125873370D01*
X164533415Y-125873370D01*
X164527041Y-125873370D01*
X164517164Y-125873370D01*
X164506965Y-125873370D01*
X164496766Y-125873370D01*
X164492114Y-125873370D01*
X164481931Y-125874130D01*
X164472513Y-125877339D01*
X164466388Y-125885525D01*
X164465980Y-125889246D01*
X164470107Y-125898410D01*
X164479623Y-125903805D01*
X164490845Y-125906692D01*
X164500907Y-125908053D01*
X164511680Y-125909526D01*
X164522263Y-125911869D01*
X164532654Y-125915082D01*
X164542855Y-125919166D01*
X164552866Y-125924119D01*
X164562685Y-125929943D01*
X164572313Y-125936637D01*
X164581751Y-125944200D01*
X164590509Y-125953104D01*
X164596312Y-125961049D01*
X164601457Y-125970080D01*
X164605946Y-125980197D01*
X164609778Y-125991400D01*
X164612953Y-126003690D01*
X164615471Y-126017066D01*
X164617332Y-126031528D01*
X164618208Y-126041773D01*
X164618792Y-126052500D01*
X164619084Y-126063711D01*
X164619120Y-126069497D01*
X164615701Y-126453691D01*
X164620586Y-126742630D01*
X164621152Y-126753396D01*
X164623327Y-126763906D01*
X164627927Y-126772847D01*
X164635903Y-126778686D01*
X164643789Y-126780000D01*
X164653444Y-126778152D01*
X164658443Y-126776092D01*
X164667358Y-126768673D01*
X164675479Y-126760956D01*
X164683173Y-126753416D01*
X164692240Y-126744372D01*
X164702682Y-126733827D01*
X164710406Y-126725961D01*
X164718741Y-126717428D01*
X164727686Y-126708227D01*
X164737242Y-126698358D01*
X164747409Y-126687821D01*
X164752721Y-126682302D01*
X164763826Y-126670682D01*
X164775584Y-126658290D01*
X164787998Y-126645128D01*
X164801066Y-126631195D01*
X164807845Y-126623939D01*
X164814788Y-126616490D01*
X164821895Y-126608849D01*
X164829165Y-126601015D01*
X164836599Y-126592989D01*
X164844197Y-126584769D01*
X164851958Y-126576357D01*
X164859883Y-126567752D01*
X164867971Y-126558955D01*
X164876223Y-126549965D01*
X164884639Y-126540782D01*
X164893218Y-126531406D01*
X164901961Y-126521838D01*
X164910867Y-126512077D01*
X164919937Y-126502123D01*
X164929171Y-126491976D01*
X164938569Y-126481637D01*
X164948130Y-126471105D01*
X164957854Y-126460380D01*
X164967743Y-126449463D01*
X164977794Y-126438352D01*
X164988010Y-126427050D01*
X164998389Y-126415554D01*
X165008932Y-126403866D01*
X165019457Y-126392185D01*
X165029785Y-126380712D01*
X165039915Y-126369447D01*
X165049846Y-126358391D01*
X165059580Y-126347542D01*
X165069116Y-126336901D01*
X165078453Y-126326468D01*
X165087593Y-126316243D01*
X165096535Y-126306227D01*
X165105279Y-126296418D01*
X165113825Y-126286817D01*
X165122173Y-126277424D01*
X165130323Y-126268239D01*
X165138275Y-126259262D01*
X165146029Y-126250493D01*
X165153585Y-126241933D01*
X165160943Y-126233580D01*
X165168103Y-126225435D01*
X165175065Y-126217498D01*
X165181829Y-126209769D01*
X165188395Y-126202248D01*
X165200934Y-126187830D01*
X165212680Y-126174244D01*
X165223635Y-126161490D01*
X165233798Y-126149568D01*
X165243169Y-126138478D01*
X165247557Y-126133244D01*
X165247979Y-126146612D01*
X165248198Y-126161897D01*
X165248330Y-126175114D01*
X165248450Y-126190752D01*
X165248559Y-126208812D01*
X165248609Y-126218750D01*
X165248656Y-126229293D01*
X165248701Y-126240442D01*
X165248742Y-126252195D01*
X165248781Y-126264555D01*
X165248816Y-126277519D01*
X165248849Y-126291089D01*
X165248879Y-126305265D01*
X165248907Y-126320046D01*
X165248931Y-126335432D01*
X165248952Y-126351423D01*
X165248971Y-126368020D01*
X165248987Y-126385222D01*
X165249000Y-126403030D01*
X165249010Y-126421443D01*
X165249017Y-126440461D01*
X165249021Y-126460085D01*
X165249023Y-126480314D01*
X165248989Y-126492813D01*
X165248889Y-126504971D01*
X165248722Y-126516787D01*
X165248488Y-126528261D01*
X165248188Y-126539395D01*
X165247820Y-126550186D01*
X165247386Y-126560636D01*
X165246885Y-126570744D01*
X165246318Y-126580511D01*
X165245341Y-126594521D01*
X165244214Y-126607762D01*
X165242937Y-126620235D01*
X165241509Y-126631940D01*
X165240474Y-126639316D01*
X165238508Y-126649844D01*
X165235906Y-126659815D01*
X165232669Y-126669227D01*
X165227364Y-126680909D01*
X165220930Y-126691598D01*
X165213366Y-126701296D01*
X165204672Y-126710001D01*
X165194849Y-126717713D01*
X165186741Y-126722847D01*
X165175643Y-126728915D01*
X165164820Y-126734173D01*
X165154272Y-126738623D01*
X165143998Y-126742264D01*
X165133999Y-126745096D01*
X165124275Y-126747118D01*
X165112507Y-126748509D01*
X165105652Y-126748736D01*
X165095394Y-126749637D01*
X165086074Y-126753817D01*
X165082205Y-126763147D01*
X165085120Y-126772742D01*
X165093864Y-126778354D01*
X165103886Y-126779934D01*
X165106873Y-126780000D01*
X165117583Y-126780000D01*
X165128567Y-126780000D01*
X165139402Y-126780000D01*
X165146685Y-126780000D01*
X165157355Y-126780000D01*
X165168728Y-126780000D01*
X165180802Y-126780000D01*
X165193579Y-126780000D01*
X165203623Y-126780000D01*
X165214061Y-126780000D01*
X165224895Y-126780000D01*
X165236123Y-126780000D01*
X165247747Y-126780000D01*
X165251709Y-126780000D01*
X165264282Y-126780000D01*
X165276416Y-126780000D01*
X165288111Y-126780000D01*
X165299367Y-126780000D01*
X165310184Y-126780000D01*
X165320563Y-126780000D01*
X165330502Y-126780000D01*
X165344589Y-126780000D01*
X165357688Y-126780000D01*
X165369799Y-126780000D01*
X165380923Y-126780000D01*
X165391060Y-126780000D01*
X165400209Y-126780000D01*
X165410433Y-126780000D01*
X165420885Y-126780000D01*
X165430883Y-126780000D01*
X165441242Y-126780000D01*
X165451710Y-126779205D01*
X165461392Y-126775847D01*
X165467452Y-126768176D01*
X165468108Y-126763391D01*
X165462029Y-126755606D01*
X165451221Y-126751942D01*
X165439569Y-126749996D01*
X165427537Y-126748899D01*
X165424877Y-126748736D01*
X165410825Y-126747227D01*
X165397795Y-126744987D01*
X165385787Y-126742017D01*
X165374800Y-126738318D01*
X165364835Y-126733889D01*
X165355892Y-126728729D01*
X165347971Y-126722840D01*
X165338999Y-126713853D01*
X165331843Y-126703568D01*
X165327669Y-126695003D01*
X165324177Y-126685768D01*
X165321028Y-126675923D01*
X165318223Y-126665469D01*
X165315762Y-126654405D01*
X165313644Y-126642732D01*
X165311869Y-126630448D01*
X165310438Y-126617556D01*
X165309351Y-126604053D01*
X165308606Y-126589941D01*
X165308206Y-126575219D01*
X165308129Y-126565066D01*
X165308133Y-126543079D01*
X165308145Y-126521634D01*
X165308164Y-126500728D01*
X165308190Y-126480363D01*
X165308225Y-126460539D01*
X165308267Y-126441255D01*
X165308316Y-126422511D01*
X165308374Y-126404308D01*
X165308438Y-126386646D01*
X165308511Y-126369524D01*
X165308591Y-126352942D01*
X165308679Y-126336901D01*
X165308774Y-126321400D01*
X165308877Y-126306440D01*
X165308988Y-126292021D01*
X165309106Y-126278142D01*
X165309232Y-126264803D01*
X165309366Y-126252005D01*
X165309507Y-126239747D01*
X165309656Y-126228030D01*
X165309812Y-126216853D01*
X165309976Y-126206217D01*
X165310148Y-126196121D01*
X165310514Y-126177551D01*
X165310911Y-126161143D01*
X165311339Y-126146897D01*
X165311797Y-126134812D01*
X165312037Y-126129581D01*
X165312659Y-126119719D01*
X165313609Y-126109976D01*
X165315650Y-126095589D01*
X165318429Y-126081472D01*
X165321947Y-126067625D01*
X165326203Y-126054049D01*
X165331198Y-126040743D01*
X165336931Y-126027708D01*
X165343402Y-126014943D01*
X165350612Y-126002449D01*
X165358561Y-125990225D01*
X165361374Y-125986210D01*
X165370103Y-125974621D01*
X165379163Y-125963942D01*
X165388553Y-125954173D01*
X165398274Y-125945315D01*
X165408325Y-125937366D01*
X165418707Y-125930328D01*
X165429420Y-125924200D01*
X165440463Y-125918982D01*
X165451837Y-125914675D01*
X165463541Y-125911277D01*
X165471528Y-125909518D01*
X165481996Y-125906983D01*
X165491678Y-125902557D01*
X165497975Y-125894612D01*
X165498394Y-125891444D01*
X165495652Y-125881913D01*
X165487423Y-125875912D01*
X165476890Y-125873652D01*
X165470307Y-125873370D01*
X165459947Y-125873370D01*
X165450279Y-125873370D01*
X165439359Y-125873370D01*
X165428114Y-125873370D01*
X165416559Y-125873370D01*
X165405579Y-125873370D01*
X165393370Y-125873370D01*
X165382245Y-125873378D01*
X165371216Y-125873401D01*
X165360286Y-125873439D01*
X165349452Y-125873492D01*
X165338716Y-125873561D01*
X165328077Y-125873645D01*
X165317536Y-125873744D01*
X165307091Y-125873859D01*
X165296744Y-125873988D01*
X165286495Y-125874133D01*
X165276342Y-125874294D01*
X165266287Y-125874469D01*
X165256330Y-125874660D01*
X165246469Y-125874866D01*
X165231861Y-125875204D01*
X165227041Y-125875324D01*
G37*
G36*
X163883461Y-125901946D02*
G01*
X163876832Y-125894699D01*
X163870695Y-125885944D01*
X163865631Y-125877278D01*
X163860334Y-125868729D01*
X163853240Y-125861478D01*
X163844036Y-125857815D01*
X163842428Y-125857739D01*
X163832234Y-125860577D01*
X163825465Y-125867985D01*
X163821363Y-125878430D01*
X163819713Y-125886803D01*
X163795533Y-126068032D01*
X163792847Y-126090013D01*
X163795040Y-126100165D01*
X163803288Y-126106729D01*
X163811409Y-126107843D01*
X163821313Y-126106795D01*
X163830182Y-126102628D01*
X163831437Y-126101493D01*
X163837562Y-126092677D01*
X163842563Y-126083791D01*
X163847686Y-126073980D01*
X163852546Y-126064255D01*
X163854640Y-126059972D01*
X163860521Y-126048859D01*
X163867079Y-126037961D01*
X163874316Y-126027278D01*
X163882232Y-126016809D01*
X163890826Y-126006555D01*
X163900098Y-125996516D01*
X163910048Y-125986692D01*
X163920677Y-125977082D01*
X163931984Y-125967686D01*
X163939899Y-125961542D01*
X163948116Y-125955493D01*
X163952337Y-125952505D01*
X163960828Y-125946708D01*
X163969324Y-125941285D01*
X163977825Y-125936236D01*
X163990589Y-125929364D01*
X164003365Y-125923333D01*
X164016154Y-125918144D01*
X164028956Y-125913796D01*
X164041771Y-125910290D01*
X164054599Y-125907625D01*
X164067439Y-125905802D01*
X164080293Y-125904820D01*
X164088869Y-125904633D01*
X164101176Y-125904972D01*
X164113092Y-125905990D01*
X164124617Y-125907686D01*
X164135752Y-125910060D01*
X164146496Y-125913112D01*
X164156850Y-125916843D01*
X164166812Y-125921253D01*
X164176384Y-125926340D01*
X164185566Y-125932106D01*
X164194356Y-125938550D01*
X164200000Y-125943224D01*
X164207900Y-125950589D01*
X164215023Y-125958307D01*
X164221370Y-125966377D01*
X164226939Y-125974800D01*
X164231731Y-125983574D01*
X164235746Y-125992700D01*
X164238984Y-126002178D01*
X164241444Y-126012008D01*
X164243128Y-126022191D01*
X164244035Y-126032725D01*
X164244207Y-126039944D01*
X164243563Y-126051408D01*
X164241628Y-126062597D01*
X164238403Y-126073512D01*
X164233888Y-126084152D01*
X164228084Y-126094517D01*
X164220989Y-126104607D01*
X164212605Y-126114422D01*
X164205470Y-126121604D01*
X164202930Y-126123963D01*
X164194521Y-126130972D01*
X164184772Y-126137985D01*
X164173684Y-126145003D01*
X164161256Y-126152024D01*
X164152227Y-126156708D01*
X164142602Y-126161393D01*
X164132382Y-126166081D01*
X164121567Y-126170770D01*
X164110156Y-126175461D01*
X164098150Y-126180154D01*
X164085549Y-126184849D01*
X164072352Y-126189546D01*
X164058560Y-126194245D01*
X164044173Y-126198946D01*
X164032794Y-126202686D01*
X164021647Y-126206456D01*
X164010732Y-126210257D01*
X164000049Y-126214089D01*
X163989597Y-126217951D01*
X163979378Y-126221844D01*
X163969390Y-126225767D01*
X163959634Y-126229720D01*
X163950110Y-126233705D01*
X163940818Y-126237719D01*
X163931757Y-126241765D01*
X163914332Y-126249947D01*
X163897834Y-126258251D01*
X163882264Y-126266677D01*
X163867621Y-126275226D01*
X163853905Y-126283896D01*
X163841117Y-126292689D01*
X163829256Y-126301604D01*
X163818322Y-126310641D01*
X163808316Y-126319800D01*
X163799237Y-126329081D01*
X163795045Y-126333768D01*
X163787207Y-126343236D01*
X163779875Y-126352834D01*
X163773049Y-126362562D01*
X163766728Y-126372419D01*
X163760913Y-126382406D01*
X163755603Y-126392523D01*
X163750800Y-126402770D01*
X163746502Y-126413147D01*
X163742709Y-126423653D01*
X163739422Y-126434289D01*
X163736641Y-126445055D01*
X163734366Y-126455950D01*
X163732596Y-126466976D01*
X163731332Y-126478131D01*
X163730573Y-126489415D01*
X163730321Y-126500830D01*
X163730506Y-126512466D01*
X163731061Y-126523865D01*
X163731986Y-126535028D01*
X163733282Y-126545954D01*
X163734948Y-126556643D01*
X163736984Y-126567096D01*
X163739390Y-126577312D01*
X163742166Y-126587292D01*
X163745313Y-126597035D01*
X163748830Y-126606541D01*
X163752716Y-126615811D01*
X163756974Y-126624844D01*
X163761601Y-126633641D01*
X163766598Y-126642201D01*
X163771966Y-126650524D01*
X163777704Y-126658611D01*
X163783699Y-126666473D01*
X163789839Y-126674124D01*
X163799322Y-126685203D01*
X163809131Y-126695805D01*
X163819266Y-126705931D01*
X163829727Y-126715580D01*
X163840515Y-126724753D01*
X163851629Y-126733449D01*
X163863069Y-126741669D01*
X163874836Y-126749412D01*
X163886929Y-126756678D01*
X163891032Y-126758995D01*
X163903723Y-126765542D01*
X163917067Y-126771445D01*
X163926325Y-126775023D01*
X163935874Y-126778315D01*
X163945712Y-126781320D01*
X163955841Y-126784039D01*
X163966259Y-126786472D01*
X163976968Y-126788619D01*
X163987966Y-126790479D01*
X163999255Y-126792053D01*
X164010833Y-126793341D01*
X164022702Y-126794343D01*
X164034861Y-126795059D01*
X164047310Y-126795488D01*
X164060048Y-126795631D01*
X164071030Y-126795492D01*
X164082085Y-126795073D01*
X164093212Y-126794375D01*
X164104413Y-126793399D01*
X164115686Y-126792143D01*
X164127033Y-126790608D01*
X164138452Y-126788794D01*
X164149945Y-126786701D01*
X164161511Y-126784329D01*
X164173149Y-126781678D01*
X164180949Y-126779755D01*
X164192707Y-126776593D01*
X164204533Y-126773152D01*
X164216429Y-126769432D01*
X164228393Y-126765433D01*
X164240426Y-126761154D01*
X164252527Y-126756597D01*
X164264697Y-126751761D01*
X164276936Y-126746645D01*
X164289244Y-126741251D01*
X164301620Y-126735577D01*
X164309909Y-126731639D01*
X164316595Y-126739516D01*
X164322732Y-126748492D01*
X164327650Y-126757248D01*
X164332148Y-126766845D01*
X164333356Y-126769741D01*
X164337675Y-126778540D01*
X164344048Y-126787439D01*
X164352058Y-126793583D01*
X164360956Y-126795631D01*
X164370305Y-126792006D01*
X164375862Y-126783884D01*
X164379321Y-126772972D01*
X164380991Y-126763002D01*
X164381472Y-126758506D01*
X164401500Y-126508157D01*
X164402334Y-126498211D01*
X164402952Y-126488285D01*
X164402965Y-126487397D01*
X164401323Y-126477715D01*
X164394856Y-126470185D01*
X164384719Y-126467447D01*
X164382205Y-126467369D01*
X164372883Y-126470803D01*
X164365632Y-126478497D01*
X164360314Y-126487152D01*
X164355961Y-126496254D01*
X164353384Y-126502540D01*
X164348015Y-126515591D01*
X164342412Y-126528368D01*
X164336574Y-126540870D01*
X164330502Y-126553098D01*
X164324194Y-126565051D01*
X164317652Y-126576728D01*
X164310875Y-126588131D01*
X164303864Y-126599260D01*
X164296618Y-126610113D01*
X164289137Y-126620692D01*
X164281421Y-126630996D01*
X164273471Y-126641025D01*
X164265286Y-126650780D01*
X164256866Y-126660259D01*
X164248212Y-126669464D01*
X164239323Y-126678394D01*
X164230285Y-126686912D01*
X164221062Y-126694881D01*
X164211654Y-126702300D01*
X164202060Y-126709169D01*
X164192282Y-126715489D01*
X164182319Y-126721259D01*
X164172170Y-126726480D01*
X164161837Y-126731151D01*
X164151318Y-126735273D01*
X164140614Y-126738845D01*
X164129725Y-126741867D01*
X164118651Y-126744340D01*
X164107392Y-126746263D01*
X164095948Y-126747637D01*
X164084319Y-126748462D01*
X164072505Y-126748736D01*
X164062491Y-126748547D01*
X164052721Y-126747977D01*
X164038524Y-126746411D01*
X164024877Y-126743990D01*
X164011780Y-126740715D01*
X163999232Y-126736585D01*
X163987233Y-126731601D01*
X163975785Y-126725763D01*
X163964885Y-126719071D01*
X163954535Y-126711524D01*
X163944735Y-126703122D01*
X163941591Y-126700132D01*
X163932686Y-126690903D01*
X163924658Y-126681442D01*
X163917505Y-126671749D01*
X163911228Y-126661824D01*
X163905827Y-126651668D01*
X163901302Y-126641279D01*
X163897653Y-126630659D01*
X163894879Y-126619807D01*
X163892981Y-126608723D01*
X163891960Y-126597407D01*
X163891765Y-126589734D01*
X163892171Y-126578361D01*
X163893388Y-126567323D01*
X163895417Y-126556620D01*
X163898257Y-126546251D01*
X163901908Y-126536218D01*
X163906371Y-126526519D01*
X163911645Y-126517156D01*
X163917731Y-126508127D01*
X163924628Y-126499433D01*
X163932337Y-126491074D01*
X163937927Y-126485687D01*
X163947185Y-126477799D01*
X163957739Y-126469979D01*
X163969590Y-126462228D01*
X163978211Y-126457099D01*
X163987409Y-126452000D01*
X163997182Y-126446932D01*
X164007532Y-126441895D01*
X164018458Y-126436888D01*
X164029960Y-126431911D01*
X164042039Y-126426966D01*
X164054694Y-126422050D01*
X164067925Y-126417165D01*
X164081732Y-126412311D01*
X164096116Y-126407487D01*
X164103524Y-126405087D01*
X164117794Y-126400369D01*
X164131600Y-126395680D01*
X164144943Y-126391019D01*
X164157822Y-126386387D01*
X164170237Y-126381783D01*
X164182189Y-126377209D01*
X164193677Y-126372663D01*
X164204701Y-126368145D01*
X164215262Y-126363656D01*
X164225359Y-126359196D01*
X164234992Y-126354764D01*
X164244162Y-126350361D01*
X164257047Y-126343810D01*
X164268888Y-126337324D01*
X164276203Y-126333035D01*
X164286628Y-126326353D01*
X164296654Y-126319219D01*
X164306280Y-126311635D01*
X164315507Y-126303600D01*
X164324335Y-126295114D01*
X164332764Y-126286178D01*
X164340793Y-126276790D01*
X164348423Y-126266952D01*
X164355654Y-126256663D01*
X164362485Y-126245923D01*
X164366817Y-126238513D01*
X164372885Y-126227232D01*
X164378355Y-126215922D01*
X164383229Y-126204581D01*
X164387505Y-126193210D01*
X164391186Y-126181809D01*
X164394269Y-126170378D01*
X164396755Y-126158917D01*
X164398645Y-126147426D01*
X164399938Y-126135905D01*
X164400635Y-126124353D01*
X164400767Y-126116636D01*
X164400442Y-126103268D01*
X164399466Y-126090155D01*
X164397839Y-126077295D01*
X164395562Y-126064689D01*
X164392634Y-126052336D01*
X164389055Y-126040238D01*
X164384826Y-126028393D01*
X164379945Y-126016802D01*
X164374415Y-126005464D01*
X164368233Y-125994381D01*
X164361401Y-125983551D01*
X164353918Y-125972975D01*
X164345785Y-125962653D01*
X164337001Y-125952585D01*
X164327566Y-125942770D01*
X164317480Y-125933210D01*
X164306804Y-125924070D01*
X164295659Y-125915521D01*
X164284044Y-125907561D01*
X164271960Y-125900191D01*
X164259406Y-125893410D01*
X164246383Y-125887219D01*
X164232890Y-125881618D01*
X164218928Y-125876606D01*
X164204497Y-125872184D01*
X164189596Y-125868352D01*
X164174226Y-125865109D01*
X164158387Y-125862455D01*
X164142078Y-125860392D01*
X164125299Y-125858918D01*
X164108052Y-125858033D01*
X164090334Y-125857739D01*
X164080424Y-125857911D01*
X164070112Y-125858429D01*
X164059397Y-125859293D01*
X164048279Y-125860502D01*
X164036758Y-125862056D01*
X164024835Y-125863955D01*
X164012510Y-125866200D01*
X163999781Y-125868790D01*
X163986651Y-125871726D01*
X163973117Y-125875007D01*
X163959181Y-125878634D01*
X163944842Y-125882605D01*
X163930101Y-125886923D01*
X163914957Y-125891585D01*
X163899410Y-125896593D01*
X163883461Y-125901946D01*
G37*
G36*
X163125331Y-125901946D02*
G01*
X163118702Y-125894699D01*
X163112565Y-125885944D01*
X163107501Y-125877278D01*
X163102204Y-125868729D01*
X163095111Y-125861478D01*
X163085906Y-125857815D01*
X163084298Y-125857739D01*
X163074104Y-125860577D01*
X163067335Y-125867985D01*
X163063233Y-125878430D01*
X163061584Y-125886803D01*
X163037404Y-126068032D01*
X163034717Y-126090013D01*
X163036910Y-126100165D01*
X163045158Y-126106729D01*
X163053279Y-126107843D01*
X163063183Y-126106795D01*
X163072052Y-126102628D01*
X163073307Y-126101493D01*
X163079432Y-126092677D01*
X163084433Y-126083791D01*
X163089556Y-126073980D01*
X163094416Y-126064255D01*
X163096510Y-126059972D01*
X163102391Y-126048859D01*
X163108950Y-126037961D01*
X163116187Y-126027278D01*
X163124102Y-126016809D01*
X163132696Y-126006555D01*
X163141968Y-125996516D01*
X163151919Y-125986692D01*
X163162547Y-125977082D01*
X163173855Y-125967686D01*
X163181770Y-125961542D01*
X163189986Y-125955493D01*
X163194207Y-125952505D01*
X163202698Y-125946708D01*
X163211194Y-125941285D01*
X163219696Y-125936236D01*
X163232459Y-125929364D01*
X163245235Y-125923333D01*
X163258024Y-125918144D01*
X163270826Y-125913796D01*
X163283641Y-125910290D01*
X163296469Y-125907625D01*
X163309310Y-125905802D01*
X163322163Y-125904820D01*
X163330739Y-125904633D01*
X163343046Y-125904972D01*
X163354962Y-125905990D01*
X163366488Y-125907686D01*
X163377622Y-125910060D01*
X163388366Y-125913112D01*
X163398720Y-125916843D01*
X163408682Y-125921253D01*
X163418254Y-125926340D01*
X163427436Y-125932106D01*
X163436226Y-125938550D01*
X163441870Y-125943224D01*
X163449770Y-125950589D01*
X163456893Y-125958307D01*
X163463240Y-125966377D01*
X163468809Y-125974800D01*
X163473601Y-125983574D01*
X163477616Y-125992700D01*
X163480854Y-126002178D01*
X163483315Y-126012008D01*
X163484998Y-126022191D01*
X163485905Y-126032725D01*
X163486078Y-126039944D01*
X163485433Y-126051408D01*
X163483498Y-126062597D01*
X163480273Y-126073512D01*
X163475758Y-126084152D01*
X163469954Y-126094517D01*
X163462859Y-126104607D01*
X163454475Y-126114422D01*
X163447340Y-126121604D01*
X163444801Y-126123963D01*
X163436391Y-126130972D01*
X163426643Y-126137985D01*
X163415554Y-126145003D01*
X163403127Y-126152024D01*
X163394097Y-126156708D01*
X163384473Y-126161393D01*
X163374253Y-126166081D01*
X163363437Y-126170770D01*
X163352026Y-126175461D01*
X163340020Y-126180154D01*
X163327419Y-126184849D01*
X163314222Y-126189546D01*
X163300430Y-126194245D01*
X163286043Y-126198946D01*
X163274664Y-126202686D01*
X163263517Y-126206456D01*
X163252602Y-126210257D01*
X163241919Y-126214089D01*
X163231467Y-126217951D01*
X163221248Y-126221844D01*
X163211260Y-126225767D01*
X163201504Y-126229720D01*
X163191980Y-126233705D01*
X163182688Y-126237719D01*
X163173628Y-126241765D01*
X163156202Y-126249947D01*
X163139705Y-126258251D01*
X163124134Y-126266677D01*
X163109491Y-126275226D01*
X163095775Y-126283896D01*
X163082987Y-126292689D01*
X163071126Y-126301604D01*
X163060192Y-126310641D01*
X163050186Y-126319800D01*
X163041107Y-126329081D01*
X163036915Y-126333768D01*
X163029077Y-126343236D01*
X163021745Y-126352834D01*
X163014919Y-126362562D01*
X163008598Y-126372419D01*
X163002783Y-126382406D01*
X162997474Y-126392523D01*
X162992670Y-126402770D01*
X162988372Y-126413147D01*
X162984579Y-126423653D01*
X162981293Y-126434289D01*
X162978511Y-126445055D01*
X162976236Y-126455950D01*
X162974466Y-126466976D01*
X162973202Y-126478131D01*
X162972444Y-126489415D01*
X162972191Y-126500830D01*
X162972376Y-126512466D01*
X162972931Y-126523865D01*
X162973857Y-126535028D01*
X162975152Y-126545954D01*
X162976818Y-126556643D01*
X162978854Y-126567096D01*
X162981260Y-126577312D01*
X162984036Y-126587292D01*
X162987183Y-126597035D01*
X162990700Y-126606541D01*
X162994587Y-126615811D01*
X162998844Y-126624844D01*
X163003471Y-126633641D01*
X163008468Y-126642201D01*
X163013836Y-126650524D01*
X163019574Y-126658611D01*
X163025569Y-126666473D01*
X163031710Y-126674124D01*
X163041192Y-126685203D01*
X163051001Y-126695805D01*
X163061136Y-126705931D01*
X163071598Y-126715580D01*
X163082385Y-126724753D01*
X163093499Y-126733449D01*
X163104940Y-126741669D01*
X163116706Y-126749412D01*
X163128799Y-126756678D01*
X163132903Y-126758995D01*
X163145594Y-126765542D01*
X163158937Y-126771445D01*
X163168196Y-126775023D01*
X163177744Y-126778315D01*
X163187582Y-126781320D01*
X163197711Y-126784039D01*
X163208129Y-126786472D01*
X163218838Y-126788619D01*
X163229836Y-126790479D01*
X163241125Y-126792053D01*
X163252704Y-126793341D01*
X163264572Y-126794343D01*
X163276731Y-126795059D01*
X163289180Y-126795488D01*
X163301919Y-126795631D01*
X163312900Y-126795492D01*
X163323955Y-126795073D01*
X163335082Y-126794375D01*
X163346283Y-126793399D01*
X163357557Y-126792143D01*
X163368903Y-126790608D01*
X163380323Y-126788794D01*
X163391815Y-126786701D01*
X163403381Y-126784329D01*
X163415019Y-126781678D01*
X163422819Y-126779755D01*
X163434577Y-126776593D01*
X163446403Y-126773152D01*
X163458299Y-126769432D01*
X163470263Y-126765433D01*
X163482296Y-126761154D01*
X163494397Y-126756597D01*
X163506567Y-126751761D01*
X163518806Y-126746645D01*
X163531114Y-126741251D01*
X163543490Y-126735577D01*
X163551779Y-126731639D01*
X163558465Y-126739516D01*
X163564602Y-126748492D01*
X163569520Y-126757248D01*
X163574018Y-126766845D01*
X163575226Y-126769741D01*
X163579545Y-126778540D01*
X163585919Y-126787439D01*
X163593928Y-126793583D01*
X163602826Y-126795631D01*
X163612176Y-126792006D01*
X163617732Y-126783884D01*
X163621192Y-126772972D01*
X163622861Y-126763002D01*
X163623342Y-126758506D01*
X163643370Y-126508157D01*
X163644204Y-126498211D01*
X163644823Y-126488285D01*
X163644836Y-126487397D01*
X163643193Y-126477715D01*
X163636726Y-126470185D01*
X163626589Y-126467447D01*
X163624075Y-126467369D01*
X163614754Y-126470803D01*
X163607503Y-126478497D01*
X163602185Y-126487152D01*
X163597832Y-126496254D01*
X163595254Y-126502540D01*
X163589886Y-126515591D01*
X163584282Y-126528368D01*
X163578444Y-126540870D01*
X163572372Y-126553098D01*
X163566064Y-126565051D01*
X163559522Y-126576728D01*
X163552745Y-126588131D01*
X163545734Y-126599260D01*
X163538488Y-126610113D01*
X163531007Y-126620692D01*
X163523291Y-126630996D01*
X163515341Y-126641025D01*
X163507156Y-126650780D01*
X163498736Y-126660259D01*
X163490082Y-126669464D01*
X163481193Y-126678394D01*
X163472155Y-126686912D01*
X163462932Y-126694881D01*
X163453524Y-126702300D01*
X163443931Y-126709169D01*
X163434152Y-126715489D01*
X163424189Y-126721259D01*
X163414040Y-126726480D01*
X163403707Y-126731151D01*
X163393188Y-126735273D01*
X163382484Y-126738845D01*
X163371596Y-126741867D01*
X163360522Y-126744340D01*
X163349263Y-126746263D01*
X163337818Y-126747637D01*
X163326189Y-126748462D01*
X163314375Y-126748736D01*
X163304361Y-126748547D01*
X163294591Y-126747977D01*
X163280395Y-126746411D01*
X163266748Y-126743990D01*
X163253650Y-126740715D01*
X163241102Y-126736585D01*
X163229104Y-126731601D01*
X163217655Y-126725763D01*
X163206755Y-126719071D01*
X163196406Y-126711524D01*
X163186605Y-126703122D01*
X163183461Y-126700132D01*
X163174556Y-126690903D01*
X163166528Y-126681442D01*
X163159375Y-126671749D01*
X163153098Y-126661824D01*
X163147697Y-126651668D01*
X163143172Y-126641279D01*
X163139523Y-126630659D01*
X163136749Y-126619807D01*
X163134852Y-126608723D01*
X163133830Y-126597407D01*
X163133635Y-126589734D01*
X163134041Y-126578361D01*
X163135258Y-126567323D01*
X163137287Y-126556620D01*
X163140127Y-126546251D01*
X163143778Y-126536218D01*
X163148241Y-126526519D01*
X163153515Y-126517156D01*
X163159601Y-126508127D01*
X163166499Y-126499433D01*
X163174207Y-126491074D01*
X163179797Y-126485687D01*
X163189055Y-126477799D01*
X163199609Y-126469979D01*
X163211460Y-126462228D01*
X163220081Y-126457099D01*
X163229279Y-126452000D01*
X163239052Y-126446932D01*
X163249402Y-126441895D01*
X163260328Y-126436888D01*
X163271830Y-126431911D01*
X163283909Y-126426966D01*
X163296564Y-126422050D01*
X163309795Y-126417165D01*
X163323602Y-126412311D01*
X163337986Y-126407487D01*
X163345394Y-126405087D01*
X163359664Y-126400369D01*
X163373470Y-126395680D01*
X163386813Y-126391019D01*
X163399692Y-126386387D01*
X163412107Y-126381783D01*
X163424059Y-126377209D01*
X163435547Y-126372663D01*
X163446571Y-126368145D01*
X163457132Y-126363656D01*
X163467229Y-126359196D01*
X163476862Y-126354764D01*
X163486032Y-126350361D01*
X163498917Y-126343810D01*
X163510759Y-126337324D01*
X163518073Y-126333035D01*
X163528498Y-126326353D01*
X163538524Y-126319219D01*
X163548150Y-126311635D01*
X163557377Y-126303600D01*
X163566205Y-126295114D01*
X163574634Y-126286178D01*
X163582663Y-126276790D01*
X163590293Y-126266952D01*
X163597524Y-126256663D01*
X163604355Y-126245923D01*
X163608688Y-126238513D01*
X163614755Y-126227232D01*
X163620225Y-126215922D01*
X163625099Y-126204581D01*
X163629376Y-126193210D01*
X163633056Y-126181809D01*
X163636139Y-126170378D01*
X163638626Y-126158917D01*
X163640515Y-126147426D01*
X163641808Y-126135905D01*
X163642505Y-126124353D01*
X163642637Y-126116636D01*
X163642312Y-126103268D01*
X163641336Y-126090155D01*
X163639709Y-126077295D01*
X163637432Y-126064689D01*
X163634504Y-126052336D01*
X163630925Y-126040238D01*
X163626696Y-126028393D01*
X163621816Y-126016802D01*
X163616285Y-126005464D01*
X163610103Y-125994381D01*
X163603271Y-125983551D01*
X163595788Y-125972975D01*
X163587655Y-125962653D01*
X163578871Y-125952585D01*
X163569436Y-125942770D01*
X163559351Y-125933210D01*
X163548674Y-125924070D01*
X163537529Y-125915521D01*
X163525914Y-125907561D01*
X163513830Y-125900191D01*
X163501276Y-125893410D01*
X163488253Y-125887219D01*
X163474760Y-125881618D01*
X163460799Y-125876606D01*
X163446367Y-125872184D01*
X163431466Y-125868352D01*
X163416096Y-125865109D01*
X163400257Y-125862455D01*
X163383948Y-125860392D01*
X163367170Y-125858918D01*
X163349922Y-125858033D01*
X163332205Y-125857739D01*
X163322295Y-125857911D01*
X163311982Y-125858429D01*
X163301267Y-125859293D01*
X163290149Y-125860502D01*
X163278629Y-125862056D01*
X163266706Y-125863955D01*
X163254380Y-125866200D01*
X163241652Y-125868790D01*
X163228521Y-125871726D01*
X163214987Y-125875007D01*
X163201051Y-125878634D01*
X163186712Y-125882605D01*
X163171971Y-125886923D01*
X163156827Y-125891585D01*
X163141280Y-125896593D01*
X163125331Y-125901946D01*
G37*
X121961904Y-124722619D02*
X121390476Y-124722619D01*
X121676190Y-124722619D02*
X121676190Y-125722619D01*
X121676190Y-125722619D02*
X121580952Y-125579761D01*
X121580952Y-125579761D02*
X121485714Y-125484523D01*
X121485714Y-125484523D02*
X121390476Y-125436904D01*
X122847619Y-125722619D02*
X123180952Y-124722619D01*
X123180952Y-124722619D02*
X123514285Y-125722619D01*
X123847619Y-124722619D02*
X123847619Y-125722619D01*
X124323809Y-124722619D02*
X124323809Y-125722619D01*
X124323809Y-125722619D02*
X124895237Y-124722619D01*
X124895237Y-124722619D02*
X124895237Y-125722619D01*
X121390476Y-124007380D02*
X121438095Y-124055000D01*
X121438095Y-124055000D02*
X121533333Y-124102619D01*
X121533333Y-124102619D02*
X121771428Y-124102619D01*
X121771428Y-124102619D02*
X121866666Y-124055000D01*
X121866666Y-124055000D02*
X121914285Y-124007380D01*
X121914285Y-124007380D02*
X121961904Y-123912142D01*
X121961904Y-123912142D02*
X121961904Y-123816904D01*
X121961904Y-123816904D02*
X121914285Y-123674047D01*
X121914285Y-123674047D02*
X121342857Y-123102619D01*
X121342857Y-123102619D02*
X121961904Y-123102619D01*
X123561904Y-123197857D02*
X123514285Y-123150238D01*
X123514285Y-123150238D02*
X123371428Y-123102619D01*
X123371428Y-123102619D02*
X123276190Y-123102619D01*
X123276190Y-123102619D02*
X123133333Y-123150238D01*
X123133333Y-123150238D02*
X123038095Y-123245476D01*
X123038095Y-123245476D02*
X122990476Y-123340714D01*
X122990476Y-123340714D02*
X122942857Y-123531190D01*
X122942857Y-123531190D02*
X122942857Y-123674047D01*
X122942857Y-123674047D02*
X122990476Y-123864523D01*
X122990476Y-123864523D02*
X123038095Y-123959761D01*
X123038095Y-123959761D02*
X123133333Y-124055000D01*
X123133333Y-124055000D02*
X123276190Y-124102619D01*
X123276190Y-124102619D02*
X123371428Y-124102619D01*
X123371428Y-124102619D02*
X123514285Y-124055000D01*
X123514285Y-124055000D02*
X123561904Y-124007380D01*
X123942857Y-123388333D02*
X124419047Y-123388333D01*
X123847619Y-123102619D02*
X124180952Y-124102619D01*
X124180952Y-124102619D02*
X124514285Y-123102619D01*
X124847619Y-123102619D02*
X124847619Y-124102619D01*
X124847619Y-124102619D02*
X125419047Y-123102619D01*
X125419047Y-123102619D02*
X125419047Y-124102619D01*
X125657143Y-123007380D02*
X126419047Y-123007380D01*
X126609524Y-124007380D02*
X126657143Y-124055000D01*
X126657143Y-124055000D02*
X126752381Y-124102619D01*
X126752381Y-124102619D02*
X126990476Y-124102619D01*
X126990476Y-124102619D02*
X127085714Y-124055000D01*
X127085714Y-124055000D02*
X127133333Y-124007380D01*
X127133333Y-124007380D02*
X127180952Y-123912142D01*
X127180952Y-123912142D02*
X127180952Y-123816904D01*
X127180952Y-123816904D02*
X127133333Y-123674047D01*
X127133333Y-123674047D02*
X126561905Y-123102619D01*
X126561905Y-123102619D02*
X127180952Y-123102619D01*
X128085714Y-124102619D02*
X127609524Y-124102619D01*
X127609524Y-124102619D02*
X127561905Y-123626428D01*
X127561905Y-123626428D02*
X127609524Y-123674047D01*
X127609524Y-123674047D02*
X127704762Y-123721666D01*
X127704762Y-123721666D02*
X127942857Y-123721666D01*
X127942857Y-123721666D02*
X128038095Y-123674047D01*
X128038095Y-123674047D02*
X128085714Y-123626428D01*
X128085714Y-123626428D02*
X128133333Y-123531190D01*
X128133333Y-123531190D02*
X128133333Y-123293095D01*
X128133333Y-123293095D02*
X128085714Y-123197857D01*
X128085714Y-123197857D02*
X128038095Y-123150238D01*
X128038095Y-123150238D02*
X127942857Y-123102619D01*
X127942857Y-123102619D02*
X127704762Y-123102619D01*
X127704762Y-123102619D02*
X127609524Y-123150238D01*
X127609524Y-123150238D02*
X127561905Y-123197857D01*
X128752381Y-124102619D02*
X128847619Y-124102619D01*
X128847619Y-124102619D02*
X128942857Y-124055000D01*
X128942857Y-124055000D02*
X128990476Y-124007380D01*
X128990476Y-124007380D02*
X129038095Y-123912142D01*
X129038095Y-123912142D02*
X129085714Y-123721666D01*
X129085714Y-123721666D02*
X129085714Y-123483571D01*
X129085714Y-123483571D02*
X129038095Y-123293095D01*
X129038095Y-123293095D02*
X128990476Y-123197857D01*
X128990476Y-123197857D02*
X128942857Y-123150238D01*
X128942857Y-123150238D02*
X128847619Y-123102619D01*
X128847619Y-123102619D02*
X128752381Y-123102619D01*
X128752381Y-123102619D02*
X128657143Y-123150238D01*
X128657143Y-123150238D02*
X128609524Y-123197857D01*
X128609524Y-123197857D02*
X128561905Y-123293095D01*
X128561905Y-123293095D02*
X128514286Y-123483571D01*
X128514286Y-123483571D02*
X128514286Y-123721666D01*
X128514286Y-123721666D02*
X128561905Y-123912142D01*
X128561905Y-123912142D02*
X128609524Y-124007380D01*
X128609524Y-124007380D02*
X128657143Y-124055000D01*
X128657143Y-124055000D02*
X128752381Y-124102619D01*
X129276191Y-123007380D02*
X130038095Y-123007380D01*
X130276191Y-123102619D02*
X130276191Y-124102619D01*
X130276191Y-123626428D02*
X130847619Y-123626428D01*
X130847619Y-123102619D02*
X130847619Y-124102619D01*
X121342857Y-122482619D02*
X121961904Y-122482619D01*
X121961904Y-122482619D02*
X121628571Y-122101666D01*
X121628571Y-122101666D02*
X121771428Y-122101666D01*
X121771428Y-122101666D02*
X121866666Y-122054047D01*
X121866666Y-122054047D02*
X121914285Y-122006428D01*
X121914285Y-122006428D02*
X121961904Y-121911190D01*
X121961904Y-121911190D02*
X121961904Y-121673095D01*
X121961904Y-121673095D02*
X121914285Y-121577857D01*
X121914285Y-121577857D02*
X121866666Y-121530238D01*
X121866666Y-121530238D02*
X121771428Y-121482619D01*
X121771428Y-121482619D02*
X121485714Y-121482619D01*
X121485714Y-121482619D02*
X121390476Y-121530238D01*
X121390476Y-121530238D02*
X121342857Y-121577857D01*
X123561904Y-121577857D02*
X123514285Y-121530238D01*
X123514285Y-121530238D02*
X123371428Y-121482619D01*
X123371428Y-121482619D02*
X123276190Y-121482619D01*
X123276190Y-121482619D02*
X123133333Y-121530238D01*
X123133333Y-121530238D02*
X123038095Y-121625476D01*
X123038095Y-121625476D02*
X122990476Y-121720714D01*
X122990476Y-121720714D02*
X122942857Y-121911190D01*
X122942857Y-121911190D02*
X122942857Y-122054047D01*
X122942857Y-122054047D02*
X122990476Y-122244523D01*
X122990476Y-122244523D02*
X123038095Y-122339761D01*
X123038095Y-122339761D02*
X123133333Y-122435000D01*
X123133333Y-122435000D02*
X123276190Y-122482619D01*
X123276190Y-122482619D02*
X123371428Y-122482619D01*
X123371428Y-122482619D02*
X123514285Y-122435000D01*
X123514285Y-122435000D02*
X123561904Y-122387380D01*
X123942857Y-121768333D02*
X124419047Y-121768333D01*
X123847619Y-121482619D02*
X124180952Y-122482619D01*
X124180952Y-122482619D02*
X124514285Y-121482619D01*
X124847619Y-121482619D02*
X124847619Y-122482619D01*
X124847619Y-122482619D02*
X125419047Y-121482619D01*
X125419047Y-121482619D02*
X125419047Y-122482619D01*
X125657143Y-121387380D02*
X126419047Y-121387380D01*
X126609524Y-122387380D02*
X126657143Y-122435000D01*
X126657143Y-122435000D02*
X126752381Y-122482619D01*
X126752381Y-122482619D02*
X126990476Y-122482619D01*
X126990476Y-122482619D02*
X127085714Y-122435000D01*
X127085714Y-122435000D02*
X127133333Y-122387380D01*
X127133333Y-122387380D02*
X127180952Y-122292142D01*
X127180952Y-122292142D02*
X127180952Y-122196904D01*
X127180952Y-122196904D02*
X127133333Y-122054047D01*
X127133333Y-122054047D02*
X126561905Y-121482619D01*
X126561905Y-121482619D02*
X127180952Y-121482619D01*
X128085714Y-122482619D02*
X127609524Y-122482619D01*
X127609524Y-122482619D02*
X127561905Y-122006428D01*
X127561905Y-122006428D02*
X127609524Y-122054047D01*
X127609524Y-122054047D02*
X127704762Y-122101666D01*
X127704762Y-122101666D02*
X127942857Y-122101666D01*
X127942857Y-122101666D02*
X128038095Y-122054047D01*
X128038095Y-122054047D02*
X128085714Y-122006428D01*
X128085714Y-122006428D02*
X128133333Y-121911190D01*
X128133333Y-121911190D02*
X128133333Y-121673095D01*
X128133333Y-121673095D02*
X128085714Y-121577857D01*
X128085714Y-121577857D02*
X128038095Y-121530238D01*
X128038095Y-121530238D02*
X127942857Y-121482619D01*
X127942857Y-121482619D02*
X127704762Y-121482619D01*
X127704762Y-121482619D02*
X127609524Y-121530238D01*
X127609524Y-121530238D02*
X127561905Y-121577857D01*
X128752381Y-122482619D02*
X128847619Y-122482619D01*
X128847619Y-122482619D02*
X128942857Y-122435000D01*
X128942857Y-122435000D02*
X128990476Y-122387380D01*
X128990476Y-122387380D02*
X129038095Y-122292142D01*
X129038095Y-122292142D02*
X129085714Y-122101666D01*
X129085714Y-122101666D02*
X129085714Y-121863571D01*
X129085714Y-121863571D02*
X129038095Y-121673095D01*
X129038095Y-121673095D02*
X128990476Y-121577857D01*
X128990476Y-121577857D02*
X128942857Y-121530238D01*
X128942857Y-121530238D02*
X128847619Y-121482619D01*
X128847619Y-121482619D02*
X128752381Y-121482619D01*
X128752381Y-121482619D02*
X128657143Y-121530238D01*
X128657143Y-121530238D02*
X128609524Y-121577857D01*
X128609524Y-121577857D02*
X128561905Y-121673095D01*
X128561905Y-121673095D02*
X128514286Y-121863571D01*
X128514286Y-121863571D02*
X128514286Y-122101666D01*
X128514286Y-122101666D02*
X128561905Y-122292142D01*
X128561905Y-122292142D02*
X128609524Y-122387380D01*
X128609524Y-122387380D02*
X128657143Y-122435000D01*
X128657143Y-122435000D02*
X128752381Y-122482619D01*
X129276191Y-121387380D02*
X130038095Y-121387380D01*
X130752381Y-121482619D02*
X130276191Y-121482619D01*
X130276191Y-121482619D02*
X130276191Y-122482619D01*
X121866666Y-120529285D02*
X121866666Y-119862619D01*
X121628571Y-120910238D02*
X121390476Y-120195952D01*
X121390476Y-120195952D02*
X122009523Y-120195952D01*
X123561904Y-119957857D02*
X123514285Y-119910238D01*
X123514285Y-119910238D02*
X123371428Y-119862619D01*
X123371428Y-119862619D02*
X123276190Y-119862619D01*
X123276190Y-119862619D02*
X123133333Y-119910238D01*
X123133333Y-119910238D02*
X123038095Y-120005476D01*
X123038095Y-120005476D02*
X122990476Y-120100714D01*
X122990476Y-120100714D02*
X122942857Y-120291190D01*
X122942857Y-120291190D02*
X122942857Y-120434047D01*
X122942857Y-120434047D02*
X122990476Y-120624523D01*
X122990476Y-120624523D02*
X123038095Y-120719761D01*
X123038095Y-120719761D02*
X123133333Y-120815000D01*
X123133333Y-120815000D02*
X123276190Y-120862619D01*
X123276190Y-120862619D02*
X123371428Y-120862619D01*
X123371428Y-120862619D02*
X123514285Y-120815000D01*
X123514285Y-120815000D02*
X123561904Y-120767380D01*
X123942857Y-120148333D02*
X124419047Y-120148333D01*
X123847619Y-119862619D02*
X124180952Y-120862619D01*
X124180952Y-120862619D02*
X124514285Y-119862619D01*
X124847619Y-119862619D02*
X124847619Y-120862619D01*
X124847619Y-120862619D02*
X125419047Y-119862619D01*
X125419047Y-119862619D02*
X125419047Y-120862619D01*
X125657143Y-119767380D02*
X126419047Y-119767380D01*
X127133333Y-120862619D02*
X126657143Y-120862619D01*
X126657143Y-120862619D02*
X126609524Y-120386428D01*
X126609524Y-120386428D02*
X126657143Y-120434047D01*
X126657143Y-120434047D02*
X126752381Y-120481666D01*
X126752381Y-120481666D02*
X126990476Y-120481666D01*
X126990476Y-120481666D02*
X127085714Y-120434047D01*
X127085714Y-120434047D02*
X127133333Y-120386428D01*
X127133333Y-120386428D02*
X127180952Y-120291190D01*
X127180952Y-120291190D02*
X127180952Y-120053095D01*
X127180952Y-120053095D02*
X127133333Y-119957857D01*
X127133333Y-119957857D02*
X127085714Y-119910238D01*
X127085714Y-119910238D02*
X126990476Y-119862619D01*
X126990476Y-119862619D02*
X126752381Y-119862619D01*
X126752381Y-119862619D02*
X126657143Y-119910238D01*
X126657143Y-119910238D02*
X126609524Y-119957857D01*
X127800000Y-120862619D02*
X127895238Y-120862619D01*
X127895238Y-120862619D02*
X127990476Y-120815000D01*
X127990476Y-120815000D02*
X128038095Y-120767380D01*
X128038095Y-120767380D02*
X128085714Y-120672142D01*
X128085714Y-120672142D02*
X128133333Y-120481666D01*
X128133333Y-120481666D02*
X128133333Y-120243571D01*
X128133333Y-120243571D02*
X128085714Y-120053095D01*
X128085714Y-120053095D02*
X128038095Y-119957857D01*
X128038095Y-119957857D02*
X127990476Y-119910238D01*
X127990476Y-119910238D02*
X127895238Y-119862619D01*
X127895238Y-119862619D02*
X127800000Y-119862619D01*
X127800000Y-119862619D02*
X127704762Y-119910238D01*
X127704762Y-119910238D02*
X127657143Y-119957857D01*
X127657143Y-119957857D02*
X127609524Y-120053095D01*
X127609524Y-120053095D02*
X127561905Y-120243571D01*
X127561905Y-120243571D02*
X127561905Y-120481666D01*
X127561905Y-120481666D02*
X127609524Y-120672142D01*
X127609524Y-120672142D02*
X127657143Y-120767380D01*
X127657143Y-120767380D02*
X127704762Y-120815000D01*
X127704762Y-120815000D02*
X127800000Y-120862619D01*
X128752381Y-120862619D02*
X128847619Y-120862619D01*
X128847619Y-120862619D02*
X128942857Y-120815000D01*
X128942857Y-120815000D02*
X128990476Y-120767380D01*
X128990476Y-120767380D02*
X129038095Y-120672142D01*
X129038095Y-120672142D02*
X129085714Y-120481666D01*
X129085714Y-120481666D02*
X129085714Y-120243571D01*
X129085714Y-120243571D02*
X129038095Y-120053095D01*
X129038095Y-120053095D02*
X128990476Y-119957857D01*
X128990476Y-119957857D02*
X128942857Y-119910238D01*
X128942857Y-119910238D02*
X128847619Y-119862619D01*
X128847619Y-119862619D02*
X128752381Y-119862619D01*
X128752381Y-119862619D02*
X128657143Y-119910238D01*
X128657143Y-119910238D02*
X128609524Y-119957857D01*
X128609524Y-119957857D02*
X128561905Y-120053095D01*
X128561905Y-120053095D02*
X128514286Y-120243571D01*
X128514286Y-120243571D02*
X128514286Y-120481666D01*
X128514286Y-120481666D02*
X128561905Y-120672142D01*
X128561905Y-120672142D02*
X128609524Y-120767380D01*
X128609524Y-120767380D02*
X128657143Y-120815000D01*
X128657143Y-120815000D02*
X128752381Y-120862619D01*
X129276191Y-119767380D02*
X130038095Y-119767380D01*
X130276191Y-119862619D02*
X130276191Y-120862619D01*
X130276191Y-120386428D02*
X130847619Y-120386428D01*
X130847619Y-119862619D02*
X130847619Y-120862619D01*
X121914285Y-119242619D02*
X121438095Y-119242619D01*
X121438095Y-119242619D02*
X121390476Y-118766428D01*
X121390476Y-118766428D02*
X121438095Y-118814047D01*
X121438095Y-118814047D02*
X121533333Y-118861666D01*
X121533333Y-118861666D02*
X121771428Y-118861666D01*
X121771428Y-118861666D02*
X121866666Y-118814047D01*
X121866666Y-118814047D02*
X121914285Y-118766428D01*
X121914285Y-118766428D02*
X121961904Y-118671190D01*
X121961904Y-118671190D02*
X121961904Y-118433095D01*
X121961904Y-118433095D02*
X121914285Y-118337857D01*
X121914285Y-118337857D02*
X121866666Y-118290238D01*
X121866666Y-118290238D02*
X121771428Y-118242619D01*
X121771428Y-118242619D02*
X121533333Y-118242619D01*
X121533333Y-118242619D02*
X121438095Y-118290238D01*
X121438095Y-118290238D02*
X121390476Y-118337857D01*
X123561904Y-118337857D02*
X123514285Y-118290238D01*
X123514285Y-118290238D02*
X123371428Y-118242619D01*
X123371428Y-118242619D02*
X123276190Y-118242619D01*
X123276190Y-118242619D02*
X123133333Y-118290238D01*
X123133333Y-118290238D02*
X123038095Y-118385476D01*
X123038095Y-118385476D02*
X122990476Y-118480714D01*
X122990476Y-118480714D02*
X122942857Y-118671190D01*
X122942857Y-118671190D02*
X122942857Y-118814047D01*
X122942857Y-118814047D02*
X122990476Y-119004523D01*
X122990476Y-119004523D02*
X123038095Y-119099761D01*
X123038095Y-119099761D02*
X123133333Y-119195000D01*
X123133333Y-119195000D02*
X123276190Y-119242619D01*
X123276190Y-119242619D02*
X123371428Y-119242619D01*
X123371428Y-119242619D02*
X123514285Y-119195000D01*
X123514285Y-119195000D02*
X123561904Y-119147380D01*
X123942857Y-118528333D02*
X124419047Y-118528333D01*
X123847619Y-118242619D02*
X124180952Y-119242619D01*
X124180952Y-119242619D02*
X124514285Y-118242619D01*
X124847619Y-118242619D02*
X124847619Y-119242619D01*
X124847619Y-119242619D02*
X125419047Y-118242619D01*
X125419047Y-118242619D02*
X125419047Y-119242619D01*
X125657143Y-118147380D02*
X126419047Y-118147380D01*
X127133333Y-119242619D02*
X126657143Y-119242619D01*
X126657143Y-119242619D02*
X126609524Y-118766428D01*
X126609524Y-118766428D02*
X126657143Y-118814047D01*
X126657143Y-118814047D02*
X126752381Y-118861666D01*
X126752381Y-118861666D02*
X126990476Y-118861666D01*
X126990476Y-118861666D02*
X127085714Y-118814047D01*
X127085714Y-118814047D02*
X127133333Y-118766428D01*
X127133333Y-118766428D02*
X127180952Y-118671190D01*
X127180952Y-118671190D02*
X127180952Y-118433095D01*
X127180952Y-118433095D02*
X127133333Y-118337857D01*
X127133333Y-118337857D02*
X127085714Y-118290238D01*
X127085714Y-118290238D02*
X126990476Y-118242619D01*
X126990476Y-118242619D02*
X126752381Y-118242619D01*
X126752381Y-118242619D02*
X126657143Y-118290238D01*
X126657143Y-118290238D02*
X126609524Y-118337857D01*
X127800000Y-119242619D02*
X127895238Y-119242619D01*
X127895238Y-119242619D02*
X127990476Y-119195000D01*
X127990476Y-119195000D02*
X128038095Y-119147380D01*
X128038095Y-119147380D02*
X128085714Y-119052142D01*
X128085714Y-119052142D02*
X128133333Y-118861666D01*
X128133333Y-118861666D02*
X128133333Y-118623571D01*
X128133333Y-118623571D02*
X128085714Y-118433095D01*
X128085714Y-118433095D02*
X128038095Y-118337857D01*
X128038095Y-118337857D02*
X127990476Y-118290238D01*
X127990476Y-118290238D02*
X127895238Y-118242619D01*
X127895238Y-118242619D02*
X127800000Y-118242619D01*
X127800000Y-118242619D02*
X127704762Y-118290238D01*
X127704762Y-118290238D02*
X127657143Y-118337857D01*
X127657143Y-118337857D02*
X127609524Y-118433095D01*
X127609524Y-118433095D02*
X127561905Y-118623571D01*
X127561905Y-118623571D02*
X127561905Y-118861666D01*
X127561905Y-118861666D02*
X127609524Y-119052142D01*
X127609524Y-119052142D02*
X127657143Y-119147380D01*
X127657143Y-119147380D02*
X127704762Y-119195000D01*
X127704762Y-119195000D02*
X127800000Y-119242619D01*
X128752381Y-119242619D02*
X128847619Y-119242619D01*
X128847619Y-119242619D02*
X128942857Y-119195000D01*
X128942857Y-119195000D02*
X128990476Y-119147380D01*
X128990476Y-119147380D02*
X129038095Y-119052142D01*
X129038095Y-119052142D02*
X129085714Y-118861666D01*
X129085714Y-118861666D02*
X129085714Y-118623571D01*
X129085714Y-118623571D02*
X129038095Y-118433095D01*
X129038095Y-118433095D02*
X128990476Y-118337857D01*
X128990476Y-118337857D02*
X128942857Y-118290238D01*
X128942857Y-118290238D02*
X128847619Y-118242619D01*
X128847619Y-118242619D02*
X128752381Y-118242619D01*
X128752381Y-118242619D02*
X128657143Y-118290238D01*
X128657143Y-118290238D02*
X128609524Y-118337857D01*
X128609524Y-118337857D02*
X128561905Y-118433095D01*
X128561905Y-118433095D02*
X128514286Y-118623571D01*
X128514286Y-118623571D02*
X128514286Y-118861666D01*
X128514286Y-118861666D02*
X128561905Y-119052142D01*
X128561905Y-119052142D02*
X128609524Y-119147380D01*
X128609524Y-119147380D02*
X128657143Y-119195000D01*
X128657143Y-119195000D02*
X128752381Y-119242619D01*
X129276191Y-118147380D02*
X130038095Y-118147380D01*
X130752381Y-118242619D02*
X130276191Y-118242619D01*
X130276191Y-118242619D02*
X130276191Y-119242619D01*
X121866666Y-117622619D02*
X121676190Y-117622619D01*
X121676190Y-117622619D02*
X121580952Y-117575000D01*
X121580952Y-117575000D02*
X121533333Y-117527380D01*
X121533333Y-117527380D02*
X121438095Y-117384523D01*
X121438095Y-117384523D02*
X121390476Y-117194047D01*
X121390476Y-117194047D02*
X121390476Y-116813095D01*
X121390476Y-116813095D02*
X121438095Y-116717857D01*
X121438095Y-116717857D02*
X121485714Y-116670238D01*
X121485714Y-116670238D02*
X121580952Y-116622619D01*
X121580952Y-116622619D02*
X121771428Y-116622619D01*
X121771428Y-116622619D02*
X121866666Y-116670238D01*
X121866666Y-116670238D02*
X121914285Y-116717857D01*
X121914285Y-116717857D02*
X121961904Y-116813095D01*
X121961904Y-116813095D02*
X121961904Y-117051190D01*
X121961904Y-117051190D02*
X121914285Y-117146428D01*
X121914285Y-117146428D02*
X121866666Y-117194047D01*
X121866666Y-117194047D02*
X121771428Y-117241666D01*
X121771428Y-117241666D02*
X121580952Y-117241666D01*
X121580952Y-117241666D02*
X121485714Y-117194047D01*
X121485714Y-117194047D02*
X121438095Y-117146428D01*
X121438095Y-117146428D02*
X121390476Y-117051190D01*
X122990476Y-116622619D02*
X122990476Y-117622619D01*
X123990475Y-117575000D02*
X123895237Y-117622619D01*
X123895237Y-117622619D02*
X123752380Y-117622619D01*
X123752380Y-117622619D02*
X123609523Y-117575000D01*
X123609523Y-117575000D02*
X123514285Y-117479761D01*
X123514285Y-117479761D02*
X123466666Y-117384523D01*
X123466666Y-117384523D02*
X123419047Y-117194047D01*
X123419047Y-117194047D02*
X123419047Y-117051190D01*
X123419047Y-117051190D02*
X123466666Y-116860714D01*
X123466666Y-116860714D02*
X123514285Y-116765476D01*
X123514285Y-116765476D02*
X123609523Y-116670238D01*
X123609523Y-116670238D02*
X123752380Y-116622619D01*
X123752380Y-116622619D02*
X123847618Y-116622619D01*
X123847618Y-116622619D02*
X123990475Y-116670238D01*
X123990475Y-116670238D02*
X124038094Y-116717857D01*
X124038094Y-116717857D02*
X124038094Y-117051190D01*
X124038094Y-117051190D02*
X123847618Y-117051190D01*
X124466666Y-116622619D02*
X124466666Y-117622619D01*
X124466666Y-117622619D02*
X125038094Y-116622619D01*
X125038094Y-116622619D02*
X125038094Y-117622619D01*
X125276190Y-116527380D02*
X126038094Y-116527380D01*
X126276190Y-116622619D02*
X126276190Y-117622619D01*
X126752380Y-116622619D02*
X126752380Y-117622619D01*
X126752380Y-117622619D02*
X127323808Y-116622619D01*
X127323808Y-116622619D02*
X127323808Y-117622619D01*
X127561904Y-116527380D02*
X128323808Y-116527380D01*
X129085713Y-116622619D02*
X128514285Y-116622619D01*
X128799999Y-116622619D02*
X128799999Y-117622619D01*
X128799999Y-117622619D02*
X128704761Y-117479761D01*
X128704761Y-117479761D02*
X128609523Y-117384523D01*
X128609523Y-117384523D02*
X128514285Y-117336904D01*
X129466666Y-117527380D02*
X129514285Y-117575000D01*
X129514285Y-117575000D02*
X129609523Y-117622619D01*
X129609523Y-117622619D02*
X129847618Y-117622619D01*
X129847618Y-117622619D02*
X129942856Y-117575000D01*
X129942856Y-117575000D02*
X129990475Y-117527380D01*
X129990475Y-117527380D02*
X130038094Y-117432142D01*
X130038094Y-117432142D02*
X130038094Y-117336904D01*
X130038094Y-117336904D02*
X129990475Y-117194047D01*
X129990475Y-117194047D02*
X129419047Y-116622619D01*
X129419047Y-116622619D02*
X130038094Y-116622619D01*
X130323809Y-117622619D02*
X130657142Y-116622619D01*
X130657142Y-116622619D02*
X130990475Y-117622619D01*
X121342857Y-116002619D02*
X122009523Y-116002619D01*
X122009523Y-116002619D02*
X121580952Y-115002619D01*
X123323809Y-115526428D02*
X123466666Y-115478809D01*
X123466666Y-115478809D02*
X123514285Y-115431190D01*
X123514285Y-115431190D02*
X123561904Y-115335952D01*
X123561904Y-115335952D02*
X123561904Y-115193095D01*
X123561904Y-115193095D02*
X123514285Y-115097857D01*
X123514285Y-115097857D02*
X123466666Y-115050238D01*
X123466666Y-115050238D02*
X123371428Y-115002619D01*
X123371428Y-115002619D02*
X122990476Y-115002619D01*
X122990476Y-115002619D02*
X122990476Y-116002619D01*
X122990476Y-116002619D02*
X123323809Y-116002619D01*
X123323809Y-116002619D02*
X123419047Y-115955000D01*
X123419047Y-115955000D02*
X123466666Y-115907380D01*
X123466666Y-115907380D02*
X123514285Y-115812142D01*
X123514285Y-115812142D02*
X123514285Y-115716904D01*
X123514285Y-115716904D02*
X123466666Y-115621666D01*
X123466666Y-115621666D02*
X123419047Y-115574047D01*
X123419047Y-115574047D02*
X123323809Y-115526428D01*
X123323809Y-115526428D02*
X122990476Y-115526428D01*
X123942857Y-115288333D02*
X124419047Y-115288333D01*
X123847619Y-115002619D02*
X124180952Y-116002619D01*
X124180952Y-116002619D02*
X124514285Y-115002619D01*
X124704762Y-116002619D02*
X125276190Y-116002619D01*
X124990476Y-115002619D02*
X124990476Y-116002619D01*
X125371429Y-114907380D02*
X126133333Y-114907380D01*
X126323810Y-115050238D02*
X126466667Y-115002619D01*
X126466667Y-115002619D02*
X126704762Y-115002619D01*
X126704762Y-115002619D02*
X126800000Y-115050238D01*
X126800000Y-115050238D02*
X126847619Y-115097857D01*
X126847619Y-115097857D02*
X126895238Y-115193095D01*
X126895238Y-115193095D02*
X126895238Y-115288333D01*
X126895238Y-115288333D02*
X126847619Y-115383571D01*
X126847619Y-115383571D02*
X126800000Y-115431190D01*
X126800000Y-115431190D02*
X126704762Y-115478809D01*
X126704762Y-115478809D02*
X126514286Y-115526428D01*
X126514286Y-115526428D02*
X126419048Y-115574047D01*
X126419048Y-115574047D02*
X126371429Y-115621666D01*
X126371429Y-115621666D02*
X126323810Y-115716904D01*
X126323810Y-115716904D02*
X126323810Y-115812142D01*
X126323810Y-115812142D02*
X126371429Y-115907380D01*
X126371429Y-115907380D02*
X126419048Y-115955000D01*
X126419048Y-115955000D02*
X126514286Y-116002619D01*
X126514286Y-116002619D02*
X126752381Y-116002619D01*
X126752381Y-116002619D02*
X126895238Y-115955000D01*
X127323810Y-115526428D02*
X127657143Y-115526428D01*
X127800000Y-115002619D02*
X127323810Y-115002619D01*
X127323810Y-115002619D02*
X127323810Y-116002619D01*
X127323810Y-116002619D02*
X127800000Y-116002619D01*
X128228572Y-115002619D02*
X128228572Y-116002619D01*
X128228572Y-116002619D02*
X128800000Y-115002619D01*
X128800000Y-115002619D02*
X128800000Y-116002619D01*
X129228572Y-115050238D02*
X129371429Y-115002619D01*
X129371429Y-115002619D02*
X129609524Y-115002619D01*
X129609524Y-115002619D02*
X129704762Y-115050238D01*
X129704762Y-115050238D02*
X129752381Y-115097857D01*
X129752381Y-115097857D02*
X129800000Y-115193095D01*
X129800000Y-115193095D02*
X129800000Y-115288333D01*
X129800000Y-115288333D02*
X129752381Y-115383571D01*
X129752381Y-115383571D02*
X129704762Y-115431190D01*
X129704762Y-115431190D02*
X129609524Y-115478809D01*
X129609524Y-115478809D02*
X129419048Y-115526428D01*
X129419048Y-115526428D02*
X129323810Y-115574047D01*
X129323810Y-115574047D02*
X129276191Y-115621666D01*
X129276191Y-115621666D02*
X129228572Y-115716904D01*
X129228572Y-115716904D02*
X129228572Y-115812142D01*
X129228572Y-115812142D02*
X129276191Y-115907380D01*
X129276191Y-115907380D02*
X129323810Y-115955000D01*
X129323810Y-115955000D02*
X129419048Y-116002619D01*
X129419048Y-116002619D02*
X129657143Y-116002619D01*
X129657143Y-116002619D02*
X129800000Y-115955000D01*
X129990477Y-114907380D02*
X130752381Y-114907380D01*
X130895239Y-116002619D02*
X131514286Y-116002619D01*
X131514286Y-116002619D02*
X131180953Y-115621666D01*
X131180953Y-115621666D02*
X131323810Y-115621666D01*
X131323810Y-115621666D02*
X131419048Y-115574047D01*
X131419048Y-115574047D02*
X131466667Y-115526428D01*
X131466667Y-115526428D02*
X131514286Y-115431190D01*
X131514286Y-115431190D02*
X131514286Y-115193095D01*
X131514286Y-115193095D02*
X131466667Y-115097857D01*
X131466667Y-115097857D02*
X131419048Y-115050238D01*
X131419048Y-115050238D02*
X131323810Y-115002619D01*
X131323810Y-115002619D02*
X131038096Y-115002619D01*
X131038096Y-115002619D02*
X130942858Y-115050238D01*
X130942858Y-115050238D02*
X130895239Y-115097857D01*
X131800001Y-116002619D02*
X132133334Y-115002619D01*
X132133334Y-115002619D02*
X132466667Y-116002619D01*
X132704763Y-116002619D02*
X133323810Y-116002619D01*
X133323810Y-116002619D02*
X132990477Y-115621666D01*
X132990477Y-115621666D02*
X133133334Y-115621666D01*
X133133334Y-115621666D02*
X133228572Y-115574047D01*
X133228572Y-115574047D02*
X133276191Y-115526428D01*
X133276191Y-115526428D02*
X133323810Y-115431190D01*
X133323810Y-115431190D02*
X133323810Y-115193095D01*
X133323810Y-115193095D02*
X133276191Y-115097857D01*
X133276191Y-115097857D02*
X133228572Y-115050238D01*
X133228572Y-115050238D02*
X133133334Y-115002619D01*
X133133334Y-115002619D02*
X132847620Y-115002619D01*
X132847620Y-115002619D02*
X132752382Y-115050238D01*
X132752382Y-115050238D02*
X132704763Y-115097857D01*
X121580952Y-113954047D02*
X121485714Y-114001666D01*
X121485714Y-114001666D02*
X121438095Y-114049285D01*
X121438095Y-114049285D02*
X121390476Y-114144523D01*
X121390476Y-114144523D02*
X121390476Y-114192142D01*
X121390476Y-114192142D02*
X121438095Y-114287380D01*
X121438095Y-114287380D02*
X121485714Y-114335000D01*
X121485714Y-114335000D02*
X121580952Y-114382619D01*
X121580952Y-114382619D02*
X121771428Y-114382619D01*
X121771428Y-114382619D02*
X121866666Y-114335000D01*
X121866666Y-114335000D02*
X121914285Y-114287380D01*
X121914285Y-114287380D02*
X121961904Y-114192142D01*
X121961904Y-114192142D02*
X121961904Y-114144523D01*
X121961904Y-114144523D02*
X121914285Y-114049285D01*
X121914285Y-114049285D02*
X121866666Y-114001666D01*
X121866666Y-114001666D02*
X121771428Y-113954047D01*
X121771428Y-113954047D02*
X121580952Y-113954047D01*
X121580952Y-113954047D02*
X121485714Y-113906428D01*
X121485714Y-113906428D02*
X121438095Y-113858809D01*
X121438095Y-113858809D02*
X121390476Y-113763571D01*
X121390476Y-113763571D02*
X121390476Y-113573095D01*
X121390476Y-113573095D02*
X121438095Y-113477857D01*
X121438095Y-113477857D02*
X121485714Y-113430238D01*
X121485714Y-113430238D02*
X121580952Y-113382619D01*
X121580952Y-113382619D02*
X121771428Y-113382619D01*
X121771428Y-113382619D02*
X121866666Y-113430238D01*
X121866666Y-113430238D02*
X121914285Y-113477857D01*
X121914285Y-113477857D02*
X121961904Y-113573095D01*
X121961904Y-113573095D02*
X121961904Y-113763571D01*
X121961904Y-113763571D02*
X121914285Y-113858809D01*
X121914285Y-113858809D02*
X121866666Y-113906428D01*
X121866666Y-113906428D02*
X121771428Y-113954047D01*
X122990476Y-113382619D02*
X122990476Y-114382619D01*
X123466666Y-113382619D02*
X123466666Y-114382619D01*
X123466666Y-114382619D02*
X123799999Y-113668333D01*
X123799999Y-113668333D02*
X124133332Y-114382619D01*
X124133332Y-114382619D02*
X124133332Y-113382619D01*
X124371428Y-113287380D02*
X125133332Y-113287380D01*
X125561904Y-114382619D02*
X125752380Y-114382619D01*
X125752380Y-114382619D02*
X125847618Y-114335000D01*
X125847618Y-114335000D02*
X125942856Y-114239761D01*
X125942856Y-114239761D02*
X125990475Y-114049285D01*
X125990475Y-114049285D02*
X125990475Y-113715952D01*
X125990475Y-113715952D02*
X125942856Y-113525476D01*
X125942856Y-113525476D02*
X125847618Y-113430238D01*
X125847618Y-113430238D02*
X125752380Y-113382619D01*
X125752380Y-113382619D02*
X125561904Y-113382619D01*
X125561904Y-113382619D02*
X125466666Y-113430238D01*
X125466666Y-113430238D02*
X125371428Y-113525476D01*
X125371428Y-113525476D02*
X125323809Y-113715952D01*
X125323809Y-113715952D02*
X125323809Y-114049285D01*
X125323809Y-114049285D02*
X125371428Y-114239761D01*
X125371428Y-114239761D02*
X125466666Y-114335000D01*
X125466666Y-114335000D02*
X125561904Y-114382619D01*
X126419047Y-114382619D02*
X126419047Y-113573095D01*
X126419047Y-113573095D02*
X126466666Y-113477857D01*
X126466666Y-113477857D02*
X126514285Y-113430238D01*
X126514285Y-113430238D02*
X126609523Y-113382619D01*
X126609523Y-113382619D02*
X126799999Y-113382619D01*
X126799999Y-113382619D02*
X126895237Y-113430238D01*
X126895237Y-113430238D02*
X126942856Y-113477857D01*
X126942856Y-113477857D02*
X126990475Y-113573095D01*
X126990475Y-113573095D02*
X126990475Y-114382619D01*
X127323809Y-114382619D02*
X127895237Y-114382619D01*
X127609523Y-113382619D02*
X127609523Y-114382619D01*
X127990476Y-113287380D02*
X128752380Y-113287380D01*
X128895238Y-114382619D02*
X129514285Y-114382619D01*
X129514285Y-114382619D02*
X129180952Y-114001666D01*
X129180952Y-114001666D02*
X129323809Y-114001666D01*
X129323809Y-114001666D02*
X129419047Y-113954047D01*
X129419047Y-113954047D02*
X129466666Y-113906428D01*
X129466666Y-113906428D02*
X129514285Y-113811190D01*
X129514285Y-113811190D02*
X129514285Y-113573095D01*
X129514285Y-113573095D02*
X129466666Y-113477857D01*
X129466666Y-113477857D02*
X129419047Y-113430238D01*
X129419047Y-113430238D02*
X129323809Y-113382619D01*
X129323809Y-113382619D02*
X129038095Y-113382619D01*
X129038095Y-113382619D02*
X128942857Y-113430238D01*
X128942857Y-113430238D02*
X128895238Y-113477857D01*
X129800000Y-114382619D02*
X130133333Y-113382619D01*
X130133333Y-113382619D02*
X130466666Y-114382619D01*
X130704762Y-114382619D02*
X131323809Y-114382619D01*
X131323809Y-114382619D02*
X130990476Y-114001666D01*
X130990476Y-114001666D02*
X131133333Y-114001666D01*
X131133333Y-114001666D02*
X131228571Y-113954047D01*
X131228571Y-113954047D02*
X131276190Y-113906428D01*
X131276190Y-113906428D02*
X131323809Y-113811190D01*
X131323809Y-113811190D02*
X131323809Y-113573095D01*
X131323809Y-113573095D02*
X131276190Y-113477857D01*
X131276190Y-113477857D02*
X131228571Y-113430238D01*
X131228571Y-113430238D02*
X131133333Y-113382619D01*
X131133333Y-113382619D02*
X130847619Y-113382619D01*
X130847619Y-113382619D02*
X130752381Y-113430238D01*
X130752381Y-113430238D02*
X130704762Y-113477857D01*
X121485714Y-111762619D02*
X121676190Y-111762619D01*
X121676190Y-111762619D02*
X121771428Y-111810238D01*
X121771428Y-111810238D02*
X121819047Y-111857857D01*
X121819047Y-111857857D02*
X121914285Y-112000714D01*
X121914285Y-112000714D02*
X121961904Y-112191190D01*
X121961904Y-112191190D02*
X121961904Y-112572142D01*
X121961904Y-112572142D02*
X121914285Y-112667380D01*
X121914285Y-112667380D02*
X121866666Y-112715000D01*
X121866666Y-112715000D02*
X121771428Y-112762619D01*
X121771428Y-112762619D02*
X121580952Y-112762619D01*
X121580952Y-112762619D02*
X121485714Y-112715000D01*
X121485714Y-112715000D02*
X121438095Y-112667380D01*
X121438095Y-112667380D02*
X121390476Y-112572142D01*
X121390476Y-112572142D02*
X121390476Y-112334047D01*
X121390476Y-112334047D02*
X121438095Y-112238809D01*
X121438095Y-112238809D02*
X121485714Y-112191190D01*
X121485714Y-112191190D02*
X121580952Y-112143571D01*
X121580952Y-112143571D02*
X121771428Y-112143571D01*
X121771428Y-112143571D02*
X121866666Y-112191190D01*
X121866666Y-112191190D02*
X121914285Y-112238809D01*
X121914285Y-112238809D02*
X121961904Y-112334047D01*
D11*
%TO.C,U21*%
X149251874Y-115025121D02*
X149889295Y-115025121D01*
X149889295Y-115025121D02*
X149964286Y-115062617D01*
X149964286Y-115062617D02*
X150001781Y-115100112D01*
X150001781Y-115100112D02*
X150039276Y-115175103D01*
X150039276Y-115175103D02*
X150039276Y-115325084D01*
X150039276Y-115325084D02*
X150001781Y-115400075D01*
X150001781Y-115400075D02*
X149964286Y-115437570D01*
X149964286Y-115437570D02*
X149889295Y-115475065D01*
X149889295Y-115475065D02*
X149251874Y-115475065D01*
X149326865Y-115812523D02*
X149289370Y-115850018D01*
X149289370Y-115850018D02*
X149251874Y-115925009D01*
X149251874Y-115925009D02*
X149251874Y-116112486D01*
X149251874Y-116112486D02*
X149289370Y-116187476D01*
X149289370Y-116187476D02*
X149326865Y-116224972D01*
X149326865Y-116224972D02*
X149401856Y-116262467D01*
X149401856Y-116262467D02*
X149476846Y-116262467D01*
X149476846Y-116262467D02*
X149589332Y-116224972D01*
X149589332Y-116224972D02*
X150039276Y-115775028D01*
X150039276Y-115775028D02*
X150039276Y-116262467D01*
X150039276Y-117012374D02*
X150039276Y-116562430D01*
X150039276Y-116787402D02*
X149251874Y-116787402D01*
X149251874Y-116787402D02*
X149364360Y-116712411D01*
X149364360Y-116712411D02*
X149439351Y-116637421D01*
X149439351Y-116637421D02*
X149476846Y-116562430D01*
%TO.C,C5*%
X167529166Y-116172142D02*
X167576785Y-116219761D01*
X167576785Y-116219761D02*
X167719642Y-116267380D01*
X167719642Y-116267380D02*
X167814880Y-116267380D01*
X167814880Y-116267380D02*
X167957737Y-116219761D01*
X167957737Y-116219761D02*
X168052975Y-116124523D01*
X168052975Y-116124523D02*
X168100594Y-116029285D01*
X168100594Y-116029285D02*
X168148213Y-115838809D01*
X168148213Y-115838809D02*
X168148213Y-115695952D01*
X168148213Y-115695952D02*
X168100594Y-115505476D01*
X168100594Y-115505476D02*
X168052975Y-115410238D01*
X168052975Y-115410238D02*
X167957737Y-115315000D01*
X167957737Y-115315000D02*
X167814880Y-115267380D01*
X167814880Y-115267380D02*
X167719642Y-115267380D01*
X167719642Y-115267380D02*
X167576785Y-115315000D01*
X167576785Y-115315000D02*
X167529166Y-115362619D01*
X166624404Y-115267380D02*
X167100594Y-115267380D01*
X167100594Y-115267380D02*
X167148213Y-115743571D01*
X167148213Y-115743571D02*
X167100594Y-115695952D01*
X167100594Y-115695952D02*
X167005356Y-115648333D01*
X167005356Y-115648333D02*
X166767261Y-115648333D01*
X166767261Y-115648333D02*
X166672023Y-115695952D01*
X166672023Y-115695952D02*
X166624404Y-115743571D01*
X166624404Y-115743571D02*
X166576785Y-115838809D01*
X166576785Y-115838809D02*
X166576785Y-116076904D01*
X166576785Y-116076904D02*
X166624404Y-116172142D01*
X166624404Y-116172142D02*
X166672023Y-116219761D01*
X166672023Y-116219761D02*
X166767261Y-116267380D01*
X166767261Y-116267380D02*
X167005356Y-116267380D01*
X167005356Y-116267380D02*
X167100594Y-116219761D01*
X167100594Y-116219761D02*
X167148213Y-116172142D01*
D12*
%TO.C,S1*%
X145217619Y-137656097D02*
X145036190Y-137716573D01*
X145036190Y-137716573D02*
X144733809Y-137716573D01*
X144733809Y-137716573D02*
X144612857Y-137656097D01*
X144612857Y-137656097D02*
X144552381Y-137595621D01*
X144552381Y-137595621D02*
X144491904Y-137474669D01*
X144491904Y-137474669D02*
X144491904Y-137353716D01*
X144491904Y-137353716D02*
X144552381Y-137232764D01*
X144552381Y-137232764D02*
X144612857Y-137172288D01*
X144612857Y-137172288D02*
X144733809Y-137111811D01*
X144733809Y-137111811D02*
X144975714Y-137051335D01*
X144975714Y-137051335D02*
X145096666Y-136990859D01*
X145096666Y-136990859D02*
X145157143Y-136930383D01*
X145157143Y-136930383D02*
X145217619Y-136809430D01*
X145217619Y-136809430D02*
X145217619Y-136688478D01*
X145217619Y-136688478D02*
X145157143Y-136567526D01*
X145157143Y-136567526D02*
X145096666Y-136507050D01*
X145096666Y-136507050D02*
X144975714Y-136446573D01*
X144975714Y-136446573D02*
X144673333Y-136446573D01*
X144673333Y-136446573D02*
X144491904Y-136507050D01*
X143282380Y-137716573D02*
X144008095Y-137716573D01*
X143645238Y-137716573D02*
X143645238Y-136446573D01*
X143645238Y-136446573D02*
X143766190Y-136628002D01*
X143766190Y-136628002D02*
X143887142Y-136748954D01*
X143887142Y-136748954D02*
X144008095Y-136809430D01*
D11*
%TO.C,C4*%
X167819166Y-122897142D02*
X167866785Y-122944761D01*
X167866785Y-122944761D02*
X168009642Y-122992380D01*
X168009642Y-122992380D02*
X168104880Y-122992380D01*
X168104880Y-122992380D02*
X168247737Y-122944761D01*
X168247737Y-122944761D02*
X168342975Y-122849523D01*
X168342975Y-122849523D02*
X168390594Y-122754285D01*
X168390594Y-122754285D02*
X168438213Y-122563809D01*
X168438213Y-122563809D02*
X168438213Y-122420952D01*
X168438213Y-122420952D02*
X168390594Y-122230476D01*
X168390594Y-122230476D02*
X168342975Y-122135238D01*
X168342975Y-122135238D02*
X168247737Y-122040000D01*
X168247737Y-122040000D02*
X168104880Y-121992380D01*
X168104880Y-121992380D02*
X168009642Y-121992380D01*
X168009642Y-121992380D02*
X167866785Y-122040000D01*
X167866785Y-122040000D02*
X167819166Y-122087619D01*
X166962023Y-122325714D02*
X166962023Y-122992380D01*
X167200118Y-121944761D02*
X167438213Y-122659047D01*
X167438213Y-122659047D02*
X166819166Y-122659047D01*
%TO.C,R11*%
X143452060Y-86731822D02*
X142975870Y-86398489D01*
X143452060Y-86160394D02*
X142452060Y-86160394D01*
X142452060Y-86160394D02*
X142452060Y-86541346D01*
X142452060Y-86541346D02*
X142499680Y-86636584D01*
X142499680Y-86636584D02*
X142547299Y-86684203D01*
X142547299Y-86684203D02*
X142642537Y-86731822D01*
X142642537Y-86731822D02*
X142785394Y-86731822D01*
X142785394Y-86731822D02*
X142880632Y-86684203D01*
X142880632Y-86684203D02*
X142928251Y-86636584D01*
X142928251Y-86636584D02*
X142975870Y-86541346D01*
X142975870Y-86541346D02*
X142975870Y-86160394D01*
X143452060Y-87684203D02*
X143452060Y-87112775D01*
X143452060Y-87398489D02*
X142452060Y-87398489D01*
X142452060Y-87398489D02*
X142594918Y-87303251D01*
X142594918Y-87303251D02*
X142690156Y-87208013D01*
X142690156Y-87208013D02*
X142737775Y-87112775D01*
X143452060Y-88636584D02*
X143452060Y-88065156D01*
X143452060Y-88350870D02*
X142452060Y-88350870D01*
X142452060Y-88350870D02*
X142594918Y-88255632D01*
X142594918Y-88255632D02*
X142690156Y-88160394D01*
X142690156Y-88160394D02*
X142737775Y-88065156D01*
%TO.C,R10*%
X137424506Y-87187339D02*
X137091173Y-86954006D01*
X137424506Y-86787339D02*
X136724506Y-86787339D01*
X136724506Y-86787339D02*
X136724506Y-87054006D01*
X136724506Y-87054006D02*
X136757840Y-87120673D01*
X136757840Y-87120673D02*
X136791173Y-87154006D01*
X136791173Y-87154006D02*
X136857840Y-87187339D01*
X136857840Y-87187339D02*
X136957840Y-87187339D01*
X136957840Y-87187339D02*
X137024506Y-87154006D01*
X137024506Y-87154006D02*
X137057840Y-87120673D01*
X137057840Y-87120673D02*
X137091173Y-87054006D01*
X137091173Y-87054006D02*
X137091173Y-86787339D01*
X137424506Y-87854006D02*
X137424506Y-87454006D01*
X137424506Y-87654006D02*
X136724506Y-87654006D01*
X136724506Y-87654006D02*
X136824506Y-87587339D01*
X136824506Y-87587339D02*
X136891173Y-87520673D01*
X136891173Y-87520673D02*
X136924506Y-87454006D01*
X136724506Y-88287340D02*
X136724506Y-88354006D01*
X136724506Y-88354006D02*
X136757840Y-88420673D01*
X136757840Y-88420673D02*
X136791173Y-88454006D01*
X136791173Y-88454006D02*
X136857840Y-88487340D01*
X136857840Y-88487340D02*
X136991173Y-88520673D01*
X136991173Y-88520673D02*
X137157840Y-88520673D01*
X137157840Y-88520673D02*
X137291173Y-88487340D01*
X137291173Y-88487340D02*
X137357840Y-88454006D01*
X137357840Y-88454006D02*
X137391173Y-88420673D01*
X137391173Y-88420673D02*
X137424506Y-88354006D01*
X137424506Y-88354006D02*
X137424506Y-88287340D01*
X137424506Y-88287340D02*
X137391173Y-88220673D01*
X137391173Y-88220673D02*
X137357840Y-88187340D01*
X137357840Y-88187340D02*
X137291173Y-88154006D01*
X137291173Y-88154006D02*
X137157840Y-88120673D01*
X137157840Y-88120673D02*
X136991173Y-88120673D01*
X136991173Y-88120673D02*
X136857840Y-88154006D01*
X136857840Y-88154006D02*
X136791173Y-88187340D01*
X136791173Y-88187340D02*
X136757840Y-88220673D01*
X136757840Y-88220673D02*
X136724506Y-88287340D01*
%TO.C,CP2*%
X175014642Y-114993333D02*
X175062261Y-114945714D01*
X175062261Y-114945714D02*
X175109880Y-114802857D01*
X175109880Y-114802857D02*
X175109880Y-114707619D01*
X175109880Y-114707619D02*
X175062261Y-114564762D01*
X175062261Y-114564762D02*
X174967023Y-114469524D01*
X174967023Y-114469524D02*
X174871785Y-114421905D01*
X174871785Y-114421905D02*
X174681309Y-114374286D01*
X174681309Y-114374286D02*
X174538452Y-114374286D01*
X174538452Y-114374286D02*
X174347976Y-114421905D01*
X174347976Y-114421905D02*
X174252738Y-114469524D01*
X174252738Y-114469524D02*
X174157500Y-114564762D01*
X174157500Y-114564762D02*
X174109880Y-114707619D01*
X174109880Y-114707619D02*
X174109880Y-114802857D01*
X174109880Y-114802857D02*
X174157500Y-114945714D01*
X174157500Y-114945714D02*
X174205119Y-114993333D01*
X175109880Y-115421905D02*
X174109880Y-115421905D01*
X174109880Y-115421905D02*
X174109880Y-115802857D01*
X174109880Y-115802857D02*
X174157500Y-115898095D01*
X174157500Y-115898095D02*
X174205119Y-115945714D01*
X174205119Y-115945714D02*
X174300357Y-115993333D01*
X174300357Y-115993333D02*
X174443214Y-115993333D01*
X174443214Y-115993333D02*
X174538452Y-115945714D01*
X174538452Y-115945714D02*
X174586071Y-115898095D01*
X174586071Y-115898095D02*
X174633690Y-115802857D01*
X174633690Y-115802857D02*
X174633690Y-115421905D01*
X174205119Y-116374286D02*
X174157500Y-116421905D01*
X174157500Y-116421905D02*
X174109880Y-116517143D01*
X174109880Y-116517143D02*
X174109880Y-116755238D01*
X174109880Y-116755238D02*
X174157500Y-116850476D01*
X174157500Y-116850476D02*
X174205119Y-116898095D01*
X174205119Y-116898095D02*
X174300357Y-116945714D01*
X174300357Y-116945714D02*
X174395595Y-116945714D01*
X174395595Y-116945714D02*
X174538452Y-116898095D01*
X174538452Y-116898095D02*
X175109880Y-116326667D01*
X175109880Y-116326667D02*
X175109880Y-116945714D01*
D12*
%TO.C,J1*%
X171173332Y-135196573D02*
X171173332Y-136103716D01*
X171173332Y-136103716D02*
X171233809Y-136285145D01*
X171233809Y-136285145D02*
X171354761Y-136406097D01*
X171354761Y-136406097D02*
X171536190Y-136466573D01*
X171536190Y-136466573D02*
X171657142Y-136466573D01*
X169903332Y-136466573D02*
X170629047Y-136466573D01*
X170266190Y-136466573D02*
X170266190Y-135196573D01*
X170266190Y-135196573D02*
X170387142Y-135378002D01*
X170387142Y-135378002D02*
X170508094Y-135498954D01*
X170508094Y-135498954D02*
X170629047Y-135559430D01*
D11*
%TO.C,D5*%
X143534720Y-95399245D02*
X142534720Y-95399245D01*
X142534720Y-95399245D02*
X142534720Y-95637340D01*
X142534720Y-95637340D02*
X142582340Y-95780197D01*
X142582340Y-95780197D02*
X142677578Y-95875435D01*
X142677578Y-95875435D02*
X142772816Y-95923054D01*
X142772816Y-95923054D02*
X142963292Y-95970673D01*
X142963292Y-95970673D02*
X143106149Y-95970673D01*
X143106149Y-95970673D02*
X143296625Y-95923054D01*
X143296625Y-95923054D02*
X143391863Y-95875435D01*
X143391863Y-95875435D02*
X143487101Y-95780197D01*
X143487101Y-95780197D02*
X143534720Y-95637340D01*
X143534720Y-95637340D02*
X143534720Y-95399245D01*
X142534720Y-96875435D02*
X142534720Y-96399245D01*
X142534720Y-96399245D02*
X143010911Y-96351626D01*
X143010911Y-96351626D02*
X142963292Y-96399245D01*
X142963292Y-96399245D02*
X142915673Y-96494483D01*
X142915673Y-96494483D02*
X142915673Y-96732578D01*
X142915673Y-96732578D02*
X142963292Y-96827816D01*
X142963292Y-96827816D02*
X143010911Y-96875435D01*
X143010911Y-96875435D02*
X143106149Y-96923054D01*
X143106149Y-96923054D02*
X143344244Y-96923054D01*
X143344244Y-96923054D02*
X143439482Y-96875435D01*
X143439482Y-96875435D02*
X143487101Y-96827816D01*
X143487101Y-96827816D02*
X143534720Y-96732578D01*
X143534720Y-96732578D02*
X143534720Y-96494483D01*
X143534720Y-96494483D02*
X143487101Y-96399245D01*
X143487101Y-96399245D02*
X143439482Y-96351626D01*
%TO.C,C6*%
X177296666Y-105387142D02*
X177344285Y-105434761D01*
X177344285Y-105434761D02*
X177487142Y-105482380D01*
X177487142Y-105482380D02*
X177582380Y-105482380D01*
X177582380Y-105482380D02*
X177725237Y-105434761D01*
X177725237Y-105434761D02*
X177820475Y-105339523D01*
X177820475Y-105339523D02*
X177868094Y-105244285D01*
X177868094Y-105244285D02*
X177915713Y-105053809D01*
X177915713Y-105053809D02*
X177915713Y-104910952D01*
X177915713Y-104910952D02*
X177868094Y-104720476D01*
X177868094Y-104720476D02*
X177820475Y-104625238D01*
X177820475Y-104625238D02*
X177725237Y-104530000D01*
X177725237Y-104530000D02*
X177582380Y-104482380D01*
X177582380Y-104482380D02*
X177487142Y-104482380D01*
X177487142Y-104482380D02*
X177344285Y-104530000D01*
X177344285Y-104530000D02*
X177296666Y-104577619D01*
X176439523Y-104482380D02*
X176629999Y-104482380D01*
X176629999Y-104482380D02*
X176725237Y-104530000D01*
X176725237Y-104530000D02*
X176772856Y-104577619D01*
X176772856Y-104577619D02*
X176868094Y-104720476D01*
X176868094Y-104720476D02*
X176915713Y-104910952D01*
X176915713Y-104910952D02*
X176915713Y-105291904D01*
X176915713Y-105291904D02*
X176868094Y-105387142D01*
X176868094Y-105387142D02*
X176820475Y-105434761D01*
X176820475Y-105434761D02*
X176725237Y-105482380D01*
X176725237Y-105482380D02*
X176534761Y-105482380D01*
X176534761Y-105482380D02*
X176439523Y-105434761D01*
X176439523Y-105434761D02*
X176391904Y-105387142D01*
X176391904Y-105387142D02*
X176344285Y-105291904D01*
X176344285Y-105291904D02*
X176344285Y-105053809D01*
X176344285Y-105053809D02*
X176391904Y-104958571D01*
X176391904Y-104958571D02*
X176439523Y-104910952D01*
X176439523Y-104910952D02*
X176534761Y-104863333D01*
X176534761Y-104863333D02*
X176725237Y-104863333D01*
X176725237Y-104863333D02*
X176820475Y-104910952D01*
X176820475Y-104910952D02*
X176868094Y-104958571D01*
X176868094Y-104958571D02*
X176915713Y-105053809D01*
%TO.C,D3*%
X140534720Y-95436745D02*
X139534720Y-95436745D01*
X139534720Y-95436745D02*
X139534720Y-95674840D01*
X139534720Y-95674840D02*
X139582340Y-95817697D01*
X139582340Y-95817697D02*
X139677578Y-95912935D01*
X139677578Y-95912935D02*
X139772816Y-95960554D01*
X139772816Y-95960554D02*
X139963292Y-96008173D01*
X139963292Y-96008173D02*
X140106149Y-96008173D01*
X140106149Y-96008173D02*
X140296625Y-95960554D01*
X140296625Y-95960554D02*
X140391863Y-95912935D01*
X140391863Y-95912935D02*
X140487101Y-95817697D01*
X140487101Y-95817697D02*
X140534720Y-95674840D01*
X140534720Y-95674840D02*
X140534720Y-95436745D01*
X139534720Y-96341507D02*
X139534720Y-96960554D01*
X139534720Y-96960554D02*
X139915673Y-96627221D01*
X139915673Y-96627221D02*
X139915673Y-96770078D01*
X139915673Y-96770078D02*
X139963292Y-96865316D01*
X139963292Y-96865316D02*
X140010911Y-96912935D01*
X140010911Y-96912935D02*
X140106149Y-96960554D01*
X140106149Y-96960554D02*
X140344244Y-96960554D01*
X140344244Y-96960554D02*
X140439482Y-96912935D01*
X140439482Y-96912935D02*
X140487101Y-96865316D01*
X140487101Y-96865316D02*
X140534720Y-96770078D01*
X140534720Y-96770078D02*
X140534720Y-96484364D01*
X140534720Y-96484364D02*
X140487101Y-96389126D01*
X140487101Y-96389126D02*
X140439482Y-96341507D01*
%TO.C,D4*%
X137534720Y-95436745D02*
X136534720Y-95436745D01*
X136534720Y-95436745D02*
X136534720Y-95674840D01*
X136534720Y-95674840D02*
X136582340Y-95817697D01*
X136582340Y-95817697D02*
X136677578Y-95912935D01*
X136677578Y-95912935D02*
X136772816Y-95960554D01*
X136772816Y-95960554D02*
X136963292Y-96008173D01*
X136963292Y-96008173D02*
X137106149Y-96008173D01*
X137106149Y-96008173D02*
X137296625Y-95960554D01*
X137296625Y-95960554D02*
X137391863Y-95912935D01*
X137391863Y-95912935D02*
X137487101Y-95817697D01*
X137487101Y-95817697D02*
X137534720Y-95674840D01*
X137534720Y-95674840D02*
X137534720Y-95436745D01*
X136868054Y-96865316D02*
X137534720Y-96865316D01*
X136487101Y-96627221D02*
X137201387Y-96389126D01*
X137201387Y-96389126D02*
X137201387Y-97008173D01*
%TO.C,CP3*%
X174989642Y-111078333D02*
X175037261Y-111030714D01*
X175037261Y-111030714D02*
X175084880Y-110887857D01*
X175084880Y-110887857D02*
X175084880Y-110792619D01*
X175084880Y-110792619D02*
X175037261Y-110649762D01*
X175037261Y-110649762D02*
X174942023Y-110554524D01*
X174942023Y-110554524D02*
X174846785Y-110506905D01*
X174846785Y-110506905D02*
X174656309Y-110459286D01*
X174656309Y-110459286D02*
X174513452Y-110459286D01*
X174513452Y-110459286D02*
X174322976Y-110506905D01*
X174322976Y-110506905D02*
X174227738Y-110554524D01*
X174227738Y-110554524D02*
X174132500Y-110649762D01*
X174132500Y-110649762D02*
X174084880Y-110792619D01*
X174084880Y-110792619D02*
X174084880Y-110887857D01*
X174084880Y-110887857D02*
X174132500Y-111030714D01*
X174132500Y-111030714D02*
X174180119Y-111078333D01*
X175084880Y-111506905D02*
X174084880Y-111506905D01*
X174084880Y-111506905D02*
X174084880Y-111887857D01*
X174084880Y-111887857D02*
X174132500Y-111983095D01*
X174132500Y-111983095D02*
X174180119Y-112030714D01*
X174180119Y-112030714D02*
X174275357Y-112078333D01*
X174275357Y-112078333D02*
X174418214Y-112078333D01*
X174418214Y-112078333D02*
X174513452Y-112030714D01*
X174513452Y-112030714D02*
X174561071Y-111983095D01*
X174561071Y-111983095D02*
X174608690Y-111887857D01*
X174608690Y-111887857D02*
X174608690Y-111506905D01*
X174084880Y-112411667D02*
X174084880Y-113030714D01*
X174084880Y-113030714D02*
X174465833Y-112697381D01*
X174465833Y-112697381D02*
X174465833Y-112840238D01*
X174465833Y-112840238D02*
X174513452Y-112935476D01*
X174513452Y-112935476D02*
X174561071Y-112983095D01*
X174561071Y-112983095D02*
X174656309Y-113030714D01*
X174656309Y-113030714D02*
X174894404Y-113030714D01*
X174894404Y-113030714D02*
X174989642Y-112983095D01*
X174989642Y-112983095D02*
X175037261Y-112935476D01*
X175037261Y-112935476D02*
X175084880Y-112840238D01*
X175084880Y-112840238D02*
X175084880Y-112554524D01*
X175084880Y-112554524D02*
X175037261Y-112459286D01*
X175037261Y-112459286D02*
X174989642Y-112411667D01*
%TO.C,R9*%
X140784720Y-87545673D02*
X140308530Y-87212340D01*
X140784720Y-86974245D02*
X139784720Y-86974245D01*
X139784720Y-86974245D02*
X139784720Y-87355197D01*
X139784720Y-87355197D02*
X139832340Y-87450435D01*
X139832340Y-87450435D02*
X139879959Y-87498054D01*
X139879959Y-87498054D02*
X139975197Y-87545673D01*
X139975197Y-87545673D02*
X140118054Y-87545673D01*
X140118054Y-87545673D02*
X140213292Y-87498054D01*
X140213292Y-87498054D02*
X140260911Y-87450435D01*
X140260911Y-87450435D02*
X140308530Y-87355197D01*
X140308530Y-87355197D02*
X140308530Y-86974245D01*
X140784720Y-88021864D02*
X140784720Y-88212340D01*
X140784720Y-88212340D02*
X140737101Y-88307578D01*
X140737101Y-88307578D02*
X140689482Y-88355197D01*
X140689482Y-88355197D02*
X140546625Y-88450435D01*
X140546625Y-88450435D02*
X140356149Y-88498054D01*
X140356149Y-88498054D02*
X139975197Y-88498054D01*
X139975197Y-88498054D02*
X139879959Y-88450435D01*
X139879959Y-88450435D02*
X139832340Y-88402816D01*
X139832340Y-88402816D02*
X139784720Y-88307578D01*
X139784720Y-88307578D02*
X139784720Y-88117102D01*
X139784720Y-88117102D02*
X139832340Y-88021864D01*
X139832340Y-88021864D02*
X139879959Y-87974245D01*
X139879959Y-87974245D02*
X139975197Y-87926626D01*
X139975197Y-87926626D02*
X140213292Y-87926626D01*
X140213292Y-87926626D02*
X140308530Y-87974245D01*
X140308530Y-87974245D02*
X140356149Y-88021864D01*
X140356149Y-88021864D02*
X140403768Y-88117102D01*
X140403768Y-88117102D02*
X140403768Y-88307578D01*
X140403768Y-88307578D02*
X140356149Y-88402816D01*
X140356149Y-88402816D02*
X140308530Y-88450435D01*
X140308530Y-88450435D02*
X140213292Y-88498054D01*
%TO.C,FB1*%
X166583333Y-104843571D02*
X166916666Y-104843571D01*
X166916666Y-105367380D02*
X166916666Y-104367380D01*
X166916666Y-104367380D02*
X166440476Y-104367380D01*
X165726190Y-104843571D02*
X165583333Y-104891190D01*
X165583333Y-104891190D02*
X165535714Y-104938809D01*
X165535714Y-104938809D02*
X165488095Y-105034047D01*
X165488095Y-105034047D02*
X165488095Y-105176904D01*
X165488095Y-105176904D02*
X165535714Y-105272142D01*
X165535714Y-105272142D02*
X165583333Y-105319761D01*
X165583333Y-105319761D02*
X165678571Y-105367380D01*
X165678571Y-105367380D02*
X166059523Y-105367380D01*
X166059523Y-105367380D02*
X166059523Y-104367380D01*
X166059523Y-104367380D02*
X165726190Y-104367380D01*
X165726190Y-104367380D02*
X165630952Y-104415000D01*
X165630952Y-104415000D02*
X165583333Y-104462619D01*
X165583333Y-104462619D02*
X165535714Y-104557857D01*
X165535714Y-104557857D02*
X165535714Y-104653095D01*
X165535714Y-104653095D02*
X165583333Y-104748333D01*
X165583333Y-104748333D02*
X165630952Y-104795952D01*
X165630952Y-104795952D02*
X165726190Y-104843571D01*
X165726190Y-104843571D02*
X166059523Y-104843571D01*
X164535714Y-105367380D02*
X165107142Y-105367380D01*
X164821428Y-105367380D02*
X164821428Y-104367380D01*
X164821428Y-104367380D02*
X164916666Y-104510238D01*
X164916666Y-104510238D02*
X165011904Y-104605476D01*
X165011904Y-104605476D02*
X165107142Y-104653095D01*
%TO.C,D2*%
X170238094Y-109267380D02*
X170238094Y-108267380D01*
X170238094Y-108267380D02*
X169999999Y-108267380D01*
X169999999Y-108267380D02*
X169857142Y-108315000D01*
X169857142Y-108315000D02*
X169761904Y-108410238D01*
X169761904Y-108410238D02*
X169714285Y-108505476D01*
X169714285Y-108505476D02*
X169666666Y-108695952D01*
X169666666Y-108695952D02*
X169666666Y-108838809D01*
X169666666Y-108838809D02*
X169714285Y-109029285D01*
X169714285Y-109029285D02*
X169761904Y-109124523D01*
X169761904Y-109124523D02*
X169857142Y-109219761D01*
X169857142Y-109219761D02*
X169999999Y-109267380D01*
X169999999Y-109267380D02*
X170238094Y-109267380D01*
X169285713Y-108362619D02*
X169238094Y-108315000D01*
X169238094Y-108315000D02*
X169142856Y-108267380D01*
X169142856Y-108267380D02*
X168904761Y-108267380D01*
X168904761Y-108267380D02*
X168809523Y-108315000D01*
X168809523Y-108315000D02*
X168761904Y-108362619D01*
X168761904Y-108362619D02*
X168714285Y-108457857D01*
X168714285Y-108457857D02*
X168714285Y-108553095D01*
X168714285Y-108553095D02*
X168761904Y-108695952D01*
X168761904Y-108695952D02*
X169333332Y-109267380D01*
X169333332Y-109267380D02*
X168714285Y-109267380D01*
%TO.C,CP1*%
X175027142Y-119133333D02*
X175074761Y-119085714D01*
X175074761Y-119085714D02*
X175122380Y-118942857D01*
X175122380Y-118942857D02*
X175122380Y-118847619D01*
X175122380Y-118847619D02*
X175074761Y-118704762D01*
X175074761Y-118704762D02*
X174979523Y-118609524D01*
X174979523Y-118609524D02*
X174884285Y-118561905D01*
X174884285Y-118561905D02*
X174693809Y-118514286D01*
X174693809Y-118514286D02*
X174550952Y-118514286D01*
X174550952Y-118514286D02*
X174360476Y-118561905D01*
X174360476Y-118561905D02*
X174265238Y-118609524D01*
X174265238Y-118609524D02*
X174170000Y-118704762D01*
X174170000Y-118704762D02*
X174122380Y-118847619D01*
X174122380Y-118847619D02*
X174122380Y-118942857D01*
X174122380Y-118942857D02*
X174170000Y-119085714D01*
X174170000Y-119085714D02*
X174217619Y-119133333D01*
X175122380Y-119561905D02*
X174122380Y-119561905D01*
X174122380Y-119561905D02*
X174122380Y-119942857D01*
X174122380Y-119942857D02*
X174170000Y-120038095D01*
X174170000Y-120038095D02*
X174217619Y-120085714D01*
X174217619Y-120085714D02*
X174312857Y-120133333D01*
X174312857Y-120133333D02*
X174455714Y-120133333D01*
X174455714Y-120133333D02*
X174550952Y-120085714D01*
X174550952Y-120085714D02*
X174598571Y-120038095D01*
X174598571Y-120038095D02*
X174646190Y-119942857D01*
X174646190Y-119942857D02*
X174646190Y-119561905D01*
X175122380Y-121085714D02*
X175122380Y-120514286D01*
X175122380Y-120800000D02*
X174122380Y-120800000D01*
X174122380Y-120800000D02*
X174265238Y-120704762D01*
X174265238Y-120704762D02*
X174360476Y-120609524D01*
X174360476Y-120609524D02*
X174408095Y-120514286D01*
D13*
%TO.C,J7*%
X112476553Y-124999994D02*
G75*
G03*
X112476553Y-124999994I-381000J0D01*
G01*
D14*
%TO.C,U21*%
X158250000Y-128500000D02*
X141250000Y-128500000D01*
X137250000Y-124500000D02*
X137250000Y-107500000D01*
X162250000Y-107500000D02*
X162250000Y-124500000D01*
X141250000Y-103500000D02*
X158250000Y-103500000D01*
X137250000Y-124500000D02*
G75*
G03*
X141250000Y-128500000I4000000J0D01*
G01*
X158250000Y-128500000D02*
G75*
G03*
X162250000Y-124500000I0J4000000D01*
G01*
X141250000Y-103500000D02*
G75*
G03*
X137250000Y-107500000I0J-4000000D01*
G01*
X162250000Y-107500000D02*
G75*
G03*
X158250000Y-103500000I-4000000J0D01*
G01*
D13*
%TO.C,C5*%
X170390580Y-124760000D02*
X170109420Y-124760000D01*
X170390580Y-123740000D02*
X170109420Y-123740000D01*
D10*
%TO.C,S1*%
X141050000Y-135750000D02*
X141050000Y-138750000D01*
X141050000Y-138750000D02*
X147450000Y-138750000D01*
X145875000Y-141250000D02*
X145875000Y-141250000D01*
X145875000Y-141250000D02*
X145875000Y-141250000D01*
X145875000Y-141350000D02*
X145875000Y-141350000D01*
X147450000Y-135750000D02*
X141050000Y-135750000D01*
X147450000Y-138750000D02*
X147450000Y-135750000D01*
X145875000Y-141350000D02*
G75*
G03*
X145875000Y-141250000I0J50000D01*
G01*
X145875000Y-141350000D02*
G75*
G03*
X145875000Y-141250000I0J50000D01*
G01*
X145875000Y-141250000D02*
G75*
G03*
X145875000Y-141350000I0J-50000D01*
G01*
D13*
%TO.C,C4*%
X170390580Y-123010000D02*
X170109420Y-123010000D01*
X170390580Y-121990000D02*
X170109420Y-121990000D01*
%TO.C,R11*%
X143689840Y-89975082D02*
X143689840Y-90449598D01*
X142644840Y-89975082D02*
X142644840Y-90449598D01*
%TO.C,R10*%
X137689840Y-89975082D02*
X137689840Y-90449598D01*
X136644840Y-89975082D02*
X136644840Y-90449598D01*
%TO.C,CP2*%
X173972500Y-117460000D02*
X167212500Y-117460000D01*
X173972500Y-114040000D02*
X173972500Y-117460000D01*
X167212500Y-114040000D02*
X173972500Y-114040000D01*
D15*
%TO.C,J1*%
X176345000Y-143920000D02*
X165145000Y-143920000D01*
X176345000Y-142680000D02*
X176345000Y-143920000D01*
X176345000Y-133900000D02*
X176345000Y-140400000D01*
X176345000Y-128480000D02*
X176345000Y-131680000D01*
X174745000Y-128480000D02*
X176345000Y-128480000D01*
D10*
X174050000Y-127700000D02*
X174050000Y-127700000D01*
X173850000Y-127700000D02*
X173850000Y-127700000D01*
D15*
X166745000Y-128480000D02*
X165145000Y-128480000D01*
X165145000Y-143920000D02*
X165145000Y-142680000D01*
X165145000Y-133900000D02*
X165145000Y-140400000D01*
X165145000Y-128480000D02*
X165145000Y-131680000D01*
X165145000Y-128480000D02*
X165145000Y-128480000D01*
D10*
X173850000Y-127700000D02*
G75*
G03*
X174050000Y-127700000I100000J0D01*
G01*
X174050000Y-127700000D02*
G75*
G03*
X173850000Y-127700000I-100000J0D01*
G01*
D13*
%TO.C,D5*%
X143902340Y-92152340D02*
X143902340Y-94437340D01*
X142432340Y-92152340D02*
X143902340Y-92152340D01*
X142432340Y-94437340D02*
X142432340Y-92152340D01*
%TO.C,C6*%
X174489420Y-104605000D02*
X174770580Y-104605000D01*
X174489420Y-105625000D02*
X174770580Y-105625000D01*
%TO.C,D3*%
X140902340Y-92189840D02*
X140902340Y-94474840D01*
X139432340Y-92189840D02*
X140902340Y-92189840D01*
X139432340Y-94474840D02*
X139432340Y-92189840D01*
%TO.C,D4*%
X137902340Y-92189840D02*
X137902340Y-94474840D01*
X136432340Y-92189840D02*
X137902340Y-92189840D01*
X136432340Y-94474840D02*
X136432340Y-92189840D01*
%TO.C,CP3*%
X173972500Y-113460000D02*
X167212500Y-113460000D01*
X173972500Y-110040000D02*
X173972500Y-113460000D01*
X167212500Y-110040000D02*
X173972500Y-110040000D01*
%TO.C,R9*%
X140689840Y-89975082D02*
X140689840Y-90449598D01*
X139644840Y-89975082D02*
X139644840Y-90449598D01*
%TO.C,FB1*%
X170022936Y-106090000D02*
X171477064Y-106090000D01*
X170022936Y-107910000D02*
X171477064Y-107910000D01*
%TO.C,D2*%
X173010000Y-108400000D02*
X173010000Y-109600000D01*
X171050000Y-109600000D02*
X173010000Y-109600000D01*
X171050000Y-108400000D02*
X173010000Y-108400000D01*
%TO.C,CP1*%
X174010000Y-121460000D02*
X167250000Y-121460000D01*
X174010000Y-118040000D02*
X174010000Y-121460000D01*
X167250000Y-118040000D02*
X174010000Y-118040000D01*
%TD*%
M02*
