%TF.GenerationSoftware,KiCad,Pcbnew,(7.0.0-0)*%
%TF.CreationDate,2023-03-16T16:39:44+01:00*%
%TF.ProjectId,roam,726f616d-2e6b-4696-9361-645f70636258,rev?*%
%TF.SameCoordinates,Original*%
%TF.FileFunction,Soldermask,Bot*%
%TF.FilePolarity,Negative*%
%FSLAX46Y46*%
G04 Gerber Fmt 4.6, Leading zero omitted, Abs format (unit mm)*
G04 Created by KiCad (PCBNEW (7.0.0-0)) date 2023-03-16 16:39:44*
%MOMM*%
%LPD*%
G01*
G04 APERTURE LIST*
G04 Aperture macros list*
%AMRoundRect*
0 Rectangle with rounded corners*
0 $1 Rounding radius*
0 $2 $3 $4 $5 $6 $7 $8 $9 X,Y pos of 4 corners*
0 Add a 4 corners polygon primitive as box body*
4,1,4,$2,$3,$4,$5,$6,$7,$8,$9,$2,$3,0*
0 Add four circle primitives for the rounded corners*
1,1,$1+$1,$2,$3*
1,1,$1+$1,$4,$5*
1,1,$1+$1,$6,$7*
1,1,$1+$1,$8,$9*
0 Add four rect primitives between the rounded corners*
20,1,$1+$1,$2,$3,$4,$5,0*
20,1,$1+$1,$4,$5,$6,$7,0*
20,1,$1+$1,$6,$7,$8,$9,0*
20,1,$1+$1,$8,$9,$2,$3,0*%
G04 Aperture macros list end*
%ADD10C,0.010000*%
%ADD11C,5.600000*%
%ADD12C,3.200400*%
%ADD13C,1.600200*%
%ADD14RoundRect,0.200000X0.200000X0.450000X-0.200000X0.450000X-0.200000X-0.450000X0.200000X-0.450000X0*%
%ADD15O,0.800000X1.300000*%
%ADD16RoundRect,0.150000X0.512500X0.150000X-0.512500X0.150000X-0.512500X-0.150000X0.512500X-0.150000X0*%
%ADD17C,2.000000*%
%ADD18RoundRect,0.150000X-0.512500X-0.150000X0.512500X-0.150000X0.512500X0.150000X-0.512500X0.150000X0*%
%ADD19RoundRect,0.250000X-0.625000X0.375000X-0.625000X-0.375000X0.625000X-0.375000X0.625000X0.375000X0*%
%ADD20C,1.300000*%
%ADD21R,1.400000X1.400000*%
%ADD22RoundRect,0.200000X-0.275000X0.200000X-0.275000X-0.200000X0.275000X-0.200000X0.275000X0.200000X0*%
%ADD23RoundRect,0.250000X0.787500X0.925000X-0.787500X0.925000X-0.787500X-0.925000X0.787500X-0.925000X0*%
%ADD24R,0.900000X1.200000*%
%ADD25R,1.300000X1.800000*%
%ADD26RoundRect,0.218750X-0.256250X0.218750X-0.256250X-0.218750X0.256250X-0.218750X0.256250X0.218750X0*%
%ADD27R,4.800000X4.720000*%
%ADD28R,1.400000X1.270000*%
%ADD29R,0.797560X0.998220*%
%ADD30R,2.199640X1.049020*%
%ADD31RoundRect,0.250000X0.300000X-0.300000X0.300000X0.300000X-0.300000X0.300000X-0.300000X-0.300000X0*%
%ADD32RoundRect,0.250000X-0.312500X-0.625000X0.312500X-0.625000X0.312500X0.625000X-0.312500X0.625000X0*%
%ADD33RoundRect,0.150000X-0.150000X-0.200000X0.150000X-0.200000X0.150000X0.200000X-0.150000X0.200000X0*%
G04 APERTURE END LIST*
%TO.C,H5*%
G36*
X196407718Y-88413639D02*
G01*
X195418455Y-88413639D01*
X195418455Y-88253218D01*
X196407718Y-88253218D01*
X196407718Y-88413639D01*
G37*
D10*
X196407718Y-88413639D02*
X195418455Y-88413639D01*
X195418455Y-88253218D01*
X196407718Y-88253218D01*
X196407718Y-88413639D01*
G36*
X198974455Y-91702271D02*
G01*
X198546665Y-91702271D01*
X198546665Y-92183534D01*
X198974455Y-92183534D01*
X198974455Y-92343955D01*
X197985192Y-92343955D01*
X197985192Y-92183534D01*
X198386244Y-92183534D01*
X198386244Y-91702271D01*
X197985192Y-91702271D01*
X197985192Y-91515113D01*
X198974455Y-91515113D01*
X198974455Y-91702271D01*
G37*
X198974455Y-91702271D02*
X198546665Y-91702271D01*
X198546665Y-92183534D01*
X198974455Y-92183534D01*
X198974455Y-92343955D01*
X197985192Y-92343955D01*
X197985192Y-92183534D01*
X198386244Y-92183534D01*
X198386244Y-91702271D01*
X197985192Y-91702271D01*
X197985192Y-91515113D01*
X198974455Y-91515113D01*
X198974455Y-91702271D01*
G36*
X197691086Y-89777218D02*
G01*
X197263297Y-89777218D01*
X197263297Y-90258481D01*
X197691086Y-90258481D01*
X197691086Y-90418903D01*
X196701823Y-90418903D01*
X196701823Y-90258481D01*
X197102876Y-90258481D01*
X197102876Y-89777218D01*
X196701823Y-89777218D01*
X196701823Y-89590060D01*
X197691086Y-89590060D01*
X197691086Y-89777218D01*
G37*
X197691086Y-89777218D02*
X197263297Y-89777218D01*
X197263297Y-90258481D01*
X197691086Y-90258481D01*
X197691086Y-90418903D01*
X196701823Y-90418903D01*
X196701823Y-90258481D01*
X197102876Y-90258481D01*
X197102876Y-89777218D01*
X196701823Y-89777218D01*
X196701823Y-89590060D01*
X197691086Y-89590060D01*
X197691086Y-89777218D01*
G36*
X195578876Y-86809429D02*
G01*
X195819507Y-86809429D01*
X195819507Y-86354903D01*
X195979928Y-86354903D01*
X195979928Y-86809429D01*
X196247297Y-86809429D01*
X196247297Y-86301429D01*
X196407718Y-86301429D01*
X196407718Y-86996587D01*
X195418455Y-86996587D01*
X195418455Y-86274692D01*
X195578876Y-86274692D01*
X195578876Y-86809429D01*
G37*
X195578876Y-86809429D02*
X195819507Y-86809429D01*
X195819507Y-86354903D01*
X195979928Y-86354903D01*
X195979928Y-86809429D01*
X196247297Y-86809429D01*
X196247297Y-86301429D01*
X196407718Y-86301429D01*
X196407718Y-86996587D01*
X195418455Y-86996587D01*
X195418455Y-86274692D01*
X195578876Y-86274692D01*
X195578876Y-86809429D01*
G36*
X195565507Y-90432271D02*
G01*
X195573127Y-90706324D01*
X195580747Y-90980376D01*
X195819507Y-90980376D01*
X195819507Y-90499113D01*
X195979928Y-90499113D01*
X195979928Y-90980376D01*
X196247297Y-90980376D01*
X196247297Y-90445639D01*
X196407718Y-90445639D01*
X196407718Y-91140797D01*
X195418455Y-91140797D01*
X195418455Y-90415351D01*
X195565507Y-90432271D01*
G37*
X195565507Y-90432271D02*
X195573127Y-90706324D01*
X195580747Y-90980376D01*
X195819507Y-90980376D01*
X195819507Y-90499113D01*
X195979928Y-90499113D01*
X195979928Y-90980376D01*
X196247297Y-90980376D01*
X196247297Y-90445639D01*
X196407718Y-90445639D01*
X196407718Y-91140797D01*
X195418455Y-91140797D01*
X195418455Y-90415351D01*
X195565507Y-90432271D01*
G36*
X196775350Y-91626969D02*
G01*
X196848876Y-91635429D01*
X196856495Y-91909481D01*
X196864115Y-92183534D01*
X197102876Y-92183534D01*
X197102876Y-91702271D01*
X197263297Y-91702271D01*
X197263297Y-92183534D01*
X197530665Y-92183534D01*
X197530665Y-91648797D01*
X197691086Y-91648797D01*
X197691086Y-92343955D01*
X196701823Y-92343955D01*
X196701823Y-91618509D01*
X196775350Y-91626969D01*
G37*
X196775350Y-91626969D02*
X196848876Y-91635429D01*
X196856495Y-91909481D01*
X196864115Y-92183534D01*
X197102876Y-92183534D01*
X197102876Y-91702271D01*
X197263297Y-91702271D01*
X197263297Y-92183534D01*
X197530665Y-92183534D01*
X197530665Y-91648797D01*
X197691086Y-91648797D01*
X197691086Y-92343955D01*
X196701823Y-92343955D01*
X196701823Y-91618509D01*
X196775350Y-91626969D01*
G36*
X197691086Y-93279745D02*
G01*
X197609649Y-93279745D01*
X197564325Y-93277124D01*
X197540839Y-93260516D01*
X197532012Y-93216760D01*
X197530665Y-93132692D01*
X197530665Y-92985639D01*
X196701823Y-92985639D01*
X196701823Y-92798481D01*
X197530665Y-92798481D01*
X197530665Y-92649180D01*
X197532095Y-92566086D01*
X197541154Y-92523028D01*
X197565021Y-92506846D01*
X197610876Y-92504376D01*
X197691086Y-92504376D01*
X197691086Y-93279745D01*
G37*
X197691086Y-93279745D02*
X197609649Y-93279745D01*
X197564325Y-93277124D01*
X197540839Y-93260516D01*
X197532012Y-93216760D01*
X197530665Y-93132692D01*
X197530665Y-92985639D01*
X196701823Y-92985639D01*
X196701823Y-92798481D01*
X197530665Y-92798481D01*
X197530665Y-92649180D01*
X197532095Y-92566086D01*
X197541154Y-92523028D01*
X197565021Y-92506846D01*
X197610876Y-92504376D01*
X197691086Y-92504376D01*
X197691086Y-93279745D01*
G36*
X198974455Y-93279745D02*
G01*
X198893018Y-93279745D01*
X198847693Y-93277124D01*
X198824207Y-93260516D01*
X198815381Y-93216760D01*
X198814034Y-93132692D01*
X198814034Y-92985639D01*
X197985192Y-92985639D01*
X197985192Y-92798481D01*
X198814034Y-92798481D01*
X198814034Y-92649180D01*
X198815463Y-92566086D01*
X198824522Y-92523028D01*
X198848389Y-92506846D01*
X198894244Y-92504376D01*
X198974455Y-92504376D01*
X198974455Y-93279745D01*
G37*
X198974455Y-93279745D02*
X198893018Y-93279745D01*
X198847693Y-93277124D01*
X198824207Y-93260516D01*
X198815381Y-93216760D01*
X198814034Y-93132692D01*
X198814034Y-92985639D01*
X197985192Y-92985639D01*
X197985192Y-92798481D01*
X198814034Y-92798481D01*
X198814034Y-92649180D01*
X198815463Y-92566086D01*
X198824522Y-92523028D01*
X198848389Y-92506846D01*
X198894244Y-92504376D01*
X198974455Y-92504376D01*
X198974455Y-93279745D01*
G36*
X196407718Y-89349429D02*
G01*
X196326281Y-89349429D01*
X196280957Y-89346808D01*
X196257471Y-89330201D01*
X196248644Y-89286444D01*
X196247297Y-89202376D01*
X196247297Y-89055324D01*
X195418455Y-89055324D01*
X195418455Y-88868166D01*
X196247297Y-88868166D01*
X196247297Y-88718864D01*
X196248726Y-88635770D01*
X196257785Y-88592712D01*
X196281652Y-88576530D01*
X196327507Y-88574060D01*
X196407718Y-88574060D01*
X196407718Y-89349429D01*
G37*
X196407718Y-89349429D02*
X196326281Y-89349429D01*
X196280957Y-89346808D01*
X196257471Y-89330201D01*
X196248644Y-89286444D01*
X196247297Y-89202376D01*
X196247297Y-89055324D01*
X195418455Y-89055324D01*
X195418455Y-88868166D01*
X196247297Y-88868166D01*
X196247297Y-88718864D01*
X196248726Y-88635770D01*
X196257785Y-88592712D01*
X196281652Y-88576530D01*
X196327507Y-88574060D01*
X196407718Y-88574060D01*
X196407718Y-89349429D01*
G36*
X198145613Y-91087324D02*
G01*
X198384162Y-91087324D01*
X198391888Y-90853376D01*
X198392364Y-90838977D01*
X198396668Y-90732035D01*
X198403275Y-90666571D01*
X198415807Y-90631778D01*
X198437888Y-90616846D01*
X198473139Y-90610969D01*
X198546665Y-90602509D01*
X198546665Y-91087324D01*
X198814034Y-91087324D01*
X198814034Y-90552587D01*
X198976007Y-90552587D01*
X198968547Y-90906850D01*
X198961086Y-91261113D01*
X198473139Y-91268400D01*
X197985192Y-91275688D01*
X197985192Y-90552587D01*
X198145613Y-90552587D01*
X198145613Y-91087324D01*
G37*
X198145613Y-91087324D02*
X198384162Y-91087324D01*
X198391888Y-90853376D01*
X198392364Y-90838977D01*
X198396668Y-90732035D01*
X198403275Y-90666571D01*
X198415807Y-90631778D01*
X198437888Y-90616846D01*
X198473139Y-90610969D01*
X198546665Y-90602509D01*
X198546665Y-91087324D01*
X198814034Y-91087324D01*
X198814034Y-90552587D01*
X198976007Y-90552587D01*
X198968547Y-90906850D01*
X198961086Y-91261113D01*
X198473139Y-91268400D01*
X197985192Y-91275688D01*
X197985192Y-90552587D01*
X198145613Y-90552587D01*
X198145613Y-91087324D01*
G36*
X197691086Y-88599288D02*
G01*
X196976144Y-88614166D01*
X197333615Y-88891733D01*
X197416018Y-88955917D01*
X197524898Y-89042341D01*
X197600618Y-89106253D01*
X197649137Y-89153783D01*
X197676415Y-89191059D01*
X197688412Y-89224210D01*
X197691086Y-89259365D01*
X197691086Y-89349429D01*
X196701823Y-89349429D01*
X196701823Y-89162271D01*
X197404149Y-89162271D01*
X197052986Y-88890612D01*
X196938980Y-88802105D01*
X196841431Y-88724480D01*
X196775119Y-88667407D01*
X196734022Y-88624469D01*
X196712120Y-88589250D01*
X196703394Y-88555331D01*
X196701823Y-88516297D01*
X196701823Y-88413639D01*
X197691086Y-88413639D01*
X197691086Y-88599288D01*
G37*
X197691086Y-88599288D02*
X196976144Y-88614166D01*
X197333615Y-88891733D01*
X197416018Y-88955917D01*
X197524898Y-89042341D01*
X197600618Y-89106253D01*
X197649137Y-89153783D01*
X197676415Y-89191059D01*
X197688412Y-89224210D01*
X197691086Y-89259365D01*
X197691086Y-89349429D01*
X196701823Y-89349429D01*
X196701823Y-89162271D01*
X197404149Y-89162271D01*
X197052986Y-88890612D01*
X196938980Y-88802105D01*
X196841431Y-88724480D01*
X196775119Y-88667407D01*
X196734022Y-88624469D01*
X196712120Y-88589250D01*
X196703394Y-88555331D01*
X196701823Y-88516297D01*
X196701823Y-88413639D01*
X197691086Y-88413639D01*
X197691086Y-88599288D01*
G36*
X197326925Y-96493498D02*
G01*
X197485188Y-96494255D01*
X197607192Y-96495534D01*
X197687202Y-96497315D01*
X197719477Y-96499575D01*
X197722610Y-96502358D01*
X197749326Y-96540108D01*
X197798651Y-96617771D01*
X197867562Y-96730326D01*
X197953038Y-96872748D01*
X198052055Y-97040013D01*
X198161593Y-97227098D01*
X198278627Y-97428979D01*
X198309850Y-97483085D01*
X198426119Y-97684346D01*
X198534415Y-97871473D01*
X198631621Y-98039098D01*
X198714615Y-98181854D01*
X198780280Y-98294374D01*
X198825496Y-98371290D01*
X198847144Y-98407236D01*
X198885971Y-98467394D01*
X197762771Y-98467394D01*
X197472288Y-97966078D01*
X197181806Y-97464762D01*
X196592740Y-97457582D01*
X196003673Y-97450401D01*
X195731267Y-96976318D01*
X195458860Y-96502236D01*
X196574438Y-96495253D01*
X196691973Y-96494581D01*
X196924580Y-96493639D01*
X197138143Y-96493285D01*
X197326925Y-96493498D01*
G37*
X197326925Y-96493498D02*
X197485188Y-96494255D01*
X197607192Y-96495534D01*
X197687202Y-96497315D01*
X197719477Y-96499575D01*
X197722610Y-96502358D01*
X197749326Y-96540108D01*
X197798651Y-96617771D01*
X197867562Y-96730326D01*
X197953038Y-96872748D01*
X198052055Y-97040013D01*
X198161593Y-97227098D01*
X198278627Y-97428979D01*
X198309850Y-97483085D01*
X198426119Y-97684346D01*
X198534415Y-97871473D01*
X198631621Y-98039098D01*
X198714615Y-98181854D01*
X198780280Y-98294374D01*
X198825496Y-98371290D01*
X198847144Y-98407236D01*
X198885971Y-98467394D01*
X197762771Y-98467394D01*
X197472288Y-97966078D01*
X197181806Y-97464762D01*
X196592740Y-97457582D01*
X196003673Y-97450401D01*
X195731267Y-96976318D01*
X195458860Y-96502236D01*
X196574438Y-96495253D01*
X196691973Y-96494581D01*
X196924580Y-96493639D01*
X197138143Y-96493285D01*
X197326925Y-96493498D01*
G36*
X196405044Y-87158568D02*
G01*
X196402860Y-87222466D01*
X196394350Y-87321784D01*
X196054798Y-87460860D01*
X196018503Y-87475773D01*
X195897941Y-87526035D01*
X195798544Y-87568570D01*
X195729784Y-87599276D01*
X195701132Y-87614050D01*
X195702575Y-87617416D01*
X195737240Y-87638343D01*
X195810047Y-87673570D01*
X195912593Y-87719160D01*
X196036478Y-87771177D01*
X196080444Y-87789393D01*
X196202045Y-87842267D01*
X196301870Y-87889321D01*
X196370576Y-87926003D01*
X196398823Y-87947761D01*
X196404965Y-87983702D01*
X196403028Y-88048632D01*
X196394350Y-88115931D01*
X195953192Y-87935483D01*
X195828859Y-87884693D01*
X195695207Y-87830259D01*
X195584060Y-87785167D01*
X195504408Y-87753065D01*
X195465244Y-87737597D01*
X195459719Y-87735248D01*
X195428161Y-87697298D01*
X195418646Y-87619057D01*
X195418838Y-87517955D01*
X195866489Y-87338012D01*
X195996035Y-87286024D01*
X196130659Y-87232198D01*
X196242644Y-87187636D01*
X196323005Y-87155915D01*
X196362755Y-87140609D01*
X196392601Y-87135590D01*
X196405044Y-87158568D01*
G37*
X196405044Y-87158568D02*
X196402860Y-87222466D01*
X196394350Y-87321784D01*
X196054798Y-87460860D01*
X196018503Y-87475773D01*
X195897941Y-87526035D01*
X195798544Y-87568570D01*
X195729784Y-87599276D01*
X195701132Y-87614050D01*
X195702575Y-87617416D01*
X195737240Y-87638343D01*
X195810047Y-87673570D01*
X195912593Y-87719160D01*
X196036478Y-87771177D01*
X196080444Y-87789393D01*
X196202045Y-87842267D01*
X196301870Y-87889321D01*
X196370576Y-87926003D01*
X196398823Y-87947761D01*
X196404965Y-87983702D01*
X196403028Y-88048632D01*
X196394350Y-88115931D01*
X195953192Y-87935483D01*
X195828859Y-87884693D01*
X195695207Y-87830259D01*
X195584060Y-87785167D01*
X195504408Y-87753065D01*
X195465244Y-87737597D01*
X195459719Y-87735248D01*
X195428161Y-87697298D01*
X195418646Y-87619057D01*
X195418838Y-87517955D01*
X195866489Y-87338012D01*
X195996035Y-87286024D01*
X196130659Y-87232198D01*
X196242644Y-87187636D01*
X196323005Y-87155915D01*
X196362755Y-87140609D01*
X196392601Y-87135590D01*
X196405044Y-87158568D01*
G36*
X195418455Y-92156797D02*
G01*
X195418455Y-91996376D01*
X195739297Y-91996376D01*
X195899718Y-91996376D01*
X196247297Y-91996376D01*
X196247297Y-91822587D01*
X196241578Y-91723985D01*
X196212419Y-91620904D01*
X196156981Y-91561140D01*
X196073507Y-91541850D01*
X196016887Y-91554873D01*
X195953192Y-91595324D01*
X195945047Y-91603971D01*
X195917391Y-91650028D01*
X195903518Y-91717644D01*
X195899718Y-91822587D01*
X195899718Y-91996376D01*
X195739297Y-91996376D01*
X195738651Y-91882745D01*
X195738223Y-91855419D01*
X195731681Y-91802910D01*
X195709477Y-91762220D01*
X195661809Y-91719816D01*
X195578876Y-91662166D01*
X195540529Y-91636196D01*
X195473019Y-91586348D01*
X195436812Y-91546279D01*
X195422106Y-91502439D01*
X195419100Y-91441280D01*
X195418455Y-91327342D01*
X195583844Y-91447687D01*
X195749234Y-91568032D01*
X195817792Y-91486526D01*
X195905595Y-91415762D01*
X196026605Y-91377477D01*
X196161497Y-91383234D01*
X196196941Y-91392242D01*
X196280432Y-91432462D01*
X196340325Y-91499242D01*
X196379537Y-91598972D01*
X196400980Y-91738045D01*
X196407569Y-91922850D01*
X196407718Y-92156797D01*
X196247297Y-92156797D01*
X195418455Y-92156797D01*
G37*
X195418455Y-92156797D02*
X195418455Y-91996376D01*
X195739297Y-91996376D01*
X195899718Y-91996376D01*
X196247297Y-91996376D01*
X196247297Y-91822587D01*
X196241578Y-91723985D01*
X196212419Y-91620904D01*
X196156981Y-91561140D01*
X196073507Y-91541850D01*
X196016887Y-91554873D01*
X195953192Y-91595324D01*
X195945047Y-91603971D01*
X195917391Y-91650028D01*
X195903518Y-91717644D01*
X195899718Y-91822587D01*
X195899718Y-91996376D01*
X195739297Y-91996376D01*
X195738651Y-91882745D01*
X195738223Y-91855419D01*
X195731681Y-91802910D01*
X195709477Y-91762220D01*
X195661809Y-91719816D01*
X195578876Y-91662166D01*
X195540529Y-91636196D01*
X195473019Y-91586348D01*
X195436812Y-91546279D01*
X195422106Y-91502439D01*
X195419100Y-91441280D01*
X195418455Y-91327342D01*
X195583844Y-91447687D01*
X195749234Y-91568032D01*
X195817792Y-91486526D01*
X195905595Y-91415762D01*
X196026605Y-91377477D01*
X196161497Y-91383234D01*
X196196941Y-91392242D01*
X196280432Y-91432462D01*
X196340325Y-91499242D01*
X196379537Y-91598972D01*
X196400980Y-91738045D01*
X196407569Y-91922850D01*
X196407718Y-92156797D01*
X196247297Y-92156797D01*
X195418455Y-92156797D01*
G36*
X197583178Y-90645296D02*
G01*
X197626189Y-90697702D01*
X197676886Y-90802241D01*
X197707734Y-90920647D01*
X197711057Y-91029844D01*
X197701860Y-91081955D01*
X197646818Y-91231185D01*
X197559374Y-91350084D01*
X197447684Y-91437173D01*
X197319910Y-91490970D01*
X197184210Y-91509994D01*
X197048744Y-91492764D01*
X196921671Y-91437800D01*
X196811151Y-91343621D01*
X196725343Y-91208746D01*
X196689384Y-91098969D01*
X196681554Y-90937286D01*
X196724910Y-90779850D01*
X196768551Y-90694469D01*
X196813503Y-90640573D01*
X196859569Y-90630035D01*
X196913966Y-90658213D01*
X196978114Y-90706599D01*
X196920179Y-90780251D01*
X196892100Y-90828155D01*
X196864767Y-90936784D01*
X196867429Y-91056475D01*
X196901172Y-91165257D01*
X196938781Y-91217739D01*
X197029953Y-91283445D01*
X197142995Y-91319204D01*
X197261530Y-91320852D01*
X197369179Y-91284226D01*
X197422878Y-91243253D01*
X197493519Y-91143647D01*
X197528497Y-91022860D01*
X197524688Y-90895358D01*
X197478971Y-90775609D01*
X197466839Y-90755593D01*
X197442643Y-90707693D01*
X197446714Y-90677760D01*
X197479071Y-90644465D01*
X197509252Y-90619331D01*
X197541320Y-90613473D01*
X197583178Y-90645296D01*
G37*
X197583178Y-90645296D02*
X197626189Y-90697702D01*
X197676886Y-90802241D01*
X197707734Y-90920647D01*
X197711057Y-91029844D01*
X197701860Y-91081955D01*
X197646818Y-91231185D01*
X197559374Y-91350084D01*
X197447684Y-91437173D01*
X197319910Y-91490970D01*
X197184210Y-91509994D01*
X197048744Y-91492764D01*
X196921671Y-91437800D01*
X196811151Y-91343621D01*
X196725343Y-91208746D01*
X196689384Y-91098969D01*
X196681554Y-90937286D01*
X196724910Y-90779850D01*
X196768551Y-90694469D01*
X196813503Y-90640573D01*
X196859569Y-90630035D01*
X196913966Y-90658213D01*
X196978114Y-90706599D01*
X196920179Y-90780251D01*
X196892100Y-90828155D01*
X196864767Y-90936784D01*
X196867429Y-91056475D01*
X196901172Y-91165257D01*
X196938781Y-91217739D01*
X197029953Y-91283445D01*
X197142995Y-91319204D01*
X197261530Y-91320852D01*
X197369179Y-91284226D01*
X197422878Y-91243253D01*
X197493519Y-91143647D01*
X197528497Y-91022860D01*
X197524688Y-90895358D01*
X197478971Y-90775609D01*
X197466839Y-90755593D01*
X197442643Y-90707693D01*
X197446714Y-90677760D01*
X197479071Y-90644465D01*
X197509252Y-90619331D01*
X197541320Y-90613473D01*
X197583178Y-90645296D01*
G36*
X198343778Y-94262917D02*
G01*
X198504053Y-94263812D01*
X198644297Y-94265928D01*
X198756148Y-94269043D01*
X198831248Y-94272934D01*
X198861235Y-94277377D01*
X198858853Y-94286270D01*
X198835080Y-94335516D01*
X198788578Y-94423415D01*
X198722028Y-94545126D01*
X198638115Y-94695812D01*
X198539521Y-94870633D01*
X198428930Y-95064750D01*
X198309024Y-95273324D01*
X197742339Y-96254797D01*
X196634654Y-96261783D01*
X196524412Y-96262416D01*
X196292014Y-96263327D01*
X196078407Y-96263599D01*
X195889372Y-96263258D01*
X195730689Y-96262333D01*
X195608137Y-96260851D01*
X195527496Y-96258840D01*
X195494547Y-96256328D01*
X195492443Y-96241248D01*
X195513696Y-96183063D01*
X195562201Y-96083447D01*
X195636945Y-95944439D01*
X195736916Y-95768078D01*
X196011708Y-95292271D01*
X196604450Y-95278902D01*
X197197192Y-95265534D01*
X197466227Y-94798851D01*
X197480554Y-94774018D01*
X197563168Y-94631678D01*
X197637352Y-94505230D01*
X197698574Y-94402303D01*
X197742302Y-94330528D01*
X197764004Y-94297535D01*
X197771594Y-94291516D01*
X197807918Y-94280285D01*
X197875298Y-94272157D01*
X197979333Y-94266783D01*
X198125619Y-94263814D01*
X198319753Y-94262902D01*
X198343778Y-94262917D01*
G37*
X198343778Y-94262917D02*
X198504053Y-94263812D01*
X198644297Y-94265928D01*
X198756148Y-94269043D01*
X198831248Y-94272934D01*
X198861235Y-94277377D01*
X198858853Y-94286270D01*
X198835080Y-94335516D01*
X198788578Y-94423415D01*
X198722028Y-94545126D01*
X198638115Y-94695812D01*
X198539521Y-94870633D01*
X198428930Y-95064750D01*
X198309024Y-95273324D01*
X197742339Y-96254797D01*
X196634654Y-96261783D01*
X196524412Y-96262416D01*
X196292014Y-96263327D01*
X196078407Y-96263599D01*
X195889372Y-96263258D01*
X195730689Y-96262333D01*
X195608137Y-96260851D01*
X195527496Y-96258840D01*
X195494547Y-96256328D01*
X195492443Y-96241248D01*
X195513696Y-96183063D01*
X195562201Y-96083447D01*
X195636945Y-95944439D01*
X195736916Y-95768078D01*
X196011708Y-95292271D01*
X196604450Y-95278902D01*
X197197192Y-95265534D01*
X197466227Y-94798851D01*
X197480554Y-94774018D01*
X197563168Y-94631678D01*
X197637352Y-94505230D01*
X197698574Y-94402303D01*
X197742302Y-94330528D01*
X197764004Y-94297535D01*
X197771594Y-94291516D01*
X197807918Y-94280285D01*
X197875298Y-94272157D01*
X197979333Y-94266783D01*
X198125619Y-94263814D01*
X198319753Y-94262902D01*
X198343778Y-94262917D01*
G36*
X196278033Y-92353874D02*
G01*
X196317122Y-92395682D01*
X196365221Y-92482889D01*
X196418715Y-92620149D01*
X196431689Y-92748265D01*
X196404026Y-92881386D01*
X196378172Y-92945619D01*
X196292261Y-93074453D01*
X196179618Y-93167724D01*
X196049165Y-93224827D01*
X195909823Y-93245157D01*
X195770512Y-93228108D01*
X195640153Y-93173076D01*
X195527667Y-93079455D01*
X195441974Y-92946640D01*
X195434135Y-92928010D01*
X195404775Y-92827376D01*
X195392892Y-92731639D01*
X195400472Y-92657167D01*
X195431989Y-92545170D01*
X195480052Y-92443166D01*
X195535991Y-92372893D01*
X195559023Y-92356270D01*
X195592879Y-92353941D01*
X195636793Y-92389989D01*
X195691795Y-92444991D01*
X195633723Y-92523537D01*
X195588256Y-92613801D01*
X195573963Y-92733611D01*
X195600541Y-92852094D01*
X195664386Y-92955064D01*
X195761898Y-93028334D01*
X195828356Y-93052274D01*
X195952096Y-93060135D01*
X196066023Y-93025022D01*
X196159964Y-92953285D01*
X196223746Y-92851277D01*
X196247197Y-92725348D01*
X196234940Y-92616536D01*
X196195602Y-92513504D01*
X196188447Y-92501711D01*
X196161106Y-92449552D01*
X196162242Y-92418051D01*
X196191123Y-92386504D01*
X196238988Y-92352500D01*
X196278033Y-92353874D01*
G37*
X196278033Y-92353874D02*
X196317122Y-92395682D01*
X196365221Y-92482889D01*
X196418715Y-92620149D01*
X196431689Y-92748265D01*
X196404026Y-92881386D01*
X196378172Y-92945619D01*
X196292261Y-93074453D01*
X196179618Y-93167724D01*
X196049165Y-93224827D01*
X195909823Y-93245157D01*
X195770512Y-93228108D01*
X195640153Y-93173076D01*
X195527667Y-93079455D01*
X195441974Y-92946640D01*
X195434135Y-92928010D01*
X195404775Y-92827376D01*
X195392892Y-92731639D01*
X195400472Y-92657167D01*
X195431989Y-92545170D01*
X195480052Y-92443166D01*
X195535991Y-92372893D01*
X195559023Y-92356270D01*
X195592879Y-92353941D01*
X195636793Y-92389989D01*
X195691795Y-92444991D01*
X195633723Y-92523537D01*
X195588256Y-92613801D01*
X195573963Y-92733611D01*
X195600541Y-92852094D01*
X195664386Y-92955064D01*
X195761898Y-93028334D01*
X195828356Y-93052274D01*
X195952096Y-93060135D01*
X196066023Y-93025022D01*
X196159964Y-92953285D01*
X196223746Y-92851277D01*
X196247197Y-92725348D01*
X196234940Y-92616536D01*
X196195602Y-92513504D01*
X196188447Y-92501711D01*
X196161106Y-92449552D01*
X196162242Y-92418051D01*
X196191123Y-92386504D01*
X196238988Y-92352500D01*
X196278033Y-92353874D01*
G36*
X197127151Y-88213862D02*
G01*
X196989864Y-88174971D01*
X196866733Y-88101837D01*
X196767592Y-87996397D01*
X196702274Y-87860588D01*
X196690711Y-87815043D01*
X196683491Y-87669359D01*
X196841692Y-87669359D01*
X196842716Y-87749849D01*
X196875147Y-87844955D01*
X196925084Y-87923697D01*
X197016478Y-87994644D01*
X197127035Y-88030950D01*
X197244764Y-88032823D01*
X197357673Y-88000467D01*
X197453772Y-87934087D01*
X197521071Y-87833890D01*
X197535987Y-87790500D01*
X197545674Y-87668077D01*
X197512293Y-87555339D01*
X197443539Y-87460781D01*
X197347105Y-87392899D01*
X197230687Y-87360188D01*
X197101977Y-87371144D01*
X197038179Y-87395492D01*
X196934237Y-87475962D01*
X196864025Y-87593222D01*
X196841692Y-87669359D01*
X196683491Y-87669359D01*
X196682605Y-87651479D01*
X196725200Y-87494444D01*
X196816496Y-87352821D01*
X196907637Y-87268604D01*
X197038928Y-87204234D01*
X197196455Y-87183745D01*
X197322797Y-87196304D01*
X197458883Y-87250914D01*
X197576414Y-87352821D01*
X197628479Y-87420936D01*
X197696076Y-87568333D01*
X197712304Y-87723365D01*
X197677059Y-87880837D01*
X197590235Y-88035550D01*
X197525603Y-88105695D01*
X197404855Y-88181161D01*
X197268759Y-88216571D01*
X197244764Y-88216111D01*
X197127151Y-88213862D01*
G37*
X197127151Y-88213862D02*
X196989864Y-88174971D01*
X196866733Y-88101837D01*
X196767592Y-87996397D01*
X196702274Y-87860588D01*
X196690711Y-87815043D01*
X196683491Y-87669359D01*
X196841692Y-87669359D01*
X196842716Y-87749849D01*
X196875147Y-87844955D01*
X196925084Y-87923697D01*
X197016478Y-87994644D01*
X197127035Y-88030950D01*
X197244764Y-88032823D01*
X197357673Y-88000467D01*
X197453772Y-87934087D01*
X197521071Y-87833890D01*
X197535987Y-87790500D01*
X197545674Y-87668077D01*
X197512293Y-87555339D01*
X197443539Y-87460781D01*
X197347105Y-87392899D01*
X197230687Y-87360188D01*
X197101977Y-87371144D01*
X197038179Y-87395492D01*
X196934237Y-87475962D01*
X196864025Y-87593222D01*
X196841692Y-87669359D01*
X196683491Y-87669359D01*
X196682605Y-87651479D01*
X196725200Y-87494444D01*
X196816496Y-87352821D01*
X196907637Y-87268604D01*
X197038928Y-87204234D01*
X197196455Y-87183745D01*
X197322797Y-87196304D01*
X197458883Y-87250914D01*
X197576414Y-87352821D01*
X197628479Y-87420936D01*
X197696076Y-87568333D01*
X197712304Y-87723365D01*
X197677059Y-87880837D01*
X197590235Y-88035550D01*
X197525603Y-88105695D01*
X197404855Y-88181161D01*
X197268759Y-88216571D01*
X197244764Y-88216111D01*
X197127151Y-88213862D01*
G36*
X195770982Y-90170502D02*
G01*
X195642271Y-90226451D01*
X195538691Y-90270714D01*
X195468137Y-90299915D01*
X195438507Y-90310677D01*
X195436501Y-90310357D01*
X195423692Y-90282268D01*
X195418455Y-90222432D01*
X195418505Y-90214040D01*
X195426254Y-90157979D01*
X195457148Y-90122760D01*
X195525402Y-90090899D01*
X195632350Y-90048888D01*
X195632078Y-89799422D01*
X195632070Y-89792264D01*
X195792771Y-89792264D01*
X195794557Y-89876253D01*
X195799588Y-89939995D01*
X195806726Y-89964376D01*
X195819756Y-89961374D01*
X195870123Y-89941849D01*
X195942189Y-89909910D01*
X196021813Y-89872319D01*
X196094855Y-89835836D01*
X196147171Y-89807224D01*
X196164622Y-89793245D01*
X196163388Y-89792309D01*
X196129726Y-89774619D01*
X196062003Y-89742296D01*
X195973244Y-89701580D01*
X195792771Y-89620151D01*
X195792771Y-89792264D01*
X195632070Y-89792264D01*
X195631806Y-89549955D01*
X195525130Y-89505151D01*
X195511589Y-89499386D01*
X195450435Y-89466694D01*
X195424097Y-89428400D01*
X195418455Y-89366103D01*
X195418455Y-89271858D01*
X195719244Y-89406331D01*
X195827070Y-89454272D01*
X195972959Y-89518476D01*
X196108795Y-89577599D01*
X196215235Y-89623183D01*
X196300031Y-89659532D01*
X196363077Y-89691139D01*
X196394686Y-89718990D01*
X196404558Y-89752256D01*
X196402393Y-89800104D01*
X196394350Y-89894645D01*
X195926455Y-90102022D01*
X195916924Y-90106245D01*
X195806726Y-90154765D01*
X195770982Y-90170502D01*
G37*
X195770982Y-90170502D02*
X195642271Y-90226451D01*
X195538691Y-90270714D01*
X195468137Y-90299915D01*
X195438507Y-90310677D01*
X195436501Y-90310357D01*
X195423692Y-90282268D01*
X195418455Y-90222432D01*
X195418505Y-90214040D01*
X195426254Y-90157979D01*
X195457148Y-90122760D01*
X195525402Y-90090899D01*
X195632350Y-90048888D01*
X195632078Y-89799422D01*
X195632070Y-89792264D01*
X195792771Y-89792264D01*
X195794557Y-89876253D01*
X195799588Y-89939995D01*
X195806726Y-89964376D01*
X195819756Y-89961374D01*
X195870123Y-89941849D01*
X195942189Y-89909910D01*
X196021813Y-89872319D01*
X196094855Y-89835836D01*
X196147171Y-89807224D01*
X196164622Y-89793245D01*
X196163388Y-89792309D01*
X196129726Y-89774619D01*
X196062003Y-89742296D01*
X195973244Y-89701580D01*
X195792771Y-89620151D01*
X195792771Y-89792264D01*
X195632070Y-89792264D01*
X195631806Y-89549955D01*
X195525130Y-89505151D01*
X195511589Y-89499386D01*
X195450435Y-89466694D01*
X195424097Y-89428400D01*
X195418455Y-89366103D01*
X195418455Y-89271858D01*
X195719244Y-89406331D01*
X195827070Y-89454272D01*
X195972959Y-89518476D01*
X196108795Y-89577599D01*
X196215235Y-89623183D01*
X196300031Y-89659532D01*
X196363077Y-89691139D01*
X196394686Y-89718990D01*
X196404558Y-89752256D01*
X196402393Y-89800104D01*
X196394350Y-89894645D01*
X195926455Y-90102022D01*
X195916924Y-90106245D01*
X195806726Y-90154765D01*
X195770982Y-90170502D01*
G36*
X195799464Y-85390195D02*
G01*
X195870273Y-85445120D01*
X195933072Y-85542727D01*
X195993535Y-85688358D01*
X196016104Y-85750567D01*
X196050554Y-85836373D01*
X196078462Y-85885764D01*
X196106057Y-85908351D01*
X196139563Y-85913745D01*
X196189276Y-85901377D01*
X196246075Y-85840816D01*
X196261792Y-85810218D01*
X196272705Y-85766335D01*
X196264890Y-85712378D01*
X196237558Y-85628652D01*
X196212147Y-85554184D01*
X196201729Y-85505615D01*
X196209781Y-85477498D01*
X196236180Y-85454266D01*
X196254395Y-85441479D01*
X196298806Y-85422679D01*
X196333058Y-85442300D01*
X196372029Y-85506008D01*
X196383389Y-85530138D01*
X196413302Y-85642255D01*
X196420044Y-85766816D01*
X196403913Y-85883467D01*
X196365208Y-85971858D01*
X196275565Y-86061772D01*
X196173945Y-86101683D01*
X196059530Y-86090510D01*
X196045324Y-86086013D01*
X195974755Y-86051726D01*
X195921216Y-85996439D01*
X195876939Y-85909451D01*
X195834156Y-85780060D01*
X195833989Y-85779484D01*
X195797725Y-85666642D01*
X195764661Y-85597321D01*
X195728780Y-85562410D01*
X195684066Y-85552797D01*
X195666661Y-85555437D01*
X195612618Y-85591673D01*
X195569654Y-85655557D01*
X195552139Y-85728005D01*
X195556914Y-85758329D01*
X195581064Y-85831515D01*
X195618760Y-85915898D01*
X195685381Y-86047429D01*
X195625444Y-86093036D01*
X195589370Y-86118238D01*
X195556518Y-86122987D01*
X195519571Y-86093036D01*
X195510429Y-86082790D01*
X195470383Y-86019759D01*
X195434560Y-85940481D01*
X195417953Y-85888487D01*
X195396782Y-85741269D01*
X195413994Y-85608190D01*
X195466242Y-85497535D01*
X195550179Y-85417587D01*
X195662454Y-85376630D01*
X195714967Y-85372606D01*
X195799464Y-85390195D01*
G37*
X195799464Y-85390195D02*
X195870273Y-85445120D01*
X195933072Y-85542727D01*
X195993535Y-85688358D01*
X196016104Y-85750567D01*
X196050554Y-85836373D01*
X196078462Y-85885764D01*
X196106057Y-85908351D01*
X196139563Y-85913745D01*
X196189276Y-85901377D01*
X196246075Y-85840816D01*
X196261792Y-85810218D01*
X196272705Y-85766335D01*
X196264890Y-85712378D01*
X196237558Y-85628652D01*
X196212147Y-85554184D01*
X196201729Y-85505615D01*
X196209781Y-85477498D01*
X196236180Y-85454266D01*
X196254395Y-85441479D01*
X196298806Y-85422679D01*
X196333058Y-85442300D01*
X196372029Y-85506008D01*
X196383389Y-85530138D01*
X196413302Y-85642255D01*
X196420044Y-85766816D01*
X196403913Y-85883467D01*
X196365208Y-85971858D01*
X196275565Y-86061772D01*
X196173945Y-86101683D01*
X196059530Y-86090510D01*
X196045324Y-86086013D01*
X195974755Y-86051726D01*
X195921216Y-85996439D01*
X195876939Y-85909451D01*
X195834156Y-85780060D01*
X195833989Y-85779484D01*
X195797725Y-85666642D01*
X195764661Y-85597321D01*
X195728780Y-85562410D01*
X195684066Y-85552797D01*
X195666661Y-85555437D01*
X195612618Y-85591673D01*
X195569654Y-85655557D01*
X195552139Y-85728005D01*
X195556914Y-85758329D01*
X195581064Y-85831515D01*
X195618760Y-85915898D01*
X195685381Y-86047429D01*
X195625444Y-86093036D01*
X195589370Y-86118238D01*
X195556518Y-86122987D01*
X195519571Y-86093036D01*
X195510429Y-86082790D01*
X195470383Y-86019759D01*
X195434560Y-85940481D01*
X195417953Y-85888487D01*
X195396782Y-85741269D01*
X195413994Y-85608190D01*
X195466242Y-85497535D01*
X195550179Y-85417587D01*
X195662454Y-85376630D01*
X195714967Y-85372606D01*
X195799464Y-85390195D01*
G36*
X199051758Y-94468750D02*
G01*
X199053058Y-94470539D01*
X199082930Y-94516831D01*
X199130978Y-94596515D01*
X199192183Y-94700753D01*
X199261520Y-94820708D01*
X199333969Y-94947542D01*
X199404507Y-95072418D01*
X199468112Y-95186500D01*
X199519762Y-95280949D01*
X199554435Y-95346928D01*
X199567109Y-95375601D01*
X199565875Y-95379742D01*
X199545637Y-95420959D01*
X199503619Y-95499055D01*
X199443770Y-95606889D01*
X199370038Y-95737321D01*
X199286372Y-95883211D01*
X199259743Y-95929413D01*
X199178772Y-96070915D01*
X199108936Y-96194475D01*
X199054174Y-96293025D01*
X199018427Y-96359496D01*
X199005635Y-96386818D01*
X199006853Y-96390537D01*
X199027054Y-96430436D01*
X199069060Y-96507303D01*
X199128918Y-96614067D01*
X199202673Y-96743655D01*
X199286372Y-96888995D01*
X199311988Y-96933335D01*
X199393248Y-97075438D01*
X199463359Y-97200211D01*
X199518352Y-97300451D01*
X199554258Y-97368955D01*
X199567109Y-97398520D01*
X199554617Y-97428466D01*
X199520190Y-97494545D01*
X199468633Y-97588451D01*
X199404749Y-97701909D01*
X199333342Y-97826640D01*
X199259216Y-97954367D01*
X199187175Y-98076812D01*
X199122023Y-98185699D01*
X199068563Y-98272748D01*
X199031601Y-98329684D01*
X199015938Y-98348228D01*
X199011210Y-98340867D01*
X198983306Y-98294021D01*
X198933007Y-98208224D01*
X198863132Y-98088328D01*
X198776501Y-97939185D01*
X198675936Y-97765646D01*
X198564256Y-97572563D01*
X198444281Y-97364788D01*
X198380033Y-97253396D01*
X198264662Y-97053193D01*
X198159459Y-96870410D01*
X198067189Y-96709861D01*
X197990614Y-96576360D01*
X197932497Y-96474721D01*
X197895601Y-96409758D01*
X197882688Y-96386285D01*
X197886797Y-96378544D01*
X197913475Y-96331241D01*
X197962600Y-96245108D01*
X198031423Y-96124941D01*
X198117192Y-95975534D01*
X198217156Y-95801682D01*
X198328564Y-95608180D01*
X198448664Y-95399823D01*
X198484740Y-95337291D01*
X198616972Y-95108595D01*
X198725819Y-94921611D01*
X198813755Y-94772517D01*
X198883256Y-94657491D01*
X198936798Y-94572711D01*
X198976856Y-94514357D01*
X199005905Y-94478605D01*
X199026422Y-94461634D01*
X199040881Y-94459623D01*
X199051758Y-94468750D01*
G37*
X199051758Y-94468750D02*
X199053058Y-94470539D01*
X199082930Y-94516831D01*
X199130978Y-94596515D01*
X199192183Y-94700753D01*
X199261520Y-94820708D01*
X199333969Y-94947542D01*
X199404507Y-95072418D01*
X199468112Y-95186500D01*
X199519762Y-95280949D01*
X199554435Y-95346928D01*
X199567109Y-95375601D01*
X199565875Y-95379742D01*
X199545637Y-95420959D01*
X199503619Y-95499055D01*
X199443770Y-95606889D01*
X199370038Y-95737321D01*
X199286372Y-95883211D01*
X199259743Y-95929413D01*
X199178772Y-96070915D01*
X199108936Y-96194475D01*
X199054174Y-96293025D01*
X199018427Y-96359496D01*
X199005635Y-96386818D01*
X199006853Y-96390537D01*
X199027054Y-96430436D01*
X199069060Y-96507303D01*
X199128918Y-96614067D01*
X199202673Y-96743655D01*
X199286372Y-96888995D01*
X199311988Y-96933335D01*
X199393248Y-97075438D01*
X199463359Y-97200211D01*
X199518352Y-97300451D01*
X199554258Y-97368955D01*
X199567109Y-97398520D01*
X199554617Y-97428466D01*
X199520190Y-97494545D01*
X199468633Y-97588451D01*
X199404749Y-97701909D01*
X199333342Y-97826640D01*
X199259216Y-97954367D01*
X199187175Y-98076812D01*
X199122023Y-98185699D01*
X199068563Y-98272748D01*
X199031601Y-98329684D01*
X199015938Y-98348228D01*
X199011210Y-98340867D01*
X198983306Y-98294021D01*
X198933007Y-98208224D01*
X198863132Y-98088328D01*
X198776501Y-97939185D01*
X198675936Y-97765646D01*
X198564256Y-97572563D01*
X198444281Y-97364788D01*
X198380033Y-97253396D01*
X198264662Y-97053193D01*
X198159459Y-96870410D01*
X198067189Y-96709861D01*
X197990614Y-96576360D01*
X197932497Y-96474721D01*
X197895601Y-96409758D01*
X197882688Y-96386285D01*
X197886797Y-96378544D01*
X197913475Y-96331241D01*
X197962600Y-96245108D01*
X198031423Y-96124941D01*
X198117192Y-95975534D01*
X198217156Y-95801682D01*
X198328564Y-95608180D01*
X198448664Y-95399823D01*
X198484740Y-95337291D01*
X198616972Y-95108595D01*
X198725819Y-94921611D01*
X198813755Y-94772517D01*
X198883256Y-94657491D01*
X198936798Y-94572711D01*
X198976856Y-94514357D01*
X199005905Y-94478605D01*
X199026422Y-94461634D01*
X199040881Y-94459623D01*
X199051758Y-94468750D01*
%TD*%
D11*
%TO.C,H2*%
X105000000Y-90000000D03*
%TD*%
%TO.C,H3*%
X181000000Y-90000000D03*
%TD*%
D12*
%TO.C,J7*%
X105595553Y-99500005D03*
X105595553Y-130499994D03*
D13*
X110095552Y-125000000D03*
X110095552Y-122500000D03*
X110095552Y-120000000D03*
X110095552Y-117500000D03*
X110095552Y-115000000D03*
X110095552Y-112499999D03*
X110095552Y-109999999D03*
X110095552Y-107499999D03*
X110095552Y-104999999D03*
X107095553Y-125000000D03*
X107095553Y-122500000D03*
X107095553Y-120000000D03*
X107095553Y-117500000D03*
X107095553Y-115000000D03*
X107095553Y-112499999D03*
X107095553Y-109999999D03*
X107095553Y-107499999D03*
X107095553Y-104999999D03*
%TD*%
D14*
%TO.C,J2*%
X117000000Y-88450000D03*
D15*
X115749999Y-88449999D03*
X114499999Y-88449999D03*
%TD*%
D11*
%TO.C,H4*%
X181000000Y-140000000D03*
%TD*%
%TO.C,H1*%
X105000000Y-140000000D03*
%TD*%
D16*
%TO.C,D26*%
X114837500Y-119350000D03*
X114837500Y-120300000D03*
X114837500Y-121250000D03*
X112562500Y-121250000D03*
X112562500Y-119350000D03*
%TD*%
%TO.C,D27*%
X114937500Y-109550000D03*
X114937500Y-110500000D03*
X114937500Y-111450000D03*
X112662500Y-111450000D03*
X112662500Y-110500000D03*
X112662500Y-109550000D03*
%TD*%
D17*
%TO.C,U21*%
X147250000Y-116000000D03*
%TD*%
D18*
%TO.C,D29*%
X102512500Y-109450000D03*
X102512500Y-108500000D03*
X102512500Y-107550000D03*
X104787500Y-107550000D03*
X104787500Y-108500000D03*
X104787500Y-109450000D03*
%TD*%
D19*
%TO.C,F3*%
X110125000Y-128125000D03*
X110125000Y-130925000D03*
%TD*%
D20*
%TO.C,S1*%
X142525000Y-137250000D03*
X145875000Y-137250000D03*
D21*
X145874999Y-139949999D03*
X145874999Y-134549999D03*
X142624999Y-139949999D03*
X142624999Y-134549999D03*
%TD*%
D16*
%TO.C,D28*%
X114937500Y-114450000D03*
X114937500Y-115400000D03*
X114937500Y-116350000D03*
X112662500Y-116350000D03*
X112662500Y-114450000D03*
%TD*%
D22*
%TO.C,R10*%
X137167340Y-89387340D03*
X137167340Y-91037340D03*
%TD*%
D23*
%TO.C,CP2*%
X172675000Y-115750000D03*
X167750000Y-115750000D03*
%TD*%
D24*
%TO.C,J1*%
X173919999Y-128679999D03*
X171379999Y-128679999D03*
X168839999Y-128679999D03*
X172649999Y-128679999D03*
X170109999Y-128679999D03*
X167569999Y-128679999D03*
D25*
X176899999Y-132779999D03*
X164599999Y-132779999D03*
X176899999Y-141579999D03*
X164599999Y-141579999D03*
%TD*%
D26*
%TO.C,D5*%
X144400000Y-92849840D03*
X144400000Y-94424840D03*
%TD*%
%TO.C,D3*%
X140800000Y-92887340D03*
X140800000Y-94462340D03*
%TD*%
%TO.C,D4*%
X137167340Y-92887340D03*
X137167340Y-94462340D03*
%TD*%
D27*
%TO.C,D6*%
X112249999Y-137014999D03*
D28*
X113289999Y-133209999D03*
X111209999Y-133209999D03*
%TD*%
D23*
%TO.C,CP3*%
X172675000Y-111750000D03*
X167750000Y-111750000D03*
%TD*%
D29*
%TO.C,J3*%
X150187619Y-115399999D03*
D30*
X151711619Y-116774139D03*
X151711619Y-114025859D03*
%TD*%
D22*
%TO.C,R9*%
X140800000Y-89387340D03*
X140800000Y-91037340D03*
%TD*%
D31*
%TO.C,D30*%
X113050000Y-130800000D03*
X113050000Y-128000000D03*
%TD*%
D32*
%TO.C,FB1*%
X169287500Y-107000000D03*
X172212500Y-107000000D03*
%TD*%
D22*
%TO.C,R65*%
X144400000Y-89300000D03*
X144400000Y-90950000D03*
%TD*%
D33*
%TO.C,D2*%
X172450000Y-109000000D03*
X171050000Y-109000000D03*
%TD*%
D23*
%TO.C,CP1*%
X172712500Y-119750000D03*
X167787500Y-119750000D03*
%TD*%
M02*
