%TF.GenerationSoftware,KiCad,Pcbnew,(7.0.0-0)*%
%TF.CreationDate,2023-03-16T16:39:44+01:00*%
%TF.ProjectId,roam,726f616d-2e6b-4696-9361-645f70636258,rev?*%
%TF.SameCoordinates,Original*%
%TF.FileFunction,Legend,Bot*%
%TF.FilePolarity,Positive*%
%FSLAX46Y46*%
G04 Gerber Fmt 4.6, Leading zero omitted, Abs format (unit mm)*
G04 Created by KiCad (PCBNEW (7.0.0-0)) date 2023-03-16 16:39:44*
%MOMM*%
%LPD*%
G01*
G04 APERTURE LIST*
%ADD10C,0.200000*%
%ADD11C,0.300000*%
%ADD12C,0.150000*%
%ADD13C,0.254000*%
%ADD14C,0.120000*%
%ADD15C,0.127000*%
%ADD16C,0.100000*%
%ADD17C,0.203200*%
%ADD18C,0.066040*%
G04 APERTURE END LIST*
D10*
G36*
X194150000Y-116750000D02*
G01*
X190650000Y-116750000D01*
X190650000Y-142750000D01*
X195650000Y-142750000D01*
X195650000Y-105250000D01*
X197150000Y-105250000D01*
X197150000Y-144250000D01*
X189150000Y-144250000D01*
X189150000Y-116750000D01*
X184950000Y-116750000D01*
X184950000Y-115750000D01*
X186150000Y-115750000D01*
X186150000Y-112250000D01*
X189650000Y-112250000D01*
X189650000Y-107250000D01*
X184950000Y-107250000D01*
X184950000Y-105750000D01*
X191150000Y-105750000D01*
X191150000Y-112250000D01*
X192150000Y-112250000D01*
X192150000Y-102750000D01*
X188150000Y-102750000D01*
X188150000Y-86750000D01*
X194150000Y-86750000D01*
X194150000Y-116750000D01*
G37*
X194150000Y-116750000D02*
X190650000Y-116750000D01*
X190650000Y-142750000D01*
X195650000Y-142750000D01*
X195650000Y-105250000D01*
X197150000Y-105250000D01*
X197150000Y-144250000D01*
X189150000Y-144250000D01*
X189150000Y-116750000D01*
X184950000Y-116750000D01*
X184950000Y-115750000D01*
X186150000Y-115750000D01*
X186150000Y-112250000D01*
X189650000Y-112250000D01*
X189650000Y-107250000D01*
X184950000Y-107250000D01*
X184950000Y-105750000D01*
X191150000Y-105750000D01*
X191150000Y-112250000D01*
X192150000Y-112250000D01*
X192150000Y-102750000D01*
X188150000Y-102750000D01*
X188150000Y-86750000D01*
X194150000Y-86750000D01*
X194150000Y-116750000D01*
X117361904Y-140822619D02*
X116790476Y-140822619D01*
X117076190Y-140822619D02*
X117076190Y-141822619D01*
X117076190Y-141822619D02*
X116980952Y-141679761D01*
X116980952Y-141679761D02*
X116885714Y-141584523D01*
X116885714Y-141584523D02*
X116790476Y-141536904D01*
X117980952Y-141822619D02*
X118076190Y-141822619D01*
X118076190Y-141822619D02*
X118171428Y-141775000D01*
X118171428Y-141775000D02*
X118219047Y-141727380D01*
X118219047Y-141727380D02*
X118266666Y-141632142D01*
X118266666Y-141632142D02*
X118314285Y-141441666D01*
X118314285Y-141441666D02*
X118314285Y-141203571D01*
X118314285Y-141203571D02*
X118266666Y-141013095D01*
X118266666Y-141013095D02*
X118219047Y-140917857D01*
X118219047Y-140917857D02*
X118171428Y-140870238D01*
X118171428Y-140870238D02*
X118076190Y-140822619D01*
X118076190Y-140822619D02*
X117980952Y-140822619D01*
X117980952Y-140822619D02*
X117885714Y-140870238D01*
X117885714Y-140870238D02*
X117838095Y-140917857D01*
X117838095Y-140917857D02*
X117790476Y-141013095D01*
X117790476Y-141013095D02*
X117742857Y-141203571D01*
X117742857Y-141203571D02*
X117742857Y-141441666D01*
X117742857Y-141441666D02*
X117790476Y-141632142D01*
X117790476Y-141632142D02*
X117838095Y-141727380D01*
X117838095Y-141727380D02*
X117885714Y-141775000D01*
X117885714Y-141775000D02*
X117980952Y-141822619D01*
X119295238Y-140870238D02*
X119438095Y-140822619D01*
X119438095Y-140822619D02*
X119676190Y-140822619D01*
X119676190Y-140822619D02*
X119771428Y-140870238D01*
X119771428Y-140870238D02*
X119819047Y-140917857D01*
X119819047Y-140917857D02*
X119866666Y-141013095D01*
X119866666Y-141013095D02*
X119866666Y-141108333D01*
X119866666Y-141108333D02*
X119819047Y-141203571D01*
X119819047Y-141203571D02*
X119771428Y-141251190D01*
X119771428Y-141251190D02*
X119676190Y-141298809D01*
X119676190Y-141298809D02*
X119485714Y-141346428D01*
X119485714Y-141346428D02*
X119390476Y-141394047D01*
X119390476Y-141394047D02*
X119342857Y-141441666D01*
X119342857Y-141441666D02*
X119295238Y-141536904D01*
X119295238Y-141536904D02*
X119295238Y-141632142D01*
X119295238Y-141632142D02*
X119342857Y-141727380D01*
X119342857Y-141727380D02*
X119390476Y-141775000D01*
X119390476Y-141775000D02*
X119485714Y-141822619D01*
X119485714Y-141822619D02*
X119723809Y-141822619D01*
X119723809Y-141822619D02*
X119866666Y-141775000D01*
X120200000Y-141822619D02*
X120438095Y-140822619D01*
X120438095Y-140822619D02*
X120628571Y-141536904D01*
X120628571Y-141536904D02*
X120819047Y-140822619D01*
X120819047Y-140822619D02*
X121057143Y-141822619D01*
X121438095Y-140822619D02*
X121438095Y-141822619D01*
X121438095Y-141822619D02*
X121676190Y-141822619D01*
X121676190Y-141822619D02*
X121819047Y-141775000D01*
X121819047Y-141775000D02*
X121914285Y-141679761D01*
X121914285Y-141679761D02*
X121961904Y-141584523D01*
X121961904Y-141584523D02*
X122009523Y-141394047D01*
X122009523Y-141394047D02*
X122009523Y-141251190D01*
X122009523Y-141251190D02*
X121961904Y-141060714D01*
X121961904Y-141060714D02*
X121914285Y-140965476D01*
X121914285Y-140965476D02*
X121819047Y-140870238D01*
X121819047Y-140870238D02*
X121676190Y-140822619D01*
X121676190Y-140822619D02*
X121438095Y-140822619D01*
X122438095Y-140822619D02*
X122438095Y-141822619D01*
X123104761Y-141822619D02*
X123295237Y-141822619D01*
X123295237Y-141822619D02*
X123390475Y-141775000D01*
X123390475Y-141775000D02*
X123485713Y-141679761D01*
X123485713Y-141679761D02*
X123533332Y-141489285D01*
X123533332Y-141489285D02*
X123533332Y-141155952D01*
X123533332Y-141155952D02*
X123485713Y-140965476D01*
X123485713Y-140965476D02*
X123390475Y-140870238D01*
X123390475Y-140870238D02*
X123295237Y-140822619D01*
X123295237Y-140822619D02*
X123104761Y-140822619D01*
X123104761Y-140822619D02*
X123009523Y-140870238D01*
X123009523Y-140870238D02*
X122914285Y-140965476D01*
X122914285Y-140965476D02*
X122866666Y-141155952D01*
X122866666Y-141155952D02*
X122866666Y-141489285D01*
X122866666Y-141489285D02*
X122914285Y-141679761D01*
X122914285Y-141679761D02*
X123009523Y-141775000D01*
X123009523Y-141775000D02*
X123104761Y-141822619D01*
X117361904Y-139202619D02*
X116790476Y-139202619D01*
X117076190Y-139202619D02*
X117076190Y-140202619D01*
X117076190Y-140202619D02*
X116980952Y-140059761D01*
X116980952Y-140059761D02*
X116885714Y-139964523D01*
X116885714Y-139964523D02*
X116790476Y-139916904D01*
X118314285Y-139202619D02*
X117742857Y-139202619D01*
X118028571Y-139202619D02*
X118028571Y-140202619D01*
X118028571Y-140202619D02*
X117933333Y-140059761D01*
X117933333Y-140059761D02*
X117838095Y-139964523D01*
X117838095Y-139964523D02*
X117742857Y-139916904D01*
X119295238Y-139250238D02*
X119438095Y-139202619D01*
X119438095Y-139202619D02*
X119676190Y-139202619D01*
X119676190Y-139202619D02*
X119771428Y-139250238D01*
X119771428Y-139250238D02*
X119819047Y-139297857D01*
X119819047Y-139297857D02*
X119866666Y-139393095D01*
X119866666Y-139393095D02*
X119866666Y-139488333D01*
X119866666Y-139488333D02*
X119819047Y-139583571D01*
X119819047Y-139583571D02*
X119771428Y-139631190D01*
X119771428Y-139631190D02*
X119676190Y-139678809D01*
X119676190Y-139678809D02*
X119485714Y-139726428D01*
X119485714Y-139726428D02*
X119390476Y-139774047D01*
X119390476Y-139774047D02*
X119342857Y-139821666D01*
X119342857Y-139821666D02*
X119295238Y-139916904D01*
X119295238Y-139916904D02*
X119295238Y-140012142D01*
X119295238Y-140012142D02*
X119342857Y-140107380D01*
X119342857Y-140107380D02*
X119390476Y-140155000D01*
X119390476Y-140155000D02*
X119485714Y-140202619D01*
X119485714Y-140202619D02*
X119723809Y-140202619D01*
X119723809Y-140202619D02*
X119866666Y-140155000D01*
X120200000Y-140202619D02*
X120438095Y-139202619D01*
X120438095Y-139202619D02*
X120628571Y-139916904D01*
X120628571Y-139916904D02*
X120819047Y-139202619D01*
X120819047Y-139202619D02*
X121057143Y-140202619D01*
X122009523Y-139297857D02*
X121961904Y-139250238D01*
X121961904Y-139250238D02*
X121819047Y-139202619D01*
X121819047Y-139202619D02*
X121723809Y-139202619D01*
X121723809Y-139202619D02*
X121580952Y-139250238D01*
X121580952Y-139250238D02*
X121485714Y-139345476D01*
X121485714Y-139345476D02*
X121438095Y-139440714D01*
X121438095Y-139440714D02*
X121390476Y-139631190D01*
X121390476Y-139631190D02*
X121390476Y-139774047D01*
X121390476Y-139774047D02*
X121438095Y-139964523D01*
X121438095Y-139964523D02*
X121485714Y-140059761D01*
X121485714Y-140059761D02*
X121580952Y-140155000D01*
X121580952Y-140155000D02*
X121723809Y-140202619D01*
X121723809Y-140202619D02*
X121819047Y-140202619D01*
X121819047Y-140202619D02*
X121961904Y-140155000D01*
X121961904Y-140155000D02*
X122009523Y-140107380D01*
X122914285Y-139202619D02*
X122438095Y-139202619D01*
X122438095Y-139202619D02*
X122438095Y-140202619D01*
X123247619Y-139202619D02*
X123247619Y-140202619D01*
X123819047Y-139202619D02*
X123390476Y-139774047D01*
X123819047Y-140202619D02*
X123247619Y-139631190D01*
X117361904Y-137582619D02*
X116790476Y-137582619D01*
X117076190Y-137582619D02*
X117076190Y-138582619D01*
X117076190Y-138582619D02*
X116980952Y-138439761D01*
X116980952Y-138439761D02*
X116885714Y-138344523D01*
X116885714Y-138344523D02*
X116790476Y-138296904D01*
X117742857Y-138487380D02*
X117790476Y-138535000D01*
X117790476Y-138535000D02*
X117885714Y-138582619D01*
X117885714Y-138582619D02*
X118123809Y-138582619D01*
X118123809Y-138582619D02*
X118219047Y-138535000D01*
X118219047Y-138535000D02*
X118266666Y-138487380D01*
X118266666Y-138487380D02*
X118314285Y-138392142D01*
X118314285Y-138392142D02*
X118314285Y-138296904D01*
X118314285Y-138296904D02*
X118266666Y-138154047D01*
X118266666Y-138154047D02*
X117695238Y-137582619D01*
X117695238Y-137582619D02*
X118314285Y-137582619D01*
X119200000Y-138582619D02*
X119533333Y-137582619D01*
X119533333Y-137582619D02*
X119866666Y-138582619D01*
X120771428Y-137677857D02*
X120723809Y-137630238D01*
X120723809Y-137630238D02*
X120580952Y-137582619D01*
X120580952Y-137582619D02*
X120485714Y-137582619D01*
X120485714Y-137582619D02*
X120342857Y-137630238D01*
X120342857Y-137630238D02*
X120247619Y-137725476D01*
X120247619Y-137725476D02*
X120200000Y-137820714D01*
X120200000Y-137820714D02*
X120152381Y-138011190D01*
X120152381Y-138011190D02*
X120152381Y-138154047D01*
X120152381Y-138154047D02*
X120200000Y-138344523D01*
X120200000Y-138344523D02*
X120247619Y-138439761D01*
X120247619Y-138439761D02*
X120342857Y-138535000D01*
X120342857Y-138535000D02*
X120485714Y-138582619D01*
X120485714Y-138582619D02*
X120580952Y-138582619D01*
X120580952Y-138582619D02*
X120723809Y-138535000D01*
X120723809Y-138535000D02*
X120771428Y-138487380D01*
X121200000Y-138582619D02*
X121200000Y-137773095D01*
X121200000Y-137773095D02*
X121247619Y-137677857D01*
X121247619Y-137677857D02*
X121295238Y-137630238D01*
X121295238Y-137630238D02*
X121390476Y-137582619D01*
X121390476Y-137582619D02*
X121580952Y-137582619D01*
X121580952Y-137582619D02*
X121676190Y-137630238D01*
X121676190Y-137630238D02*
X121723809Y-137677857D01*
X121723809Y-137677857D02*
X121771428Y-137773095D01*
X121771428Y-137773095D02*
X121771428Y-138582619D01*
X122009524Y-137487380D02*
X122771428Y-137487380D01*
X122961905Y-137630238D02*
X123104762Y-137582619D01*
X123104762Y-137582619D02*
X123342857Y-137582619D01*
X123342857Y-137582619D02*
X123438095Y-137630238D01*
X123438095Y-137630238D02*
X123485714Y-137677857D01*
X123485714Y-137677857D02*
X123533333Y-137773095D01*
X123533333Y-137773095D02*
X123533333Y-137868333D01*
X123533333Y-137868333D02*
X123485714Y-137963571D01*
X123485714Y-137963571D02*
X123438095Y-138011190D01*
X123438095Y-138011190D02*
X123342857Y-138058809D01*
X123342857Y-138058809D02*
X123152381Y-138106428D01*
X123152381Y-138106428D02*
X123057143Y-138154047D01*
X123057143Y-138154047D02*
X123009524Y-138201666D01*
X123009524Y-138201666D02*
X122961905Y-138296904D01*
X122961905Y-138296904D02*
X122961905Y-138392142D01*
X122961905Y-138392142D02*
X123009524Y-138487380D01*
X123009524Y-138487380D02*
X123057143Y-138535000D01*
X123057143Y-138535000D02*
X123152381Y-138582619D01*
X123152381Y-138582619D02*
X123390476Y-138582619D01*
X123390476Y-138582619D02*
X123533333Y-138535000D01*
X123866667Y-138582619D02*
X124104762Y-137582619D01*
X124104762Y-137582619D02*
X124295238Y-138296904D01*
X124295238Y-138296904D02*
X124485714Y-137582619D01*
X124485714Y-137582619D02*
X124723810Y-138582619D01*
X125676190Y-137677857D02*
X125628571Y-137630238D01*
X125628571Y-137630238D02*
X125485714Y-137582619D01*
X125485714Y-137582619D02*
X125390476Y-137582619D01*
X125390476Y-137582619D02*
X125247619Y-137630238D01*
X125247619Y-137630238D02*
X125152381Y-137725476D01*
X125152381Y-137725476D02*
X125104762Y-137820714D01*
X125104762Y-137820714D02*
X125057143Y-138011190D01*
X125057143Y-138011190D02*
X125057143Y-138154047D01*
X125057143Y-138154047D02*
X125104762Y-138344523D01*
X125104762Y-138344523D02*
X125152381Y-138439761D01*
X125152381Y-138439761D02*
X125247619Y-138535000D01*
X125247619Y-138535000D02*
X125390476Y-138582619D01*
X125390476Y-138582619D02*
X125485714Y-138582619D01*
X125485714Y-138582619D02*
X125628571Y-138535000D01*
X125628571Y-138535000D02*
X125676190Y-138487380D01*
X126580952Y-137582619D02*
X126104762Y-137582619D01*
X126104762Y-137582619D02*
X126104762Y-138582619D01*
X126914286Y-137582619D02*
X126914286Y-138582619D01*
X127485714Y-137582619D02*
X127057143Y-138154047D01*
X127485714Y-138582619D02*
X126914286Y-138011190D01*
X117361904Y-135962619D02*
X116790476Y-135962619D01*
X117076190Y-135962619D02*
X117076190Y-136962619D01*
X117076190Y-136962619D02*
X116980952Y-136819761D01*
X116980952Y-136819761D02*
X116885714Y-136724523D01*
X116885714Y-136724523D02*
X116790476Y-136676904D01*
X117695238Y-136962619D02*
X118314285Y-136962619D01*
X118314285Y-136962619D02*
X117980952Y-136581666D01*
X117980952Y-136581666D02*
X118123809Y-136581666D01*
X118123809Y-136581666D02*
X118219047Y-136534047D01*
X118219047Y-136534047D02*
X118266666Y-136486428D01*
X118266666Y-136486428D02*
X118314285Y-136391190D01*
X118314285Y-136391190D02*
X118314285Y-136153095D01*
X118314285Y-136153095D02*
X118266666Y-136057857D01*
X118266666Y-136057857D02*
X118219047Y-136010238D01*
X118219047Y-136010238D02*
X118123809Y-135962619D01*
X118123809Y-135962619D02*
X117838095Y-135962619D01*
X117838095Y-135962619D02*
X117742857Y-136010238D01*
X117742857Y-136010238D02*
X117695238Y-136057857D01*
X119200000Y-136962619D02*
X119533333Y-135962619D01*
X119533333Y-135962619D02*
X119866666Y-136962619D01*
X120771428Y-136057857D02*
X120723809Y-136010238D01*
X120723809Y-136010238D02*
X120580952Y-135962619D01*
X120580952Y-135962619D02*
X120485714Y-135962619D01*
X120485714Y-135962619D02*
X120342857Y-136010238D01*
X120342857Y-136010238D02*
X120247619Y-136105476D01*
X120247619Y-136105476D02*
X120200000Y-136200714D01*
X120200000Y-136200714D02*
X120152381Y-136391190D01*
X120152381Y-136391190D02*
X120152381Y-136534047D01*
X120152381Y-136534047D02*
X120200000Y-136724523D01*
X120200000Y-136724523D02*
X120247619Y-136819761D01*
X120247619Y-136819761D02*
X120342857Y-136915000D01*
X120342857Y-136915000D02*
X120485714Y-136962619D01*
X120485714Y-136962619D02*
X120580952Y-136962619D01*
X120580952Y-136962619D02*
X120723809Y-136915000D01*
X120723809Y-136915000D02*
X120771428Y-136867380D01*
X121200000Y-136962619D02*
X121200000Y-136153095D01*
X121200000Y-136153095D02*
X121247619Y-136057857D01*
X121247619Y-136057857D02*
X121295238Y-136010238D01*
X121295238Y-136010238D02*
X121390476Y-135962619D01*
X121390476Y-135962619D02*
X121580952Y-135962619D01*
X121580952Y-135962619D02*
X121676190Y-136010238D01*
X121676190Y-136010238D02*
X121723809Y-136057857D01*
X121723809Y-136057857D02*
X121771428Y-136153095D01*
X121771428Y-136153095D02*
X121771428Y-136962619D01*
X122009524Y-135867380D02*
X122771428Y-135867380D01*
X122961905Y-136010238D02*
X123104762Y-135962619D01*
X123104762Y-135962619D02*
X123342857Y-135962619D01*
X123342857Y-135962619D02*
X123438095Y-136010238D01*
X123438095Y-136010238D02*
X123485714Y-136057857D01*
X123485714Y-136057857D02*
X123533333Y-136153095D01*
X123533333Y-136153095D02*
X123533333Y-136248333D01*
X123533333Y-136248333D02*
X123485714Y-136343571D01*
X123485714Y-136343571D02*
X123438095Y-136391190D01*
X123438095Y-136391190D02*
X123342857Y-136438809D01*
X123342857Y-136438809D02*
X123152381Y-136486428D01*
X123152381Y-136486428D02*
X123057143Y-136534047D01*
X123057143Y-136534047D02*
X123009524Y-136581666D01*
X123009524Y-136581666D02*
X122961905Y-136676904D01*
X122961905Y-136676904D02*
X122961905Y-136772142D01*
X122961905Y-136772142D02*
X123009524Y-136867380D01*
X123009524Y-136867380D02*
X123057143Y-136915000D01*
X123057143Y-136915000D02*
X123152381Y-136962619D01*
X123152381Y-136962619D02*
X123390476Y-136962619D01*
X123390476Y-136962619D02*
X123533333Y-136915000D01*
X123866667Y-136962619D02*
X124104762Y-135962619D01*
X124104762Y-135962619D02*
X124295238Y-136676904D01*
X124295238Y-136676904D02*
X124485714Y-135962619D01*
X124485714Y-135962619D02*
X124723810Y-136962619D01*
X125104762Y-135962619D02*
X125104762Y-136962619D01*
X125104762Y-136962619D02*
X125342857Y-136962619D01*
X125342857Y-136962619D02*
X125485714Y-136915000D01*
X125485714Y-136915000D02*
X125580952Y-136819761D01*
X125580952Y-136819761D02*
X125628571Y-136724523D01*
X125628571Y-136724523D02*
X125676190Y-136534047D01*
X125676190Y-136534047D02*
X125676190Y-136391190D01*
X125676190Y-136391190D02*
X125628571Y-136200714D01*
X125628571Y-136200714D02*
X125580952Y-136105476D01*
X125580952Y-136105476D02*
X125485714Y-136010238D01*
X125485714Y-136010238D02*
X125342857Y-135962619D01*
X125342857Y-135962619D02*
X125104762Y-135962619D01*
X126104762Y-135962619D02*
X126104762Y-136962619D01*
X126771428Y-136962619D02*
X126961904Y-136962619D01*
X126961904Y-136962619D02*
X127057142Y-136915000D01*
X127057142Y-136915000D02*
X127152380Y-136819761D01*
X127152380Y-136819761D02*
X127199999Y-136629285D01*
X127199999Y-136629285D02*
X127199999Y-136295952D01*
X127199999Y-136295952D02*
X127152380Y-136105476D01*
X127152380Y-136105476D02*
X127057142Y-136010238D01*
X127057142Y-136010238D02*
X126961904Y-135962619D01*
X126961904Y-135962619D02*
X126771428Y-135962619D01*
X126771428Y-135962619D02*
X126676190Y-136010238D01*
X126676190Y-136010238D02*
X126580952Y-136105476D01*
X126580952Y-136105476D02*
X126533333Y-136295952D01*
X126533333Y-136295952D02*
X126533333Y-136629285D01*
X126533333Y-136629285D02*
X126580952Y-136819761D01*
X126580952Y-136819761D02*
X126676190Y-136915000D01*
X126676190Y-136915000D02*
X126771428Y-136962619D01*
X117361904Y-134342619D02*
X116790476Y-134342619D01*
X117076190Y-134342619D02*
X117076190Y-135342619D01*
X117076190Y-135342619D02*
X116980952Y-135199761D01*
X116980952Y-135199761D02*
X116885714Y-135104523D01*
X116885714Y-135104523D02*
X116790476Y-135056904D01*
X118219047Y-135009285D02*
X118219047Y-134342619D01*
X117980952Y-135390238D02*
X117742857Y-134675952D01*
X117742857Y-134675952D02*
X118361904Y-134675952D01*
X119200000Y-135342619D02*
X119771428Y-135342619D01*
X119485714Y-134342619D02*
X119485714Y-135342619D01*
X120057143Y-134628333D02*
X120533333Y-134628333D01*
X119961905Y-134342619D02*
X120295238Y-135342619D01*
X120295238Y-135342619D02*
X120628571Y-134342619D01*
X120961905Y-134342619D02*
X120961905Y-135342619D01*
X120961905Y-135342619D02*
X121295238Y-134628333D01*
X121295238Y-134628333D02*
X121628571Y-135342619D01*
X121628571Y-135342619D02*
X121628571Y-134342619D01*
X122104762Y-134342619D02*
X122104762Y-135342619D01*
X122104762Y-135342619D02*
X122485714Y-135342619D01*
X122485714Y-135342619D02*
X122580952Y-135295000D01*
X122580952Y-135295000D02*
X122628571Y-135247380D01*
X122628571Y-135247380D02*
X122676190Y-135152142D01*
X122676190Y-135152142D02*
X122676190Y-135009285D01*
X122676190Y-135009285D02*
X122628571Y-134914047D01*
X122628571Y-134914047D02*
X122580952Y-134866428D01*
X122580952Y-134866428D02*
X122485714Y-134818809D01*
X122485714Y-134818809D02*
X122104762Y-134818809D01*
X117361904Y-132722619D02*
X116790476Y-132722619D01*
X117076190Y-132722619D02*
X117076190Y-133722619D01*
X117076190Y-133722619D02*
X116980952Y-133579761D01*
X116980952Y-133579761D02*
X116885714Y-133484523D01*
X116885714Y-133484523D02*
X116790476Y-133436904D01*
X118266666Y-133722619D02*
X117790476Y-133722619D01*
X117790476Y-133722619D02*
X117742857Y-133246428D01*
X117742857Y-133246428D02*
X117790476Y-133294047D01*
X117790476Y-133294047D02*
X117885714Y-133341666D01*
X117885714Y-133341666D02*
X118123809Y-133341666D01*
X118123809Y-133341666D02*
X118219047Y-133294047D01*
X118219047Y-133294047D02*
X118266666Y-133246428D01*
X118266666Y-133246428D02*
X118314285Y-133151190D01*
X118314285Y-133151190D02*
X118314285Y-132913095D01*
X118314285Y-132913095D02*
X118266666Y-132817857D01*
X118266666Y-132817857D02*
X118219047Y-132770238D01*
X118219047Y-132770238D02*
X118123809Y-132722619D01*
X118123809Y-132722619D02*
X117885714Y-132722619D01*
X117885714Y-132722619D02*
X117790476Y-132770238D01*
X117790476Y-132770238D02*
X117742857Y-132817857D01*
X119866666Y-133675000D02*
X119771428Y-133722619D01*
X119771428Y-133722619D02*
X119628571Y-133722619D01*
X119628571Y-133722619D02*
X119485714Y-133675000D01*
X119485714Y-133675000D02*
X119390476Y-133579761D01*
X119390476Y-133579761D02*
X119342857Y-133484523D01*
X119342857Y-133484523D02*
X119295238Y-133294047D01*
X119295238Y-133294047D02*
X119295238Y-133151190D01*
X119295238Y-133151190D02*
X119342857Y-132960714D01*
X119342857Y-132960714D02*
X119390476Y-132865476D01*
X119390476Y-132865476D02*
X119485714Y-132770238D01*
X119485714Y-132770238D02*
X119628571Y-132722619D01*
X119628571Y-132722619D02*
X119723809Y-132722619D01*
X119723809Y-132722619D02*
X119866666Y-132770238D01*
X119866666Y-132770238D02*
X119914285Y-132817857D01*
X119914285Y-132817857D02*
X119914285Y-133151190D01*
X119914285Y-133151190D02*
X119723809Y-133151190D01*
X120342857Y-132722619D02*
X120342857Y-133722619D01*
X120342857Y-133722619D02*
X120723809Y-133722619D01*
X120723809Y-133722619D02*
X120819047Y-133675000D01*
X120819047Y-133675000D02*
X120866666Y-133627380D01*
X120866666Y-133627380D02*
X120914285Y-133532142D01*
X120914285Y-133532142D02*
X120914285Y-133389285D01*
X120914285Y-133389285D02*
X120866666Y-133294047D01*
X120866666Y-133294047D02*
X120819047Y-133246428D01*
X120819047Y-133246428D02*
X120723809Y-133198809D01*
X120723809Y-133198809D02*
X120342857Y-133198809D01*
X121342857Y-132722619D02*
X121342857Y-133722619D01*
X122009523Y-133722619D02*
X122199999Y-133722619D01*
X122199999Y-133722619D02*
X122295237Y-133675000D01*
X122295237Y-133675000D02*
X122390475Y-133579761D01*
X122390475Y-133579761D02*
X122438094Y-133389285D01*
X122438094Y-133389285D02*
X122438094Y-133055952D01*
X122438094Y-133055952D02*
X122390475Y-132865476D01*
X122390475Y-132865476D02*
X122295237Y-132770238D01*
X122295237Y-132770238D02*
X122199999Y-132722619D01*
X122199999Y-132722619D02*
X122009523Y-132722619D01*
X122009523Y-132722619D02*
X121914285Y-132770238D01*
X121914285Y-132770238D02*
X121819047Y-132865476D01*
X121819047Y-132865476D02*
X121771428Y-133055952D01*
X121771428Y-133055952D02*
X121771428Y-133389285D01*
X121771428Y-133389285D02*
X121819047Y-133579761D01*
X121819047Y-133579761D02*
X121914285Y-133675000D01*
X121914285Y-133675000D02*
X122009523Y-133722619D01*
X122628571Y-132627380D02*
X123390475Y-132627380D01*
X124057142Y-133389285D02*
X124057142Y-132722619D01*
X123819047Y-133770238D02*
X123580952Y-133055952D01*
X123580952Y-133055952D02*
X124199999Y-133055952D01*
X117361904Y-131102619D02*
X116790476Y-131102619D01*
X117076190Y-131102619D02*
X117076190Y-132102619D01*
X117076190Y-132102619D02*
X116980952Y-131959761D01*
X116980952Y-131959761D02*
X116885714Y-131864523D01*
X116885714Y-131864523D02*
X116790476Y-131816904D01*
X118219047Y-132102619D02*
X118028571Y-132102619D01*
X118028571Y-132102619D02*
X117933333Y-132055000D01*
X117933333Y-132055000D02*
X117885714Y-132007380D01*
X117885714Y-132007380D02*
X117790476Y-131864523D01*
X117790476Y-131864523D02*
X117742857Y-131674047D01*
X117742857Y-131674047D02*
X117742857Y-131293095D01*
X117742857Y-131293095D02*
X117790476Y-131197857D01*
X117790476Y-131197857D02*
X117838095Y-131150238D01*
X117838095Y-131150238D02*
X117933333Y-131102619D01*
X117933333Y-131102619D02*
X118123809Y-131102619D01*
X118123809Y-131102619D02*
X118219047Y-131150238D01*
X118219047Y-131150238D02*
X118266666Y-131197857D01*
X118266666Y-131197857D02*
X118314285Y-131293095D01*
X118314285Y-131293095D02*
X118314285Y-131531190D01*
X118314285Y-131531190D02*
X118266666Y-131626428D01*
X118266666Y-131626428D02*
X118219047Y-131674047D01*
X118219047Y-131674047D02*
X118123809Y-131721666D01*
X118123809Y-131721666D02*
X117933333Y-131721666D01*
X117933333Y-131721666D02*
X117838095Y-131674047D01*
X117838095Y-131674047D02*
X117790476Y-131626428D01*
X117790476Y-131626428D02*
X117742857Y-131531190D01*
X119866666Y-132055000D02*
X119771428Y-132102619D01*
X119771428Y-132102619D02*
X119628571Y-132102619D01*
X119628571Y-132102619D02*
X119485714Y-132055000D01*
X119485714Y-132055000D02*
X119390476Y-131959761D01*
X119390476Y-131959761D02*
X119342857Y-131864523D01*
X119342857Y-131864523D02*
X119295238Y-131674047D01*
X119295238Y-131674047D02*
X119295238Y-131531190D01*
X119295238Y-131531190D02*
X119342857Y-131340714D01*
X119342857Y-131340714D02*
X119390476Y-131245476D01*
X119390476Y-131245476D02*
X119485714Y-131150238D01*
X119485714Y-131150238D02*
X119628571Y-131102619D01*
X119628571Y-131102619D02*
X119723809Y-131102619D01*
X119723809Y-131102619D02*
X119866666Y-131150238D01*
X119866666Y-131150238D02*
X119914285Y-131197857D01*
X119914285Y-131197857D02*
X119914285Y-131531190D01*
X119914285Y-131531190D02*
X119723809Y-131531190D01*
X120342857Y-131102619D02*
X120342857Y-132102619D01*
X120342857Y-132102619D02*
X120723809Y-132102619D01*
X120723809Y-132102619D02*
X120819047Y-132055000D01*
X120819047Y-132055000D02*
X120866666Y-132007380D01*
X120866666Y-132007380D02*
X120914285Y-131912142D01*
X120914285Y-131912142D02*
X120914285Y-131769285D01*
X120914285Y-131769285D02*
X120866666Y-131674047D01*
X120866666Y-131674047D02*
X120819047Y-131626428D01*
X120819047Y-131626428D02*
X120723809Y-131578809D01*
X120723809Y-131578809D02*
X120342857Y-131578809D01*
X121342857Y-131102619D02*
X121342857Y-132102619D01*
X122009523Y-132102619D02*
X122199999Y-132102619D01*
X122199999Y-132102619D02*
X122295237Y-132055000D01*
X122295237Y-132055000D02*
X122390475Y-131959761D01*
X122390475Y-131959761D02*
X122438094Y-131769285D01*
X122438094Y-131769285D02*
X122438094Y-131435952D01*
X122438094Y-131435952D02*
X122390475Y-131245476D01*
X122390475Y-131245476D02*
X122295237Y-131150238D01*
X122295237Y-131150238D02*
X122199999Y-131102619D01*
X122199999Y-131102619D02*
X122009523Y-131102619D01*
X122009523Y-131102619D02*
X121914285Y-131150238D01*
X121914285Y-131150238D02*
X121819047Y-131245476D01*
X121819047Y-131245476D02*
X121771428Y-131435952D01*
X121771428Y-131435952D02*
X121771428Y-131769285D01*
X121771428Y-131769285D02*
X121819047Y-131959761D01*
X121819047Y-131959761D02*
X121914285Y-132055000D01*
X121914285Y-132055000D02*
X122009523Y-132102619D01*
X122628571Y-131007380D02*
X123390475Y-131007380D01*
X123533333Y-132102619D02*
X124152380Y-132102619D01*
X124152380Y-132102619D02*
X123819047Y-131721666D01*
X123819047Y-131721666D02*
X123961904Y-131721666D01*
X123961904Y-131721666D02*
X124057142Y-131674047D01*
X124057142Y-131674047D02*
X124104761Y-131626428D01*
X124104761Y-131626428D02*
X124152380Y-131531190D01*
X124152380Y-131531190D02*
X124152380Y-131293095D01*
X124152380Y-131293095D02*
X124104761Y-131197857D01*
X124104761Y-131197857D02*
X124057142Y-131150238D01*
X124057142Y-131150238D02*
X123961904Y-131102619D01*
X123961904Y-131102619D02*
X123676190Y-131102619D01*
X123676190Y-131102619D02*
X123580952Y-131150238D01*
X123580952Y-131150238D02*
X123533333Y-131197857D01*
X117361904Y-129482619D02*
X116790476Y-129482619D01*
X117076190Y-129482619D02*
X117076190Y-130482619D01*
X117076190Y-130482619D02*
X116980952Y-130339761D01*
X116980952Y-130339761D02*
X116885714Y-130244523D01*
X116885714Y-130244523D02*
X116790476Y-130196904D01*
X117695238Y-130482619D02*
X118361904Y-130482619D01*
X118361904Y-130482619D02*
X117933333Y-129482619D01*
X119866666Y-130435000D02*
X119771428Y-130482619D01*
X119771428Y-130482619D02*
X119628571Y-130482619D01*
X119628571Y-130482619D02*
X119485714Y-130435000D01*
X119485714Y-130435000D02*
X119390476Y-130339761D01*
X119390476Y-130339761D02*
X119342857Y-130244523D01*
X119342857Y-130244523D02*
X119295238Y-130054047D01*
X119295238Y-130054047D02*
X119295238Y-129911190D01*
X119295238Y-129911190D02*
X119342857Y-129720714D01*
X119342857Y-129720714D02*
X119390476Y-129625476D01*
X119390476Y-129625476D02*
X119485714Y-129530238D01*
X119485714Y-129530238D02*
X119628571Y-129482619D01*
X119628571Y-129482619D02*
X119723809Y-129482619D01*
X119723809Y-129482619D02*
X119866666Y-129530238D01*
X119866666Y-129530238D02*
X119914285Y-129577857D01*
X119914285Y-129577857D02*
X119914285Y-129911190D01*
X119914285Y-129911190D02*
X119723809Y-129911190D01*
X120342857Y-129482619D02*
X120342857Y-130482619D01*
X120342857Y-130482619D02*
X120723809Y-130482619D01*
X120723809Y-130482619D02*
X120819047Y-130435000D01*
X120819047Y-130435000D02*
X120866666Y-130387380D01*
X120866666Y-130387380D02*
X120914285Y-130292142D01*
X120914285Y-130292142D02*
X120914285Y-130149285D01*
X120914285Y-130149285D02*
X120866666Y-130054047D01*
X120866666Y-130054047D02*
X120819047Y-130006428D01*
X120819047Y-130006428D02*
X120723809Y-129958809D01*
X120723809Y-129958809D02*
X120342857Y-129958809D01*
X121342857Y-129482619D02*
X121342857Y-130482619D01*
X122009523Y-130482619D02*
X122199999Y-130482619D01*
X122199999Y-130482619D02*
X122295237Y-130435000D01*
X122295237Y-130435000D02*
X122390475Y-130339761D01*
X122390475Y-130339761D02*
X122438094Y-130149285D01*
X122438094Y-130149285D02*
X122438094Y-129815952D01*
X122438094Y-129815952D02*
X122390475Y-129625476D01*
X122390475Y-129625476D02*
X122295237Y-129530238D01*
X122295237Y-129530238D02*
X122199999Y-129482619D01*
X122199999Y-129482619D02*
X122009523Y-129482619D01*
X122009523Y-129482619D02*
X121914285Y-129530238D01*
X121914285Y-129530238D02*
X121819047Y-129625476D01*
X121819047Y-129625476D02*
X121771428Y-129815952D01*
X121771428Y-129815952D02*
X121771428Y-130149285D01*
X121771428Y-130149285D02*
X121819047Y-130339761D01*
X121819047Y-130339761D02*
X121914285Y-130435000D01*
X121914285Y-130435000D02*
X122009523Y-130482619D01*
X122628571Y-129387380D02*
X123390475Y-129387380D01*
X123580952Y-130387380D02*
X123628571Y-130435000D01*
X123628571Y-130435000D02*
X123723809Y-130482619D01*
X123723809Y-130482619D02*
X123961904Y-130482619D01*
X123961904Y-130482619D02*
X124057142Y-130435000D01*
X124057142Y-130435000D02*
X124104761Y-130387380D01*
X124104761Y-130387380D02*
X124152380Y-130292142D01*
X124152380Y-130292142D02*
X124152380Y-130196904D01*
X124152380Y-130196904D02*
X124104761Y-130054047D01*
X124104761Y-130054047D02*
X123533333Y-129482619D01*
X123533333Y-129482619D02*
X124152380Y-129482619D01*
X117361904Y-127862619D02*
X116790476Y-127862619D01*
X117076190Y-127862619D02*
X117076190Y-128862619D01*
X117076190Y-128862619D02*
X116980952Y-128719761D01*
X116980952Y-128719761D02*
X116885714Y-128624523D01*
X116885714Y-128624523D02*
X116790476Y-128576904D01*
X117933333Y-128434047D02*
X117838095Y-128481666D01*
X117838095Y-128481666D02*
X117790476Y-128529285D01*
X117790476Y-128529285D02*
X117742857Y-128624523D01*
X117742857Y-128624523D02*
X117742857Y-128672142D01*
X117742857Y-128672142D02*
X117790476Y-128767380D01*
X117790476Y-128767380D02*
X117838095Y-128815000D01*
X117838095Y-128815000D02*
X117933333Y-128862619D01*
X117933333Y-128862619D02*
X118123809Y-128862619D01*
X118123809Y-128862619D02*
X118219047Y-128815000D01*
X118219047Y-128815000D02*
X118266666Y-128767380D01*
X118266666Y-128767380D02*
X118314285Y-128672142D01*
X118314285Y-128672142D02*
X118314285Y-128624523D01*
X118314285Y-128624523D02*
X118266666Y-128529285D01*
X118266666Y-128529285D02*
X118219047Y-128481666D01*
X118219047Y-128481666D02*
X118123809Y-128434047D01*
X118123809Y-128434047D02*
X117933333Y-128434047D01*
X117933333Y-128434047D02*
X117838095Y-128386428D01*
X117838095Y-128386428D02*
X117790476Y-128338809D01*
X117790476Y-128338809D02*
X117742857Y-128243571D01*
X117742857Y-128243571D02*
X117742857Y-128053095D01*
X117742857Y-128053095D02*
X117790476Y-127957857D01*
X117790476Y-127957857D02*
X117838095Y-127910238D01*
X117838095Y-127910238D02*
X117933333Y-127862619D01*
X117933333Y-127862619D02*
X118123809Y-127862619D01*
X118123809Y-127862619D02*
X118219047Y-127910238D01*
X118219047Y-127910238D02*
X118266666Y-127957857D01*
X118266666Y-127957857D02*
X118314285Y-128053095D01*
X118314285Y-128053095D02*
X118314285Y-128243571D01*
X118314285Y-128243571D02*
X118266666Y-128338809D01*
X118266666Y-128338809D02*
X118219047Y-128386428D01*
X118219047Y-128386428D02*
X118123809Y-128434047D01*
X119866666Y-128815000D02*
X119771428Y-128862619D01*
X119771428Y-128862619D02*
X119628571Y-128862619D01*
X119628571Y-128862619D02*
X119485714Y-128815000D01*
X119485714Y-128815000D02*
X119390476Y-128719761D01*
X119390476Y-128719761D02*
X119342857Y-128624523D01*
X119342857Y-128624523D02*
X119295238Y-128434047D01*
X119295238Y-128434047D02*
X119295238Y-128291190D01*
X119295238Y-128291190D02*
X119342857Y-128100714D01*
X119342857Y-128100714D02*
X119390476Y-128005476D01*
X119390476Y-128005476D02*
X119485714Y-127910238D01*
X119485714Y-127910238D02*
X119628571Y-127862619D01*
X119628571Y-127862619D02*
X119723809Y-127862619D01*
X119723809Y-127862619D02*
X119866666Y-127910238D01*
X119866666Y-127910238D02*
X119914285Y-127957857D01*
X119914285Y-127957857D02*
X119914285Y-128291190D01*
X119914285Y-128291190D02*
X119723809Y-128291190D01*
X120342857Y-127862619D02*
X120342857Y-128862619D01*
X120342857Y-128862619D02*
X120914285Y-127862619D01*
X120914285Y-127862619D02*
X120914285Y-128862619D01*
X121390476Y-127862619D02*
X121390476Y-128862619D01*
X121390476Y-128862619D02*
X121628571Y-128862619D01*
X121628571Y-128862619D02*
X121771428Y-128815000D01*
X121771428Y-128815000D02*
X121866666Y-128719761D01*
X121866666Y-128719761D02*
X121914285Y-128624523D01*
X121914285Y-128624523D02*
X121961904Y-128434047D01*
X121961904Y-128434047D02*
X121961904Y-128291190D01*
X121961904Y-128291190D02*
X121914285Y-128100714D01*
X121914285Y-128100714D02*
X121866666Y-128005476D01*
X121866666Y-128005476D02*
X121771428Y-127910238D01*
X121771428Y-127910238D02*
X121628571Y-127862619D01*
X121628571Y-127862619D02*
X121390476Y-127862619D01*
D11*
G36*
X138821429Y-101960001D02*
G01*
X135628571Y-101960001D01*
X135628571Y-100165106D01*
X136584115Y-100165106D01*
X136620708Y-100245233D01*
X136694813Y-100292857D01*
X137788857Y-100292857D01*
X137788857Y-100735853D01*
X137807341Y-100798805D01*
X137873914Y-100856490D01*
X137961106Y-100869027D01*
X138041233Y-100832434D01*
X138088857Y-100758329D01*
X138088857Y-100153588D01*
X138093599Y-100120608D01*
X138079758Y-100090301D01*
X138070373Y-100058337D01*
X138061747Y-100050862D01*
X138057006Y-100040481D01*
X138028978Y-100022468D01*
X138003800Y-100000652D01*
X137992502Y-99999027D01*
X137982901Y-99992857D01*
X137949588Y-99992857D01*
X137916608Y-99988115D01*
X137906225Y-99992857D01*
X136717289Y-99992857D01*
X136654337Y-100011341D01*
X136596652Y-100077914D01*
X136584115Y-100165106D01*
X135628571Y-100165106D01*
X135628571Y-99193677D01*
X136584115Y-99193677D01*
X136620708Y-99273804D01*
X136694813Y-99321428D01*
X137788857Y-99321428D01*
X137788857Y-99764424D01*
X137807341Y-99827376D01*
X137873914Y-99885061D01*
X137961106Y-99897598D01*
X138041233Y-99861005D01*
X138088857Y-99786900D01*
X138088857Y-99182159D01*
X138093599Y-99149179D01*
X138079758Y-99118872D01*
X138070373Y-99086908D01*
X138061747Y-99079433D01*
X138057006Y-99069052D01*
X138028978Y-99051039D01*
X138003800Y-99029223D01*
X137992502Y-99027598D01*
X137982901Y-99021428D01*
X137949588Y-99021428D01*
X137916608Y-99016686D01*
X137906225Y-99021428D01*
X136717289Y-99021428D01*
X136654337Y-99039912D01*
X136596652Y-99106485D01*
X136584115Y-99193677D01*
X135628571Y-99193677D01*
X135628571Y-98107963D01*
X136584115Y-98107963D01*
X136588857Y-98118346D01*
X136588857Y-98678710D01*
X136607341Y-98741662D01*
X136673914Y-98799347D01*
X136761106Y-98811884D01*
X136841233Y-98775291D01*
X136888857Y-98701186D01*
X136888857Y-98235714D01*
X137160285Y-98235714D01*
X137160285Y-98507282D01*
X137178769Y-98570234D01*
X137245342Y-98627919D01*
X137332534Y-98640456D01*
X137412661Y-98603863D01*
X137460285Y-98529758D01*
X137460285Y-98235714D01*
X137788857Y-98235714D01*
X137788857Y-98678710D01*
X137807341Y-98741662D01*
X137873914Y-98799347D01*
X137961106Y-98811884D01*
X138041233Y-98775291D01*
X138088857Y-98701186D01*
X138088857Y-98096445D01*
X138093599Y-98063465D01*
X138079758Y-98033158D01*
X138070373Y-98001194D01*
X138061747Y-97993719D01*
X138057006Y-97983338D01*
X138028978Y-97965325D01*
X138003800Y-97943509D01*
X137992502Y-97941884D01*
X137982901Y-97935714D01*
X137949588Y-97935714D01*
X137916608Y-97930972D01*
X137906225Y-97935714D01*
X137321016Y-97935714D01*
X137288036Y-97930972D01*
X137277653Y-97935714D01*
X136749588Y-97935714D01*
X136716608Y-97930972D01*
X136686301Y-97944812D01*
X136654337Y-97954198D01*
X136646862Y-97962823D01*
X136636481Y-97967565D01*
X136618468Y-97995592D01*
X136596652Y-98020771D01*
X136595027Y-98032068D01*
X136588857Y-98041670D01*
X136588857Y-98074983D01*
X136584115Y-98107963D01*
X135628571Y-98107963D01*
X135628571Y-97348508D01*
X136582627Y-97348508D01*
X136595691Y-97387700D01*
X136607341Y-97427377D01*
X136609556Y-97429296D01*
X136651144Y-97554059D01*
X136658790Y-97589206D01*
X136680462Y-97610879D01*
X136697961Y-97636057D01*
X136711057Y-97641474D01*
X136762326Y-97692744D01*
X136819910Y-97724188D01*
X136907773Y-97717904D01*
X136978293Y-97665116D01*
X137009077Y-97582583D01*
X136990353Y-97496507D01*
X136927104Y-97433258D01*
X136888857Y-97318515D01*
X136888857Y-97252914D01*
X136927105Y-97138168D01*
X136999139Y-97066134D01*
X137076922Y-97027242D01*
X137271608Y-96978571D01*
X137406106Y-96978571D01*
X137600785Y-97027240D01*
X137678573Y-97066135D01*
X137750610Y-97138170D01*
X137788857Y-97252912D01*
X137788857Y-97318516D01*
X137750609Y-97433257D01*
X137703254Y-97480613D01*
X137671810Y-97538197D01*
X137678095Y-97626060D01*
X137730884Y-97696580D01*
X137813418Y-97727363D01*
X137899493Y-97708638D01*
X137982071Y-97626059D01*
X138010088Y-97603503D01*
X138019780Y-97574424D01*
X138034474Y-97547516D01*
X138033462Y-97533379D01*
X138075212Y-97408132D01*
X138088857Y-97386901D01*
X138088857Y-97345588D01*
X138090352Y-97304264D01*
X138088857Y-97301742D01*
X138088857Y-97247376D01*
X138095087Y-97222921D01*
X138082024Y-97183734D01*
X138070373Y-97144051D01*
X138068157Y-97142130D01*
X138026570Y-97017369D01*
X138018923Y-96982219D01*
X137997249Y-96960545D01*
X137979753Y-96935370D01*
X137966655Y-96929952D01*
X137886793Y-96850090D01*
X137873905Y-96828390D01*
X137836942Y-96809908D01*
X137800659Y-96790096D01*
X137797735Y-96790305D01*
X137744121Y-96763498D01*
X137732252Y-96750875D01*
X137705498Y-96744186D01*
X137700933Y-96741904D01*
X137684639Y-96738971D01*
X137484901Y-96689037D01*
X137468615Y-96678571D01*
X137443035Y-96678571D01*
X137440027Y-96677819D01*
X137421522Y-96678571D01*
X137277830Y-96678571D01*
X137259491Y-96672367D01*
X137234675Y-96678571D01*
X137231574Y-96678571D01*
X137213798Y-96683790D01*
X137014110Y-96733712D01*
X136996883Y-96731853D01*
X136972215Y-96744186D01*
X136967266Y-96745424D01*
X136952991Y-96753798D01*
X136860022Y-96800282D01*
X136835363Y-96805647D01*
X136806151Y-96834858D01*
X136775872Y-96863024D01*
X136775145Y-96865864D01*
X136695644Y-96945365D01*
X136667625Y-96967924D01*
X136657931Y-96997003D01*
X136643239Y-97023911D01*
X136644250Y-97038048D01*
X136602501Y-97163295D01*
X136588857Y-97184527D01*
X136588857Y-97225840D01*
X136587362Y-97267165D01*
X136588857Y-97269687D01*
X136588857Y-97324051D01*
X136582627Y-97348508D01*
X135628571Y-97348508D01*
X135628571Y-95978571D01*
X138821429Y-95978571D01*
X138821429Y-101960001D01*
G37*
X167904285Y-86196428D02*
X167404285Y-86910714D01*
X167047142Y-86196428D02*
X167047142Y-87696428D01*
X167047142Y-87696428D02*
X167618571Y-87696428D01*
X167618571Y-87696428D02*
X167761428Y-87625000D01*
X167761428Y-87625000D02*
X167832857Y-87553571D01*
X167832857Y-87553571D02*
X167904285Y-87410714D01*
X167904285Y-87410714D02*
X167904285Y-87196428D01*
X167904285Y-87196428D02*
X167832857Y-87053571D01*
X167832857Y-87053571D02*
X167761428Y-86982142D01*
X167761428Y-86982142D02*
X167618571Y-86910714D01*
X167618571Y-86910714D02*
X167047142Y-86910714D01*
X168832857Y-87696428D02*
X169118571Y-87696428D01*
X169118571Y-87696428D02*
X169261428Y-87625000D01*
X169261428Y-87625000D02*
X169404285Y-87482142D01*
X169404285Y-87482142D02*
X169475714Y-87196428D01*
X169475714Y-87196428D02*
X169475714Y-86696428D01*
X169475714Y-86696428D02*
X169404285Y-86410714D01*
X169404285Y-86410714D02*
X169261428Y-86267857D01*
X169261428Y-86267857D02*
X169118571Y-86196428D01*
X169118571Y-86196428D02*
X168832857Y-86196428D01*
X168832857Y-86196428D02*
X168690000Y-86267857D01*
X168690000Y-86267857D02*
X168547142Y-86410714D01*
X168547142Y-86410714D02*
X168475714Y-86696428D01*
X168475714Y-86696428D02*
X168475714Y-87196428D01*
X168475714Y-87196428D02*
X168547142Y-87482142D01*
X168547142Y-87482142D02*
X168690000Y-87625000D01*
X168690000Y-87625000D02*
X168832857Y-87696428D01*
X170047143Y-86625000D02*
X170761429Y-86625000D01*
X169904286Y-86196428D02*
X170404286Y-87696428D01*
X170404286Y-87696428D02*
X170904286Y-86196428D01*
X171404285Y-86196428D02*
X171404285Y-87696428D01*
X171404285Y-87696428D02*
X171904285Y-86625000D01*
X171904285Y-86625000D02*
X172404285Y-87696428D01*
X172404285Y-87696428D02*
X172404285Y-86196428D01*
X174018571Y-86196428D02*
X174018571Y-87696428D01*
X174018571Y-87696428D02*
X174590000Y-87696428D01*
X174590000Y-87696428D02*
X174732857Y-87625000D01*
X174732857Y-87625000D02*
X174804286Y-87553571D01*
X174804286Y-87553571D02*
X174875714Y-87410714D01*
X174875714Y-87410714D02*
X174875714Y-87196428D01*
X174875714Y-87196428D02*
X174804286Y-87053571D01*
X174804286Y-87053571D02*
X174732857Y-86982142D01*
X174732857Y-86982142D02*
X174590000Y-86910714D01*
X174590000Y-86910714D02*
X174018571Y-86910714D01*
X176161429Y-87196428D02*
X176161429Y-86196428D01*
X175804286Y-87767857D02*
X175447143Y-86696428D01*
X175447143Y-86696428D02*
X176375714Y-86696428D01*
G36*
X144646000Y-98220456D02*
G01*
X144413198Y-98142855D01*
X144646000Y-98065255D01*
X144646000Y-98220456D01*
G37*
G36*
X146021429Y-102931429D02*
G01*
X142828571Y-102931429D01*
X142828571Y-101365105D01*
X143784115Y-101365105D01*
X143788857Y-101375488D01*
X143788857Y-101707282D01*
X143807341Y-101770234D01*
X143873914Y-101827919D01*
X143961106Y-101840456D01*
X144041233Y-101803863D01*
X144088857Y-101729758D01*
X144088857Y-101492856D01*
X145160425Y-101492856D01*
X145223377Y-101474372D01*
X145281062Y-101407799D01*
X145293599Y-101320607D01*
X145257006Y-101240480D01*
X145182901Y-101192856D01*
X144088857Y-101192856D01*
X144088857Y-100978431D01*
X144070373Y-100915479D01*
X144003800Y-100857794D01*
X143916608Y-100845257D01*
X143836481Y-100881850D01*
X143788857Y-100955955D01*
X143788857Y-101332125D01*
X143784115Y-101365105D01*
X142828571Y-101365105D01*
X142828571Y-100222248D01*
X143784115Y-100222248D01*
X143820708Y-100302375D01*
X143894813Y-100349999D01*
X144988857Y-100349999D01*
X144988857Y-100792995D01*
X145007341Y-100855947D01*
X145073914Y-100913632D01*
X145161106Y-100926169D01*
X145241233Y-100889576D01*
X145288857Y-100815471D01*
X145288857Y-100210730D01*
X145293599Y-100177750D01*
X145279758Y-100147443D01*
X145270373Y-100115479D01*
X145261747Y-100108004D01*
X145257006Y-100097623D01*
X145228978Y-100079610D01*
X145203800Y-100057794D01*
X145192502Y-100056169D01*
X145182901Y-100049999D01*
X145149588Y-100049999D01*
X145116608Y-100045257D01*
X145106225Y-100049999D01*
X143917289Y-100049999D01*
X143854337Y-100068483D01*
X143796652Y-100135056D01*
X143784115Y-100222248D01*
X142828571Y-100222248D01*
X142828571Y-99650819D01*
X143784115Y-99650819D01*
X143820708Y-99730946D01*
X143894813Y-99778570D01*
X144902209Y-99778570D01*
X144937973Y-99782431D01*
X144965387Y-99768723D01*
X144994805Y-99760086D01*
X145004087Y-99749373D01*
X145074829Y-99714002D01*
X145099493Y-99708637D01*
X145128713Y-99679416D01*
X145158984Y-99651260D01*
X145159710Y-99648419D01*
X145174479Y-99633650D01*
X145196181Y-99620761D01*
X145214667Y-99583787D01*
X145234474Y-99547515D01*
X145234265Y-99544593D01*
X145269411Y-99474301D01*
X145288857Y-99444043D01*
X145288857Y-99413392D01*
X145294287Y-99383218D01*
X145288857Y-99370126D01*
X145288857Y-99179502D01*
X145292718Y-99143739D01*
X145279010Y-99116324D01*
X145270373Y-99086907D01*
X145259660Y-99077624D01*
X145224288Y-99006882D01*
X145218924Y-98982220D01*
X145189703Y-98952999D01*
X145161547Y-98922729D01*
X145158706Y-98922002D01*
X145143937Y-98907233D01*
X145131048Y-98885532D01*
X145094085Y-98867050D01*
X145057802Y-98847238D01*
X145054878Y-98847447D01*
X144984587Y-98812301D01*
X144954329Y-98792856D01*
X144923678Y-98792856D01*
X144893504Y-98787426D01*
X144880412Y-98792856D01*
X143917289Y-98792856D01*
X143854337Y-98811340D01*
X143796652Y-98877913D01*
X143784115Y-98965105D01*
X143820708Y-99045232D01*
X143894813Y-99092856D01*
X144874875Y-99092856D01*
X144935717Y-99123277D01*
X144958436Y-99145996D01*
X144988857Y-99206837D01*
X144988857Y-99364588D01*
X144958436Y-99425430D01*
X144935717Y-99448148D01*
X144874874Y-99478570D01*
X143917289Y-99478570D01*
X143854337Y-99497054D01*
X143796652Y-99563627D01*
X143784115Y-99650819D01*
X142828571Y-99650819D01*
X142828571Y-98126215D01*
X143783413Y-98126215D01*
X143790284Y-98164206D01*
X143794397Y-98202616D01*
X143798053Y-98207158D01*
X143799092Y-98212897D01*
X143825423Y-98241153D01*
X143849639Y-98271231D01*
X143855170Y-98273074D01*
X143859145Y-98277340D01*
X143896562Y-98286872D01*
X144720292Y-98561448D01*
X144731057Y-98570776D01*
X144761335Y-98575129D01*
X145111884Y-98691979D01*
X145177451Y-98694351D01*
X145253228Y-98649435D01*
X145292694Y-98570682D01*
X145283317Y-98483096D01*
X145228075Y-98414481D01*
X144946000Y-98320456D01*
X144946000Y-97965255D01*
X145206752Y-97878338D01*
X145260629Y-97840895D01*
X145294301Y-97759497D01*
X145278622Y-97672815D01*
X145218569Y-97608372D01*
X145133207Y-97586626D01*
X144782228Y-97703618D01*
X144773751Y-97702400D01*
X144740962Y-97717373D01*
X143917166Y-97991972D01*
X143900263Y-97991361D01*
X143876183Y-98005633D01*
X143870962Y-98007374D01*
X143857714Y-98016580D01*
X143824486Y-98036276D01*
X143821873Y-98041489D01*
X143817085Y-98044817D01*
X143802323Y-98080500D01*
X143785020Y-98115030D01*
X143785640Y-98120829D01*
X143783413Y-98126215D01*
X142828571Y-98126215D01*
X142828571Y-96907963D01*
X143784115Y-96907963D01*
X143788857Y-96918346D01*
X143788857Y-97478710D01*
X143807341Y-97541662D01*
X143873914Y-97599347D01*
X143961106Y-97611884D01*
X144041233Y-97575291D01*
X144088857Y-97501186D01*
X144088857Y-97035714D01*
X144360285Y-97035714D01*
X144360285Y-97307282D01*
X144378769Y-97370234D01*
X144445342Y-97427919D01*
X144532534Y-97440456D01*
X144612661Y-97403863D01*
X144660285Y-97329758D01*
X144660285Y-97035714D01*
X145160425Y-97035714D01*
X145223377Y-97017230D01*
X145281062Y-96950657D01*
X145293599Y-96863465D01*
X145257006Y-96783338D01*
X145182901Y-96735714D01*
X144521016Y-96735714D01*
X144488036Y-96730972D01*
X144477653Y-96735714D01*
X143949588Y-96735714D01*
X143916608Y-96730972D01*
X143886301Y-96744812D01*
X143854337Y-96754198D01*
X143846862Y-96762823D01*
X143836481Y-96767565D01*
X143818468Y-96795592D01*
X143796652Y-96820771D01*
X143795027Y-96832068D01*
X143788857Y-96841670D01*
X143788857Y-96874983D01*
X143784115Y-96907963D01*
X142828571Y-96907963D01*
X142828571Y-95978571D01*
X146021429Y-95978571D01*
X146021429Y-102931429D01*
G37*
G36*
X142421429Y-102474286D02*
G01*
X139228571Y-102474286D01*
X139228571Y-100948508D01*
X140182627Y-100948508D01*
X140195691Y-100987700D01*
X140207341Y-101027377D01*
X140209556Y-101029296D01*
X140260518Y-101182181D01*
X140297961Y-101236057D01*
X140379359Y-101269729D01*
X140466041Y-101254050D01*
X140530485Y-101193997D01*
X140552230Y-101108634D01*
X140488857Y-100918515D01*
X140488857Y-100692553D01*
X140519279Y-100631709D01*
X140541996Y-100608991D01*
X140602837Y-100578571D01*
X140646304Y-100578571D01*
X140707146Y-100608992D01*
X140729863Y-100631710D01*
X140768756Y-100709495D01*
X140815426Y-100896174D01*
X140813567Y-100913402D01*
X140825900Y-100938068D01*
X140827138Y-100943019D01*
X140835514Y-100957296D01*
X140881996Y-101050260D01*
X140887362Y-101074923D01*
X140916578Y-101104138D01*
X140944738Y-101134413D01*
X140947579Y-101135139D01*
X140962350Y-101149910D01*
X140975238Y-101171609D01*
X141012189Y-101190084D01*
X141048484Y-101209903D01*
X141051407Y-101209693D01*
X141121697Y-101244839D01*
X141151956Y-101264285D01*
X141182607Y-101264285D01*
X141212782Y-101269715D01*
X141225874Y-101264285D01*
X141302209Y-101264285D01*
X141337973Y-101268146D01*
X141365387Y-101254438D01*
X141394805Y-101245801D01*
X141404087Y-101235088D01*
X141474830Y-101199716D01*
X141499492Y-101194352D01*
X141528707Y-101165137D01*
X141558984Y-101136975D01*
X141559710Y-101134134D01*
X141574480Y-101119365D01*
X141596181Y-101106476D01*
X141614662Y-101069512D01*
X141634474Y-101033232D01*
X141634264Y-101030308D01*
X141669411Y-100960016D01*
X141688857Y-100929758D01*
X141688857Y-100899107D01*
X141694287Y-100868932D01*
X141688857Y-100855840D01*
X141688857Y-100618805D01*
X141695087Y-100594350D01*
X141682024Y-100555163D01*
X141670373Y-100515480D01*
X141668157Y-100513559D01*
X141617196Y-100360676D01*
X141579753Y-100306799D01*
X141498355Y-100273127D01*
X141411673Y-100288806D01*
X141347230Y-100348859D01*
X141325484Y-100434221D01*
X141388857Y-100624341D01*
X141388857Y-100850303D01*
X141358435Y-100911146D01*
X141335717Y-100933863D01*
X141274874Y-100964285D01*
X141231411Y-100964285D01*
X141170566Y-100933862D01*
X141147849Y-100911145D01*
X141108955Y-100833358D01*
X141062286Y-100646681D01*
X141064146Y-100629454D01*
X141051812Y-100604786D01*
X141050575Y-100599838D01*
X141042200Y-100585563D01*
X140995718Y-100492599D01*
X140990353Y-100467936D01*
X140961127Y-100438710D01*
X140932975Y-100408444D01*
X140930135Y-100407717D01*
X140915366Y-100392948D01*
X140902477Y-100371247D01*
X140865508Y-100352762D01*
X140829233Y-100332954D01*
X140826309Y-100333163D01*
X140756016Y-100298016D01*
X140725758Y-100278571D01*
X140695107Y-100278571D01*
X140664933Y-100273141D01*
X140651841Y-100278571D01*
X140575504Y-100278571D01*
X140539740Y-100274710D01*
X140512324Y-100288417D01*
X140482908Y-100297055D01*
X140473626Y-100307766D01*
X140402878Y-100343140D01*
X140378219Y-100348505D01*
X140349012Y-100377712D01*
X140318729Y-100405881D01*
X140318002Y-100408722D01*
X140303232Y-100423491D01*
X140281533Y-100436380D01*
X140263052Y-100473341D01*
X140243239Y-100509627D01*
X140243448Y-100512549D01*
X140208304Y-100582836D01*
X140188857Y-100613098D01*
X140188857Y-100643751D01*
X140183427Y-100673923D01*
X140188857Y-100687015D01*
X140188857Y-100924051D01*
X140182627Y-100948508D01*
X139228571Y-100948508D01*
X139228571Y-99805651D01*
X140182627Y-99805651D01*
X140195691Y-99844843D01*
X140207341Y-99884520D01*
X140209556Y-99886439D01*
X140260518Y-100039324D01*
X140297961Y-100093200D01*
X140379359Y-100126872D01*
X140466041Y-100111193D01*
X140530485Y-100051140D01*
X140552230Y-99965777D01*
X140488857Y-99775658D01*
X140488857Y-99549696D01*
X140519279Y-99488852D01*
X140541996Y-99466134D01*
X140602837Y-99435714D01*
X140646304Y-99435714D01*
X140707146Y-99466135D01*
X140729863Y-99488853D01*
X140768756Y-99566638D01*
X140815426Y-99753317D01*
X140813567Y-99770545D01*
X140825900Y-99795211D01*
X140827138Y-99800162D01*
X140835514Y-99814439D01*
X140881996Y-99907403D01*
X140887362Y-99932066D01*
X140916578Y-99961281D01*
X140944738Y-99991556D01*
X140947579Y-99992282D01*
X140962350Y-100007053D01*
X140975238Y-100028752D01*
X141012189Y-100047227D01*
X141048484Y-100067046D01*
X141051407Y-100066836D01*
X141121697Y-100101982D01*
X141151956Y-100121428D01*
X141182607Y-100121428D01*
X141212782Y-100126858D01*
X141225874Y-100121428D01*
X141302209Y-100121428D01*
X141337973Y-100125289D01*
X141365387Y-100111581D01*
X141394805Y-100102944D01*
X141404087Y-100092231D01*
X141474830Y-100056859D01*
X141499492Y-100051495D01*
X141528707Y-100022280D01*
X141558984Y-99994118D01*
X141559710Y-99991277D01*
X141574480Y-99976508D01*
X141596181Y-99963619D01*
X141614662Y-99926655D01*
X141634474Y-99890375D01*
X141634264Y-99887451D01*
X141669411Y-99817159D01*
X141688857Y-99786901D01*
X141688857Y-99756250D01*
X141694287Y-99726075D01*
X141688857Y-99712983D01*
X141688857Y-99475948D01*
X141695087Y-99451493D01*
X141682024Y-99412306D01*
X141670373Y-99372623D01*
X141668157Y-99370702D01*
X141617196Y-99217819D01*
X141579753Y-99163942D01*
X141498355Y-99130270D01*
X141411673Y-99145949D01*
X141347230Y-99206002D01*
X141325484Y-99291364D01*
X141388857Y-99481484D01*
X141388857Y-99707446D01*
X141358435Y-99768289D01*
X141335717Y-99791006D01*
X141274874Y-99821428D01*
X141231411Y-99821428D01*
X141170566Y-99791005D01*
X141147849Y-99768288D01*
X141108955Y-99690501D01*
X141062286Y-99503824D01*
X141064146Y-99486597D01*
X141051812Y-99461929D01*
X141050575Y-99456981D01*
X141042200Y-99442706D01*
X140995718Y-99349742D01*
X140990353Y-99325079D01*
X140961127Y-99295853D01*
X140932975Y-99265587D01*
X140930135Y-99264860D01*
X140915366Y-99250091D01*
X140902477Y-99228390D01*
X140865508Y-99209905D01*
X140829233Y-99190097D01*
X140826309Y-99190306D01*
X140756016Y-99155159D01*
X140725758Y-99135714D01*
X140695107Y-99135714D01*
X140664933Y-99130284D01*
X140651841Y-99135714D01*
X140575504Y-99135714D01*
X140539740Y-99131853D01*
X140512324Y-99145560D01*
X140482908Y-99154198D01*
X140473626Y-99164909D01*
X140402878Y-99200283D01*
X140378219Y-99205648D01*
X140349012Y-99234855D01*
X140318729Y-99263024D01*
X140318002Y-99265865D01*
X140303232Y-99280634D01*
X140281533Y-99293523D01*
X140263052Y-99330484D01*
X140243239Y-99366770D01*
X140243448Y-99369692D01*
X140208304Y-99439979D01*
X140188857Y-99470241D01*
X140188857Y-99500894D01*
X140183427Y-99531066D01*
X140188857Y-99544158D01*
X140188857Y-99781194D01*
X140182627Y-99805651D01*
X139228571Y-99805651D01*
X139228571Y-98793677D01*
X140184115Y-98793677D01*
X140220708Y-98873804D01*
X140294813Y-98921428D01*
X141521260Y-98921428D01*
X141546991Y-98927549D01*
X141584859Y-98914253D01*
X141623377Y-98902944D01*
X141626134Y-98899762D01*
X141630105Y-98898368D01*
X141654777Y-98866705D01*
X141681062Y-98836371D01*
X141681660Y-98832205D01*
X141684249Y-98828884D01*
X141687887Y-98788902D01*
X141693599Y-98749179D01*
X141691850Y-98745350D01*
X141692232Y-98741159D01*
X141673682Y-98705567D01*
X141657006Y-98669052D01*
X141653464Y-98666776D01*
X141651519Y-98663043D01*
X141616662Y-98643125D01*
X141582901Y-98621428D01*
X141578693Y-98621428D01*
X140903692Y-98235714D01*
X141560425Y-98235714D01*
X141623377Y-98217230D01*
X141681062Y-98150657D01*
X141693599Y-98063465D01*
X141657006Y-97983338D01*
X141582901Y-97935714D01*
X140356456Y-97935714D01*
X140330723Y-97929592D01*
X140292845Y-97942891D01*
X140254337Y-97954198D01*
X140251580Y-97957379D01*
X140247609Y-97958774D01*
X140222936Y-97990436D01*
X140196652Y-98020771D01*
X140196053Y-98024936D01*
X140193465Y-98028258D01*
X140189826Y-98068239D01*
X140184115Y-98107963D01*
X140185863Y-98111791D01*
X140185482Y-98115983D01*
X140204031Y-98151574D01*
X140220708Y-98188090D01*
X140224249Y-98190365D01*
X140226195Y-98194099D01*
X140261051Y-98214016D01*
X140294813Y-98235714D01*
X140299021Y-98235714D01*
X140974022Y-98621428D01*
X140317289Y-98621428D01*
X140254337Y-98639912D01*
X140196652Y-98706485D01*
X140184115Y-98793677D01*
X139228571Y-98793677D01*
X139228571Y-97427688D01*
X140184996Y-97427688D01*
X140198703Y-97455102D01*
X140207341Y-97484520D01*
X140218053Y-97493802D01*
X140271482Y-97600659D01*
X140316168Y-97648698D01*
X140401510Y-97670521D01*
X140485103Y-97642740D01*
X140540406Y-97574176D01*
X140549861Y-97486597D01*
X140488857Y-97364590D01*
X140488857Y-97252914D01*
X140527105Y-97138168D01*
X140599139Y-97066134D01*
X140676922Y-97027242D01*
X140871608Y-96978571D01*
X141006106Y-96978571D01*
X141200785Y-97027240D01*
X141278573Y-97066135D01*
X141350610Y-97138170D01*
X141388857Y-97252912D01*
X141388857Y-97318516D01*
X141354553Y-97421428D01*
X141174571Y-97421428D01*
X141174571Y-97321289D01*
X141156087Y-97258337D01*
X141089514Y-97200652D01*
X141002322Y-97188115D01*
X140922195Y-97224708D01*
X140874571Y-97298813D01*
X140874571Y-97560697D01*
X140869829Y-97593677D01*
X140883669Y-97623983D01*
X140893055Y-97655948D01*
X140901680Y-97663422D01*
X140906422Y-97673804D01*
X140934449Y-97691816D01*
X140959628Y-97713633D01*
X140970925Y-97715257D01*
X140980527Y-97721428D01*
X141013840Y-97721428D01*
X141046820Y-97726170D01*
X141057203Y-97721428D01*
X141397505Y-97721428D01*
X141413418Y-97727363D01*
X141440700Y-97721428D01*
X141446139Y-97721428D01*
X141461691Y-97716861D01*
X141499493Y-97708638D01*
X141503564Y-97704566D01*
X141509091Y-97702944D01*
X141534428Y-97673702D01*
X141582071Y-97626059D01*
X141610088Y-97603503D01*
X141619780Y-97574424D01*
X141634474Y-97547516D01*
X141633462Y-97533379D01*
X141675212Y-97408132D01*
X141688857Y-97386901D01*
X141688857Y-97345588D01*
X141690352Y-97304264D01*
X141688857Y-97301742D01*
X141688857Y-97247376D01*
X141695087Y-97222921D01*
X141682024Y-97183734D01*
X141670373Y-97144051D01*
X141668157Y-97142130D01*
X141626570Y-97017369D01*
X141618923Y-96982219D01*
X141597249Y-96960545D01*
X141579753Y-96935370D01*
X141566655Y-96929952D01*
X141486793Y-96850090D01*
X141473905Y-96828390D01*
X141436942Y-96809908D01*
X141400659Y-96790096D01*
X141397735Y-96790305D01*
X141344121Y-96763498D01*
X141332252Y-96750875D01*
X141305498Y-96744186D01*
X141300933Y-96741904D01*
X141284639Y-96738971D01*
X141084901Y-96689037D01*
X141068615Y-96678571D01*
X141043035Y-96678571D01*
X141040027Y-96677819D01*
X141021522Y-96678571D01*
X140877830Y-96678571D01*
X140859491Y-96672367D01*
X140834675Y-96678571D01*
X140831574Y-96678571D01*
X140813798Y-96683790D01*
X140614110Y-96733712D01*
X140596883Y-96731853D01*
X140572215Y-96744186D01*
X140567266Y-96745424D01*
X140552991Y-96753798D01*
X140460022Y-96800282D01*
X140435363Y-96805647D01*
X140406151Y-96834858D01*
X140375872Y-96863024D01*
X140375145Y-96865864D01*
X140295644Y-96945365D01*
X140267625Y-96967924D01*
X140257931Y-96997003D01*
X140243239Y-97023911D01*
X140244250Y-97038048D01*
X140202501Y-97163295D01*
X140188857Y-97184527D01*
X140188857Y-97225840D01*
X140187362Y-97267165D01*
X140188857Y-97269687D01*
X140188857Y-97391925D01*
X140184996Y-97427688D01*
X139228571Y-97427688D01*
X139228571Y-95978571D01*
X142421429Y-95978571D01*
X142421429Y-102474286D01*
G37*
D10*
G36*
X165815666Y-126373579D02*
G01*
X165815666Y-126568485D01*
X165828763Y-126575766D01*
X165841791Y-126582501D01*
X165854782Y-126588702D01*
X165867770Y-126594379D01*
X165880788Y-126599542D01*
X165893869Y-126604201D01*
X165907047Y-126608368D01*
X165920355Y-126612052D01*
X165933825Y-126615264D01*
X165947493Y-126618014D01*
X165961390Y-126620312D01*
X165975550Y-126622169D01*
X165990006Y-126623595D01*
X166004791Y-126624601D01*
X166019940Y-126625197D01*
X166035484Y-126625394D01*
X166053587Y-126625051D01*
X166071164Y-126624023D01*
X166088211Y-126622314D01*
X166104724Y-126619925D01*
X166120696Y-126616859D01*
X166136124Y-126613119D01*
X166151004Y-126608707D01*
X166165330Y-126603626D01*
X166179098Y-126597877D01*
X166192303Y-126591465D01*
X166204941Y-126584390D01*
X166217007Y-126576656D01*
X166228495Y-126568265D01*
X166239403Y-126559220D01*
X166249724Y-126549523D01*
X166259455Y-126539176D01*
X166270434Y-126525944D01*
X166280743Y-126511814D01*
X166290377Y-126496802D01*
X166299332Y-126480928D01*
X166307600Y-126464208D01*
X166315178Y-126446659D01*
X166322060Y-126428300D01*
X166325238Y-126418822D01*
X166328240Y-126409147D01*
X166331065Y-126399279D01*
X166333713Y-126389219D01*
X166336183Y-126378970D01*
X166338474Y-126368533D01*
X166340586Y-126357911D01*
X166342517Y-126347106D01*
X166344268Y-126336120D01*
X166345837Y-126324956D01*
X166347224Y-126313615D01*
X166348429Y-126302101D01*
X166349450Y-126290414D01*
X166350286Y-126278557D01*
X166350938Y-126266533D01*
X166351405Y-126254343D01*
X166351685Y-126241990D01*
X166351779Y-126229476D01*
X166351681Y-126216659D01*
X166351387Y-126204038D01*
X166350899Y-126191612D01*
X166350215Y-126179383D01*
X166349338Y-126167351D01*
X166348266Y-126155518D01*
X166347001Y-126143883D01*
X166345543Y-126132447D01*
X166343893Y-126121211D01*
X166342050Y-126110176D01*
X166340016Y-126099342D01*
X166337791Y-126088711D01*
X166335375Y-126078282D01*
X166332769Y-126068056D01*
X166329974Y-126058034D01*
X166326988Y-126048217D01*
X166323814Y-126038606D01*
X166320452Y-126029200D01*
X166316901Y-126020001D01*
X166309238Y-126002227D01*
X166300827Y-125985287D01*
X166291674Y-125969187D01*
X166281781Y-125953933D01*
X166271153Y-125939529D01*
X166259792Y-125925983D01*
X166253838Y-125919532D01*
X166244417Y-125910274D01*
X166234489Y-125901556D01*
X166224079Y-125893387D01*
X166213213Y-125885773D01*
X166201917Y-125878723D01*
X166190215Y-125872245D01*
X166178133Y-125866347D01*
X166165696Y-125861036D01*
X166152931Y-125856320D01*
X166139862Y-125852208D01*
X166126514Y-125848706D01*
X166112913Y-125845824D01*
X166099085Y-125843568D01*
X166085055Y-125841948D01*
X166070848Y-125840969D01*
X166056489Y-125840642D01*
X166044394Y-125840774D01*
X166032732Y-125841177D01*
X166021489Y-125841855D01*
X166010644Y-125842817D01*
X166000182Y-125844067D01*
X165990084Y-125845613D01*
X165980334Y-125847461D01*
X165966320Y-125850813D01*
X165952989Y-125854881D01*
X165940281Y-125859686D01*
X165928137Y-125865251D01*
X165916497Y-125871596D01*
X165905303Y-125878743D01*
X165894398Y-125886377D01*
X165884419Y-125894398D01*
X165875263Y-125902949D01*
X165866826Y-125912171D01*
X165859004Y-125922209D01*
X165851693Y-125933203D01*
X165844790Y-125945297D01*
X165840362Y-125954041D01*
X165836039Y-125963380D01*
X165831789Y-125973355D01*
X165827582Y-125984008D01*
X165823386Y-125995383D01*
X165821284Y-126001353D01*
X165584612Y-125942247D01*
X165590108Y-125927357D01*
X165595541Y-125913328D01*
X165600949Y-125900091D01*
X165606373Y-125887578D01*
X165611850Y-125875722D01*
X165617422Y-125864456D01*
X165623126Y-125853711D01*
X165629003Y-125843420D01*
X165635092Y-125833515D01*
X165641432Y-125823929D01*
X165648063Y-125814595D01*
X165655023Y-125805444D01*
X165662352Y-125796409D01*
X165670091Y-125787422D01*
X165678277Y-125778416D01*
X165686950Y-125769323D01*
X165694936Y-125761556D01*
X165703140Y-125754012D01*
X165711558Y-125746691D01*
X165720186Y-125739596D01*
X165729021Y-125732727D01*
X165738060Y-125726087D01*
X165747301Y-125719676D01*
X165756739Y-125713498D01*
X165766371Y-125707553D01*
X165776194Y-125701842D01*
X165786205Y-125696368D01*
X165796400Y-125691132D01*
X165806776Y-125686136D01*
X165817331Y-125681382D01*
X165828060Y-125676870D01*
X165838961Y-125672602D01*
X165850029Y-125668581D01*
X165861263Y-125664808D01*
X165872658Y-125661284D01*
X165884212Y-125658011D01*
X165895921Y-125654990D01*
X165907781Y-125652224D01*
X165919790Y-125649714D01*
X165931945Y-125647461D01*
X165944241Y-125645467D01*
X165956676Y-125643733D01*
X165969247Y-125642262D01*
X165981950Y-125641055D01*
X165994782Y-125640113D01*
X166007740Y-125639439D01*
X166020820Y-125639033D01*
X166034019Y-125638897D01*
X166044728Y-125638959D01*
X166055331Y-125639144D01*
X166065828Y-125639453D01*
X166076219Y-125639887D01*
X166086504Y-125640447D01*
X166096683Y-125641132D01*
X166106756Y-125641943D01*
X166116722Y-125642881D01*
X166126582Y-125643947D01*
X166136336Y-125645140D01*
X166155525Y-125647913D01*
X166174287Y-125651204D01*
X166192624Y-125655017D01*
X166210535Y-125659357D01*
X166228018Y-125664228D01*
X166245074Y-125669634D01*
X166261703Y-125675579D01*
X166277904Y-125682069D01*
X166293676Y-125689106D01*
X166309020Y-125696696D01*
X166323935Y-125704842D01*
X166339727Y-125713916D01*
X166355087Y-125723544D01*
X166370012Y-125733719D01*
X166384497Y-125744433D01*
X166398536Y-125755676D01*
X166412126Y-125767439D01*
X166425262Y-125779715D01*
X166437939Y-125792495D01*
X166450153Y-125805770D01*
X166461899Y-125819532D01*
X166473173Y-125833771D01*
X166483969Y-125848480D01*
X166494284Y-125863650D01*
X166504112Y-125879272D01*
X166513449Y-125895338D01*
X166522291Y-125911838D01*
X166530633Y-125928765D01*
X166538469Y-125946111D01*
X166545797Y-125963865D01*
X166552610Y-125982020D01*
X166558905Y-126000567D01*
X166564676Y-126019498D01*
X166569920Y-126038804D01*
X166574632Y-126058476D01*
X166578806Y-126078505D01*
X166582439Y-126098884D01*
X166585525Y-126119604D01*
X166588061Y-126140656D01*
X166590041Y-126162031D01*
X166591461Y-126183721D01*
X166592316Y-126205717D01*
X166592602Y-126228011D01*
X166592460Y-126244108D01*
X166592033Y-126260109D01*
X166591324Y-126276007D01*
X166590337Y-126291794D01*
X166589071Y-126307463D01*
X166587531Y-126323007D01*
X166585718Y-126338418D01*
X166583634Y-126353689D01*
X166581282Y-126368812D01*
X166578664Y-126383781D01*
X166575782Y-126398588D01*
X166572638Y-126413225D01*
X166569235Y-126427685D01*
X166565575Y-126441962D01*
X166561660Y-126456047D01*
X166557493Y-126469933D01*
X166553074Y-126483613D01*
X166548408Y-126497080D01*
X166543496Y-126510326D01*
X166538339Y-126523344D01*
X166532942Y-126536127D01*
X166527305Y-126548666D01*
X166521431Y-126560956D01*
X166515322Y-126572988D01*
X166508981Y-126584756D01*
X166502410Y-126596251D01*
X166495610Y-126607467D01*
X166488585Y-126618397D01*
X166481335Y-126629032D01*
X166473865Y-126639365D01*
X166466175Y-126649390D01*
X166458269Y-126659099D01*
X166449325Y-126669186D01*
X166440081Y-126678975D01*
X166430539Y-126688465D01*
X166420703Y-126697655D01*
X166410576Y-126706542D01*
X166400161Y-126715126D01*
X166389460Y-126723404D01*
X166378478Y-126731376D01*
X166367216Y-126739040D01*
X166355679Y-126746394D01*
X166343868Y-126753438D01*
X166331787Y-126760169D01*
X166319440Y-126766586D01*
X166306829Y-126772687D01*
X166293956Y-126778472D01*
X166280826Y-126783938D01*
X166267442Y-126789084D01*
X166253805Y-126793909D01*
X166239920Y-126798412D01*
X166225790Y-126802590D01*
X166211417Y-126806442D01*
X166196804Y-126809967D01*
X166181955Y-126813163D01*
X166166872Y-126816029D01*
X166151559Y-126818564D01*
X166136018Y-126820765D01*
X166120254Y-126822632D01*
X166104267Y-126824162D01*
X166088063Y-126825355D01*
X166071644Y-126826209D01*
X166055012Y-126826723D01*
X166038171Y-126826894D01*
X166024198Y-126826766D01*
X166010055Y-126826386D01*
X165995777Y-126825759D01*
X165981400Y-126824891D01*
X165966960Y-126823786D01*
X165952493Y-126822451D01*
X165938035Y-126820890D01*
X165923621Y-126819109D01*
X165909288Y-126817113D01*
X165895070Y-126814909D01*
X165881004Y-126812500D01*
X165867125Y-126809893D01*
X165853469Y-126807092D01*
X165840073Y-126804104D01*
X165826971Y-126800933D01*
X165814200Y-126797585D01*
X165799508Y-126793608D01*
X165785317Y-126789524D01*
X165771537Y-126785290D01*
X165758074Y-126780862D01*
X165744836Y-126776196D01*
X165731730Y-126771250D01*
X165718663Y-126765978D01*
X165705543Y-126760338D01*
X165692277Y-126754286D01*
X165678772Y-126747778D01*
X165664936Y-126740770D01*
X165650676Y-126733219D01*
X165635899Y-126725082D01*
X165620514Y-126716314D01*
X165604426Y-126706872D01*
X165587543Y-126696713D01*
X165589021Y-126685404D01*
X165590347Y-126674488D01*
X165591528Y-126663862D01*
X165592573Y-126653421D01*
X165593489Y-126643059D01*
X165594284Y-126632673D01*
X165594965Y-126622159D01*
X165595542Y-126611411D01*
X165596021Y-126600325D01*
X165596411Y-126588797D01*
X165596720Y-126576723D01*
X165596954Y-126563997D01*
X165597123Y-126550516D01*
X165597234Y-126536175D01*
X165597294Y-126520869D01*
X165597313Y-126504494D01*
X165597313Y-126352819D01*
X165597278Y-126337270D01*
X165597174Y-126322630D01*
X165596997Y-126308823D01*
X165596748Y-126295773D01*
X165596424Y-126283404D01*
X165596025Y-126271640D01*
X165595548Y-126260406D01*
X165594993Y-126249626D01*
X165594357Y-126239224D01*
X165593640Y-126229123D01*
X165592839Y-126219249D01*
X165591480Y-126204695D01*
X165589926Y-126190224D01*
X165588780Y-126180495D01*
X165587543Y-126170614D01*
X165598211Y-126171619D01*
X165608719Y-126172531D01*
X165619104Y-126173353D01*
X165629408Y-126174090D01*
X165639668Y-126174746D01*
X165649925Y-126175323D01*
X165660218Y-126175827D01*
X165670586Y-126176262D01*
X165681068Y-126176630D01*
X165691704Y-126176937D01*
X165702533Y-126177185D01*
X165713595Y-126177380D01*
X165724929Y-126177524D01*
X165736574Y-126177623D01*
X165748570Y-126177679D01*
X165760956Y-126177697D01*
X165853524Y-126177697D01*
X165870133Y-126177678D01*
X165885421Y-126177620D01*
X165899508Y-126177515D01*
X165912516Y-126177357D01*
X165924564Y-126177141D01*
X165935775Y-126176859D01*
X165946269Y-126176507D01*
X165956167Y-126176079D01*
X165970160Y-126175278D01*
X165983493Y-126174269D01*
X165996572Y-126173033D01*
X166009808Y-126171549D01*
X166023606Y-126169796D01*
X166028401Y-126169148D01*
X166028401Y-126380662D01*
X166016912Y-126379190D01*
X166005883Y-126377923D01*
X165995030Y-126376848D01*
X165984064Y-126375953D01*
X165972701Y-126375223D01*
X165960654Y-126374646D01*
X165947637Y-126374208D01*
X165933364Y-126373896D01*
X165923010Y-126373752D01*
X165911885Y-126373653D01*
X165899905Y-126373597D01*
X165886985Y-126373579D01*
X165815666Y-126373579D01*
G37*
G36*
X165065840Y-125831605D02*
G01*
X165075015Y-125817918D01*
X165083679Y-125804782D01*
X165091841Y-125792183D01*
X165099512Y-125780104D01*
X165106699Y-125768530D01*
X165113415Y-125757446D01*
X165119667Y-125746836D01*
X165125466Y-125736686D01*
X165130822Y-125726979D01*
X165135743Y-125717700D01*
X165140240Y-125708834D01*
X165146211Y-125696276D01*
X165151282Y-125684560D01*
X165155485Y-125673635D01*
X165156699Y-125670160D01*
X165417062Y-125670160D01*
X165415570Y-125681687D01*
X165414205Y-125693121D01*
X165412964Y-125704502D01*
X165411841Y-125715868D01*
X165410833Y-125727258D01*
X165409935Y-125738712D01*
X165409143Y-125750268D01*
X165408452Y-125761965D01*
X165407859Y-125773842D01*
X165407359Y-125785939D01*
X165406947Y-125798294D01*
X165406620Y-125810947D01*
X165406373Y-125823936D01*
X165406202Y-125837300D01*
X165406103Y-125851078D01*
X165406071Y-125865310D01*
X165406071Y-126595108D01*
X165406103Y-126613404D01*
X165406202Y-126630943D01*
X165406373Y-126647748D01*
X165406620Y-126663847D01*
X165406947Y-126679264D01*
X165407359Y-126694026D01*
X165407859Y-126708158D01*
X165408452Y-126721687D01*
X165409143Y-126734637D01*
X165409935Y-126747034D01*
X165410833Y-126758905D01*
X165411841Y-126770276D01*
X165412964Y-126781171D01*
X165414205Y-126791616D01*
X165415570Y-126801638D01*
X165417062Y-126811263D01*
X165167934Y-126811263D01*
X165169429Y-126800885D01*
X165170801Y-126790247D01*
X165172054Y-126779318D01*
X165173193Y-126768066D01*
X165174219Y-126756461D01*
X165175138Y-126744471D01*
X165175952Y-126732066D01*
X165176666Y-126719214D01*
X165177282Y-126705883D01*
X165177804Y-126692044D01*
X165178236Y-126677664D01*
X165178581Y-126662713D01*
X165178844Y-126647160D01*
X165179027Y-126630973D01*
X165179134Y-126614121D01*
X165179169Y-126596573D01*
X165179169Y-126186734D01*
X165179287Y-126174886D01*
X165179514Y-126164571D01*
X165179837Y-126153390D01*
X165180237Y-126141670D01*
X165180696Y-126129733D01*
X165181193Y-126117907D01*
X165181709Y-126106515D01*
X165182225Y-126095881D01*
X165182880Y-126083446D01*
X165183321Y-126075847D01*
X165184384Y-126063280D01*
X165185256Y-126052976D01*
X165186169Y-126042193D01*
X165187002Y-126032379D01*
X165187925Y-126021589D01*
X165188806Y-126011434D01*
X165188939Y-126009902D01*
X165182002Y-126023239D01*
X165175370Y-126035895D01*
X165169016Y-126047915D01*
X165162912Y-126059346D01*
X165157031Y-126070233D01*
X165151346Y-126080622D01*
X165145831Y-126090558D01*
X165140457Y-126100088D01*
X165135197Y-126109258D01*
X165130025Y-126118113D01*
X165124913Y-126126699D01*
X165119833Y-126135061D01*
X165112217Y-126147286D01*
X165104521Y-126159267D01*
X165099302Y-126167194D01*
X164777390Y-126647131D01*
X164769099Y-126659909D01*
X164761085Y-126672406D01*
X164753355Y-126684611D01*
X164745917Y-126696510D01*
X164738777Y-126708094D01*
X164731945Y-126719350D01*
X164725426Y-126730265D01*
X164719229Y-126740829D01*
X164713362Y-126751029D01*
X164707830Y-126760855D01*
X164702644Y-126770293D01*
X164697808Y-126779332D01*
X164691231Y-126792116D01*
X164685488Y-126803937D01*
X164682135Y-126811263D01*
X164418841Y-126811263D01*
X164420376Y-126801450D01*
X164421778Y-126791417D01*
X164423052Y-126781143D01*
X164424203Y-126770608D01*
X164425235Y-126759790D01*
X164426153Y-126748670D01*
X164426961Y-126737227D01*
X164427664Y-126725442D01*
X164428268Y-126713293D01*
X164428775Y-126700759D01*
X164429192Y-126687822D01*
X164429523Y-126674460D01*
X164429772Y-126660653D01*
X164429944Y-126646380D01*
X164430044Y-126631622D01*
X164430076Y-126616357D01*
X164430076Y-125873614D01*
X164430044Y-125857207D01*
X164429944Y-125841561D01*
X164429772Y-125826618D01*
X164429523Y-125812321D01*
X164429192Y-125798612D01*
X164428775Y-125785434D01*
X164428268Y-125772728D01*
X164427664Y-125760438D01*
X164426961Y-125748506D01*
X164426153Y-125736874D01*
X164425235Y-125725485D01*
X164424203Y-125714280D01*
X164423052Y-125703203D01*
X164421778Y-125692196D01*
X164420376Y-125681201D01*
X164418841Y-125670160D01*
X164669434Y-125670160D01*
X164667684Y-125681369D01*
X164666094Y-125692424D01*
X164664657Y-125703397D01*
X164663366Y-125714364D01*
X164662216Y-125725398D01*
X164661200Y-125736574D01*
X164660311Y-125747964D01*
X164659542Y-125759644D01*
X164658889Y-125771688D01*
X164658343Y-125784169D01*
X164657899Y-125797162D01*
X164657550Y-125810741D01*
X164657290Y-125824979D01*
X164657112Y-125839951D01*
X164657010Y-125855731D01*
X164656978Y-125872393D01*
X164656978Y-126297620D01*
X164656930Y-126307623D01*
X164656791Y-126318078D01*
X164656566Y-126328915D01*
X164656260Y-126340065D01*
X164655881Y-126351458D01*
X164655432Y-126363024D01*
X164654921Y-126374696D01*
X164654352Y-126386402D01*
X164653732Y-126398074D01*
X164653066Y-126409642D01*
X164652360Y-126421038D01*
X164651620Y-126432190D01*
X164650851Y-126443031D01*
X164650059Y-126453490D01*
X164649250Y-126463498D01*
X164648429Y-126472986D01*
X164654015Y-126462498D01*
X164659685Y-126452017D01*
X164665431Y-126441555D01*
X164671247Y-126431125D01*
X164677124Y-126420740D01*
X164683055Y-126410411D01*
X164689033Y-126400152D01*
X164695049Y-126389974D01*
X164701097Y-126379891D01*
X164707169Y-126369915D01*
X164713258Y-126360059D01*
X164719355Y-126350334D01*
X164725454Y-126340754D01*
X164731547Y-126331332D01*
X164737626Y-126322078D01*
X164743684Y-126313007D01*
X165065840Y-125831605D01*
G37*
G36*
X164268143Y-126463461D02*
G01*
X164266687Y-126473511D01*
X164265201Y-126483245D01*
X164262124Y-126501806D01*
X164258879Y-126519234D01*
X164255435Y-126535615D01*
X164251759Y-126551040D01*
X164247819Y-126565595D01*
X164243582Y-126579369D01*
X164239017Y-126592452D01*
X164234092Y-126604930D01*
X164228773Y-126616893D01*
X164223030Y-126628428D01*
X164216829Y-126639625D01*
X164210139Y-126650571D01*
X164202928Y-126661355D01*
X164195162Y-126672066D01*
X164186810Y-126682791D01*
X164179670Y-126691456D01*
X164172171Y-126699865D01*
X164164319Y-126708017D01*
X164156114Y-126715911D01*
X164147562Y-126723544D01*
X164138664Y-126730917D01*
X164129425Y-126738027D01*
X164119846Y-126744874D01*
X164109931Y-126751457D01*
X164099683Y-126757773D01*
X164089106Y-126763822D01*
X164078202Y-126769602D01*
X164066974Y-126775113D01*
X164055426Y-126780352D01*
X164043560Y-126785320D01*
X164031380Y-126790013D01*
X164018889Y-126794433D01*
X164006090Y-126798576D01*
X163992985Y-126802441D01*
X163979578Y-126806029D01*
X163965873Y-126809336D01*
X163951872Y-126812362D01*
X163937578Y-126815107D01*
X163922994Y-126817567D01*
X163908123Y-126819743D01*
X163892970Y-126821633D01*
X163877535Y-126823235D01*
X163861824Y-126824549D01*
X163845838Y-126825573D01*
X163829581Y-126826306D01*
X163813056Y-126826747D01*
X163796266Y-126826894D01*
X163770357Y-126826514D01*
X163745162Y-126825377D01*
X163720688Y-126823489D01*
X163696943Y-126820856D01*
X163673933Y-126817484D01*
X163651665Y-126813380D01*
X163630147Y-126808549D01*
X163609386Y-126802996D01*
X163589389Y-126796730D01*
X163570162Y-126789754D01*
X163551714Y-126782075D01*
X163534051Y-126773700D01*
X163517180Y-126764633D01*
X163501109Y-126754882D01*
X163485844Y-126744452D01*
X163471393Y-126733349D01*
X163457762Y-126721579D01*
X163444959Y-126709148D01*
X163432992Y-126696063D01*
X163421866Y-126682328D01*
X163411590Y-126667951D01*
X163402170Y-126652936D01*
X163393613Y-126637291D01*
X163385927Y-126621020D01*
X163379118Y-126604131D01*
X163373194Y-126586629D01*
X163368162Y-126568519D01*
X163364029Y-126549809D01*
X163360802Y-126530504D01*
X163358488Y-126510610D01*
X163357095Y-126490133D01*
X163356629Y-126469078D01*
X163356792Y-126456619D01*
X163357282Y-126444425D01*
X163358099Y-126432495D01*
X163359243Y-126420825D01*
X163360715Y-126409413D01*
X163362515Y-126398256D01*
X163364644Y-126387350D01*
X163367101Y-126376693D01*
X163369887Y-126366283D01*
X163373003Y-126356116D01*
X163376449Y-126346189D01*
X163380225Y-126336500D01*
X163384332Y-126327046D01*
X163388769Y-126317823D01*
X163393538Y-126308830D01*
X163398639Y-126300062D01*
X163404909Y-126290238D01*
X163411617Y-126280651D01*
X163418743Y-126271312D01*
X163426265Y-126262235D01*
X163434163Y-126253433D01*
X163442418Y-126244919D01*
X163451008Y-126236705D01*
X163459913Y-126228804D01*
X163469113Y-126221230D01*
X163478588Y-126213995D01*
X163488316Y-126207112D01*
X163498278Y-126200594D01*
X163508454Y-126194454D01*
X163518822Y-126188705D01*
X163529363Y-126183359D01*
X163540055Y-126178429D01*
X163550692Y-126173790D01*
X163561701Y-126169286D01*
X163573191Y-126164887D01*
X163585271Y-126160561D01*
X163598049Y-126156279D01*
X163611634Y-126152008D01*
X163626135Y-126147719D01*
X163641660Y-126143381D01*
X163658319Y-126138962D01*
X163676221Y-126134432D01*
X163695473Y-126129761D01*
X163705640Y-126127363D01*
X163716185Y-126124917D01*
X163727122Y-126122421D01*
X163738465Y-126119870D01*
X163750228Y-126117261D01*
X163762423Y-126114589D01*
X163775065Y-126111852D01*
X163788167Y-126109044D01*
X163801743Y-126106162D01*
X163815806Y-126103203D01*
X163828940Y-126100122D01*
X163841097Y-126097182D01*
X163852345Y-126094359D01*
X163862754Y-126091628D01*
X163872392Y-126088964D01*
X163885558Y-126085040D01*
X163897383Y-126081129D01*
X163908099Y-126077147D01*
X163917942Y-126073011D01*
X163927146Y-126068637D01*
X163935945Y-126063943D01*
X163944574Y-126058844D01*
X163947452Y-126057041D01*
X163955738Y-126050509D01*
X163963275Y-126043556D01*
X163970050Y-126036185D01*
X163976046Y-126028400D01*
X163982807Y-126017382D01*
X163988125Y-126005642D01*
X163991966Y-125993190D01*
X163993857Y-125983389D01*
X163994883Y-125973195D01*
X163995080Y-125966182D01*
X163994236Y-125951571D01*
X163991739Y-125937623D01*
X163987643Y-125924376D01*
X163982001Y-125911869D01*
X163974867Y-125900140D01*
X163966293Y-125889229D01*
X163956333Y-125879173D01*
X163945040Y-125870012D01*
X163932468Y-125861784D01*
X163918670Y-125854527D01*
X163903699Y-125848281D01*
X163887609Y-125843084D01*
X163870453Y-125838975D01*
X163852283Y-125835991D01*
X163833154Y-125834173D01*
X163823246Y-125833713D01*
X163813119Y-125833558D01*
X163800657Y-125833804D01*
X163788472Y-125834534D01*
X163776582Y-125835745D01*
X163765007Y-125837428D01*
X163753765Y-125839578D01*
X163742876Y-125842188D01*
X163732358Y-125845252D01*
X163722230Y-125848763D01*
X163712512Y-125852714D01*
X163703221Y-125857100D01*
X163694379Y-125861914D01*
X163686002Y-125867149D01*
X163674352Y-125875779D01*
X163663858Y-125885320D01*
X163657536Y-125892177D01*
X163650653Y-125901468D01*
X163644603Y-125910678D01*
X163639302Y-125920118D01*
X163634669Y-125930095D01*
X163630619Y-125940920D01*
X163627071Y-125952902D01*
X163624688Y-125962832D01*
X163622505Y-125973718D01*
X163621144Y-125981570D01*
X163374703Y-125955191D01*
X163378139Y-125940196D01*
X163381595Y-125926117D01*
X163385095Y-125912884D01*
X163388667Y-125900424D01*
X163392334Y-125888663D01*
X163396122Y-125877529D01*
X163400057Y-125866950D01*
X163404165Y-125856853D01*
X163408469Y-125847165D01*
X163412997Y-125837814D01*
X163417773Y-125828727D01*
X163422823Y-125819831D01*
X163428171Y-125811054D01*
X163433845Y-125802324D01*
X163439868Y-125793566D01*
X163446266Y-125784710D01*
X163453245Y-125775911D01*
X163460534Y-125767375D01*
X163468130Y-125759103D01*
X163476031Y-125751096D01*
X163484235Y-125743355D01*
X163492739Y-125735882D01*
X163501541Y-125728677D01*
X163510639Y-125721741D01*
X163520031Y-125715076D01*
X163529713Y-125708682D01*
X163539684Y-125702561D01*
X163549941Y-125696714D01*
X163560483Y-125691141D01*
X163571306Y-125685844D01*
X163582409Y-125680825D01*
X163593789Y-125676083D01*
X163605443Y-125671620D01*
X163617370Y-125667438D01*
X163629567Y-125663536D01*
X163642032Y-125659917D01*
X163654763Y-125656581D01*
X163667756Y-125653530D01*
X163681011Y-125650764D01*
X163694524Y-125648285D01*
X163708293Y-125646093D01*
X163722316Y-125644191D01*
X163736590Y-125642578D01*
X163751114Y-125641255D01*
X163765884Y-125640225D01*
X163780899Y-125639488D01*
X163796156Y-125639045D01*
X163811653Y-125638897D01*
X163835645Y-125639277D01*
X163859066Y-125640412D01*
X163881906Y-125642290D01*
X163904152Y-125644902D01*
X163925790Y-125648238D01*
X163946809Y-125652287D01*
X163967195Y-125657040D01*
X163986936Y-125662485D01*
X164006019Y-125668614D01*
X164024433Y-125675416D01*
X164042163Y-125682880D01*
X164059198Y-125690996D01*
X164075525Y-125699756D01*
X164091132Y-125709147D01*
X164106005Y-125719160D01*
X164120132Y-125729786D01*
X164133501Y-125741013D01*
X164146099Y-125752832D01*
X164157912Y-125765232D01*
X164168930Y-125778204D01*
X164179139Y-125791736D01*
X164188526Y-125805820D01*
X164197079Y-125820445D01*
X164204785Y-125835600D01*
X164211632Y-125851276D01*
X164217607Y-125867462D01*
X164222697Y-125884149D01*
X164226890Y-125901326D01*
X164230173Y-125918983D01*
X164232534Y-125937109D01*
X164233960Y-125955695D01*
X164234438Y-125974731D01*
X164233947Y-125993886D01*
X164232480Y-126012600D01*
X164230044Y-126030862D01*
X164226649Y-126048660D01*
X164222302Y-126065983D01*
X164217011Y-126082820D01*
X164210785Y-126099158D01*
X164203633Y-126114987D01*
X164195561Y-126130295D01*
X164186579Y-126145071D01*
X164176695Y-126159303D01*
X164165916Y-126172980D01*
X164154252Y-126186090D01*
X164141710Y-126198621D01*
X164128299Y-126210564D01*
X164114026Y-126221905D01*
X164104106Y-126228735D01*
X164094235Y-126235151D01*
X164084296Y-126241196D01*
X164074172Y-126246913D01*
X164063747Y-126252345D01*
X164052902Y-126257535D01*
X164041521Y-126262527D01*
X164029487Y-126267364D01*
X164016684Y-126272090D01*
X164002993Y-126276747D01*
X163988299Y-126281379D01*
X163972483Y-126286030D01*
X163955430Y-126290742D01*
X163937022Y-126295559D01*
X163927273Y-126298020D01*
X163917142Y-126300524D01*
X163906613Y-126303075D01*
X163895673Y-126305680D01*
X163881678Y-126308894D01*
X163868304Y-126311991D01*
X163855529Y-126314978D01*
X163843333Y-126317861D01*
X163831698Y-126320647D01*
X163820603Y-126323341D01*
X163810028Y-126325951D01*
X163799953Y-126328482D01*
X163790358Y-126330942D01*
X163772528Y-126335671D01*
X163756380Y-126340189D01*
X163741754Y-126344547D01*
X163728489Y-126348797D01*
X163716427Y-126352989D01*
X163705408Y-126357175D01*
X163695272Y-126361406D01*
X163685861Y-126365733D01*
X163677013Y-126370207D01*
X163664450Y-126377306D01*
X163656315Y-126382372D01*
X163646556Y-126389017D01*
X163637752Y-126396298D01*
X163629903Y-126404195D01*
X163623012Y-126412687D01*
X163617078Y-126421754D01*
X163612103Y-126431376D01*
X163608088Y-126441531D01*
X163605035Y-126452199D01*
X163602945Y-126463360D01*
X163601819Y-126474993D01*
X163601605Y-126483000D01*
X163602498Y-126499361D01*
X163605148Y-126514900D01*
X163609508Y-126529584D01*
X163615530Y-126543382D01*
X163623168Y-126556261D01*
X163632375Y-126568188D01*
X163643104Y-126579133D01*
X163655307Y-126589063D01*
X163668940Y-126597944D01*
X163683953Y-126605747D01*
X163700301Y-126612437D01*
X163717937Y-126617983D01*
X163736813Y-126622352D01*
X163746702Y-126624086D01*
X163756883Y-126625513D01*
X163767352Y-126626630D01*
X163778101Y-126627433D01*
X163789125Y-126627918D01*
X163800418Y-126628080D01*
X163815700Y-126627772D01*
X163830575Y-126626852D01*
X163845028Y-126625324D01*
X163859040Y-126623196D01*
X163872597Y-126620472D01*
X163885679Y-126617158D01*
X163898272Y-126613261D01*
X163910358Y-126608785D01*
X163921920Y-126603737D01*
X163932941Y-126598123D01*
X163943405Y-126591947D01*
X163953295Y-126585216D01*
X163962594Y-126577935D01*
X163971285Y-126570111D01*
X163979351Y-126561748D01*
X163986775Y-126552854D01*
X163993043Y-126544654D01*
X163998563Y-126536432D01*
X164004866Y-126525150D01*
X164008883Y-126516236D01*
X164012360Y-126506753D01*
X164015361Y-126496535D01*
X164017948Y-126485419D01*
X164020184Y-126473241D01*
X164022132Y-126459835D01*
X164023301Y-126450136D01*
X164024389Y-126439769D01*
X164268143Y-126463461D01*
G37*
G36*
X163235484Y-126463461D02*
G01*
X163234028Y-126473511D01*
X163232542Y-126483245D01*
X163229465Y-126501806D01*
X163226221Y-126519234D01*
X163222776Y-126535615D01*
X163219100Y-126551040D01*
X163215160Y-126565595D01*
X163210923Y-126579369D01*
X163206359Y-126592452D01*
X163201433Y-126604930D01*
X163196115Y-126616893D01*
X163190371Y-126628428D01*
X163184171Y-126639625D01*
X163177481Y-126650571D01*
X163170269Y-126661355D01*
X163162503Y-126672066D01*
X163154152Y-126682791D01*
X163147011Y-126691456D01*
X163139513Y-126699865D01*
X163131660Y-126708017D01*
X163123456Y-126715911D01*
X163114903Y-126723544D01*
X163106006Y-126730917D01*
X163096766Y-126738027D01*
X163087187Y-126744874D01*
X163077272Y-126751457D01*
X163067025Y-126757773D01*
X163056447Y-126763822D01*
X163045543Y-126769602D01*
X163034316Y-126775113D01*
X163022767Y-126780352D01*
X163010902Y-126785320D01*
X162998722Y-126790013D01*
X162986230Y-126794433D01*
X162973431Y-126798576D01*
X162960326Y-126802441D01*
X162946920Y-126806029D01*
X162933214Y-126809336D01*
X162919213Y-126812362D01*
X162904919Y-126815107D01*
X162890335Y-126817567D01*
X162875465Y-126819743D01*
X162860311Y-126821633D01*
X162844877Y-126823235D01*
X162829165Y-126824549D01*
X162813179Y-126825573D01*
X162796922Y-126826306D01*
X162780397Y-126826747D01*
X162763607Y-126826894D01*
X162737698Y-126826514D01*
X162712503Y-126825377D01*
X162688029Y-126823489D01*
X162664284Y-126820856D01*
X162641274Y-126817484D01*
X162619006Y-126813380D01*
X162597488Y-126808549D01*
X162576727Y-126802996D01*
X162556730Y-126796730D01*
X162537503Y-126789754D01*
X162519055Y-126782075D01*
X162501392Y-126773700D01*
X162484521Y-126764633D01*
X162468450Y-126754882D01*
X162453185Y-126744452D01*
X162438734Y-126733349D01*
X162425103Y-126721579D01*
X162412301Y-126709148D01*
X162400333Y-126696063D01*
X162389207Y-126682328D01*
X162378931Y-126667951D01*
X162369511Y-126652936D01*
X162360954Y-126637291D01*
X162353268Y-126621020D01*
X162346459Y-126604131D01*
X162340535Y-126586629D01*
X162335503Y-126568519D01*
X162331370Y-126549809D01*
X162328144Y-126530504D01*
X162325830Y-126510610D01*
X162324436Y-126490133D01*
X162323970Y-126469078D01*
X162324133Y-126456619D01*
X162324623Y-126444425D01*
X162325440Y-126432495D01*
X162326584Y-126420825D01*
X162328056Y-126409413D01*
X162329856Y-126398256D01*
X162331985Y-126387350D01*
X162334442Y-126376693D01*
X162337229Y-126366283D01*
X162340344Y-126356116D01*
X162343790Y-126346189D01*
X162347566Y-126336500D01*
X162351673Y-126327046D01*
X162356111Y-126317823D01*
X162360879Y-126308830D01*
X162365980Y-126300062D01*
X162372251Y-126290238D01*
X162378959Y-126280651D01*
X162386084Y-126271312D01*
X162393606Y-126262235D01*
X162401505Y-126253433D01*
X162409759Y-126244919D01*
X162418349Y-126236705D01*
X162427254Y-126228804D01*
X162436454Y-126221230D01*
X162445929Y-126213995D01*
X162455657Y-126207112D01*
X162465620Y-126200594D01*
X162475795Y-126194454D01*
X162486163Y-126188705D01*
X162496704Y-126183359D01*
X162507397Y-126178429D01*
X162518034Y-126173790D01*
X162529043Y-126169286D01*
X162540533Y-126164887D01*
X162552612Y-126160561D01*
X162565390Y-126156279D01*
X162578975Y-126152008D01*
X162593476Y-126147719D01*
X162609002Y-126143381D01*
X162625661Y-126138962D01*
X162643562Y-126134432D01*
X162662814Y-126129761D01*
X162672981Y-126127363D01*
X162683526Y-126124917D01*
X162694464Y-126122421D01*
X162705807Y-126119870D01*
X162717569Y-126117261D01*
X162729764Y-126114589D01*
X162742406Y-126111852D01*
X162755508Y-126109044D01*
X162769084Y-126106162D01*
X162783147Y-126103203D01*
X162796282Y-126100122D01*
X162808438Y-126097182D01*
X162819686Y-126094359D01*
X162830095Y-126091628D01*
X162839733Y-126088964D01*
X162852900Y-126085040D01*
X162864724Y-126081129D01*
X162875440Y-126077147D01*
X162885284Y-126073011D01*
X162894488Y-126068637D01*
X162903287Y-126063943D01*
X162911915Y-126058844D01*
X162914794Y-126057041D01*
X162923079Y-126050509D01*
X162930617Y-126043556D01*
X162937391Y-126036185D01*
X162943387Y-126028400D01*
X162950148Y-126017382D01*
X162955466Y-126005642D01*
X162959307Y-125993190D01*
X162961198Y-125983389D01*
X162962224Y-125973195D01*
X162962421Y-125966182D01*
X162961577Y-125951571D01*
X162959080Y-125937623D01*
X162954984Y-125924376D01*
X162949343Y-125911869D01*
X162942208Y-125900140D01*
X162933634Y-125889229D01*
X162923674Y-125879173D01*
X162912382Y-125870012D01*
X162899810Y-125861784D01*
X162886012Y-125854527D01*
X162871041Y-125848281D01*
X162854950Y-125843084D01*
X162837794Y-125838975D01*
X162819624Y-125835991D01*
X162800495Y-125834173D01*
X162790588Y-125833713D01*
X162780460Y-125833558D01*
X162767998Y-125833804D01*
X162755813Y-125834534D01*
X162743923Y-125835745D01*
X162732348Y-125837428D01*
X162721106Y-125839578D01*
X162710217Y-125842188D01*
X162699699Y-125845252D01*
X162689571Y-125848763D01*
X162679853Y-125852714D01*
X162670563Y-125857100D01*
X162661720Y-125861914D01*
X162653343Y-125867149D01*
X162641694Y-125875779D01*
X162631200Y-125885320D01*
X162624877Y-125892177D01*
X162617994Y-125901468D01*
X162611944Y-125910678D01*
X162606644Y-125920118D01*
X162602010Y-125930095D01*
X162597961Y-125940920D01*
X162594412Y-125952902D01*
X162592029Y-125962832D01*
X162589846Y-125973718D01*
X162588485Y-125981570D01*
X162342044Y-125955191D01*
X162345480Y-125940196D01*
X162348936Y-125926117D01*
X162352437Y-125912884D01*
X162356008Y-125900424D01*
X162359675Y-125888663D01*
X162363464Y-125877529D01*
X162367399Y-125866950D01*
X162371506Y-125856853D01*
X162375811Y-125847165D01*
X162380338Y-125837814D01*
X162385114Y-125828727D01*
X162390164Y-125819831D01*
X162395513Y-125811054D01*
X162401186Y-125802324D01*
X162407209Y-125793566D01*
X162413607Y-125784710D01*
X162420586Y-125775911D01*
X162427875Y-125767375D01*
X162435471Y-125759103D01*
X162443373Y-125751096D01*
X162451576Y-125743355D01*
X162460080Y-125735882D01*
X162468883Y-125728677D01*
X162477981Y-125721741D01*
X162487372Y-125715076D01*
X162497054Y-125708682D01*
X162507025Y-125702561D01*
X162517283Y-125696714D01*
X162527824Y-125691141D01*
X162538647Y-125685844D01*
X162549750Y-125680825D01*
X162561130Y-125676083D01*
X162572785Y-125671620D01*
X162584712Y-125667438D01*
X162596909Y-125663536D01*
X162609374Y-125659917D01*
X162622104Y-125656581D01*
X162635098Y-125653530D01*
X162648352Y-125650764D01*
X162661865Y-125648285D01*
X162675634Y-125646093D01*
X162689657Y-125644191D01*
X162703931Y-125642578D01*
X162718455Y-125641255D01*
X162733225Y-125640225D01*
X162748240Y-125639488D01*
X162763498Y-125639045D01*
X162778995Y-125638897D01*
X162802986Y-125639277D01*
X162826408Y-125640412D01*
X162849248Y-125642290D01*
X162871493Y-125644902D01*
X162893131Y-125648238D01*
X162914150Y-125652287D01*
X162934536Y-125657040D01*
X162954277Y-125662485D01*
X162973361Y-125668614D01*
X162991774Y-125675416D01*
X163009504Y-125682880D01*
X163026540Y-125690996D01*
X163042867Y-125699756D01*
X163058473Y-125709147D01*
X163073346Y-125719160D01*
X163087473Y-125729786D01*
X163100842Y-125741013D01*
X163113440Y-125752832D01*
X163125254Y-125765232D01*
X163136271Y-125778204D01*
X163146480Y-125791736D01*
X163155867Y-125805820D01*
X163164420Y-125820445D01*
X163172126Y-125835600D01*
X163178973Y-125851276D01*
X163184948Y-125867462D01*
X163190038Y-125884149D01*
X163194231Y-125901326D01*
X163197514Y-125918983D01*
X163199875Y-125937109D01*
X163201301Y-125955695D01*
X163201779Y-125974731D01*
X163201288Y-125993886D01*
X163199821Y-126012600D01*
X163197385Y-126030862D01*
X163193990Y-126048660D01*
X163189643Y-126065983D01*
X163184352Y-126082820D01*
X163178127Y-126099158D01*
X163170974Y-126114987D01*
X163162902Y-126130295D01*
X163153920Y-126145071D01*
X163144036Y-126159303D01*
X163133257Y-126172980D01*
X163121593Y-126186090D01*
X163109051Y-126198621D01*
X163095640Y-126210564D01*
X163081367Y-126221905D01*
X163071447Y-126228735D01*
X163061576Y-126235151D01*
X163051638Y-126241196D01*
X163041514Y-126246913D01*
X163031088Y-126252345D01*
X163020243Y-126257535D01*
X163008862Y-126262527D01*
X162996829Y-126267364D01*
X162984025Y-126272090D01*
X162970335Y-126276747D01*
X162955640Y-126281379D01*
X162939825Y-126286030D01*
X162922771Y-126290742D01*
X162904363Y-126295559D01*
X162894614Y-126298020D01*
X162884483Y-126300524D01*
X162873955Y-126303075D01*
X162863014Y-126305680D01*
X162849020Y-126308894D01*
X162835645Y-126311991D01*
X162822870Y-126314978D01*
X162810675Y-126317861D01*
X162799039Y-126320647D01*
X162787944Y-126323341D01*
X162777369Y-126325951D01*
X162767294Y-126328482D01*
X162757699Y-126330942D01*
X162739870Y-126335671D01*
X162723721Y-126340189D01*
X162709095Y-126344547D01*
X162695830Y-126348797D01*
X162683768Y-126352989D01*
X162672749Y-126357175D01*
X162662614Y-126361406D01*
X162653202Y-126365733D01*
X162644354Y-126370207D01*
X162631791Y-126377306D01*
X162623656Y-126382372D01*
X162613898Y-126389017D01*
X162605093Y-126396298D01*
X162597245Y-126404195D01*
X162590353Y-126412687D01*
X162584419Y-126421754D01*
X162579444Y-126431376D01*
X162575430Y-126441531D01*
X162572377Y-126452199D01*
X162570287Y-126463360D01*
X162569160Y-126474993D01*
X162568946Y-126483000D01*
X162569840Y-126499361D01*
X162572490Y-126514900D01*
X162576849Y-126529584D01*
X162582871Y-126543382D01*
X162590509Y-126556261D01*
X162599716Y-126568188D01*
X162610445Y-126579133D01*
X162622649Y-126589063D01*
X162636281Y-126597944D01*
X162651294Y-126605747D01*
X162667642Y-126612437D01*
X162685278Y-126617983D01*
X162704154Y-126622352D01*
X162714043Y-126624086D01*
X162724225Y-126625513D01*
X162734693Y-126626630D01*
X162745442Y-126627433D01*
X162756466Y-126627918D01*
X162767759Y-126628080D01*
X162783041Y-126627772D01*
X162797916Y-126626852D01*
X162812369Y-126625324D01*
X162826382Y-126623196D01*
X162839938Y-126620472D01*
X162853021Y-126617158D01*
X162865613Y-126613261D01*
X162877699Y-126608785D01*
X162889261Y-126603737D01*
X162900283Y-126598123D01*
X162910747Y-126591947D01*
X162920636Y-126585216D01*
X162929935Y-126577935D01*
X162938626Y-126570111D01*
X162946692Y-126561748D01*
X162954117Y-126552854D01*
X162960385Y-126544654D01*
X162965904Y-126536432D01*
X162972207Y-126525150D01*
X162976224Y-126516236D01*
X162979701Y-126506753D01*
X162982702Y-126496535D01*
X162985289Y-126485419D01*
X162987525Y-126473241D01*
X162989473Y-126459835D01*
X162990642Y-126450136D01*
X162991730Y-126439769D01*
X163235484Y-126463461D01*
G37*
X128711904Y-140772619D02*
X128140476Y-140772619D01*
X128426190Y-140772619D02*
X128426190Y-141772619D01*
X128426190Y-141772619D02*
X128330952Y-141629761D01*
X128330952Y-141629761D02*
X128235714Y-141534523D01*
X128235714Y-141534523D02*
X128140476Y-141486904D01*
X129597619Y-141772619D02*
X129930952Y-140772619D01*
X129930952Y-140772619D02*
X130264285Y-141772619D01*
X130597619Y-140772619D02*
X130597619Y-141772619D01*
X131073809Y-140772619D02*
X131073809Y-141772619D01*
X131073809Y-141772619D02*
X131645237Y-140772619D01*
X131645237Y-140772619D02*
X131645237Y-141772619D01*
X128140476Y-140057380D02*
X128188095Y-140105000D01*
X128188095Y-140105000D02*
X128283333Y-140152619D01*
X128283333Y-140152619D02*
X128521428Y-140152619D01*
X128521428Y-140152619D02*
X128616666Y-140105000D01*
X128616666Y-140105000D02*
X128664285Y-140057380D01*
X128664285Y-140057380D02*
X128711904Y-139962142D01*
X128711904Y-139962142D02*
X128711904Y-139866904D01*
X128711904Y-139866904D02*
X128664285Y-139724047D01*
X128664285Y-139724047D02*
X128092857Y-139152619D01*
X128092857Y-139152619D02*
X128711904Y-139152619D01*
X130311904Y-139247857D02*
X130264285Y-139200238D01*
X130264285Y-139200238D02*
X130121428Y-139152619D01*
X130121428Y-139152619D02*
X130026190Y-139152619D01*
X130026190Y-139152619D02*
X129883333Y-139200238D01*
X129883333Y-139200238D02*
X129788095Y-139295476D01*
X129788095Y-139295476D02*
X129740476Y-139390714D01*
X129740476Y-139390714D02*
X129692857Y-139581190D01*
X129692857Y-139581190D02*
X129692857Y-139724047D01*
X129692857Y-139724047D02*
X129740476Y-139914523D01*
X129740476Y-139914523D02*
X129788095Y-140009761D01*
X129788095Y-140009761D02*
X129883333Y-140105000D01*
X129883333Y-140105000D02*
X130026190Y-140152619D01*
X130026190Y-140152619D02*
X130121428Y-140152619D01*
X130121428Y-140152619D02*
X130264285Y-140105000D01*
X130264285Y-140105000D02*
X130311904Y-140057380D01*
X130692857Y-139438333D02*
X131169047Y-139438333D01*
X130597619Y-139152619D02*
X130930952Y-140152619D01*
X130930952Y-140152619D02*
X131264285Y-139152619D01*
X131597619Y-139152619D02*
X131597619Y-140152619D01*
X131597619Y-140152619D02*
X132169047Y-139152619D01*
X132169047Y-139152619D02*
X132169047Y-140152619D01*
X132407143Y-139057380D02*
X133169047Y-139057380D01*
X133359524Y-140057380D02*
X133407143Y-140105000D01*
X133407143Y-140105000D02*
X133502381Y-140152619D01*
X133502381Y-140152619D02*
X133740476Y-140152619D01*
X133740476Y-140152619D02*
X133835714Y-140105000D01*
X133835714Y-140105000D02*
X133883333Y-140057380D01*
X133883333Y-140057380D02*
X133930952Y-139962142D01*
X133930952Y-139962142D02*
X133930952Y-139866904D01*
X133930952Y-139866904D02*
X133883333Y-139724047D01*
X133883333Y-139724047D02*
X133311905Y-139152619D01*
X133311905Y-139152619D02*
X133930952Y-139152619D01*
X134835714Y-140152619D02*
X134359524Y-140152619D01*
X134359524Y-140152619D02*
X134311905Y-139676428D01*
X134311905Y-139676428D02*
X134359524Y-139724047D01*
X134359524Y-139724047D02*
X134454762Y-139771666D01*
X134454762Y-139771666D02*
X134692857Y-139771666D01*
X134692857Y-139771666D02*
X134788095Y-139724047D01*
X134788095Y-139724047D02*
X134835714Y-139676428D01*
X134835714Y-139676428D02*
X134883333Y-139581190D01*
X134883333Y-139581190D02*
X134883333Y-139343095D01*
X134883333Y-139343095D02*
X134835714Y-139247857D01*
X134835714Y-139247857D02*
X134788095Y-139200238D01*
X134788095Y-139200238D02*
X134692857Y-139152619D01*
X134692857Y-139152619D02*
X134454762Y-139152619D01*
X134454762Y-139152619D02*
X134359524Y-139200238D01*
X134359524Y-139200238D02*
X134311905Y-139247857D01*
X135502381Y-140152619D02*
X135597619Y-140152619D01*
X135597619Y-140152619D02*
X135692857Y-140105000D01*
X135692857Y-140105000D02*
X135740476Y-140057380D01*
X135740476Y-140057380D02*
X135788095Y-139962142D01*
X135788095Y-139962142D02*
X135835714Y-139771666D01*
X135835714Y-139771666D02*
X135835714Y-139533571D01*
X135835714Y-139533571D02*
X135788095Y-139343095D01*
X135788095Y-139343095D02*
X135740476Y-139247857D01*
X135740476Y-139247857D02*
X135692857Y-139200238D01*
X135692857Y-139200238D02*
X135597619Y-139152619D01*
X135597619Y-139152619D02*
X135502381Y-139152619D01*
X135502381Y-139152619D02*
X135407143Y-139200238D01*
X135407143Y-139200238D02*
X135359524Y-139247857D01*
X135359524Y-139247857D02*
X135311905Y-139343095D01*
X135311905Y-139343095D02*
X135264286Y-139533571D01*
X135264286Y-139533571D02*
X135264286Y-139771666D01*
X135264286Y-139771666D02*
X135311905Y-139962142D01*
X135311905Y-139962142D02*
X135359524Y-140057380D01*
X135359524Y-140057380D02*
X135407143Y-140105000D01*
X135407143Y-140105000D02*
X135502381Y-140152619D01*
X136026191Y-139057380D02*
X136788095Y-139057380D01*
X137026191Y-139152619D02*
X137026191Y-140152619D01*
X137026191Y-139676428D02*
X137597619Y-139676428D01*
X137597619Y-139152619D02*
X137597619Y-140152619D01*
X128092857Y-138532619D02*
X128711904Y-138532619D01*
X128711904Y-138532619D02*
X128378571Y-138151666D01*
X128378571Y-138151666D02*
X128521428Y-138151666D01*
X128521428Y-138151666D02*
X128616666Y-138104047D01*
X128616666Y-138104047D02*
X128664285Y-138056428D01*
X128664285Y-138056428D02*
X128711904Y-137961190D01*
X128711904Y-137961190D02*
X128711904Y-137723095D01*
X128711904Y-137723095D02*
X128664285Y-137627857D01*
X128664285Y-137627857D02*
X128616666Y-137580238D01*
X128616666Y-137580238D02*
X128521428Y-137532619D01*
X128521428Y-137532619D02*
X128235714Y-137532619D01*
X128235714Y-137532619D02*
X128140476Y-137580238D01*
X128140476Y-137580238D02*
X128092857Y-137627857D01*
X130311904Y-137627857D02*
X130264285Y-137580238D01*
X130264285Y-137580238D02*
X130121428Y-137532619D01*
X130121428Y-137532619D02*
X130026190Y-137532619D01*
X130026190Y-137532619D02*
X129883333Y-137580238D01*
X129883333Y-137580238D02*
X129788095Y-137675476D01*
X129788095Y-137675476D02*
X129740476Y-137770714D01*
X129740476Y-137770714D02*
X129692857Y-137961190D01*
X129692857Y-137961190D02*
X129692857Y-138104047D01*
X129692857Y-138104047D02*
X129740476Y-138294523D01*
X129740476Y-138294523D02*
X129788095Y-138389761D01*
X129788095Y-138389761D02*
X129883333Y-138485000D01*
X129883333Y-138485000D02*
X130026190Y-138532619D01*
X130026190Y-138532619D02*
X130121428Y-138532619D01*
X130121428Y-138532619D02*
X130264285Y-138485000D01*
X130264285Y-138485000D02*
X130311904Y-138437380D01*
X130692857Y-137818333D02*
X131169047Y-137818333D01*
X130597619Y-137532619D02*
X130930952Y-138532619D01*
X130930952Y-138532619D02*
X131264285Y-137532619D01*
X131597619Y-137532619D02*
X131597619Y-138532619D01*
X131597619Y-138532619D02*
X132169047Y-137532619D01*
X132169047Y-137532619D02*
X132169047Y-138532619D01*
X132407143Y-137437380D02*
X133169047Y-137437380D01*
X133359524Y-138437380D02*
X133407143Y-138485000D01*
X133407143Y-138485000D02*
X133502381Y-138532619D01*
X133502381Y-138532619D02*
X133740476Y-138532619D01*
X133740476Y-138532619D02*
X133835714Y-138485000D01*
X133835714Y-138485000D02*
X133883333Y-138437380D01*
X133883333Y-138437380D02*
X133930952Y-138342142D01*
X133930952Y-138342142D02*
X133930952Y-138246904D01*
X133930952Y-138246904D02*
X133883333Y-138104047D01*
X133883333Y-138104047D02*
X133311905Y-137532619D01*
X133311905Y-137532619D02*
X133930952Y-137532619D01*
X134835714Y-138532619D02*
X134359524Y-138532619D01*
X134359524Y-138532619D02*
X134311905Y-138056428D01*
X134311905Y-138056428D02*
X134359524Y-138104047D01*
X134359524Y-138104047D02*
X134454762Y-138151666D01*
X134454762Y-138151666D02*
X134692857Y-138151666D01*
X134692857Y-138151666D02*
X134788095Y-138104047D01*
X134788095Y-138104047D02*
X134835714Y-138056428D01*
X134835714Y-138056428D02*
X134883333Y-137961190D01*
X134883333Y-137961190D02*
X134883333Y-137723095D01*
X134883333Y-137723095D02*
X134835714Y-137627857D01*
X134835714Y-137627857D02*
X134788095Y-137580238D01*
X134788095Y-137580238D02*
X134692857Y-137532619D01*
X134692857Y-137532619D02*
X134454762Y-137532619D01*
X134454762Y-137532619D02*
X134359524Y-137580238D01*
X134359524Y-137580238D02*
X134311905Y-137627857D01*
X135502381Y-138532619D02*
X135597619Y-138532619D01*
X135597619Y-138532619D02*
X135692857Y-138485000D01*
X135692857Y-138485000D02*
X135740476Y-138437380D01*
X135740476Y-138437380D02*
X135788095Y-138342142D01*
X135788095Y-138342142D02*
X135835714Y-138151666D01*
X135835714Y-138151666D02*
X135835714Y-137913571D01*
X135835714Y-137913571D02*
X135788095Y-137723095D01*
X135788095Y-137723095D02*
X135740476Y-137627857D01*
X135740476Y-137627857D02*
X135692857Y-137580238D01*
X135692857Y-137580238D02*
X135597619Y-137532619D01*
X135597619Y-137532619D02*
X135502381Y-137532619D01*
X135502381Y-137532619D02*
X135407143Y-137580238D01*
X135407143Y-137580238D02*
X135359524Y-137627857D01*
X135359524Y-137627857D02*
X135311905Y-137723095D01*
X135311905Y-137723095D02*
X135264286Y-137913571D01*
X135264286Y-137913571D02*
X135264286Y-138151666D01*
X135264286Y-138151666D02*
X135311905Y-138342142D01*
X135311905Y-138342142D02*
X135359524Y-138437380D01*
X135359524Y-138437380D02*
X135407143Y-138485000D01*
X135407143Y-138485000D02*
X135502381Y-138532619D01*
X136026191Y-137437380D02*
X136788095Y-137437380D01*
X137502381Y-137532619D02*
X137026191Y-137532619D01*
X137026191Y-137532619D02*
X137026191Y-138532619D01*
X128616666Y-136579285D02*
X128616666Y-135912619D01*
X128378571Y-136960238D02*
X128140476Y-136245952D01*
X128140476Y-136245952D02*
X128759523Y-136245952D01*
X130311904Y-136007857D02*
X130264285Y-135960238D01*
X130264285Y-135960238D02*
X130121428Y-135912619D01*
X130121428Y-135912619D02*
X130026190Y-135912619D01*
X130026190Y-135912619D02*
X129883333Y-135960238D01*
X129883333Y-135960238D02*
X129788095Y-136055476D01*
X129788095Y-136055476D02*
X129740476Y-136150714D01*
X129740476Y-136150714D02*
X129692857Y-136341190D01*
X129692857Y-136341190D02*
X129692857Y-136484047D01*
X129692857Y-136484047D02*
X129740476Y-136674523D01*
X129740476Y-136674523D02*
X129788095Y-136769761D01*
X129788095Y-136769761D02*
X129883333Y-136865000D01*
X129883333Y-136865000D02*
X130026190Y-136912619D01*
X130026190Y-136912619D02*
X130121428Y-136912619D01*
X130121428Y-136912619D02*
X130264285Y-136865000D01*
X130264285Y-136865000D02*
X130311904Y-136817380D01*
X130692857Y-136198333D02*
X131169047Y-136198333D01*
X130597619Y-135912619D02*
X130930952Y-136912619D01*
X130930952Y-136912619D02*
X131264285Y-135912619D01*
X131597619Y-135912619D02*
X131597619Y-136912619D01*
X131597619Y-136912619D02*
X132169047Y-135912619D01*
X132169047Y-135912619D02*
X132169047Y-136912619D01*
X132407143Y-135817380D02*
X133169047Y-135817380D01*
X133883333Y-136912619D02*
X133407143Y-136912619D01*
X133407143Y-136912619D02*
X133359524Y-136436428D01*
X133359524Y-136436428D02*
X133407143Y-136484047D01*
X133407143Y-136484047D02*
X133502381Y-136531666D01*
X133502381Y-136531666D02*
X133740476Y-136531666D01*
X133740476Y-136531666D02*
X133835714Y-136484047D01*
X133835714Y-136484047D02*
X133883333Y-136436428D01*
X133883333Y-136436428D02*
X133930952Y-136341190D01*
X133930952Y-136341190D02*
X133930952Y-136103095D01*
X133930952Y-136103095D02*
X133883333Y-136007857D01*
X133883333Y-136007857D02*
X133835714Y-135960238D01*
X133835714Y-135960238D02*
X133740476Y-135912619D01*
X133740476Y-135912619D02*
X133502381Y-135912619D01*
X133502381Y-135912619D02*
X133407143Y-135960238D01*
X133407143Y-135960238D02*
X133359524Y-136007857D01*
X134550000Y-136912619D02*
X134645238Y-136912619D01*
X134645238Y-136912619D02*
X134740476Y-136865000D01*
X134740476Y-136865000D02*
X134788095Y-136817380D01*
X134788095Y-136817380D02*
X134835714Y-136722142D01*
X134835714Y-136722142D02*
X134883333Y-136531666D01*
X134883333Y-136531666D02*
X134883333Y-136293571D01*
X134883333Y-136293571D02*
X134835714Y-136103095D01*
X134835714Y-136103095D02*
X134788095Y-136007857D01*
X134788095Y-136007857D02*
X134740476Y-135960238D01*
X134740476Y-135960238D02*
X134645238Y-135912619D01*
X134645238Y-135912619D02*
X134550000Y-135912619D01*
X134550000Y-135912619D02*
X134454762Y-135960238D01*
X134454762Y-135960238D02*
X134407143Y-136007857D01*
X134407143Y-136007857D02*
X134359524Y-136103095D01*
X134359524Y-136103095D02*
X134311905Y-136293571D01*
X134311905Y-136293571D02*
X134311905Y-136531666D01*
X134311905Y-136531666D02*
X134359524Y-136722142D01*
X134359524Y-136722142D02*
X134407143Y-136817380D01*
X134407143Y-136817380D02*
X134454762Y-136865000D01*
X134454762Y-136865000D02*
X134550000Y-136912619D01*
X135502381Y-136912619D02*
X135597619Y-136912619D01*
X135597619Y-136912619D02*
X135692857Y-136865000D01*
X135692857Y-136865000D02*
X135740476Y-136817380D01*
X135740476Y-136817380D02*
X135788095Y-136722142D01*
X135788095Y-136722142D02*
X135835714Y-136531666D01*
X135835714Y-136531666D02*
X135835714Y-136293571D01*
X135835714Y-136293571D02*
X135788095Y-136103095D01*
X135788095Y-136103095D02*
X135740476Y-136007857D01*
X135740476Y-136007857D02*
X135692857Y-135960238D01*
X135692857Y-135960238D02*
X135597619Y-135912619D01*
X135597619Y-135912619D02*
X135502381Y-135912619D01*
X135502381Y-135912619D02*
X135407143Y-135960238D01*
X135407143Y-135960238D02*
X135359524Y-136007857D01*
X135359524Y-136007857D02*
X135311905Y-136103095D01*
X135311905Y-136103095D02*
X135264286Y-136293571D01*
X135264286Y-136293571D02*
X135264286Y-136531666D01*
X135264286Y-136531666D02*
X135311905Y-136722142D01*
X135311905Y-136722142D02*
X135359524Y-136817380D01*
X135359524Y-136817380D02*
X135407143Y-136865000D01*
X135407143Y-136865000D02*
X135502381Y-136912619D01*
X136026191Y-135817380D02*
X136788095Y-135817380D01*
X137026191Y-135912619D02*
X137026191Y-136912619D01*
X137026191Y-136436428D02*
X137597619Y-136436428D01*
X137597619Y-135912619D02*
X137597619Y-136912619D01*
X128664285Y-135292619D02*
X128188095Y-135292619D01*
X128188095Y-135292619D02*
X128140476Y-134816428D01*
X128140476Y-134816428D02*
X128188095Y-134864047D01*
X128188095Y-134864047D02*
X128283333Y-134911666D01*
X128283333Y-134911666D02*
X128521428Y-134911666D01*
X128521428Y-134911666D02*
X128616666Y-134864047D01*
X128616666Y-134864047D02*
X128664285Y-134816428D01*
X128664285Y-134816428D02*
X128711904Y-134721190D01*
X128711904Y-134721190D02*
X128711904Y-134483095D01*
X128711904Y-134483095D02*
X128664285Y-134387857D01*
X128664285Y-134387857D02*
X128616666Y-134340238D01*
X128616666Y-134340238D02*
X128521428Y-134292619D01*
X128521428Y-134292619D02*
X128283333Y-134292619D01*
X128283333Y-134292619D02*
X128188095Y-134340238D01*
X128188095Y-134340238D02*
X128140476Y-134387857D01*
X130311904Y-134387857D02*
X130264285Y-134340238D01*
X130264285Y-134340238D02*
X130121428Y-134292619D01*
X130121428Y-134292619D02*
X130026190Y-134292619D01*
X130026190Y-134292619D02*
X129883333Y-134340238D01*
X129883333Y-134340238D02*
X129788095Y-134435476D01*
X129788095Y-134435476D02*
X129740476Y-134530714D01*
X129740476Y-134530714D02*
X129692857Y-134721190D01*
X129692857Y-134721190D02*
X129692857Y-134864047D01*
X129692857Y-134864047D02*
X129740476Y-135054523D01*
X129740476Y-135054523D02*
X129788095Y-135149761D01*
X129788095Y-135149761D02*
X129883333Y-135245000D01*
X129883333Y-135245000D02*
X130026190Y-135292619D01*
X130026190Y-135292619D02*
X130121428Y-135292619D01*
X130121428Y-135292619D02*
X130264285Y-135245000D01*
X130264285Y-135245000D02*
X130311904Y-135197380D01*
X130692857Y-134578333D02*
X131169047Y-134578333D01*
X130597619Y-134292619D02*
X130930952Y-135292619D01*
X130930952Y-135292619D02*
X131264285Y-134292619D01*
X131597619Y-134292619D02*
X131597619Y-135292619D01*
X131597619Y-135292619D02*
X132169047Y-134292619D01*
X132169047Y-134292619D02*
X132169047Y-135292619D01*
X132407143Y-134197380D02*
X133169047Y-134197380D01*
X133883333Y-135292619D02*
X133407143Y-135292619D01*
X133407143Y-135292619D02*
X133359524Y-134816428D01*
X133359524Y-134816428D02*
X133407143Y-134864047D01*
X133407143Y-134864047D02*
X133502381Y-134911666D01*
X133502381Y-134911666D02*
X133740476Y-134911666D01*
X133740476Y-134911666D02*
X133835714Y-134864047D01*
X133835714Y-134864047D02*
X133883333Y-134816428D01*
X133883333Y-134816428D02*
X133930952Y-134721190D01*
X133930952Y-134721190D02*
X133930952Y-134483095D01*
X133930952Y-134483095D02*
X133883333Y-134387857D01*
X133883333Y-134387857D02*
X133835714Y-134340238D01*
X133835714Y-134340238D02*
X133740476Y-134292619D01*
X133740476Y-134292619D02*
X133502381Y-134292619D01*
X133502381Y-134292619D02*
X133407143Y-134340238D01*
X133407143Y-134340238D02*
X133359524Y-134387857D01*
X134550000Y-135292619D02*
X134645238Y-135292619D01*
X134645238Y-135292619D02*
X134740476Y-135245000D01*
X134740476Y-135245000D02*
X134788095Y-135197380D01*
X134788095Y-135197380D02*
X134835714Y-135102142D01*
X134835714Y-135102142D02*
X134883333Y-134911666D01*
X134883333Y-134911666D02*
X134883333Y-134673571D01*
X134883333Y-134673571D02*
X134835714Y-134483095D01*
X134835714Y-134483095D02*
X134788095Y-134387857D01*
X134788095Y-134387857D02*
X134740476Y-134340238D01*
X134740476Y-134340238D02*
X134645238Y-134292619D01*
X134645238Y-134292619D02*
X134550000Y-134292619D01*
X134550000Y-134292619D02*
X134454762Y-134340238D01*
X134454762Y-134340238D02*
X134407143Y-134387857D01*
X134407143Y-134387857D02*
X134359524Y-134483095D01*
X134359524Y-134483095D02*
X134311905Y-134673571D01*
X134311905Y-134673571D02*
X134311905Y-134911666D01*
X134311905Y-134911666D02*
X134359524Y-135102142D01*
X134359524Y-135102142D02*
X134407143Y-135197380D01*
X134407143Y-135197380D02*
X134454762Y-135245000D01*
X134454762Y-135245000D02*
X134550000Y-135292619D01*
X135502381Y-135292619D02*
X135597619Y-135292619D01*
X135597619Y-135292619D02*
X135692857Y-135245000D01*
X135692857Y-135245000D02*
X135740476Y-135197380D01*
X135740476Y-135197380D02*
X135788095Y-135102142D01*
X135788095Y-135102142D02*
X135835714Y-134911666D01*
X135835714Y-134911666D02*
X135835714Y-134673571D01*
X135835714Y-134673571D02*
X135788095Y-134483095D01*
X135788095Y-134483095D02*
X135740476Y-134387857D01*
X135740476Y-134387857D02*
X135692857Y-134340238D01*
X135692857Y-134340238D02*
X135597619Y-134292619D01*
X135597619Y-134292619D02*
X135502381Y-134292619D01*
X135502381Y-134292619D02*
X135407143Y-134340238D01*
X135407143Y-134340238D02*
X135359524Y-134387857D01*
X135359524Y-134387857D02*
X135311905Y-134483095D01*
X135311905Y-134483095D02*
X135264286Y-134673571D01*
X135264286Y-134673571D02*
X135264286Y-134911666D01*
X135264286Y-134911666D02*
X135311905Y-135102142D01*
X135311905Y-135102142D02*
X135359524Y-135197380D01*
X135359524Y-135197380D02*
X135407143Y-135245000D01*
X135407143Y-135245000D02*
X135502381Y-135292619D01*
X136026191Y-134197380D02*
X136788095Y-134197380D01*
X137502381Y-134292619D02*
X137026191Y-134292619D01*
X137026191Y-134292619D02*
X137026191Y-135292619D01*
X128616666Y-133672619D02*
X128426190Y-133672619D01*
X128426190Y-133672619D02*
X128330952Y-133625000D01*
X128330952Y-133625000D02*
X128283333Y-133577380D01*
X128283333Y-133577380D02*
X128188095Y-133434523D01*
X128188095Y-133434523D02*
X128140476Y-133244047D01*
X128140476Y-133244047D02*
X128140476Y-132863095D01*
X128140476Y-132863095D02*
X128188095Y-132767857D01*
X128188095Y-132767857D02*
X128235714Y-132720238D01*
X128235714Y-132720238D02*
X128330952Y-132672619D01*
X128330952Y-132672619D02*
X128521428Y-132672619D01*
X128521428Y-132672619D02*
X128616666Y-132720238D01*
X128616666Y-132720238D02*
X128664285Y-132767857D01*
X128664285Y-132767857D02*
X128711904Y-132863095D01*
X128711904Y-132863095D02*
X128711904Y-133101190D01*
X128711904Y-133101190D02*
X128664285Y-133196428D01*
X128664285Y-133196428D02*
X128616666Y-133244047D01*
X128616666Y-133244047D02*
X128521428Y-133291666D01*
X128521428Y-133291666D02*
X128330952Y-133291666D01*
X128330952Y-133291666D02*
X128235714Y-133244047D01*
X128235714Y-133244047D02*
X128188095Y-133196428D01*
X128188095Y-133196428D02*
X128140476Y-133101190D01*
X129740476Y-132672619D02*
X129740476Y-133672619D01*
X130740475Y-133625000D02*
X130645237Y-133672619D01*
X130645237Y-133672619D02*
X130502380Y-133672619D01*
X130502380Y-133672619D02*
X130359523Y-133625000D01*
X130359523Y-133625000D02*
X130264285Y-133529761D01*
X130264285Y-133529761D02*
X130216666Y-133434523D01*
X130216666Y-133434523D02*
X130169047Y-133244047D01*
X130169047Y-133244047D02*
X130169047Y-133101190D01*
X130169047Y-133101190D02*
X130216666Y-132910714D01*
X130216666Y-132910714D02*
X130264285Y-132815476D01*
X130264285Y-132815476D02*
X130359523Y-132720238D01*
X130359523Y-132720238D02*
X130502380Y-132672619D01*
X130502380Y-132672619D02*
X130597618Y-132672619D01*
X130597618Y-132672619D02*
X130740475Y-132720238D01*
X130740475Y-132720238D02*
X130788094Y-132767857D01*
X130788094Y-132767857D02*
X130788094Y-133101190D01*
X130788094Y-133101190D02*
X130597618Y-133101190D01*
X131216666Y-132672619D02*
X131216666Y-133672619D01*
X131216666Y-133672619D02*
X131788094Y-132672619D01*
X131788094Y-132672619D02*
X131788094Y-133672619D01*
X132026190Y-132577380D02*
X132788094Y-132577380D01*
X133026190Y-132672619D02*
X133026190Y-133672619D01*
X133502380Y-132672619D02*
X133502380Y-133672619D01*
X133502380Y-133672619D02*
X134073808Y-132672619D01*
X134073808Y-132672619D02*
X134073808Y-133672619D01*
X134311904Y-132577380D02*
X135073808Y-132577380D01*
X135835713Y-132672619D02*
X135264285Y-132672619D01*
X135549999Y-132672619D02*
X135549999Y-133672619D01*
X135549999Y-133672619D02*
X135454761Y-133529761D01*
X135454761Y-133529761D02*
X135359523Y-133434523D01*
X135359523Y-133434523D02*
X135264285Y-133386904D01*
X136216666Y-133577380D02*
X136264285Y-133625000D01*
X136264285Y-133625000D02*
X136359523Y-133672619D01*
X136359523Y-133672619D02*
X136597618Y-133672619D01*
X136597618Y-133672619D02*
X136692856Y-133625000D01*
X136692856Y-133625000D02*
X136740475Y-133577380D01*
X136740475Y-133577380D02*
X136788094Y-133482142D01*
X136788094Y-133482142D02*
X136788094Y-133386904D01*
X136788094Y-133386904D02*
X136740475Y-133244047D01*
X136740475Y-133244047D02*
X136169047Y-132672619D01*
X136169047Y-132672619D02*
X136788094Y-132672619D01*
X137073809Y-133672619D02*
X137407142Y-132672619D01*
X137407142Y-132672619D02*
X137740475Y-133672619D01*
X128092857Y-132052619D02*
X128759523Y-132052619D01*
X128759523Y-132052619D02*
X128330952Y-131052619D01*
X130073809Y-131576428D02*
X130216666Y-131528809D01*
X130216666Y-131528809D02*
X130264285Y-131481190D01*
X130264285Y-131481190D02*
X130311904Y-131385952D01*
X130311904Y-131385952D02*
X130311904Y-131243095D01*
X130311904Y-131243095D02*
X130264285Y-131147857D01*
X130264285Y-131147857D02*
X130216666Y-131100238D01*
X130216666Y-131100238D02*
X130121428Y-131052619D01*
X130121428Y-131052619D02*
X129740476Y-131052619D01*
X129740476Y-131052619D02*
X129740476Y-132052619D01*
X129740476Y-132052619D02*
X130073809Y-132052619D01*
X130073809Y-132052619D02*
X130169047Y-132005000D01*
X130169047Y-132005000D02*
X130216666Y-131957380D01*
X130216666Y-131957380D02*
X130264285Y-131862142D01*
X130264285Y-131862142D02*
X130264285Y-131766904D01*
X130264285Y-131766904D02*
X130216666Y-131671666D01*
X130216666Y-131671666D02*
X130169047Y-131624047D01*
X130169047Y-131624047D02*
X130073809Y-131576428D01*
X130073809Y-131576428D02*
X129740476Y-131576428D01*
X130692857Y-131338333D02*
X131169047Y-131338333D01*
X130597619Y-131052619D02*
X130930952Y-132052619D01*
X130930952Y-132052619D02*
X131264285Y-131052619D01*
X131454762Y-132052619D02*
X132026190Y-132052619D01*
X131740476Y-131052619D02*
X131740476Y-132052619D01*
X132121429Y-130957380D02*
X132883333Y-130957380D01*
X133073810Y-131100238D02*
X133216667Y-131052619D01*
X133216667Y-131052619D02*
X133454762Y-131052619D01*
X133454762Y-131052619D02*
X133550000Y-131100238D01*
X133550000Y-131100238D02*
X133597619Y-131147857D01*
X133597619Y-131147857D02*
X133645238Y-131243095D01*
X133645238Y-131243095D02*
X133645238Y-131338333D01*
X133645238Y-131338333D02*
X133597619Y-131433571D01*
X133597619Y-131433571D02*
X133550000Y-131481190D01*
X133550000Y-131481190D02*
X133454762Y-131528809D01*
X133454762Y-131528809D02*
X133264286Y-131576428D01*
X133264286Y-131576428D02*
X133169048Y-131624047D01*
X133169048Y-131624047D02*
X133121429Y-131671666D01*
X133121429Y-131671666D02*
X133073810Y-131766904D01*
X133073810Y-131766904D02*
X133073810Y-131862142D01*
X133073810Y-131862142D02*
X133121429Y-131957380D01*
X133121429Y-131957380D02*
X133169048Y-132005000D01*
X133169048Y-132005000D02*
X133264286Y-132052619D01*
X133264286Y-132052619D02*
X133502381Y-132052619D01*
X133502381Y-132052619D02*
X133645238Y-132005000D01*
X134073810Y-131576428D02*
X134407143Y-131576428D01*
X134550000Y-131052619D02*
X134073810Y-131052619D01*
X134073810Y-131052619D02*
X134073810Y-132052619D01*
X134073810Y-132052619D02*
X134550000Y-132052619D01*
X134978572Y-131052619D02*
X134978572Y-132052619D01*
X134978572Y-132052619D02*
X135550000Y-131052619D01*
X135550000Y-131052619D02*
X135550000Y-132052619D01*
X135978572Y-131100238D02*
X136121429Y-131052619D01*
X136121429Y-131052619D02*
X136359524Y-131052619D01*
X136359524Y-131052619D02*
X136454762Y-131100238D01*
X136454762Y-131100238D02*
X136502381Y-131147857D01*
X136502381Y-131147857D02*
X136550000Y-131243095D01*
X136550000Y-131243095D02*
X136550000Y-131338333D01*
X136550000Y-131338333D02*
X136502381Y-131433571D01*
X136502381Y-131433571D02*
X136454762Y-131481190D01*
X136454762Y-131481190D02*
X136359524Y-131528809D01*
X136359524Y-131528809D02*
X136169048Y-131576428D01*
X136169048Y-131576428D02*
X136073810Y-131624047D01*
X136073810Y-131624047D02*
X136026191Y-131671666D01*
X136026191Y-131671666D02*
X135978572Y-131766904D01*
X135978572Y-131766904D02*
X135978572Y-131862142D01*
X135978572Y-131862142D02*
X136026191Y-131957380D01*
X136026191Y-131957380D02*
X136073810Y-132005000D01*
X136073810Y-132005000D02*
X136169048Y-132052619D01*
X136169048Y-132052619D02*
X136407143Y-132052619D01*
X136407143Y-132052619D02*
X136550000Y-132005000D01*
X136740477Y-130957380D02*
X137502381Y-130957380D01*
X137645239Y-132052619D02*
X138264286Y-132052619D01*
X138264286Y-132052619D02*
X137930953Y-131671666D01*
X137930953Y-131671666D02*
X138073810Y-131671666D01*
X138073810Y-131671666D02*
X138169048Y-131624047D01*
X138169048Y-131624047D02*
X138216667Y-131576428D01*
X138216667Y-131576428D02*
X138264286Y-131481190D01*
X138264286Y-131481190D02*
X138264286Y-131243095D01*
X138264286Y-131243095D02*
X138216667Y-131147857D01*
X138216667Y-131147857D02*
X138169048Y-131100238D01*
X138169048Y-131100238D02*
X138073810Y-131052619D01*
X138073810Y-131052619D02*
X137788096Y-131052619D01*
X137788096Y-131052619D02*
X137692858Y-131100238D01*
X137692858Y-131100238D02*
X137645239Y-131147857D01*
X138550001Y-132052619D02*
X138883334Y-131052619D01*
X138883334Y-131052619D02*
X139216667Y-132052619D01*
X139454763Y-132052619D02*
X140073810Y-132052619D01*
X140073810Y-132052619D02*
X139740477Y-131671666D01*
X139740477Y-131671666D02*
X139883334Y-131671666D01*
X139883334Y-131671666D02*
X139978572Y-131624047D01*
X139978572Y-131624047D02*
X140026191Y-131576428D01*
X140026191Y-131576428D02*
X140073810Y-131481190D01*
X140073810Y-131481190D02*
X140073810Y-131243095D01*
X140073810Y-131243095D02*
X140026191Y-131147857D01*
X140026191Y-131147857D02*
X139978572Y-131100238D01*
X139978572Y-131100238D02*
X139883334Y-131052619D01*
X139883334Y-131052619D02*
X139597620Y-131052619D01*
X139597620Y-131052619D02*
X139502382Y-131100238D01*
X139502382Y-131100238D02*
X139454763Y-131147857D01*
X128330952Y-130004047D02*
X128235714Y-130051666D01*
X128235714Y-130051666D02*
X128188095Y-130099285D01*
X128188095Y-130099285D02*
X128140476Y-130194523D01*
X128140476Y-130194523D02*
X128140476Y-130242142D01*
X128140476Y-130242142D02*
X128188095Y-130337380D01*
X128188095Y-130337380D02*
X128235714Y-130385000D01*
X128235714Y-130385000D02*
X128330952Y-130432619D01*
X128330952Y-130432619D02*
X128521428Y-130432619D01*
X128521428Y-130432619D02*
X128616666Y-130385000D01*
X128616666Y-130385000D02*
X128664285Y-130337380D01*
X128664285Y-130337380D02*
X128711904Y-130242142D01*
X128711904Y-130242142D02*
X128711904Y-130194523D01*
X128711904Y-130194523D02*
X128664285Y-130099285D01*
X128664285Y-130099285D02*
X128616666Y-130051666D01*
X128616666Y-130051666D02*
X128521428Y-130004047D01*
X128521428Y-130004047D02*
X128330952Y-130004047D01*
X128330952Y-130004047D02*
X128235714Y-129956428D01*
X128235714Y-129956428D02*
X128188095Y-129908809D01*
X128188095Y-129908809D02*
X128140476Y-129813571D01*
X128140476Y-129813571D02*
X128140476Y-129623095D01*
X128140476Y-129623095D02*
X128188095Y-129527857D01*
X128188095Y-129527857D02*
X128235714Y-129480238D01*
X128235714Y-129480238D02*
X128330952Y-129432619D01*
X128330952Y-129432619D02*
X128521428Y-129432619D01*
X128521428Y-129432619D02*
X128616666Y-129480238D01*
X128616666Y-129480238D02*
X128664285Y-129527857D01*
X128664285Y-129527857D02*
X128711904Y-129623095D01*
X128711904Y-129623095D02*
X128711904Y-129813571D01*
X128711904Y-129813571D02*
X128664285Y-129908809D01*
X128664285Y-129908809D02*
X128616666Y-129956428D01*
X128616666Y-129956428D02*
X128521428Y-130004047D01*
X129740476Y-129432619D02*
X129740476Y-130432619D01*
X130216666Y-129432619D02*
X130216666Y-130432619D01*
X130216666Y-130432619D02*
X130549999Y-129718333D01*
X130549999Y-129718333D02*
X130883332Y-130432619D01*
X130883332Y-130432619D02*
X130883332Y-129432619D01*
X131121428Y-129337380D02*
X131883332Y-129337380D01*
X132311904Y-130432619D02*
X132502380Y-130432619D01*
X132502380Y-130432619D02*
X132597618Y-130385000D01*
X132597618Y-130385000D02*
X132692856Y-130289761D01*
X132692856Y-130289761D02*
X132740475Y-130099285D01*
X132740475Y-130099285D02*
X132740475Y-129765952D01*
X132740475Y-129765952D02*
X132692856Y-129575476D01*
X132692856Y-129575476D02*
X132597618Y-129480238D01*
X132597618Y-129480238D02*
X132502380Y-129432619D01*
X132502380Y-129432619D02*
X132311904Y-129432619D01*
X132311904Y-129432619D02*
X132216666Y-129480238D01*
X132216666Y-129480238D02*
X132121428Y-129575476D01*
X132121428Y-129575476D02*
X132073809Y-129765952D01*
X132073809Y-129765952D02*
X132073809Y-130099285D01*
X132073809Y-130099285D02*
X132121428Y-130289761D01*
X132121428Y-130289761D02*
X132216666Y-130385000D01*
X132216666Y-130385000D02*
X132311904Y-130432619D01*
X133169047Y-130432619D02*
X133169047Y-129623095D01*
X133169047Y-129623095D02*
X133216666Y-129527857D01*
X133216666Y-129527857D02*
X133264285Y-129480238D01*
X133264285Y-129480238D02*
X133359523Y-129432619D01*
X133359523Y-129432619D02*
X133549999Y-129432619D01*
X133549999Y-129432619D02*
X133645237Y-129480238D01*
X133645237Y-129480238D02*
X133692856Y-129527857D01*
X133692856Y-129527857D02*
X133740475Y-129623095D01*
X133740475Y-129623095D02*
X133740475Y-130432619D01*
X134073809Y-130432619D02*
X134645237Y-130432619D01*
X134359523Y-129432619D02*
X134359523Y-130432619D01*
X134740476Y-129337380D02*
X135502380Y-129337380D01*
X135645238Y-130432619D02*
X136264285Y-130432619D01*
X136264285Y-130432619D02*
X135930952Y-130051666D01*
X135930952Y-130051666D02*
X136073809Y-130051666D01*
X136073809Y-130051666D02*
X136169047Y-130004047D01*
X136169047Y-130004047D02*
X136216666Y-129956428D01*
X136216666Y-129956428D02*
X136264285Y-129861190D01*
X136264285Y-129861190D02*
X136264285Y-129623095D01*
X136264285Y-129623095D02*
X136216666Y-129527857D01*
X136216666Y-129527857D02*
X136169047Y-129480238D01*
X136169047Y-129480238D02*
X136073809Y-129432619D01*
X136073809Y-129432619D02*
X135788095Y-129432619D01*
X135788095Y-129432619D02*
X135692857Y-129480238D01*
X135692857Y-129480238D02*
X135645238Y-129527857D01*
X136550000Y-130432619D02*
X136883333Y-129432619D01*
X136883333Y-129432619D02*
X137216666Y-130432619D01*
X137454762Y-130432619D02*
X138073809Y-130432619D01*
X138073809Y-130432619D02*
X137740476Y-130051666D01*
X137740476Y-130051666D02*
X137883333Y-130051666D01*
X137883333Y-130051666D02*
X137978571Y-130004047D01*
X137978571Y-130004047D02*
X138026190Y-129956428D01*
X138026190Y-129956428D02*
X138073809Y-129861190D01*
X138073809Y-129861190D02*
X138073809Y-129623095D01*
X138073809Y-129623095D02*
X138026190Y-129527857D01*
X138026190Y-129527857D02*
X137978571Y-129480238D01*
X137978571Y-129480238D02*
X137883333Y-129432619D01*
X137883333Y-129432619D02*
X137597619Y-129432619D01*
X137597619Y-129432619D02*
X137502381Y-129480238D01*
X137502381Y-129480238D02*
X137454762Y-129527857D01*
X128235714Y-127812619D02*
X128426190Y-127812619D01*
X128426190Y-127812619D02*
X128521428Y-127860238D01*
X128521428Y-127860238D02*
X128569047Y-127907857D01*
X128569047Y-127907857D02*
X128664285Y-128050714D01*
X128664285Y-128050714D02*
X128711904Y-128241190D01*
X128711904Y-128241190D02*
X128711904Y-128622142D01*
X128711904Y-128622142D02*
X128664285Y-128717380D01*
X128664285Y-128717380D02*
X128616666Y-128765000D01*
X128616666Y-128765000D02*
X128521428Y-128812619D01*
X128521428Y-128812619D02*
X128330952Y-128812619D01*
X128330952Y-128812619D02*
X128235714Y-128765000D01*
X128235714Y-128765000D02*
X128188095Y-128717380D01*
X128188095Y-128717380D02*
X128140476Y-128622142D01*
X128140476Y-128622142D02*
X128140476Y-128384047D01*
X128140476Y-128384047D02*
X128188095Y-128288809D01*
X128188095Y-128288809D02*
X128235714Y-128241190D01*
X128235714Y-128241190D02*
X128330952Y-128193571D01*
X128330952Y-128193571D02*
X128521428Y-128193571D01*
X128521428Y-128193571D02*
X128616666Y-128241190D01*
X128616666Y-128241190D02*
X128664285Y-128288809D01*
X128664285Y-128288809D02*
X128711904Y-128384047D01*
X130264285Y-128765000D02*
X130169047Y-128812619D01*
X130169047Y-128812619D02*
X130026190Y-128812619D01*
X130026190Y-128812619D02*
X129883333Y-128765000D01*
X129883333Y-128765000D02*
X129788095Y-128669761D01*
X129788095Y-128669761D02*
X129740476Y-128574523D01*
X129740476Y-128574523D02*
X129692857Y-128384047D01*
X129692857Y-128384047D02*
X129692857Y-128241190D01*
X129692857Y-128241190D02*
X129740476Y-128050714D01*
X129740476Y-128050714D02*
X129788095Y-127955476D01*
X129788095Y-127955476D02*
X129883333Y-127860238D01*
X129883333Y-127860238D02*
X130026190Y-127812619D01*
X130026190Y-127812619D02*
X130121428Y-127812619D01*
X130121428Y-127812619D02*
X130264285Y-127860238D01*
X130264285Y-127860238D02*
X130311904Y-127907857D01*
X130311904Y-127907857D02*
X130311904Y-128241190D01*
X130311904Y-128241190D02*
X130121428Y-128241190D01*
X130740476Y-127812619D02*
X130740476Y-128812619D01*
X130740476Y-128812619D02*
X131121428Y-128812619D01*
X131121428Y-128812619D02*
X131216666Y-128765000D01*
X131216666Y-128765000D02*
X131264285Y-128717380D01*
X131264285Y-128717380D02*
X131311904Y-128622142D01*
X131311904Y-128622142D02*
X131311904Y-128479285D01*
X131311904Y-128479285D02*
X131264285Y-128384047D01*
X131264285Y-128384047D02*
X131216666Y-128336428D01*
X131216666Y-128336428D02*
X131121428Y-128288809D01*
X131121428Y-128288809D02*
X130740476Y-128288809D01*
X131740476Y-127812619D02*
X131740476Y-128812619D01*
X132407142Y-128812619D02*
X132597618Y-128812619D01*
X132597618Y-128812619D02*
X132692856Y-128765000D01*
X132692856Y-128765000D02*
X132788094Y-128669761D01*
X132788094Y-128669761D02*
X132835713Y-128479285D01*
X132835713Y-128479285D02*
X132835713Y-128145952D01*
X132835713Y-128145952D02*
X132788094Y-127955476D01*
X132788094Y-127955476D02*
X132692856Y-127860238D01*
X132692856Y-127860238D02*
X132597618Y-127812619D01*
X132597618Y-127812619D02*
X132407142Y-127812619D01*
X132407142Y-127812619D02*
X132311904Y-127860238D01*
X132311904Y-127860238D02*
X132216666Y-127955476D01*
X132216666Y-127955476D02*
X132169047Y-128145952D01*
X132169047Y-128145952D02*
X132169047Y-128479285D01*
X132169047Y-128479285D02*
X132216666Y-128669761D01*
X132216666Y-128669761D02*
X132311904Y-128765000D01*
X132311904Y-128765000D02*
X132407142Y-128812619D01*
X133026190Y-127717380D02*
X133788094Y-127717380D01*
X133930952Y-128812619D02*
X134549999Y-128812619D01*
X134549999Y-128812619D02*
X134216666Y-128431666D01*
X134216666Y-128431666D02*
X134359523Y-128431666D01*
X134359523Y-128431666D02*
X134454761Y-128384047D01*
X134454761Y-128384047D02*
X134502380Y-128336428D01*
X134502380Y-128336428D02*
X134549999Y-128241190D01*
X134549999Y-128241190D02*
X134549999Y-128003095D01*
X134549999Y-128003095D02*
X134502380Y-127907857D01*
X134502380Y-127907857D02*
X134454761Y-127860238D01*
X134454761Y-127860238D02*
X134359523Y-127812619D01*
X134359523Y-127812619D02*
X134073809Y-127812619D01*
X134073809Y-127812619D02*
X133978571Y-127860238D01*
X133978571Y-127860238D02*
X133930952Y-127907857D01*
D11*
X113614285Y-124461142D02*
X112928571Y-124461142D01*
X113271428Y-124461142D02*
X113271428Y-125661142D01*
X113271428Y-125661142D02*
X113157142Y-125489714D01*
X113157142Y-125489714D02*
X113042857Y-125375428D01*
X113042857Y-125375428D02*
X112928571Y-125318285D01*
X104364285Y-104261142D02*
X103678571Y-104261142D01*
X104021428Y-104261142D02*
X104021428Y-105461142D01*
X104021428Y-105461142D02*
X103907142Y-105289714D01*
X103907142Y-105289714D02*
X103792857Y-105175428D01*
X103792857Y-105175428D02*
X103678571Y-105118285D01*
X105049999Y-104946857D02*
X104935714Y-105004000D01*
X104935714Y-105004000D02*
X104878571Y-105061142D01*
X104878571Y-105061142D02*
X104821428Y-105175428D01*
X104821428Y-105175428D02*
X104821428Y-105232571D01*
X104821428Y-105232571D02*
X104878571Y-105346857D01*
X104878571Y-105346857D02*
X104935714Y-105404000D01*
X104935714Y-105404000D02*
X105049999Y-105461142D01*
X105049999Y-105461142D02*
X105278571Y-105461142D01*
X105278571Y-105461142D02*
X105392857Y-105404000D01*
X105392857Y-105404000D02*
X105449999Y-105346857D01*
X105449999Y-105346857D02*
X105507142Y-105232571D01*
X105507142Y-105232571D02*
X105507142Y-105175428D01*
X105507142Y-105175428D02*
X105449999Y-105061142D01*
X105449999Y-105061142D02*
X105392857Y-105004000D01*
X105392857Y-105004000D02*
X105278571Y-104946857D01*
X105278571Y-104946857D02*
X105049999Y-104946857D01*
X105049999Y-104946857D02*
X104935714Y-104889714D01*
X104935714Y-104889714D02*
X104878571Y-104832571D01*
X104878571Y-104832571D02*
X104821428Y-104718285D01*
X104821428Y-104718285D02*
X104821428Y-104489714D01*
X104821428Y-104489714D02*
X104878571Y-104375428D01*
X104878571Y-104375428D02*
X104935714Y-104318285D01*
X104935714Y-104318285D02*
X105049999Y-104261142D01*
X105049999Y-104261142D02*
X105278571Y-104261142D01*
X105278571Y-104261142D02*
X105392857Y-104318285D01*
X105392857Y-104318285D02*
X105449999Y-104375428D01*
X105449999Y-104375428D02*
X105507142Y-104489714D01*
X105507142Y-104489714D02*
X105507142Y-104718285D01*
X105507142Y-104718285D02*
X105449999Y-104832571D01*
X105449999Y-104832571D02*
X105392857Y-104889714D01*
X105392857Y-104889714D02*
X105278571Y-104946857D01*
D12*
%TO.C,D26*%
X114914285Y-118267380D02*
X114914285Y-117267380D01*
X114914285Y-117267380D02*
X114676190Y-117267380D01*
X114676190Y-117267380D02*
X114533333Y-117315000D01*
X114533333Y-117315000D02*
X114438095Y-117410238D01*
X114438095Y-117410238D02*
X114390476Y-117505476D01*
X114390476Y-117505476D02*
X114342857Y-117695952D01*
X114342857Y-117695952D02*
X114342857Y-117838809D01*
X114342857Y-117838809D02*
X114390476Y-118029285D01*
X114390476Y-118029285D02*
X114438095Y-118124523D01*
X114438095Y-118124523D02*
X114533333Y-118219761D01*
X114533333Y-118219761D02*
X114676190Y-118267380D01*
X114676190Y-118267380D02*
X114914285Y-118267380D01*
X113961904Y-117362619D02*
X113914285Y-117315000D01*
X113914285Y-117315000D02*
X113819047Y-117267380D01*
X113819047Y-117267380D02*
X113580952Y-117267380D01*
X113580952Y-117267380D02*
X113485714Y-117315000D01*
X113485714Y-117315000D02*
X113438095Y-117362619D01*
X113438095Y-117362619D02*
X113390476Y-117457857D01*
X113390476Y-117457857D02*
X113390476Y-117553095D01*
X113390476Y-117553095D02*
X113438095Y-117695952D01*
X113438095Y-117695952D02*
X114009523Y-118267380D01*
X114009523Y-118267380D02*
X113390476Y-118267380D01*
X112533333Y-117267380D02*
X112723809Y-117267380D01*
X112723809Y-117267380D02*
X112819047Y-117315000D01*
X112819047Y-117315000D02*
X112866666Y-117362619D01*
X112866666Y-117362619D02*
X112961904Y-117505476D01*
X112961904Y-117505476D02*
X113009523Y-117695952D01*
X113009523Y-117695952D02*
X113009523Y-118076904D01*
X113009523Y-118076904D02*
X112961904Y-118172142D01*
X112961904Y-118172142D02*
X112914285Y-118219761D01*
X112914285Y-118219761D02*
X112819047Y-118267380D01*
X112819047Y-118267380D02*
X112628571Y-118267380D01*
X112628571Y-118267380D02*
X112533333Y-118219761D01*
X112533333Y-118219761D02*
X112485714Y-118172142D01*
X112485714Y-118172142D02*
X112438095Y-118076904D01*
X112438095Y-118076904D02*
X112438095Y-117838809D01*
X112438095Y-117838809D02*
X112485714Y-117743571D01*
X112485714Y-117743571D02*
X112533333Y-117695952D01*
X112533333Y-117695952D02*
X112628571Y-117648333D01*
X112628571Y-117648333D02*
X112819047Y-117648333D01*
X112819047Y-117648333D02*
X112914285Y-117695952D01*
X112914285Y-117695952D02*
X112961904Y-117743571D01*
X112961904Y-117743571D02*
X113009523Y-117838809D01*
%TO.C,D27*%
X115014285Y-108467380D02*
X115014285Y-107467380D01*
X115014285Y-107467380D02*
X114776190Y-107467380D01*
X114776190Y-107467380D02*
X114633333Y-107515000D01*
X114633333Y-107515000D02*
X114538095Y-107610238D01*
X114538095Y-107610238D02*
X114490476Y-107705476D01*
X114490476Y-107705476D02*
X114442857Y-107895952D01*
X114442857Y-107895952D02*
X114442857Y-108038809D01*
X114442857Y-108038809D02*
X114490476Y-108229285D01*
X114490476Y-108229285D02*
X114538095Y-108324523D01*
X114538095Y-108324523D02*
X114633333Y-108419761D01*
X114633333Y-108419761D02*
X114776190Y-108467380D01*
X114776190Y-108467380D02*
X115014285Y-108467380D01*
X114061904Y-107562619D02*
X114014285Y-107515000D01*
X114014285Y-107515000D02*
X113919047Y-107467380D01*
X113919047Y-107467380D02*
X113680952Y-107467380D01*
X113680952Y-107467380D02*
X113585714Y-107515000D01*
X113585714Y-107515000D02*
X113538095Y-107562619D01*
X113538095Y-107562619D02*
X113490476Y-107657857D01*
X113490476Y-107657857D02*
X113490476Y-107753095D01*
X113490476Y-107753095D02*
X113538095Y-107895952D01*
X113538095Y-107895952D02*
X114109523Y-108467380D01*
X114109523Y-108467380D02*
X113490476Y-108467380D01*
X113157142Y-107467380D02*
X112490476Y-107467380D01*
X112490476Y-107467380D02*
X112919047Y-108467380D01*
%TO.C,U21*%
X149251874Y-115025121D02*
X149889295Y-115025121D01*
X149889295Y-115025121D02*
X149964286Y-115062617D01*
X149964286Y-115062617D02*
X150001781Y-115100112D01*
X150001781Y-115100112D02*
X150039276Y-115175103D01*
X150039276Y-115175103D02*
X150039276Y-115325084D01*
X150039276Y-115325084D02*
X150001781Y-115400075D01*
X150001781Y-115400075D02*
X149964286Y-115437570D01*
X149964286Y-115437570D02*
X149889295Y-115475065D01*
X149889295Y-115475065D02*
X149251874Y-115475065D01*
X149326865Y-115812523D02*
X149289370Y-115850018D01*
X149289370Y-115850018D02*
X149251874Y-115925009D01*
X149251874Y-115925009D02*
X149251874Y-116112486D01*
X149251874Y-116112486D02*
X149289370Y-116187476D01*
X149289370Y-116187476D02*
X149326865Y-116224972D01*
X149326865Y-116224972D02*
X149401856Y-116262467D01*
X149401856Y-116262467D02*
X149476846Y-116262467D01*
X149476846Y-116262467D02*
X149589332Y-116224972D01*
X149589332Y-116224972D02*
X150039276Y-115775028D01*
X150039276Y-115775028D02*
X150039276Y-116262467D01*
X150039276Y-117012374D02*
X150039276Y-116562430D01*
X150039276Y-116787402D02*
X149251874Y-116787402D01*
X149251874Y-116787402D02*
X149364360Y-116712411D01*
X149364360Y-116712411D02*
X149439351Y-116637421D01*
X149439351Y-116637421D02*
X149476846Y-116562430D01*
%TO.C,D29*%
X104864285Y-111267380D02*
X104864285Y-110267380D01*
X104864285Y-110267380D02*
X104626190Y-110267380D01*
X104626190Y-110267380D02*
X104483333Y-110315000D01*
X104483333Y-110315000D02*
X104388095Y-110410238D01*
X104388095Y-110410238D02*
X104340476Y-110505476D01*
X104340476Y-110505476D02*
X104292857Y-110695952D01*
X104292857Y-110695952D02*
X104292857Y-110838809D01*
X104292857Y-110838809D02*
X104340476Y-111029285D01*
X104340476Y-111029285D02*
X104388095Y-111124523D01*
X104388095Y-111124523D02*
X104483333Y-111219761D01*
X104483333Y-111219761D02*
X104626190Y-111267380D01*
X104626190Y-111267380D02*
X104864285Y-111267380D01*
X103911904Y-110362619D02*
X103864285Y-110315000D01*
X103864285Y-110315000D02*
X103769047Y-110267380D01*
X103769047Y-110267380D02*
X103530952Y-110267380D01*
X103530952Y-110267380D02*
X103435714Y-110315000D01*
X103435714Y-110315000D02*
X103388095Y-110362619D01*
X103388095Y-110362619D02*
X103340476Y-110457857D01*
X103340476Y-110457857D02*
X103340476Y-110553095D01*
X103340476Y-110553095D02*
X103388095Y-110695952D01*
X103388095Y-110695952D02*
X103959523Y-111267380D01*
X103959523Y-111267380D02*
X103340476Y-111267380D01*
X102864285Y-111267380D02*
X102673809Y-111267380D01*
X102673809Y-111267380D02*
X102578571Y-111219761D01*
X102578571Y-111219761D02*
X102530952Y-111172142D01*
X102530952Y-111172142D02*
X102435714Y-111029285D01*
X102435714Y-111029285D02*
X102388095Y-110838809D01*
X102388095Y-110838809D02*
X102388095Y-110457857D01*
X102388095Y-110457857D02*
X102435714Y-110362619D01*
X102435714Y-110362619D02*
X102483333Y-110315000D01*
X102483333Y-110315000D02*
X102578571Y-110267380D01*
X102578571Y-110267380D02*
X102769047Y-110267380D01*
X102769047Y-110267380D02*
X102864285Y-110315000D01*
X102864285Y-110315000D02*
X102911904Y-110362619D01*
X102911904Y-110362619D02*
X102959523Y-110457857D01*
X102959523Y-110457857D02*
X102959523Y-110695952D01*
X102959523Y-110695952D02*
X102911904Y-110791190D01*
X102911904Y-110791190D02*
X102864285Y-110838809D01*
X102864285Y-110838809D02*
X102769047Y-110886428D01*
X102769047Y-110886428D02*
X102578571Y-110886428D01*
X102578571Y-110886428D02*
X102483333Y-110838809D01*
X102483333Y-110838809D02*
X102435714Y-110791190D01*
X102435714Y-110791190D02*
X102388095Y-110695952D01*
%TO.C,F3*%
X108148571Y-129191666D02*
X108148571Y-128858333D01*
X108672380Y-128858333D02*
X107672380Y-128858333D01*
X107672380Y-128858333D02*
X107672380Y-129334523D01*
X107672380Y-129620238D02*
X107672380Y-130239285D01*
X107672380Y-130239285D02*
X108053333Y-129905952D01*
X108053333Y-129905952D02*
X108053333Y-130048809D01*
X108053333Y-130048809D02*
X108100952Y-130144047D01*
X108100952Y-130144047D02*
X108148571Y-130191666D01*
X108148571Y-130191666D02*
X108243809Y-130239285D01*
X108243809Y-130239285D02*
X108481904Y-130239285D01*
X108481904Y-130239285D02*
X108577142Y-130191666D01*
X108577142Y-130191666D02*
X108624761Y-130144047D01*
X108624761Y-130144047D02*
X108672380Y-130048809D01*
X108672380Y-130048809D02*
X108672380Y-129763095D01*
X108672380Y-129763095D02*
X108624761Y-129667857D01*
X108624761Y-129667857D02*
X108577142Y-129620238D01*
D13*
%TO.C,S1*%
X145217619Y-137656097D02*
X145036190Y-137716573D01*
X145036190Y-137716573D02*
X144733809Y-137716573D01*
X144733809Y-137716573D02*
X144612857Y-137656097D01*
X144612857Y-137656097D02*
X144552381Y-137595621D01*
X144552381Y-137595621D02*
X144491904Y-137474669D01*
X144491904Y-137474669D02*
X144491904Y-137353716D01*
X144491904Y-137353716D02*
X144552381Y-137232764D01*
X144552381Y-137232764D02*
X144612857Y-137172288D01*
X144612857Y-137172288D02*
X144733809Y-137111811D01*
X144733809Y-137111811D02*
X144975714Y-137051335D01*
X144975714Y-137051335D02*
X145096666Y-136990859D01*
X145096666Y-136990859D02*
X145157143Y-136930383D01*
X145157143Y-136930383D02*
X145217619Y-136809430D01*
X145217619Y-136809430D02*
X145217619Y-136688478D01*
X145217619Y-136688478D02*
X145157143Y-136567526D01*
X145157143Y-136567526D02*
X145096666Y-136507050D01*
X145096666Y-136507050D02*
X144975714Y-136446573D01*
X144975714Y-136446573D02*
X144673333Y-136446573D01*
X144673333Y-136446573D02*
X144491904Y-136507050D01*
X143282380Y-137716573D02*
X144008095Y-137716573D01*
X143645238Y-137716573D02*
X143645238Y-136446573D01*
X143645238Y-136446573D02*
X143766190Y-136628002D01*
X143766190Y-136628002D02*
X143887142Y-136748954D01*
X143887142Y-136748954D02*
X144008095Y-136809430D01*
D12*
%TO.C,D28*%
X115014285Y-113367380D02*
X115014285Y-112367380D01*
X115014285Y-112367380D02*
X114776190Y-112367380D01*
X114776190Y-112367380D02*
X114633333Y-112415000D01*
X114633333Y-112415000D02*
X114538095Y-112510238D01*
X114538095Y-112510238D02*
X114490476Y-112605476D01*
X114490476Y-112605476D02*
X114442857Y-112795952D01*
X114442857Y-112795952D02*
X114442857Y-112938809D01*
X114442857Y-112938809D02*
X114490476Y-113129285D01*
X114490476Y-113129285D02*
X114538095Y-113224523D01*
X114538095Y-113224523D02*
X114633333Y-113319761D01*
X114633333Y-113319761D02*
X114776190Y-113367380D01*
X114776190Y-113367380D02*
X115014285Y-113367380D01*
X114061904Y-112462619D02*
X114014285Y-112415000D01*
X114014285Y-112415000D02*
X113919047Y-112367380D01*
X113919047Y-112367380D02*
X113680952Y-112367380D01*
X113680952Y-112367380D02*
X113585714Y-112415000D01*
X113585714Y-112415000D02*
X113538095Y-112462619D01*
X113538095Y-112462619D02*
X113490476Y-112557857D01*
X113490476Y-112557857D02*
X113490476Y-112653095D01*
X113490476Y-112653095D02*
X113538095Y-112795952D01*
X113538095Y-112795952D02*
X114109523Y-113367380D01*
X114109523Y-113367380D02*
X113490476Y-113367380D01*
X112919047Y-112795952D02*
X113014285Y-112748333D01*
X113014285Y-112748333D02*
X113061904Y-112700714D01*
X113061904Y-112700714D02*
X113109523Y-112605476D01*
X113109523Y-112605476D02*
X113109523Y-112557857D01*
X113109523Y-112557857D02*
X113061904Y-112462619D01*
X113061904Y-112462619D02*
X113014285Y-112415000D01*
X113014285Y-112415000D02*
X112919047Y-112367380D01*
X112919047Y-112367380D02*
X112728571Y-112367380D01*
X112728571Y-112367380D02*
X112633333Y-112415000D01*
X112633333Y-112415000D02*
X112585714Y-112462619D01*
X112585714Y-112462619D02*
X112538095Y-112557857D01*
X112538095Y-112557857D02*
X112538095Y-112605476D01*
X112538095Y-112605476D02*
X112585714Y-112700714D01*
X112585714Y-112700714D02*
X112633333Y-112748333D01*
X112633333Y-112748333D02*
X112728571Y-112795952D01*
X112728571Y-112795952D02*
X112919047Y-112795952D01*
X112919047Y-112795952D02*
X113014285Y-112843571D01*
X113014285Y-112843571D02*
X113061904Y-112891190D01*
X113061904Y-112891190D02*
X113109523Y-112986428D01*
X113109523Y-112986428D02*
X113109523Y-113176904D01*
X113109523Y-113176904D02*
X113061904Y-113272142D01*
X113061904Y-113272142D02*
X113014285Y-113319761D01*
X113014285Y-113319761D02*
X112919047Y-113367380D01*
X112919047Y-113367380D02*
X112728571Y-113367380D01*
X112728571Y-113367380D02*
X112633333Y-113319761D01*
X112633333Y-113319761D02*
X112585714Y-113272142D01*
X112585714Y-113272142D02*
X112538095Y-113176904D01*
X112538095Y-113176904D02*
X112538095Y-112986428D01*
X112538095Y-112986428D02*
X112585714Y-112891190D01*
X112585714Y-112891190D02*
X112633333Y-112843571D01*
X112633333Y-112843571D02*
X112728571Y-112795952D01*
%TO.C,R10*%
X137424506Y-87187339D02*
X137091173Y-86954006D01*
X137424506Y-86787339D02*
X136724506Y-86787339D01*
X136724506Y-86787339D02*
X136724506Y-87054006D01*
X136724506Y-87054006D02*
X136757840Y-87120673D01*
X136757840Y-87120673D02*
X136791173Y-87154006D01*
X136791173Y-87154006D02*
X136857840Y-87187339D01*
X136857840Y-87187339D02*
X136957840Y-87187339D01*
X136957840Y-87187339D02*
X137024506Y-87154006D01*
X137024506Y-87154006D02*
X137057840Y-87120673D01*
X137057840Y-87120673D02*
X137091173Y-87054006D01*
X137091173Y-87054006D02*
X137091173Y-86787339D01*
X137424506Y-87854006D02*
X137424506Y-87454006D01*
X137424506Y-87654006D02*
X136724506Y-87654006D01*
X136724506Y-87654006D02*
X136824506Y-87587339D01*
X136824506Y-87587339D02*
X136891173Y-87520673D01*
X136891173Y-87520673D02*
X136924506Y-87454006D01*
X136724506Y-88287340D02*
X136724506Y-88354006D01*
X136724506Y-88354006D02*
X136757840Y-88420673D01*
X136757840Y-88420673D02*
X136791173Y-88454006D01*
X136791173Y-88454006D02*
X136857840Y-88487340D01*
X136857840Y-88487340D02*
X136991173Y-88520673D01*
X136991173Y-88520673D02*
X137157840Y-88520673D01*
X137157840Y-88520673D02*
X137291173Y-88487340D01*
X137291173Y-88487340D02*
X137357840Y-88454006D01*
X137357840Y-88454006D02*
X137391173Y-88420673D01*
X137391173Y-88420673D02*
X137424506Y-88354006D01*
X137424506Y-88354006D02*
X137424506Y-88287340D01*
X137424506Y-88287340D02*
X137391173Y-88220673D01*
X137391173Y-88220673D02*
X137357840Y-88187340D01*
X137357840Y-88187340D02*
X137291173Y-88154006D01*
X137291173Y-88154006D02*
X137157840Y-88120673D01*
X137157840Y-88120673D02*
X136991173Y-88120673D01*
X136991173Y-88120673D02*
X136857840Y-88154006D01*
X136857840Y-88154006D02*
X136791173Y-88187340D01*
X136791173Y-88187340D02*
X136757840Y-88220673D01*
X136757840Y-88220673D02*
X136724506Y-88287340D01*
%TO.C,CP2*%
X175014642Y-114993333D02*
X175062261Y-114945714D01*
X175062261Y-114945714D02*
X175109880Y-114802857D01*
X175109880Y-114802857D02*
X175109880Y-114707619D01*
X175109880Y-114707619D02*
X175062261Y-114564762D01*
X175062261Y-114564762D02*
X174967023Y-114469524D01*
X174967023Y-114469524D02*
X174871785Y-114421905D01*
X174871785Y-114421905D02*
X174681309Y-114374286D01*
X174681309Y-114374286D02*
X174538452Y-114374286D01*
X174538452Y-114374286D02*
X174347976Y-114421905D01*
X174347976Y-114421905D02*
X174252738Y-114469524D01*
X174252738Y-114469524D02*
X174157500Y-114564762D01*
X174157500Y-114564762D02*
X174109880Y-114707619D01*
X174109880Y-114707619D02*
X174109880Y-114802857D01*
X174109880Y-114802857D02*
X174157500Y-114945714D01*
X174157500Y-114945714D02*
X174205119Y-114993333D01*
X175109880Y-115421905D02*
X174109880Y-115421905D01*
X174109880Y-115421905D02*
X174109880Y-115802857D01*
X174109880Y-115802857D02*
X174157500Y-115898095D01*
X174157500Y-115898095D02*
X174205119Y-115945714D01*
X174205119Y-115945714D02*
X174300357Y-115993333D01*
X174300357Y-115993333D02*
X174443214Y-115993333D01*
X174443214Y-115993333D02*
X174538452Y-115945714D01*
X174538452Y-115945714D02*
X174586071Y-115898095D01*
X174586071Y-115898095D02*
X174633690Y-115802857D01*
X174633690Y-115802857D02*
X174633690Y-115421905D01*
X174205119Y-116374286D02*
X174157500Y-116421905D01*
X174157500Y-116421905D02*
X174109880Y-116517143D01*
X174109880Y-116517143D02*
X174109880Y-116755238D01*
X174109880Y-116755238D02*
X174157500Y-116850476D01*
X174157500Y-116850476D02*
X174205119Y-116898095D01*
X174205119Y-116898095D02*
X174300357Y-116945714D01*
X174300357Y-116945714D02*
X174395595Y-116945714D01*
X174395595Y-116945714D02*
X174538452Y-116898095D01*
X174538452Y-116898095D02*
X175109880Y-116326667D01*
X175109880Y-116326667D02*
X175109880Y-116945714D01*
D13*
%TO.C,J1*%
X171173332Y-135196573D02*
X171173332Y-136103716D01*
X171173332Y-136103716D02*
X171233809Y-136285145D01*
X171233809Y-136285145D02*
X171354761Y-136406097D01*
X171354761Y-136406097D02*
X171536190Y-136466573D01*
X171536190Y-136466573D02*
X171657142Y-136466573D01*
X169903332Y-136466573D02*
X170629047Y-136466573D01*
X170266190Y-136466573D02*
X170266190Y-135196573D01*
X170266190Y-135196573D02*
X170387142Y-135378002D01*
X170387142Y-135378002D02*
X170508094Y-135498954D01*
X170508094Y-135498954D02*
X170629047Y-135559430D01*
D12*
%TO.C,D5*%
X143477380Y-92861905D02*
X142477380Y-92861905D01*
X142477380Y-92861905D02*
X142477380Y-93100000D01*
X142477380Y-93100000D02*
X142525000Y-93242857D01*
X142525000Y-93242857D02*
X142620238Y-93338095D01*
X142620238Y-93338095D02*
X142715476Y-93385714D01*
X142715476Y-93385714D02*
X142905952Y-93433333D01*
X142905952Y-93433333D02*
X143048809Y-93433333D01*
X143048809Y-93433333D02*
X143239285Y-93385714D01*
X143239285Y-93385714D02*
X143334523Y-93338095D01*
X143334523Y-93338095D02*
X143429761Y-93242857D01*
X143429761Y-93242857D02*
X143477380Y-93100000D01*
X143477380Y-93100000D02*
X143477380Y-92861905D01*
X142477380Y-94338095D02*
X142477380Y-93861905D01*
X142477380Y-93861905D02*
X142953571Y-93814286D01*
X142953571Y-93814286D02*
X142905952Y-93861905D01*
X142905952Y-93861905D02*
X142858333Y-93957143D01*
X142858333Y-93957143D02*
X142858333Y-94195238D01*
X142858333Y-94195238D02*
X142905952Y-94290476D01*
X142905952Y-94290476D02*
X142953571Y-94338095D01*
X142953571Y-94338095D02*
X143048809Y-94385714D01*
X143048809Y-94385714D02*
X143286904Y-94385714D01*
X143286904Y-94385714D02*
X143382142Y-94338095D01*
X143382142Y-94338095D02*
X143429761Y-94290476D01*
X143429761Y-94290476D02*
X143477380Y-94195238D01*
X143477380Y-94195238D02*
X143477380Y-93957143D01*
X143477380Y-93957143D02*
X143429761Y-93861905D01*
X143429761Y-93861905D02*
X143382142Y-93814286D01*
%TO.C,D3*%
X139907380Y-92881905D02*
X138907380Y-92881905D01*
X138907380Y-92881905D02*
X138907380Y-93120000D01*
X138907380Y-93120000D02*
X138955000Y-93262857D01*
X138955000Y-93262857D02*
X139050238Y-93358095D01*
X139050238Y-93358095D02*
X139145476Y-93405714D01*
X139145476Y-93405714D02*
X139335952Y-93453333D01*
X139335952Y-93453333D02*
X139478809Y-93453333D01*
X139478809Y-93453333D02*
X139669285Y-93405714D01*
X139669285Y-93405714D02*
X139764523Y-93358095D01*
X139764523Y-93358095D02*
X139859761Y-93262857D01*
X139859761Y-93262857D02*
X139907380Y-93120000D01*
X139907380Y-93120000D02*
X139907380Y-92881905D01*
X138907380Y-93786667D02*
X138907380Y-94405714D01*
X138907380Y-94405714D02*
X139288333Y-94072381D01*
X139288333Y-94072381D02*
X139288333Y-94215238D01*
X139288333Y-94215238D02*
X139335952Y-94310476D01*
X139335952Y-94310476D02*
X139383571Y-94358095D01*
X139383571Y-94358095D02*
X139478809Y-94405714D01*
X139478809Y-94405714D02*
X139716904Y-94405714D01*
X139716904Y-94405714D02*
X139812142Y-94358095D01*
X139812142Y-94358095D02*
X139859761Y-94310476D01*
X139859761Y-94310476D02*
X139907380Y-94215238D01*
X139907380Y-94215238D02*
X139907380Y-93929524D01*
X139907380Y-93929524D02*
X139859761Y-93834286D01*
X139859761Y-93834286D02*
X139812142Y-93786667D01*
%TO.C,D4*%
X136257380Y-92811905D02*
X135257380Y-92811905D01*
X135257380Y-92811905D02*
X135257380Y-93050000D01*
X135257380Y-93050000D02*
X135305000Y-93192857D01*
X135305000Y-93192857D02*
X135400238Y-93288095D01*
X135400238Y-93288095D02*
X135495476Y-93335714D01*
X135495476Y-93335714D02*
X135685952Y-93383333D01*
X135685952Y-93383333D02*
X135828809Y-93383333D01*
X135828809Y-93383333D02*
X136019285Y-93335714D01*
X136019285Y-93335714D02*
X136114523Y-93288095D01*
X136114523Y-93288095D02*
X136209761Y-93192857D01*
X136209761Y-93192857D02*
X136257380Y-93050000D01*
X136257380Y-93050000D02*
X136257380Y-92811905D01*
X135590714Y-94240476D02*
X136257380Y-94240476D01*
X135209761Y-94002381D02*
X135924047Y-93764286D01*
X135924047Y-93764286D02*
X135924047Y-94383333D01*
%TO.C,D6*%
X112938094Y-140817380D02*
X112938094Y-139817380D01*
X112938094Y-139817380D02*
X112699999Y-139817380D01*
X112699999Y-139817380D02*
X112557142Y-139865000D01*
X112557142Y-139865000D02*
X112461904Y-139960238D01*
X112461904Y-139960238D02*
X112414285Y-140055476D01*
X112414285Y-140055476D02*
X112366666Y-140245952D01*
X112366666Y-140245952D02*
X112366666Y-140388809D01*
X112366666Y-140388809D02*
X112414285Y-140579285D01*
X112414285Y-140579285D02*
X112461904Y-140674523D01*
X112461904Y-140674523D02*
X112557142Y-140769761D01*
X112557142Y-140769761D02*
X112699999Y-140817380D01*
X112699999Y-140817380D02*
X112938094Y-140817380D01*
X111509523Y-139817380D02*
X111699999Y-139817380D01*
X111699999Y-139817380D02*
X111795237Y-139865000D01*
X111795237Y-139865000D02*
X111842856Y-139912619D01*
X111842856Y-139912619D02*
X111938094Y-140055476D01*
X111938094Y-140055476D02*
X111985713Y-140245952D01*
X111985713Y-140245952D02*
X111985713Y-140626904D01*
X111985713Y-140626904D02*
X111938094Y-140722142D01*
X111938094Y-140722142D02*
X111890475Y-140769761D01*
X111890475Y-140769761D02*
X111795237Y-140817380D01*
X111795237Y-140817380D02*
X111604761Y-140817380D01*
X111604761Y-140817380D02*
X111509523Y-140769761D01*
X111509523Y-140769761D02*
X111461904Y-140722142D01*
X111461904Y-140722142D02*
X111414285Y-140626904D01*
X111414285Y-140626904D02*
X111414285Y-140388809D01*
X111414285Y-140388809D02*
X111461904Y-140293571D01*
X111461904Y-140293571D02*
X111509523Y-140245952D01*
X111509523Y-140245952D02*
X111604761Y-140198333D01*
X111604761Y-140198333D02*
X111795237Y-140198333D01*
X111795237Y-140198333D02*
X111890475Y-140245952D01*
X111890475Y-140245952D02*
X111938094Y-140293571D01*
X111938094Y-140293571D02*
X111985713Y-140388809D01*
%TO.C,CP3*%
X174989642Y-111078333D02*
X175037261Y-111030714D01*
X175037261Y-111030714D02*
X175084880Y-110887857D01*
X175084880Y-110887857D02*
X175084880Y-110792619D01*
X175084880Y-110792619D02*
X175037261Y-110649762D01*
X175037261Y-110649762D02*
X174942023Y-110554524D01*
X174942023Y-110554524D02*
X174846785Y-110506905D01*
X174846785Y-110506905D02*
X174656309Y-110459286D01*
X174656309Y-110459286D02*
X174513452Y-110459286D01*
X174513452Y-110459286D02*
X174322976Y-110506905D01*
X174322976Y-110506905D02*
X174227738Y-110554524D01*
X174227738Y-110554524D02*
X174132500Y-110649762D01*
X174132500Y-110649762D02*
X174084880Y-110792619D01*
X174084880Y-110792619D02*
X174084880Y-110887857D01*
X174084880Y-110887857D02*
X174132500Y-111030714D01*
X174132500Y-111030714D02*
X174180119Y-111078333D01*
X175084880Y-111506905D02*
X174084880Y-111506905D01*
X174084880Y-111506905D02*
X174084880Y-111887857D01*
X174084880Y-111887857D02*
X174132500Y-111983095D01*
X174132500Y-111983095D02*
X174180119Y-112030714D01*
X174180119Y-112030714D02*
X174275357Y-112078333D01*
X174275357Y-112078333D02*
X174418214Y-112078333D01*
X174418214Y-112078333D02*
X174513452Y-112030714D01*
X174513452Y-112030714D02*
X174561071Y-111983095D01*
X174561071Y-111983095D02*
X174608690Y-111887857D01*
X174608690Y-111887857D02*
X174608690Y-111506905D01*
X174084880Y-112411667D02*
X174084880Y-113030714D01*
X174084880Y-113030714D02*
X174465833Y-112697381D01*
X174465833Y-112697381D02*
X174465833Y-112840238D01*
X174465833Y-112840238D02*
X174513452Y-112935476D01*
X174513452Y-112935476D02*
X174561071Y-112983095D01*
X174561071Y-112983095D02*
X174656309Y-113030714D01*
X174656309Y-113030714D02*
X174894404Y-113030714D01*
X174894404Y-113030714D02*
X174989642Y-112983095D01*
X174989642Y-112983095D02*
X175037261Y-112935476D01*
X175037261Y-112935476D02*
X175084880Y-112840238D01*
X175084880Y-112840238D02*
X175084880Y-112554524D01*
X175084880Y-112554524D02*
X175037261Y-112459286D01*
X175037261Y-112459286D02*
X174989642Y-112411667D01*
%TO.C,R9*%
X141417380Y-87545673D02*
X140941190Y-87212340D01*
X141417380Y-86974245D02*
X140417380Y-86974245D01*
X140417380Y-86974245D02*
X140417380Y-87355197D01*
X140417380Y-87355197D02*
X140465000Y-87450435D01*
X140465000Y-87450435D02*
X140512619Y-87498054D01*
X140512619Y-87498054D02*
X140607857Y-87545673D01*
X140607857Y-87545673D02*
X140750714Y-87545673D01*
X140750714Y-87545673D02*
X140845952Y-87498054D01*
X140845952Y-87498054D02*
X140893571Y-87450435D01*
X140893571Y-87450435D02*
X140941190Y-87355197D01*
X140941190Y-87355197D02*
X140941190Y-86974245D01*
X141417380Y-88021864D02*
X141417380Y-88212340D01*
X141417380Y-88212340D02*
X141369761Y-88307578D01*
X141369761Y-88307578D02*
X141322142Y-88355197D01*
X141322142Y-88355197D02*
X141179285Y-88450435D01*
X141179285Y-88450435D02*
X140988809Y-88498054D01*
X140988809Y-88498054D02*
X140607857Y-88498054D01*
X140607857Y-88498054D02*
X140512619Y-88450435D01*
X140512619Y-88450435D02*
X140465000Y-88402816D01*
X140465000Y-88402816D02*
X140417380Y-88307578D01*
X140417380Y-88307578D02*
X140417380Y-88117102D01*
X140417380Y-88117102D02*
X140465000Y-88021864D01*
X140465000Y-88021864D02*
X140512619Y-87974245D01*
X140512619Y-87974245D02*
X140607857Y-87926626D01*
X140607857Y-87926626D02*
X140845952Y-87926626D01*
X140845952Y-87926626D02*
X140941190Y-87974245D01*
X140941190Y-87974245D02*
X140988809Y-88021864D01*
X140988809Y-88021864D02*
X141036428Y-88117102D01*
X141036428Y-88117102D02*
X141036428Y-88307578D01*
X141036428Y-88307578D02*
X140988809Y-88402816D01*
X140988809Y-88402816D02*
X140941190Y-88450435D01*
X140941190Y-88450435D02*
X140845952Y-88498054D01*
%TO.C,D30*%
X115322380Y-128312714D02*
X114322380Y-128312714D01*
X114322380Y-128312714D02*
X114322380Y-128550809D01*
X114322380Y-128550809D02*
X114370000Y-128693666D01*
X114370000Y-128693666D02*
X114465238Y-128788904D01*
X114465238Y-128788904D02*
X114560476Y-128836523D01*
X114560476Y-128836523D02*
X114750952Y-128884142D01*
X114750952Y-128884142D02*
X114893809Y-128884142D01*
X114893809Y-128884142D02*
X115084285Y-128836523D01*
X115084285Y-128836523D02*
X115179523Y-128788904D01*
X115179523Y-128788904D02*
X115274761Y-128693666D01*
X115274761Y-128693666D02*
X115322380Y-128550809D01*
X115322380Y-128550809D02*
X115322380Y-128312714D01*
X114322380Y-129217476D02*
X114322380Y-129836523D01*
X114322380Y-129836523D02*
X114703333Y-129503190D01*
X114703333Y-129503190D02*
X114703333Y-129646047D01*
X114703333Y-129646047D02*
X114750952Y-129741285D01*
X114750952Y-129741285D02*
X114798571Y-129788904D01*
X114798571Y-129788904D02*
X114893809Y-129836523D01*
X114893809Y-129836523D02*
X115131904Y-129836523D01*
X115131904Y-129836523D02*
X115227142Y-129788904D01*
X115227142Y-129788904D02*
X115274761Y-129741285D01*
X115274761Y-129741285D02*
X115322380Y-129646047D01*
X115322380Y-129646047D02*
X115322380Y-129360333D01*
X115322380Y-129360333D02*
X115274761Y-129265095D01*
X115274761Y-129265095D02*
X115227142Y-129217476D01*
X114322380Y-130455571D02*
X114322380Y-130550809D01*
X114322380Y-130550809D02*
X114370000Y-130646047D01*
X114370000Y-130646047D02*
X114417619Y-130693666D01*
X114417619Y-130693666D02*
X114512857Y-130741285D01*
X114512857Y-130741285D02*
X114703333Y-130788904D01*
X114703333Y-130788904D02*
X114941428Y-130788904D01*
X114941428Y-130788904D02*
X115131904Y-130741285D01*
X115131904Y-130741285D02*
X115227142Y-130693666D01*
X115227142Y-130693666D02*
X115274761Y-130646047D01*
X115274761Y-130646047D02*
X115322380Y-130550809D01*
X115322380Y-130550809D02*
X115322380Y-130455571D01*
X115322380Y-130455571D02*
X115274761Y-130360333D01*
X115274761Y-130360333D02*
X115227142Y-130312714D01*
X115227142Y-130312714D02*
X115131904Y-130265095D01*
X115131904Y-130265095D02*
X114941428Y-130217476D01*
X114941428Y-130217476D02*
X114703333Y-130217476D01*
X114703333Y-130217476D02*
X114512857Y-130265095D01*
X114512857Y-130265095D02*
X114417619Y-130312714D01*
X114417619Y-130312714D02*
X114370000Y-130360333D01*
X114370000Y-130360333D02*
X114322380Y-130455571D01*
%TO.C,FB1*%
X166583333Y-104843571D02*
X166916666Y-104843571D01*
X166916666Y-105367380D02*
X166916666Y-104367380D01*
X166916666Y-104367380D02*
X166440476Y-104367380D01*
X165726190Y-104843571D02*
X165583333Y-104891190D01*
X165583333Y-104891190D02*
X165535714Y-104938809D01*
X165535714Y-104938809D02*
X165488095Y-105034047D01*
X165488095Y-105034047D02*
X165488095Y-105176904D01*
X165488095Y-105176904D02*
X165535714Y-105272142D01*
X165535714Y-105272142D02*
X165583333Y-105319761D01*
X165583333Y-105319761D02*
X165678571Y-105367380D01*
X165678571Y-105367380D02*
X166059523Y-105367380D01*
X166059523Y-105367380D02*
X166059523Y-104367380D01*
X166059523Y-104367380D02*
X165726190Y-104367380D01*
X165726190Y-104367380D02*
X165630952Y-104415000D01*
X165630952Y-104415000D02*
X165583333Y-104462619D01*
X165583333Y-104462619D02*
X165535714Y-104557857D01*
X165535714Y-104557857D02*
X165535714Y-104653095D01*
X165535714Y-104653095D02*
X165583333Y-104748333D01*
X165583333Y-104748333D02*
X165630952Y-104795952D01*
X165630952Y-104795952D02*
X165726190Y-104843571D01*
X165726190Y-104843571D02*
X166059523Y-104843571D01*
X164535714Y-105367380D02*
X165107142Y-105367380D01*
X164821428Y-105367380D02*
X164821428Y-104367380D01*
X164821428Y-104367380D02*
X164916666Y-104510238D01*
X164916666Y-104510238D02*
X165011904Y-104605476D01*
X165011904Y-104605476D02*
X165107142Y-104653095D01*
%TO.C,R65*%
X144917380Y-86582142D02*
X144441190Y-86248809D01*
X144917380Y-86010714D02*
X143917380Y-86010714D01*
X143917380Y-86010714D02*
X143917380Y-86391666D01*
X143917380Y-86391666D02*
X143965000Y-86486904D01*
X143965000Y-86486904D02*
X144012619Y-86534523D01*
X144012619Y-86534523D02*
X144107857Y-86582142D01*
X144107857Y-86582142D02*
X144250714Y-86582142D01*
X144250714Y-86582142D02*
X144345952Y-86534523D01*
X144345952Y-86534523D02*
X144393571Y-86486904D01*
X144393571Y-86486904D02*
X144441190Y-86391666D01*
X144441190Y-86391666D02*
X144441190Y-86010714D01*
X143917380Y-87439285D02*
X143917380Y-87248809D01*
X143917380Y-87248809D02*
X143965000Y-87153571D01*
X143965000Y-87153571D02*
X144012619Y-87105952D01*
X144012619Y-87105952D02*
X144155476Y-87010714D01*
X144155476Y-87010714D02*
X144345952Y-86963095D01*
X144345952Y-86963095D02*
X144726904Y-86963095D01*
X144726904Y-86963095D02*
X144822142Y-87010714D01*
X144822142Y-87010714D02*
X144869761Y-87058333D01*
X144869761Y-87058333D02*
X144917380Y-87153571D01*
X144917380Y-87153571D02*
X144917380Y-87344047D01*
X144917380Y-87344047D02*
X144869761Y-87439285D01*
X144869761Y-87439285D02*
X144822142Y-87486904D01*
X144822142Y-87486904D02*
X144726904Y-87534523D01*
X144726904Y-87534523D02*
X144488809Y-87534523D01*
X144488809Y-87534523D02*
X144393571Y-87486904D01*
X144393571Y-87486904D02*
X144345952Y-87439285D01*
X144345952Y-87439285D02*
X144298333Y-87344047D01*
X144298333Y-87344047D02*
X144298333Y-87153571D01*
X144298333Y-87153571D02*
X144345952Y-87058333D01*
X144345952Y-87058333D02*
X144393571Y-87010714D01*
X144393571Y-87010714D02*
X144488809Y-86963095D01*
X143917380Y-88439285D02*
X143917380Y-87963095D01*
X143917380Y-87963095D02*
X144393571Y-87915476D01*
X144393571Y-87915476D02*
X144345952Y-87963095D01*
X144345952Y-87963095D02*
X144298333Y-88058333D01*
X144298333Y-88058333D02*
X144298333Y-88296428D01*
X144298333Y-88296428D02*
X144345952Y-88391666D01*
X144345952Y-88391666D02*
X144393571Y-88439285D01*
X144393571Y-88439285D02*
X144488809Y-88486904D01*
X144488809Y-88486904D02*
X144726904Y-88486904D01*
X144726904Y-88486904D02*
X144822142Y-88439285D01*
X144822142Y-88439285D02*
X144869761Y-88391666D01*
X144869761Y-88391666D02*
X144917380Y-88296428D01*
X144917380Y-88296428D02*
X144917380Y-88058333D01*
X144917380Y-88058333D02*
X144869761Y-87963095D01*
X144869761Y-87963095D02*
X144822142Y-87915476D01*
%TO.C,D2*%
X170238094Y-109267380D02*
X170238094Y-108267380D01*
X170238094Y-108267380D02*
X169999999Y-108267380D01*
X169999999Y-108267380D02*
X169857142Y-108315000D01*
X169857142Y-108315000D02*
X169761904Y-108410238D01*
X169761904Y-108410238D02*
X169714285Y-108505476D01*
X169714285Y-108505476D02*
X169666666Y-108695952D01*
X169666666Y-108695952D02*
X169666666Y-108838809D01*
X169666666Y-108838809D02*
X169714285Y-109029285D01*
X169714285Y-109029285D02*
X169761904Y-109124523D01*
X169761904Y-109124523D02*
X169857142Y-109219761D01*
X169857142Y-109219761D02*
X169999999Y-109267380D01*
X169999999Y-109267380D02*
X170238094Y-109267380D01*
X169285713Y-108362619D02*
X169238094Y-108315000D01*
X169238094Y-108315000D02*
X169142856Y-108267380D01*
X169142856Y-108267380D02*
X168904761Y-108267380D01*
X168904761Y-108267380D02*
X168809523Y-108315000D01*
X168809523Y-108315000D02*
X168761904Y-108362619D01*
X168761904Y-108362619D02*
X168714285Y-108457857D01*
X168714285Y-108457857D02*
X168714285Y-108553095D01*
X168714285Y-108553095D02*
X168761904Y-108695952D01*
X168761904Y-108695952D02*
X169333332Y-109267380D01*
X169333332Y-109267380D02*
X168714285Y-109267380D01*
%TO.C,CP1*%
X175027142Y-119133333D02*
X175074761Y-119085714D01*
X175074761Y-119085714D02*
X175122380Y-118942857D01*
X175122380Y-118942857D02*
X175122380Y-118847619D01*
X175122380Y-118847619D02*
X175074761Y-118704762D01*
X175074761Y-118704762D02*
X174979523Y-118609524D01*
X174979523Y-118609524D02*
X174884285Y-118561905D01*
X174884285Y-118561905D02*
X174693809Y-118514286D01*
X174693809Y-118514286D02*
X174550952Y-118514286D01*
X174550952Y-118514286D02*
X174360476Y-118561905D01*
X174360476Y-118561905D02*
X174265238Y-118609524D01*
X174265238Y-118609524D02*
X174170000Y-118704762D01*
X174170000Y-118704762D02*
X174122380Y-118847619D01*
X174122380Y-118847619D02*
X174122380Y-118942857D01*
X174122380Y-118942857D02*
X174170000Y-119085714D01*
X174170000Y-119085714D02*
X174217619Y-119133333D01*
X175122380Y-119561905D02*
X174122380Y-119561905D01*
X174122380Y-119561905D02*
X174122380Y-119942857D01*
X174122380Y-119942857D02*
X174170000Y-120038095D01*
X174170000Y-120038095D02*
X174217619Y-120085714D01*
X174217619Y-120085714D02*
X174312857Y-120133333D01*
X174312857Y-120133333D02*
X174455714Y-120133333D01*
X174455714Y-120133333D02*
X174550952Y-120085714D01*
X174550952Y-120085714D02*
X174598571Y-120038095D01*
X174598571Y-120038095D02*
X174646190Y-119942857D01*
X174646190Y-119942857D02*
X174646190Y-119561905D01*
X175122380Y-121085714D02*
X175122380Y-120514286D01*
X175122380Y-120800000D02*
X174122380Y-120800000D01*
X174122380Y-120800000D02*
X174265238Y-120704762D01*
X174265238Y-120704762D02*
X174360476Y-120609524D01*
X174360476Y-120609524D02*
X174408095Y-120514286D01*
D14*
%TO.C,J7*%
X112476553Y-124999994D02*
G75*
G03*
X112476553Y-124999994I-381000J0D01*
G01*
%TO.C,D26*%
X113700000Y-121860000D02*
X114500000Y-121860000D01*
X113700000Y-121860000D02*
X112900000Y-121860000D01*
X113700000Y-118740000D02*
X115500000Y-118740000D01*
X113700000Y-118740000D02*
X112900000Y-118740000D01*
%TO.C,D27*%
X113800000Y-112060000D02*
X114600000Y-112060000D01*
X113800000Y-112060000D02*
X113000000Y-112060000D01*
X113800000Y-108940000D02*
X115600000Y-108940000D01*
X113800000Y-108940000D02*
X113000000Y-108940000D01*
D15*
%TO.C,U21*%
X158250000Y-128500000D02*
X141250000Y-128500000D01*
X137250000Y-124500000D02*
X137250000Y-107500000D01*
X162250000Y-107500000D02*
X162250000Y-124500000D01*
X141250000Y-103500000D02*
X158250000Y-103500000D01*
X137250000Y-124500000D02*
G75*
G03*
X141250000Y-128500000I4000000J0D01*
G01*
X158250000Y-128500000D02*
G75*
G03*
X162250000Y-124500000I0J4000000D01*
G01*
X141250000Y-103500000D02*
G75*
G03*
X137250000Y-107500000I0J-4000000D01*
G01*
X162250000Y-107500000D02*
G75*
G03*
X158250000Y-103500000I-4000000J0D01*
G01*
D14*
%TO.C,D29*%
X103650000Y-106940000D02*
X102850000Y-106940000D01*
X103650000Y-106940000D02*
X104450000Y-106940000D01*
X103650000Y-110060000D02*
X101850000Y-110060000D01*
X103650000Y-110060000D02*
X104450000Y-110060000D01*
%TO.C,F3*%
X111035000Y-128922936D02*
X111035000Y-130127064D01*
X109215000Y-128922936D02*
X109215000Y-130127064D01*
D10*
%TO.C,S1*%
X141050000Y-135750000D02*
X141050000Y-138750000D01*
X141050000Y-138750000D02*
X147450000Y-138750000D01*
X145875000Y-141250000D02*
X145875000Y-141250000D01*
X145875000Y-141250000D02*
X145875000Y-141250000D01*
X145875000Y-141350000D02*
X145875000Y-141350000D01*
X147450000Y-135750000D02*
X141050000Y-135750000D01*
X147450000Y-138750000D02*
X147450000Y-135750000D01*
X145875000Y-141350000D02*
G75*
G03*
X145875000Y-141250000I0J50000D01*
G01*
X145875000Y-141350000D02*
G75*
G03*
X145875000Y-141250000I0J50000D01*
G01*
X145875000Y-141250000D02*
G75*
G03*
X145875000Y-141350000I0J-50000D01*
G01*
D14*
%TO.C,D28*%
X113800000Y-116960000D02*
X114600000Y-116960000D01*
X113800000Y-116960000D02*
X113000000Y-116960000D01*
X113800000Y-113840000D02*
X115600000Y-113840000D01*
X113800000Y-113840000D02*
X113000000Y-113840000D01*
%TO.C,R10*%
X137689840Y-89975082D02*
X137689840Y-90449598D01*
X136644840Y-89975082D02*
X136644840Y-90449598D01*
%TO.C,CP2*%
X173972500Y-117460000D02*
X167212500Y-117460000D01*
X173972500Y-114040000D02*
X173972500Y-117460000D01*
X167212500Y-114040000D02*
X173972500Y-114040000D01*
D16*
%TO.C,J1*%
X176345000Y-143920000D02*
X165145000Y-143920000D01*
X176345000Y-142680000D02*
X176345000Y-143920000D01*
X176345000Y-133900000D02*
X176345000Y-140400000D01*
X176345000Y-128480000D02*
X176345000Y-131680000D01*
X174745000Y-128480000D02*
X176345000Y-128480000D01*
D10*
X174050000Y-127700000D02*
X174050000Y-127700000D01*
X173850000Y-127700000D02*
X173850000Y-127700000D01*
D16*
X166745000Y-128480000D02*
X165145000Y-128480000D01*
X165145000Y-143920000D02*
X165145000Y-142680000D01*
X165145000Y-133900000D02*
X165145000Y-140400000D01*
X165145000Y-128480000D02*
X165145000Y-131680000D01*
X165145000Y-128480000D02*
X165145000Y-128480000D01*
D10*
X173850000Y-127700000D02*
G75*
G03*
X174050000Y-127700000I100000J0D01*
G01*
X174050000Y-127700000D02*
G75*
G03*
X173850000Y-127700000I-100000J0D01*
G01*
D14*
%TO.C,D5*%
X145135000Y-92152340D02*
X145135000Y-94437340D01*
X143665000Y-92152340D02*
X145135000Y-92152340D01*
X143665000Y-94437340D02*
X143665000Y-92152340D01*
%TO.C,D3*%
X141535000Y-92189840D02*
X141535000Y-94474840D01*
X140065000Y-92189840D02*
X141535000Y-92189840D01*
X140065000Y-94474840D02*
X140065000Y-92189840D01*
%TO.C,D4*%
X137902340Y-92189840D02*
X137902340Y-94474840D01*
X136432340Y-92189840D02*
X137902340Y-92189840D01*
X136432340Y-94474840D02*
X136432340Y-92189840D01*
%TO.C,D6*%
X114510000Y-132815000D02*
X114510000Y-134475000D01*
X114170000Y-132815000D02*
X114510000Y-132815000D01*
X114170000Y-132575000D02*
X114170000Y-132815000D01*
X112410000Y-132815000D02*
X112090000Y-132815000D01*
X109990000Y-134475000D02*
X109990000Y-132815000D01*
X109990000Y-132815000D02*
X110330000Y-132815000D01*
%TO.C,CP3*%
X173972500Y-113460000D02*
X167212500Y-113460000D01*
X173972500Y-110040000D02*
X173972500Y-113460000D01*
X167212500Y-110040000D02*
X173972500Y-110040000D01*
D17*
%TO.C,J3*%
X153009560Y-117498040D02*
X153009560Y-116098500D01*
X153009560Y-117498040D02*
X150413680Y-117498040D01*
X153009560Y-114701500D02*
X153009560Y-113301960D01*
D18*
X152600620Y-116225500D02*
X152600620Y-114574500D01*
X152600620Y-116225500D02*
X150822620Y-116225500D01*
X152600620Y-114574500D02*
X150822620Y-114574500D01*
X150822620Y-116225500D02*
X150822620Y-114574500D01*
D17*
X150413680Y-117498040D02*
X150413680Y-116098500D01*
X150413680Y-114701500D02*
X150413680Y-113301960D01*
X150413680Y-113301960D02*
X153009560Y-113301960D01*
X150312080Y-117398980D02*
X150312080Y-116098500D01*
X150312080Y-114701500D02*
X150312080Y-113401020D01*
X150213020Y-117498040D02*
X150413680Y-117498040D01*
X150213020Y-117498040D02*
X150213020Y-116098500D01*
X150213020Y-116098500D02*
X150413680Y-116098500D01*
X150213020Y-114701500D02*
X150413680Y-114701500D01*
X150213020Y-114701500D02*
X150213020Y-113301960D01*
X150213020Y-113301960D02*
X150413680Y-113301960D01*
D14*
%TO.C,R9*%
X141322500Y-89975082D02*
X141322500Y-90449598D01*
X140277500Y-89975082D02*
X140277500Y-90449598D01*
%TO.C,D30*%
X112050000Y-131610000D02*
X112050000Y-127750000D01*
X114050000Y-131610000D02*
X112050000Y-131610000D01*
X114050000Y-131610000D02*
X114050000Y-127750000D01*
%TO.C,FB1*%
X170022936Y-106090000D02*
X171477064Y-106090000D01*
X170022936Y-107910000D02*
X171477064Y-107910000D01*
%TO.C,R65*%
X144922500Y-89887742D02*
X144922500Y-90362258D01*
X143877500Y-89887742D02*
X143877500Y-90362258D01*
%TO.C,D2*%
X173010000Y-108400000D02*
X173010000Y-109600000D01*
X171050000Y-109600000D02*
X173010000Y-109600000D01*
X171050000Y-108400000D02*
X173010000Y-108400000D01*
%TO.C,CP1*%
X174010000Y-121460000D02*
X167250000Y-121460000D01*
X174010000Y-118040000D02*
X174010000Y-121460000D01*
X167250000Y-118040000D02*
X174010000Y-118040000D01*
%TD*%
M02*
