%TF.GenerationSoftware,KiCad,Pcbnew,(6.0.10)*%
%TF.CreationDate,2023-01-02T14:56:33+01:00*%
%TF.ProjectId,roam,726f616d-2e6b-4696-9361-645f70636258,rev?*%
%TF.SameCoordinates,Original*%
%TF.FileFunction,Legend,Top*%
%TF.FilePolarity,Positive*%
%FSLAX46Y46*%
G04 Gerber Fmt 4.6, Leading zero omitted, Abs format (unit mm)*
G04 Created by KiCad (PCBNEW (6.0.10)) date 2023-01-02 14:56:33*
%MOMM*%
%LPD*%
G01*
G04 APERTURE LIST*
%ADD10C,0.200000*%
%ADD11C,0.150000*%
%ADD12C,0.254000*%
%ADD13C,0.120000*%
%ADD14C,0.127000*%
%ADD15C,0.152400*%
%ADD16C,0.100000*%
G04 APERTURE END LIST*
D10*
X140357142Y-142352380D02*
X140023809Y-141876190D01*
X139785714Y-142352380D02*
X139785714Y-141352380D01*
X140166666Y-141352380D01*
X140261904Y-141400000D01*
X140309523Y-141447619D01*
X140357142Y-141542857D01*
X140357142Y-141685714D01*
X140309523Y-141780952D01*
X140261904Y-141828571D01*
X140166666Y-141876190D01*
X139785714Y-141876190D01*
X140976190Y-141352380D02*
X141166666Y-141352380D01*
X141261904Y-141400000D01*
X141357142Y-141495238D01*
X141404761Y-141685714D01*
X141404761Y-142019047D01*
X141357142Y-142209523D01*
X141261904Y-142304761D01*
X141166666Y-142352380D01*
X140976190Y-142352380D01*
X140880952Y-142304761D01*
X140785714Y-142209523D01*
X140738095Y-142019047D01*
X140738095Y-141685714D01*
X140785714Y-141495238D01*
X140880952Y-141400000D01*
X140976190Y-141352380D01*
X141785714Y-142066666D02*
X142261904Y-142066666D01*
X141690476Y-142352380D02*
X142023809Y-141352380D01*
X142357142Y-142352380D01*
X142690476Y-142352380D02*
X142690476Y-141352380D01*
X143023809Y-142066666D01*
X143357142Y-141352380D01*
X143357142Y-142352380D01*
X144595238Y-141685714D02*
X144595238Y-142685714D01*
X144595238Y-141733333D02*
X144690476Y-141685714D01*
X144880952Y-141685714D01*
X144976190Y-141733333D01*
X145023809Y-141780952D01*
X145071428Y-141876190D01*
X145071428Y-142161904D01*
X145023809Y-142257142D01*
X144976190Y-142304761D01*
X144880952Y-142352380D01*
X144690476Y-142352380D01*
X144595238Y-142304761D01*
X145500000Y-142352380D02*
X145500000Y-141352380D01*
X145928571Y-142352380D02*
X145928571Y-141828571D01*
X145880952Y-141733333D01*
X145785714Y-141685714D01*
X145642857Y-141685714D01*
X145547619Y-141733333D01*
X145500000Y-141780952D01*
X146833333Y-142352380D02*
X146833333Y-141828571D01*
X146785714Y-141733333D01*
X146690476Y-141685714D01*
X146500000Y-141685714D01*
X146404761Y-141733333D01*
X146833333Y-142304761D02*
X146738095Y-142352380D01*
X146500000Y-142352380D01*
X146404761Y-142304761D01*
X146357142Y-142209523D01*
X146357142Y-142114285D01*
X146404761Y-142019047D01*
X146500000Y-141971428D01*
X146738095Y-141971428D01*
X146833333Y-141923809D01*
X147261904Y-142304761D02*
X147357142Y-142352380D01*
X147547619Y-142352380D01*
X147642857Y-142304761D01*
X147690476Y-142209523D01*
X147690476Y-142161904D01*
X147642857Y-142066666D01*
X147547619Y-142019047D01*
X147404761Y-142019047D01*
X147309523Y-141971428D01*
X147261904Y-141876190D01*
X147261904Y-141828571D01*
X147309523Y-141733333D01*
X147404761Y-141685714D01*
X147547619Y-141685714D01*
X147642857Y-141733333D01*
X148500000Y-142304761D02*
X148404761Y-142352380D01*
X148214285Y-142352380D01*
X148119047Y-142304761D01*
X148071428Y-142209523D01*
X148071428Y-141828571D01*
X148119047Y-141733333D01*
X148214285Y-141685714D01*
X148404761Y-141685714D01*
X148500000Y-141733333D01*
X148547619Y-141828571D01*
X148547619Y-141923809D01*
X148071428Y-142019047D01*
X150261904Y-142352380D02*
X149690476Y-142352380D01*
X149976190Y-142352380D02*
X149976190Y-141352380D01*
X149880952Y-141495238D01*
X149785714Y-141590476D01*
X149690476Y-141638095D01*
D11*
%TO.C,C20*%
X112117142Y-128912857D02*
X112164761Y-128960476D01*
X112212380Y-129103333D01*
X112212380Y-129198571D01*
X112164761Y-129341428D01*
X112069523Y-129436666D01*
X111974285Y-129484285D01*
X111783809Y-129531904D01*
X111640952Y-129531904D01*
X111450476Y-129484285D01*
X111355238Y-129436666D01*
X111260000Y-129341428D01*
X111212380Y-129198571D01*
X111212380Y-129103333D01*
X111260000Y-128960476D01*
X111307619Y-128912857D01*
X111307619Y-128531904D02*
X111260000Y-128484285D01*
X111212380Y-128389047D01*
X111212380Y-128150952D01*
X111260000Y-128055714D01*
X111307619Y-128008095D01*
X111402857Y-127960476D01*
X111498095Y-127960476D01*
X111640952Y-128008095D01*
X112212380Y-128579523D01*
X112212380Y-127960476D01*
X111212380Y-127341428D02*
X111212380Y-127246190D01*
X111260000Y-127150952D01*
X111307619Y-127103333D01*
X111402857Y-127055714D01*
X111593333Y-127008095D01*
X111831428Y-127008095D01*
X112021904Y-127055714D01*
X112117142Y-127103333D01*
X112164761Y-127150952D01*
X112212380Y-127246190D01*
X112212380Y-127341428D01*
X112164761Y-127436666D01*
X112117142Y-127484285D01*
X112021904Y-127531904D01*
X111831428Y-127579523D01*
X111593333Y-127579523D01*
X111402857Y-127531904D01*
X111307619Y-127484285D01*
X111260000Y-127436666D01*
X111212380Y-127341428D01*
%TO.C,R20*%
X120022380Y-92442857D02*
X119546190Y-92776190D01*
X120022380Y-93014285D02*
X119022380Y-93014285D01*
X119022380Y-92633333D01*
X119070000Y-92538095D01*
X119117619Y-92490476D01*
X119212857Y-92442857D01*
X119355714Y-92442857D01*
X119450952Y-92490476D01*
X119498571Y-92538095D01*
X119546190Y-92633333D01*
X119546190Y-93014285D01*
X119117619Y-92061904D02*
X119070000Y-92014285D01*
X119022380Y-91919047D01*
X119022380Y-91680952D01*
X119070000Y-91585714D01*
X119117619Y-91538095D01*
X119212857Y-91490476D01*
X119308095Y-91490476D01*
X119450952Y-91538095D01*
X120022380Y-92109523D01*
X120022380Y-91490476D01*
X119022380Y-90871428D02*
X119022380Y-90776190D01*
X119070000Y-90680952D01*
X119117619Y-90633333D01*
X119212857Y-90585714D01*
X119403333Y-90538095D01*
X119641428Y-90538095D01*
X119831904Y-90585714D01*
X119927142Y-90633333D01*
X119974761Y-90680952D01*
X120022380Y-90776190D01*
X120022380Y-90871428D01*
X119974761Y-90966666D01*
X119927142Y-91014285D01*
X119831904Y-91061904D01*
X119641428Y-91109523D01*
X119403333Y-91109523D01*
X119212857Y-91061904D01*
X119117619Y-91014285D01*
X119070000Y-90966666D01*
X119022380Y-90871428D01*
%TO.C,R22*%
X115952380Y-135482857D02*
X115476190Y-135816190D01*
X115952380Y-136054285D02*
X114952380Y-136054285D01*
X114952380Y-135673333D01*
X115000000Y-135578095D01*
X115047619Y-135530476D01*
X115142857Y-135482857D01*
X115285714Y-135482857D01*
X115380952Y-135530476D01*
X115428571Y-135578095D01*
X115476190Y-135673333D01*
X115476190Y-136054285D01*
X115047619Y-135101904D02*
X115000000Y-135054285D01*
X114952380Y-134959047D01*
X114952380Y-134720952D01*
X115000000Y-134625714D01*
X115047619Y-134578095D01*
X115142857Y-134530476D01*
X115238095Y-134530476D01*
X115380952Y-134578095D01*
X115952380Y-135149523D01*
X115952380Y-134530476D01*
X115047619Y-134149523D02*
X115000000Y-134101904D01*
X114952380Y-134006666D01*
X114952380Y-133768571D01*
X115000000Y-133673333D01*
X115047619Y-133625714D01*
X115142857Y-133578095D01*
X115238095Y-133578095D01*
X115380952Y-133625714D01*
X115952380Y-134197142D01*
X115952380Y-133578095D01*
%TO.C,R43*%
X117382380Y-98742857D02*
X116906190Y-99076190D01*
X117382380Y-99314285D02*
X116382380Y-99314285D01*
X116382380Y-98933333D01*
X116430000Y-98838095D01*
X116477619Y-98790476D01*
X116572857Y-98742857D01*
X116715714Y-98742857D01*
X116810952Y-98790476D01*
X116858571Y-98838095D01*
X116906190Y-98933333D01*
X116906190Y-99314285D01*
X116715714Y-97885714D02*
X117382380Y-97885714D01*
X116334761Y-98123809D02*
X117049047Y-98361904D01*
X117049047Y-97742857D01*
X116382380Y-97457142D02*
X116382380Y-96838095D01*
X116763333Y-97171428D01*
X116763333Y-97028571D01*
X116810952Y-96933333D01*
X116858571Y-96885714D01*
X116953809Y-96838095D01*
X117191904Y-96838095D01*
X117287142Y-96885714D01*
X117334761Y-96933333D01*
X117382380Y-97028571D01*
X117382380Y-97314285D01*
X117334761Y-97409523D01*
X117287142Y-97457142D01*
%TO.C,C42*%
X136638392Y-96938392D02*
X136590773Y-96986011D01*
X136447916Y-97033630D01*
X136352678Y-97033630D01*
X136209821Y-96986011D01*
X136114583Y-96890773D01*
X136066964Y-96795535D01*
X136019345Y-96605059D01*
X136019345Y-96462202D01*
X136066964Y-96271726D01*
X136114583Y-96176488D01*
X136209821Y-96081250D01*
X136352678Y-96033630D01*
X136447916Y-96033630D01*
X136590773Y-96081250D01*
X136638392Y-96128869D01*
X137495535Y-96366964D02*
X137495535Y-97033630D01*
X137257440Y-95986011D02*
X137019345Y-96700297D01*
X137638392Y-96700297D01*
X137971726Y-96128869D02*
X138019345Y-96081250D01*
X138114583Y-96033630D01*
X138352678Y-96033630D01*
X138447916Y-96081250D01*
X138495535Y-96128869D01*
X138543154Y-96224107D01*
X138543154Y-96319345D01*
X138495535Y-96462202D01*
X137924107Y-97033630D01*
X138543154Y-97033630D01*
%TO.C,R39*%
X123633630Y-99524107D02*
X123157440Y-99857440D01*
X123633630Y-100095535D02*
X122633630Y-100095535D01*
X122633630Y-99714583D01*
X122681250Y-99619345D01*
X122728869Y-99571726D01*
X122824107Y-99524107D01*
X122966964Y-99524107D01*
X123062202Y-99571726D01*
X123109821Y-99619345D01*
X123157440Y-99714583D01*
X123157440Y-100095535D01*
X122633630Y-99190773D02*
X122633630Y-98571726D01*
X123014583Y-98905059D01*
X123014583Y-98762202D01*
X123062202Y-98666964D01*
X123109821Y-98619345D01*
X123205059Y-98571726D01*
X123443154Y-98571726D01*
X123538392Y-98619345D01*
X123586011Y-98666964D01*
X123633630Y-98762202D01*
X123633630Y-99047916D01*
X123586011Y-99143154D01*
X123538392Y-99190773D01*
X123633630Y-98095535D02*
X123633630Y-97905059D01*
X123586011Y-97809821D01*
X123538392Y-97762202D01*
X123395535Y-97666964D01*
X123205059Y-97619345D01*
X122824107Y-97619345D01*
X122728869Y-97666964D01*
X122681250Y-97714583D01*
X122633630Y-97809821D01*
X122633630Y-98000297D01*
X122681250Y-98095535D01*
X122728869Y-98143154D01*
X122824107Y-98190773D01*
X123062202Y-98190773D01*
X123157440Y-98143154D01*
X123205059Y-98095535D01*
X123252678Y-98000297D01*
X123252678Y-97809821D01*
X123205059Y-97714583D01*
X123157440Y-97666964D01*
X123062202Y-97619345D01*
%TO.C,R36*%
X125233630Y-99524107D02*
X124757440Y-99857440D01*
X125233630Y-100095535D02*
X124233630Y-100095535D01*
X124233630Y-99714583D01*
X124281250Y-99619345D01*
X124328869Y-99571726D01*
X124424107Y-99524107D01*
X124566964Y-99524107D01*
X124662202Y-99571726D01*
X124709821Y-99619345D01*
X124757440Y-99714583D01*
X124757440Y-100095535D01*
X124233630Y-99190773D02*
X124233630Y-98571726D01*
X124614583Y-98905059D01*
X124614583Y-98762202D01*
X124662202Y-98666964D01*
X124709821Y-98619345D01*
X124805059Y-98571726D01*
X125043154Y-98571726D01*
X125138392Y-98619345D01*
X125186011Y-98666964D01*
X125233630Y-98762202D01*
X125233630Y-99047916D01*
X125186011Y-99143154D01*
X125138392Y-99190773D01*
X124233630Y-97714583D02*
X124233630Y-97905059D01*
X124281250Y-98000297D01*
X124328869Y-98047916D01*
X124471726Y-98143154D01*
X124662202Y-98190773D01*
X125043154Y-98190773D01*
X125138392Y-98143154D01*
X125186011Y-98095535D01*
X125233630Y-98000297D01*
X125233630Y-97809821D01*
X125186011Y-97714583D01*
X125138392Y-97666964D01*
X125043154Y-97619345D01*
X124805059Y-97619345D01*
X124709821Y-97666964D01*
X124662202Y-97714583D01*
X124614583Y-97809821D01*
X124614583Y-98000297D01*
X124662202Y-98095535D01*
X124709821Y-98143154D01*
X124805059Y-98190773D01*
%TO.C,Y2*%
X169043809Y-138991190D02*
X169043809Y-139467380D01*
X168710476Y-138467380D02*
X169043809Y-138991190D01*
X169377142Y-138467380D01*
X169662857Y-138562619D02*
X169710476Y-138515000D01*
X169805714Y-138467380D01*
X170043809Y-138467380D01*
X170139047Y-138515000D01*
X170186666Y-138562619D01*
X170234285Y-138657857D01*
X170234285Y-138753095D01*
X170186666Y-138895952D01*
X169615238Y-139467380D01*
X170234285Y-139467380D01*
%TO.C,R32*%
X141482380Y-119442857D02*
X141006190Y-119776190D01*
X141482380Y-120014285D02*
X140482380Y-120014285D01*
X140482380Y-119633333D01*
X140530000Y-119538095D01*
X140577619Y-119490476D01*
X140672857Y-119442857D01*
X140815714Y-119442857D01*
X140910952Y-119490476D01*
X140958571Y-119538095D01*
X141006190Y-119633333D01*
X141006190Y-120014285D01*
X140482380Y-119109523D02*
X140482380Y-118490476D01*
X140863333Y-118823809D01*
X140863333Y-118680952D01*
X140910952Y-118585714D01*
X140958571Y-118538095D01*
X141053809Y-118490476D01*
X141291904Y-118490476D01*
X141387142Y-118538095D01*
X141434761Y-118585714D01*
X141482380Y-118680952D01*
X141482380Y-118966666D01*
X141434761Y-119061904D01*
X141387142Y-119109523D01*
X140577619Y-118109523D02*
X140530000Y-118061904D01*
X140482380Y-117966666D01*
X140482380Y-117728571D01*
X140530000Y-117633333D01*
X140577619Y-117585714D01*
X140672857Y-117538095D01*
X140768095Y-117538095D01*
X140910952Y-117585714D01*
X141482380Y-118157142D01*
X141482380Y-117538095D01*
%TO.C,U9*%
X129252380Y-114061904D02*
X130061904Y-114061904D01*
X130157142Y-114014285D01*
X130204761Y-113966666D01*
X130252380Y-113871428D01*
X130252380Y-113680952D01*
X130204761Y-113585714D01*
X130157142Y-113538095D01*
X130061904Y-113490476D01*
X129252380Y-113490476D01*
X130252380Y-112966666D02*
X130252380Y-112776190D01*
X130204761Y-112680952D01*
X130157142Y-112633333D01*
X130014285Y-112538095D01*
X129823809Y-112490476D01*
X129442857Y-112490476D01*
X129347619Y-112538095D01*
X129300000Y-112585714D01*
X129252380Y-112680952D01*
X129252380Y-112871428D01*
X129300000Y-112966666D01*
X129347619Y-113014285D01*
X129442857Y-113061904D01*
X129680952Y-113061904D01*
X129776190Y-113014285D01*
X129823809Y-112966666D01*
X129871428Y-112871428D01*
X129871428Y-112680952D01*
X129823809Y-112585714D01*
X129776190Y-112538095D01*
X129680952Y-112490476D01*
%TO.C,C46*%
X184657142Y-88257142D02*
X184609523Y-88304761D01*
X184466666Y-88352380D01*
X184371428Y-88352380D01*
X184228571Y-88304761D01*
X184133333Y-88209523D01*
X184085714Y-88114285D01*
X184038095Y-87923809D01*
X184038095Y-87780952D01*
X184085714Y-87590476D01*
X184133333Y-87495238D01*
X184228571Y-87400000D01*
X184371428Y-87352380D01*
X184466666Y-87352380D01*
X184609523Y-87400000D01*
X184657142Y-87447619D01*
X185514285Y-87685714D02*
X185514285Y-88352380D01*
X185276190Y-87304761D02*
X185038095Y-88019047D01*
X185657142Y-88019047D01*
X186466666Y-87352380D02*
X186276190Y-87352380D01*
X186180952Y-87400000D01*
X186133333Y-87447619D01*
X186038095Y-87590476D01*
X185990476Y-87780952D01*
X185990476Y-88161904D01*
X186038095Y-88257142D01*
X186085714Y-88304761D01*
X186180952Y-88352380D01*
X186371428Y-88352380D01*
X186466666Y-88304761D01*
X186514285Y-88257142D01*
X186561904Y-88161904D01*
X186561904Y-87923809D01*
X186514285Y-87828571D01*
X186466666Y-87780952D01*
X186371428Y-87733333D01*
X186180952Y-87733333D01*
X186085714Y-87780952D01*
X186038095Y-87828571D01*
X185990476Y-87923809D01*
%TO.C,U11*%
X160561904Y-132452380D02*
X160561904Y-133261904D01*
X160609523Y-133357142D01*
X160657142Y-133404761D01*
X160752380Y-133452380D01*
X160942857Y-133452380D01*
X161038095Y-133404761D01*
X161085714Y-133357142D01*
X161133333Y-133261904D01*
X161133333Y-132452380D01*
X162133333Y-133452380D02*
X161561904Y-133452380D01*
X161847619Y-133452380D02*
X161847619Y-132452380D01*
X161752380Y-132595238D01*
X161657142Y-132690476D01*
X161561904Y-132738095D01*
X163085714Y-133452380D02*
X162514285Y-133452380D01*
X162800000Y-133452380D02*
X162800000Y-132452380D01*
X162704761Y-132595238D01*
X162609523Y-132690476D01*
X162514285Y-132738095D01*
%TO.C,R2*%
X172333333Y-128552380D02*
X172000000Y-128076190D01*
X171761904Y-128552380D02*
X171761904Y-127552380D01*
X172142857Y-127552380D01*
X172238095Y-127600000D01*
X172285714Y-127647619D01*
X172333333Y-127742857D01*
X172333333Y-127885714D01*
X172285714Y-127980952D01*
X172238095Y-128028571D01*
X172142857Y-128076190D01*
X171761904Y-128076190D01*
X172714285Y-127647619D02*
X172761904Y-127600000D01*
X172857142Y-127552380D01*
X173095238Y-127552380D01*
X173190476Y-127600000D01*
X173238095Y-127647619D01*
X173285714Y-127742857D01*
X173285714Y-127838095D01*
X173238095Y-127980952D01*
X172666666Y-128552380D01*
X173285714Y-128552380D01*
%TO.C,C24*%
X113957142Y-120942857D02*
X114004761Y-120990476D01*
X114052380Y-121133333D01*
X114052380Y-121228571D01*
X114004761Y-121371428D01*
X113909523Y-121466666D01*
X113814285Y-121514285D01*
X113623809Y-121561904D01*
X113480952Y-121561904D01*
X113290476Y-121514285D01*
X113195238Y-121466666D01*
X113100000Y-121371428D01*
X113052380Y-121228571D01*
X113052380Y-121133333D01*
X113100000Y-120990476D01*
X113147619Y-120942857D01*
X113147619Y-120561904D02*
X113100000Y-120514285D01*
X113052380Y-120419047D01*
X113052380Y-120180952D01*
X113100000Y-120085714D01*
X113147619Y-120038095D01*
X113242857Y-119990476D01*
X113338095Y-119990476D01*
X113480952Y-120038095D01*
X114052380Y-120609523D01*
X114052380Y-119990476D01*
X113385714Y-119133333D02*
X114052380Y-119133333D01*
X113004761Y-119371428D02*
X113719047Y-119609523D01*
X113719047Y-118990476D01*
D12*
%TO.C,U13*%
X183827619Y-93004523D02*
X183827619Y-94032619D01*
X183888095Y-94153571D01*
X183948571Y-94214047D01*
X184069523Y-94274523D01*
X184311428Y-94274523D01*
X184432380Y-94214047D01*
X184492857Y-94153571D01*
X184553333Y-94032619D01*
X184553333Y-93004523D01*
X185823333Y-94274523D02*
X185097619Y-94274523D01*
X185460476Y-94274523D02*
X185460476Y-93004523D01*
X185339523Y-93185952D01*
X185218571Y-93306904D01*
X185097619Y-93367380D01*
X186246666Y-93004523D02*
X187032857Y-93004523D01*
X186609523Y-93488333D01*
X186790952Y-93488333D01*
X186911904Y-93548809D01*
X186972380Y-93609285D01*
X187032857Y-93730238D01*
X187032857Y-94032619D01*
X186972380Y-94153571D01*
X186911904Y-94214047D01*
X186790952Y-94274523D01*
X186428095Y-94274523D01*
X186307142Y-94214047D01*
X186246666Y-94153571D01*
D11*
%TO.C,C35*%
X130238392Y-108538392D02*
X130190773Y-108586011D01*
X130047916Y-108633630D01*
X129952678Y-108633630D01*
X129809821Y-108586011D01*
X129714583Y-108490773D01*
X129666964Y-108395535D01*
X129619345Y-108205059D01*
X129619345Y-108062202D01*
X129666964Y-107871726D01*
X129714583Y-107776488D01*
X129809821Y-107681250D01*
X129952678Y-107633630D01*
X130047916Y-107633630D01*
X130190773Y-107681250D01*
X130238392Y-107728869D01*
X130571726Y-107633630D02*
X131190773Y-107633630D01*
X130857440Y-108014583D01*
X131000297Y-108014583D01*
X131095535Y-108062202D01*
X131143154Y-108109821D01*
X131190773Y-108205059D01*
X131190773Y-108443154D01*
X131143154Y-108538392D01*
X131095535Y-108586011D01*
X131000297Y-108633630D01*
X130714583Y-108633630D01*
X130619345Y-108586011D01*
X130571726Y-108538392D01*
X132095535Y-107633630D02*
X131619345Y-107633630D01*
X131571726Y-108109821D01*
X131619345Y-108062202D01*
X131714583Y-108014583D01*
X131952678Y-108014583D01*
X132047916Y-108062202D01*
X132095535Y-108109821D01*
X132143154Y-108205059D01*
X132143154Y-108443154D01*
X132095535Y-108538392D01*
X132047916Y-108586011D01*
X131952678Y-108633630D01*
X131714583Y-108633630D01*
X131619345Y-108586011D01*
X131571726Y-108538392D01*
%TO.C,C48*%
X163057142Y-131142857D02*
X163104761Y-131190476D01*
X163152380Y-131333333D01*
X163152380Y-131428571D01*
X163104761Y-131571428D01*
X163009523Y-131666666D01*
X162914285Y-131714285D01*
X162723809Y-131761904D01*
X162580952Y-131761904D01*
X162390476Y-131714285D01*
X162295238Y-131666666D01*
X162200000Y-131571428D01*
X162152380Y-131428571D01*
X162152380Y-131333333D01*
X162200000Y-131190476D01*
X162247619Y-131142857D01*
X162485714Y-130285714D02*
X163152380Y-130285714D01*
X162104761Y-130523809D02*
X162819047Y-130761904D01*
X162819047Y-130142857D01*
X162580952Y-129619047D02*
X162533333Y-129714285D01*
X162485714Y-129761904D01*
X162390476Y-129809523D01*
X162342857Y-129809523D01*
X162247619Y-129761904D01*
X162200000Y-129714285D01*
X162152380Y-129619047D01*
X162152380Y-129428571D01*
X162200000Y-129333333D01*
X162247619Y-129285714D01*
X162342857Y-129238095D01*
X162390476Y-129238095D01*
X162485714Y-129285714D01*
X162533333Y-129333333D01*
X162580952Y-129428571D01*
X162580952Y-129619047D01*
X162628571Y-129714285D01*
X162676190Y-129761904D01*
X162771428Y-129809523D01*
X162961904Y-129809523D01*
X163057142Y-129761904D01*
X163104761Y-129714285D01*
X163152380Y-129619047D01*
X163152380Y-129428571D01*
X163104761Y-129333333D01*
X163057142Y-129285714D01*
X162961904Y-129238095D01*
X162771428Y-129238095D01*
X162676190Y-129285714D01*
X162628571Y-129333333D01*
X162580952Y-129428571D01*
%TO.C,H2*%
X104238095Y-86652380D02*
X104238095Y-85652380D01*
X104238095Y-86128571D02*
X104809523Y-86128571D01*
X104809523Y-86652380D02*
X104809523Y-85652380D01*
X105238095Y-85747619D02*
X105285714Y-85700000D01*
X105380952Y-85652380D01*
X105619047Y-85652380D01*
X105714285Y-85700000D01*
X105761904Y-85747619D01*
X105809523Y-85842857D01*
X105809523Y-85938095D01*
X105761904Y-86080952D01*
X105190476Y-86652380D01*
X105809523Y-86652380D01*
%TO.C,C31*%
X122457142Y-117857142D02*
X122409523Y-117904761D01*
X122266666Y-117952380D01*
X122171428Y-117952380D01*
X122028571Y-117904761D01*
X121933333Y-117809523D01*
X121885714Y-117714285D01*
X121838095Y-117523809D01*
X121838095Y-117380952D01*
X121885714Y-117190476D01*
X121933333Y-117095238D01*
X122028571Y-117000000D01*
X122171428Y-116952380D01*
X122266666Y-116952380D01*
X122409523Y-117000000D01*
X122457142Y-117047619D01*
X122790476Y-116952380D02*
X123409523Y-116952380D01*
X123076190Y-117333333D01*
X123219047Y-117333333D01*
X123314285Y-117380952D01*
X123361904Y-117428571D01*
X123409523Y-117523809D01*
X123409523Y-117761904D01*
X123361904Y-117857142D01*
X123314285Y-117904761D01*
X123219047Y-117952380D01*
X122933333Y-117952380D01*
X122838095Y-117904761D01*
X122790476Y-117857142D01*
X124361904Y-117952380D02*
X123790476Y-117952380D01*
X124076190Y-117952380D02*
X124076190Y-116952380D01*
X123980952Y-117095238D01*
X123885714Y-117190476D01*
X123790476Y-117238095D01*
%TO.C,R14*%
X135552380Y-117342857D02*
X135076190Y-117676190D01*
X135552380Y-117914285D02*
X134552380Y-117914285D01*
X134552380Y-117533333D01*
X134600000Y-117438095D01*
X134647619Y-117390476D01*
X134742857Y-117342857D01*
X134885714Y-117342857D01*
X134980952Y-117390476D01*
X135028571Y-117438095D01*
X135076190Y-117533333D01*
X135076190Y-117914285D01*
X135552380Y-116390476D02*
X135552380Y-116961904D01*
X135552380Y-116676190D02*
X134552380Y-116676190D01*
X134695238Y-116771428D01*
X134790476Y-116866666D01*
X134838095Y-116961904D01*
X134885714Y-115533333D02*
X135552380Y-115533333D01*
X134504761Y-115771428D02*
X135219047Y-116009523D01*
X135219047Y-115390476D01*
%TO.C,U20*%
X126133630Y-102357579D02*
X126943154Y-102357579D01*
X127038392Y-102309960D01*
X127086011Y-102262341D01*
X127133630Y-102167103D01*
X127133630Y-101976626D01*
X127086011Y-101881388D01*
X127038392Y-101833769D01*
X126943154Y-101786150D01*
X126133630Y-101786150D01*
X126228869Y-101357579D02*
X126181250Y-101309960D01*
X126133630Y-101214722D01*
X126133630Y-100976626D01*
X126181250Y-100881388D01*
X126228869Y-100833769D01*
X126324107Y-100786150D01*
X126419345Y-100786150D01*
X126562202Y-100833769D01*
X127133630Y-101405198D01*
X127133630Y-100786150D01*
X126133630Y-100167103D02*
X126133630Y-100071864D01*
X126181250Y-99976626D01*
X126228869Y-99929007D01*
X126324107Y-99881388D01*
X126514583Y-99833769D01*
X126752678Y-99833769D01*
X126943154Y-99881388D01*
X127038392Y-99929007D01*
X127086011Y-99976626D01*
X127133630Y-100071864D01*
X127133630Y-100167103D01*
X127086011Y-100262341D01*
X127038392Y-100309960D01*
X126943154Y-100357579D01*
X126752678Y-100405198D01*
X126514583Y-100405198D01*
X126324107Y-100357579D01*
X126228869Y-100309960D01*
X126181250Y-100262341D01*
X126133630Y-100167103D01*
X129028150Y-100766964D02*
X129028150Y-101005060D01*
X128790054Y-100909822D02*
X129028150Y-101005060D01*
X129266245Y-100909822D01*
X128885292Y-101195536D02*
X129028150Y-101005060D01*
X129171007Y-101195536D01*
%TO.C,C21*%
X169057142Y-142757142D02*
X169009523Y-142804761D01*
X168866666Y-142852380D01*
X168771428Y-142852380D01*
X168628571Y-142804761D01*
X168533333Y-142709523D01*
X168485714Y-142614285D01*
X168438095Y-142423809D01*
X168438095Y-142280952D01*
X168485714Y-142090476D01*
X168533333Y-141995238D01*
X168628571Y-141900000D01*
X168771428Y-141852380D01*
X168866666Y-141852380D01*
X169009523Y-141900000D01*
X169057142Y-141947619D01*
X169438095Y-141947619D02*
X169485714Y-141900000D01*
X169580952Y-141852380D01*
X169819047Y-141852380D01*
X169914285Y-141900000D01*
X169961904Y-141947619D01*
X170009523Y-142042857D01*
X170009523Y-142138095D01*
X169961904Y-142280952D01*
X169390476Y-142852380D01*
X170009523Y-142852380D01*
X170961904Y-142852380D02*
X170390476Y-142852380D01*
X170676190Y-142852380D02*
X170676190Y-141852380D01*
X170580952Y-141995238D01*
X170485714Y-142090476D01*
X170390476Y-142138095D01*
%TO.C,C5*%
X154057142Y-94266666D02*
X154104761Y-94314285D01*
X154152380Y-94457142D01*
X154152380Y-94552380D01*
X154104761Y-94695238D01*
X154009523Y-94790476D01*
X153914285Y-94838095D01*
X153723809Y-94885714D01*
X153580952Y-94885714D01*
X153390476Y-94838095D01*
X153295238Y-94790476D01*
X153200000Y-94695238D01*
X153152380Y-94552380D01*
X153152380Y-94457142D01*
X153200000Y-94314285D01*
X153247619Y-94266666D01*
X153152380Y-93361904D02*
X153152380Y-93838095D01*
X153628571Y-93885714D01*
X153580952Y-93838095D01*
X153533333Y-93742857D01*
X153533333Y-93504761D01*
X153580952Y-93409523D01*
X153628571Y-93361904D01*
X153723809Y-93314285D01*
X153961904Y-93314285D01*
X154057142Y-93361904D01*
X154104761Y-93409523D01*
X154152380Y-93504761D01*
X154152380Y-93742857D01*
X154104761Y-93838095D01*
X154057142Y-93885714D01*
%TO.C,R12*%
X160657142Y-97352380D02*
X160323809Y-96876190D01*
X160085714Y-97352380D02*
X160085714Y-96352380D01*
X160466666Y-96352380D01*
X160561904Y-96400000D01*
X160609523Y-96447619D01*
X160657142Y-96542857D01*
X160657142Y-96685714D01*
X160609523Y-96780952D01*
X160561904Y-96828571D01*
X160466666Y-96876190D01*
X160085714Y-96876190D01*
X161609523Y-97352380D02*
X161038095Y-97352380D01*
X161323809Y-97352380D02*
X161323809Y-96352380D01*
X161228571Y-96495238D01*
X161133333Y-96590476D01*
X161038095Y-96638095D01*
X161990476Y-96447619D02*
X162038095Y-96400000D01*
X162133333Y-96352380D01*
X162371428Y-96352380D01*
X162466666Y-96400000D01*
X162514285Y-96447619D01*
X162561904Y-96542857D01*
X162561904Y-96638095D01*
X162514285Y-96780952D01*
X161942857Y-97352380D01*
X162561904Y-97352380D01*
%TO.C,C4*%
X155682142Y-94244166D02*
X155729761Y-94291785D01*
X155777380Y-94434642D01*
X155777380Y-94529880D01*
X155729761Y-94672738D01*
X155634523Y-94767976D01*
X155539285Y-94815595D01*
X155348809Y-94863214D01*
X155205952Y-94863214D01*
X155015476Y-94815595D01*
X154920238Y-94767976D01*
X154825000Y-94672738D01*
X154777380Y-94529880D01*
X154777380Y-94434642D01*
X154825000Y-94291785D01*
X154872619Y-94244166D01*
X155110714Y-93387023D02*
X155777380Y-93387023D01*
X154729761Y-93625119D02*
X155444047Y-93863214D01*
X155444047Y-93244166D01*
%TO.C,R16*%
X180332142Y-144122380D02*
X179998809Y-143646190D01*
X179760714Y-144122380D02*
X179760714Y-143122380D01*
X180141666Y-143122380D01*
X180236904Y-143170000D01*
X180284523Y-143217619D01*
X180332142Y-143312857D01*
X180332142Y-143455714D01*
X180284523Y-143550952D01*
X180236904Y-143598571D01*
X180141666Y-143646190D01*
X179760714Y-143646190D01*
X181284523Y-144122380D02*
X180713095Y-144122380D01*
X180998809Y-144122380D02*
X180998809Y-143122380D01*
X180903571Y-143265238D01*
X180808333Y-143360476D01*
X180713095Y-143408095D01*
X182141666Y-143122380D02*
X181951190Y-143122380D01*
X181855952Y-143170000D01*
X181808333Y-143217619D01*
X181713095Y-143360476D01*
X181665476Y-143550952D01*
X181665476Y-143931904D01*
X181713095Y-144027142D01*
X181760714Y-144074761D01*
X181855952Y-144122380D01*
X182046428Y-144122380D01*
X182141666Y-144074761D01*
X182189285Y-144027142D01*
X182236904Y-143931904D01*
X182236904Y-143693809D01*
X182189285Y-143598571D01*
X182141666Y-143550952D01*
X182046428Y-143503333D01*
X181855952Y-143503333D01*
X181760714Y-143550952D01*
X181713095Y-143598571D01*
X181665476Y-143693809D01*
%TO.C,C27*%
X118557142Y-125542857D02*
X118604761Y-125590476D01*
X118652380Y-125733333D01*
X118652380Y-125828571D01*
X118604761Y-125971428D01*
X118509523Y-126066666D01*
X118414285Y-126114285D01*
X118223809Y-126161904D01*
X118080952Y-126161904D01*
X117890476Y-126114285D01*
X117795238Y-126066666D01*
X117700000Y-125971428D01*
X117652380Y-125828571D01*
X117652380Y-125733333D01*
X117700000Y-125590476D01*
X117747619Y-125542857D01*
X117747619Y-125161904D02*
X117700000Y-125114285D01*
X117652380Y-125019047D01*
X117652380Y-124780952D01*
X117700000Y-124685714D01*
X117747619Y-124638095D01*
X117842857Y-124590476D01*
X117938095Y-124590476D01*
X118080952Y-124638095D01*
X118652380Y-125209523D01*
X118652380Y-124590476D01*
X117652380Y-124257142D02*
X117652380Y-123590476D01*
X118652380Y-124019047D01*
%TO.C,R25*%
X126952380Y-124642857D02*
X126476190Y-124976190D01*
X126952380Y-125214285D02*
X125952380Y-125214285D01*
X125952380Y-124833333D01*
X126000000Y-124738095D01*
X126047619Y-124690476D01*
X126142857Y-124642857D01*
X126285714Y-124642857D01*
X126380952Y-124690476D01*
X126428571Y-124738095D01*
X126476190Y-124833333D01*
X126476190Y-125214285D01*
X126047619Y-124261904D02*
X126000000Y-124214285D01*
X125952380Y-124119047D01*
X125952380Y-123880952D01*
X126000000Y-123785714D01*
X126047619Y-123738095D01*
X126142857Y-123690476D01*
X126238095Y-123690476D01*
X126380952Y-123738095D01*
X126952380Y-124309523D01*
X126952380Y-123690476D01*
X125952380Y-122785714D02*
X125952380Y-123261904D01*
X126428571Y-123309523D01*
X126380952Y-123261904D01*
X126333333Y-123166666D01*
X126333333Y-122928571D01*
X126380952Y-122833333D01*
X126428571Y-122785714D01*
X126523809Y-122738095D01*
X126761904Y-122738095D01*
X126857142Y-122785714D01*
X126904761Y-122833333D01*
X126952380Y-122928571D01*
X126952380Y-123166666D01*
X126904761Y-123261904D01*
X126857142Y-123309523D01*
%TO.C,L5*%
X147332380Y-112201666D02*
X147332380Y-112677857D01*
X146332380Y-112677857D01*
X146332380Y-111392142D02*
X146332380Y-111868333D01*
X146808571Y-111915952D01*
X146760952Y-111868333D01*
X146713333Y-111773095D01*
X146713333Y-111535000D01*
X146760952Y-111439761D01*
X146808571Y-111392142D01*
X146903809Y-111344523D01*
X147141904Y-111344523D01*
X147237142Y-111392142D01*
X147284761Y-111439761D01*
X147332380Y-111535000D01*
X147332380Y-111773095D01*
X147284761Y-111868333D01*
X147237142Y-111915952D01*
%TO.C,C19*%
X127257142Y-92557142D02*
X127209523Y-92604761D01*
X127066666Y-92652380D01*
X126971428Y-92652380D01*
X126828571Y-92604761D01*
X126733333Y-92509523D01*
X126685714Y-92414285D01*
X126638095Y-92223809D01*
X126638095Y-92080952D01*
X126685714Y-91890476D01*
X126733333Y-91795238D01*
X126828571Y-91700000D01*
X126971428Y-91652380D01*
X127066666Y-91652380D01*
X127209523Y-91700000D01*
X127257142Y-91747619D01*
X128209523Y-92652380D02*
X127638095Y-92652380D01*
X127923809Y-92652380D02*
X127923809Y-91652380D01*
X127828571Y-91795238D01*
X127733333Y-91890476D01*
X127638095Y-91938095D01*
X128685714Y-92652380D02*
X128876190Y-92652380D01*
X128971428Y-92604761D01*
X129019047Y-92557142D01*
X129114285Y-92414285D01*
X129161904Y-92223809D01*
X129161904Y-91842857D01*
X129114285Y-91747619D01*
X129066666Y-91700000D01*
X128971428Y-91652380D01*
X128780952Y-91652380D01*
X128685714Y-91700000D01*
X128638095Y-91747619D01*
X128590476Y-91842857D01*
X128590476Y-92080952D01*
X128638095Y-92176190D01*
X128685714Y-92223809D01*
X128780952Y-92271428D01*
X128971428Y-92271428D01*
X129066666Y-92223809D01*
X129114285Y-92176190D01*
X129161904Y-92080952D01*
%TO.C,C32*%
X128057142Y-123557142D02*
X128009523Y-123604761D01*
X127866666Y-123652380D01*
X127771428Y-123652380D01*
X127628571Y-123604761D01*
X127533333Y-123509523D01*
X127485714Y-123414285D01*
X127438095Y-123223809D01*
X127438095Y-123080952D01*
X127485714Y-122890476D01*
X127533333Y-122795238D01*
X127628571Y-122700000D01*
X127771428Y-122652380D01*
X127866666Y-122652380D01*
X128009523Y-122700000D01*
X128057142Y-122747619D01*
X128390476Y-122652380D02*
X129009523Y-122652380D01*
X128676190Y-123033333D01*
X128819047Y-123033333D01*
X128914285Y-123080952D01*
X128961904Y-123128571D01*
X129009523Y-123223809D01*
X129009523Y-123461904D01*
X128961904Y-123557142D01*
X128914285Y-123604761D01*
X128819047Y-123652380D01*
X128533333Y-123652380D01*
X128438095Y-123604761D01*
X128390476Y-123557142D01*
X129390476Y-122747619D02*
X129438095Y-122700000D01*
X129533333Y-122652380D01*
X129771428Y-122652380D01*
X129866666Y-122700000D01*
X129914285Y-122747619D01*
X129961904Y-122842857D01*
X129961904Y-122938095D01*
X129914285Y-123080952D01*
X129342857Y-123652380D01*
X129961904Y-123652380D01*
%TO.C,R21*%
X115952380Y-138582857D02*
X115476190Y-138916190D01*
X115952380Y-139154285D02*
X114952380Y-139154285D01*
X114952380Y-138773333D01*
X115000000Y-138678095D01*
X115047619Y-138630476D01*
X115142857Y-138582857D01*
X115285714Y-138582857D01*
X115380952Y-138630476D01*
X115428571Y-138678095D01*
X115476190Y-138773333D01*
X115476190Y-139154285D01*
X115047619Y-138201904D02*
X115000000Y-138154285D01*
X114952380Y-138059047D01*
X114952380Y-137820952D01*
X115000000Y-137725714D01*
X115047619Y-137678095D01*
X115142857Y-137630476D01*
X115238095Y-137630476D01*
X115380952Y-137678095D01*
X115952380Y-138249523D01*
X115952380Y-137630476D01*
X115952380Y-136678095D02*
X115952380Y-137249523D01*
X115952380Y-136963809D02*
X114952380Y-136963809D01*
X115095238Y-137059047D01*
X115190476Y-137154285D01*
X115238095Y-137249523D01*
%TO.C,D8*%
X124661904Y-87652380D02*
X124661904Y-86652380D01*
X124900000Y-86652380D01*
X125042857Y-86700000D01*
X125138095Y-86795238D01*
X125185714Y-86890476D01*
X125233333Y-87080952D01*
X125233333Y-87223809D01*
X125185714Y-87414285D01*
X125138095Y-87509523D01*
X125042857Y-87604761D01*
X124900000Y-87652380D01*
X124661904Y-87652380D01*
X125804761Y-87080952D02*
X125709523Y-87033333D01*
X125661904Y-86985714D01*
X125614285Y-86890476D01*
X125614285Y-86842857D01*
X125661904Y-86747619D01*
X125709523Y-86700000D01*
X125804761Y-86652380D01*
X125995238Y-86652380D01*
X126090476Y-86700000D01*
X126138095Y-86747619D01*
X126185714Y-86842857D01*
X126185714Y-86890476D01*
X126138095Y-86985714D01*
X126090476Y-87033333D01*
X125995238Y-87080952D01*
X125804761Y-87080952D01*
X125709523Y-87128571D01*
X125661904Y-87176190D01*
X125614285Y-87271428D01*
X125614285Y-87461904D01*
X125661904Y-87557142D01*
X125709523Y-87604761D01*
X125804761Y-87652380D01*
X125995238Y-87652380D01*
X126090476Y-87604761D01*
X126138095Y-87557142D01*
X126185714Y-87461904D01*
X126185714Y-87271428D01*
X126138095Y-87176190D01*
X126090476Y-87128571D01*
X125995238Y-87080952D01*
%TO.C,R4*%
X146514380Y-106041666D02*
X146038190Y-106375000D01*
X146514380Y-106613095D02*
X145514380Y-106613095D01*
X145514380Y-106232142D01*
X145562000Y-106136904D01*
X145609619Y-106089285D01*
X145704857Y-106041666D01*
X145847714Y-106041666D01*
X145942952Y-106089285D01*
X145990571Y-106136904D01*
X146038190Y-106232142D01*
X146038190Y-106613095D01*
X145847714Y-105184523D02*
X146514380Y-105184523D01*
X145466761Y-105422619D02*
X146181047Y-105660714D01*
X146181047Y-105041666D01*
%TO.C,L1*%
X172152380Y-94266666D02*
X172152380Y-94742857D01*
X171152380Y-94742857D01*
X172152380Y-93409523D02*
X172152380Y-93980952D01*
X172152380Y-93695238D02*
X171152380Y-93695238D01*
X171295238Y-93790476D01*
X171390476Y-93885714D01*
X171438095Y-93980952D01*
%TO.C,C13*%
X160757142Y-99157142D02*
X160709523Y-99204761D01*
X160566666Y-99252380D01*
X160471428Y-99252380D01*
X160328571Y-99204761D01*
X160233333Y-99109523D01*
X160185714Y-99014285D01*
X160138095Y-98823809D01*
X160138095Y-98680952D01*
X160185714Y-98490476D01*
X160233333Y-98395238D01*
X160328571Y-98300000D01*
X160471428Y-98252380D01*
X160566666Y-98252380D01*
X160709523Y-98300000D01*
X160757142Y-98347619D01*
X161709523Y-99252380D02*
X161138095Y-99252380D01*
X161423809Y-99252380D02*
X161423809Y-98252380D01*
X161328571Y-98395238D01*
X161233333Y-98490476D01*
X161138095Y-98538095D01*
X162042857Y-98252380D02*
X162661904Y-98252380D01*
X162328571Y-98633333D01*
X162471428Y-98633333D01*
X162566666Y-98680952D01*
X162614285Y-98728571D01*
X162661904Y-98823809D01*
X162661904Y-99061904D01*
X162614285Y-99157142D01*
X162566666Y-99204761D01*
X162471428Y-99252380D01*
X162185714Y-99252380D01*
X162090476Y-99204761D01*
X162042857Y-99157142D01*
%TO.C,C2*%
X179233333Y-92057142D02*
X179185714Y-92104761D01*
X179042857Y-92152380D01*
X178947619Y-92152380D01*
X178804761Y-92104761D01*
X178709523Y-92009523D01*
X178661904Y-91914285D01*
X178614285Y-91723809D01*
X178614285Y-91580952D01*
X178661904Y-91390476D01*
X178709523Y-91295238D01*
X178804761Y-91200000D01*
X178947619Y-91152380D01*
X179042857Y-91152380D01*
X179185714Y-91200000D01*
X179233333Y-91247619D01*
X179614285Y-91247619D02*
X179661904Y-91200000D01*
X179757142Y-91152380D01*
X179995238Y-91152380D01*
X180090476Y-91200000D01*
X180138095Y-91247619D01*
X180185714Y-91342857D01*
X180185714Y-91438095D01*
X180138095Y-91580952D01*
X179566666Y-92152380D01*
X180185714Y-92152380D01*
%TO.C,R6*%
X142022380Y-106066666D02*
X141546190Y-106400000D01*
X142022380Y-106638095D02*
X141022380Y-106638095D01*
X141022380Y-106257142D01*
X141070000Y-106161904D01*
X141117619Y-106114285D01*
X141212857Y-106066666D01*
X141355714Y-106066666D01*
X141450952Y-106114285D01*
X141498571Y-106161904D01*
X141546190Y-106257142D01*
X141546190Y-106638095D01*
X141022380Y-105209523D02*
X141022380Y-105400000D01*
X141070000Y-105495238D01*
X141117619Y-105542857D01*
X141260476Y-105638095D01*
X141450952Y-105685714D01*
X141831904Y-105685714D01*
X141927142Y-105638095D01*
X141974761Y-105590476D01*
X142022380Y-105495238D01*
X142022380Y-105304761D01*
X141974761Y-105209523D01*
X141927142Y-105161904D01*
X141831904Y-105114285D01*
X141593809Y-105114285D01*
X141498571Y-105161904D01*
X141450952Y-105209523D01*
X141403333Y-105304761D01*
X141403333Y-105495238D01*
X141450952Y-105590476D01*
X141498571Y-105638095D01*
X141593809Y-105685714D01*
%TO.C,H3*%
X194238095Y-86652380D02*
X194238095Y-85652380D01*
X194238095Y-86128571D02*
X194809523Y-86128571D01*
X194809523Y-86652380D02*
X194809523Y-85652380D01*
X195190476Y-85652380D02*
X195809523Y-85652380D01*
X195476190Y-86033333D01*
X195619047Y-86033333D01*
X195714285Y-86080952D01*
X195761904Y-86128571D01*
X195809523Y-86223809D01*
X195809523Y-86461904D01*
X195761904Y-86557142D01*
X195714285Y-86604761D01*
X195619047Y-86652380D01*
X195333333Y-86652380D01*
X195238095Y-86604761D01*
X195190476Y-86557142D01*
%TO.C,C30*%
X125957142Y-118642857D02*
X126004761Y-118690476D01*
X126052380Y-118833333D01*
X126052380Y-118928571D01*
X126004761Y-119071428D01*
X125909523Y-119166666D01*
X125814285Y-119214285D01*
X125623809Y-119261904D01*
X125480952Y-119261904D01*
X125290476Y-119214285D01*
X125195238Y-119166666D01*
X125100000Y-119071428D01*
X125052380Y-118928571D01*
X125052380Y-118833333D01*
X125100000Y-118690476D01*
X125147619Y-118642857D01*
X125052380Y-118309523D02*
X125052380Y-117690476D01*
X125433333Y-118023809D01*
X125433333Y-117880952D01*
X125480952Y-117785714D01*
X125528571Y-117738095D01*
X125623809Y-117690476D01*
X125861904Y-117690476D01*
X125957142Y-117738095D01*
X126004761Y-117785714D01*
X126052380Y-117880952D01*
X126052380Y-118166666D01*
X126004761Y-118261904D01*
X125957142Y-118309523D01*
X125052380Y-117071428D02*
X125052380Y-116976190D01*
X125100000Y-116880952D01*
X125147619Y-116833333D01*
X125242857Y-116785714D01*
X125433333Y-116738095D01*
X125671428Y-116738095D01*
X125861904Y-116785714D01*
X125957142Y-116833333D01*
X126004761Y-116880952D01*
X126052380Y-116976190D01*
X126052380Y-117071428D01*
X126004761Y-117166666D01*
X125957142Y-117214285D01*
X125861904Y-117261904D01*
X125671428Y-117309523D01*
X125433333Y-117309523D01*
X125242857Y-117261904D01*
X125147619Y-117214285D01*
X125100000Y-117166666D01*
X125052380Y-117071428D01*
%TO.C,C25*%
X123757142Y-108592857D02*
X123804761Y-108640476D01*
X123852380Y-108783333D01*
X123852380Y-108878571D01*
X123804761Y-109021428D01*
X123709523Y-109116666D01*
X123614285Y-109164285D01*
X123423809Y-109211904D01*
X123280952Y-109211904D01*
X123090476Y-109164285D01*
X122995238Y-109116666D01*
X122900000Y-109021428D01*
X122852380Y-108878571D01*
X122852380Y-108783333D01*
X122900000Y-108640476D01*
X122947619Y-108592857D01*
X122947619Y-108211904D02*
X122900000Y-108164285D01*
X122852380Y-108069047D01*
X122852380Y-107830952D01*
X122900000Y-107735714D01*
X122947619Y-107688095D01*
X123042857Y-107640476D01*
X123138095Y-107640476D01*
X123280952Y-107688095D01*
X123852380Y-108259523D01*
X123852380Y-107640476D01*
X122852380Y-106735714D02*
X122852380Y-107211904D01*
X123328571Y-107259523D01*
X123280952Y-107211904D01*
X123233333Y-107116666D01*
X123233333Y-106878571D01*
X123280952Y-106783333D01*
X123328571Y-106735714D01*
X123423809Y-106688095D01*
X123661904Y-106688095D01*
X123757142Y-106735714D01*
X123804761Y-106783333D01*
X123852380Y-106878571D01*
X123852380Y-107116666D01*
X123804761Y-107211904D01*
X123757142Y-107259523D01*
%TO.C,U6*%
X123538095Y-123452380D02*
X123538095Y-124261904D01*
X123585714Y-124357142D01*
X123633333Y-124404761D01*
X123728571Y-124452380D01*
X123919047Y-124452380D01*
X124014285Y-124404761D01*
X124061904Y-124357142D01*
X124109523Y-124261904D01*
X124109523Y-123452380D01*
X125014285Y-123452380D02*
X124823809Y-123452380D01*
X124728571Y-123500000D01*
X124680952Y-123547619D01*
X124585714Y-123690476D01*
X124538095Y-123880952D01*
X124538095Y-124261904D01*
X124585714Y-124357142D01*
X124633333Y-124404761D01*
X124728571Y-124452380D01*
X124919047Y-124452380D01*
X125014285Y-124404761D01*
X125061904Y-124357142D01*
X125109523Y-124261904D01*
X125109523Y-124023809D01*
X125061904Y-123928571D01*
X125014285Y-123880952D01*
X124919047Y-123833333D01*
X124728571Y-123833333D01*
X124633333Y-123880952D01*
X124585714Y-123928571D01*
X124538095Y-124023809D01*
%TO.C,C49*%
X184657142Y-92057142D02*
X184609523Y-92104761D01*
X184466666Y-92152380D01*
X184371428Y-92152380D01*
X184228571Y-92104761D01*
X184133333Y-92009523D01*
X184085714Y-91914285D01*
X184038095Y-91723809D01*
X184038095Y-91580952D01*
X184085714Y-91390476D01*
X184133333Y-91295238D01*
X184228571Y-91200000D01*
X184371428Y-91152380D01*
X184466666Y-91152380D01*
X184609523Y-91200000D01*
X184657142Y-91247619D01*
X185514285Y-91485714D02*
X185514285Y-92152380D01*
X185276190Y-91104761D02*
X185038095Y-91819047D01*
X185657142Y-91819047D01*
X186085714Y-92152380D02*
X186276190Y-92152380D01*
X186371428Y-92104761D01*
X186419047Y-92057142D01*
X186514285Y-91914285D01*
X186561904Y-91723809D01*
X186561904Y-91342857D01*
X186514285Y-91247619D01*
X186466666Y-91200000D01*
X186371428Y-91152380D01*
X186180952Y-91152380D01*
X186085714Y-91200000D01*
X186038095Y-91247619D01*
X185990476Y-91342857D01*
X185990476Y-91580952D01*
X186038095Y-91676190D01*
X186085714Y-91723809D01*
X186180952Y-91771428D01*
X186371428Y-91771428D01*
X186466666Y-91723809D01*
X186514285Y-91676190D01*
X186561904Y-91580952D01*
%TO.C,J7*%
X101652380Y-136033333D02*
X102366666Y-136033333D01*
X102509523Y-136080952D01*
X102604761Y-136176190D01*
X102652380Y-136319047D01*
X102652380Y-136414285D01*
X101652380Y-135652380D02*
X101652380Y-134985714D01*
X102652380Y-135414285D01*
X109547932Y-125000000D02*
X109786028Y-125000000D01*
X109690790Y-125238095D02*
X109786028Y-125000000D01*
X109690790Y-124761904D01*
X109976504Y-125142857D02*
X109786028Y-125000000D01*
X109976504Y-124857142D01*
%TO.C,R33*%
X120652380Y-113142857D02*
X120176190Y-113476190D01*
X120652380Y-113714285D02*
X119652380Y-113714285D01*
X119652380Y-113333333D01*
X119700000Y-113238095D01*
X119747619Y-113190476D01*
X119842857Y-113142857D01*
X119985714Y-113142857D01*
X120080952Y-113190476D01*
X120128571Y-113238095D01*
X120176190Y-113333333D01*
X120176190Y-113714285D01*
X119652380Y-112809523D02*
X119652380Y-112190476D01*
X120033333Y-112523809D01*
X120033333Y-112380952D01*
X120080952Y-112285714D01*
X120128571Y-112238095D01*
X120223809Y-112190476D01*
X120461904Y-112190476D01*
X120557142Y-112238095D01*
X120604761Y-112285714D01*
X120652380Y-112380952D01*
X120652380Y-112666666D01*
X120604761Y-112761904D01*
X120557142Y-112809523D01*
X119652380Y-111857142D02*
X119652380Y-111238095D01*
X120033333Y-111571428D01*
X120033333Y-111428571D01*
X120080952Y-111333333D01*
X120128571Y-111285714D01*
X120223809Y-111238095D01*
X120461904Y-111238095D01*
X120557142Y-111285714D01*
X120604761Y-111333333D01*
X120652380Y-111428571D01*
X120652380Y-111714285D01*
X120604761Y-111809523D01*
X120557142Y-111857142D01*
%TO.C,U4*%
X195152380Y-119561904D02*
X195961904Y-119561904D01*
X196057142Y-119514285D01*
X196104761Y-119466666D01*
X196152380Y-119371428D01*
X196152380Y-119180952D01*
X196104761Y-119085714D01*
X196057142Y-119038095D01*
X195961904Y-118990476D01*
X195152380Y-118990476D01*
X195485714Y-118085714D02*
X196152380Y-118085714D01*
X195104761Y-118323809D02*
X195819047Y-118561904D01*
X195819047Y-117942857D01*
%TO.C,U1*%
X178760060Y-89450043D02*
X178760060Y-89959979D01*
X178790056Y-90019971D01*
X178820052Y-90049968D01*
X178880045Y-90079964D01*
X179000030Y-90079964D01*
X179060022Y-90049968D01*
X179090018Y-90019971D01*
X179120015Y-89959979D01*
X179120015Y-89450043D01*
X179749936Y-90079964D02*
X179389981Y-90079964D01*
X179569958Y-90079964D02*
X179569958Y-89450043D01*
X179509966Y-89540031D01*
X179449973Y-89600024D01*
X179389981Y-89630020D01*
%TO.C,J2*%
X115441666Y-91952380D02*
X115441666Y-92666666D01*
X115394047Y-92809523D01*
X115298809Y-92904761D01*
X115155952Y-92952380D01*
X115060714Y-92952380D01*
X115870238Y-92047619D02*
X115917857Y-92000000D01*
X116013095Y-91952380D01*
X116251190Y-91952380D01*
X116346428Y-92000000D01*
X116394047Y-92047619D01*
X116441666Y-92142857D01*
X116441666Y-92238095D01*
X116394047Y-92380952D01*
X115822619Y-92952380D01*
X116441666Y-92952380D01*
%TO.C,C7*%
X174657142Y-94166666D02*
X174704761Y-94214285D01*
X174752380Y-94357142D01*
X174752380Y-94452380D01*
X174704761Y-94595238D01*
X174609523Y-94690476D01*
X174514285Y-94738095D01*
X174323809Y-94785714D01*
X174180952Y-94785714D01*
X173990476Y-94738095D01*
X173895238Y-94690476D01*
X173800000Y-94595238D01*
X173752380Y-94452380D01*
X173752380Y-94357142D01*
X173800000Y-94214285D01*
X173847619Y-94166666D01*
X173752380Y-93833333D02*
X173752380Y-93166666D01*
X174752380Y-93595238D01*
%TO.C,U5*%
X179338095Y-101552380D02*
X179338095Y-102361904D01*
X179385714Y-102457142D01*
X179433333Y-102504761D01*
X179528571Y-102552380D01*
X179719047Y-102552380D01*
X179814285Y-102504761D01*
X179861904Y-102457142D01*
X179909523Y-102361904D01*
X179909523Y-101552380D01*
X180861904Y-101552380D02*
X180385714Y-101552380D01*
X180338095Y-102028571D01*
X180385714Y-101980952D01*
X180480952Y-101933333D01*
X180719047Y-101933333D01*
X180814285Y-101980952D01*
X180861904Y-102028571D01*
X180909523Y-102123809D01*
X180909523Y-102361904D01*
X180861904Y-102457142D01*
X180814285Y-102504761D01*
X180719047Y-102552380D01*
X180480952Y-102552380D01*
X180385714Y-102504761D01*
X180338095Y-102457142D01*
%TO.C,U18*%
X117661904Y-117652380D02*
X117661904Y-118461904D01*
X117709523Y-118557142D01*
X117757142Y-118604761D01*
X117852380Y-118652380D01*
X118042857Y-118652380D01*
X118138095Y-118604761D01*
X118185714Y-118557142D01*
X118233333Y-118461904D01*
X118233333Y-117652380D01*
X119233333Y-118652380D02*
X118661904Y-118652380D01*
X118947619Y-118652380D02*
X118947619Y-117652380D01*
X118852380Y-117795238D01*
X118757142Y-117890476D01*
X118661904Y-117938095D01*
X119804761Y-118080952D02*
X119709523Y-118033333D01*
X119661904Y-117985714D01*
X119614285Y-117890476D01*
X119614285Y-117842857D01*
X119661904Y-117747619D01*
X119709523Y-117700000D01*
X119804761Y-117652380D01*
X119995238Y-117652380D01*
X120090476Y-117700000D01*
X120138095Y-117747619D01*
X120185714Y-117842857D01*
X120185714Y-117890476D01*
X120138095Y-117985714D01*
X120090476Y-118033333D01*
X119995238Y-118080952D01*
X119804761Y-118080952D01*
X119709523Y-118128571D01*
X119661904Y-118176190D01*
X119614285Y-118271428D01*
X119614285Y-118461904D01*
X119661904Y-118557142D01*
X119709523Y-118604761D01*
X119804761Y-118652380D01*
X119995238Y-118652380D01*
X120090476Y-118604761D01*
X120138095Y-118557142D01*
X120185714Y-118461904D01*
X120185714Y-118271428D01*
X120138095Y-118176190D01*
X120090476Y-118128571D01*
X119995238Y-118080952D01*
%TO.C,R35*%
X176032142Y-144252380D02*
X175698809Y-143776190D01*
X175460714Y-144252380D02*
X175460714Y-143252380D01*
X175841666Y-143252380D01*
X175936904Y-143300000D01*
X175984523Y-143347619D01*
X176032142Y-143442857D01*
X176032142Y-143585714D01*
X175984523Y-143680952D01*
X175936904Y-143728571D01*
X175841666Y-143776190D01*
X175460714Y-143776190D01*
X176365476Y-143252380D02*
X176984523Y-143252380D01*
X176651190Y-143633333D01*
X176794047Y-143633333D01*
X176889285Y-143680952D01*
X176936904Y-143728571D01*
X176984523Y-143823809D01*
X176984523Y-144061904D01*
X176936904Y-144157142D01*
X176889285Y-144204761D01*
X176794047Y-144252380D01*
X176508333Y-144252380D01*
X176413095Y-144204761D01*
X176365476Y-144157142D01*
X177889285Y-143252380D02*
X177413095Y-143252380D01*
X177365476Y-143728571D01*
X177413095Y-143680952D01*
X177508333Y-143633333D01*
X177746428Y-143633333D01*
X177841666Y-143680952D01*
X177889285Y-143728571D01*
X177936904Y-143823809D01*
X177936904Y-144061904D01*
X177889285Y-144157142D01*
X177841666Y-144204761D01*
X177746428Y-144252380D01*
X177508333Y-144252380D01*
X177413095Y-144204761D01*
X177365476Y-144157142D01*
%TO.C,R11*%
X193701142Y-96722380D02*
X193367809Y-96246190D01*
X193129714Y-96722380D02*
X193129714Y-95722380D01*
X193510666Y-95722380D01*
X193605904Y-95770000D01*
X193653523Y-95817619D01*
X193701142Y-95912857D01*
X193701142Y-96055714D01*
X193653523Y-96150952D01*
X193605904Y-96198571D01*
X193510666Y-96246190D01*
X193129714Y-96246190D01*
X194653523Y-96722380D02*
X194082095Y-96722380D01*
X194367809Y-96722380D02*
X194367809Y-95722380D01*
X194272571Y-95865238D01*
X194177333Y-95960476D01*
X194082095Y-96008095D01*
X195605904Y-96722380D02*
X195034476Y-96722380D01*
X195320190Y-96722380D02*
X195320190Y-95722380D01*
X195224952Y-95865238D01*
X195129714Y-95960476D01*
X195034476Y-96008095D01*
%TO.C,C50*%
X136538392Y-95038392D02*
X136490773Y-95086011D01*
X136347916Y-95133630D01*
X136252678Y-95133630D01*
X136109821Y-95086011D01*
X136014583Y-94990773D01*
X135966964Y-94895535D01*
X135919345Y-94705059D01*
X135919345Y-94562202D01*
X135966964Y-94371726D01*
X136014583Y-94276488D01*
X136109821Y-94181250D01*
X136252678Y-94133630D01*
X136347916Y-94133630D01*
X136490773Y-94181250D01*
X136538392Y-94228869D01*
X137443154Y-94133630D02*
X136966964Y-94133630D01*
X136919345Y-94609821D01*
X136966964Y-94562202D01*
X137062202Y-94514583D01*
X137300297Y-94514583D01*
X137395535Y-94562202D01*
X137443154Y-94609821D01*
X137490773Y-94705059D01*
X137490773Y-94943154D01*
X137443154Y-95038392D01*
X137395535Y-95086011D01*
X137300297Y-95133630D01*
X137062202Y-95133630D01*
X136966964Y-95086011D01*
X136919345Y-95038392D01*
X138109821Y-94133630D02*
X138205059Y-94133630D01*
X138300297Y-94181250D01*
X138347916Y-94228869D01*
X138395535Y-94324107D01*
X138443154Y-94514583D01*
X138443154Y-94752678D01*
X138395535Y-94943154D01*
X138347916Y-95038392D01*
X138300297Y-95086011D01*
X138205059Y-95133630D01*
X138109821Y-95133630D01*
X138014583Y-95086011D01*
X137966964Y-95038392D01*
X137919345Y-94943154D01*
X137871726Y-94752678D01*
X137871726Y-94514583D01*
X137919345Y-94324107D01*
X137966964Y-94228869D01*
X138014583Y-94181250D01*
X138109821Y-94133630D01*
%TO.C,C16*%
X156754642Y-144057142D02*
X156707023Y-144104761D01*
X156564166Y-144152380D01*
X156468928Y-144152380D01*
X156326071Y-144104761D01*
X156230833Y-144009523D01*
X156183214Y-143914285D01*
X156135595Y-143723809D01*
X156135595Y-143580952D01*
X156183214Y-143390476D01*
X156230833Y-143295238D01*
X156326071Y-143200000D01*
X156468928Y-143152380D01*
X156564166Y-143152380D01*
X156707023Y-143200000D01*
X156754642Y-143247619D01*
X157707023Y-144152380D02*
X157135595Y-144152380D01*
X157421309Y-144152380D02*
X157421309Y-143152380D01*
X157326071Y-143295238D01*
X157230833Y-143390476D01*
X157135595Y-143438095D01*
X158564166Y-143152380D02*
X158373690Y-143152380D01*
X158278452Y-143200000D01*
X158230833Y-143247619D01*
X158135595Y-143390476D01*
X158087976Y-143580952D01*
X158087976Y-143961904D01*
X158135595Y-144057142D01*
X158183214Y-144104761D01*
X158278452Y-144152380D01*
X158468928Y-144152380D01*
X158564166Y-144104761D01*
X158611785Y-144057142D01*
X158659404Y-143961904D01*
X158659404Y-143723809D01*
X158611785Y-143628571D01*
X158564166Y-143580952D01*
X158468928Y-143533333D01*
X158278452Y-143533333D01*
X158183214Y-143580952D01*
X158135595Y-143628571D01*
X158087976Y-143723809D01*
%TO.C,R34*%
X120552380Y-110242857D02*
X120076190Y-110576190D01*
X120552380Y-110814285D02*
X119552380Y-110814285D01*
X119552380Y-110433333D01*
X119600000Y-110338095D01*
X119647619Y-110290476D01*
X119742857Y-110242857D01*
X119885714Y-110242857D01*
X119980952Y-110290476D01*
X120028571Y-110338095D01*
X120076190Y-110433333D01*
X120076190Y-110814285D01*
X119552380Y-109909523D02*
X119552380Y-109290476D01*
X119933333Y-109623809D01*
X119933333Y-109480952D01*
X119980952Y-109385714D01*
X120028571Y-109338095D01*
X120123809Y-109290476D01*
X120361904Y-109290476D01*
X120457142Y-109338095D01*
X120504761Y-109385714D01*
X120552380Y-109480952D01*
X120552380Y-109766666D01*
X120504761Y-109861904D01*
X120457142Y-109909523D01*
X119885714Y-108433333D02*
X120552380Y-108433333D01*
X119504761Y-108671428D02*
X120219047Y-108909523D01*
X120219047Y-108290476D01*
%TO.C,C45*%
X178457142Y-95857142D02*
X178409523Y-95904761D01*
X178266666Y-95952380D01*
X178171428Y-95952380D01*
X178028571Y-95904761D01*
X177933333Y-95809523D01*
X177885714Y-95714285D01*
X177838095Y-95523809D01*
X177838095Y-95380952D01*
X177885714Y-95190476D01*
X177933333Y-95095238D01*
X178028571Y-95000000D01*
X178171428Y-94952380D01*
X178266666Y-94952380D01*
X178409523Y-95000000D01*
X178457142Y-95047619D01*
X179314285Y-95285714D02*
X179314285Y-95952380D01*
X179076190Y-94904761D02*
X178838095Y-95619047D01*
X179457142Y-95619047D01*
X180314285Y-94952380D02*
X179838095Y-94952380D01*
X179790476Y-95428571D01*
X179838095Y-95380952D01*
X179933333Y-95333333D01*
X180171428Y-95333333D01*
X180266666Y-95380952D01*
X180314285Y-95428571D01*
X180361904Y-95523809D01*
X180361904Y-95761904D01*
X180314285Y-95857142D01*
X180266666Y-95904761D01*
X180171428Y-95952380D01*
X179933333Y-95952380D01*
X179838095Y-95904761D01*
X179790476Y-95857142D01*
%TO.C,U10*%
X175961904Y-132852380D02*
X175961904Y-133661904D01*
X176009523Y-133757142D01*
X176057142Y-133804761D01*
X176152380Y-133852380D01*
X176342857Y-133852380D01*
X176438095Y-133804761D01*
X176485714Y-133757142D01*
X176533333Y-133661904D01*
X176533333Y-132852380D01*
X177533333Y-133852380D02*
X176961904Y-133852380D01*
X177247619Y-133852380D02*
X177247619Y-132852380D01*
X177152380Y-132995238D01*
X177057142Y-133090476D01*
X176961904Y-133138095D01*
X178152380Y-132852380D02*
X178247619Y-132852380D01*
X178342857Y-132900000D01*
X178390476Y-132947619D01*
X178438095Y-133042857D01*
X178485714Y-133233333D01*
X178485714Y-133471428D01*
X178438095Y-133661904D01*
X178390476Y-133757142D01*
X178342857Y-133804761D01*
X178247619Y-133852380D01*
X178152380Y-133852380D01*
X178057142Y-133804761D01*
X178009523Y-133757142D01*
X177961904Y-133661904D01*
X177914285Y-133471428D01*
X177914285Y-133233333D01*
X177961904Y-133042857D01*
X178009523Y-132947619D01*
X178057142Y-132900000D01*
X178152380Y-132852380D01*
%TO.C,C22*%
X168877142Y-136882142D02*
X168829523Y-136929761D01*
X168686666Y-136977380D01*
X168591428Y-136977380D01*
X168448571Y-136929761D01*
X168353333Y-136834523D01*
X168305714Y-136739285D01*
X168258095Y-136548809D01*
X168258095Y-136405952D01*
X168305714Y-136215476D01*
X168353333Y-136120238D01*
X168448571Y-136025000D01*
X168591428Y-135977380D01*
X168686666Y-135977380D01*
X168829523Y-136025000D01*
X168877142Y-136072619D01*
X169258095Y-136072619D02*
X169305714Y-136025000D01*
X169400952Y-135977380D01*
X169639047Y-135977380D01*
X169734285Y-136025000D01*
X169781904Y-136072619D01*
X169829523Y-136167857D01*
X169829523Y-136263095D01*
X169781904Y-136405952D01*
X169210476Y-136977380D01*
X169829523Y-136977380D01*
X170210476Y-136072619D02*
X170258095Y-136025000D01*
X170353333Y-135977380D01*
X170591428Y-135977380D01*
X170686666Y-136025000D01*
X170734285Y-136072619D01*
X170781904Y-136167857D01*
X170781904Y-136263095D01*
X170734285Y-136405952D01*
X170162857Y-136977380D01*
X170781904Y-136977380D01*
%TO.C,C17*%
X153744642Y-136622142D02*
X153697023Y-136669761D01*
X153554166Y-136717380D01*
X153458928Y-136717380D01*
X153316071Y-136669761D01*
X153220833Y-136574523D01*
X153173214Y-136479285D01*
X153125595Y-136288809D01*
X153125595Y-136145952D01*
X153173214Y-135955476D01*
X153220833Y-135860238D01*
X153316071Y-135765000D01*
X153458928Y-135717380D01*
X153554166Y-135717380D01*
X153697023Y-135765000D01*
X153744642Y-135812619D01*
X154697023Y-136717380D02*
X154125595Y-136717380D01*
X154411309Y-136717380D02*
X154411309Y-135717380D01*
X154316071Y-135860238D01*
X154220833Y-135955476D01*
X154125595Y-136003095D01*
X155030357Y-135717380D02*
X155697023Y-135717380D01*
X155268452Y-136717380D01*
%TO.C,C26*%
X116427142Y-128947857D02*
X116474761Y-128995476D01*
X116522380Y-129138333D01*
X116522380Y-129233571D01*
X116474761Y-129376428D01*
X116379523Y-129471666D01*
X116284285Y-129519285D01*
X116093809Y-129566904D01*
X115950952Y-129566904D01*
X115760476Y-129519285D01*
X115665238Y-129471666D01*
X115570000Y-129376428D01*
X115522380Y-129233571D01*
X115522380Y-129138333D01*
X115570000Y-128995476D01*
X115617619Y-128947857D01*
X115617619Y-128566904D02*
X115570000Y-128519285D01*
X115522380Y-128424047D01*
X115522380Y-128185952D01*
X115570000Y-128090714D01*
X115617619Y-128043095D01*
X115712857Y-127995476D01*
X115808095Y-127995476D01*
X115950952Y-128043095D01*
X116522380Y-128614523D01*
X116522380Y-127995476D01*
X115522380Y-127138333D02*
X115522380Y-127328809D01*
X115570000Y-127424047D01*
X115617619Y-127471666D01*
X115760476Y-127566904D01*
X115950952Y-127614523D01*
X116331904Y-127614523D01*
X116427142Y-127566904D01*
X116474761Y-127519285D01*
X116522380Y-127424047D01*
X116522380Y-127233571D01*
X116474761Y-127138333D01*
X116427142Y-127090714D01*
X116331904Y-127043095D01*
X116093809Y-127043095D01*
X115998571Y-127090714D01*
X115950952Y-127138333D01*
X115903333Y-127233571D01*
X115903333Y-127424047D01*
X115950952Y-127519285D01*
X115998571Y-127566904D01*
X116093809Y-127614523D01*
%TO.C,R10*%
X193701142Y-93674380D02*
X193367809Y-93198190D01*
X193129714Y-93674380D02*
X193129714Y-92674380D01*
X193510666Y-92674380D01*
X193605904Y-92722000D01*
X193653523Y-92769619D01*
X193701142Y-92864857D01*
X193701142Y-93007714D01*
X193653523Y-93102952D01*
X193605904Y-93150571D01*
X193510666Y-93198190D01*
X193129714Y-93198190D01*
X194653523Y-93674380D02*
X194082095Y-93674380D01*
X194367809Y-93674380D02*
X194367809Y-92674380D01*
X194272571Y-92817238D01*
X194177333Y-92912476D01*
X194082095Y-92960095D01*
X195272571Y-92674380D02*
X195367809Y-92674380D01*
X195463047Y-92722000D01*
X195510666Y-92769619D01*
X195558285Y-92864857D01*
X195605904Y-93055333D01*
X195605904Y-93293428D01*
X195558285Y-93483904D01*
X195510666Y-93579142D01*
X195463047Y-93626761D01*
X195367809Y-93674380D01*
X195272571Y-93674380D01*
X195177333Y-93626761D01*
X195129714Y-93579142D01*
X195082095Y-93483904D01*
X195034476Y-93293428D01*
X195034476Y-93055333D01*
X195082095Y-92864857D01*
X195129714Y-92769619D01*
X195177333Y-92722000D01*
X195272571Y-92674380D01*
%TO.C,C1*%
X179233333Y-88257142D02*
X179185714Y-88304761D01*
X179042857Y-88352380D01*
X178947619Y-88352380D01*
X178804761Y-88304761D01*
X178709523Y-88209523D01*
X178661904Y-88114285D01*
X178614285Y-87923809D01*
X178614285Y-87780952D01*
X178661904Y-87590476D01*
X178709523Y-87495238D01*
X178804761Y-87400000D01*
X178947619Y-87352380D01*
X179042857Y-87352380D01*
X179185714Y-87400000D01*
X179233333Y-87447619D01*
X180185714Y-88352380D02*
X179614285Y-88352380D01*
X179900000Y-88352380D02*
X179900000Y-87352380D01*
X179804761Y-87495238D01*
X179709523Y-87590476D01*
X179614285Y-87638095D01*
%TO.C,C44*%
X178357142Y-97357142D02*
X178309523Y-97404761D01*
X178166666Y-97452380D01*
X178071428Y-97452380D01*
X177928571Y-97404761D01*
X177833333Y-97309523D01*
X177785714Y-97214285D01*
X177738095Y-97023809D01*
X177738095Y-96880952D01*
X177785714Y-96690476D01*
X177833333Y-96595238D01*
X177928571Y-96500000D01*
X178071428Y-96452380D01*
X178166666Y-96452380D01*
X178309523Y-96500000D01*
X178357142Y-96547619D01*
X179214285Y-96785714D02*
X179214285Y-97452380D01*
X178976190Y-96404761D02*
X178738095Y-97119047D01*
X179357142Y-97119047D01*
X180166666Y-96785714D02*
X180166666Y-97452380D01*
X179928571Y-96404761D02*
X179690476Y-97119047D01*
X180309523Y-97119047D01*
%TO.C,C29*%
X117457142Y-132642857D02*
X117504761Y-132690476D01*
X117552380Y-132833333D01*
X117552380Y-132928571D01*
X117504761Y-133071428D01*
X117409523Y-133166666D01*
X117314285Y-133214285D01*
X117123809Y-133261904D01*
X116980952Y-133261904D01*
X116790476Y-133214285D01*
X116695238Y-133166666D01*
X116600000Y-133071428D01*
X116552380Y-132928571D01*
X116552380Y-132833333D01*
X116600000Y-132690476D01*
X116647619Y-132642857D01*
X116647619Y-132261904D02*
X116600000Y-132214285D01*
X116552380Y-132119047D01*
X116552380Y-131880952D01*
X116600000Y-131785714D01*
X116647619Y-131738095D01*
X116742857Y-131690476D01*
X116838095Y-131690476D01*
X116980952Y-131738095D01*
X117552380Y-132309523D01*
X117552380Y-131690476D01*
X117552380Y-131214285D02*
X117552380Y-131023809D01*
X117504761Y-130928571D01*
X117457142Y-130880952D01*
X117314285Y-130785714D01*
X117123809Y-130738095D01*
X116742857Y-130738095D01*
X116647619Y-130785714D01*
X116600000Y-130833333D01*
X116552380Y-130928571D01*
X116552380Y-131119047D01*
X116600000Y-131214285D01*
X116647619Y-131261904D01*
X116742857Y-131309523D01*
X116980952Y-131309523D01*
X117076190Y-131261904D01*
X117123809Y-131214285D01*
X117171428Y-131119047D01*
X117171428Y-130928571D01*
X117123809Y-130833333D01*
X117076190Y-130785714D01*
X116980952Y-130738095D01*
%TO.C,R29*%
X135657142Y-105052380D02*
X135323809Y-104576190D01*
X135085714Y-105052380D02*
X135085714Y-104052380D01*
X135466666Y-104052380D01*
X135561904Y-104100000D01*
X135609523Y-104147619D01*
X135657142Y-104242857D01*
X135657142Y-104385714D01*
X135609523Y-104480952D01*
X135561904Y-104528571D01*
X135466666Y-104576190D01*
X135085714Y-104576190D01*
X136038095Y-104147619D02*
X136085714Y-104100000D01*
X136180952Y-104052380D01*
X136419047Y-104052380D01*
X136514285Y-104100000D01*
X136561904Y-104147619D01*
X136609523Y-104242857D01*
X136609523Y-104338095D01*
X136561904Y-104480952D01*
X135990476Y-105052380D01*
X136609523Y-105052380D01*
X137085714Y-105052380D02*
X137276190Y-105052380D01*
X137371428Y-105004761D01*
X137419047Y-104957142D01*
X137514285Y-104814285D01*
X137561904Y-104623809D01*
X137561904Y-104242857D01*
X137514285Y-104147619D01*
X137466666Y-104100000D01*
X137371428Y-104052380D01*
X137180952Y-104052380D01*
X137085714Y-104100000D01*
X137038095Y-104147619D01*
X136990476Y-104242857D01*
X136990476Y-104480952D01*
X137038095Y-104576190D01*
X137085714Y-104623809D01*
X137180952Y-104671428D01*
X137371428Y-104671428D01*
X137466666Y-104623809D01*
X137514285Y-104576190D01*
X137561904Y-104480952D01*
%TO.C,R30*%
X121357142Y-120152380D02*
X121023809Y-119676190D01*
X120785714Y-120152380D02*
X120785714Y-119152380D01*
X121166666Y-119152380D01*
X121261904Y-119200000D01*
X121309523Y-119247619D01*
X121357142Y-119342857D01*
X121357142Y-119485714D01*
X121309523Y-119580952D01*
X121261904Y-119628571D01*
X121166666Y-119676190D01*
X120785714Y-119676190D01*
X121690476Y-119152380D02*
X122309523Y-119152380D01*
X121976190Y-119533333D01*
X122119047Y-119533333D01*
X122214285Y-119580952D01*
X122261904Y-119628571D01*
X122309523Y-119723809D01*
X122309523Y-119961904D01*
X122261904Y-120057142D01*
X122214285Y-120104761D01*
X122119047Y-120152380D01*
X121833333Y-120152380D01*
X121738095Y-120104761D01*
X121690476Y-120057142D01*
X122928571Y-119152380D02*
X123023809Y-119152380D01*
X123119047Y-119200000D01*
X123166666Y-119247619D01*
X123214285Y-119342857D01*
X123261904Y-119533333D01*
X123261904Y-119771428D01*
X123214285Y-119961904D01*
X123166666Y-120057142D01*
X123119047Y-120104761D01*
X123023809Y-120152380D01*
X122928571Y-120152380D01*
X122833333Y-120104761D01*
X122785714Y-120057142D01*
X122738095Y-119961904D01*
X122690476Y-119771428D01*
X122690476Y-119533333D01*
X122738095Y-119342857D01*
X122785714Y-119247619D01*
X122833333Y-119200000D01*
X122928571Y-119152380D01*
%TO.C,CP2*%
X147357142Y-90566666D02*
X147404761Y-90614285D01*
X147452380Y-90757142D01*
X147452380Y-90852380D01*
X147404761Y-90995238D01*
X147309523Y-91090476D01*
X147214285Y-91138095D01*
X147023809Y-91185714D01*
X146880952Y-91185714D01*
X146690476Y-91138095D01*
X146595238Y-91090476D01*
X146500000Y-90995238D01*
X146452380Y-90852380D01*
X146452380Y-90757142D01*
X146500000Y-90614285D01*
X146547619Y-90566666D01*
X147452380Y-90138095D02*
X146452380Y-90138095D01*
X146452380Y-89757142D01*
X146500000Y-89661904D01*
X146547619Y-89614285D01*
X146642857Y-89566666D01*
X146785714Y-89566666D01*
X146880952Y-89614285D01*
X146928571Y-89661904D01*
X146976190Y-89757142D01*
X146976190Y-90138095D01*
X146547619Y-89185714D02*
X146500000Y-89138095D01*
X146452380Y-89042857D01*
X146452380Y-88804761D01*
X146500000Y-88709523D01*
X146547619Y-88661904D01*
X146642857Y-88614285D01*
X146738095Y-88614285D01*
X146880952Y-88661904D01*
X147452380Y-89233333D01*
X147452380Y-88614285D01*
%TO.C,C47*%
X167757142Y-128357142D02*
X167709523Y-128404761D01*
X167566666Y-128452380D01*
X167471428Y-128452380D01*
X167328571Y-128404761D01*
X167233333Y-128309523D01*
X167185714Y-128214285D01*
X167138095Y-128023809D01*
X167138095Y-127880952D01*
X167185714Y-127690476D01*
X167233333Y-127595238D01*
X167328571Y-127500000D01*
X167471428Y-127452380D01*
X167566666Y-127452380D01*
X167709523Y-127500000D01*
X167757142Y-127547619D01*
X168614285Y-127785714D02*
X168614285Y-128452380D01*
X168376190Y-127404761D02*
X168138095Y-128119047D01*
X168757142Y-128119047D01*
X169042857Y-127452380D02*
X169709523Y-127452380D01*
X169280952Y-128452380D01*
%TO.C,C3*%
X197633333Y-120357142D02*
X197585714Y-120404761D01*
X197442857Y-120452380D01*
X197347619Y-120452380D01*
X197204761Y-120404761D01*
X197109523Y-120309523D01*
X197061904Y-120214285D01*
X197014285Y-120023809D01*
X197014285Y-119880952D01*
X197061904Y-119690476D01*
X197109523Y-119595238D01*
X197204761Y-119500000D01*
X197347619Y-119452380D01*
X197442857Y-119452380D01*
X197585714Y-119500000D01*
X197633333Y-119547619D01*
X197966666Y-119452380D02*
X198585714Y-119452380D01*
X198252380Y-119833333D01*
X198395238Y-119833333D01*
X198490476Y-119880952D01*
X198538095Y-119928571D01*
X198585714Y-120023809D01*
X198585714Y-120261904D01*
X198538095Y-120357142D01*
X198490476Y-120404761D01*
X198395238Y-120452380D01*
X198109523Y-120452380D01*
X198014285Y-120404761D01*
X197966666Y-120357142D01*
%TO.C,R48*%
X164984642Y-144122380D02*
X164651309Y-143646190D01*
X164413214Y-144122380D02*
X164413214Y-143122380D01*
X164794166Y-143122380D01*
X164889404Y-143170000D01*
X164937023Y-143217619D01*
X164984642Y-143312857D01*
X164984642Y-143455714D01*
X164937023Y-143550952D01*
X164889404Y-143598571D01*
X164794166Y-143646190D01*
X164413214Y-143646190D01*
X165841785Y-143455714D02*
X165841785Y-144122380D01*
X165603690Y-143074761D02*
X165365595Y-143789047D01*
X165984642Y-143789047D01*
X166508452Y-143550952D02*
X166413214Y-143503333D01*
X166365595Y-143455714D01*
X166317976Y-143360476D01*
X166317976Y-143312857D01*
X166365595Y-143217619D01*
X166413214Y-143170000D01*
X166508452Y-143122380D01*
X166698928Y-143122380D01*
X166794166Y-143170000D01*
X166841785Y-143217619D01*
X166889404Y-143312857D01*
X166889404Y-143360476D01*
X166841785Y-143455714D01*
X166794166Y-143503333D01*
X166698928Y-143550952D01*
X166508452Y-143550952D01*
X166413214Y-143598571D01*
X166365595Y-143646190D01*
X166317976Y-143741428D01*
X166317976Y-143931904D01*
X166365595Y-144027142D01*
X166413214Y-144074761D01*
X166508452Y-144122380D01*
X166698928Y-144122380D01*
X166794166Y-144074761D01*
X166841785Y-144027142D01*
X166889404Y-143931904D01*
X166889404Y-143741428D01*
X166841785Y-143646190D01*
X166794166Y-143598571D01*
X166698928Y-143550952D01*
%TO.C,L3*%
X115033333Y-114152380D02*
X114557142Y-114152380D01*
X114557142Y-113152380D01*
X115271428Y-113152380D02*
X115890476Y-113152380D01*
X115557142Y-113533333D01*
X115700000Y-113533333D01*
X115795238Y-113580952D01*
X115842857Y-113628571D01*
X115890476Y-113723809D01*
X115890476Y-113961904D01*
X115842857Y-114057142D01*
X115795238Y-114104761D01*
X115700000Y-114152380D01*
X115414285Y-114152380D01*
X115319047Y-114104761D01*
X115271428Y-114057142D01*
%TO.C,U3*%
X149438095Y-99852380D02*
X149438095Y-100661904D01*
X149485714Y-100757142D01*
X149533333Y-100804761D01*
X149628571Y-100852380D01*
X149819047Y-100852380D01*
X149914285Y-100804761D01*
X149961904Y-100757142D01*
X150009523Y-100661904D01*
X150009523Y-99852380D01*
X150390476Y-99852380D02*
X151009523Y-99852380D01*
X150676190Y-100233333D01*
X150819047Y-100233333D01*
X150914285Y-100280952D01*
X150961904Y-100328571D01*
X151009523Y-100423809D01*
X151009523Y-100661904D01*
X150961904Y-100757142D01*
X150914285Y-100804761D01*
X150819047Y-100852380D01*
X150533333Y-100852380D01*
X150438095Y-100804761D01*
X150390476Y-100757142D01*
X150682500Y-104052379D02*
X150682500Y-104290475D01*
X150444404Y-104195237D02*
X150682500Y-104290475D01*
X150920595Y-104195237D01*
X150539642Y-104480951D02*
X150682500Y-104290475D01*
X150825357Y-104480951D01*
%TO.C,U7*%
X132052380Y-114161904D02*
X132861904Y-114161904D01*
X132957142Y-114114285D01*
X133004761Y-114066666D01*
X133052380Y-113971428D01*
X133052380Y-113780952D01*
X133004761Y-113685714D01*
X132957142Y-113638095D01*
X132861904Y-113590476D01*
X132052380Y-113590476D01*
X132052380Y-113209523D02*
X132052380Y-112542857D01*
X133052380Y-112971428D01*
%TO.C,C43*%
X126338392Y-96838392D02*
X126290773Y-96886011D01*
X126147916Y-96933630D01*
X126052678Y-96933630D01*
X125909821Y-96886011D01*
X125814583Y-96790773D01*
X125766964Y-96695535D01*
X125719345Y-96505059D01*
X125719345Y-96362202D01*
X125766964Y-96171726D01*
X125814583Y-96076488D01*
X125909821Y-95981250D01*
X126052678Y-95933630D01*
X126147916Y-95933630D01*
X126290773Y-95981250D01*
X126338392Y-96028869D01*
X127195535Y-96266964D02*
X127195535Y-96933630D01*
X126957440Y-95886011D02*
X126719345Y-96600297D01*
X127338392Y-96600297D01*
X127624107Y-95933630D02*
X128243154Y-95933630D01*
X127909821Y-96314583D01*
X128052678Y-96314583D01*
X128147916Y-96362202D01*
X128195535Y-96409821D01*
X128243154Y-96505059D01*
X128243154Y-96743154D01*
X128195535Y-96838392D01*
X128147916Y-96886011D01*
X128052678Y-96933630D01*
X127766964Y-96933630D01*
X127671726Y-96886011D01*
X127624107Y-96838392D01*
%TO.C,C53*%
X117457142Y-95642857D02*
X117504761Y-95690476D01*
X117552380Y-95833333D01*
X117552380Y-95928571D01*
X117504761Y-96071428D01*
X117409523Y-96166666D01*
X117314285Y-96214285D01*
X117123809Y-96261904D01*
X116980952Y-96261904D01*
X116790476Y-96214285D01*
X116695238Y-96166666D01*
X116600000Y-96071428D01*
X116552380Y-95928571D01*
X116552380Y-95833333D01*
X116600000Y-95690476D01*
X116647619Y-95642857D01*
X116552380Y-94738095D02*
X116552380Y-95214285D01*
X117028571Y-95261904D01*
X116980952Y-95214285D01*
X116933333Y-95119047D01*
X116933333Y-94880952D01*
X116980952Y-94785714D01*
X117028571Y-94738095D01*
X117123809Y-94690476D01*
X117361904Y-94690476D01*
X117457142Y-94738095D01*
X117504761Y-94785714D01*
X117552380Y-94880952D01*
X117552380Y-95119047D01*
X117504761Y-95214285D01*
X117457142Y-95261904D01*
X116552380Y-94357142D02*
X116552380Y-93738095D01*
X116933333Y-94071428D01*
X116933333Y-93928571D01*
X116980952Y-93833333D01*
X117028571Y-93785714D01*
X117123809Y-93738095D01*
X117361904Y-93738095D01*
X117457142Y-93785714D01*
X117504761Y-93833333D01*
X117552380Y-93928571D01*
X117552380Y-94214285D01*
X117504761Y-94309523D01*
X117457142Y-94357142D01*
%TO.C,F1*%
X113166666Y-122928571D02*
X112833333Y-122928571D01*
X112833333Y-123452380D02*
X112833333Y-122452380D01*
X113309523Y-122452380D01*
X114214285Y-123452380D02*
X113642857Y-123452380D01*
X113928571Y-123452380D02*
X113928571Y-122452380D01*
X113833333Y-122595238D01*
X113738095Y-122690476D01*
X113642857Y-122738095D01*
%TO.C,Q2*%
X147636761Y-118124619D02*
X147541523Y-118077000D01*
X147446285Y-117981761D01*
X147303428Y-117838904D01*
X147208190Y-117791285D01*
X147112952Y-117791285D01*
X147160571Y-118029380D02*
X147065333Y-117981761D01*
X146970095Y-117886523D01*
X146922476Y-117696047D01*
X146922476Y-117362714D01*
X146970095Y-117172238D01*
X147065333Y-117077000D01*
X147160571Y-117029380D01*
X147351047Y-117029380D01*
X147446285Y-117077000D01*
X147541523Y-117172238D01*
X147589142Y-117362714D01*
X147589142Y-117696047D01*
X147541523Y-117886523D01*
X147446285Y-117981761D01*
X147351047Y-118029380D01*
X147160571Y-118029380D01*
X147970095Y-117124619D02*
X148017714Y-117077000D01*
X148112952Y-117029380D01*
X148351047Y-117029380D01*
X148446285Y-117077000D01*
X148493904Y-117124619D01*
X148541523Y-117219857D01*
X148541523Y-117315095D01*
X148493904Y-117457952D01*
X147922476Y-118029380D01*
X148541523Y-118029380D01*
%TO.C,J1*%
X184652380Y-130833333D02*
X185366666Y-130833333D01*
X185509523Y-130880952D01*
X185604761Y-130976190D01*
X185652380Y-131119047D01*
X185652380Y-131214285D01*
X185652380Y-129833333D02*
X185652380Y-130404761D01*
X185652380Y-130119047D02*
X184652380Y-130119047D01*
X184795238Y-130214285D01*
X184890476Y-130309523D01*
X184938095Y-130404761D01*
X192452380Y-128663100D02*
X192690476Y-128663100D01*
X192595238Y-128901195D02*
X192690476Y-128663100D01*
X192595238Y-128425004D01*
X192880952Y-128805957D02*
X192690476Y-128663100D01*
X192880952Y-128520242D01*
%TO.C,C33*%
X131857142Y-136542857D02*
X131904761Y-136590476D01*
X131952380Y-136733333D01*
X131952380Y-136828571D01*
X131904761Y-136971428D01*
X131809523Y-137066666D01*
X131714285Y-137114285D01*
X131523809Y-137161904D01*
X131380952Y-137161904D01*
X131190476Y-137114285D01*
X131095238Y-137066666D01*
X131000000Y-136971428D01*
X130952380Y-136828571D01*
X130952380Y-136733333D01*
X131000000Y-136590476D01*
X131047619Y-136542857D01*
X130952380Y-136209523D02*
X130952380Y-135590476D01*
X131333333Y-135923809D01*
X131333333Y-135780952D01*
X131380952Y-135685714D01*
X131428571Y-135638095D01*
X131523809Y-135590476D01*
X131761904Y-135590476D01*
X131857142Y-135638095D01*
X131904761Y-135685714D01*
X131952380Y-135780952D01*
X131952380Y-136066666D01*
X131904761Y-136161904D01*
X131857142Y-136209523D01*
X130952380Y-135257142D02*
X130952380Y-134638095D01*
X131333333Y-134971428D01*
X131333333Y-134828571D01*
X131380952Y-134733333D01*
X131428571Y-134685714D01*
X131523809Y-134638095D01*
X131761904Y-134638095D01*
X131857142Y-134685714D01*
X131904761Y-134733333D01*
X131952380Y-134828571D01*
X131952380Y-135114285D01*
X131904761Y-135209523D01*
X131857142Y-135257142D01*
%TO.C,R27*%
X136557142Y-110252380D02*
X136223809Y-109776190D01*
X135985714Y-110252380D02*
X135985714Y-109252380D01*
X136366666Y-109252380D01*
X136461904Y-109300000D01*
X136509523Y-109347619D01*
X136557142Y-109442857D01*
X136557142Y-109585714D01*
X136509523Y-109680952D01*
X136461904Y-109728571D01*
X136366666Y-109776190D01*
X135985714Y-109776190D01*
X136938095Y-109347619D02*
X136985714Y-109300000D01*
X137080952Y-109252380D01*
X137319047Y-109252380D01*
X137414285Y-109300000D01*
X137461904Y-109347619D01*
X137509523Y-109442857D01*
X137509523Y-109538095D01*
X137461904Y-109680952D01*
X136890476Y-110252380D01*
X137509523Y-110252380D01*
X137842857Y-109252380D02*
X138509523Y-109252380D01*
X138080952Y-110252380D01*
%TO.C,U19*%
X185161904Y-136652380D02*
X185161904Y-137461904D01*
X185209523Y-137557142D01*
X185257142Y-137604761D01*
X185352380Y-137652380D01*
X185542857Y-137652380D01*
X185638095Y-137604761D01*
X185685714Y-137557142D01*
X185733333Y-137461904D01*
X185733333Y-136652380D01*
X186733333Y-137652380D02*
X186161904Y-137652380D01*
X186447619Y-137652380D02*
X186447619Y-136652380D01*
X186352380Y-136795238D01*
X186257142Y-136890476D01*
X186161904Y-136938095D01*
X187209523Y-137652380D02*
X187400000Y-137652380D01*
X187495238Y-137604761D01*
X187542857Y-137557142D01*
X187638095Y-137414285D01*
X187685714Y-137223809D01*
X187685714Y-136842857D01*
X187638095Y-136747619D01*
X187590476Y-136700000D01*
X187495238Y-136652380D01*
X187304761Y-136652380D01*
X187209523Y-136700000D01*
X187161904Y-136747619D01*
X187114285Y-136842857D01*
X187114285Y-137080952D01*
X187161904Y-137176190D01*
X187209523Y-137223809D01*
X187304761Y-137271428D01*
X187495238Y-137271428D01*
X187590476Y-137223809D01*
X187638095Y-137176190D01*
X187685714Y-137080952D01*
%TO.C,C36*%
X139637142Y-107852142D02*
X139589523Y-107899761D01*
X139446666Y-107947380D01*
X139351428Y-107947380D01*
X139208571Y-107899761D01*
X139113333Y-107804523D01*
X139065714Y-107709285D01*
X139018095Y-107518809D01*
X139018095Y-107375952D01*
X139065714Y-107185476D01*
X139113333Y-107090238D01*
X139208571Y-106995000D01*
X139351428Y-106947380D01*
X139446666Y-106947380D01*
X139589523Y-106995000D01*
X139637142Y-107042619D01*
X139970476Y-106947380D02*
X140589523Y-106947380D01*
X140256190Y-107328333D01*
X140399047Y-107328333D01*
X140494285Y-107375952D01*
X140541904Y-107423571D01*
X140589523Y-107518809D01*
X140589523Y-107756904D01*
X140541904Y-107852142D01*
X140494285Y-107899761D01*
X140399047Y-107947380D01*
X140113333Y-107947380D01*
X140018095Y-107899761D01*
X139970476Y-107852142D01*
X141446666Y-106947380D02*
X141256190Y-106947380D01*
X141160952Y-106995000D01*
X141113333Y-107042619D01*
X141018095Y-107185476D01*
X140970476Y-107375952D01*
X140970476Y-107756904D01*
X141018095Y-107852142D01*
X141065714Y-107899761D01*
X141160952Y-107947380D01*
X141351428Y-107947380D01*
X141446666Y-107899761D01*
X141494285Y-107852142D01*
X141541904Y-107756904D01*
X141541904Y-107518809D01*
X141494285Y-107423571D01*
X141446666Y-107375952D01*
X141351428Y-107328333D01*
X141160952Y-107328333D01*
X141065714Y-107375952D01*
X141018095Y-107423571D01*
X140970476Y-107518809D01*
%TO.C,U15*%
X165755043Y-133759902D02*
X166264979Y-133759902D01*
X166324971Y-133729905D01*
X166354968Y-133699909D01*
X166384964Y-133639917D01*
X166384964Y-133519932D01*
X166354968Y-133459939D01*
X166324971Y-133429943D01*
X166264979Y-133399947D01*
X165755043Y-133399947D01*
X166384964Y-132770026D02*
X166384964Y-133129981D01*
X166384964Y-132950003D02*
X165755043Y-132950003D01*
X165845031Y-133009996D01*
X165905024Y-133069988D01*
X165935020Y-133129981D01*
X165755043Y-132200097D02*
X165755043Y-132500060D01*
X166055005Y-132530056D01*
X166025009Y-132500060D01*
X165995013Y-132440067D01*
X165995013Y-132290086D01*
X166025009Y-132230094D01*
X166055005Y-132200097D01*
X166114998Y-132170101D01*
X166264979Y-132170101D01*
X166324971Y-132200097D01*
X166354968Y-132230094D01*
X166384964Y-132290086D01*
X166384964Y-132440067D01*
X166354968Y-132500060D01*
X166324971Y-132530056D01*
%TO.C,R18*%
X160732142Y-144082380D02*
X160398809Y-143606190D01*
X160160714Y-144082380D02*
X160160714Y-143082380D01*
X160541666Y-143082380D01*
X160636904Y-143130000D01*
X160684523Y-143177619D01*
X160732142Y-143272857D01*
X160732142Y-143415714D01*
X160684523Y-143510952D01*
X160636904Y-143558571D01*
X160541666Y-143606190D01*
X160160714Y-143606190D01*
X161684523Y-144082380D02*
X161113095Y-144082380D01*
X161398809Y-144082380D02*
X161398809Y-143082380D01*
X161303571Y-143225238D01*
X161208333Y-143320476D01*
X161113095Y-143368095D01*
X162255952Y-143510952D02*
X162160714Y-143463333D01*
X162113095Y-143415714D01*
X162065476Y-143320476D01*
X162065476Y-143272857D01*
X162113095Y-143177619D01*
X162160714Y-143130000D01*
X162255952Y-143082380D01*
X162446428Y-143082380D01*
X162541666Y-143130000D01*
X162589285Y-143177619D01*
X162636904Y-143272857D01*
X162636904Y-143320476D01*
X162589285Y-143415714D01*
X162541666Y-143463333D01*
X162446428Y-143510952D01*
X162255952Y-143510952D01*
X162160714Y-143558571D01*
X162113095Y-143606190D01*
X162065476Y-143701428D01*
X162065476Y-143891904D01*
X162113095Y-143987142D01*
X162160714Y-144034761D01*
X162255952Y-144082380D01*
X162446428Y-144082380D01*
X162541666Y-144034761D01*
X162589285Y-143987142D01*
X162636904Y-143891904D01*
X162636904Y-143701428D01*
X162589285Y-143606190D01*
X162541666Y-143558571D01*
X162446428Y-143510952D01*
%TO.C,D5*%
X197161904Y-96722380D02*
X197161904Y-95722380D01*
X197400000Y-95722380D01*
X197542857Y-95770000D01*
X197638095Y-95865238D01*
X197685714Y-95960476D01*
X197733333Y-96150952D01*
X197733333Y-96293809D01*
X197685714Y-96484285D01*
X197638095Y-96579523D01*
X197542857Y-96674761D01*
X197400000Y-96722380D01*
X197161904Y-96722380D01*
X198638095Y-95722380D02*
X198161904Y-95722380D01*
X198114285Y-96198571D01*
X198161904Y-96150952D01*
X198257142Y-96103333D01*
X198495238Y-96103333D01*
X198590476Y-96150952D01*
X198638095Y-96198571D01*
X198685714Y-96293809D01*
X198685714Y-96531904D01*
X198638095Y-96627142D01*
X198590476Y-96674761D01*
X198495238Y-96722380D01*
X198257142Y-96722380D01*
X198161904Y-96674761D01*
X198114285Y-96627142D01*
%TO.C,C40*%
X180157142Y-131907142D02*
X180109523Y-131954761D01*
X179966666Y-132002380D01*
X179871428Y-132002380D01*
X179728571Y-131954761D01*
X179633333Y-131859523D01*
X179585714Y-131764285D01*
X179538095Y-131573809D01*
X179538095Y-131430952D01*
X179585714Y-131240476D01*
X179633333Y-131145238D01*
X179728571Y-131050000D01*
X179871428Y-131002380D01*
X179966666Y-131002380D01*
X180109523Y-131050000D01*
X180157142Y-131097619D01*
X181014285Y-131335714D02*
X181014285Y-132002380D01*
X180776190Y-130954761D02*
X180538095Y-131669047D01*
X181157142Y-131669047D01*
X181728571Y-131002380D02*
X181823809Y-131002380D01*
X181919047Y-131050000D01*
X181966666Y-131097619D01*
X182014285Y-131192857D01*
X182061904Y-131383333D01*
X182061904Y-131621428D01*
X182014285Y-131811904D01*
X181966666Y-131907142D01*
X181919047Y-131954761D01*
X181823809Y-132002380D01*
X181728571Y-132002380D01*
X181633333Y-131954761D01*
X181585714Y-131907142D01*
X181538095Y-131811904D01*
X181490476Y-131621428D01*
X181490476Y-131383333D01*
X181538095Y-131192857D01*
X181585714Y-131097619D01*
X181633333Y-131050000D01*
X181728571Y-131002380D01*
%TO.C,R7*%
X143354380Y-120443666D02*
X142878190Y-120777000D01*
X143354380Y-121015095D02*
X142354380Y-121015095D01*
X142354380Y-120634142D01*
X142402000Y-120538904D01*
X142449619Y-120491285D01*
X142544857Y-120443666D01*
X142687714Y-120443666D01*
X142782952Y-120491285D01*
X142830571Y-120538904D01*
X142878190Y-120634142D01*
X142878190Y-121015095D01*
X142354380Y-120110333D02*
X142354380Y-119443666D01*
X143354380Y-119872238D01*
%TO.C,C6*%
X181557142Y-116666666D02*
X181604761Y-116714285D01*
X181652380Y-116857142D01*
X181652380Y-116952380D01*
X181604761Y-117095238D01*
X181509523Y-117190476D01*
X181414285Y-117238095D01*
X181223809Y-117285714D01*
X181080952Y-117285714D01*
X180890476Y-117238095D01*
X180795238Y-117190476D01*
X180700000Y-117095238D01*
X180652380Y-116952380D01*
X180652380Y-116857142D01*
X180700000Y-116714285D01*
X180747619Y-116666666D01*
X180652380Y-115809523D02*
X180652380Y-116000000D01*
X180700000Y-116095238D01*
X180747619Y-116142857D01*
X180890476Y-116238095D01*
X181080952Y-116285714D01*
X181461904Y-116285714D01*
X181557142Y-116238095D01*
X181604761Y-116190476D01*
X181652380Y-116095238D01*
X181652380Y-115904761D01*
X181604761Y-115809523D01*
X181557142Y-115761904D01*
X181461904Y-115714285D01*
X181223809Y-115714285D01*
X181128571Y-115761904D01*
X181080952Y-115809523D01*
X181033333Y-115904761D01*
X181033333Y-116095238D01*
X181080952Y-116190476D01*
X181128571Y-116238095D01*
X181223809Y-116285714D01*
%TO.C,C14*%
X182957142Y-101042857D02*
X183004761Y-101090476D01*
X183052380Y-101233333D01*
X183052380Y-101328571D01*
X183004761Y-101471428D01*
X182909523Y-101566666D01*
X182814285Y-101614285D01*
X182623809Y-101661904D01*
X182480952Y-101661904D01*
X182290476Y-101614285D01*
X182195238Y-101566666D01*
X182100000Y-101471428D01*
X182052380Y-101328571D01*
X182052380Y-101233333D01*
X182100000Y-101090476D01*
X182147619Y-101042857D01*
X183052380Y-100090476D02*
X183052380Y-100661904D01*
X183052380Y-100376190D02*
X182052380Y-100376190D01*
X182195238Y-100471428D01*
X182290476Y-100566666D01*
X182338095Y-100661904D01*
X182385714Y-99233333D02*
X183052380Y-99233333D01*
X182004761Y-99471428D02*
X182719047Y-99709523D01*
X182719047Y-99090476D01*
%TO.C,R1*%
X172433333Y-130252380D02*
X172100000Y-129776190D01*
X171861904Y-130252380D02*
X171861904Y-129252380D01*
X172242857Y-129252380D01*
X172338095Y-129300000D01*
X172385714Y-129347619D01*
X172433333Y-129442857D01*
X172433333Y-129585714D01*
X172385714Y-129680952D01*
X172338095Y-129728571D01*
X172242857Y-129776190D01*
X171861904Y-129776190D01*
X173385714Y-130252380D02*
X172814285Y-130252380D01*
X173100000Y-130252380D02*
X173100000Y-129252380D01*
X173004761Y-129395238D01*
X172909523Y-129490476D01*
X172814285Y-129538095D01*
%TO.C,D3*%
X197161904Y-95198380D02*
X197161904Y-94198380D01*
X197400000Y-94198380D01*
X197542857Y-94246000D01*
X197638095Y-94341238D01*
X197685714Y-94436476D01*
X197733333Y-94626952D01*
X197733333Y-94769809D01*
X197685714Y-94960285D01*
X197638095Y-95055523D01*
X197542857Y-95150761D01*
X197400000Y-95198380D01*
X197161904Y-95198380D01*
X198066666Y-94198380D02*
X198685714Y-94198380D01*
X198352380Y-94579333D01*
X198495238Y-94579333D01*
X198590476Y-94626952D01*
X198638095Y-94674571D01*
X198685714Y-94769809D01*
X198685714Y-95007904D01*
X198638095Y-95103142D01*
X198590476Y-95150761D01*
X198495238Y-95198380D01*
X198209523Y-95198380D01*
X198114285Y-95150761D01*
X198066666Y-95103142D01*
%TO.C,R8*%
X173452380Y-94266666D02*
X172976190Y-94600000D01*
X173452380Y-94838095D02*
X172452380Y-94838095D01*
X172452380Y-94457142D01*
X172500000Y-94361904D01*
X172547619Y-94314285D01*
X172642857Y-94266666D01*
X172785714Y-94266666D01*
X172880952Y-94314285D01*
X172928571Y-94361904D01*
X172976190Y-94457142D01*
X172976190Y-94838095D01*
X172880952Y-93695238D02*
X172833333Y-93790476D01*
X172785714Y-93838095D01*
X172690476Y-93885714D01*
X172642857Y-93885714D01*
X172547619Y-93838095D01*
X172500000Y-93790476D01*
X172452380Y-93695238D01*
X172452380Y-93504761D01*
X172500000Y-93409523D01*
X172547619Y-93361904D01*
X172642857Y-93314285D01*
X172690476Y-93314285D01*
X172785714Y-93361904D01*
X172833333Y-93409523D01*
X172880952Y-93504761D01*
X172880952Y-93695238D01*
X172928571Y-93790476D01*
X172976190Y-93838095D01*
X173071428Y-93885714D01*
X173261904Y-93885714D01*
X173357142Y-93838095D01*
X173404761Y-93790476D01*
X173452380Y-93695238D01*
X173452380Y-93504761D01*
X173404761Y-93409523D01*
X173357142Y-93361904D01*
X173261904Y-93314285D01*
X173071428Y-93314285D01*
X172976190Y-93361904D01*
X172928571Y-93409523D01*
X172880952Y-93504761D01*
%TO.C,H4*%
X194238095Y-136652380D02*
X194238095Y-135652380D01*
X194238095Y-136128571D02*
X194809523Y-136128571D01*
X194809523Y-136652380D02*
X194809523Y-135652380D01*
X195714285Y-135985714D02*
X195714285Y-136652380D01*
X195476190Y-135604761D02*
X195238095Y-136319047D01*
X195857142Y-136319047D01*
%TO.C,D4*%
X197161904Y-93674380D02*
X197161904Y-92674380D01*
X197400000Y-92674380D01*
X197542857Y-92722000D01*
X197638095Y-92817238D01*
X197685714Y-92912476D01*
X197733333Y-93102952D01*
X197733333Y-93245809D01*
X197685714Y-93436285D01*
X197638095Y-93531523D01*
X197542857Y-93626761D01*
X197400000Y-93674380D01*
X197161904Y-93674380D01*
X198590476Y-93007714D02*
X198590476Y-93674380D01*
X198352380Y-92626761D02*
X198114285Y-93341047D01*
X198733333Y-93341047D01*
%TO.C,R23*%
X135269642Y-87752380D02*
X134936309Y-87276190D01*
X134698214Y-87752380D02*
X134698214Y-86752380D01*
X135079166Y-86752380D01*
X135174404Y-86800000D01*
X135222023Y-86847619D01*
X135269642Y-86942857D01*
X135269642Y-87085714D01*
X135222023Y-87180952D01*
X135174404Y-87228571D01*
X135079166Y-87276190D01*
X134698214Y-87276190D01*
X135650595Y-86847619D02*
X135698214Y-86800000D01*
X135793452Y-86752380D01*
X136031547Y-86752380D01*
X136126785Y-86800000D01*
X136174404Y-86847619D01*
X136222023Y-86942857D01*
X136222023Y-87038095D01*
X136174404Y-87180952D01*
X135602976Y-87752380D01*
X136222023Y-87752380D01*
X136555357Y-86752380D02*
X137174404Y-86752380D01*
X136841071Y-87133333D01*
X136983928Y-87133333D01*
X137079166Y-87180952D01*
X137126785Y-87228571D01*
X137174404Y-87323809D01*
X137174404Y-87561904D01*
X137126785Y-87657142D01*
X137079166Y-87704761D01*
X136983928Y-87752380D01*
X136698214Y-87752380D01*
X136602976Y-87704761D01*
X136555357Y-87657142D01*
%TO.C,C9*%
X169957142Y-97166666D02*
X170004761Y-97214285D01*
X170052380Y-97357142D01*
X170052380Y-97452380D01*
X170004761Y-97595238D01*
X169909523Y-97690476D01*
X169814285Y-97738095D01*
X169623809Y-97785714D01*
X169480952Y-97785714D01*
X169290476Y-97738095D01*
X169195238Y-97690476D01*
X169100000Y-97595238D01*
X169052380Y-97452380D01*
X169052380Y-97357142D01*
X169100000Y-97214285D01*
X169147619Y-97166666D01*
X170052380Y-96690476D02*
X170052380Y-96500000D01*
X170004761Y-96404761D01*
X169957142Y-96357142D01*
X169814285Y-96261904D01*
X169623809Y-96214285D01*
X169242857Y-96214285D01*
X169147619Y-96261904D01*
X169100000Y-96309523D01*
X169052380Y-96404761D01*
X169052380Y-96595238D01*
X169100000Y-96690476D01*
X169147619Y-96738095D01*
X169242857Y-96785714D01*
X169480952Y-96785714D01*
X169576190Y-96738095D01*
X169623809Y-96690476D01*
X169671428Y-96595238D01*
X169671428Y-96404761D01*
X169623809Y-96309523D01*
X169576190Y-96261904D01*
X169480952Y-96214285D01*
%TO.C,U2*%
X200752380Y-105561904D02*
X201561904Y-105561904D01*
X201657142Y-105514285D01*
X201704761Y-105466666D01*
X201752380Y-105371428D01*
X201752380Y-105180952D01*
X201704761Y-105085714D01*
X201657142Y-105038095D01*
X201561904Y-104990476D01*
X200752380Y-104990476D01*
X200847619Y-104561904D02*
X200800000Y-104514285D01*
X200752380Y-104419047D01*
X200752380Y-104180952D01*
X200800000Y-104085714D01*
X200847619Y-104038095D01*
X200942857Y-103990476D01*
X201038095Y-103990476D01*
X201180952Y-104038095D01*
X201752380Y-104609523D01*
X201752380Y-103990476D01*
X195133380Y-102710200D02*
X195371476Y-102710200D01*
X195276238Y-102948295D02*
X195371476Y-102710200D01*
X195276238Y-102472104D01*
X195561952Y-102853057D02*
X195371476Y-102710200D01*
X195561952Y-102567342D01*
X195133380Y-102710200D02*
X195371476Y-102710200D01*
X195276238Y-102948295D02*
X195371476Y-102710200D01*
X195276238Y-102472104D01*
X195561952Y-102853057D02*
X195371476Y-102710200D01*
X195561952Y-102567342D01*
%TO.C,D9*%
X112752380Y-95725595D02*
X111752380Y-95725595D01*
X111752380Y-95487500D01*
X111800000Y-95344642D01*
X111895238Y-95249404D01*
X111990476Y-95201785D01*
X112180952Y-95154166D01*
X112323809Y-95154166D01*
X112514285Y-95201785D01*
X112609523Y-95249404D01*
X112704761Y-95344642D01*
X112752380Y-95487500D01*
X112752380Y-95725595D01*
X112752380Y-94677976D02*
X112752380Y-94487500D01*
X112704761Y-94392261D01*
X112657142Y-94344642D01*
X112514285Y-94249404D01*
X112323809Y-94201785D01*
X111942857Y-94201785D01*
X111847619Y-94249404D01*
X111800000Y-94297023D01*
X111752380Y-94392261D01*
X111752380Y-94582738D01*
X111800000Y-94677976D01*
X111847619Y-94725595D01*
X111942857Y-94773214D01*
X112180952Y-94773214D01*
X112276190Y-94725595D01*
X112323809Y-94677976D01*
X112371428Y-94582738D01*
X112371428Y-94392261D01*
X112323809Y-94297023D01*
X112276190Y-94249404D01*
X112180952Y-94201785D01*
%TO.C,R40*%
X120438392Y-104733630D02*
X120105059Y-104257440D01*
X119866964Y-104733630D02*
X119866964Y-103733630D01*
X120247916Y-103733630D01*
X120343154Y-103781250D01*
X120390773Y-103828869D01*
X120438392Y-103924107D01*
X120438392Y-104066964D01*
X120390773Y-104162202D01*
X120343154Y-104209821D01*
X120247916Y-104257440D01*
X119866964Y-104257440D01*
X121295535Y-104066964D02*
X121295535Y-104733630D01*
X121057440Y-103686011D02*
X120819345Y-104400297D01*
X121438392Y-104400297D01*
X122009821Y-103733630D02*
X122105059Y-103733630D01*
X122200297Y-103781250D01*
X122247916Y-103828869D01*
X122295535Y-103924107D01*
X122343154Y-104114583D01*
X122343154Y-104352678D01*
X122295535Y-104543154D01*
X122247916Y-104638392D01*
X122200297Y-104686011D01*
X122105059Y-104733630D01*
X122009821Y-104733630D01*
X121914583Y-104686011D01*
X121866964Y-104638392D01*
X121819345Y-104543154D01*
X121771726Y-104352678D01*
X121771726Y-104114583D01*
X121819345Y-103924107D01*
X121866964Y-103828869D01*
X121914583Y-103781250D01*
X122009821Y-103733630D01*
%TO.C,CP3*%
X143657142Y-90766666D02*
X143704761Y-90814285D01*
X143752380Y-90957142D01*
X143752380Y-91052380D01*
X143704761Y-91195238D01*
X143609523Y-91290476D01*
X143514285Y-91338095D01*
X143323809Y-91385714D01*
X143180952Y-91385714D01*
X142990476Y-91338095D01*
X142895238Y-91290476D01*
X142800000Y-91195238D01*
X142752380Y-91052380D01*
X142752380Y-90957142D01*
X142800000Y-90814285D01*
X142847619Y-90766666D01*
X143752380Y-90338095D02*
X142752380Y-90338095D01*
X142752380Y-89957142D01*
X142800000Y-89861904D01*
X142847619Y-89814285D01*
X142942857Y-89766666D01*
X143085714Y-89766666D01*
X143180952Y-89814285D01*
X143228571Y-89861904D01*
X143276190Y-89957142D01*
X143276190Y-90338095D01*
X142752380Y-89433333D02*
X142752380Y-88814285D01*
X143133333Y-89147619D01*
X143133333Y-89004761D01*
X143180952Y-88909523D01*
X143228571Y-88861904D01*
X143323809Y-88814285D01*
X143561904Y-88814285D01*
X143657142Y-88861904D01*
X143704761Y-88909523D01*
X143752380Y-89004761D01*
X143752380Y-89290476D01*
X143704761Y-89385714D01*
X143657142Y-89433333D01*
%TO.C,C12*%
X150489142Y-103719857D02*
X150536761Y-103767476D01*
X150584380Y-103910333D01*
X150584380Y-104005571D01*
X150536761Y-104148428D01*
X150441523Y-104243666D01*
X150346285Y-104291285D01*
X150155809Y-104338904D01*
X150012952Y-104338904D01*
X149822476Y-104291285D01*
X149727238Y-104243666D01*
X149632000Y-104148428D01*
X149584380Y-104005571D01*
X149584380Y-103910333D01*
X149632000Y-103767476D01*
X149679619Y-103719857D01*
X150584380Y-102767476D02*
X150584380Y-103338904D01*
X150584380Y-103053190D02*
X149584380Y-103053190D01*
X149727238Y-103148428D01*
X149822476Y-103243666D01*
X149870095Y-103338904D01*
X149679619Y-102386523D02*
X149632000Y-102338904D01*
X149584380Y-102243666D01*
X149584380Y-102005571D01*
X149632000Y-101910333D01*
X149679619Y-101862714D01*
X149774857Y-101815095D01*
X149870095Y-101815095D01*
X150012952Y-101862714D01*
X150584380Y-102434142D01*
X150584380Y-101815095D01*
%TO.C,U14*%
X183960097Y-89350043D02*
X183960097Y-89859979D01*
X183990094Y-89919971D01*
X184020090Y-89949968D01*
X184080082Y-89979964D01*
X184200067Y-89979964D01*
X184260060Y-89949968D01*
X184290056Y-89919971D01*
X184320052Y-89859979D01*
X184320052Y-89350043D01*
X184949973Y-89979964D02*
X184590018Y-89979964D01*
X184769996Y-89979964D02*
X184769996Y-89350043D01*
X184710003Y-89440031D01*
X184650011Y-89500024D01*
X184590018Y-89530020D01*
X185489905Y-89560016D02*
X185489905Y-89979964D01*
X185339924Y-89320047D02*
X185189943Y-89769990D01*
X185579894Y-89769990D01*
%TO.C,C52*%
X126338392Y-98638392D02*
X126290773Y-98686011D01*
X126147916Y-98733630D01*
X126052678Y-98733630D01*
X125909821Y-98686011D01*
X125814583Y-98590773D01*
X125766964Y-98495535D01*
X125719345Y-98305059D01*
X125719345Y-98162202D01*
X125766964Y-97971726D01*
X125814583Y-97876488D01*
X125909821Y-97781250D01*
X126052678Y-97733630D01*
X126147916Y-97733630D01*
X126290773Y-97781250D01*
X126338392Y-97828869D01*
X127243154Y-97733630D02*
X126766964Y-97733630D01*
X126719345Y-98209821D01*
X126766964Y-98162202D01*
X126862202Y-98114583D01*
X127100297Y-98114583D01*
X127195535Y-98162202D01*
X127243154Y-98209821D01*
X127290773Y-98305059D01*
X127290773Y-98543154D01*
X127243154Y-98638392D01*
X127195535Y-98686011D01*
X127100297Y-98733630D01*
X126862202Y-98733630D01*
X126766964Y-98686011D01*
X126719345Y-98638392D01*
X127671726Y-97828869D02*
X127719345Y-97781250D01*
X127814583Y-97733630D01*
X128052678Y-97733630D01*
X128147916Y-97781250D01*
X128195535Y-97828869D01*
X128243154Y-97924107D01*
X128243154Y-98019345D01*
X128195535Y-98162202D01*
X127624107Y-98733630D01*
X128243154Y-98733630D01*
%TO.C,R3*%
X172433333Y-127052380D02*
X172100000Y-126576190D01*
X171861904Y-127052380D02*
X171861904Y-126052380D01*
X172242857Y-126052380D01*
X172338095Y-126100000D01*
X172385714Y-126147619D01*
X172433333Y-126242857D01*
X172433333Y-126385714D01*
X172385714Y-126480952D01*
X172338095Y-126528571D01*
X172242857Y-126576190D01*
X171861904Y-126576190D01*
X172766666Y-126052380D02*
X173385714Y-126052380D01*
X173052380Y-126433333D01*
X173195238Y-126433333D01*
X173290476Y-126480952D01*
X173338095Y-126528571D01*
X173385714Y-126623809D01*
X173385714Y-126861904D01*
X173338095Y-126957142D01*
X173290476Y-127004761D01*
X173195238Y-127052380D01*
X172909523Y-127052380D01*
X172814285Y-127004761D01*
X172766666Y-126957142D01*
%TO.C,R42*%
X112922380Y-98767857D02*
X112446190Y-99101190D01*
X112922380Y-99339285D02*
X111922380Y-99339285D01*
X111922380Y-98958333D01*
X111970000Y-98863095D01*
X112017619Y-98815476D01*
X112112857Y-98767857D01*
X112255714Y-98767857D01*
X112350952Y-98815476D01*
X112398571Y-98863095D01*
X112446190Y-98958333D01*
X112446190Y-99339285D01*
X112255714Y-97910714D02*
X112922380Y-97910714D01*
X111874761Y-98148809D02*
X112589047Y-98386904D01*
X112589047Y-97767857D01*
X112017619Y-97434523D02*
X111970000Y-97386904D01*
X111922380Y-97291666D01*
X111922380Y-97053571D01*
X111970000Y-96958333D01*
X112017619Y-96910714D01*
X112112857Y-96863095D01*
X112208095Y-96863095D01*
X112350952Y-96910714D01*
X112922380Y-97482142D01*
X112922380Y-96863095D01*
%TO.C,C34*%
X124457142Y-133257142D02*
X124409523Y-133304761D01*
X124266666Y-133352380D01*
X124171428Y-133352380D01*
X124028571Y-133304761D01*
X123933333Y-133209523D01*
X123885714Y-133114285D01*
X123838095Y-132923809D01*
X123838095Y-132780952D01*
X123885714Y-132590476D01*
X123933333Y-132495238D01*
X124028571Y-132400000D01*
X124171428Y-132352380D01*
X124266666Y-132352380D01*
X124409523Y-132400000D01*
X124457142Y-132447619D01*
X124790476Y-132352380D02*
X125409523Y-132352380D01*
X125076190Y-132733333D01*
X125219047Y-132733333D01*
X125314285Y-132780952D01*
X125361904Y-132828571D01*
X125409523Y-132923809D01*
X125409523Y-133161904D01*
X125361904Y-133257142D01*
X125314285Y-133304761D01*
X125219047Y-133352380D01*
X124933333Y-133352380D01*
X124838095Y-133304761D01*
X124790476Y-133257142D01*
X126266666Y-132685714D02*
X126266666Y-133352380D01*
X126028571Y-132304761D02*
X125790476Y-133019047D01*
X126409523Y-133019047D01*
%TO.C,C28*%
X125857142Y-108592857D02*
X125904761Y-108640476D01*
X125952380Y-108783333D01*
X125952380Y-108878571D01*
X125904761Y-109021428D01*
X125809523Y-109116666D01*
X125714285Y-109164285D01*
X125523809Y-109211904D01*
X125380952Y-109211904D01*
X125190476Y-109164285D01*
X125095238Y-109116666D01*
X125000000Y-109021428D01*
X124952380Y-108878571D01*
X124952380Y-108783333D01*
X125000000Y-108640476D01*
X125047619Y-108592857D01*
X125047619Y-108211904D02*
X125000000Y-108164285D01*
X124952380Y-108069047D01*
X124952380Y-107830952D01*
X125000000Y-107735714D01*
X125047619Y-107688095D01*
X125142857Y-107640476D01*
X125238095Y-107640476D01*
X125380952Y-107688095D01*
X125952380Y-108259523D01*
X125952380Y-107640476D01*
X125380952Y-107069047D02*
X125333333Y-107164285D01*
X125285714Y-107211904D01*
X125190476Y-107259523D01*
X125142857Y-107259523D01*
X125047619Y-107211904D01*
X125000000Y-107164285D01*
X124952380Y-107069047D01*
X124952380Y-106878571D01*
X125000000Y-106783333D01*
X125047619Y-106735714D01*
X125142857Y-106688095D01*
X125190476Y-106688095D01*
X125285714Y-106735714D01*
X125333333Y-106783333D01*
X125380952Y-106878571D01*
X125380952Y-107069047D01*
X125428571Y-107164285D01*
X125476190Y-107211904D01*
X125571428Y-107259523D01*
X125761904Y-107259523D01*
X125857142Y-107211904D01*
X125904761Y-107164285D01*
X125952380Y-107069047D01*
X125952380Y-106878571D01*
X125904761Y-106783333D01*
X125857142Y-106735714D01*
X125761904Y-106688095D01*
X125571428Y-106688095D01*
X125476190Y-106735714D01*
X125428571Y-106783333D01*
X125380952Y-106878571D01*
%TO.C,C11*%
X150289142Y-117819857D02*
X150336761Y-117867476D01*
X150384380Y-118010333D01*
X150384380Y-118105571D01*
X150336761Y-118248428D01*
X150241523Y-118343666D01*
X150146285Y-118391285D01*
X149955809Y-118438904D01*
X149812952Y-118438904D01*
X149622476Y-118391285D01*
X149527238Y-118343666D01*
X149432000Y-118248428D01*
X149384380Y-118105571D01*
X149384380Y-118010333D01*
X149432000Y-117867476D01*
X149479619Y-117819857D01*
X150384380Y-116867476D02*
X150384380Y-117438904D01*
X150384380Y-117153190D02*
X149384380Y-117153190D01*
X149527238Y-117248428D01*
X149622476Y-117343666D01*
X149670095Y-117438904D01*
X150384380Y-115915095D02*
X150384380Y-116486523D01*
X150384380Y-116200809D02*
X149384380Y-116200809D01*
X149527238Y-116296047D01*
X149622476Y-116391285D01*
X149670095Y-116486523D01*
%TO.C,C15*%
X178227142Y-100817857D02*
X178274761Y-100865476D01*
X178322380Y-101008333D01*
X178322380Y-101103571D01*
X178274761Y-101246428D01*
X178179523Y-101341666D01*
X178084285Y-101389285D01*
X177893809Y-101436904D01*
X177750952Y-101436904D01*
X177560476Y-101389285D01*
X177465238Y-101341666D01*
X177370000Y-101246428D01*
X177322380Y-101103571D01*
X177322380Y-101008333D01*
X177370000Y-100865476D01*
X177417619Y-100817857D01*
X178322380Y-99865476D02*
X178322380Y-100436904D01*
X178322380Y-100151190D02*
X177322380Y-100151190D01*
X177465238Y-100246428D01*
X177560476Y-100341666D01*
X177608095Y-100436904D01*
X177322380Y-98960714D02*
X177322380Y-99436904D01*
X177798571Y-99484523D01*
X177750952Y-99436904D01*
X177703333Y-99341666D01*
X177703333Y-99103571D01*
X177750952Y-99008333D01*
X177798571Y-98960714D01*
X177893809Y-98913095D01*
X178131904Y-98913095D01*
X178227142Y-98960714D01*
X178274761Y-99008333D01*
X178322380Y-99103571D01*
X178322380Y-99341666D01*
X178274761Y-99436904D01*
X178227142Y-99484523D01*
%TO.C,C23*%
X116157142Y-120942857D02*
X116204761Y-120990476D01*
X116252380Y-121133333D01*
X116252380Y-121228571D01*
X116204761Y-121371428D01*
X116109523Y-121466666D01*
X116014285Y-121514285D01*
X115823809Y-121561904D01*
X115680952Y-121561904D01*
X115490476Y-121514285D01*
X115395238Y-121466666D01*
X115300000Y-121371428D01*
X115252380Y-121228571D01*
X115252380Y-121133333D01*
X115300000Y-120990476D01*
X115347619Y-120942857D01*
X115347619Y-120561904D02*
X115300000Y-120514285D01*
X115252380Y-120419047D01*
X115252380Y-120180952D01*
X115300000Y-120085714D01*
X115347619Y-120038095D01*
X115442857Y-119990476D01*
X115538095Y-119990476D01*
X115680952Y-120038095D01*
X116252380Y-120609523D01*
X116252380Y-119990476D01*
X115252380Y-119657142D02*
X115252380Y-119038095D01*
X115633333Y-119371428D01*
X115633333Y-119228571D01*
X115680952Y-119133333D01*
X115728571Y-119085714D01*
X115823809Y-119038095D01*
X116061904Y-119038095D01*
X116157142Y-119085714D01*
X116204761Y-119133333D01*
X116252380Y-119228571D01*
X116252380Y-119514285D01*
X116204761Y-119609523D01*
X116157142Y-119657142D01*
%TO.C,C38*%
X139787142Y-116762142D02*
X139739523Y-116809761D01*
X139596666Y-116857380D01*
X139501428Y-116857380D01*
X139358571Y-116809761D01*
X139263333Y-116714523D01*
X139215714Y-116619285D01*
X139168095Y-116428809D01*
X139168095Y-116285952D01*
X139215714Y-116095476D01*
X139263333Y-116000238D01*
X139358571Y-115905000D01*
X139501428Y-115857380D01*
X139596666Y-115857380D01*
X139739523Y-115905000D01*
X139787142Y-115952619D01*
X140120476Y-115857380D02*
X140739523Y-115857380D01*
X140406190Y-116238333D01*
X140549047Y-116238333D01*
X140644285Y-116285952D01*
X140691904Y-116333571D01*
X140739523Y-116428809D01*
X140739523Y-116666904D01*
X140691904Y-116762142D01*
X140644285Y-116809761D01*
X140549047Y-116857380D01*
X140263333Y-116857380D01*
X140168095Y-116809761D01*
X140120476Y-116762142D01*
X141310952Y-116285952D02*
X141215714Y-116238333D01*
X141168095Y-116190714D01*
X141120476Y-116095476D01*
X141120476Y-116047857D01*
X141168095Y-115952619D01*
X141215714Y-115905000D01*
X141310952Y-115857380D01*
X141501428Y-115857380D01*
X141596666Y-115905000D01*
X141644285Y-115952619D01*
X141691904Y-116047857D01*
X141691904Y-116095476D01*
X141644285Y-116190714D01*
X141596666Y-116238333D01*
X141501428Y-116285952D01*
X141310952Y-116285952D01*
X141215714Y-116333571D01*
X141168095Y-116381190D01*
X141120476Y-116476428D01*
X141120476Y-116666904D01*
X141168095Y-116762142D01*
X141215714Y-116809761D01*
X141310952Y-116857380D01*
X141501428Y-116857380D01*
X141596666Y-116809761D01*
X141644285Y-116762142D01*
X141691904Y-116666904D01*
X141691904Y-116476428D01*
X141644285Y-116381190D01*
X141596666Y-116333571D01*
X141501428Y-116285952D01*
%TO.C,R15*%
X121257142Y-121652380D02*
X120923809Y-121176190D01*
X120685714Y-121652380D02*
X120685714Y-120652380D01*
X121066666Y-120652380D01*
X121161904Y-120700000D01*
X121209523Y-120747619D01*
X121257142Y-120842857D01*
X121257142Y-120985714D01*
X121209523Y-121080952D01*
X121161904Y-121128571D01*
X121066666Y-121176190D01*
X120685714Y-121176190D01*
X122209523Y-121652380D02*
X121638095Y-121652380D01*
X121923809Y-121652380D02*
X121923809Y-120652380D01*
X121828571Y-120795238D01*
X121733333Y-120890476D01*
X121638095Y-120938095D01*
X123114285Y-120652380D02*
X122638095Y-120652380D01*
X122590476Y-121128571D01*
X122638095Y-121080952D01*
X122733333Y-121033333D01*
X122971428Y-121033333D01*
X123066666Y-121080952D01*
X123114285Y-121128571D01*
X123161904Y-121223809D01*
X123161904Y-121461904D01*
X123114285Y-121557142D01*
X123066666Y-121604761D01*
X122971428Y-121652380D01*
X122733333Y-121652380D01*
X122638095Y-121604761D01*
X122590476Y-121557142D01*
%TO.C,R26*%
X124669642Y-90752380D02*
X124336309Y-90276190D01*
X124098214Y-90752380D02*
X124098214Y-89752380D01*
X124479166Y-89752380D01*
X124574404Y-89800000D01*
X124622023Y-89847619D01*
X124669642Y-89942857D01*
X124669642Y-90085714D01*
X124622023Y-90180952D01*
X124574404Y-90228571D01*
X124479166Y-90276190D01*
X124098214Y-90276190D01*
X125050595Y-89847619D02*
X125098214Y-89800000D01*
X125193452Y-89752380D01*
X125431547Y-89752380D01*
X125526785Y-89800000D01*
X125574404Y-89847619D01*
X125622023Y-89942857D01*
X125622023Y-90038095D01*
X125574404Y-90180952D01*
X125002976Y-90752380D01*
X125622023Y-90752380D01*
X126479166Y-89752380D02*
X126288690Y-89752380D01*
X126193452Y-89800000D01*
X126145833Y-89847619D01*
X126050595Y-89990476D01*
X126002976Y-90180952D01*
X126002976Y-90561904D01*
X126050595Y-90657142D01*
X126098214Y-90704761D01*
X126193452Y-90752380D01*
X126383928Y-90752380D01*
X126479166Y-90704761D01*
X126526785Y-90657142D01*
X126574404Y-90561904D01*
X126574404Y-90323809D01*
X126526785Y-90228571D01*
X126479166Y-90180952D01*
X126383928Y-90133333D01*
X126193452Y-90133333D01*
X126098214Y-90180952D01*
X126050595Y-90228571D01*
X126002976Y-90323809D01*
%TO.C,D1*%
X184352380Y-128538095D02*
X183352380Y-128538095D01*
X183352380Y-128300000D01*
X183400000Y-128157142D01*
X183495238Y-128061904D01*
X183590476Y-128014285D01*
X183780952Y-127966666D01*
X183923809Y-127966666D01*
X184114285Y-128014285D01*
X184209523Y-128061904D01*
X184304761Y-128157142D01*
X184352380Y-128300000D01*
X184352380Y-128538095D01*
X184352380Y-127014285D02*
X184352380Y-127585714D01*
X184352380Y-127300000D02*
X183352380Y-127300000D01*
X183495238Y-127395238D01*
X183590476Y-127490476D01*
X183638095Y-127585714D01*
%TO.C,C8*%
X173133333Y-98957142D02*
X173085714Y-99004761D01*
X172942857Y-99052380D01*
X172847619Y-99052380D01*
X172704761Y-99004761D01*
X172609523Y-98909523D01*
X172561904Y-98814285D01*
X172514285Y-98623809D01*
X172514285Y-98480952D01*
X172561904Y-98290476D01*
X172609523Y-98195238D01*
X172704761Y-98100000D01*
X172847619Y-98052380D01*
X172942857Y-98052380D01*
X173085714Y-98100000D01*
X173133333Y-98147619D01*
X173704761Y-98480952D02*
X173609523Y-98433333D01*
X173561904Y-98385714D01*
X173514285Y-98290476D01*
X173514285Y-98242857D01*
X173561904Y-98147619D01*
X173609523Y-98100000D01*
X173704761Y-98052380D01*
X173895238Y-98052380D01*
X173990476Y-98100000D01*
X174038095Y-98147619D01*
X174085714Y-98242857D01*
X174085714Y-98290476D01*
X174038095Y-98385714D01*
X173990476Y-98433333D01*
X173895238Y-98480952D01*
X173704761Y-98480952D01*
X173609523Y-98528571D01*
X173561904Y-98576190D01*
X173514285Y-98671428D01*
X173514285Y-98861904D01*
X173561904Y-98957142D01*
X173609523Y-99004761D01*
X173704761Y-99052380D01*
X173895238Y-99052380D01*
X173990476Y-99004761D01*
X174038095Y-98957142D01*
X174085714Y-98861904D01*
X174085714Y-98671428D01*
X174038095Y-98576190D01*
X173990476Y-98528571D01*
X173895238Y-98480952D01*
%TO.C,R9*%
X194177333Y-95198380D02*
X193844000Y-94722190D01*
X193605904Y-95198380D02*
X193605904Y-94198380D01*
X193986857Y-94198380D01*
X194082095Y-94246000D01*
X194129714Y-94293619D01*
X194177333Y-94388857D01*
X194177333Y-94531714D01*
X194129714Y-94626952D01*
X194082095Y-94674571D01*
X193986857Y-94722190D01*
X193605904Y-94722190D01*
X194653523Y-95198380D02*
X194844000Y-95198380D01*
X194939238Y-95150761D01*
X194986857Y-95103142D01*
X195082095Y-94960285D01*
X195129714Y-94769809D01*
X195129714Y-94388857D01*
X195082095Y-94293619D01*
X195034476Y-94246000D01*
X194939238Y-94198380D01*
X194748761Y-94198380D01*
X194653523Y-94246000D01*
X194605904Y-94293619D01*
X194558285Y-94388857D01*
X194558285Y-94626952D01*
X194605904Y-94722190D01*
X194653523Y-94769809D01*
X194748761Y-94817428D01*
X194939238Y-94817428D01*
X195034476Y-94769809D01*
X195082095Y-94722190D01*
X195129714Y-94626952D01*
%TO.C,U12*%
X136852380Y-116238095D02*
X137661904Y-116238095D01*
X137757142Y-116190476D01*
X137804761Y-116142857D01*
X137852380Y-116047619D01*
X137852380Y-115857142D01*
X137804761Y-115761904D01*
X137757142Y-115714285D01*
X137661904Y-115666666D01*
X136852380Y-115666666D01*
X137852380Y-114666666D02*
X137852380Y-115238095D01*
X137852380Y-114952380D02*
X136852380Y-114952380D01*
X136995238Y-115047619D01*
X137090476Y-115142857D01*
X137138095Y-115238095D01*
X136947619Y-114285714D02*
X136900000Y-114238095D01*
X136852380Y-114142857D01*
X136852380Y-113904761D01*
X136900000Y-113809523D01*
X136947619Y-113761904D01*
X137042857Y-113714285D01*
X137138095Y-113714285D01*
X137280952Y-113761904D01*
X137852380Y-114333333D01*
X137852380Y-113714285D01*
%TO.C,Z1*%
X113690476Y-102802380D02*
X114357142Y-102802380D01*
X113690476Y-103802380D01*
X114357142Y-103802380D01*
X115261904Y-103802380D02*
X114690476Y-103802380D01*
X114976190Y-103802380D02*
X114976190Y-102802380D01*
X114880952Y-102945238D01*
X114785714Y-103040476D01*
X114690476Y-103088095D01*
%TO.C,L4*%
X137114583Y-102033630D02*
X136638392Y-102033630D01*
X136638392Y-101033630D01*
X137876488Y-101366964D02*
X137876488Y-102033630D01*
X137638392Y-100986011D02*
X137400297Y-101700297D01*
X138019345Y-101700297D01*
%TO.C,U8*%
X128350595Y-87352380D02*
X128350595Y-88161904D01*
X128398214Y-88257142D01*
X128445833Y-88304761D01*
X128541071Y-88352380D01*
X128731547Y-88352380D01*
X128826785Y-88304761D01*
X128874404Y-88257142D01*
X128922023Y-88161904D01*
X128922023Y-87352380D01*
X129541071Y-87780952D02*
X129445833Y-87733333D01*
X129398214Y-87685714D01*
X129350595Y-87590476D01*
X129350595Y-87542857D01*
X129398214Y-87447619D01*
X129445833Y-87400000D01*
X129541071Y-87352380D01*
X129731547Y-87352380D01*
X129826785Y-87400000D01*
X129874404Y-87447619D01*
X129922023Y-87542857D01*
X129922023Y-87590476D01*
X129874404Y-87685714D01*
X129826785Y-87733333D01*
X129731547Y-87780952D01*
X129541071Y-87780952D01*
X129445833Y-87828571D01*
X129398214Y-87876190D01*
X129350595Y-87971428D01*
X129350595Y-88161904D01*
X129398214Y-88257142D01*
X129445833Y-88304761D01*
X129541071Y-88352380D01*
X129731547Y-88352380D01*
X129826785Y-88304761D01*
X129874404Y-88257142D01*
X129922023Y-88161904D01*
X129922023Y-87971428D01*
X129874404Y-87876190D01*
X129826785Y-87828571D01*
X129731547Y-87780952D01*
X129300000Y-87352380D02*
X129300000Y-87590476D01*
X129061904Y-87495238D02*
X129300000Y-87590476D01*
X129538095Y-87495238D01*
X129157142Y-87780952D02*
X129300000Y-87590476D01*
X129442857Y-87780952D01*
%TO.C,C18*%
X130432142Y-92587142D02*
X130384523Y-92634761D01*
X130241666Y-92682380D01*
X130146428Y-92682380D01*
X130003571Y-92634761D01*
X129908333Y-92539523D01*
X129860714Y-92444285D01*
X129813095Y-92253809D01*
X129813095Y-92110952D01*
X129860714Y-91920476D01*
X129908333Y-91825238D01*
X130003571Y-91730000D01*
X130146428Y-91682380D01*
X130241666Y-91682380D01*
X130384523Y-91730000D01*
X130432142Y-91777619D01*
X131384523Y-92682380D02*
X130813095Y-92682380D01*
X131098809Y-92682380D02*
X131098809Y-91682380D01*
X131003571Y-91825238D01*
X130908333Y-91920476D01*
X130813095Y-91968095D01*
X131955952Y-92110952D02*
X131860714Y-92063333D01*
X131813095Y-92015714D01*
X131765476Y-91920476D01*
X131765476Y-91872857D01*
X131813095Y-91777619D01*
X131860714Y-91730000D01*
X131955952Y-91682380D01*
X132146428Y-91682380D01*
X132241666Y-91730000D01*
X132289285Y-91777619D01*
X132336904Y-91872857D01*
X132336904Y-91920476D01*
X132289285Y-92015714D01*
X132241666Y-92063333D01*
X132146428Y-92110952D01*
X131955952Y-92110952D01*
X131860714Y-92158571D01*
X131813095Y-92206190D01*
X131765476Y-92301428D01*
X131765476Y-92491904D01*
X131813095Y-92587142D01*
X131860714Y-92634761D01*
X131955952Y-92682380D01*
X132146428Y-92682380D01*
X132241666Y-92634761D01*
X132289285Y-92587142D01*
X132336904Y-92491904D01*
X132336904Y-92301428D01*
X132289285Y-92206190D01*
X132241666Y-92158571D01*
X132146428Y-92110952D01*
%TO.C,R38*%
X187932142Y-99052380D02*
X187598809Y-98576190D01*
X187360714Y-99052380D02*
X187360714Y-98052380D01*
X187741666Y-98052380D01*
X187836904Y-98100000D01*
X187884523Y-98147619D01*
X187932142Y-98242857D01*
X187932142Y-98385714D01*
X187884523Y-98480952D01*
X187836904Y-98528571D01*
X187741666Y-98576190D01*
X187360714Y-98576190D01*
X188265476Y-98052380D02*
X188884523Y-98052380D01*
X188551190Y-98433333D01*
X188694047Y-98433333D01*
X188789285Y-98480952D01*
X188836904Y-98528571D01*
X188884523Y-98623809D01*
X188884523Y-98861904D01*
X188836904Y-98957142D01*
X188789285Y-99004761D01*
X188694047Y-99052380D01*
X188408333Y-99052380D01*
X188313095Y-99004761D01*
X188265476Y-98957142D01*
X189455952Y-98480952D02*
X189360714Y-98433333D01*
X189313095Y-98385714D01*
X189265476Y-98290476D01*
X189265476Y-98242857D01*
X189313095Y-98147619D01*
X189360714Y-98100000D01*
X189455952Y-98052380D01*
X189646428Y-98052380D01*
X189741666Y-98100000D01*
X189789285Y-98147619D01*
X189836904Y-98242857D01*
X189836904Y-98290476D01*
X189789285Y-98385714D01*
X189741666Y-98433333D01*
X189646428Y-98480952D01*
X189455952Y-98480952D01*
X189360714Y-98528571D01*
X189313095Y-98576190D01*
X189265476Y-98671428D01*
X189265476Y-98861904D01*
X189313095Y-98957142D01*
X189360714Y-99004761D01*
X189455952Y-99052380D01*
X189646428Y-99052380D01*
X189741666Y-99004761D01*
X189789285Y-98957142D01*
X189836904Y-98861904D01*
X189836904Y-98671428D01*
X189789285Y-98576190D01*
X189741666Y-98528571D01*
X189646428Y-98480952D01*
%TO.C,C37*%
X132538392Y-104538392D02*
X132490773Y-104586011D01*
X132347916Y-104633630D01*
X132252678Y-104633630D01*
X132109821Y-104586011D01*
X132014583Y-104490773D01*
X131966964Y-104395535D01*
X131919345Y-104205059D01*
X131919345Y-104062202D01*
X131966964Y-103871726D01*
X132014583Y-103776488D01*
X132109821Y-103681250D01*
X132252678Y-103633630D01*
X132347916Y-103633630D01*
X132490773Y-103681250D01*
X132538392Y-103728869D01*
X132871726Y-103633630D02*
X133490773Y-103633630D01*
X133157440Y-104014583D01*
X133300297Y-104014583D01*
X133395535Y-104062202D01*
X133443154Y-104109821D01*
X133490773Y-104205059D01*
X133490773Y-104443154D01*
X133443154Y-104538392D01*
X133395535Y-104586011D01*
X133300297Y-104633630D01*
X133014583Y-104633630D01*
X132919345Y-104586011D01*
X132871726Y-104538392D01*
X133824107Y-103633630D02*
X134490773Y-103633630D01*
X134062202Y-104633630D01*
%TO.C,L2*%
X119452380Y-141266666D02*
X119452380Y-141742857D01*
X118452380Y-141742857D01*
X118547619Y-140980952D02*
X118500000Y-140933333D01*
X118452380Y-140838095D01*
X118452380Y-140600000D01*
X118500000Y-140504761D01*
X118547619Y-140457142D01*
X118642857Y-140409523D01*
X118738095Y-140409523D01*
X118880952Y-140457142D01*
X119452380Y-141028571D01*
X119452380Y-140409523D01*
%TO.C,FB1*%
X140428571Y-93033333D02*
X140428571Y-93366666D01*
X140952380Y-93366666D02*
X139952380Y-93366666D01*
X139952380Y-92890476D01*
X140428571Y-92176190D02*
X140476190Y-92033333D01*
X140523809Y-91985714D01*
X140619047Y-91938095D01*
X140761904Y-91938095D01*
X140857142Y-91985714D01*
X140904761Y-92033333D01*
X140952380Y-92128571D01*
X140952380Y-92509523D01*
X139952380Y-92509523D01*
X139952380Y-92176190D01*
X140000000Y-92080952D01*
X140047619Y-92033333D01*
X140142857Y-91985714D01*
X140238095Y-91985714D01*
X140333333Y-92033333D01*
X140380952Y-92080952D01*
X140428571Y-92176190D01*
X140428571Y-92509523D01*
X140952380Y-90985714D02*
X140952380Y-91557142D01*
X140952380Y-91271428D02*
X139952380Y-91271428D01*
X140095238Y-91366666D01*
X140190476Y-91461904D01*
X140238095Y-91557142D01*
%TO.C,Y1*%
X153838309Y-138853190D02*
X153838309Y-139329380D01*
X153504976Y-138329380D02*
X153838309Y-138853190D01*
X154171642Y-138329380D01*
X155028785Y-139329380D02*
X154457357Y-139329380D01*
X154743071Y-139329380D02*
X154743071Y-138329380D01*
X154647833Y-138472238D01*
X154552595Y-138567476D01*
X154457357Y-138615095D01*
%TO.C,Q1*%
X147299261Y-104024619D02*
X147204023Y-103977000D01*
X147108785Y-103881761D01*
X146965928Y-103738904D01*
X146870690Y-103691285D01*
X146775452Y-103691285D01*
X146823071Y-103929380D02*
X146727833Y-103881761D01*
X146632595Y-103786523D01*
X146584976Y-103596047D01*
X146584976Y-103262714D01*
X146632595Y-103072238D01*
X146727833Y-102977000D01*
X146823071Y-102929380D01*
X147013547Y-102929380D01*
X147108785Y-102977000D01*
X147204023Y-103072238D01*
X147251642Y-103262714D01*
X147251642Y-103596047D01*
X147204023Y-103786523D01*
X147108785Y-103881761D01*
X147013547Y-103929380D01*
X146823071Y-103929380D01*
X148204023Y-103929380D02*
X147632595Y-103929380D01*
X147918309Y-103929380D02*
X147918309Y-102929380D01*
X147823071Y-103072238D01*
X147727833Y-103167476D01*
X147632595Y-103215095D01*
%TO.C,H1*%
X104238095Y-136652380D02*
X104238095Y-135652380D01*
X104238095Y-136128571D02*
X104809523Y-136128571D01*
X104809523Y-136652380D02*
X104809523Y-135652380D01*
X105809523Y-136652380D02*
X105238095Y-136652380D01*
X105523809Y-136652380D02*
X105523809Y-135652380D01*
X105428571Y-135795238D01*
X105333333Y-135890476D01*
X105238095Y-135938095D01*
%TO.C,R24*%
X131657142Y-126852380D02*
X131323809Y-126376190D01*
X131085714Y-126852380D02*
X131085714Y-125852380D01*
X131466666Y-125852380D01*
X131561904Y-125900000D01*
X131609523Y-125947619D01*
X131657142Y-126042857D01*
X131657142Y-126185714D01*
X131609523Y-126280952D01*
X131561904Y-126328571D01*
X131466666Y-126376190D01*
X131085714Y-126376190D01*
X132038095Y-125947619D02*
X132085714Y-125900000D01*
X132180952Y-125852380D01*
X132419047Y-125852380D01*
X132514285Y-125900000D01*
X132561904Y-125947619D01*
X132609523Y-126042857D01*
X132609523Y-126138095D01*
X132561904Y-126280952D01*
X131990476Y-126852380D01*
X132609523Y-126852380D01*
X133466666Y-126185714D02*
X133466666Y-126852380D01*
X133228571Y-125804761D02*
X132990476Y-126519047D01*
X133609523Y-126519047D01*
%TO.C,C41*%
X165124642Y-134947142D02*
X165077023Y-134994761D01*
X164934166Y-135042380D01*
X164838928Y-135042380D01*
X164696071Y-134994761D01*
X164600833Y-134899523D01*
X164553214Y-134804285D01*
X164505595Y-134613809D01*
X164505595Y-134470952D01*
X164553214Y-134280476D01*
X164600833Y-134185238D01*
X164696071Y-134090000D01*
X164838928Y-134042380D01*
X164934166Y-134042380D01*
X165077023Y-134090000D01*
X165124642Y-134137619D01*
X165981785Y-134375714D02*
X165981785Y-135042380D01*
X165743690Y-133994761D02*
X165505595Y-134709047D01*
X166124642Y-134709047D01*
X167029404Y-135042380D02*
X166457976Y-135042380D01*
X166743690Y-135042380D02*
X166743690Y-134042380D01*
X166648452Y-134185238D01*
X166553214Y-134280476D01*
X166457976Y-134328095D01*
%TO.C,R5*%
X144840333Y-116499380D02*
X144507000Y-116023190D01*
X144268904Y-116499380D02*
X144268904Y-115499380D01*
X144649857Y-115499380D01*
X144745095Y-115547000D01*
X144792714Y-115594619D01*
X144840333Y-115689857D01*
X144840333Y-115832714D01*
X144792714Y-115927952D01*
X144745095Y-115975571D01*
X144649857Y-116023190D01*
X144268904Y-116023190D01*
X145745095Y-115499380D02*
X145268904Y-115499380D01*
X145221285Y-115975571D01*
X145268904Y-115927952D01*
X145364142Y-115880333D01*
X145602238Y-115880333D01*
X145697476Y-115927952D01*
X145745095Y-115975571D01*
X145792714Y-116070809D01*
X145792714Y-116308904D01*
X145745095Y-116404142D01*
X145697476Y-116451761D01*
X145602238Y-116499380D01*
X145364142Y-116499380D01*
X145268904Y-116451761D01*
X145221285Y-116404142D01*
%TO.C,D2*%
X142552380Y-101538095D02*
X141552380Y-101538095D01*
X141552380Y-101300000D01*
X141600000Y-101157142D01*
X141695238Y-101061904D01*
X141790476Y-101014285D01*
X141980952Y-100966666D01*
X142123809Y-100966666D01*
X142314285Y-101014285D01*
X142409523Y-101061904D01*
X142504761Y-101157142D01*
X142552380Y-101300000D01*
X142552380Y-101538095D01*
X141647619Y-100585714D02*
X141600000Y-100538095D01*
X141552380Y-100442857D01*
X141552380Y-100204761D01*
X141600000Y-100109523D01*
X141647619Y-100061904D01*
X141742857Y-100014285D01*
X141838095Y-100014285D01*
X141980952Y-100061904D01*
X142552380Y-100633333D01*
X142552380Y-100014285D01*
%TO.C,TH1*%
X108752380Y-90910714D02*
X108752380Y-90339285D01*
X109752380Y-90625000D02*
X108752380Y-90625000D01*
X109752380Y-90005952D02*
X108752380Y-90005952D01*
X109228571Y-90005952D02*
X109228571Y-89434523D01*
X109752380Y-89434523D02*
X108752380Y-89434523D01*
X109752380Y-88434523D02*
X109752380Y-89005952D01*
X109752380Y-88720238D02*
X108752380Y-88720238D01*
X108895238Y-88815476D01*
X108990476Y-88910714D01*
X109038095Y-89005952D01*
%TO.C,R31*%
X137022380Y-119442857D02*
X136546190Y-119776190D01*
X137022380Y-120014285D02*
X136022380Y-120014285D01*
X136022380Y-119633333D01*
X136070000Y-119538095D01*
X136117619Y-119490476D01*
X136212857Y-119442857D01*
X136355714Y-119442857D01*
X136450952Y-119490476D01*
X136498571Y-119538095D01*
X136546190Y-119633333D01*
X136546190Y-120014285D01*
X136022380Y-119109523D02*
X136022380Y-118490476D01*
X136403333Y-118823809D01*
X136403333Y-118680952D01*
X136450952Y-118585714D01*
X136498571Y-118538095D01*
X136593809Y-118490476D01*
X136831904Y-118490476D01*
X136927142Y-118538095D01*
X136974761Y-118585714D01*
X137022380Y-118680952D01*
X137022380Y-118966666D01*
X136974761Y-119061904D01*
X136927142Y-119109523D01*
X137022380Y-117538095D02*
X137022380Y-118109523D01*
X137022380Y-117823809D02*
X136022380Y-117823809D01*
X136165238Y-117919047D01*
X136260476Y-118014285D01*
X136308095Y-118109523D01*
%TO.C,U16*%
X155606904Y-129627380D02*
X155606904Y-130436904D01*
X155654523Y-130532142D01*
X155702142Y-130579761D01*
X155797380Y-130627380D01*
X155987857Y-130627380D01*
X156083095Y-130579761D01*
X156130714Y-130532142D01*
X156178333Y-130436904D01*
X156178333Y-129627380D01*
X157178333Y-130627380D02*
X156606904Y-130627380D01*
X156892619Y-130627380D02*
X156892619Y-129627380D01*
X156797380Y-129770238D01*
X156702142Y-129865476D01*
X156606904Y-129913095D01*
X158035476Y-129627380D02*
X157845000Y-129627380D01*
X157749761Y-129675000D01*
X157702142Y-129722619D01*
X157606904Y-129865476D01*
X157559285Y-130055952D01*
X157559285Y-130436904D01*
X157606904Y-130532142D01*
X157654523Y-130579761D01*
X157749761Y-130627380D01*
X157940238Y-130627380D01*
X158035476Y-130579761D01*
X158083095Y-130532142D01*
X158130714Y-130436904D01*
X158130714Y-130198809D01*
X158083095Y-130103571D01*
X158035476Y-130055952D01*
X157940238Y-130008333D01*
X157749761Y-130008333D01*
X157654523Y-130055952D01*
X157606904Y-130103571D01*
X157559285Y-130198809D01*
%TO.C,C51*%
X126238392Y-95038392D02*
X126190773Y-95086011D01*
X126047916Y-95133630D01*
X125952678Y-95133630D01*
X125809821Y-95086011D01*
X125714583Y-94990773D01*
X125666964Y-94895535D01*
X125619345Y-94705059D01*
X125619345Y-94562202D01*
X125666964Y-94371726D01*
X125714583Y-94276488D01*
X125809821Y-94181250D01*
X125952678Y-94133630D01*
X126047916Y-94133630D01*
X126190773Y-94181250D01*
X126238392Y-94228869D01*
X127143154Y-94133630D02*
X126666964Y-94133630D01*
X126619345Y-94609821D01*
X126666964Y-94562202D01*
X126762202Y-94514583D01*
X127000297Y-94514583D01*
X127095535Y-94562202D01*
X127143154Y-94609821D01*
X127190773Y-94705059D01*
X127190773Y-94943154D01*
X127143154Y-95038392D01*
X127095535Y-95086011D01*
X127000297Y-95133630D01*
X126762202Y-95133630D01*
X126666964Y-95086011D01*
X126619345Y-95038392D01*
X128143154Y-95133630D02*
X127571726Y-95133630D01*
X127857440Y-95133630D02*
X127857440Y-94133630D01*
X127762202Y-94276488D01*
X127666964Y-94371726D01*
X127571726Y-94419345D01*
%TO.C,R41*%
X126238392Y-106433630D02*
X125905059Y-105957440D01*
X125666964Y-106433630D02*
X125666964Y-105433630D01*
X126047916Y-105433630D01*
X126143154Y-105481250D01*
X126190773Y-105528869D01*
X126238392Y-105624107D01*
X126238392Y-105766964D01*
X126190773Y-105862202D01*
X126143154Y-105909821D01*
X126047916Y-105957440D01*
X125666964Y-105957440D01*
X127095535Y-105766964D02*
X127095535Y-106433630D01*
X126857440Y-105386011D02*
X126619345Y-106100297D01*
X127238392Y-106100297D01*
X128143154Y-106433630D02*
X127571726Y-106433630D01*
X127857440Y-106433630D02*
X127857440Y-105433630D01*
X127762202Y-105576488D01*
X127666964Y-105671726D01*
X127571726Y-105719345D01*
%TO.C,R19*%
X124552380Y-93142857D02*
X124076190Y-93476190D01*
X124552380Y-93714285D02*
X123552380Y-93714285D01*
X123552380Y-93333333D01*
X123600000Y-93238095D01*
X123647619Y-93190476D01*
X123742857Y-93142857D01*
X123885714Y-93142857D01*
X123980952Y-93190476D01*
X124028571Y-93238095D01*
X124076190Y-93333333D01*
X124076190Y-93714285D01*
X124552380Y-92190476D02*
X124552380Y-92761904D01*
X124552380Y-92476190D02*
X123552380Y-92476190D01*
X123695238Y-92571428D01*
X123790476Y-92666666D01*
X123838095Y-92761904D01*
X124552380Y-91714285D02*
X124552380Y-91523809D01*
X124504761Y-91428571D01*
X124457142Y-91380952D01*
X124314285Y-91285714D01*
X124123809Y-91238095D01*
X123742857Y-91238095D01*
X123647619Y-91285714D01*
X123600000Y-91333333D01*
X123552380Y-91428571D01*
X123552380Y-91619047D01*
X123600000Y-91714285D01*
X123647619Y-91761904D01*
X123742857Y-91809523D01*
X123980952Y-91809523D01*
X124076190Y-91761904D01*
X124123809Y-91714285D01*
X124171428Y-91619047D01*
X124171428Y-91428571D01*
X124123809Y-91333333D01*
X124076190Y-91285714D01*
X123980952Y-91238095D01*
%TO.C,R28*%
X137952380Y-108042857D02*
X137476190Y-108376190D01*
X137952380Y-108614285D02*
X136952380Y-108614285D01*
X136952380Y-108233333D01*
X137000000Y-108138095D01*
X137047619Y-108090476D01*
X137142857Y-108042857D01*
X137285714Y-108042857D01*
X137380952Y-108090476D01*
X137428571Y-108138095D01*
X137476190Y-108233333D01*
X137476190Y-108614285D01*
X137047619Y-107661904D02*
X137000000Y-107614285D01*
X136952380Y-107519047D01*
X136952380Y-107280952D01*
X137000000Y-107185714D01*
X137047619Y-107138095D01*
X137142857Y-107090476D01*
X137238095Y-107090476D01*
X137380952Y-107138095D01*
X137952380Y-107709523D01*
X137952380Y-107090476D01*
X137380952Y-106519047D02*
X137333333Y-106614285D01*
X137285714Y-106661904D01*
X137190476Y-106709523D01*
X137142857Y-106709523D01*
X137047619Y-106661904D01*
X137000000Y-106614285D01*
X136952380Y-106519047D01*
X136952380Y-106328571D01*
X137000000Y-106233333D01*
X137047619Y-106185714D01*
X137142857Y-106138095D01*
X137190476Y-106138095D01*
X137285714Y-106185714D01*
X137333333Y-106233333D01*
X137380952Y-106328571D01*
X137380952Y-106519047D01*
X137428571Y-106614285D01*
X137476190Y-106661904D01*
X137571428Y-106709523D01*
X137761904Y-106709523D01*
X137857142Y-106661904D01*
X137904761Y-106614285D01*
X137952380Y-106519047D01*
X137952380Y-106328571D01*
X137904761Y-106233333D01*
X137857142Y-106185714D01*
X137761904Y-106138095D01*
X137571428Y-106138095D01*
X137476190Y-106185714D01*
X137428571Y-106233333D01*
X137380952Y-106328571D01*
%TO.C,C10*%
X167157142Y-95757142D02*
X167109523Y-95804761D01*
X166966666Y-95852380D01*
X166871428Y-95852380D01*
X166728571Y-95804761D01*
X166633333Y-95709523D01*
X166585714Y-95614285D01*
X166538095Y-95423809D01*
X166538095Y-95280952D01*
X166585714Y-95090476D01*
X166633333Y-94995238D01*
X166728571Y-94900000D01*
X166871428Y-94852380D01*
X166966666Y-94852380D01*
X167109523Y-94900000D01*
X167157142Y-94947619D01*
X168109523Y-95852380D02*
X167538095Y-95852380D01*
X167823809Y-95852380D02*
X167823809Y-94852380D01*
X167728571Y-94995238D01*
X167633333Y-95090476D01*
X167538095Y-95138095D01*
X168728571Y-94852380D02*
X168823809Y-94852380D01*
X168919047Y-94900000D01*
X168966666Y-94947619D01*
X169014285Y-95042857D01*
X169061904Y-95233333D01*
X169061904Y-95471428D01*
X169014285Y-95661904D01*
X168966666Y-95757142D01*
X168919047Y-95804761D01*
X168823809Y-95852380D01*
X168728571Y-95852380D01*
X168633333Y-95804761D01*
X168585714Y-95757142D01*
X168538095Y-95661904D01*
X168490476Y-95471428D01*
X168490476Y-95233333D01*
X168538095Y-95042857D01*
X168585714Y-94947619D01*
X168633333Y-94900000D01*
X168728571Y-94852380D01*
%TO.C,U17*%
X170052380Y-131038095D02*
X170861904Y-131038095D01*
X170957142Y-130990476D01*
X171004761Y-130942857D01*
X171052380Y-130847619D01*
X171052380Y-130657142D01*
X171004761Y-130561904D01*
X170957142Y-130514285D01*
X170861904Y-130466666D01*
X170052380Y-130466666D01*
X171052380Y-129466666D02*
X171052380Y-130038095D01*
X171052380Y-129752380D02*
X170052380Y-129752380D01*
X170195238Y-129847619D01*
X170290476Y-129942857D01*
X170338095Y-130038095D01*
X170052380Y-129133333D02*
X170052380Y-128466666D01*
X171052380Y-128895238D01*
%TO.C,R13*%
X180057142Y-110652380D02*
X179723809Y-110176190D01*
X179485714Y-110652380D02*
X179485714Y-109652380D01*
X179866666Y-109652380D01*
X179961904Y-109700000D01*
X180009523Y-109747619D01*
X180057142Y-109842857D01*
X180057142Y-109985714D01*
X180009523Y-110080952D01*
X179961904Y-110128571D01*
X179866666Y-110176190D01*
X179485714Y-110176190D01*
X181009523Y-110652380D02*
X180438095Y-110652380D01*
X180723809Y-110652380D02*
X180723809Y-109652380D01*
X180628571Y-109795238D01*
X180533333Y-109890476D01*
X180438095Y-109938095D01*
X181342857Y-109652380D02*
X181961904Y-109652380D01*
X181628571Y-110033333D01*
X181771428Y-110033333D01*
X181866666Y-110080952D01*
X181914285Y-110128571D01*
X181961904Y-110223809D01*
X181961904Y-110461904D01*
X181914285Y-110557142D01*
X181866666Y-110604761D01*
X181771428Y-110652380D01*
X181485714Y-110652380D01*
X181390476Y-110604761D01*
X181342857Y-110557142D01*
%TO.C,D7*%
X118161904Y-134552380D02*
X118161904Y-133552380D01*
X118400000Y-133552380D01*
X118542857Y-133600000D01*
X118638095Y-133695238D01*
X118685714Y-133790476D01*
X118733333Y-133980952D01*
X118733333Y-134123809D01*
X118685714Y-134314285D01*
X118638095Y-134409523D01*
X118542857Y-134504761D01*
X118400000Y-134552380D01*
X118161904Y-134552380D01*
X119066666Y-133552380D02*
X119733333Y-133552380D01*
X119304761Y-134552380D01*
%TO.C,D6*%
X160961904Y-95552380D02*
X160961904Y-94552380D01*
X161200000Y-94552380D01*
X161342857Y-94600000D01*
X161438095Y-94695238D01*
X161485714Y-94790476D01*
X161533333Y-94980952D01*
X161533333Y-95123809D01*
X161485714Y-95314285D01*
X161438095Y-95409523D01*
X161342857Y-95504761D01*
X161200000Y-95552380D01*
X160961904Y-95552380D01*
X162390476Y-94552380D02*
X162200000Y-94552380D01*
X162104761Y-94600000D01*
X162057142Y-94647619D01*
X161961904Y-94790476D01*
X161914285Y-94980952D01*
X161914285Y-95361904D01*
X161961904Y-95457142D01*
X162009523Y-95504761D01*
X162104761Y-95552380D01*
X162295238Y-95552380D01*
X162390476Y-95504761D01*
X162438095Y-95457142D01*
X162485714Y-95361904D01*
X162485714Y-95123809D01*
X162438095Y-95028571D01*
X162390476Y-94980952D01*
X162295238Y-94933333D01*
X162104761Y-94933333D01*
X162009523Y-94980952D01*
X161961904Y-95028571D01*
X161914285Y-95123809D01*
%TO.C,R37*%
X187957142Y-94452380D02*
X187623809Y-93976190D01*
X187385714Y-94452380D02*
X187385714Y-93452380D01*
X187766666Y-93452380D01*
X187861904Y-93500000D01*
X187909523Y-93547619D01*
X187957142Y-93642857D01*
X187957142Y-93785714D01*
X187909523Y-93880952D01*
X187861904Y-93928571D01*
X187766666Y-93976190D01*
X187385714Y-93976190D01*
X188290476Y-93452380D02*
X188909523Y-93452380D01*
X188576190Y-93833333D01*
X188719047Y-93833333D01*
X188814285Y-93880952D01*
X188861904Y-93928571D01*
X188909523Y-94023809D01*
X188909523Y-94261904D01*
X188861904Y-94357142D01*
X188814285Y-94404761D01*
X188719047Y-94452380D01*
X188433333Y-94452380D01*
X188338095Y-94404761D01*
X188290476Y-94357142D01*
X189242857Y-93452380D02*
X189909523Y-93452380D01*
X189480952Y-94452380D01*
%TO.C,C39*%
X120738392Y-106038392D02*
X120690773Y-106086011D01*
X120547916Y-106133630D01*
X120452678Y-106133630D01*
X120309821Y-106086011D01*
X120214583Y-105990773D01*
X120166964Y-105895535D01*
X120119345Y-105705059D01*
X120119345Y-105562202D01*
X120166964Y-105371726D01*
X120214583Y-105276488D01*
X120309821Y-105181250D01*
X120452678Y-105133630D01*
X120547916Y-105133630D01*
X120690773Y-105181250D01*
X120738392Y-105228869D01*
X121071726Y-105133630D02*
X121690773Y-105133630D01*
X121357440Y-105514583D01*
X121500297Y-105514583D01*
X121595535Y-105562202D01*
X121643154Y-105609821D01*
X121690773Y-105705059D01*
X121690773Y-105943154D01*
X121643154Y-106038392D01*
X121595535Y-106086011D01*
X121500297Y-106133630D01*
X121214583Y-106133630D01*
X121119345Y-106086011D01*
X121071726Y-106038392D01*
X122166964Y-106133630D02*
X122357440Y-106133630D01*
X122452678Y-106086011D01*
X122500297Y-106038392D01*
X122595535Y-105895535D01*
X122643154Y-105705059D01*
X122643154Y-105324107D01*
X122595535Y-105228869D01*
X122547916Y-105181250D01*
X122452678Y-105133630D01*
X122262202Y-105133630D01*
X122166964Y-105181250D01*
X122119345Y-105228869D01*
X122071726Y-105324107D01*
X122071726Y-105562202D01*
X122119345Y-105657440D01*
X122166964Y-105705059D01*
X122262202Y-105752678D01*
X122452678Y-105752678D01*
X122547916Y-105705059D01*
X122595535Y-105657440D01*
X122643154Y-105562202D01*
%TO.C,R17*%
X135269642Y-89252380D02*
X134936309Y-88776190D01*
X134698214Y-89252380D02*
X134698214Y-88252380D01*
X135079166Y-88252380D01*
X135174404Y-88300000D01*
X135222023Y-88347619D01*
X135269642Y-88442857D01*
X135269642Y-88585714D01*
X135222023Y-88680952D01*
X135174404Y-88728571D01*
X135079166Y-88776190D01*
X134698214Y-88776190D01*
X136222023Y-89252380D02*
X135650595Y-89252380D01*
X135936309Y-89252380D02*
X135936309Y-88252380D01*
X135841071Y-88395238D01*
X135745833Y-88490476D01*
X135650595Y-88538095D01*
X136555357Y-88252380D02*
X137222023Y-88252380D01*
X136793452Y-89252380D01*
%TO.C,CP1*%
X151057142Y-90466666D02*
X151104761Y-90514285D01*
X151152380Y-90657142D01*
X151152380Y-90752380D01*
X151104761Y-90895238D01*
X151009523Y-90990476D01*
X150914285Y-91038095D01*
X150723809Y-91085714D01*
X150580952Y-91085714D01*
X150390476Y-91038095D01*
X150295238Y-90990476D01*
X150200000Y-90895238D01*
X150152380Y-90752380D01*
X150152380Y-90657142D01*
X150200000Y-90514285D01*
X150247619Y-90466666D01*
X151152380Y-90038095D02*
X150152380Y-90038095D01*
X150152380Y-89657142D01*
X150200000Y-89561904D01*
X150247619Y-89514285D01*
X150342857Y-89466666D01*
X150485714Y-89466666D01*
X150580952Y-89514285D01*
X150628571Y-89561904D01*
X150676190Y-89657142D01*
X150676190Y-90038095D01*
X151152380Y-88514285D02*
X151152380Y-89085714D01*
X151152380Y-88800000D02*
X150152380Y-88800000D01*
X150295238Y-88895238D01*
X150390476Y-88990476D01*
X150438095Y-89085714D01*
D13*
%TO.C,C20*%
X114580000Y-127593748D02*
X114580000Y-129016252D01*
X112760000Y-127593748D02*
X112760000Y-129016252D01*
%TO.C,R20*%
X121522500Y-92037258D02*
X121522500Y-91562742D01*
X120477500Y-92037258D02*
X120477500Y-91562742D01*
%TO.C,R22*%
X117452500Y-135077258D02*
X117452500Y-134602742D01*
X116407500Y-135077258D02*
X116407500Y-134602742D01*
%TO.C,R43*%
X114977500Y-97862742D02*
X114977500Y-98337258D01*
X116022500Y-97862742D02*
X116022500Y-98337258D01*
%TO.C,C42*%
X133481628Y-95921250D02*
X134280872Y-95921250D01*
X133481628Y-97041250D02*
X134280872Y-97041250D01*
%TO.C,R39*%
X123791250Y-102144029D02*
X123791250Y-101818471D01*
X122771250Y-102144029D02*
X122771250Y-101818471D01*
%TO.C,R36*%
X125391250Y-102131529D02*
X125391250Y-101805971D01*
X124371250Y-102131529D02*
X124371250Y-101805971D01*
%TO.C,Y2*%
X170720000Y-137415000D02*
X170720000Y-140715000D01*
X170720000Y-140715000D02*
X174720000Y-140715000D01*
%TO.C,R32*%
X139077500Y-118562742D02*
X139077500Y-119037258D01*
X140122500Y-118562742D02*
X140122500Y-119037258D01*
%TO.C,U9*%
X128640000Y-109800000D02*
X128640000Y-111700000D01*
X130960000Y-111200000D02*
X130960000Y-109800000D01*
%TO.C,C46*%
X182059420Y-87280000D02*
X182340580Y-87280000D01*
X182059420Y-88300000D02*
X182340580Y-88300000D01*
%TO.C,U11*%
X163722500Y-134150000D02*
X160122500Y-134150000D01*
X163722500Y-140920000D02*
X161522500Y-140920000D01*
X163722500Y-140920000D02*
X165922500Y-140920000D01*
X163722500Y-134150000D02*
X165922500Y-134150000D01*
%TO.C,R2*%
X174787742Y-127777500D02*
X175262258Y-127777500D01*
X174787742Y-128822500D02*
X175262258Y-128822500D01*
%TO.C,C24*%
X114435000Y-116688748D02*
X114435000Y-117211252D01*
X112965000Y-116688748D02*
X112965000Y-117211252D01*
%TO.C,U13*%
X184300000Y-95100000D02*
X184300000Y-97400000D01*
X186700000Y-95100000D02*
X184300000Y-95100000D01*
X186700000Y-95200000D02*
X186700000Y-95100000D01*
X186700000Y-96700000D02*
X186700000Y-95200000D01*
X184300000Y-97500000D02*
X186000000Y-97500000D01*
X184300000Y-97400000D02*
X184300000Y-97500000D01*
%TO.C,C35*%
X131716492Y-107191250D02*
X130046008Y-107191250D01*
X131716492Y-105371250D02*
X130046008Y-105371250D01*
%TO.C,C48*%
X164705000Y-130580580D02*
X164705000Y-130299420D01*
X163685000Y-130580580D02*
X163685000Y-130299420D01*
%TO.C,C31*%
X122765000Y-114488748D02*
X122765000Y-115011252D01*
X124235000Y-114488748D02*
X124235000Y-115011252D01*
%TO.C,R14*%
X135622500Y-113762258D02*
X135622500Y-113287742D01*
X134577500Y-113762258D02*
X134577500Y-113287742D01*
%TO.C,U20*%
X129428150Y-100336684D02*
X128628150Y-100336684D01*
X128428150Y-102292484D02*
X129802850Y-102292484D01*
%TO.C,C21*%
X172659420Y-141790000D02*
X172940580Y-141790000D01*
X172659420Y-142810000D02*
X172940580Y-142810000D01*
%TO.C,C5*%
X154110000Y-96815580D02*
X154110000Y-96534420D01*
X153090000Y-96815580D02*
X153090000Y-96534420D01*
%TO.C,R12*%
X163245860Y-97115261D02*
X163245860Y-96807979D01*
X164005860Y-97115261D02*
X164005860Y-96807979D01*
%TO.C,C4*%
X154690000Y-96815580D02*
X154690000Y-96534420D01*
X155710000Y-96815580D02*
X155710000Y-96534420D01*
%TO.C,R16*%
X181212258Y-141717500D02*
X180737742Y-141717500D01*
X181212258Y-142762500D02*
X180737742Y-142762500D01*
%TO.C,C27*%
X117535000Y-128018748D02*
X117535000Y-128541252D01*
X119005000Y-128018748D02*
X119005000Y-128541252D01*
%TO.C,R25*%
X125897500Y-126842742D02*
X125897500Y-127317258D01*
X126942500Y-126842742D02*
X126942500Y-127317258D01*
%TO.C,L5*%
X145980000Y-110535000D02*
X145980000Y-113535000D01*
X142780000Y-110535000D02*
X142780000Y-113535000D01*
%TO.C,C19*%
X127884420Y-91310000D02*
X128165580Y-91310000D01*
X127884420Y-90290000D02*
X128165580Y-90290000D01*
%TO.C,C32*%
X128835580Y-124295000D02*
X128554420Y-124295000D01*
X128835580Y-125315000D02*
X128554420Y-125315000D01*
%TO.C,R21*%
X116407500Y-138177258D02*
X116407500Y-137702742D01*
X117452500Y-138177258D02*
X117452500Y-137702742D01*
%TO.C,D8*%
X126885000Y-87935000D02*
X126885000Y-86465000D01*
X124600000Y-87935000D02*
X126885000Y-87935000D01*
X126885000Y-86465000D02*
X124600000Y-86465000D01*
%TO.C,R4*%
X144109500Y-105637742D02*
X144109500Y-106112258D01*
X145154500Y-105637742D02*
X145154500Y-106112258D01*
%TO.C,C13*%
X163918024Y-98921620D02*
X164133696Y-98921620D01*
X163918024Y-98201620D02*
X164133696Y-98201620D01*
%TO.C,C2*%
X176840580Y-92210000D02*
X176559420Y-92210000D01*
X176840580Y-91190000D02*
X176559420Y-91190000D01*
%TO.C,R6*%
X142477500Y-106137258D02*
X142477500Y-105662742D01*
X143522500Y-106137258D02*
X143522500Y-105662742D01*
%TO.C,C30*%
X124865000Y-114488748D02*
X124865000Y-115011252D01*
X126335000Y-114488748D02*
X126335000Y-115011252D01*
%TO.C,C25*%
X122765000Y-111511252D02*
X122765000Y-110988748D01*
X124235000Y-111511252D02*
X124235000Y-110988748D01*
%TO.C,U6*%
X120360000Y-128530000D02*
X120360000Y-126580000D01*
X120360000Y-128530000D02*
X120360000Y-130480000D01*
X125480000Y-128530000D02*
X125480000Y-125080000D01*
X125480000Y-128530000D02*
X125480000Y-130480000D01*
%TO.C,C49*%
X182340580Y-92110000D02*
X182059420Y-92110000D01*
X182340580Y-91090000D02*
X182059420Y-91090000D01*
%TO.C,J7*%
X112476553Y-124999994D02*
G75*
G03*
X112476553Y-124999994I-381000J0D01*
G01*
X110722552Y-119056497D02*
X110722552Y-118443502D01*
X110722552Y-104056497D02*
X110722552Y-95873800D01*
X110722552Y-121556497D02*
X110722552Y-120943502D01*
X72165348Y-95873800D02*
X72165348Y-134126200D01*
X110722552Y-95873800D02*
X72165348Y-95873800D01*
X72165348Y-134126200D02*
X110722552Y-134126200D01*
X110722552Y-111556497D02*
X110722552Y-110943502D01*
X110722552Y-106556497D02*
X110722552Y-105943502D01*
X110722552Y-109056497D02*
X110722552Y-108443502D01*
X110722552Y-116556497D02*
X110722552Y-115943502D01*
X110722552Y-134126200D02*
X110722552Y-125943502D01*
X110722552Y-124056497D02*
X110722552Y-123443502D01*
X110722552Y-114056497D02*
X110722552Y-113443502D01*
%TO.C,R33*%
X121077500Y-112462742D02*
X121077500Y-112937258D01*
X122122500Y-112462742D02*
X122122500Y-112937258D01*
D10*
%TO.C,U4*%
X194300000Y-120600000D02*
X194300000Y-117000000D01*
X194300000Y-117000000D02*
X189700000Y-117000000D01*
X192200000Y-120600000D02*
X194300000Y-120600000D01*
X189700000Y-117000000D02*
X189700000Y-119200000D01*
D14*
%TO.C,U1*%
X175900000Y-89051000D02*
X177500000Y-89051000D01*
X175900000Y-90539000D02*
X177500000Y-90539000D01*
D10*
X175095000Y-89545000D02*
G75*
G03*
X175095000Y-89545000I-100000J0D01*
G01*
D13*
%TO.C,J2*%
X115775000Y-88500000D02*
X113425000Y-88500000D01*
X118925000Y-87700000D02*
X117925000Y-87700000D01*
X113425000Y-89250000D02*
X113225000Y-89250000D01*
X112915000Y-91410000D02*
X118635000Y-91410000D01*
X112915000Y-87990000D02*
X112915000Y-91410000D01*
X118635000Y-91410000D02*
X118635000Y-87990000D01*
X113425000Y-88500000D02*
X113425000Y-89250000D01*
X118635000Y-87990000D02*
X112915000Y-87990000D01*
X118925000Y-87700000D02*
X118925000Y-88700000D01*
X113225000Y-90050000D02*
X113425000Y-90050000D01*
X118325000Y-89250000D02*
X118325000Y-90050000D01*
X118125000Y-90900000D02*
X115775000Y-90900000D01*
X113225000Y-89250000D02*
X113225000Y-90050000D01*
X118325000Y-90050000D02*
X118125000Y-90050000D01*
X115775000Y-88500000D02*
X118125000Y-88500000D01*
X118125000Y-89250000D02*
X118325000Y-89250000D01*
X118125000Y-90050000D02*
X118125000Y-90900000D01*
X113425000Y-90900000D02*
X115775000Y-90900000D01*
X118125000Y-88500000D02*
X118125000Y-89250000D01*
X113425000Y-90050000D02*
X113425000Y-90900000D01*
%TO.C,C7*%
X174400000Y-96127836D02*
X174400000Y-95912164D01*
X173680000Y-96127836D02*
X173680000Y-95912164D01*
%TO.C,U5*%
X181200000Y-107100000D02*
X179200000Y-107100000D01*
X181200000Y-102900000D02*
X178700000Y-102900000D01*
D10*
%TO.C,U18*%
X120100000Y-117200000D02*
X118200000Y-117200000D01*
X119600000Y-114200000D02*
X118200000Y-114200000D01*
D13*
%TO.C,R35*%
X176437742Y-142822500D02*
X176912258Y-142822500D01*
X176437742Y-141777500D02*
X176912258Y-141777500D01*
%TO.C,R11*%
X194106742Y-98222500D02*
X194581258Y-98222500D01*
X194106742Y-97177500D02*
X194581258Y-97177500D01*
%TO.C,C50*%
X133481628Y-95274582D02*
X134280872Y-95274582D01*
X133481628Y-94154582D02*
X134280872Y-94154582D01*
%TO.C,C16*%
X157231920Y-141590000D02*
X157513080Y-141590000D01*
X157231920Y-142610000D02*
X157513080Y-142610000D01*
%TO.C,R34*%
X121077500Y-109362742D02*
X121077500Y-109837258D01*
X122122500Y-109362742D02*
X122122500Y-109837258D01*
%TO.C,C45*%
X182365580Y-94990000D02*
X182084420Y-94990000D01*
X182365580Y-96010000D02*
X182084420Y-96010000D01*
%TO.C,U10*%
X179070000Y-141180000D02*
X176870000Y-141180000D01*
X179070000Y-134410000D02*
X181270000Y-134410000D01*
X179070000Y-141180000D02*
X181270000Y-141180000D01*
X179070000Y-134410000D02*
X175470000Y-134410000D01*
%TO.C,C22*%
X172860580Y-136015000D02*
X172579420Y-136015000D01*
X172860580Y-137035000D02*
X172579420Y-137035000D01*
%TO.C,C17*%
X157653080Y-135755000D02*
X157371920Y-135755000D01*
X157653080Y-136775000D02*
X157371920Y-136775000D01*
%TO.C,C26*%
X115160000Y-127593748D02*
X115160000Y-129016252D01*
X116980000Y-127593748D02*
X116980000Y-129016252D01*
%TO.C,R10*%
X194106742Y-94129500D02*
X194581258Y-94129500D01*
X194106742Y-95174500D02*
X194581258Y-95174500D01*
%TO.C,C1*%
X176559420Y-87380000D02*
X176840580Y-87380000D01*
X176559420Y-88400000D02*
X176840580Y-88400000D01*
%TO.C,C44*%
X182340580Y-97610000D02*
X182059420Y-97610000D01*
X182340580Y-96590000D02*
X182059420Y-96590000D01*
%TO.C,C29*%
X119080000Y-131539420D02*
X119080000Y-131820580D01*
X118060000Y-131539420D02*
X118060000Y-131820580D01*
%TO.C,R29*%
X135312258Y-105977500D02*
X134837742Y-105977500D01*
X135312258Y-107022500D02*
X134837742Y-107022500D01*
%TO.C,R30*%
X119037258Y-120022500D02*
X118562742Y-120022500D01*
X119037258Y-118977500D02*
X118562742Y-118977500D01*
%TO.C,CP2*%
X148725000Y-99355000D02*
X148725000Y-92595000D01*
X145305000Y-92595000D02*
X145305000Y-99355000D01*
X145305000Y-99355000D02*
X148725000Y-99355000D01*
%TO.C,C47*%
X167495000Y-130299420D02*
X167495000Y-130580580D01*
X168515000Y-130299420D02*
X168515000Y-130580580D01*
%TO.C,C3*%
X197140580Y-120990000D02*
X196859420Y-120990000D01*
X197140580Y-122010000D02*
X196859420Y-122010000D01*
%TO.C,R48*%
X165864758Y-141717500D02*
X165390242Y-141717500D01*
X165864758Y-142762500D02*
X165390242Y-142762500D01*
%TO.C,L3*%
X117585000Y-112710000D02*
X116560000Y-112710000D01*
X112815000Y-112710000D02*
X112815000Y-111685000D01*
X117585000Y-112710000D02*
X117585000Y-111685000D01*
X112815000Y-112710000D02*
X113840000Y-112710000D01*
X112815000Y-108490000D02*
X113840000Y-108490000D01*
X117585000Y-108490000D02*
X116560000Y-108490000D01*
X112815000Y-108490000D02*
X112815000Y-109515000D01*
X117585000Y-108490000D02*
X117585000Y-109515000D01*
D15*
%TO.C,U3*%
X176590500Y-105909499D02*
X176590500Y-106290499D01*
X150809500Y-113909501D02*
X150809500Y-114290501D01*
X151495300Y-100895300D02*
X151495300Y-104513261D01*
X163890500Y-100463500D02*
X163509500Y-100463500D01*
X172286739Y-125304700D02*
X175904700Y-125304700D01*
X150809500Y-114290501D02*
X151063500Y-114290501D01*
X167509500Y-125736500D02*
X167509500Y-125990500D01*
X176336500Y-115909499D02*
X176590500Y-115909499D01*
X167890500Y-125736500D02*
X167509500Y-125736500D01*
X176590500Y-116290499D02*
X176336500Y-116290499D01*
X151495300Y-125304700D02*
X155113261Y-125304700D01*
X175904700Y-104513261D02*
X175904700Y-100895300D01*
X157509499Y-125990500D02*
X157890499Y-125990500D01*
X176336500Y-106290499D02*
X176336500Y-105909499D01*
X175904700Y-125304700D02*
X175904700Y-121686739D01*
X157890499Y-125990500D02*
X157890499Y-125736500D01*
X167890500Y-125990500D02*
X167890500Y-125736500D01*
X176590500Y-115909499D02*
X176590500Y-116290499D01*
X175904700Y-100895300D02*
X172286739Y-100895300D01*
X176336500Y-105909499D02*
X176590500Y-105909499D01*
X163890500Y-100209500D02*
X163890500Y-100463500D01*
X155113261Y-100895300D02*
X151495300Y-100895300D01*
X167509500Y-125990500D02*
X167890500Y-125990500D01*
X176590500Y-106290499D02*
X176336500Y-106290499D01*
X157509499Y-125736500D02*
X157509499Y-125990500D01*
X151495300Y-121686739D02*
X151495300Y-125304700D01*
X163509500Y-100463500D02*
X163509500Y-100209500D01*
X151063500Y-114290501D02*
X151063500Y-113909501D01*
X176336500Y-116290499D02*
X176336500Y-115909499D01*
X163509500Y-100209500D02*
X163890500Y-100209500D01*
X157890499Y-125736500D02*
X157509499Y-125736500D01*
X151063500Y-113909501D02*
X150809500Y-113909501D01*
D13*
%TO.C,U7*%
X131540000Y-109800000D02*
X131540000Y-111700000D01*
X133860000Y-111200000D02*
X133860000Y-109800000D01*
%TO.C,C43*%
X130680872Y-97041250D02*
X129881628Y-97041250D01*
X130680872Y-95921250D02*
X129881628Y-95921250D01*
%TO.C,C53*%
X116010000Y-95140580D02*
X116010000Y-94859420D01*
X114990000Y-95140580D02*
X114990000Y-94859420D01*
%TO.C,F1*%
X114297936Y-125710000D02*
X115502064Y-125710000D01*
X114297936Y-123890000D02*
X115502064Y-123890000D01*
%TO.C,Q2*%
X147132000Y-121637000D02*
X146482000Y-121637000D01*
X147132000Y-121637000D02*
X147782000Y-121637000D01*
X147132000Y-118517000D02*
X145457000Y-118517000D01*
X147132000Y-118517000D02*
X147782000Y-118517000D01*
%TO.C,J1*%
X199280998Y-122503600D02*
G75*
G03*
X199280998Y-122503600I-381000J0D01*
G01*
X194831340Y-134187600D02*
X199223000Y-134187600D01*
X186777000Y-134187600D02*
X191168660Y-134187600D01*
X199223000Y-134187600D02*
X199223000Y-132031140D01*
X186777000Y-132031140D02*
X186777000Y-134187600D01*
X199223000Y-127835060D02*
X199223000Y-126951140D01*
X191168660Y-123138600D02*
X186777000Y-123138600D01*
X199223000Y-130375060D02*
X199223000Y-129491140D01*
X199223000Y-125295060D02*
X199223000Y-123138600D01*
X186777000Y-123138600D02*
X186777000Y-125295060D01*
X199223000Y-123138600D02*
X194831340Y-123138600D01*
X186777000Y-126951140D02*
X186777000Y-127835060D01*
X186777000Y-129491140D02*
X186777000Y-130375060D01*
%TO.C,C33*%
X126760000Y-140952500D02*
X130180000Y-140952500D01*
X126760000Y-134192500D02*
X126760000Y-140952500D01*
X130180000Y-140952500D02*
X130180000Y-134192500D01*
%TO.C,R27*%
X134577500Y-110637258D02*
X134577500Y-110162742D01*
X135622500Y-110637258D02*
X135622500Y-110162742D01*
%TO.C,U19*%
X186400000Y-141160000D02*
X185600000Y-141160000D01*
X186400000Y-138040000D02*
X184600000Y-138040000D01*
X186400000Y-141160000D02*
X187200000Y-141160000D01*
X186400000Y-138040000D02*
X187200000Y-138040000D01*
%TO.C,C36*%
X140018748Y-108440000D02*
X140541252Y-108440000D01*
X140018748Y-109910000D02*
X140541252Y-109910000D01*
D14*
%TO.C,U15*%
X165356000Y-129640000D02*
X165356000Y-131240000D01*
X166844000Y-129640000D02*
X166844000Y-131240000D01*
D10*
X166450000Y-128735000D02*
G75*
G03*
X166450000Y-128735000I-100000J0D01*
G01*
D13*
%TO.C,R18*%
X161612258Y-141677500D02*
X161137742Y-141677500D01*
X161612258Y-142722500D02*
X161137742Y-142722500D01*
%TO.C,D5*%
X198700000Y-96965000D02*
X196415000Y-96965000D01*
X196415000Y-98435000D02*
X198700000Y-98435000D01*
X196415000Y-96965000D02*
X196415000Y-98435000D01*
%TO.C,C40*%
X180834420Y-133860000D02*
X181115580Y-133860000D01*
X180834420Y-132840000D02*
X181115580Y-132840000D01*
%TO.C,R7*%
X143809500Y-120514258D02*
X143809500Y-120039742D01*
X144854500Y-120514258D02*
X144854500Y-120039742D01*
%TO.C,C6*%
X181810000Y-113284420D02*
X181810000Y-113565580D01*
X180790000Y-113284420D02*
X180790000Y-113565580D01*
%TO.C,C14*%
X180390000Y-100315580D02*
X180390000Y-100034420D01*
X181410000Y-100315580D02*
X181410000Y-100034420D01*
%TO.C,R1*%
X174787742Y-130422500D02*
X175262258Y-130422500D01*
X174787742Y-129377500D02*
X175262258Y-129377500D01*
%TO.C,D3*%
X196415000Y-95441000D02*
X196415000Y-96911000D01*
X196415000Y-96911000D02*
X198700000Y-96911000D01*
X198700000Y-95441000D02*
X196415000Y-95441000D01*
%TO.C,R8*%
X173320000Y-95856359D02*
X173320000Y-96163641D01*
X172560000Y-95856359D02*
X172560000Y-96163641D01*
%TO.C,D4*%
X198700000Y-93917000D02*
X196415000Y-93917000D01*
X196415000Y-95387000D02*
X198700000Y-95387000D01*
X196415000Y-93917000D02*
X196415000Y-95387000D01*
%TO.C,R23*%
X132675242Y-87822500D02*
X133149758Y-87822500D01*
X132675242Y-86777500D02*
X133149758Y-86777500D01*
%TO.C,C9*%
X171114140Y-97087836D02*
X171114140Y-96872164D01*
X170394140Y-97087836D02*
X170394140Y-96872164D01*
D15*
%TO.C,U2*%
X183991199Y-111309499D02*
X183737199Y-111309499D01*
X183991199Y-103690499D02*
X183991199Y-103309499D01*
X183737199Y-111690499D02*
X183991199Y-111690499D01*
X183991199Y-103309499D02*
X183737199Y-103309499D01*
X199662801Y-106509501D02*
X199662801Y-106890501D01*
X193909500Y-113762798D02*
X193909500Y-113508798D01*
X199828000Y-113926100D02*
X199828000Y-102673900D01*
X183572000Y-113926100D02*
X199828000Y-113926100D01*
X194290500Y-113762798D02*
X193909500Y-113762798D01*
X199408801Y-106890501D02*
X199408801Y-106509501D01*
X199408801Y-106509501D02*
X199662801Y-106509501D01*
X199662801Y-106890501D02*
X199408801Y-106890501D01*
X194290500Y-113508798D02*
X194290500Y-113762798D01*
X183572000Y-102673900D02*
X183572000Y-113926100D01*
X199828000Y-102673900D02*
X183572000Y-102673900D01*
X183737199Y-103690499D02*
X183991199Y-103690499D01*
X183737199Y-111309499D02*
X183737199Y-111690499D01*
X183737199Y-103309499D02*
X183737199Y-103690499D01*
X193909500Y-113508798D02*
X194290500Y-113508798D01*
X183991199Y-111690499D02*
X183991199Y-111309499D01*
D13*
%TO.C,D9*%
X113165000Y-94200000D02*
X113165000Y-96485000D01*
X114635000Y-96485000D02*
X114635000Y-94200000D01*
X113165000Y-96485000D02*
X114635000Y-96485000D01*
%TO.C,R40*%
X123905971Y-103771250D02*
X124231529Y-103771250D01*
X123905971Y-104791250D02*
X124231529Y-104791250D01*
%TO.C,CP3*%
X141495000Y-99355000D02*
X144915000Y-99355000D01*
X141495000Y-92595000D02*
X141495000Y-99355000D01*
X144915000Y-99355000D02*
X144915000Y-92595000D01*
%TO.C,C12*%
X149622000Y-106242580D02*
X149622000Y-105961420D01*
X150642000Y-106242580D02*
X150642000Y-105961420D01*
D14*
%TO.C,U14*%
X181400000Y-88951000D02*
X183000000Y-88951000D01*
X181400000Y-90439000D02*
X183000000Y-90439000D01*
D10*
X180595000Y-89445000D02*
G75*
G03*
X180595000Y-89445000I-100000J0D01*
G01*
D13*
%TO.C,C52*%
X130144029Y-98691250D02*
X129818471Y-98691250D01*
X130144029Y-97671250D02*
X129818471Y-97671250D01*
%TO.C,R3*%
X174787742Y-127222500D02*
X175262258Y-127222500D01*
X174787742Y-126177500D02*
X175262258Y-126177500D01*
%TO.C,R42*%
X114422500Y-98362258D02*
X114422500Y-97887742D01*
X113377500Y-98362258D02*
X113377500Y-97887742D01*
%TO.C,C34*%
X124735000Y-135391252D02*
X124735000Y-134868748D01*
X126205000Y-135391252D02*
X126205000Y-134868748D01*
%TO.C,C28*%
X124865000Y-111511252D02*
X124865000Y-110988748D01*
X126335000Y-111511252D02*
X126335000Y-110988748D01*
%TO.C,C11*%
X149422000Y-120442580D02*
X149422000Y-120161420D01*
X150442000Y-120442580D02*
X150442000Y-120161420D01*
%TO.C,C15*%
X178790000Y-100315580D02*
X178790000Y-100034420D01*
X179810000Y-100315580D02*
X179810000Y-100034420D01*
%TO.C,C23*%
X116535000Y-116688748D02*
X116535000Y-117211252D01*
X115065000Y-116688748D02*
X115065000Y-117211252D01*
%TO.C,C38*%
X140691252Y-113990000D02*
X140168748Y-113990000D01*
X140691252Y-115460000D02*
X140168748Y-115460000D01*
%TO.C,R15*%
X118537742Y-121622500D02*
X119012258Y-121622500D01*
X118537742Y-120577500D02*
X119012258Y-120577500D01*
%TO.C,R26*%
X125200242Y-89322500D02*
X125674758Y-89322500D01*
X125200242Y-88277500D02*
X125674758Y-88277500D01*
%TO.C,D1*%
X183060000Y-127800000D02*
X183060000Y-128600000D01*
X179940000Y-127800000D02*
X179940000Y-128600000D01*
X179940000Y-127800000D02*
X179940000Y-127000000D01*
X183060000Y-127800000D02*
X183060000Y-126000000D01*
%TO.C,C8*%
X171126304Y-98960000D02*
X171341976Y-98960000D01*
X171126304Y-98240000D02*
X171341976Y-98240000D01*
%TO.C,R9*%
X194106742Y-95653500D02*
X194581258Y-95653500D01*
X194106742Y-96698500D02*
X194581258Y-96698500D01*
%TO.C,U12*%
X140348000Y-110415000D02*
X138548000Y-110415000D01*
X140348000Y-113535000D02*
X141148000Y-113535000D01*
X140348000Y-110415000D02*
X141148000Y-110415000D01*
X140348000Y-113535000D02*
X139548000Y-113535000D01*
%TO.C,Z1*%
X113700000Y-102500000D02*
X115600000Y-102500000D01*
X115300000Y-100700000D02*
X113700000Y-100700000D01*
%TO.C,L4*%
X131671250Y-102391250D02*
X131671250Y-101366250D01*
X135891250Y-97621250D02*
X135891250Y-98646250D01*
X131671250Y-97621250D02*
X131671250Y-98646250D01*
X135891250Y-102391250D02*
X134866250Y-102391250D01*
X131671250Y-102391250D02*
X132696250Y-102391250D01*
X135891250Y-97621250D02*
X134866250Y-97621250D01*
X131671250Y-97621250D02*
X132696250Y-97621250D01*
X135891250Y-102391250D02*
X135891250Y-101366250D01*
%TO.C,U8*%
X130608100Y-86591900D02*
X127991900Y-86591900D01*
X130000000Y-89208100D02*
X130650000Y-89208100D01*
%TO.C,C18*%
X131215580Y-90290000D02*
X130934420Y-90290000D01*
X131215580Y-91310000D02*
X130934420Y-91310000D01*
%TO.C,R38*%
X188837258Y-97622500D02*
X188362742Y-97622500D01*
X188837258Y-96577500D02*
X188362742Y-96577500D01*
%TO.C,C37*%
X130344029Y-103771250D02*
X130018471Y-103771250D01*
X130344029Y-104791250D02*
X130018471Y-104791250D01*
%TO.C,L2*%
X120020000Y-143330000D02*
X126320000Y-143330000D01*
X120020000Y-137130000D02*
X126320000Y-137130000D01*
%TO.C,FB1*%
X140940000Y-95502936D02*
X140940000Y-96957064D01*
X139120000Y-95502936D02*
X139120000Y-96957064D01*
%TO.C,Y1*%
X155372500Y-140455000D02*
X159372500Y-140455000D01*
X155372500Y-137155000D02*
X155372500Y-140455000D01*
%TO.C,Q1*%
X147394500Y-107437000D02*
X148044500Y-107437000D01*
X147394500Y-104317000D02*
X145719500Y-104317000D01*
X147394500Y-107437000D02*
X146744500Y-107437000D01*
X147394500Y-104317000D02*
X148044500Y-104317000D01*
%TO.C,R24*%
X128932258Y-126852500D02*
X128457742Y-126852500D01*
X128932258Y-125807500D02*
X128457742Y-125807500D01*
%TO.C,C41*%
X165626920Y-132580000D02*
X165908080Y-132580000D01*
X165626920Y-133600000D02*
X165908080Y-133600000D01*
%TO.C,R5*%
X144769742Y-117999500D02*
X145244258Y-117999500D01*
X144769742Y-116954500D02*
X145244258Y-116954500D01*
%TO.C,D2*%
X141000000Y-98750000D02*
X139800000Y-98750000D01*
X139800000Y-100600000D02*
X139800000Y-98750000D01*
X141000000Y-100600000D02*
X141000000Y-98750000D01*
%TO.C,TH1*%
X111422500Y-89387742D02*
X111422500Y-89862258D01*
X110377500Y-89387742D02*
X110377500Y-89862258D01*
%TO.C,R31*%
X138522500Y-119037258D02*
X138522500Y-118562742D01*
X137477500Y-119037258D02*
X137477500Y-118562742D01*
%TO.C,U16*%
X158652500Y-131190000D02*
X158652500Y-131340000D01*
X155532500Y-134310000D02*
X155532500Y-134160000D01*
X155532500Y-131190000D02*
X155532500Y-131340000D01*
X158652500Y-131190000D02*
X155532500Y-131190000D01*
X157092500Y-134310000D02*
X155532500Y-134310000D01*
%TO.C,C51*%
X130680872Y-94154584D02*
X129881628Y-94154584D01*
X130680872Y-95274584D02*
X129881628Y-95274584D01*
%TO.C,R41*%
X126930971Y-103771250D02*
X127256529Y-103771250D01*
X126930971Y-104791250D02*
X127256529Y-104791250D01*
%TO.C,R19*%
X123122500Y-91562742D02*
X123122500Y-92037258D01*
X122077500Y-91562742D02*
X122077500Y-92037258D01*
%TO.C,R28*%
X135337258Y-107577500D02*
X134862742Y-107577500D01*
X135337258Y-108622500D02*
X134862742Y-108622500D01*
%TO.C,C10*%
X170427836Y-95140000D02*
X170212164Y-95140000D01*
X170427836Y-95860000D02*
X170212164Y-95860000D01*
%TO.C,U17*%
X174280000Y-131790000D02*
X171160000Y-131790000D01*
X172720000Y-134910000D02*
X171160000Y-134910000D01*
X171160000Y-131790000D02*
X171160000Y-131940000D01*
X174280000Y-131790000D02*
X174280000Y-131940000D01*
X171160000Y-134910000D02*
X171160000Y-134760000D01*
%TO.C,R13*%
X180346359Y-109080000D02*
X180653641Y-109080000D01*
X180346359Y-108320000D02*
X180653641Y-108320000D01*
%TO.C,D7*%
X119870000Y-135530000D02*
X123720000Y-135530000D01*
X119870000Y-133530000D02*
X119870000Y-135530000D01*
X119870000Y-133530000D02*
X123720000Y-133530000D01*
D16*
%TO.C,D6*%
X163085860Y-95261620D02*
G75*
G03*
X163085860Y-95261620I-50000J0D01*
G01*
D13*
%TO.C,R37*%
X188862258Y-94977500D02*
X188387742Y-94977500D01*
X188862258Y-96022500D02*
X188387742Y-96022500D01*
%TO.C,R46*%
X137822500Y-111737742D02*
X137822500Y-112212258D01*
X136777500Y-111737742D02*
X136777500Y-112212258D01*
%TO.C,R17*%
X132675242Y-88277500D02*
X133149758Y-88277500D01*
X132675242Y-89322500D02*
X133149758Y-89322500D01*
%TO.C,CP1*%
X149115000Y-92595000D02*
X149115000Y-99355000D01*
X152535000Y-99355000D02*
X152535000Y-92595000D01*
X149115000Y-99355000D02*
X152535000Y-99355000D01*
%TD*%
M02*
