  0
SECTION
  2
HEADER
  9
$ANGBASE
  50
0.0
  9
$ANGDIR
  70
1
  9
$MEASUREMENT
  70
1
  0
ENDSEC
  0
SECTION
  2
TABLES
  0
TABLE
  2
LTYPE
  70
4
  0
LTYPE
  5
40F
  2
CONTINUOUS
  70
0
  3
Solid line
  72
65
  73
0
  40
0.0
  0
LTYPE
  5
410
  2
DASHDOT
 70
0
  3
Dash Dot ____ _ ____ _
 72
65
 73
4
 40
2.0
 49
1.25
 49
-0.25
 49
0.25
 49
-0.25
  0
LTYPE
  5
411
  2
DASHED
 70
0
  3
Dashed __ __ __ __ __
 72
65
 73
2
 40
0.75
 49
0.5
 49
-0.25
  0
LTYPE
  5
43B
  2
DOTTED
 70
0
  3
Dotted .  .  .  .
 72
65
 73
2
 40
0.2
 49
0.0
 49
-0.2
  0
ENDTAB
  0
TABLE
  2
STYLE
  70
4
  0
STYLE
  2
KICAD
  70
0
  40
0
  41
1
  42
1
  50
0
  71
0
  3
isocp.shx
  0
STYLE
  2
KICADB
  70
0
  40
0
  41
1
  42
1
  50
0
  71
0
  3
isocp.shx
  0
STYLE
  2
KICADI
  70
0
  40
0
  41
1
  42
1
  50
15
  71
0
  3
isocp.shx
  0
STYLE
  2
KICADBI
  70
0
  40
0
  41
1
  42
1
  50
15
  71
0
  3
isocp.shx
  0
ENDTAB
  0
TABLE
  2
LAYER
  70
1
  0
LAYER
  2
BLACK
  70
0
  62
7
  6
CONTINUOUS
  0
ENDTAB
  0
ENDSEC
  0
SECTION
  2
ENTITIES
0
LINE
8
BLACK
6
CONTINUOUS
10
105.993
20
-84.95
11
198.999
21
-84.9511
0
LINE
8
BLACK
6
CONTINUOUS
10
198.999
20
-84.9511
11
199.181
21
-84.9671
0
LINE
8
BLACK
6
CONTINUOUS
10
199.181
20
-84.9671
11
199.358
21
-85.0144
0
LINE
8
BLACK
6
CONTINUOUS
10
199.358
20
-85.0144
11
199.524
21
-85.0918
0
LINE
8
BLACK
6
CONTINUOUS
10
199.524
20
-85.0918
11
199.674
21
-85.1968
0
LINE
8
BLACK
6
CONTINUOUS
10
199.674
20
-85.1968
11
199.803
21
-85.3262
0
LINE
8
BLACK
6
CONTINUOUS
10
199.803
20
-85.3262
11
199.908
21
-85.4761
0
LINE
8
BLACK
6
CONTINUOUS
10
199.908
20
-85.4761
11
199.986
21
-85.642
0
LINE
8
BLACK
6
CONTINUOUS
10
199.986
20
-85.642
11
200.033
21
-85.8188
0
LINE
8
BLACK
6
CONTINUOUS
10
200.033
20
-85.8188
11
200.049
21
-86.0011
0
LINE
8
BLACK
6
CONTINUOUS
10
200.049
20
-86.0011
11
200.049
21
-86.0011
0
LINE
8
BLACK
6
CONTINUOUS
10
200.049
20
-86.0011
11
200.05
21
-144
0
LINE
8
BLACK
6
CONTINUOUS
10
200.05
20
-144
11
200.05
21
-144
0
LINE
8
BLACK
6
CONTINUOUS
10
200.05
20
-144
11
200.034
21
-144.182
0
LINE
8
BLACK
6
CONTINUOUS
10
200.034
20
-144.182
11
199.987
21
-144.359
0
LINE
8
BLACK
6
CONTINUOUS
10
199.987
20
-144.359
11
199.909
21
-144.525
0
LINE
8
BLACK
6
CONTINUOUS
10
199.909
20
-144.525
11
199.804
21
-144.675
0
LINE
8
BLACK
6
CONTINUOUS
10
199.804
20
-144.675
11
199.675
21
-144.804
0
LINE
8
BLACK
6
CONTINUOUS
10
199.675
20
-144.804
11
199.525
21
-144.909
0
LINE
8
BLACK
6
CONTINUOUS
10
199.525
20
-144.909
11
199.359
21
-144.987
0
LINE
8
BLACK
6
CONTINUOUS
10
199.359
20
-144.987
11
199.182
21
-145.034
0
LINE
8
BLACK
6
CONTINUOUS
10
199.182
20
-145.034
11
199
21
-145.05
0
LINE
8
BLACK
6
CONTINUOUS
10
199
20
-145.05
11
105.993
21
-145.05
0
LINE
8
BLACK
6
CONTINUOUS
10
105.993
20
-145.05
11
105.993
21
-145.05
0
LINE
8
BLACK
6
CONTINUOUS
10
105.993
20
-145.05
11
105.993
21
-145.05
0
LINE
8
BLACK
6
CONTINUOUS
10
105.993
20
-145.05
11
105.518
21
-145.032
0
LINE
8
BLACK
6
CONTINUOUS
10
105.518
20
-145.032
11
105.047
21
-144.977
0
LINE
8
BLACK
6
CONTINUOUS
10
105.047
20
-144.977
11
104.581
21
-144.884
0
LINE
8
BLACK
6
CONTINUOUS
10
104.581
20
-144.884
11
104.125
21
-144.756
0
LINE
8
BLACK
6
CONTINUOUS
10
104.125
20
-144.756
11
103.679
21
-144.592
0
LINE
8
BLACK
6
CONTINUOUS
10
103.679
20
-144.592
11
103.248
21
-144.394
0
LINE
8
BLACK
6
CONTINUOUS
10
103.248
20
-144.394
11
102.834
21
-144.162
0
LINE
8
BLACK
6
CONTINUOUS
10
102.834
20
-144.162
11
102.439
21
-143.898
0
LINE
8
BLACK
6
CONTINUOUS
10
102.439
20
-143.898
11
102.066
21
-143.604
0
LINE
8
BLACK
6
CONTINUOUS
10
102.066
20
-143.604
11
101.718
21
-143.282
0
LINE
8
BLACK
6
CONTINUOUS
10
101.718
20
-143.282
11
101.396
21
-142.934
0
LINE
8
BLACK
6
CONTINUOUS
10
101.396
20
-142.934
11
101.102
21
-142.561
0
LINE
8
BLACK
6
CONTINUOUS
10
101.102
20
-142.561
11
100.838
21
-142.166
0
LINE
8
BLACK
6
CONTINUOUS
10
100.838
20
-142.166
11
100.606
21
-141.752
0
LINE
8
BLACK
6
CONTINUOUS
10
100.606
20
-141.752
11
100.408
21
-141.321
0
LINE
8
BLACK
6
CONTINUOUS
10
100.408
20
-141.321
11
100.244
21
-140.875
0
LINE
8
BLACK
6
CONTINUOUS
10
100.244
20
-140.875
11
100.116
21
-140.419
0
LINE
8
BLACK
6
CONTINUOUS
10
100.116
20
-140.419
11
100.023
21
-139.953
0
LINE
8
BLACK
6
CONTINUOUS
10
100.023
20
-139.953
11
99.9681
21
-139.482
0
LINE
8
BLACK
6
CONTINUOUS
10
99.9681
20
-139.482
11
99.95
21
-139.007
0
LINE
8
BLACK
6
CONTINUOUS
10
99.95
20
-139.007
11
99.95
21
-139.007
0
LINE
8
BLACK
6
CONTINUOUS
10
99.95
20
-139.007
11
99.95
21
-91
0
LINE
8
BLACK
6
CONTINUOUS
10
99.95
20
-91
11
99.95
21
-91
0
LINE
8
BLACK
6
CONTINUOUS
10
99.95
20
-91
11
99.9675
21
-90.5254
0
LINE
8
BLACK
6
CONTINUOUS
10
99.9675
20
-90.5254
11
100.022
21
-90.0536
0
LINE
8
BLACK
6
CONTINUOUS
10
100.022
20
-90.0536
11
100.114
21
-89.5876
0
LINE
8
BLACK
6
CONTINUOUS
10
100.114
20
-89.5876
11
100.242
21
-89.1302
0
LINE
8
BLACK
6
CONTINUOUS
10
100.242
20
-89.1302
11
100.406
21
-88.6842
0
LINE
8
BLACK
6
CONTINUOUS
10
100.406
20
-88.6842
11
100.604
21
-88.2526
0
LINE
8
BLACK
6
CONTINUOUS
10
100.604
20
-88.2526
11
100.836
21
-87.8379
0
LINE
8
BLACK
6
CONTINUOUS
10
100.836
20
-87.8379
11
101.099
21
-87.4426
0
LINE
8
BLACK
6
CONTINUOUS
10
101.099
20
-87.4426
11
101.393
21
-87.0693
0
LINE
8
BLACK
6
CONTINUOUS
10
101.393
20
-87.0693
11
101.715
21
-86.7203
0
LINE
8
BLACK
6
CONTINUOUS
10
101.715
20
-86.7203
11
102.064
21
-86.3977
0
LINE
8
BLACK
6
CONTINUOUS
10
102.064
20
-86.3977
11
102.437
21
-86.1035
0
LINE
8
BLACK
6
CONTINUOUS
10
102.437
20
-86.1035
11
102.832
21
-85.8395
0
LINE
8
BLACK
6
CONTINUOUS
10
102.832
20
-85.8395
11
103.246
21
-85.6075
0
LINE
8
BLACK
6
CONTINUOUS
10
103.246
20
-85.6075
11
103.677
21
-85.4087
0
LINE
8
BLACK
6
CONTINUOUS
10
103.677
20
-85.4087
11
104.123
21
-85.2445
0
LINE
8
BLACK
6
CONTINUOUS
10
104.123
20
-85.2445
11
104.58
21
-85.1158
0
LINE
8
BLACK
6
CONTINUOUS
10
104.58
20
-85.1158
11
105.046
21
-85.0235
0
LINE
8
BLACK
6
CONTINUOUS
10
105.046
20
-85.0235
11
105.518
21
-84.9681
0
LINE
8
BLACK
6
CONTINUOUS
10
105.518
20
-84.9681
11
105.993
21
-84.95
0
LINE
8
BLACK
6
CONTINUOUS
10
105.993
20
-84.95
11
105.993
21
-84.95
0
LINE
8
BLACK
6
CONTINUOUS
10
105.293
20
-85.0859
11
104.831
21
-85.1586
0
LINE
8
BLACK
6
CONTINUOUS
10
104.831
20
-85.1586
11
104.376
21
-85.2675
0
LINE
8
BLACK
6
CONTINUOUS
10
104.376
20
-85.2675
11
103.932
21
-85.4117
0
LINE
8
BLACK
6
CONTINUOUS
10
103.932
20
-85.4117
11
103.5
21
-85.5905
0
LINE
8
BLACK
6
CONTINUOUS
10
103.5
20
-85.5905
11
103.083
21
-85.8027
0
LINE
8
BLACK
6
CONTINUOUS
10
103.083
20
-85.8027
11
102.685
21
-86.047
0
LINE
8
BLACK
6
CONTINUOUS
10
102.685
20
-86.047
11
102.306
21
-86.3218
0
LINE
8
BLACK
6
CONTINUOUS
10
102.306
20
-86.3218
11
101.951
21
-86.6256
0
LINE
8
BLACK
6
CONTINUOUS
10
101.951
20
-86.6256
11
101.621
21
-86.9564
0
LINE
8
BLACK
6
CONTINUOUS
10
101.621
20
-86.9564
11
101.317
21
-87.3121
0
LINE
8
BLACK
6
CONTINUOUS
10
101.317
20
-87.3121
11
101.043
21
-87.6906
0
LINE
8
BLACK
6
CONTINUOUS
10
101.043
20
-87.6906
11
100.799
21
-88.0895
0
LINE
8
BLACK
6
CONTINUOUS
10
100.799
20
-88.0895
11
100.587
21
-88.5063
0
LINE
8
BLACK
6
CONTINUOUS
10
100.587
20
-88.5063
11
100.409
21
-88.9385
0
LINE
8
BLACK
6
CONTINUOUS
10
100.409
20
-88.9385
11
100.266
21
-89.3833
0
LINE
8
BLACK
6
CONTINUOUS
10
100.266
20
-89.3833
11
100.157
21
-89.8381
0
LINE
8
BLACK
6
CONTINUOUS
10
100.157
20
-89.8381
11
100.085
21
-90.3
0
LINE
8
BLACK
6
CONTINUOUS
10
100.085
20
-90.3
11
100.049
21
-90.7661
0
LINE
8
BLACK
6
CONTINUOUS
10
100.049
20
-90.7661
11
100.05
21
-90.9999
0
LINE
8
BLACK
6
CONTINUOUS
10
100.05
20
-90.9999
11
100.05
21
-90.9999
0
LINE
8
BLACK
6
CONTINUOUS
10
100.05
20
-90.9999
11
100.05
21
-91
0
LINE
8
BLACK
6
CONTINUOUS
10
100.05
20
-91
11
100.05
21
-139.007
0
LINE
8
BLACK
6
CONTINUOUS
10
100.05
20
-139.007
11
100.05
21
-139.007
0
LINE
8
BLACK
6
CONTINUOUS
10
100.05
20
-139.007
11
100.05
21
-139.007
0
LINE
8
BLACK
6
CONTINUOUS
10
100.05
20
-139.007
11
100.05
21
-139.241
0
LINE
8
BLACK
6
CONTINUOUS
10
100.05
20
-139.241
11
100.086
21
-139.707
0
LINE
8
BLACK
6
CONTINUOUS
10
100.086
20
-139.707
11
100.158
21
-140.168
0
LINE
8
BLACK
6
CONTINUOUS
10
100.158
20
-140.168
11
100.267
21
-140.622
0
LINE
8
BLACK
6
CONTINUOUS
10
100.267
20
-140.622
11
100.411
21
-141.067
0
LINE
8
BLACK
6
CONTINUOUS
10
100.411
20
-141.067
11
100.59
21
-141.499
0
LINE
8
BLACK
6
CONTINUOUS
10
100.59
20
-141.499
11
100.802
21
-141.915
0
LINE
8
BLACK
6
CONTINUOUS
10
100.802
20
-141.915
11
101.045
21
-142.313
0
LINE
8
BLACK
6
CONTINUOUS
10
101.045
20
-142.313
11
101.32
21
-142.691
0
LINE
8
BLACK
6
CONTINUOUS
10
101.32
20
-142.691
11
101.623
21
-143.046
0
LINE
8
BLACK
6
CONTINUOUS
10
101.623
20
-143.046
11
101.954
21
-143.377
0
LINE
8
BLACK
6
CONTINUOUS
10
101.954
20
-143.377
11
102.309
21
-143.68
0
LINE
8
BLACK
6
CONTINUOUS
10
102.309
20
-143.68
11
102.687
21
-143.955
0
LINE
8
BLACK
6
CONTINUOUS
10
102.687
20
-143.955
11
103.085
21
-144.198
0
LINE
8
BLACK
6
CONTINUOUS
10
103.085
20
-144.198
11
103.501
21
-144.41
0
LINE
8
BLACK
6
CONTINUOUS
10
103.501
20
-144.41
11
103.933
21
-144.589
0
LINE
8
BLACK
6
CONTINUOUS
10
103.933
20
-144.589
11
104.378
21
-144.733
0
LINE
8
BLACK
6
CONTINUOUS
10
104.378
20
-144.733
11
104.832
21
-144.842
0
LINE
8
BLACK
6
CONTINUOUS
10
104.832
20
-144.842
11
105.293
21
-144.914
0
LINE
8
BLACK
6
CONTINUOUS
10
105.293
20
-144.914
11
105.759
21
-144.95
0
LINE
8
BLACK
6
CONTINUOUS
10
105.759
20
-144.95
11
105.993
21
-144.95
0
LINE
8
BLACK
6
CONTINUOUS
10
105.993
20
-144.95
11
105.993
21
-144.95
0
LINE
8
BLACK
6
CONTINUOUS
10
105.993
20
-144.95
11
105.993
21
-144.95
0
LINE
8
BLACK
6
CONTINUOUS
10
105.993
20
-144.95
11
199
21
-144.95
0
LINE
8
BLACK
6
CONTINUOUS
10
199
20
-144.95
11
199.083
21
-144.95
0
LINE
8
BLACK
6
CONTINUOUS
10
199.083
20
-144.95
11
199.247
21
-144.921
0
LINE
8
BLACK
6
CONTINUOUS
10
199.247
20
-144.921
11
199.403
21
-144.864
0
LINE
8
BLACK
6
CONTINUOUS
10
199.403
20
-144.864
11
199.547
21
-144.781
0
LINE
8
BLACK
6
CONTINUOUS
10
199.547
20
-144.781
11
199.674
21
-144.674
0
LINE
8
BLACK
6
CONTINUOUS
10
199.674
20
-144.674
11
199.781
21
-144.547
0
LINE
8
BLACK
6
CONTINUOUS
10
199.781
20
-144.547
11
199.864
21
-144.403
0
LINE
8
BLACK
6
CONTINUOUS
10
199.864
20
-144.403
11
199.921
21
-144.247
0
LINE
8
BLACK
6
CONTINUOUS
10
199.921
20
-144.247
11
199.95
21
-144.083
0
LINE
8
BLACK
6
CONTINUOUS
10
199.95
20
-144.083
11
199.95
21
-144
0
LINE
8
BLACK
6
CONTINUOUS
10
199.95
20
-144
11
199.95
21
-144
0
LINE
8
BLACK
6
CONTINUOUS
10
199.95
20
-144
11
199.949
21
-86.0011
0
LINE
8
BLACK
6
CONTINUOUS
10
199.949
20
-86.0011
11
199.949
21
-86.0011
0
LINE
8
BLACK
6
CONTINUOUS
10
199.949
20
-86.0011
11
199.949
21
-85.918
0
LINE
8
BLACK
6
CONTINUOUS
10
199.949
20
-85.918
11
199.92
21
-85.7543
0
LINE
8
BLACK
6
CONTINUOUS
10
199.92
20
-85.7543
11
199.863
21
-85.5981
0
LINE
8
BLACK
6
CONTINUOUS
10
199.863
20
-85.5981
11
199.78
21
-85.4541
0
LINE
8
BLACK
6
CONTINUOUS
10
199.78
20
-85.4541
11
199.673
21
-85.3268
0
LINE
8
BLACK
6
CONTINUOUS
10
199.673
20
-85.3268
11
199.546
21
-85.2199
0
LINE
8
BLACK
6
CONTINUOUS
10
199.546
20
-85.2199
11
199.402
21
-85.1368
0
LINE
8
BLACK
6
CONTINUOUS
10
199.402
20
-85.1368
11
199.246
21
-85.08
0
LINE
8
BLACK
6
CONTINUOUS
10
199.246
20
-85.08
11
199.082
21
-85.0511
0
LINE
8
BLACK
6
CONTINUOUS
10
199.082
20
-85.0511
11
198.999
21
-85.0511
0
LINE
8
BLACK
6
CONTINUOUS
10
198.999
20
-85.0511
11
198.999
21
-85.0511
0
LINE
8
BLACK
6
CONTINUOUS
10
198.999
20
-85.0511
11
198.999
21
-85.0511
0
LINE
8
BLACK
6
CONTINUOUS
10
198.999
20
-85.0511
11
105.993
21
-85.05
0
LINE
8
BLACK
6
CONTINUOUS
10
105.993
20
-85.05
11
105.993
21
-85.05
0
LINE
8
BLACK
6
CONTINUOUS
10
105.993
20
-85.05
11
105.993
21
-85.05
0
LINE
8
BLACK
6
CONTINUOUS
10
105.993
20
-85.05
11
105.993
21
-85.05
0
LINE
8
BLACK
6
CONTINUOUS
10
105.993
20
-85.05
11
105.759
21
-85.0497
0
LINE
8
BLACK
6
CONTINUOUS
10
105.759
20
-85.0497
11
105.293
21
-85.0859
  0
ENDSEC
  0
EOF
