M48
; DRILL file {KiCad (7.0.0)} date Wed Feb 22 17:28:55 2023
; FORMAT={-:-/ absolute / metric / decimal}
; #@! TF.CreationDate,2023-02-22T17:28:55+08:00
; #@! TF.GenerationSoftware,Kicad,Pcbnew,(7.0.0)
; #@! TF.FileFunction,MixedPlating,1,4
FMAT,2
METRIC
; #@! TA.AperFunction,Plated,PTH,ComponentDrill
T1C0.200
; #@! TA.AperFunction,Plated,PTH,ViaDrill
T2C0.300
; #@! TA.AperFunction,Plated,PTH,ViaDrill
T3C0.500
; #@! TA.AperFunction,Plated,PTH,ComponentDrill
T4C0.500
; #@! TA.AperFunction,Plated,PTH,ComponentDrill
T5C0.650
; #@! TA.AperFunction,Plated,PTH,ComponentDrill
T6C1.092
; #@! TA.AperFunction,Plated,PTH,ComponentDrill
T7C1.250
; #@! TA.AperFunction,Plated,PTH,ComponentDrill
T8C3.200
; #@! TA.AperFunction,NonPlated,NPTH,ComponentDrill
T9C1.300
; #@! TA.AperFunction,NonPlated,NPTH,ComponentDrill
T10C3.200
%
G90
G05
T1
X121.3Y-130.844
X121.3Y-132.244
X122.3Y-130.844
X122.3Y-132.244
X123.3Y-130.844
X123.3Y-132.244
T2
X101.0Y-90.0
X101.0Y-91.0
X101.0Y-92.0
X101.0Y-93.0
X101.0Y-94.0
X101.0Y-95.0
X101.0Y-96.0
X101.0Y-97.0
X101.0Y-98.0
X101.0Y-99.0
X101.0Y-100.0
X101.0Y-101.0
X101.0Y-102.0
X101.0Y-103.0
X101.0Y-104.0
X101.0Y-105.0
X101.0Y-106.0
X101.0Y-107.0
X101.0Y-108.0
X101.0Y-109.0
X101.0Y-110.0
X101.0Y-111.0
X101.0Y-112.0
X101.0Y-113.0
X101.0Y-114.0
X101.0Y-115.0
X101.0Y-116.0
X101.0Y-117.0
X101.0Y-118.0
X101.0Y-119.0
X101.0Y-120.0
X101.0Y-121.0
X101.0Y-122.0
X101.0Y-123.0
X101.0Y-124.0
X101.0Y-125.0
X101.0Y-126.0
X101.0Y-127.0
X101.0Y-128.0
X101.0Y-129.0
X101.0Y-130.0
X101.0Y-131.0
X101.0Y-132.0
X101.0Y-133.0
X101.0Y-134.0
X101.0Y-135.0
X101.0Y-136.0
X101.0Y-137.0
X101.0Y-138.0
X101.0Y-139.0
X101.0Y-140.0
X101.2Y-89.0
X101.3Y-141.2
X101.7Y-88.0
X101.9Y-142.3
X102.5Y-87.1
X102.8Y-143.1
X103.6Y-86.4
X103.8Y-143.6
X104.191Y-106.1
X104.4Y-102.5
X105.0Y-144.0
X105.25Y-85.8
X105.989Y-102.212
X106.0Y-144.0
X106.25Y-85.8
X107.0Y-144.0
X107.25Y-85.8
X108.0Y-144.0
X108.25Y-85.8
X108.6Y-121.4
X108.805Y-99.327
X109.0Y-144.0
X109.15Y-95.425
X109.15Y-96.475
X109.21Y-100.14
X109.25Y-85.8
X109.3Y-101.1
X110.0Y-144.0
X110.25Y-85.8
X111.0Y-144.0
X111.05Y-108.8
X111.25Y-85.8
X111.5Y-120.2
X111.7Y-117.9
X111.825Y-89.225
X112.0Y-144.0
X112.2Y-91.9
X112.25Y-85.8
X112.55Y-116.15
X112.7Y-94.2
X113.0Y-144.0
X113.15Y-108.75
X113.25Y-85.8
X113.25Y-112.25
X114.0Y-144.0
X114.25Y-85.8
X114.45Y-91.8
X114.604Y-106.446
X114.65Y-113.9
X114.65Y-123.3
X114.7Y-93.5
X114.73Y-99.76
X115.0Y-110.8
X115.0Y-144.0
X115.25Y-85.8
X115.325Y-124.175
X115.8Y-100.6
X115.83Y-125.715
X115.9Y-126.6
X115.9Y-130.225
X116.0Y-144.0
X116.25Y-85.8
X116.282Y-101.314
X116.479Y-108.321
X116.55Y-109.4
X116.575Y-92.1
X116.7Y-92.9
X116.7Y-114.025
X116.8Y-102.08
X117.0Y-144.0
X117.03Y-94.065
X117.25Y-85.8
X117.492Y-109.412
X118.0Y-144.0
X118.25Y-85.8
X118.542Y-110.362
X118.942Y-111.062
X119.0Y-114.5
X119.0Y-116.5
X119.0Y-124.838
X119.0Y-125.838
X119.0Y-126.838
X119.0Y-127.838
X119.0Y-128.838
X119.0Y-129.838
X119.0Y-130.838
X119.0Y-131.838
X119.0Y-132.838
X119.0Y-133.838
X119.0Y-134.838
X119.0Y-144.0
X119.2Y-118.2
X119.2Y-119.0
X119.25Y-85.8
X119.25Y-94.0
X119.25Y-96.0
X119.25Y-98.0
X119.25Y-100.0
X119.25Y-102.0
X119.25Y-104.25
X119.25Y-119.85
X119.25Y-140.838
X119.45Y-87.625
X119.65Y-120.55
X119.9Y-114.5
X120.0Y-124.838
X120.0Y-125.838
X120.0Y-126.838
X120.0Y-130.838
X120.0Y-131.838
X120.0Y-144.0
X120.25Y-85.8
X120.4Y-135.638
X120.45Y-120.55
X120.55Y-118.25
X120.6Y-119.45
X121.0Y-124.838
X121.0Y-127.338
X121.0Y-144.0
X121.25Y-85.8
X121.25Y-120.55
X122.0Y-124.838
X122.0Y-144.0
X122.15Y-120.55
X122.25Y-85.8
X122.25Y-101.35
X122.325Y-89.325
X122.35Y-102.25
X122.35Y-103.05
X122.35Y-103.85
X122.35Y-127.544
X122.5Y-98.15
X122.5Y-125.588
X123.0Y-124.838
X123.0Y-144.0
X123.05Y-120.55
X123.25Y-85.8
X123.25Y-102.25
X123.25Y-103.05
X123.3Y-103.85
X123.45Y-100.8
X123.5Y-99.25
X123.5Y-110.15
X123.75Y-94.0
X123.75Y-95.0
X123.75Y-96.0
X123.75Y-97.0
X123.75Y-98.0
X123.95Y-120.55
X124.0Y-144.0
X124.1Y-124.8
X124.2Y-102.25
X124.2Y-135.594
X124.25Y-85.8
X124.3Y-93.3
X124.4Y-88.1
X124.474Y-99.574
X124.5Y-130.838
X124.5Y-132.338
X124.65Y-110.15
X124.8Y-120.55
X125.0Y-144.0
X125.1Y-102.25
X125.2Y-124.8
X125.25Y-85.8
X125.3Y-93.3
X125.3Y-119.5
X125.325Y-116.6
X125.326Y-99.574
X125.7Y-120.55
X125.75Y-110.2
X125.825Y-90.6
X125.872Y-131.028
X126.0Y-144.0
X126.05Y-132.794
X126.2Y-88.1
X126.2Y-99.6
X126.25Y-85.8
X126.3Y-124.8
X126.35Y-113.5
X126.35Y-114.3
X126.35Y-119.55
X126.4Y-93.3
X126.6Y-111.2
X126.6Y-120.55
X126.8Y-133.694
X127.0Y-144.0
X127.15Y-113.5
X127.15Y-114.3
X127.25Y-85.8
X127.25Y-110.15
X127.25Y-136.838
X127.3Y-124.8
X127.4Y-119.5
X127.5Y-93.3
X127.5Y-131.838
X127.5Y-132.838
X127.5Y-137.838
X127.5Y-138.838
X127.5Y-139.838
X127.95Y-112.65
X128.0Y-144.0
X128.25Y-85.8
X128.25Y-114.65
X128.3Y-113.6
X128.3Y-119.1
X128.3Y-120.5
X128.4Y-124.8
X128.5Y-131.838
X128.5Y-132.838
X128.5Y-133.838
X128.5Y-134.838
X128.5Y-137.838
X128.5Y-138.838
X128.5Y-139.838
X128.7Y-93.3
X128.75Y-112.05
X128.942Y-87.562
X128.942Y-88.362
X128.992Y-89.162
X129.0Y-144.0
X129.2Y-117.5
X129.2Y-118.35
X129.25Y-85.8
X129.25Y-119.6
X129.3Y-120.5
X129.5Y-90.7
X129.5Y-124.8
X129.5Y-131.838
X129.5Y-132.838
X129.5Y-133.838
X129.5Y-134.838
X129.5Y-137.838
X129.55Y-113.45
X129.7Y-111.85
X129.8Y-93.3
X129.9Y-112.7
X129.942Y-87.562
X129.942Y-88.362
X129.992Y-89.162
X130.0Y-144.0
X130.05Y-117.5
X130.05Y-118.35
X130.2Y-119.3
X130.25Y-85.8
X130.5Y-131.838
X130.5Y-134.838
X130.5Y-135.838
X130.5Y-136.838
X130.5Y-137.838
X130.6Y-124.8
X131.0Y-93.3
X131.0Y-144.0
X131.05Y-140.688
X131.2Y-119.1
X131.25Y-85.8
X131.5Y-131.838
X131.5Y-134.838
X131.5Y-135.838
X131.5Y-136.838
X131.5Y-137.838
X131.6Y-110.65
X131.7Y-124.8
X131.9Y-120.1
X132.0Y-144.0
X132.15Y-119.1
X132.25Y-85.8
X132.3Y-94.0
X132.3Y-95.1
X132.3Y-96.1
X132.3Y-97.1
X132.55Y-87.399
X132.55Y-110.65
X132.7Y-99.2
X132.7Y-100.4
X132.7Y-101.5
X132.7Y-102.6
X132.7Y-103.7
X132.8Y-124.8
X132.825Y-98.125
X133.0Y-144.0
X133.05Y-90.68
X133.1Y-119.1
X133.23Y-111.599
X133.25Y-85.8
X133.9Y-94.0
X133.9Y-95.1
X133.9Y-96.1
X133.9Y-97.1
X133.9Y-99.2
X133.9Y-100.3
X133.9Y-101.5
X133.9Y-102.6
X133.9Y-103.7
X133.9Y-124.8
X134.0Y-144.0
X134.05Y-90.68
X134.1Y-119.1
X134.236Y-111.599
X134.25Y-85.8
X134.8Y-115.75
X135.0Y-124.8
X135.0Y-144.0
X135.05Y-90.7
X135.1Y-94.0
X135.1Y-95.1
X135.1Y-96.1
X135.1Y-97.1
X135.1Y-99.2
X135.1Y-100.3
X135.1Y-101.5
X135.1Y-102.6
X135.1Y-103.7
X135.1Y-109.2
X135.1Y-111.6
X135.1Y-112.5
X135.1Y-113.6
X135.1Y-114.75
X135.1Y-119.1
X135.11Y-108.25
X135.112Y-104.788
X135.25Y-85.8
X135.3Y-120.1
X136.0Y-144.0
X136.25Y-85.8
X137.0Y-115.775
X137.0Y-144.0
X137.25Y-85.8
X137.5Y-107.8
X137.624Y-121.122
X137.65Y-122.75
X138.0Y-144.0
X138.2Y-97.55
X138.2Y-100.65
X138.2Y-101.7
X138.2Y-102.8
X138.25Y-85.8
X138.3Y-96.15
X138.35Y-124.3
X138.5Y-129.2
X138.992Y-137.962
X139.0Y-144.0
X139.18Y-118.315
X139.25Y-85.8
X139.292Y-126.862
X139.48Y-119.265
X139.55Y-87.0
X139.98Y-126.165
X140.0Y-144.0
X140.25Y-85.8
X140.392Y-122.712
X140.392Y-123.412
X140.4Y-86.7
X140.492Y-127.712
X140.85Y-118.75
X140.85Y-118.75
X141.0Y-144.0
X141.242Y-122.662
X141.25Y-85.8
X141.292Y-123.412
X141.492Y-119.412
X141.676Y-91.097
X141.792Y-86.712
X141.9Y-103.215
X142.0Y-105.8
X142.0Y-110.25
X142.0Y-144.0
X142.136Y-112.636
X142.25Y-85.8
X142.461Y-113.789
X142.6Y-111.95
X142.792Y-117.662
X142.856Y-125.612
X143.0Y-144.0
X143.042Y-116.637
X143.25Y-85.8
X143.366Y-133.029
X143.451Y-96.403
X143.565Y-127.035
X143.65Y-102.6
X144.0Y-144.0
X144.103Y-123.459
X144.118Y-115.027
X144.167Y-92.137
X144.2Y-101.65
X144.25Y-85.8
X144.457Y-93.805
X144.56Y-142.4
X144.6Y-113.75
X144.628Y-124.755
X144.78Y-132.615
X145.0Y-144.0
X145.25Y-85.8
X145.3Y-110.05
X145.329Y-135.915
X145.75Y-113.75
X145.849Y-95.254
X145.95Y-94.562
X145.992Y-92.1
X146.0Y-144.0
X146.189Y-97.539
X146.25Y-85.8
X146.424Y-89.125
X146.88Y-132.765
X146.892Y-138.312
X146.95Y-112.95
X147.0Y-144.0
X147.057Y-119.593
X147.18Y-99.165
X147.192Y-92.1
X147.28Y-108.965
X147.692Y-113.512
X147.7Y-111.75
X147.989Y-93.124
X148.036Y-106.614
X148.049Y-138.965
X148.05Y-91.775
X148.1Y-108.95
X148.2Y-144.2
X148.201Y-112.4
X148.336Y-142.209
X148.561Y-121.178
X148.622Y-94.892
X148.762Y-87.314
X148.88Y-96.715
X148.98Y-97.765
X149.092Y-99.912
X149.2Y-144.2
X149.25Y-95.4
X149.342Y-94.012
X149.396Y-91.866
X149.474Y-121.042
X149.7Y-107.45
X149.85Y-101.2
X149.892Y-110.712
X149.9Y-89.15
X149.906Y-102.349
X149.942Y-121.762
X150.05Y-105.1
X150.092Y-85.712
X150.092Y-93.412
X150.092Y-133.512
X150.142Y-88.012
X150.2Y-144.312
X150.322Y-119.542
X150.385Y-106.999
X150.492Y-116.912
X150.62Y-120.634
X150.642Y-131.004
X150.725Y-92.711
X150.83Y-122.115
X150.83Y-123.265
X151.2Y-144.312
X151.559Y-136.586
X151.836Y-135.309
X151.9Y-99.4
X152.1Y-96.3
X152.1Y-101.1
X152.118Y-104.62
X152.2Y-103.8
X152.223Y-144.299
X152.268Y-93.515
X152.272Y-138.942
X152.299Y-92.4
X152.611Y-135.084
X152.842Y-94.063
X153.2Y-144.299
X153.25Y-140.55
X153.492Y-95.912
X153.672Y-120.842
X153.79Y-95.012
X154.2Y-144.299
X154.25Y-114.7
X154.3Y-92.55
X154.98Y-86.814
X155.05Y-135.8
X155.065Y-88.299
X155.08Y-132.665
X155.2Y-144.299
X155.272Y-130.492
X155.275Y-92.525
X155.68Y-135.015
X156.2Y-144.299
X156.292Y-88.712
X157.0Y-106.65
X157.2Y-144.299
X157.264Y-87.464
X157.4Y-90.65
X157.464Y-92.164
X157.55Y-101.339
X157.692Y-116.112
X157.888Y-105.161
X158.2Y-144.299
X158.25Y-101.75
X158.322Y-130.192
X158.452Y-142.883
X158.489Y-90.911
X158.892Y-89.912
X159.2Y-144.299
X159.5Y-142.7
X159.55Y-141.05
X159.98Y-139.415
X160.092Y-97.312
X160.2Y-144.299
X160.246Y-102.227
X160.892Y-96.512
X160.969Y-98.1
X161.092Y-99.912
X161.2Y-144.2
X161.272Y-117.392
X161.68Y-103.418
X161.73Y-97.215
X161.892Y-102.312
X162.05Y-141.6
X162.2Y-144.2
X162.311Y-98.711
X162.354Y-87.877
X162.384Y-96.623
X162.45Y-142.7
X162.868Y-104.766
X162.993Y-91.792
X163.0Y-101.7
X163.2Y-144.2
X163.662Y-104.41
X163.692Y-106.712
X163.75Y-101.35
X163.792Y-90.262
X163.8Y-102.25
X163.88Y-89.565
X163.959Y-91.206
X164.2Y-144.2
X164.517Y-137.412
X164.672Y-117.192
X164.892Y-115.112
X165.2Y-144.2
X165.567Y-139.762
X165.692Y-91.162
X165.742Y-96.395
X165.742Y-97.215
X165.742Y-98.05
X166.2Y-144.2
X166.342Y-101.212
X166.892Y-106.912
X167.2Y-144.2
X167.28Y-101.262
X167.58Y-131.165
X167.6Y-90.152
X167.822Y-103.58
X167.842Y-91.849
X168.2Y-144.2
X168.241Y-142.701
X168.28Y-98.892
X168.33Y-101.165
X168.48Y-131.065
X168.48Y-135.915
X168.504Y-90.222
X168.504Y-95.865
X168.862Y-95.038
X168.88Y-103.564
X168.966Y-99.579
X169.13Y-101.165
X169.2Y-144.2
X169.24Y-96.29
X169.73Y-103.963
X169.73Y-131.065
X169.751Y-95.15
X170.0Y-133.5
X170.0Y-135.75
X170.092Y-115.712
X170.2Y-144.2
X170.442Y-138.462
X170.51Y-98.745
X171.2Y-144.2
X171.231Y-97.615
X171.671Y-96.706
X171.83Y-101.215
X171.98Y-93.015
X172.1Y-119.25
X172.131Y-120.331
X172.182Y-98.317
X172.2Y-144.2
X172.77Y-96.695
X172.78Y-97.665
X172.791Y-98.904
X172.904Y-90.624
X173.088Y-92.179
X173.167Y-137.712
X173.167Y-140.262
X173.2Y-144.2
X173.25Y-130.75
X173.3Y-119.25
X173.35Y-120.3
X173.365Y-95.012
X173.58Y-96.565
X173.892Y-108.512
X173.98Y-95.715
X174.08Y-104.015
X174.093Y-98.337
X174.2Y-144.2
X174.292Y-91.198
X174.643Y-97.664
X174.692Y-107.312
X175.2Y-144.2
X175.25Y-138.25
X176.08Y-103.715
X176.156Y-101.897
X176.2Y-144.2
X176.209Y-100.71
X176.23Y-95.365
X176.894Y-112.426
X176.93Y-103.665
X177.016Y-94.534
X177.2Y-144.2
X177.249Y-120.676
X177.3Y-91.75
X177.546Y-110.666
X177.6Y-131.215
X177.666Y-104.101
X177.7Y-89.5
X177.742Y-93.03
X177.848Y-121.038
X178.03Y-135.565
X178.2Y-144.2
X178.33Y-130.715
X178.48Y-98.015
X178.556Y-92.918
X178.592Y-103.187
X178.83Y-121.977
X178.93Y-102.015
X179.063Y-95.698
X179.2Y-144.2
X179.23Y-98.365
X179.28Y-100.415
X179.292Y-129.412
X179.53Y-94.965
X179.83Y-99.615
X180.061Y-120.396
X180.08Y-100.815
X180.18Y-125.115
X180.2Y-144.2
X180.366Y-94.979
X180.73Y-101.365
X181.017Y-109.1
X181.18Y-95.015
X181.2Y-144.2
X181.242Y-127.237
X181.433Y-99.873
X181.592Y-113.512
X181.717Y-107.362
X182.2Y-144.2
X182.38Y-100.865
X182.416Y-94.901
X182.842Y-107.362
X183.2Y-144.2
X183.217Y-100.829
X183.23Y-94.865
X183.542Y-105.812
X183.55Y-126.3
X183.766Y-99.927
X183.83Y-92.915
X183.83Y-95.465
X183.831Y-96.315
X184.2Y-144.2
T3
X110.4Y-95.45
X121.9Y-110.25
X123.8Y-105.0
X126.7Y-105.0
T4
X114.5Y-88.45
X115.75Y-88.45
X117.0Y-88.45
T5
X161.5Y-136.98
X161.5Y-138.25
X161.5Y-139.52
X161.5Y-140.79
T6
X107.096Y-105.0
X107.096Y-107.5
X107.096Y-110.0
X107.096Y-112.5
X107.096Y-115.0
X107.096Y-117.5
X107.096Y-120.0
X107.096Y-122.5
X107.096Y-125.0
X110.096Y-105.0
X110.096Y-107.5
X110.096Y-110.0
X110.096Y-112.5
X110.096Y-115.0
X110.096Y-117.5
X110.096Y-120.0
X110.096Y-122.5
X110.096Y-125.0
T7
X147.25Y-116.0
T8
X105.0Y-90.0
X105.0Y-140.0
X181.0Y-90.0
X181.0Y-140.0
T9
X142.525Y-137.25
X145.875Y-137.25
T10
X105.596Y-99.5
X105.596Y-130.5
T0
M30
