%TF.GenerationSoftware,KiCad,Pcbnew,(6.0.2-0)*%
%TF.CreationDate,2023-02-02T10:49:58+01:00*%
%TF.ProjectId,roam,726f616d-2e6b-4696-9361-645f70636258,rev?*%
%TF.SameCoordinates,Original*%
%TF.FileFunction,Legend,Bot*%
%TF.FilePolarity,Positive*%
%FSLAX46Y46*%
G04 Gerber Fmt 4.6, Leading zero omitted, Abs format (unit mm)*
G04 Created by KiCad (PCBNEW (6.0.2-0)) date 2023-02-02 10:49:58*
%MOMM*%
%LPD*%
G01*
G04 APERTURE LIST*
%ADD10C,0.200000*%
%ADD11C,0.254000*%
%ADD12C,0.150000*%
%ADD13C,0.120000*%
%ADD14C,0.203200*%
%ADD15C,0.066040*%
%ADD16C,0.100000*%
%ADD17C,0.650000*%
G04 APERTURE END LIST*
D10*
X191607142Y-102350000D02*
X190892857Y-102350000D01*
X191750000Y-102778571D02*
X191250000Y-101278571D01*
X190750000Y-102778571D01*
X190250000Y-101278571D02*
X190250000Y-102492857D01*
X190178571Y-102635714D01*
X190107142Y-102707142D01*
X189964285Y-102778571D01*
X189678571Y-102778571D01*
X189535714Y-102707142D01*
X189464285Y-102635714D01*
X189392857Y-102492857D01*
X189392857Y-101278571D01*
X188821428Y-101278571D02*
X187821428Y-102778571D01*
X187821428Y-101278571D02*
X188821428Y-102778571D01*
X113691904Y-124592619D02*
X113120476Y-124592619D01*
X113406190Y-124592619D02*
X113406190Y-125592619D01*
X113310952Y-125449761D01*
X113215714Y-125354523D01*
X113120476Y-125306904D01*
X114310952Y-125592619D02*
X114406190Y-125592619D01*
X114501428Y-125545000D01*
X114549047Y-125497380D01*
X114596666Y-125402142D01*
X114644285Y-125211666D01*
X114644285Y-124973571D01*
X114596666Y-124783095D01*
X114549047Y-124687857D01*
X114501428Y-124640238D01*
X114406190Y-124592619D01*
X114310952Y-124592619D01*
X114215714Y-124640238D01*
X114168095Y-124687857D01*
X114120476Y-124783095D01*
X114072857Y-124973571D01*
X114072857Y-125211666D01*
X114120476Y-125402142D01*
X114168095Y-125497380D01*
X114215714Y-125545000D01*
X114310952Y-125592619D01*
X115787142Y-124640238D02*
X115930000Y-124592619D01*
X116168095Y-124592619D01*
X116263333Y-124640238D01*
X116310952Y-124687857D01*
X116358571Y-124783095D01*
X116358571Y-124878333D01*
X116310952Y-124973571D01*
X116263333Y-125021190D01*
X116168095Y-125068809D01*
X115977619Y-125116428D01*
X115882380Y-125164047D01*
X115834761Y-125211666D01*
X115787142Y-125306904D01*
X115787142Y-125402142D01*
X115834761Y-125497380D01*
X115882380Y-125545000D01*
X115977619Y-125592619D01*
X116215714Y-125592619D01*
X116358571Y-125545000D01*
X116691904Y-125592619D02*
X116930000Y-124592619D01*
X117120476Y-125306904D01*
X117310952Y-124592619D01*
X117549047Y-125592619D01*
X117930000Y-124592619D02*
X117930000Y-125592619D01*
X118168095Y-125592619D01*
X118310952Y-125545000D01*
X118406190Y-125449761D01*
X118453809Y-125354523D01*
X118501428Y-125164047D01*
X118501428Y-125021190D01*
X118453809Y-124830714D01*
X118406190Y-124735476D01*
X118310952Y-124640238D01*
X118168095Y-124592619D01*
X117930000Y-124592619D01*
X118930000Y-124592619D02*
X118930000Y-125592619D01*
X119596666Y-125592619D02*
X119787142Y-125592619D01*
X119882380Y-125545000D01*
X119977619Y-125449761D01*
X120025238Y-125259285D01*
X120025238Y-124925952D01*
X119977619Y-124735476D01*
X119882380Y-124640238D01*
X119787142Y-124592619D01*
X119596666Y-124592619D01*
X119501428Y-124640238D01*
X119406190Y-124735476D01*
X119358571Y-124925952D01*
X119358571Y-125259285D01*
X119406190Y-125449761D01*
X119501428Y-125545000D01*
X119596666Y-125592619D01*
X113691904Y-122982619D02*
X113120476Y-122982619D01*
X113406190Y-122982619D02*
X113406190Y-123982619D01*
X113310952Y-123839761D01*
X113215714Y-123744523D01*
X113120476Y-123696904D01*
X114644285Y-122982619D02*
X114072857Y-122982619D01*
X114358571Y-122982619D02*
X114358571Y-123982619D01*
X114263333Y-123839761D01*
X114168095Y-123744523D01*
X114072857Y-123696904D01*
X115787142Y-123030238D02*
X115930000Y-122982619D01*
X116168095Y-122982619D01*
X116263333Y-123030238D01*
X116310952Y-123077857D01*
X116358571Y-123173095D01*
X116358571Y-123268333D01*
X116310952Y-123363571D01*
X116263333Y-123411190D01*
X116168095Y-123458809D01*
X115977619Y-123506428D01*
X115882380Y-123554047D01*
X115834761Y-123601666D01*
X115787142Y-123696904D01*
X115787142Y-123792142D01*
X115834761Y-123887380D01*
X115882380Y-123935000D01*
X115977619Y-123982619D01*
X116215714Y-123982619D01*
X116358571Y-123935000D01*
X116691904Y-123982619D02*
X116930000Y-122982619D01*
X117120476Y-123696904D01*
X117310952Y-122982619D01*
X117549047Y-123982619D01*
X118501428Y-123077857D02*
X118453809Y-123030238D01*
X118310952Y-122982619D01*
X118215714Y-122982619D01*
X118072857Y-123030238D01*
X117977619Y-123125476D01*
X117930000Y-123220714D01*
X117882380Y-123411190D01*
X117882380Y-123554047D01*
X117930000Y-123744523D01*
X117977619Y-123839761D01*
X118072857Y-123935000D01*
X118215714Y-123982619D01*
X118310952Y-123982619D01*
X118453809Y-123935000D01*
X118501428Y-123887380D01*
X119406190Y-122982619D02*
X118930000Y-122982619D01*
X118930000Y-123982619D01*
X119739523Y-122982619D02*
X119739523Y-123982619D01*
X120310952Y-122982619D02*
X119882380Y-123554047D01*
X120310952Y-123982619D02*
X119739523Y-123411190D01*
X113691904Y-121372619D02*
X113120476Y-121372619D01*
X113406190Y-121372619D02*
X113406190Y-122372619D01*
X113310952Y-122229761D01*
X113215714Y-122134523D01*
X113120476Y-122086904D01*
X114072857Y-122277380D02*
X114120476Y-122325000D01*
X114215714Y-122372619D01*
X114453809Y-122372619D01*
X114549047Y-122325000D01*
X114596666Y-122277380D01*
X114644285Y-122182142D01*
X114644285Y-122086904D01*
X114596666Y-121944047D01*
X114025238Y-121372619D01*
X114644285Y-121372619D01*
X113691904Y-119762619D02*
X113120476Y-119762619D01*
X113406190Y-119762619D02*
X113406190Y-120762619D01*
X113310952Y-120619761D01*
X113215714Y-120524523D01*
X113120476Y-120476904D01*
X114025238Y-120762619D02*
X114644285Y-120762619D01*
X114310952Y-120381666D01*
X114453809Y-120381666D01*
X114549047Y-120334047D01*
X114596666Y-120286428D01*
X114644285Y-120191190D01*
X114644285Y-119953095D01*
X114596666Y-119857857D01*
X114549047Y-119810238D01*
X114453809Y-119762619D01*
X114168095Y-119762619D01*
X114072857Y-119810238D01*
X114025238Y-119857857D01*
X113691904Y-118152619D02*
X113120476Y-118152619D01*
X113406190Y-118152619D02*
X113406190Y-119152619D01*
X113310952Y-119009761D01*
X113215714Y-118914523D01*
X113120476Y-118866904D01*
X114549047Y-118819285D02*
X114549047Y-118152619D01*
X114310952Y-119200238D02*
X114072857Y-118485952D01*
X114691904Y-118485952D01*
X113691904Y-116542619D02*
X113120476Y-116542619D01*
X113406190Y-116542619D02*
X113406190Y-117542619D01*
X113310952Y-117399761D01*
X113215714Y-117304523D01*
X113120476Y-117256904D01*
X114596666Y-117542619D02*
X114120476Y-117542619D01*
X114072857Y-117066428D01*
X114120476Y-117114047D01*
X114215714Y-117161666D01*
X114453809Y-117161666D01*
X114549047Y-117114047D01*
X114596666Y-117066428D01*
X114644285Y-116971190D01*
X114644285Y-116733095D01*
X114596666Y-116637857D01*
X114549047Y-116590238D01*
X114453809Y-116542619D01*
X114215714Y-116542619D01*
X114120476Y-116590238D01*
X114072857Y-116637857D01*
X113691904Y-114932619D02*
X113120476Y-114932619D01*
X113406190Y-114932619D02*
X113406190Y-115932619D01*
X113310952Y-115789761D01*
X113215714Y-115694523D01*
X113120476Y-115646904D01*
X114549047Y-115932619D02*
X114358571Y-115932619D01*
X114263333Y-115885000D01*
X114215714Y-115837380D01*
X114120476Y-115694523D01*
X114072857Y-115504047D01*
X114072857Y-115123095D01*
X114120476Y-115027857D01*
X114168095Y-114980238D01*
X114263333Y-114932619D01*
X114453809Y-114932619D01*
X114549047Y-114980238D01*
X114596666Y-115027857D01*
X114644285Y-115123095D01*
X114644285Y-115361190D01*
X114596666Y-115456428D01*
X114549047Y-115504047D01*
X114453809Y-115551666D01*
X114263333Y-115551666D01*
X114168095Y-115504047D01*
X114120476Y-115456428D01*
X114072857Y-115361190D01*
X113691904Y-113322619D02*
X113120476Y-113322619D01*
X113406190Y-113322619D02*
X113406190Y-114322619D01*
X113310952Y-114179761D01*
X113215714Y-114084523D01*
X113120476Y-114036904D01*
X114025238Y-114322619D02*
X114691904Y-114322619D01*
X114263333Y-113322619D01*
X113691904Y-111712619D02*
X113120476Y-111712619D01*
X113406190Y-111712619D02*
X113406190Y-112712619D01*
X113310952Y-112569761D01*
X113215714Y-112474523D01*
X113120476Y-112426904D01*
X114263333Y-112284047D02*
X114168095Y-112331666D01*
X114120476Y-112379285D01*
X114072857Y-112474523D01*
X114072857Y-112522142D01*
X114120476Y-112617380D01*
X114168095Y-112665000D01*
X114263333Y-112712619D01*
X114453809Y-112712619D01*
X114549047Y-112665000D01*
X114596666Y-112617380D01*
X114644285Y-112522142D01*
X114644285Y-112474523D01*
X114596666Y-112379285D01*
X114549047Y-112331666D01*
X114453809Y-112284047D01*
X114263333Y-112284047D01*
X114168095Y-112236428D01*
X114120476Y-112188809D01*
X114072857Y-112093571D01*
X114072857Y-111903095D01*
X114120476Y-111807857D01*
X114168095Y-111760238D01*
X114263333Y-111712619D01*
X114453809Y-111712619D01*
X114549047Y-111760238D01*
X114596666Y-111807857D01*
X114644285Y-111903095D01*
X114644285Y-112093571D01*
X114596666Y-112188809D01*
X114549047Y-112236428D01*
X114453809Y-112284047D01*
X116358571Y-112665000D02*
X116263333Y-112712619D01*
X116120476Y-112712619D01*
X115977619Y-112665000D01*
X115882380Y-112569761D01*
X115834761Y-112474523D01*
X115787142Y-112284047D01*
X115787142Y-112141190D01*
X115834761Y-111950714D01*
X115882380Y-111855476D01*
X115977619Y-111760238D01*
X116120476Y-111712619D01*
X116215714Y-111712619D01*
X116358571Y-111760238D01*
X116406190Y-111807857D01*
X116406190Y-112141190D01*
X116215714Y-112141190D01*
X116834761Y-111712619D02*
X116834761Y-112712619D01*
X117406190Y-111712619D01*
X117406190Y-112712619D01*
X117882380Y-111712619D02*
X117882380Y-112712619D01*
X118120476Y-112712619D01*
X118263333Y-112665000D01*
X118358571Y-112569761D01*
X118406190Y-112474523D01*
X118453809Y-112284047D01*
X118453809Y-112141190D01*
X118406190Y-111950714D01*
X118358571Y-111855476D01*
X118263333Y-111760238D01*
X118120476Y-111712619D01*
X117882380Y-111712619D01*
X184871428Y-102853571D02*
X184871428Y-101353571D01*
X184014285Y-102853571D01*
X184014285Y-101353571D01*
X182442857Y-102853571D02*
X182942857Y-102139285D01*
X183300000Y-102853571D02*
X183300000Y-101353571D01*
X182728571Y-101353571D01*
X182585714Y-101425000D01*
X182514285Y-101496428D01*
X182442857Y-101639285D01*
X182442857Y-101853571D01*
X182514285Y-101996428D01*
X182585714Y-102067857D01*
X182728571Y-102139285D01*
X183300000Y-102139285D01*
X181300000Y-102067857D02*
X181800000Y-102067857D01*
X181800000Y-102853571D02*
X181800000Y-101353571D01*
X181085714Y-101353571D01*
X161502380Y-86907142D02*
X161550000Y-86954761D01*
X161692857Y-87002380D01*
X161788095Y-87002380D01*
X161930952Y-86954761D01*
X162026190Y-86859523D01*
X162073809Y-86764285D01*
X162121428Y-86573809D01*
X162121428Y-86430952D01*
X162073809Y-86240476D01*
X162026190Y-86145238D01*
X161930952Y-86050000D01*
X161788095Y-86002380D01*
X161692857Y-86002380D01*
X161550000Y-86050000D01*
X161502380Y-86097619D01*
X161073809Y-86478571D02*
X160740476Y-86478571D01*
X160597619Y-87002380D02*
X161073809Y-87002380D01*
X161073809Y-86002380D01*
X160597619Y-86002380D01*
X159692857Y-87002380D02*
X160169047Y-87002380D01*
X160169047Y-86002380D01*
X158883333Y-87002380D02*
X159359523Y-87002380D01*
X159359523Y-86002380D01*
X178292857Y-102735714D02*
X178364285Y-102807142D01*
X178578571Y-102878571D01*
X178721428Y-102878571D01*
X178935714Y-102807142D01*
X179078571Y-102664285D01*
X179150000Y-102521428D01*
X179221428Y-102235714D01*
X179221428Y-102021428D01*
X179150000Y-101735714D01*
X179078571Y-101592857D01*
X178935714Y-101450000D01*
X178721428Y-101378571D01*
X178578571Y-101378571D01*
X178364285Y-101450000D01*
X178292857Y-101521428D01*
X177364285Y-101378571D02*
X177078571Y-101378571D01*
X176935714Y-101450000D01*
X176792857Y-101592857D01*
X176721428Y-101878571D01*
X176721428Y-102378571D01*
X176792857Y-102664285D01*
X176935714Y-102807142D01*
X177078571Y-102878571D01*
X177364285Y-102878571D01*
X177507142Y-102807142D01*
X177650000Y-102664285D01*
X177721428Y-102378571D01*
X177721428Y-101878571D01*
X177650000Y-101592857D01*
X177507142Y-101450000D01*
X177364285Y-101378571D01*
X176078571Y-102878571D02*
X176078571Y-101378571D01*
X175221428Y-102878571D01*
X175221428Y-101378571D01*
X174507142Y-102878571D02*
X174507142Y-101378571D01*
X173650000Y-102878571D01*
X173650000Y-101378571D01*
X122091904Y-124592619D02*
X121520476Y-124592619D01*
X121806190Y-124592619D02*
X121806190Y-125592619D01*
X121710952Y-125449761D01*
X121615714Y-125354523D01*
X121520476Y-125306904D01*
X123139523Y-125592619D02*
X123472857Y-124592619D01*
X123806190Y-125592619D01*
X124139523Y-124592619D02*
X124139523Y-125592619D01*
X124615714Y-124592619D02*
X124615714Y-125592619D01*
X125187142Y-124592619D01*
X125187142Y-125592619D01*
X121520476Y-123887380D02*
X121568095Y-123935000D01*
X121663333Y-123982619D01*
X121901428Y-123982619D01*
X121996666Y-123935000D01*
X122044285Y-123887380D01*
X122091904Y-123792142D01*
X122091904Y-123696904D01*
X122044285Y-123554047D01*
X121472857Y-122982619D01*
X122091904Y-122982619D01*
X123853809Y-123077857D02*
X123806190Y-123030238D01*
X123663333Y-122982619D01*
X123568095Y-122982619D01*
X123425238Y-123030238D01*
X123330000Y-123125476D01*
X123282380Y-123220714D01*
X123234761Y-123411190D01*
X123234761Y-123554047D01*
X123282380Y-123744523D01*
X123330000Y-123839761D01*
X123425238Y-123935000D01*
X123568095Y-123982619D01*
X123663333Y-123982619D01*
X123806190Y-123935000D01*
X123853809Y-123887380D01*
X124234761Y-123268333D02*
X124710952Y-123268333D01*
X124139523Y-122982619D02*
X124472857Y-123982619D01*
X124806190Y-122982619D01*
X125139523Y-122982619D02*
X125139523Y-123982619D01*
X125710952Y-122982619D01*
X125710952Y-123982619D01*
X125949047Y-122887380D02*
X126710952Y-122887380D01*
X126901428Y-123887380D02*
X126949047Y-123935000D01*
X127044285Y-123982619D01*
X127282380Y-123982619D01*
X127377619Y-123935000D01*
X127425238Y-123887380D01*
X127472857Y-123792142D01*
X127472857Y-123696904D01*
X127425238Y-123554047D01*
X126853809Y-122982619D01*
X127472857Y-122982619D01*
X128377619Y-123982619D02*
X127901428Y-123982619D01*
X127853809Y-123506428D01*
X127901428Y-123554047D01*
X127996666Y-123601666D01*
X128234761Y-123601666D01*
X128330000Y-123554047D01*
X128377619Y-123506428D01*
X128425238Y-123411190D01*
X128425238Y-123173095D01*
X128377619Y-123077857D01*
X128330000Y-123030238D01*
X128234761Y-122982619D01*
X127996666Y-122982619D01*
X127901428Y-123030238D01*
X127853809Y-123077857D01*
X129044285Y-123982619D02*
X129139523Y-123982619D01*
X129234761Y-123935000D01*
X129282380Y-123887380D01*
X129330000Y-123792142D01*
X129377619Y-123601666D01*
X129377619Y-123363571D01*
X129330000Y-123173095D01*
X129282380Y-123077857D01*
X129234761Y-123030238D01*
X129139523Y-122982619D01*
X129044285Y-122982619D01*
X128949047Y-123030238D01*
X128901428Y-123077857D01*
X128853809Y-123173095D01*
X128806190Y-123363571D01*
X128806190Y-123601666D01*
X128853809Y-123792142D01*
X128901428Y-123887380D01*
X128949047Y-123935000D01*
X129044285Y-123982619D01*
X129568095Y-122887380D02*
X130330000Y-122887380D01*
X130568095Y-122982619D02*
X130568095Y-123982619D01*
X130568095Y-123506428D02*
X131139523Y-123506428D01*
X131139523Y-122982619D02*
X131139523Y-123982619D01*
X121472857Y-122372619D02*
X122091904Y-122372619D01*
X121758571Y-121991666D01*
X121901428Y-121991666D01*
X121996666Y-121944047D01*
X122044285Y-121896428D01*
X122091904Y-121801190D01*
X122091904Y-121563095D01*
X122044285Y-121467857D01*
X121996666Y-121420238D01*
X121901428Y-121372619D01*
X121615714Y-121372619D01*
X121520476Y-121420238D01*
X121472857Y-121467857D01*
X123853809Y-121467857D02*
X123806190Y-121420238D01*
X123663333Y-121372619D01*
X123568095Y-121372619D01*
X123425238Y-121420238D01*
X123330000Y-121515476D01*
X123282380Y-121610714D01*
X123234761Y-121801190D01*
X123234761Y-121944047D01*
X123282380Y-122134523D01*
X123330000Y-122229761D01*
X123425238Y-122325000D01*
X123568095Y-122372619D01*
X123663333Y-122372619D01*
X123806190Y-122325000D01*
X123853809Y-122277380D01*
X124234761Y-121658333D02*
X124710952Y-121658333D01*
X124139523Y-121372619D02*
X124472857Y-122372619D01*
X124806190Y-121372619D01*
X125139523Y-121372619D02*
X125139523Y-122372619D01*
X125710952Y-121372619D01*
X125710952Y-122372619D01*
X125949047Y-121277380D02*
X126710952Y-121277380D01*
X126901428Y-122277380D02*
X126949047Y-122325000D01*
X127044285Y-122372619D01*
X127282380Y-122372619D01*
X127377619Y-122325000D01*
X127425238Y-122277380D01*
X127472857Y-122182142D01*
X127472857Y-122086904D01*
X127425238Y-121944047D01*
X126853809Y-121372619D01*
X127472857Y-121372619D01*
X128377619Y-122372619D02*
X127901428Y-122372619D01*
X127853809Y-121896428D01*
X127901428Y-121944047D01*
X127996666Y-121991666D01*
X128234761Y-121991666D01*
X128330000Y-121944047D01*
X128377619Y-121896428D01*
X128425238Y-121801190D01*
X128425238Y-121563095D01*
X128377619Y-121467857D01*
X128330000Y-121420238D01*
X128234761Y-121372619D01*
X127996666Y-121372619D01*
X127901428Y-121420238D01*
X127853809Y-121467857D01*
X129044285Y-122372619D02*
X129139523Y-122372619D01*
X129234761Y-122325000D01*
X129282380Y-122277380D01*
X129330000Y-122182142D01*
X129377619Y-121991666D01*
X129377619Y-121753571D01*
X129330000Y-121563095D01*
X129282380Y-121467857D01*
X129234761Y-121420238D01*
X129139523Y-121372619D01*
X129044285Y-121372619D01*
X128949047Y-121420238D01*
X128901428Y-121467857D01*
X128853809Y-121563095D01*
X128806190Y-121753571D01*
X128806190Y-121991666D01*
X128853809Y-122182142D01*
X128901428Y-122277380D01*
X128949047Y-122325000D01*
X129044285Y-122372619D01*
X129568095Y-121277380D02*
X130330000Y-121277380D01*
X131044285Y-121372619D02*
X130568095Y-121372619D01*
X130568095Y-122372619D01*
X121996666Y-120429285D02*
X121996666Y-119762619D01*
X121758571Y-120810238D02*
X121520476Y-120095952D01*
X122139523Y-120095952D01*
X123853809Y-119857857D02*
X123806190Y-119810238D01*
X123663333Y-119762619D01*
X123568095Y-119762619D01*
X123425238Y-119810238D01*
X123330000Y-119905476D01*
X123282380Y-120000714D01*
X123234761Y-120191190D01*
X123234761Y-120334047D01*
X123282380Y-120524523D01*
X123330000Y-120619761D01*
X123425238Y-120715000D01*
X123568095Y-120762619D01*
X123663333Y-120762619D01*
X123806190Y-120715000D01*
X123853809Y-120667380D01*
X124234761Y-120048333D02*
X124710952Y-120048333D01*
X124139523Y-119762619D02*
X124472857Y-120762619D01*
X124806190Y-119762619D01*
X125139523Y-119762619D02*
X125139523Y-120762619D01*
X125710952Y-119762619D01*
X125710952Y-120762619D01*
X125949047Y-119667380D02*
X126710952Y-119667380D01*
X127425238Y-120762619D02*
X126949047Y-120762619D01*
X126901428Y-120286428D01*
X126949047Y-120334047D01*
X127044285Y-120381666D01*
X127282380Y-120381666D01*
X127377619Y-120334047D01*
X127425238Y-120286428D01*
X127472857Y-120191190D01*
X127472857Y-119953095D01*
X127425238Y-119857857D01*
X127377619Y-119810238D01*
X127282380Y-119762619D01*
X127044285Y-119762619D01*
X126949047Y-119810238D01*
X126901428Y-119857857D01*
X128091904Y-120762619D02*
X128187142Y-120762619D01*
X128282380Y-120715000D01*
X128330000Y-120667380D01*
X128377619Y-120572142D01*
X128425238Y-120381666D01*
X128425238Y-120143571D01*
X128377619Y-119953095D01*
X128330000Y-119857857D01*
X128282380Y-119810238D01*
X128187142Y-119762619D01*
X128091904Y-119762619D01*
X127996666Y-119810238D01*
X127949047Y-119857857D01*
X127901428Y-119953095D01*
X127853809Y-120143571D01*
X127853809Y-120381666D01*
X127901428Y-120572142D01*
X127949047Y-120667380D01*
X127996666Y-120715000D01*
X128091904Y-120762619D01*
X129044285Y-120762619D02*
X129139523Y-120762619D01*
X129234761Y-120715000D01*
X129282380Y-120667380D01*
X129330000Y-120572142D01*
X129377619Y-120381666D01*
X129377619Y-120143571D01*
X129330000Y-119953095D01*
X129282380Y-119857857D01*
X129234761Y-119810238D01*
X129139523Y-119762619D01*
X129044285Y-119762619D01*
X128949047Y-119810238D01*
X128901428Y-119857857D01*
X128853809Y-119953095D01*
X128806190Y-120143571D01*
X128806190Y-120381666D01*
X128853809Y-120572142D01*
X128901428Y-120667380D01*
X128949047Y-120715000D01*
X129044285Y-120762619D01*
X129568095Y-119667380D02*
X130330000Y-119667380D01*
X130568095Y-119762619D02*
X130568095Y-120762619D01*
X130568095Y-120286428D02*
X131139523Y-120286428D01*
X131139523Y-119762619D02*
X131139523Y-120762619D01*
X122044285Y-119152619D02*
X121568095Y-119152619D01*
X121520476Y-118676428D01*
X121568095Y-118724047D01*
X121663333Y-118771666D01*
X121901428Y-118771666D01*
X121996666Y-118724047D01*
X122044285Y-118676428D01*
X122091904Y-118581190D01*
X122091904Y-118343095D01*
X122044285Y-118247857D01*
X121996666Y-118200238D01*
X121901428Y-118152619D01*
X121663333Y-118152619D01*
X121568095Y-118200238D01*
X121520476Y-118247857D01*
X123853809Y-118247857D02*
X123806190Y-118200238D01*
X123663333Y-118152619D01*
X123568095Y-118152619D01*
X123425238Y-118200238D01*
X123330000Y-118295476D01*
X123282380Y-118390714D01*
X123234761Y-118581190D01*
X123234761Y-118724047D01*
X123282380Y-118914523D01*
X123330000Y-119009761D01*
X123425238Y-119105000D01*
X123568095Y-119152619D01*
X123663333Y-119152619D01*
X123806190Y-119105000D01*
X123853809Y-119057380D01*
X124234761Y-118438333D02*
X124710952Y-118438333D01*
X124139523Y-118152619D02*
X124472857Y-119152619D01*
X124806190Y-118152619D01*
X125139523Y-118152619D02*
X125139523Y-119152619D01*
X125710952Y-118152619D01*
X125710952Y-119152619D01*
X125949047Y-118057380D02*
X126710952Y-118057380D01*
X127425238Y-119152619D02*
X126949047Y-119152619D01*
X126901428Y-118676428D01*
X126949047Y-118724047D01*
X127044285Y-118771666D01*
X127282380Y-118771666D01*
X127377619Y-118724047D01*
X127425238Y-118676428D01*
X127472857Y-118581190D01*
X127472857Y-118343095D01*
X127425238Y-118247857D01*
X127377619Y-118200238D01*
X127282380Y-118152619D01*
X127044285Y-118152619D01*
X126949047Y-118200238D01*
X126901428Y-118247857D01*
X128091904Y-119152619D02*
X128187142Y-119152619D01*
X128282380Y-119105000D01*
X128330000Y-119057380D01*
X128377619Y-118962142D01*
X128425238Y-118771666D01*
X128425238Y-118533571D01*
X128377619Y-118343095D01*
X128330000Y-118247857D01*
X128282380Y-118200238D01*
X128187142Y-118152619D01*
X128091904Y-118152619D01*
X127996666Y-118200238D01*
X127949047Y-118247857D01*
X127901428Y-118343095D01*
X127853809Y-118533571D01*
X127853809Y-118771666D01*
X127901428Y-118962142D01*
X127949047Y-119057380D01*
X127996666Y-119105000D01*
X128091904Y-119152619D01*
X129044285Y-119152619D02*
X129139523Y-119152619D01*
X129234761Y-119105000D01*
X129282380Y-119057380D01*
X129330000Y-118962142D01*
X129377619Y-118771666D01*
X129377619Y-118533571D01*
X129330000Y-118343095D01*
X129282380Y-118247857D01*
X129234761Y-118200238D01*
X129139523Y-118152619D01*
X129044285Y-118152619D01*
X128949047Y-118200238D01*
X128901428Y-118247857D01*
X128853809Y-118343095D01*
X128806190Y-118533571D01*
X128806190Y-118771666D01*
X128853809Y-118962142D01*
X128901428Y-119057380D01*
X128949047Y-119105000D01*
X129044285Y-119152619D01*
X129568095Y-118057380D02*
X130330000Y-118057380D01*
X131044285Y-118152619D02*
X130568095Y-118152619D01*
X130568095Y-119152619D01*
X121996666Y-117542619D02*
X121806190Y-117542619D01*
X121710952Y-117495000D01*
X121663333Y-117447380D01*
X121568095Y-117304523D01*
X121520476Y-117114047D01*
X121520476Y-116733095D01*
X121568095Y-116637857D01*
X121615714Y-116590238D01*
X121710952Y-116542619D01*
X121901428Y-116542619D01*
X121996666Y-116590238D01*
X122044285Y-116637857D01*
X122091904Y-116733095D01*
X122091904Y-116971190D01*
X122044285Y-117066428D01*
X121996666Y-117114047D01*
X121901428Y-117161666D01*
X121710952Y-117161666D01*
X121615714Y-117114047D01*
X121568095Y-117066428D01*
X121520476Y-116971190D01*
X123282380Y-116542619D02*
X123282380Y-117542619D01*
X124282380Y-117495000D02*
X124187142Y-117542619D01*
X124044285Y-117542619D01*
X123901428Y-117495000D01*
X123806190Y-117399761D01*
X123758571Y-117304523D01*
X123710952Y-117114047D01*
X123710952Y-116971190D01*
X123758571Y-116780714D01*
X123806190Y-116685476D01*
X123901428Y-116590238D01*
X124044285Y-116542619D01*
X124139523Y-116542619D01*
X124282380Y-116590238D01*
X124330000Y-116637857D01*
X124330000Y-116971190D01*
X124139523Y-116971190D01*
X124758571Y-116542619D02*
X124758571Y-117542619D01*
X125330000Y-116542619D01*
X125330000Y-117542619D01*
X125568095Y-116447380D02*
X126330000Y-116447380D01*
X126568095Y-116542619D02*
X126568095Y-117542619D01*
X127044285Y-116542619D02*
X127044285Y-117542619D01*
X127615714Y-116542619D01*
X127615714Y-117542619D01*
X127853809Y-116447380D02*
X128615714Y-116447380D01*
X129377619Y-116542619D02*
X128806190Y-116542619D01*
X129091904Y-116542619D02*
X129091904Y-117542619D01*
X128996666Y-117399761D01*
X128901428Y-117304523D01*
X128806190Y-117256904D01*
X129758571Y-117447380D02*
X129806190Y-117495000D01*
X129901428Y-117542619D01*
X130139523Y-117542619D01*
X130234761Y-117495000D01*
X130282380Y-117447380D01*
X130330000Y-117352142D01*
X130330000Y-117256904D01*
X130282380Y-117114047D01*
X129710952Y-116542619D01*
X130330000Y-116542619D01*
X130615714Y-117542619D02*
X130949047Y-116542619D01*
X131282380Y-117542619D01*
X121472857Y-115932619D02*
X122139523Y-115932619D01*
X121710952Y-114932619D01*
X123615714Y-115456428D02*
X123758571Y-115408809D01*
X123806190Y-115361190D01*
X123853809Y-115265952D01*
X123853809Y-115123095D01*
X123806190Y-115027857D01*
X123758571Y-114980238D01*
X123663333Y-114932619D01*
X123282380Y-114932619D01*
X123282380Y-115932619D01*
X123615714Y-115932619D01*
X123710952Y-115885000D01*
X123758571Y-115837380D01*
X123806190Y-115742142D01*
X123806190Y-115646904D01*
X123758571Y-115551666D01*
X123710952Y-115504047D01*
X123615714Y-115456428D01*
X123282380Y-115456428D01*
X124234761Y-115218333D02*
X124710952Y-115218333D01*
X124139523Y-114932619D02*
X124472857Y-115932619D01*
X124806190Y-114932619D01*
X124996666Y-115932619D02*
X125568095Y-115932619D01*
X125282380Y-114932619D02*
X125282380Y-115932619D01*
X125663333Y-114837380D02*
X126425238Y-114837380D01*
X126615714Y-114980238D02*
X126758571Y-114932619D01*
X126996666Y-114932619D01*
X127091904Y-114980238D01*
X127139523Y-115027857D01*
X127187142Y-115123095D01*
X127187142Y-115218333D01*
X127139523Y-115313571D01*
X127091904Y-115361190D01*
X126996666Y-115408809D01*
X126806190Y-115456428D01*
X126710952Y-115504047D01*
X126663333Y-115551666D01*
X126615714Y-115646904D01*
X126615714Y-115742142D01*
X126663333Y-115837380D01*
X126710952Y-115885000D01*
X126806190Y-115932619D01*
X127044285Y-115932619D01*
X127187142Y-115885000D01*
X127615714Y-115456428D02*
X127949047Y-115456428D01*
X128091904Y-114932619D02*
X127615714Y-114932619D01*
X127615714Y-115932619D01*
X128091904Y-115932619D01*
X128520476Y-114932619D02*
X128520476Y-115932619D01*
X129091904Y-114932619D01*
X129091904Y-115932619D01*
X129520476Y-114980238D02*
X129663333Y-114932619D01*
X129901428Y-114932619D01*
X129996666Y-114980238D01*
X130044285Y-115027857D01*
X130091904Y-115123095D01*
X130091904Y-115218333D01*
X130044285Y-115313571D01*
X129996666Y-115361190D01*
X129901428Y-115408809D01*
X129710952Y-115456428D01*
X129615714Y-115504047D01*
X129568095Y-115551666D01*
X129520476Y-115646904D01*
X129520476Y-115742142D01*
X129568095Y-115837380D01*
X129615714Y-115885000D01*
X129710952Y-115932619D01*
X129949047Y-115932619D01*
X130091904Y-115885000D01*
X130282380Y-114837380D02*
X131044285Y-114837380D01*
X131187142Y-115932619D02*
X131806190Y-115932619D01*
X131472857Y-115551666D01*
X131615714Y-115551666D01*
X131710952Y-115504047D01*
X131758571Y-115456428D01*
X131806190Y-115361190D01*
X131806190Y-115123095D01*
X131758571Y-115027857D01*
X131710952Y-114980238D01*
X131615714Y-114932619D01*
X131330000Y-114932619D01*
X131234761Y-114980238D01*
X131187142Y-115027857D01*
X132091904Y-115932619D02*
X132425238Y-114932619D01*
X132758571Y-115932619D01*
X132996666Y-115932619D02*
X133615714Y-115932619D01*
X133282380Y-115551666D01*
X133425238Y-115551666D01*
X133520476Y-115504047D01*
X133568095Y-115456428D01*
X133615714Y-115361190D01*
X133615714Y-115123095D01*
X133568095Y-115027857D01*
X133520476Y-114980238D01*
X133425238Y-114932619D01*
X133139523Y-114932619D01*
X133044285Y-114980238D01*
X132996666Y-115027857D01*
X121710952Y-113894047D02*
X121615714Y-113941666D01*
X121568095Y-113989285D01*
X121520476Y-114084523D01*
X121520476Y-114132142D01*
X121568095Y-114227380D01*
X121615714Y-114275000D01*
X121710952Y-114322619D01*
X121901428Y-114322619D01*
X121996666Y-114275000D01*
X122044285Y-114227380D01*
X122091904Y-114132142D01*
X122091904Y-114084523D01*
X122044285Y-113989285D01*
X121996666Y-113941666D01*
X121901428Y-113894047D01*
X121710952Y-113894047D01*
X121615714Y-113846428D01*
X121568095Y-113798809D01*
X121520476Y-113703571D01*
X121520476Y-113513095D01*
X121568095Y-113417857D01*
X121615714Y-113370238D01*
X121710952Y-113322619D01*
X121901428Y-113322619D01*
X121996666Y-113370238D01*
X122044285Y-113417857D01*
X122091904Y-113513095D01*
X122091904Y-113703571D01*
X122044285Y-113798809D01*
X121996666Y-113846428D01*
X121901428Y-113894047D01*
X123282380Y-113322619D02*
X123282380Y-114322619D01*
X123758571Y-113322619D02*
X123758571Y-114322619D01*
X124091904Y-113608333D01*
X124425238Y-114322619D01*
X124425238Y-113322619D01*
X124663333Y-113227380D02*
X125425238Y-113227380D01*
X125853809Y-114322619D02*
X126044285Y-114322619D01*
X126139523Y-114275000D01*
X126234761Y-114179761D01*
X126282380Y-113989285D01*
X126282380Y-113655952D01*
X126234761Y-113465476D01*
X126139523Y-113370238D01*
X126044285Y-113322619D01*
X125853809Y-113322619D01*
X125758571Y-113370238D01*
X125663333Y-113465476D01*
X125615714Y-113655952D01*
X125615714Y-113989285D01*
X125663333Y-114179761D01*
X125758571Y-114275000D01*
X125853809Y-114322619D01*
X126710952Y-114322619D02*
X126710952Y-113513095D01*
X126758571Y-113417857D01*
X126806190Y-113370238D01*
X126901428Y-113322619D01*
X127091904Y-113322619D01*
X127187142Y-113370238D01*
X127234761Y-113417857D01*
X127282380Y-113513095D01*
X127282380Y-114322619D01*
X127615714Y-114322619D02*
X128187142Y-114322619D01*
X127901428Y-113322619D02*
X127901428Y-114322619D01*
X128282380Y-113227380D02*
X129044285Y-113227380D01*
X129187142Y-114322619D02*
X129806190Y-114322619D01*
X129472857Y-113941666D01*
X129615714Y-113941666D01*
X129710952Y-113894047D01*
X129758571Y-113846428D01*
X129806190Y-113751190D01*
X129806190Y-113513095D01*
X129758571Y-113417857D01*
X129710952Y-113370238D01*
X129615714Y-113322619D01*
X129330000Y-113322619D01*
X129234761Y-113370238D01*
X129187142Y-113417857D01*
X130091904Y-114322619D02*
X130425238Y-113322619D01*
X130758571Y-114322619D01*
X130996666Y-114322619D02*
X131615714Y-114322619D01*
X131282380Y-113941666D01*
X131425238Y-113941666D01*
X131520476Y-113894047D01*
X131568095Y-113846428D01*
X131615714Y-113751190D01*
X131615714Y-113513095D01*
X131568095Y-113417857D01*
X131520476Y-113370238D01*
X131425238Y-113322619D01*
X131139523Y-113322619D01*
X131044285Y-113370238D01*
X130996666Y-113417857D01*
X121615714Y-111712619D02*
X121806190Y-111712619D01*
X121901428Y-111760238D01*
X121949047Y-111807857D01*
X122044285Y-111950714D01*
X122091904Y-112141190D01*
X122091904Y-112522142D01*
X122044285Y-112617380D01*
X121996666Y-112665000D01*
X121901428Y-112712619D01*
X121710952Y-112712619D01*
X121615714Y-112665000D01*
X121568095Y-112617380D01*
X121520476Y-112522142D01*
X121520476Y-112284047D01*
X121568095Y-112188809D01*
X121615714Y-112141190D01*
X121710952Y-112093571D01*
X121901428Y-112093571D01*
X121996666Y-112141190D01*
X122044285Y-112188809D01*
X122091904Y-112284047D01*
X172464285Y-86050000D02*
X172559523Y-86002380D01*
X172702380Y-86002380D01*
X172845238Y-86050000D01*
X172940476Y-86145238D01*
X172988095Y-86240476D01*
X173035714Y-86430952D01*
X173035714Y-86573809D01*
X172988095Y-86764285D01*
X172940476Y-86859523D01*
X172845238Y-86954761D01*
X172702380Y-87002380D01*
X172607142Y-87002380D01*
X172464285Y-86954761D01*
X172416666Y-86907142D01*
X172416666Y-86573809D01*
X172607142Y-86573809D01*
X171988095Y-87002380D02*
X171988095Y-86002380D01*
X171416666Y-87002380D01*
X171416666Y-86002380D01*
X170988095Y-86954761D02*
X170845238Y-87002380D01*
X170607142Y-87002380D01*
X170511904Y-86954761D01*
X170464285Y-86907142D01*
X170416666Y-86811904D01*
X170416666Y-86716666D01*
X170464285Y-86621428D01*
X170511904Y-86573809D01*
X170607142Y-86526190D01*
X170797619Y-86478571D01*
X170892857Y-86430952D01*
X170940476Y-86383333D01*
X170988095Y-86288095D01*
X170988095Y-86192857D01*
X170940476Y-86097619D01*
X170892857Y-86050000D01*
X170797619Y-86002380D01*
X170559523Y-86002380D01*
X170416666Y-86050000D01*
X170035714Y-86954761D02*
X169892857Y-87002380D01*
X169654761Y-87002380D01*
X169559523Y-86954761D01*
X169511904Y-86907142D01*
X169464285Y-86811904D01*
X169464285Y-86716666D01*
X169511904Y-86621428D01*
X169559523Y-86573809D01*
X169654761Y-86526190D01*
X169845238Y-86478571D01*
X169940476Y-86430952D01*
X169988095Y-86383333D01*
X170035714Y-86288095D01*
X170035714Y-86192857D01*
X169988095Y-86097619D01*
X169940476Y-86050000D01*
X169845238Y-86002380D01*
X169607142Y-86002380D01*
X169464285Y-86050000D01*
D11*
%TO.C,S1*%
X156641140Y-140644047D02*
X156459711Y-140704523D01*
X156157330Y-140704523D01*
X156036378Y-140644047D01*
X155975901Y-140583571D01*
X155915425Y-140462619D01*
X155915425Y-140341666D01*
X155975901Y-140220714D01*
X156036378Y-140160238D01*
X156157330Y-140099761D01*
X156399235Y-140039285D01*
X156520187Y-139978809D01*
X156580663Y-139918333D01*
X156641140Y-139797380D01*
X156641140Y-139676428D01*
X156580663Y-139555476D01*
X156520187Y-139495000D01*
X156399235Y-139434523D01*
X156096854Y-139434523D01*
X155915425Y-139495000D01*
X154705901Y-140704523D02*
X155431616Y-140704523D01*
X155068759Y-140704523D02*
X155068759Y-139434523D01*
X155189711Y-139615952D01*
X155310663Y-139736904D01*
X155431616Y-139797380D01*
D12*
%TO.C,R11*%
X188822380Y-95557142D02*
X188346190Y-95223809D01*
X188822380Y-94985714D02*
X187822380Y-94985714D01*
X187822380Y-95366666D01*
X187870000Y-95461904D01*
X187917619Y-95509523D01*
X188012857Y-95557142D01*
X188155714Y-95557142D01*
X188250952Y-95509523D01*
X188298571Y-95461904D01*
X188346190Y-95366666D01*
X188346190Y-94985714D01*
X188822380Y-96509523D02*
X188822380Y-95938095D01*
X188822380Y-96223809D02*
X187822380Y-96223809D01*
X187965238Y-96128571D01*
X188060476Y-96033333D01*
X188108095Y-95938095D01*
X188822380Y-97461904D02*
X188822380Y-96890476D01*
X188822380Y-97176190D02*
X187822380Y-97176190D01*
X187965238Y-97080952D01*
X188060476Y-96985714D01*
X188108095Y-96890476D01*
%TO.C,R10*%
X175536666Y-95750000D02*
X175203333Y-95516666D01*
X175536666Y-95350000D02*
X174836666Y-95350000D01*
X174836666Y-95616666D01*
X174870000Y-95683333D01*
X174903333Y-95716666D01*
X174970000Y-95750000D01*
X175070000Y-95750000D01*
X175136666Y-95716666D01*
X175170000Y-95683333D01*
X175203333Y-95616666D01*
X175203333Y-95350000D01*
X175536666Y-96416666D02*
X175536666Y-96016666D01*
X175536666Y-96216666D02*
X174836666Y-96216666D01*
X174936666Y-96150000D01*
X175003333Y-96083333D01*
X175036666Y-96016666D01*
X174836666Y-96850000D02*
X174836666Y-96916666D01*
X174870000Y-96983333D01*
X174903333Y-97016666D01*
X174970000Y-97050000D01*
X175103333Y-97083333D01*
X175270000Y-97083333D01*
X175403333Y-97050000D01*
X175470000Y-97016666D01*
X175503333Y-96983333D01*
X175536666Y-96916666D01*
X175536666Y-96850000D01*
X175503333Y-96783333D01*
X175470000Y-96750000D01*
X175403333Y-96716666D01*
X175270000Y-96683333D01*
X175103333Y-96683333D01*
X174970000Y-96716666D01*
X174903333Y-96750000D01*
X174870000Y-96783333D01*
X174836666Y-96850000D01*
D11*
%TO.C,J1*%
X191024523Y-129176666D02*
X191931666Y-129176666D01*
X192113095Y-129116190D01*
X192234047Y-128995238D01*
X192294523Y-128813809D01*
X192294523Y-128692857D01*
X192294523Y-130446666D02*
X192294523Y-129720952D01*
X192294523Y-130083809D02*
X191024523Y-130083809D01*
X191205952Y-129962857D01*
X191326904Y-129841904D01*
X191387380Y-129720952D01*
D12*
%TO.C,D5*%
X188822380Y-98661904D02*
X187822380Y-98661904D01*
X187822380Y-98900000D01*
X187870000Y-99042857D01*
X187965238Y-99138095D01*
X188060476Y-99185714D01*
X188250952Y-99233333D01*
X188393809Y-99233333D01*
X188584285Y-99185714D01*
X188679523Y-99138095D01*
X188774761Y-99042857D01*
X188822380Y-98900000D01*
X188822380Y-98661904D01*
X187822380Y-100138095D02*
X187822380Y-99661904D01*
X188298571Y-99614285D01*
X188250952Y-99661904D01*
X188203333Y-99757142D01*
X188203333Y-99995238D01*
X188250952Y-100090476D01*
X188298571Y-100138095D01*
X188393809Y-100185714D01*
X188631904Y-100185714D01*
X188727142Y-100138095D01*
X188774761Y-100090476D01*
X188822380Y-99995238D01*
X188822380Y-99757142D01*
X188774761Y-99661904D01*
X188727142Y-99614285D01*
%TO.C,D3*%
X181922380Y-98661904D02*
X180922380Y-98661904D01*
X180922380Y-98900000D01*
X180970000Y-99042857D01*
X181065238Y-99138095D01*
X181160476Y-99185714D01*
X181350952Y-99233333D01*
X181493809Y-99233333D01*
X181684285Y-99185714D01*
X181779523Y-99138095D01*
X181874761Y-99042857D01*
X181922380Y-98900000D01*
X181922380Y-98661904D01*
X180922380Y-99566666D02*
X180922380Y-100185714D01*
X181303333Y-99852380D01*
X181303333Y-99995238D01*
X181350952Y-100090476D01*
X181398571Y-100138095D01*
X181493809Y-100185714D01*
X181731904Y-100185714D01*
X181827142Y-100138095D01*
X181874761Y-100090476D01*
X181922380Y-99995238D01*
X181922380Y-99709523D01*
X181874761Y-99614285D01*
X181827142Y-99566666D01*
%TO.C,D4*%
X175442380Y-98631904D02*
X174442380Y-98631904D01*
X174442380Y-98870000D01*
X174490000Y-99012857D01*
X174585238Y-99108095D01*
X174680476Y-99155714D01*
X174870952Y-99203333D01*
X175013809Y-99203333D01*
X175204285Y-99155714D01*
X175299523Y-99108095D01*
X175394761Y-99012857D01*
X175442380Y-98870000D01*
X175442380Y-98631904D01*
X174775714Y-100060476D02*
X175442380Y-100060476D01*
X174394761Y-99822380D02*
X175109047Y-99584285D01*
X175109047Y-100203333D01*
%TO.C,R9*%
X182122380Y-96033333D02*
X181646190Y-95700000D01*
X182122380Y-95461904D02*
X181122380Y-95461904D01*
X181122380Y-95842857D01*
X181170000Y-95938095D01*
X181217619Y-95985714D01*
X181312857Y-96033333D01*
X181455714Y-96033333D01*
X181550952Y-95985714D01*
X181598571Y-95938095D01*
X181646190Y-95842857D01*
X181646190Y-95461904D01*
X182122380Y-96509523D02*
X182122380Y-96700000D01*
X182074761Y-96795238D01*
X182027142Y-96842857D01*
X181884285Y-96938095D01*
X181693809Y-96985714D01*
X181312857Y-96985714D01*
X181217619Y-96938095D01*
X181170000Y-96890476D01*
X181122380Y-96795238D01*
X181122380Y-96604761D01*
X181170000Y-96509523D01*
X181217619Y-96461904D01*
X181312857Y-96414285D01*
X181550952Y-96414285D01*
X181646190Y-96461904D01*
X181693809Y-96509523D01*
X181741428Y-96604761D01*
X181741428Y-96795238D01*
X181693809Y-96890476D01*
X181646190Y-96938095D01*
X181550952Y-96985714D01*
D13*
%TO.C,J7*%
X112476553Y-124999994D02*
G75*
G03*
X112476553Y-124999994I-381000J0D01*
G01*
D14*
%TO.C,J4*%
X161224360Y-90098600D02*
X161224360Y-89897940D01*
X162524840Y-89999540D02*
X161224360Y-89999540D01*
X162623900Y-87302060D02*
X162623900Y-89897940D01*
D15*
X159700360Y-87711000D02*
X159700360Y-89489000D01*
D14*
X158427820Y-89897940D02*
X158427820Y-87302060D01*
D15*
X161351360Y-87711000D02*
X161351360Y-89489000D01*
D14*
X162623900Y-90098600D02*
X162623900Y-89897940D01*
D15*
X161351360Y-87711000D02*
X159700360Y-87711000D01*
D14*
X159827360Y-89897940D02*
X158427820Y-89897940D01*
X159827360Y-87302060D02*
X158427820Y-87302060D01*
X159827360Y-90098600D02*
X158427820Y-90098600D01*
X162623900Y-89897940D02*
X161224360Y-89897940D01*
X158427820Y-90098600D02*
X158427820Y-89897940D01*
D15*
X161351360Y-89489000D02*
X159700360Y-89489000D01*
D14*
X162623900Y-90098600D02*
X161224360Y-90098600D01*
X159827360Y-90098600D02*
X159827360Y-89897940D01*
X159827360Y-89999540D02*
X158526880Y-89999540D01*
X162623900Y-87302060D02*
X161224360Y-87302060D01*
D15*
%TO.C,J3*%
X171999640Y-87711000D02*
X170348640Y-87711000D01*
D14*
X173173120Y-89999540D02*
X171872640Y-89999540D01*
D15*
X171999640Y-89489000D02*
X170348640Y-89489000D01*
D14*
X171872640Y-90098600D02*
X171872640Y-89897940D01*
X170475640Y-89999540D02*
X169175160Y-89999540D01*
X170475640Y-87302060D02*
X169076100Y-87302060D01*
X169076100Y-89897940D02*
X169076100Y-87302060D01*
X170475640Y-89897940D02*
X169076100Y-89897940D01*
X170475640Y-90098600D02*
X170475640Y-89897940D01*
X173272180Y-87302060D02*
X171872640Y-87302060D01*
X173272180Y-90098600D02*
X171872640Y-90098600D01*
X170475640Y-90098600D02*
X169076100Y-90098600D01*
X173272180Y-90098600D02*
X173272180Y-89897940D01*
X173272180Y-87302060D02*
X173272180Y-89897940D01*
D15*
X171999640Y-87711000D02*
X171999640Y-89489000D01*
D14*
X173272180Y-89897940D02*
X171872640Y-89897940D01*
X169076100Y-90098600D02*
X169076100Y-89897940D01*
D15*
X170348640Y-87711000D02*
X170348640Y-89489000D01*
D10*
%TO.C,S1*%
X158873521Y-138630000D02*
X152473521Y-138630000D01*
X158873521Y-141630000D02*
X158873521Y-138630000D01*
X154048521Y-136030000D02*
X154048521Y-136030000D01*
X152473521Y-138630000D02*
X152473521Y-141630000D01*
X152473521Y-141630000D02*
X158873521Y-141630000D01*
X154048521Y-136130000D02*
X154048521Y-136130000D01*
X154048521Y-136130000D02*
X154048521Y-136130000D01*
X154048521Y-136030000D02*
G75*
G03*
X154048521Y-136130000I0J-50000D01*
G01*
X154048521Y-136030000D02*
G75*
G03*
X154048521Y-136130000I0J-50000D01*
G01*
X154048521Y-136130000D02*
G75*
G03*
X154048521Y-136030000I0J50000D01*
G01*
D13*
%TO.C,R11*%
X190322500Y-95962742D02*
X190322500Y-96437258D01*
X189277500Y-95962742D02*
X189277500Y-96437258D01*
%TO.C,R10*%
X175877500Y-95962742D02*
X175877500Y-96437258D01*
X176922500Y-95962742D02*
X176922500Y-96437258D01*
D16*
%TO.C,J1*%
X184200000Y-135205000D02*
X187400000Y-135205000D01*
X189620000Y-124005000D02*
X196120000Y-124005000D01*
X184200000Y-135205000D02*
X184200000Y-135205000D01*
D10*
X183420000Y-126500000D02*
X183420000Y-126500000D01*
D16*
X199640000Y-124005000D02*
X199640000Y-135205000D01*
X184200000Y-124005000D02*
X187400000Y-124005000D01*
X184200000Y-125605000D02*
X184200000Y-124005000D01*
X189620000Y-135205000D02*
X196120000Y-135205000D01*
X198400000Y-124005000D02*
X199640000Y-124005000D01*
X199640000Y-135205000D02*
X198400000Y-135205000D01*
X184200000Y-133605000D02*
X184200000Y-135205000D01*
D10*
X183420000Y-126300000D02*
X183420000Y-126300000D01*
X183420000Y-126500000D02*
G75*
G03*
X183420000Y-126300000I0J100000D01*
G01*
X183420000Y-126300000D02*
G75*
G03*
X183420000Y-126500000I0J-100000D01*
G01*
D13*
%TO.C,D5*%
X189065000Y-100200000D02*
X189065000Y-97915000D01*
X190535000Y-97915000D02*
X190535000Y-100200000D01*
X189065000Y-97915000D02*
X190535000Y-97915000D01*
%TO.C,D3*%
X182165000Y-97915000D02*
X183635000Y-97915000D01*
X183635000Y-97915000D02*
X183635000Y-100200000D01*
X182165000Y-100200000D02*
X182165000Y-97915000D01*
%TO.C,D4*%
X175665000Y-100175000D02*
X175665000Y-97890000D01*
X177135000Y-97890000D02*
X177135000Y-100175000D01*
X175665000Y-97890000D02*
X177135000Y-97890000D01*
%TO.C,R9*%
X182577500Y-95962742D02*
X182577500Y-96437258D01*
X183622500Y-95962742D02*
X183622500Y-96437258D01*
%TD*%
D17*
%TO.C,S1*%
X157398521Y-140130000D03*
X154048521Y-140130000D03*
%TD*%
M02*
