M48
; DRILL file {KiCad (6.0.10)} date Mon Jan  2 14:57:18 2023
; FORMAT={-:-/ absolute / metric / decimal}
; #@! TF.CreationDate,2023-01-02T14:57:18+01:00
; #@! TF.GenerationSoftware,Kicad,Pcbnew,(6.0.10)
; #@! TF.FileFunction,Plated,1,4,PTH
FMAT,2
METRIC
; #@! TA.AperFunction,Plated,PTH,ComponentDrill
T1C0.250
; #@! TA.AperFunction,Plated,PTH,ComponentDrill
T2C0.254
; #@! TA.AperFunction,Plated,PTH,ViaDrill
T3C0.300
; #@! TA.AperFunction,Plated,PTH,ComponentDrill
T4C0.300
; #@! TA.AperFunction,Plated,PTH,ViaDrill
T5C0.500
; #@! TA.AperFunction,Plated,PTH,ComponentDrill
T6C0.500
; #@! TA.AperFunction,Plated,PTH,ComponentDrill
T7C1.092
; #@! TA.AperFunction,Plated,PTH,ComponentDrill
T8C3.200
%
G90
G05
T1
X121.92Y-127.83
X121.92Y-129.23
X122.92Y-127.83
X122.92Y-129.23
X123.92Y-127.83
X123.92Y-129.23
T2
X129.3Y-87.9
T3
X101.0Y-86.0
X101.0Y-87.0
X101.0Y-88.0
X101.0Y-89.0
X101.0Y-90.0
X101.0Y-91.0
X101.0Y-92.0
X101.0Y-93.0
X101.0Y-94.0
X101.0Y-95.0
X101.0Y-96.0
X101.0Y-97.0
X101.0Y-98.0
X101.0Y-99.0
X101.0Y-100.0
X101.0Y-101.0
X101.0Y-102.0
X101.0Y-103.0
X101.0Y-104.0
X101.0Y-105.0
X101.0Y-106.0
X101.0Y-107.0
X101.0Y-108.0
X101.0Y-109.0
X101.0Y-110.0
X101.0Y-111.0
X101.0Y-112.0
X101.0Y-113.0
X101.0Y-114.0
X101.0Y-115.0
X101.0Y-116.0
X101.0Y-117.0
X101.0Y-118.0
X101.0Y-119.0
X101.0Y-120.0
X101.0Y-121.0
X101.0Y-122.0
X101.0Y-123.0
X101.0Y-124.0
X101.0Y-125.0
X101.0Y-126.0
X101.0Y-127.0
X101.0Y-128.0
X101.0Y-129.0
X101.0Y-130.0
X101.0Y-131.0
X101.0Y-132.0
X101.0Y-133.0
X101.0Y-134.0
X101.0Y-135.0
X101.0Y-136.0
X101.0Y-137.0
X101.0Y-138.0
X101.0Y-139.0
X101.0Y-140.0
X101.0Y-141.0
X101.0Y-142.0
X101.0Y-143.0
X101.0Y-144.0
X102.0Y-86.0
X102.0Y-144.0
X103.0Y-86.0
X103.0Y-144.0
X103.9Y-104.0
X104.0Y-86.0
X104.0Y-144.0
X104.2Y-124.8
X105.0Y-86.0
X105.0Y-144.0
X105.989Y-102.212
X106.0Y-86.0
X106.0Y-144.0
X107.0Y-86.0
X107.0Y-144.0
X108.0Y-86.0
X108.0Y-144.0
X108.9Y-111.6
X109.0Y-86.0
X109.0Y-144.0
X109.2Y-99.6
X110.0Y-86.0
X110.0Y-144.0
X111.0Y-86.0
X111.0Y-87.0
X111.0Y-92.0
X111.0Y-133.0
X111.0Y-134.0
X111.0Y-135.0
X111.0Y-144.0
X111.4Y-100.9
X111.5Y-109.6
X112.0Y-86.0
X112.0Y-132.0
X112.0Y-133.0
X112.0Y-134.0
X112.0Y-135.0
X112.0Y-144.0
X112.3Y-106.9
X112.443Y-101.637
X113.0Y-86.0
X113.0Y-131.0
X113.0Y-132.0
X113.0Y-133.0
X113.0Y-134.0
X113.0Y-135.0
X113.0Y-140.0
X113.0Y-141.0
X113.0Y-142.0
X113.0Y-143.0
X113.0Y-144.0
X114.0Y-86.0
X114.0Y-131.0
X114.0Y-132.0
X114.0Y-133.0
X114.0Y-134.0
X114.0Y-140.0
X114.0Y-141.0
X114.0Y-142.0
X114.0Y-143.0
X114.0Y-144.0
X114.6Y-138.7
X115.0Y-86.0
X115.0Y-131.0
X115.0Y-132.0
X115.0Y-133.0
X115.0Y-140.0
X115.0Y-141.0
X115.0Y-142.0
X115.0Y-143.0
X115.0Y-144.0
X115.7Y-135.9
X116.0Y-86.0
X116.0Y-100.3
X116.0Y-131.0
X116.0Y-132.0
X116.0Y-133.0
X116.0Y-140.0
X116.0Y-141.0
X116.0Y-142.0
X116.0Y-143.0
X116.0Y-144.0
X116.1Y-102.9
X116.6Y-96.8
X117.0Y-86.0
X117.0Y-117.3
X117.0Y-120.9
X117.0Y-140.0
X117.0Y-141.0
X117.0Y-142.0
X117.0Y-143.0
X117.0Y-144.0
X117.1Y-115.0
X117.4Y-131.4
X118.0Y-86.0
X118.0Y-144.0
X118.1Y-111.1
X118.1Y-111.9
X118.6Y-118.4
X118.9Y-111.1
X118.9Y-111.9
X119.0Y-86.0
X119.0Y-144.0
X119.3Y-117.8
X119.5Y-124.7
X120.0Y-86.0
X120.0Y-144.0
X120.2Y-126.7
X120.5Y-98.9
X120.5Y-100.5
X120.5Y-102.2
X120.6Y-109.9
X120.9Y-115.1
X120.9Y-116.0
X121.0Y-86.0
X121.0Y-89.0
X121.0Y-94.0
X121.0Y-144.0
X121.7Y-117.5
X121.7Y-119.5
X121.774Y-118.455
X121.8Y-115.1
X121.8Y-116.0
X122.0Y-86.0
X122.0Y-144.0
X122.2Y-132.8
X122.7Y-117.5
X122.7Y-118.5
X122.7Y-119.5
X123.0Y-86.0
X123.0Y-144.0
X123.3Y-108.6
X123.7Y-117.5
X123.7Y-118.5
X123.7Y-119.5
X123.954Y-106.406
X124.0Y-86.0
X124.0Y-109.1
X124.0Y-144.0
X124.7Y-117.5
X124.7Y-118.5
X124.7Y-119.5
X124.8Y-92.6
X125.0Y-86.0
X125.0Y-144.0
X125.7Y-103.0
X125.9Y-90.2
X125.9Y-101.3
X126.0Y-144.0
X127.0Y-86.0
X127.0Y-130.0
X127.0Y-131.0
X127.0Y-132.0
X127.0Y-133.0
X127.0Y-144.0
X127.1Y-137.7
X127.3Y-88.5
X127.3Y-101.4
X127.981Y-96.715
X127.981Y-97.515
X127.981Y-98.315
X127.981Y-99.515
X127.981Y-103.015
X128.0Y-86.0
X128.0Y-94.4
X128.0Y-95.4
X128.0Y-130.0
X128.0Y-131.0
X128.0Y-132.0
X128.0Y-133.0
X128.0Y-144.0
X128.6Y-104.0
X128.781Y-99.515
X129.0Y-86.0
X129.0Y-130.0
X129.0Y-131.0
X129.0Y-132.0
X129.0Y-133.0
X129.0Y-144.0
X129.1Y-119.1
X129.224Y-113.5
X129.5Y-120.9
X129.581Y-99.515
X129.581Y-103.015
X129.8Y-110.3
X130.0Y-86.0
X130.0Y-130.0
X130.0Y-131.0
X130.0Y-132.0
X130.0Y-133.0
X130.0Y-144.0
X130.6Y-110.7
X130.6Y-126.2
X130.769Y-98.181
X131.0Y-86.0
X131.0Y-139.0
X131.0Y-141.0
X131.0Y-144.0
X132.0Y-86.0
X132.0Y-139.0
X132.0Y-141.0
X132.0Y-144.0
X132.5Y-104.5
X133.0Y-86.0
X133.0Y-91.0
X133.0Y-139.0
X133.0Y-140.0
X133.0Y-141.0
X133.0Y-144.0
X133.2Y-108.6
X133.7Y-112.5
X133.8Y-91.0
X134.0Y-86.0
X134.0Y-110.7
X134.0Y-144.0
X134.3Y-105.1
X134.7Y-91.0
X135.0Y-86.0
X135.0Y-144.0
X135.124Y-108.1
X136.0Y-86.0
X136.0Y-144.0
X136.281Y-94.815
X136.281Y-95.615
X136.281Y-96.415
X136.744Y-105.7
X137.0Y-86.0
X137.0Y-126.0
X137.0Y-127.0
X137.0Y-128.0
X137.0Y-129.0
X137.0Y-130.0
X137.0Y-131.0
X137.0Y-132.0
X137.0Y-133.0
X137.0Y-134.0
X137.0Y-135.0
X137.0Y-136.0
X137.0Y-137.0
X137.0Y-138.0
X137.0Y-139.0
X137.0Y-140.0
X137.0Y-141.0
X137.0Y-142.0
X137.0Y-143.0
X137.0Y-144.0
X138.0Y-86.0
X138.0Y-87.0
X138.0Y-88.0
X138.0Y-89.0
X138.0Y-90.0
X138.0Y-91.0
X138.0Y-144.0
X138.3Y-114.2
X138.3Y-115.7
X138.8Y-107.5
X139.0Y-86.0
X139.0Y-144.0
X139.5Y-105.1
X140.0Y-86.0
X140.0Y-144.0
X140.5Y-101.6
X141.0Y-86.0
X141.0Y-144.0
X141.2Y-117.4
X141.7Y-107.8
X142.0Y-86.0
X142.0Y-144.0
X142.5Y-91.0
X142.7Y-109.2
X143.0Y-86.0
X143.0Y-144.0
X143.3Y-115.6
X143.5Y-91.0
X144.0Y-86.0
X144.0Y-144.0
X144.3Y-109.2
X144.5Y-91.0
X145.0Y-86.0
X145.0Y-144.0
X145.5Y-91.0
X145.9Y-109.2
X146.0Y-86.0
X146.0Y-144.0
X146.5Y-91.0
X146.5Y-124.5
X146.6Y-114.8
X146.9Y-132.7
X147.0Y-86.0
X147.0Y-144.0
X147.1Y-113.3
X147.2Y-110.7
X147.4Y-116.5
X147.5Y-91.0
X148.0Y-86.0
X148.0Y-144.0
X148.1Y-108.1
X148.5Y-91.0
X148.7Y-113.0
X149.0Y-86.0
X149.0Y-144.0
X149.5Y-91.0
X150.0Y-86.0
X150.0Y-144.0
X150.2Y-123.4
X150.5Y-91.0
X151.0Y-86.0
X151.0Y-144.0
X151.1Y-123.2
X151.3Y-132.8
X151.5Y-91.0
X151.8Y-132.0
X152.0Y-86.0
X152.0Y-144.0
X152.5Y-91.0
X152.7Y-126.6
X152.737Y-134.353
X153.0Y-86.0
X153.0Y-144.0
X153.2Y-109.9
X153.3Y-108.3
X153.3Y-111.0
X153.4Y-109.1
X153.4Y-112.0
X153.444Y-107.379
X153.6Y-94.5
X153.7Y-118.9
X153.826Y-132.1
X154.0Y-86.0
X154.0Y-112.6
X154.0Y-123.0
X154.0Y-144.0
X154.393Y-134.424
X154.72Y-132.077
X155.0Y-86.0
X155.0Y-92.0
X155.0Y-142.0
X155.0Y-144.0
X155.2Y-94.5
X155.4Y-136.2
X156.0Y-86.0
X156.0Y-144.0
X157.0Y-86.0
X157.0Y-87.0
X157.0Y-88.0
X157.0Y-89.0
X157.0Y-90.0
X157.0Y-93.4
X157.0Y-103.0
X157.0Y-118.0
X157.0Y-123.0
X157.0Y-144.0
X157.1Y-98.0
X157.7Y-92.6
X157.7Y-99.7
X158.0Y-86.0
X158.0Y-91.0
X158.0Y-97.3
X158.0Y-103.0
X158.0Y-144.0
X158.9Y-108.9
X159.0Y-86.0
X159.0Y-92.0
X159.0Y-100.0
X159.0Y-103.0
X159.0Y-144.0
X159.4Y-142.2
X159.502Y-131.676
X159.6Y-105.1
X160.0Y-86.0
X160.0Y-92.0
X160.0Y-94.0
X160.0Y-100.0
X160.0Y-103.0
X160.0Y-144.0
X161.0Y-86.0
X161.0Y-93.0
X161.0Y-95.0
X161.0Y-100.0
X161.0Y-103.0
X161.0Y-144.0
X161.5Y-141.3
X162.0Y-86.0
X162.0Y-91.0
X162.0Y-94.0
X162.0Y-95.0
X162.0Y-96.0
X162.0Y-100.0
X162.0Y-103.0
X162.0Y-111.0
X162.0Y-123.0
X162.0Y-144.0
X162.435Y-132.727
X163.0Y-86.0
X163.0Y-91.0
X163.0Y-92.0
X163.0Y-99.5
X163.0Y-103.0
X163.0Y-118.0
X163.0Y-144.0
X163.1Y-141.774
X163.2Y-136.0
X163.5Y-94.1
X163.9Y-142.2
X164.0Y-86.0
X164.0Y-87.0
X164.0Y-88.0
X164.0Y-89.0
X164.0Y-90.0
X164.0Y-91.0
X164.0Y-93.0
X164.0Y-103.0
X164.0Y-128.0
X164.0Y-144.0
X164.889Y-134.424
X165.0Y-87.0
X165.0Y-88.0
X165.0Y-89.0
X165.0Y-90.0
X165.0Y-91.0
X165.0Y-94.0
X165.0Y-100.0
X165.0Y-103.0
X165.0Y-144.0
X165.134Y-131.59
X165.518Y-135.419
X165.7Y-128.3
X165.7Y-141.774
X165.8Y-114.8
X166.0Y-87.0
X166.0Y-88.0
X166.0Y-89.0
X166.0Y-90.0
X166.0Y-91.0
X166.0Y-95.0
X166.0Y-96.0
X166.0Y-99.0
X166.0Y-100.0
X166.0Y-112.0
X166.0Y-144.0
X167.0Y-87.0
X167.0Y-88.0
X167.0Y-89.0
X167.0Y-90.0
X167.0Y-91.0
X167.0Y-93.0
X167.0Y-95.0
X167.0Y-96.0
X167.0Y-100.0
X167.0Y-144.0
X167.18Y-132.826
X167.5Y-99.0
X168.0Y-86.0
X168.0Y-87.0
X168.0Y-88.0
X168.0Y-89.0
X168.0Y-90.0
X168.0Y-91.0
X168.0Y-100.0
X168.0Y-144.0
X168.1Y-137.3
X168.2Y-138.4
X168.2Y-139.2
X168.3Y-123.3
X168.6Y-136.6
X169.0Y-86.0
X169.0Y-91.0
X169.0Y-93.0
X169.0Y-94.0
X169.0Y-95.0
X169.0Y-99.0
X169.0Y-100.0
X169.0Y-144.0
X169.3Y-133.4
X169.4Y-134.2
X169.404Y-132.518
X169.7Y-138.8
X170.0Y-86.0
X170.0Y-91.0
X170.0Y-92.0
X170.0Y-93.0
X170.0Y-100.0
X170.0Y-144.0
X170.2Y-134.4
X170.4Y-117.4
X170.7Y-104.0
X170.7Y-135.8
X170.8Y-94.1
X171.0Y-86.0
X171.0Y-144.0
X172.0Y-86.0
X172.0Y-92.0
X172.0Y-93.0
X172.0Y-99.6
X172.0Y-122.0
X172.0Y-144.0
X173.0Y-86.0
X173.0Y-91.0
X173.0Y-92.0
X173.0Y-100.0
X173.0Y-101.7
X173.0Y-118.0
X173.0Y-144.0
X174.0Y-86.0
X174.0Y-87.0
X174.0Y-88.0
X174.0Y-89.0
X174.0Y-90.0
X174.0Y-144.0
X174.7Y-142.3
X174.8Y-88.9
X174.9Y-96.6
X175.0Y-86.0
X175.0Y-143.4
X175.48Y-132.674
X175.535Y-103.95
X175.9Y-93.0
X176.0Y-86.0
X176.0Y-144.0
X176.65Y-103.35
X176.938Y-107.861
X177.0Y-86.0
X177.0Y-105.4
X177.0Y-108.7
X177.0Y-109.5
X177.0Y-110.5
X177.0Y-127.3
X177.0Y-144.0
X177.0Y-104.549
X177.2Y-96.6
X177.4Y-92.8
X177.5Y-86.7
X177.55Y-102.45
X178.0Y-86.0
X178.0Y-144.0
X178.1Y-98.7
X178.4Y-110.2
X178.4Y-141.8
X178.538Y-90.55
X178.8Y-119.014
X179.0Y-86.0
X179.0Y-142.475
X179.0Y-144.0
X179.1Y-133.2
X179.2Y-111.5
X179.225Y-102.274
X179.4Y-96.5
X179.5Y-114.7
X179.7Y-140.6
X179.9Y-109.6
X179.9Y-131.6
X179.9Y-135.7
X180.0Y-86.0
X180.0Y-144.0
X180.188Y-134.945
X180.188Y-101.912
X180.2Y-89.2
X180.6Y-136.1
X180.8Y-125.1
X180.8Y-143.4
X181.0Y-86.0
X181.3Y-109.5
X181.4Y-93.0
X181.4Y-94.3
X181.4Y-115.5
X182.0Y-86.0
X182.0Y-144.0
X182.093Y-110.974
X182.1Y-98.7
X182.1Y-127.9
X182.6Y-113.5
X182.6Y-114.5
X182.661Y-104.739
X182.8Y-94.4
X182.874Y-100.675
X182.9Y-92.7
X183.0Y-86.0
X183.0Y-109.0
X183.0Y-144.0
X183.262Y-101.75
X183.8Y-140.6
X183.894Y-138.494
X183.9Y-139.3
X184.0Y-86.0
X184.0Y-144.0
X184.35Y-132.45
X184.424Y-102.026
X184.5Y-90.3
X185.0Y-86.0
X185.0Y-144.0
X185.319Y-99.351
X185.5Y-111.0
X186.0Y-86.0
X186.0Y-105.4
X186.0Y-144.0
X186.156Y-104.344
X186.276Y-115.603
X186.3Y-107.9
X186.4Y-139.0
X186.575Y-109.688
X186.7Y-101.767
X186.8Y-111.3
X186.8Y-135.4
X186.863Y-105.463
X187.0Y-86.0
X187.0Y-144.0
X187.1Y-136.2
X187.325Y-97.626
X187.333Y-110.657
X187.5Y-101.5
X187.6Y-139.5
X187.618Y-136.857
X188.0Y-86.0
X188.0Y-144.0
X188.1Y-94.1
X188.3Y-105.8
X188.376Y-111.227
X188.4Y-98.2
X188.5Y-121.9
X188.6Y-102.2
X188.774Y-117.24
X188.852Y-138.535
X188.998Y-101.422
X189.0Y-86.0
X189.0Y-144.0
X189.101Y-139.351
X189.281Y-121.474
X189.323Y-108.552
X189.326Y-107.1
X189.4Y-132.5
X189.525Y-111.026
X189.848Y-137.0
X189.9Y-101.6
X189.9Y-106.4
X190.0Y-86.0
X190.0Y-98.4
X190.0Y-144.0
X190.1Y-109.4
X190.1Y-110.2
X190.6Y-90.3
X190.6Y-101.2
X190.6Y-105.7
X190.8Y-116.1
X190.844Y-114.607
X190.984Y-138.152
X191.0Y-86.0
X191.0Y-144.0
X191.174Y-110.962
X191.2Y-89.5
X191.361Y-121.512
X191.486Y-116.548
X191.6Y-137.4
X191.826Y-115.173
X191.955Y-114.166
X192.0Y-86.0
X192.0Y-144.0
X192.022Y-105.04
X192.2Y-101.0
X192.376Y-115.813
X192.524Y-96.549
X192.53Y-121.474
X192.581Y-111.197
X193.0Y-86.0
X193.0Y-105.0
X193.0Y-109.0
X193.0Y-144.0
X193.2Y-136.1
X193.425Y-111.0
X193.5Y-101.0
X193.8Y-115.3
X194.0Y-86.0
X194.0Y-105.0
X194.0Y-106.3
X194.0Y-110.0
X194.0Y-144.0
X194.3Y-100.9
X194.5Y-122.1
X194.9Y-108.5
X195.0Y-86.0
X195.0Y-110.0
X195.0Y-144.0
X195.1Y-118.0
X195.1Y-121.1
X196.0Y-86.0
X196.0Y-115.0
X196.0Y-119.9
X196.0Y-144.0
X197.0Y-86.0
X197.0Y-126.0
X197.0Y-127.0
X197.0Y-130.0
X197.0Y-144.0
X197.3Y-124.7
X197.5Y-99.0
X197.9Y-95.5
X198.0Y-86.0
X198.0Y-144.0
X198.094Y-96.891
X199.0Y-86.0
X199.0Y-87.0
X199.0Y-88.0
X199.0Y-89.0
X199.0Y-90.0
X199.0Y-91.0
X199.0Y-92.0
X199.0Y-99.0
X199.0Y-133.0
X199.0Y-134.0
X199.0Y-135.0
X199.0Y-136.0
X199.0Y-137.0
X199.0Y-138.0
X199.0Y-139.0
X199.0Y-140.0
X199.0Y-141.0
X199.0Y-142.0
X199.0Y-143.0
X199.0Y-144.0
T4
X159.726Y-87.7
X159.726Y-89.4
X161.326Y-87.7
X161.326Y-89.4
X170.374Y-87.7
X170.374Y-89.4
X171.974Y-87.7
X171.974Y-89.4
T5
X132.3Y-114.0
X133.35Y-115.05
X133.5Y-116.6
T6
X114.525Y-89.25
X115.775Y-89.25
X117.025Y-89.25
T7
X107.096Y-105.0
X107.096Y-107.5
X107.096Y-110.0
X107.096Y-112.5
X107.096Y-115.0
X107.096Y-117.5
X107.096Y-120.0
X107.096Y-122.5
X107.096Y-125.0
X110.096Y-105.0
X110.096Y-107.5
X110.096Y-110.0
X110.096Y-112.5
X110.096Y-115.0
X110.096Y-117.5
X110.096Y-120.0
X110.096Y-122.5
X110.096Y-125.0
T8
X105.0Y-90.0
X105.0Y-140.0
X195.0Y-90.0
X195.0Y-140.0
T0
M30
