%TF.GenerationSoftware,KiCad,Pcbnew,(6.0.10)*%
%TF.CreationDate,2023-01-02T14:56:34+01:00*%
%TF.ProjectId,roam,726f616d-2e6b-4696-9361-645f70636258,rev?*%
%TF.SameCoordinates,Original*%
%TF.FileFunction,Soldermask,Bot*%
%TF.FilePolarity,Negative*%
%FSLAX46Y46*%
G04 Gerber Fmt 4.6, Leading zero omitted, Abs format (unit mm)*
G04 Created by KiCad (PCBNEW (6.0.10)) date 2023-01-02 14:56:34*
%MOMM*%
%LPD*%
G01*
G04 APERTURE LIST*
G04 Aperture macros list*
%AMRoundRect*
0 Rectangle with rounded corners*
0 $1 Rounding radius*
0 $2 $3 $4 $5 $6 $7 $8 $9 X,Y pos of 4 corners*
0 Add a 4 corners polygon primitive as box body*
4,1,4,$2,$3,$4,$5,$6,$7,$8,$9,$2,$3,0*
0 Add four circle primitives for the rounded corners*
1,1,$1+$1,$2,$3*
1,1,$1+$1,$4,$5*
1,1,$1+$1,$6,$7*
1,1,$1+$1,$8,$9*
0 Add four rect primitives between the rounded corners*
20,1,$1+$1,$2,$3,$4,$5,0*
20,1,$1+$1,$4,$5,$6,$7,0*
20,1,$1+$1,$6,$7,$8,$9,0*
20,1,$1+$1,$8,$9,$2,$3,0*%
G04 Aperture macros list end*
%ADD10C,5.600000*%
%ADD11C,1.600200*%
%ADD12C,3.200400*%
%ADD13RoundRect,0.200000X0.200000X0.450000X-0.200000X0.450000X-0.200000X-0.450000X0.200000X-0.450000X0*%
%ADD14O,0.800000X1.300000*%
%ADD15C,0.889000*%
%ADD16C,0.711200*%
%ADD17C,0.508000*%
%ADD18R,0.998220X0.797560*%
%ADD19C,0.500000*%
%ADD20R,1.049020X2.199640*%
G04 APERTURE END LIST*
D10*
%TO.C,H2*%
X105000000Y-90000000D03*
%TD*%
%TO.C,H3*%
X195000000Y-90000000D03*
%TD*%
D11*
%TO.C,J7*%
X107095553Y-104999999D03*
X107095553Y-107499999D03*
X107095553Y-109999999D03*
X107095553Y-112499999D03*
X107095553Y-115000000D03*
X107095553Y-117500000D03*
X107095553Y-120000000D03*
X107095553Y-122500000D03*
X107095553Y-125000000D03*
X110095552Y-104999999D03*
X110095552Y-107499999D03*
X110095552Y-109999999D03*
X110095552Y-112499999D03*
X110095552Y-115000000D03*
X110095552Y-117500000D03*
X110095552Y-120000000D03*
X110095552Y-122500000D03*
X110095552Y-125000000D03*
D12*
X105595553Y-99500005D03*
X105595553Y-130499994D03*
%TD*%
D13*
%TO.C,J2*%
X117025000Y-89250000D03*
D14*
X115775000Y-89250000D03*
X114525000Y-89250000D03*
%TD*%
D15*
%TO.C,J1*%
X197149999Y-133063099D03*
D16*
X188850001Y-124063099D03*
%TD*%
D10*
%TO.C,H4*%
X195000000Y-140000000D03*
%TD*%
D17*
%TO.C,U8*%
X129300000Y-87900000D03*
%TD*%
D10*
%TO.C,H1*%
X105000000Y-140000000D03*
%TD*%
D18*
%TO.C,J4*%
X160525860Y-90124000D03*
D19*
X159725860Y-87700000D03*
X161325860Y-87700000D03*
X159725860Y-89400000D03*
X161325860Y-89400000D03*
D20*
X159151720Y-88600000D03*
X161900000Y-88600000D03*
%TD*%
D18*
%TO.C,J3*%
X171174140Y-90124000D03*
D20*
X172548280Y-88600000D03*
X169800000Y-88600000D03*
D19*
X171974140Y-87700000D03*
X171974140Y-89400000D03*
X170374140Y-89400000D03*
X170374140Y-87700000D03*
%TD*%
M02*
