%TF.GenerationSoftware,KiCad,Pcbnew,(6.0.10)*%
%TF.CreationDate,2023-01-02T14:56:34+01:00*%
%TF.ProjectId,roam,726f616d-2e6b-4696-9361-645f70636258,rev?*%
%TF.SameCoordinates,Original*%
%TF.FileFunction,Soldermask,Top*%
%TF.FilePolarity,Negative*%
%FSLAX46Y46*%
G04 Gerber Fmt 4.6, Leading zero omitted, Abs format (unit mm)*
G04 Created by KiCad (PCBNEW (6.0.10)) date 2023-01-02 14:56:34*
%MOMM*%
%LPD*%
G01*
G04 APERTURE LIST*
G04 Aperture macros list*
%AMRoundRect*
0 Rectangle with rounded corners*
0 $1 Rounding radius*
0 $2 $3 $4 $5 $6 $7 $8 $9 X,Y pos of 4 corners*
0 Add a 4 corners polygon primitive as box body*
4,1,4,$2,$3,$4,$5,$6,$7,$8,$9,$2,$3,0*
0 Add four circle primitives for the rounded corners*
1,1,$1+$1,$2,$3*
1,1,$1+$1,$4,$5*
1,1,$1+$1,$6,$7*
1,1,$1+$1,$8,$9*
0 Add four rect primitives between the rounded corners*
20,1,$1+$1,$2,$3,$4,$5,0*
20,1,$1+$1,$4,$5,$6,$7,0*
20,1,$1+$1,$6,$7,$8,$9,0*
20,1,$1+$1,$8,$9,$2,$3,0*%
%AMFreePoly0*
4,1,21,-0.300000,0.075000,-0.294291,0.103701,-0.278033,0.128033,-0.253701,0.144291,-0.225000,0.150000,0.225000,0.150000,0.253701,0.144291,0.278033,0.128033,0.294291,0.103701,0.300000,0.075000,0.300000,-0.075000,0.294291,-0.103701,0.278033,-0.128033,0.253701,-0.144291,0.225000,-0.150000,-0.225000,-0.150000,-0.253701,-0.144291,-0.278033,-0.128033,-0.294291,-0.103701,-0.300000,-0.075000,
-0.300000,0.075000,-0.300000,0.075000,$1*%
%AMFreePoly1*
4,1,21,-0.400000,0.050000,-0.396194,0.069134,-0.385355,0.085355,-0.369134,0.096194,-0.350000,0.100000,0.350000,0.100000,0.369134,0.096194,0.385355,0.085355,0.396194,0.069134,0.400000,0.050000,0.400000,-0.050000,0.396194,-0.069134,0.385355,-0.085355,0.369134,-0.096194,0.350000,-0.100000,-0.350000,-0.100000,-0.369134,-0.096194,-0.385355,-0.085355,-0.396194,-0.069134,-0.400000,-0.050000,
-0.400000,0.050000,-0.400000,0.050000,$1*%
%AMFreePoly2*
4,1,18,-0.350000,0.000000,-0.225000,0.125000,0.337500,0.125000,0.342284,0.124048,0.346339,0.121339,0.349048,0.117284,0.350000,0.112500,0.350000,-0.112500,0.349048,-0.117284,0.346339,-0.121339,0.342284,-0.124048,0.337500,-0.125000,-0.337500,-0.125000,-0.342284,-0.124048,-0.346339,-0.121339,-0.349048,-0.117284,-0.350000,-0.112500,-0.350000,0.000000,-0.350000,0.000000,$1*%
G04 Aperture macros list end*
%ADD10C,0.010000*%
%ADD11C,0.100000*%
%ADD12C,2.000000*%
%ADD13RoundRect,0.250000X-0.650000X0.325000X-0.650000X-0.325000X0.650000X-0.325000X0.650000X0.325000X0*%
%ADD14RoundRect,0.200000X0.275000X-0.200000X0.275000X0.200000X-0.275000X0.200000X-0.275000X-0.200000X0*%
%ADD15RoundRect,0.200000X-0.275000X0.200000X-0.275000X-0.200000X0.275000X-0.200000X0.275000X0.200000X0*%
%ADD16RoundRect,0.218750X-0.218750X-0.381250X0.218750X-0.381250X0.218750X0.381250X-0.218750X0.381250X0*%
%ADD17RoundRect,0.218750X0.256250X-0.218750X0.256250X0.218750X-0.256250X0.218750X-0.256250X-0.218750X0*%
%ADD18R,1.400000X1.200000*%
%ADD19R,0.400000X0.650000*%
%ADD20RoundRect,0.225000X-0.225000X-0.250000X0.225000X-0.250000X0.225000X0.250000X-0.225000X0.250000X0*%
%ADD21RoundRect,0.100000X-0.637500X-0.100000X0.637500X-0.100000X0.637500X0.100000X-0.637500X0.100000X0*%
%ADD22RoundRect,0.200000X-0.200000X-0.275000X0.200000X-0.275000X0.200000X0.275000X-0.200000X0.275000X0*%
%ADD23RoundRect,0.250000X-0.475000X0.250000X-0.475000X-0.250000X0.475000X-0.250000X0.475000X0.250000X0*%
%ADD24R,0.350000X0.300000*%
%ADD25R,0.300000X0.350000*%
%ADD26RoundRect,0.250000X0.275000X0.700000X-0.275000X0.700000X-0.275000X-0.700000X0.275000X-0.700000X0*%
%ADD27RoundRect,0.225000X0.250000X-0.225000X0.250000X0.225000X-0.250000X0.225000X-0.250000X-0.225000X0*%
%ADD28C,5.600000*%
%ADD29R,0.609600X0.228600*%
%ADD30RoundRect,0.135000X0.185000X-0.135000X0.185000X0.135000X-0.185000X0.135000X-0.185000X-0.135000X0*%
%ADD31RoundRect,0.200000X0.200000X0.275000X-0.200000X0.275000X-0.200000X-0.275000X0.200000X-0.275000X0*%
%ADD32R,2.700000X0.800000*%
%ADD33RoundRect,0.225000X0.225000X0.250000X-0.225000X0.250000X-0.225000X-0.250000X0.225000X-0.250000X0*%
%ADD34RoundRect,0.218750X0.218750X0.256250X-0.218750X0.256250X-0.218750X-0.256250X0.218750X-0.256250X0*%
%ADD35RoundRect,0.147500X-0.172500X0.147500X-0.172500X-0.147500X0.172500X-0.147500X0.172500X0.147500X0*%
%ADD36RoundRect,0.140000X-0.140000X-0.170000X0.140000X-0.170000X0.140000X0.170000X-0.140000X0.170000X0*%
%ADD37RoundRect,0.250000X0.475000X-0.250000X0.475000X0.250000X-0.475000X0.250000X-0.475000X-0.250000X0*%
%ADD38R,3.510000X2.620000*%
%ADD39RoundRect,0.150000X-0.150000X0.820000X-0.150000X-0.820000X0.150000X-0.820000X0.150000X0.820000X0*%
%ADD40C,1.600200*%
%ADD41C,3.200400*%
%ADD42R,0.300000X0.600000*%
%ADD43FreePoly0,90.000000*%
%ADD44FreePoly1,0.000000*%
%ADD45FreePoly1,180.000000*%
%ADD46RoundRect,0.200000X0.200000X0.450000X-0.200000X0.450000X-0.200000X-0.450000X0.200000X-0.450000X0*%
%ADD47O,0.800000X1.300000*%
%ADD48RoundRect,0.140000X0.170000X-0.140000X0.170000X0.140000X-0.170000X0.140000X-0.170000X-0.140000X0*%
%ADD49R,1.100000X0.200000*%
%ADD50R,1.000000X0.200000*%
%ADD51RoundRect,0.012500X0.337500X0.112500X-0.337500X0.112500X-0.337500X-0.112500X0.337500X-0.112500X0*%
%ADD52FreePoly2,180.000000*%
%ADD53RoundRect,0.012500X0.112500X-0.337500X0.112500X0.337500X-0.112500X0.337500X-0.112500X-0.337500X0*%
%ADD54RoundRect,0.012500X-0.337500X-0.112500X0.337500X-0.112500X0.337500X0.112500X-0.337500X0.112500X0*%
%ADD55RoundRect,0.012500X-0.112500X0.337500X-0.112500X-0.337500X0.112500X-0.337500X0.112500X0.337500X0*%
%ADD56RoundRect,0.225000X-0.250000X0.225000X-0.250000X-0.225000X0.250000X-0.225000X0.250000X0.225000X0*%
%ADD57RoundRect,0.250000X0.925000X-0.787500X0.925000X0.787500X-0.925000X0.787500X-0.925000X-0.787500X0*%
%ADD58R,1.500000X3.600000*%
%ADD59R,1.295400X0.508000*%
%ADD60R,0.508000X1.295400*%
%ADD61RoundRect,0.218750X0.218750X0.381250X-0.218750X0.381250X-0.218750X-0.381250X0.218750X-0.381250X0*%
%ADD62RoundRect,0.250000X-0.375000X-0.625000X0.375000X-0.625000X0.375000X0.625000X-0.375000X0.625000X0*%
%ADD63RoundRect,0.150000X-0.587500X-0.150000X0.587500X-0.150000X0.587500X0.150000X-0.587500X0.150000X0*%
%ADD64R,2.997200X0.990600*%
%ADD65R,1.092200X0.990600*%
%ADD66C,0.889000*%
%ADD67C,0.711200*%
%ADD68RoundRect,0.150000X-0.512500X-0.150000X0.512500X-0.150000X0.512500X0.150000X-0.512500X0.150000X0*%
%ADD69RoundRect,0.250000X-0.250000X-0.475000X0.250000X-0.475000X0.250000X0.475000X-0.250000X0.475000X0*%
%ADD70RoundRect,0.218750X-0.218750X-0.256250X0.218750X-0.256250X0.218750X0.256250X-0.218750X0.256250X0*%
%ADD71RoundRect,0.135000X-0.185000X0.135000X-0.185000X-0.135000X0.185000X-0.135000X0.185000X0.135000X0*%
%ADD72R,0.406400X0.609600*%
%ADD73R,0.609600X0.406400*%
%ADD74RoundRect,0.250000X0.250000X0.475000X-0.250000X0.475000X-0.250000X-0.475000X0.250000X-0.475000X0*%
%ADD75RoundRect,0.150000X-0.150000X0.512500X-0.150000X-0.512500X0.150000X-0.512500X0.150000X0.512500X0*%
%ADD76R,0.500000X0.375000*%
%ADD77R,0.650000X0.300000*%
%ADD78R,3.600000X1.500000*%
%ADD79R,0.700000X0.230000*%
%ADD80C,0.508000*%
%ADD81R,1.600000X5.700000*%
%ADD82RoundRect,0.250000X-0.625000X0.312500X-0.625000X-0.312500X0.625000X-0.312500X0.625000X0.312500X0*%
%ADD83R,0.700000X0.600000*%
%ADD84R,1.550000X2.400000*%
%ADD85R,0.650000X0.350000*%
%ADD86RoundRect,0.140000X0.140000X0.170000X-0.140000X0.170000X-0.140000X-0.170000X0.140000X-0.170000X0*%
%ADD87RoundRect,0.135000X-0.135000X-0.185000X0.135000X-0.185000X0.135000X0.185000X-0.135000X0.185000X0*%
%ADD88R,1.100000X1.100000*%
%ADD89RoundRect,0.147500X-0.147500X-0.172500X0.147500X-0.172500X0.147500X0.172500X-0.147500X0.172500X0*%
%ADD90C,0.500000*%
G04 APERTURE END LIST*
%TO.C,H5*%
G36*
X146122947Y-136663158D02*
G01*
X145588210Y-136663158D01*
X145588210Y-136930527D01*
X146073025Y-136930527D01*
X146064565Y-137004053D01*
X146058688Y-137039304D01*
X146043756Y-137061385D01*
X146008963Y-137073917D01*
X145943499Y-137080524D01*
X145836557Y-137084828D01*
X145822158Y-137085304D01*
X145588210Y-137093030D01*
X145588210Y-137331579D01*
X146122947Y-137331579D01*
X146122947Y-137492000D01*
X145399846Y-137492000D01*
X145407134Y-137004053D01*
X145414421Y-136516106D01*
X145768684Y-136508645D01*
X146122947Y-136501185D01*
X146122947Y-136663158D01*
G37*
D10*
X146122947Y-136663158D02*
X145588210Y-136663158D01*
X145588210Y-136930527D01*
X146073025Y-136930527D01*
X146064565Y-137004053D01*
X146058688Y-137039304D01*
X146043756Y-137061385D01*
X146008963Y-137073917D01*
X145943499Y-137080524D01*
X145836557Y-137084828D01*
X145822158Y-137085304D01*
X145588210Y-137093030D01*
X145588210Y-137331579D01*
X146122947Y-137331579D01*
X146122947Y-137492000D01*
X145399846Y-137492000D01*
X145407134Y-137004053D01*
X145414421Y-136516106D01*
X145768684Y-136508645D01*
X146122947Y-136501185D01*
X146122947Y-136663158D01*
G36*
X144492000Y-136930527D02*
G01*
X144973263Y-136930527D01*
X144973263Y-136502737D01*
X145160421Y-136502737D01*
X145160421Y-137492000D01*
X144973263Y-137492000D01*
X144973263Y-137090948D01*
X144492000Y-137090948D01*
X144492000Y-137492000D01*
X144331579Y-137492000D01*
X144331579Y-136502737D01*
X144492000Y-136502737D01*
X144492000Y-136930527D01*
G37*
X144492000Y-136930527D02*
X144973263Y-136930527D01*
X144973263Y-136502737D01*
X145160421Y-136502737D01*
X145160421Y-137492000D01*
X144973263Y-137492000D01*
X144973263Y-137090948D01*
X144492000Y-137090948D01*
X144492000Y-137492000D01*
X144331579Y-137492000D01*
X144331579Y-136502737D01*
X144492000Y-136502737D01*
X144492000Y-136930527D01*
G36*
X144171158Y-136582948D02*
G01*
X144168688Y-136628803D01*
X144152506Y-136652670D01*
X144109448Y-136661729D01*
X144026354Y-136663158D01*
X143877053Y-136663158D01*
X143877053Y-137492000D01*
X143689895Y-137492000D01*
X143689895Y-136663158D01*
X143542842Y-136663158D01*
X143458774Y-136661811D01*
X143415018Y-136652985D01*
X143398410Y-136629499D01*
X143395789Y-136584174D01*
X143395789Y-136502737D01*
X144171158Y-136502737D01*
X144171158Y-136582948D01*
G37*
X144171158Y-136582948D02*
X144168688Y-136628803D01*
X144152506Y-136652670D01*
X144109448Y-136661729D01*
X144026354Y-136663158D01*
X143877053Y-136663158D01*
X143877053Y-137492000D01*
X143689895Y-137492000D01*
X143689895Y-136663158D01*
X143542842Y-136663158D01*
X143458774Y-136661811D01*
X143415018Y-136652985D01*
X143398410Y-136629499D01*
X143395789Y-136584174D01*
X143395789Y-136502737D01*
X144171158Y-136502737D01*
X144171158Y-136582948D01*
G36*
X141328606Y-135922757D02*
G01*
X141394585Y-135957430D01*
X141489034Y-136009080D01*
X141603116Y-136072685D01*
X141727992Y-136143223D01*
X141854826Y-136215672D01*
X141974781Y-136285009D01*
X142079019Y-136346214D01*
X142158703Y-136394262D01*
X142204995Y-136424134D01*
X142206784Y-136425434D01*
X142215911Y-136436311D01*
X142213900Y-136450770D01*
X142196929Y-136471287D01*
X142161177Y-136500336D01*
X142102823Y-136540394D01*
X142018043Y-136593936D01*
X141903017Y-136663437D01*
X141753923Y-136751373D01*
X141566939Y-136860220D01*
X141338243Y-136992452D01*
X141275711Y-137028528D01*
X141067354Y-137148628D01*
X140873852Y-137260036D01*
X140700000Y-137360000D01*
X140550593Y-137445769D01*
X140430426Y-137514592D01*
X140344293Y-137563717D01*
X140296990Y-137590395D01*
X140289249Y-137594504D01*
X140265776Y-137581591D01*
X140200813Y-137544695D01*
X140099174Y-137486578D01*
X139965673Y-137410003D01*
X139805124Y-137317733D01*
X139622341Y-137212530D01*
X139422138Y-137097159D01*
X139310746Y-137032911D01*
X139102971Y-136912936D01*
X138909888Y-136801256D01*
X138736349Y-136700691D01*
X138587206Y-136614060D01*
X138467310Y-136544185D01*
X138381513Y-136493886D01*
X138334667Y-136465982D01*
X138327306Y-136461254D01*
X138345850Y-136445591D01*
X138402786Y-136408629D01*
X138489835Y-136355169D01*
X138598722Y-136290017D01*
X138721167Y-136217976D01*
X138848894Y-136143850D01*
X138973625Y-136072443D01*
X139087083Y-136008559D01*
X139180989Y-135957002D01*
X139247068Y-135922575D01*
X139277014Y-135910083D01*
X139306579Y-135922934D01*
X139375083Y-135958840D01*
X139475323Y-136013833D01*
X139600096Y-136083944D01*
X139742199Y-136165204D01*
X139786539Y-136190820D01*
X139931879Y-136274519D01*
X140061467Y-136348274D01*
X140168231Y-136408132D01*
X140245098Y-136450138D01*
X140284997Y-136470339D01*
X140288716Y-136471557D01*
X140316038Y-136458765D01*
X140382509Y-136423018D01*
X140481059Y-136368256D01*
X140604619Y-136298420D01*
X140746121Y-136217449D01*
X140792323Y-136190820D01*
X140938213Y-136107154D01*
X141068645Y-136033422D01*
X141176479Y-135973573D01*
X141254575Y-135931555D01*
X141295792Y-135911317D01*
X141299933Y-135910083D01*
X141328606Y-135922757D01*
G37*
X141328606Y-135922757D02*
X141394585Y-135957430D01*
X141489034Y-136009080D01*
X141603116Y-136072685D01*
X141727992Y-136143223D01*
X141854826Y-136215672D01*
X141974781Y-136285009D01*
X142079019Y-136346214D01*
X142158703Y-136394262D01*
X142204995Y-136424134D01*
X142206784Y-136425434D01*
X142215911Y-136436311D01*
X142213900Y-136450770D01*
X142196929Y-136471287D01*
X142161177Y-136500336D01*
X142102823Y-136540394D01*
X142018043Y-136593936D01*
X141903017Y-136663437D01*
X141753923Y-136751373D01*
X141566939Y-136860220D01*
X141338243Y-136992452D01*
X141275711Y-137028528D01*
X141067354Y-137148628D01*
X140873852Y-137260036D01*
X140700000Y-137360000D01*
X140550593Y-137445769D01*
X140430426Y-137514592D01*
X140344293Y-137563717D01*
X140296990Y-137590395D01*
X140289249Y-137594504D01*
X140265776Y-137581591D01*
X140200813Y-137544695D01*
X140099174Y-137486578D01*
X139965673Y-137410003D01*
X139805124Y-137317733D01*
X139622341Y-137212530D01*
X139422138Y-137097159D01*
X139310746Y-137032911D01*
X139102971Y-136912936D01*
X138909888Y-136801256D01*
X138736349Y-136700691D01*
X138587206Y-136614060D01*
X138467310Y-136544185D01*
X138381513Y-136493886D01*
X138334667Y-136465982D01*
X138327306Y-136461254D01*
X138345850Y-136445591D01*
X138402786Y-136408629D01*
X138489835Y-136355169D01*
X138598722Y-136290017D01*
X138721167Y-136217976D01*
X138848894Y-136143850D01*
X138973625Y-136072443D01*
X139087083Y-136008559D01*
X139180989Y-135957002D01*
X139247068Y-135922575D01*
X139277014Y-135910083D01*
X139306579Y-135922934D01*
X139375083Y-135958840D01*
X139475323Y-136013833D01*
X139600096Y-136083944D01*
X139742199Y-136165204D01*
X139786539Y-136190820D01*
X139931879Y-136274519D01*
X140061467Y-136348274D01*
X140168231Y-136408132D01*
X140245098Y-136450138D01*
X140284997Y-136470339D01*
X140288716Y-136471557D01*
X140316038Y-136458765D01*
X140382509Y-136423018D01*
X140481059Y-136368256D01*
X140604619Y-136298420D01*
X140746121Y-136217449D01*
X140792323Y-136190820D01*
X140938213Y-136107154D01*
X141068645Y-136033422D01*
X141176479Y-135973573D01*
X141254575Y-135931555D01*
X141295792Y-135911317D01*
X141299933Y-135910083D01*
X141328606Y-135922757D01*
G36*
X147451324Y-137788780D02*
G01*
X147484475Y-137800777D01*
X147521751Y-137828055D01*
X147569281Y-137876574D01*
X147633193Y-137952294D01*
X147719617Y-138061174D01*
X147783801Y-138143577D01*
X148061368Y-138501048D01*
X148076246Y-137786106D01*
X148261895Y-137786106D01*
X148261895Y-138775369D01*
X148159237Y-138775369D01*
X148120203Y-138773798D01*
X148086284Y-138765072D01*
X148051065Y-138743170D01*
X148008127Y-138702073D01*
X147951054Y-138635761D01*
X147873429Y-138538212D01*
X147784922Y-138424206D01*
X147513263Y-138073043D01*
X147513263Y-138775369D01*
X147326105Y-138775369D01*
X147326105Y-137786106D01*
X147416169Y-137786106D01*
X147451324Y-137788780D01*
G37*
X147451324Y-137788780D02*
X147484475Y-137800777D01*
X147521751Y-137828055D01*
X147569281Y-137876574D01*
X147633193Y-137952294D01*
X147719617Y-138061174D01*
X147783801Y-138143577D01*
X148061368Y-138501048D01*
X148076246Y-137786106D01*
X148261895Y-137786106D01*
X148261895Y-138775369D01*
X148159237Y-138775369D01*
X148120203Y-138773798D01*
X148086284Y-138765072D01*
X148051065Y-138743170D01*
X148008127Y-138702073D01*
X147951054Y-138635761D01*
X147873429Y-138538212D01*
X147784922Y-138424206D01*
X147513263Y-138073043D01*
X147513263Y-138775369D01*
X147326105Y-138775369D01*
X147326105Y-137786106D01*
X147416169Y-137786106D01*
X147451324Y-137788780D01*
G36*
X146417053Y-138213895D02*
G01*
X146898316Y-138213895D01*
X146898316Y-137786106D01*
X147085474Y-137786106D01*
X147085474Y-138775369D01*
X146898316Y-138775369D01*
X146898316Y-138374316D01*
X146417053Y-138374316D01*
X146417053Y-138775369D01*
X146256631Y-138775369D01*
X146256631Y-137786106D01*
X146417053Y-137786106D01*
X146417053Y-138213895D01*
G37*
X146417053Y-138213895D02*
X146898316Y-138213895D01*
X146898316Y-137786106D01*
X147085474Y-137786106D01*
X147085474Y-138775369D01*
X146898316Y-138775369D01*
X146898316Y-138374316D01*
X146417053Y-138374316D01*
X146417053Y-138775369D01*
X146256631Y-138775369D01*
X146256631Y-137786106D01*
X146417053Y-137786106D01*
X146417053Y-138213895D01*
G36*
X145026737Y-137946527D02*
G01*
X144492000Y-137946527D01*
X144492000Y-138213895D01*
X144973263Y-138213895D01*
X144973263Y-138374316D01*
X144492000Y-138374316D01*
X144492000Y-138613077D01*
X144766053Y-138620697D01*
X145040105Y-138628316D01*
X145048565Y-138701842D01*
X145057025Y-138775369D01*
X144331579Y-138775369D01*
X144331579Y-137786106D01*
X145026737Y-137786106D01*
X145026737Y-137946527D01*
G37*
X145026737Y-137946527D02*
X144492000Y-137946527D01*
X144492000Y-138213895D01*
X144973263Y-138213895D01*
X144973263Y-138374316D01*
X144492000Y-138374316D01*
X144492000Y-138613077D01*
X144766053Y-138620697D01*
X145040105Y-138628316D01*
X145048565Y-138701842D01*
X145057025Y-138775369D01*
X144331579Y-138775369D01*
X144331579Y-137786106D01*
X145026737Y-137786106D01*
X145026737Y-137946527D01*
G36*
X144171158Y-137866316D02*
G01*
X144168688Y-137912171D01*
X144152506Y-137936038D01*
X144109448Y-137945097D01*
X144026354Y-137946527D01*
X143877053Y-137946527D01*
X143877053Y-138775369D01*
X143689895Y-138775369D01*
X143689895Y-137946527D01*
X143542842Y-137946527D01*
X143458774Y-137945180D01*
X143415018Y-137936353D01*
X143398410Y-137912867D01*
X143395789Y-137867543D01*
X143395789Y-137786106D01*
X144171158Y-137786106D01*
X144171158Y-137866316D01*
G37*
X144171158Y-137866316D02*
X144168688Y-137912171D01*
X144152506Y-137936038D01*
X144109448Y-137945097D01*
X144026354Y-137946527D01*
X143877053Y-137946527D01*
X143877053Y-138775369D01*
X143689895Y-138775369D01*
X143689895Y-137946527D01*
X143542842Y-137946527D01*
X143458774Y-137945180D01*
X143415018Y-137936353D01*
X143398410Y-137912867D01*
X143395789Y-137867543D01*
X143395789Y-137786106D01*
X144171158Y-137786106D01*
X144171158Y-137866316D01*
G36*
X148494373Y-138072337D02*
G01*
X148569839Y-137951589D01*
X148639984Y-137886957D01*
X148794697Y-137800133D01*
X148952169Y-137764888D01*
X149107201Y-137781116D01*
X149254598Y-137848713D01*
X149322713Y-137900778D01*
X149424620Y-138018309D01*
X149479230Y-138154395D01*
X149491789Y-138280737D01*
X149471300Y-138438264D01*
X149406930Y-138569555D01*
X149322713Y-138660696D01*
X149181090Y-138751992D01*
X149024055Y-138794587D01*
X148860491Y-138786481D01*
X148814946Y-138774918D01*
X148679137Y-138709600D01*
X148573697Y-138610459D01*
X148500563Y-138487328D01*
X148461672Y-138350041D01*
X148459423Y-138232428D01*
X148642711Y-138232428D01*
X148644584Y-138350157D01*
X148680890Y-138460714D01*
X148751837Y-138552108D01*
X148830579Y-138602045D01*
X148925685Y-138634476D01*
X149006175Y-138635500D01*
X149082312Y-138613167D01*
X149199572Y-138542955D01*
X149280042Y-138439013D01*
X149304390Y-138375215D01*
X149315346Y-138246505D01*
X149282635Y-138130087D01*
X149214753Y-138033653D01*
X149120195Y-137964899D01*
X149007457Y-137931518D01*
X148885034Y-137941205D01*
X148841644Y-137956121D01*
X148741447Y-138023420D01*
X148675067Y-138119519D01*
X148642711Y-138232428D01*
X148459423Y-138232428D01*
X148458963Y-138208433D01*
X148494373Y-138072337D01*
G37*
X148494373Y-138072337D02*
X148569839Y-137951589D01*
X148639984Y-137886957D01*
X148794697Y-137800133D01*
X148952169Y-137764888D01*
X149107201Y-137781116D01*
X149254598Y-137848713D01*
X149322713Y-137900778D01*
X149424620Y-138018309D01*
X149479230Y-138154395D01*
X149491789Y-138280737D01*
X149471300Y-138438264D01*
X149406930Y-138569555D01*
X149322713Y-138660696D01*
X149181090Y-138751992D01*
X149024055Y-138794587D01*
X148860491Y-138786481D01*
X148814946Y-138774918D01*
X148679137Y-138709600D01*
X148573697Y-138610459D01*
X148500563Y-138487328D01*
X148461672Y-138350041D01*
X148459423Y-138232428D01*
X148642711Y-138232428D01*
X148644584Y-138350157D01*
X148680890Y-138460714D01*
X148751837Y-138552108D01*
X148830579Y-138602045D01*
X148925685Y-138634476D01*
X149006175Y-138635500D01*
X149082312Y-138613167D01*
X149199572Y-138542955D01*
X149280042Y-138439013D01*
X149304390Y-138375215D01*
X149315346Y-138246505D01*
X149282635Y-138130087D01*
X149214753Y-138033653D01*
X149120195Y-137964899D01*
X149007457Y-137931518D01*
X148885034Y-137941205D01*
X148841644Y-137956121D01*
X148741447Y-138023420D01*
X148675067Y-138119519D01*
X148642711Y-138232428D01*
X148459423Y-138232428D01*
X148458963Y-138208433D01*
X148494373Y-138072337D01*
G36*
X145754887Y-137769458D02*
G01*
X145873293Y-137800306D01*
X145977832Y-137851003D01*
X146030238Y-137894014D01*
X146062061Y-137935872D01*
X146056203Y-137967940D01*
X146031069Y-137998121D01*
X145997774Y-138030478D01*
X145967841Y-138034549D01*
X145919941Y-138010353D01*
X145899925Y-137998221D01*
X145780176Y-137952504D01*
X145652674Y-137948695D01*
X145531887Y-137983673D01*
X145432281Y-138054314D01*
X145391308Y-138108013D01*
X145354682Y-138215662D01*
X145356330Y-138334197D01*
X145392089Y-138447239D01*
X145457795Y-138538411D01*
X145510277Y-138576020D01*
X145619059Y-138609763D01*
X145738750Y-138612425D01*
X145847379Y-138585092D01*
X145895283Y-138557013D01*
X145968935Y-138499078D01*
X146017321Y-138563226D01*
X146045499Y-138617623D01*
X146034961Y-138663689D01*
X145981065Y-138708641D01*
X145895684Y-138752282D01*
X145738248Y-138795638D01*
X145576565Y-138787808D01*
X145466788Y-138751849D01*
X145331913Y-138666041D01*
X145237734Y-138555521D01*
X145182770Y-138428448D01*
X145165540Y-138292982D01*
X145184564Y-138157282D01*
X145238361Y-138029508D01*
X145325450Y-137917818D01*
X145444349Y-137830374D01*
X145593579Y-137775332D01*
X145645690Y-137766135D01*
X145754887Y-137769458D01*
G37*
X145754887Y-137769458D02*
X145873293Y-137800306D01*
X145977832Y-137851003D01*
X146030238Y-137894014D01*
X146062061Y-137935872D01*
X146056203Y-137967940D01*
X146031069Y-137998121D01*
X145997774Y-138030478D01*
X145967841Y-138034549D01*
X145919941Y-138010353D01*
X145899925Y-137998221D01*
X145780176Y-137952504D01*
X145652674Y-137948695D01*
X145531887Y-137983673D01*
X145432281Y-138054314D01*
X145391308Y-138108013D01*
X145354682Y-138215662D01*
X145356330Y-138334197D01*
X145392089Y-138447239D01*
X145457795Y-138538411D01*
X145510277Y-138576020D01*
X145619059Y-138609763D01*
X145738750Y-138612425D01*
X145847379Y-138585092D01*
X145895283Y-138557013D01*
X145968935Y-138499078D01*
X146017321Y-138563226D01*
X146045499Y-138617623D01*
X146034961Y-138663689D01*
X145981065Y-138708641D01*
X145895684Y-138752282D01*
X145738248Y-138795638D01*
X145576565Y-138787808D01*
X145466788Y-138751849D01*
X145331913Y-138666041D01*
X145237734Y-138555521D01*
X145182770Y-138428448D01*
X145165540Y-138292982D01*
X145184564Y-138157282D01*
X145238361Y-138029508D01*
X145325450Y-137917818D01*
X145444349Y-137830374D01*
X145593579Y-137775332D01*
X145645690Y-137766135D01*
X145754887Y-137769458D01*
G36*
X142402600Y-136645944D02*
G01*
X142406491Y-136721044D01*
X142409606Y-136832895D01*
X142411722Y-136973139D01*
X142412617Y-137133414D01*
X142412632Y-137157439D01*
X142411720Y-137351573D01*
X142408751Y-137497859D01*
X142403377Y-137601894D01*
X142395249Y-137669274D01*
X142384018Y-137705598D01*
X142377999Y-137713188D01*
X142345006Y-137734890D01*
X142273231Y-137778618D01*
X142170304Y-137839840D01*
X142043856Y-137914024D01*
X141901516Y-137996638D01*
X141876683Y-138010965D01*
X141410000Y-138280000D01*
X141396632Y-138872742D01*
X141383263Y-139465484D01*
X140907456Y-139740276D01*
X140731095Y-139840247D01*
X140592087Y-139914991D01*
X140492471Y-139963496D01*
X140434286Y-139984749D01*
X140419206Y-139982645D01*
X140416694Y-139949696D01*
X140414683Y-139869055D01*
X140413201Y-139746503D01*
X140412276Y-139587820D01*
X140411935Y-139398785D01*
X140412207Y-139185178D01*
X140413118Y-138952780D01*
X140413751Y-138842538D01*
X140420737Y-137734853D01*
X141402210Y-137168168D01*
X141610784Y-137048262D01*
X141804901Y-136937671D01*
X141979722Y-136839077D01*
X142130408Y-136755164D01*
X142252119Y-136688614D01*
X142340018Y-136642112D01*
X142389264Y-136618339D01*
X142398157Y-136615957D01*
X142402600Y-136645944D01*
G37*
X142402600Y-136645944D02*
X142406491Y-136721044D01*
X142409606Y-136832895D01*
X142411722Y-136973139D01*
X142412617Y-137133414D01*
X142412632Y-137157439D01*
X142411720Y-137351573D01*
X142408751Y-137497859D01*
X142403377Y-137601894D01*
X142395249Y-137669274D01*
X142384018Y-137705598D01*
X142377999Y-137713188D01*
X142345006Y-137734890D01*
X142273231Y-137778618D01*
X142170304Y-137839840D01*
X142043856Y-137914024D01*
X141901516Y-137996638D01*
X141876683Y-138010965D01*
X141410000Y-138280000D01*
X141396632Y-138872742D01*
X141383263Y-139465484D01*
X140907456Y-139740276D01*
X140731095Y-139840247D01*
X140592087Y-139914991D01*
X140492471Y-139963496D01*
X140434286Y-139984749D01*
X140419206Y-139982645D01*
X140416694Y-139949696D01*
X140414683Y-139869055D01*
X140413201Y-139746503D01*
X140412276Y-139587820D01*
X140411935Y-139398785D01*
X140412207Y-139185178D01*
X140413118Y-138952780D01*
X140413751Y-138842538D01*
X140420737Y-137734853D01*
X141402210Y-137168168D01*
X141610784Y-137048262D01*
X141804901Y-136937671D01*
X141979722Y-136839077D01*
X142130408Y-136755164D01*
X142252119Y-136688614D01*
X142340018Y-136642112D01*
X142389264Y-136618339D01*
X142398157Y-136615957D01*
X142402600Y-136645944D01*
G36*
X138268298Y-136630048D02*
G01*
X138304244Y-136651696D01*
X138381160Y-136696912D01*
X138493680Y-136762577D01*
X138636436Y-136845571D01*
X138804061Y-136942777D01*
X138991188Y-137051073D01*
X139192449Y-137167342D01*
X139246555Y-137198565D01*
X139448436Y-137315599D01*
X139635521Y-137425137D01*
X139802786Y-137524154D01*
X139945208Y-137609630D01*
X140057763Y-137678541D01*
X140135426Y-137727866D01*
X140173176Y-137754582D01*
X140175959Y-137757715D01*
X140178219Y-137789990D01*
X140180000Y-137870000D01*
X140181279Y-137992004D01*
X140182036Y-138150267D01*
X140182249Y-138339049D01*
X140181895Y-138552612D01*
X140180953Y-138785219D01*
X140180281Y-138902754D01*
X140173298Y-140018332D01*
X139699216Y-139745925D01*
X139225133Y-139473519D01*
X139217952Y-138884452D01*
X139210772Y-138295386D01*
X138709456Y-138004904D01*
X138208140Y-137714421D01*
X138208140Y-136591221D01*
X138268298Y-136630048D01*
G37*
X138268298Y-136630048D02*
X138304244Y-136651696D01*
X138381160Y-136696912D01*
X138493680Y-136762577D01*
X138636436Y-136845571D01*
X138804061Y-136942777D01*
X138991188Y-137051073D01*
X139192449Y-137167342D01*
X139246555Y-137198565D01*
X139448436Y-137315599D01*
X139635521Y-137425137D01*
X139802786Y-137524154D01*
X139945208Y-137609630D01*
X140057763Y-137678541D01*
X140135426Y-137727866D01*
X140173176Y-137754582D01*
X140175959Y-137757715D01*
X140178219Y-137789990D01*
X140180000Y-137870000D01*
X140181279Y-137992004D01*
X140182036Y-138150267D01*
X140182249Y-138339049D01*
X140181895Y-138552612D01*
X140180953Y-138785219D01*
X140180281Y-138902754D01*
X140173298Y-140018332D01*
X139699216Y-139745925D01*
X139225133Y-139473519D01*
X139217952Y-138884452D01*
X139210772Y-138295386D01*
X138709456Y-138004904D01*
X138208140Y-137714421D01*
X138208140Y-136591221D01*
X138268298Y-136630048D01*
G36*
X150374105Y-139229895D02*
G01*
X149866105Y-139229895D01*
X149866105Y-139497264D01*
X150320631Y-139497264D01*
X150320631Y-139657685D01*
X149866105Y-139657685D01*
X149866105Y-139898316D01*
X150400842Y-139898316D01*
X150400842Y-140058737D01*
X149678947Y-140058737D01*
X149678947Y-139069474D01*
X150374105Y-139069474D01*
X150374105Y-139229895D01*
G37*
X150374105Y-139229895D02*
X149866105Y-139229895D01*
X149866105Y-139497264D01*
X150320631Y-139497264D01*
X150320631Y-139657685D01*
X149866105Y-139657685D01*
X149866105Y-139898316D01*
X150400842Y-139898316D01*
X150400842Y-140058737D01*
X149678947Y-140058737D01*
X149678947Y-139069474D01*
X150374105Y-139069474D01*
X150374105Y-139229895D01*
G36*
X149539944Y-139084591D02*
G01*
X149534925Y-139114437D01*
X149519619Y-139154187D01*
X149487898Y-139234548D01*
X149443336Y-139346533D01*
X149389510Y-139481157D01*
X149337522Y-139610703D01*
X149157579Y-140058354D01*
X149056477Y-140058546D01*
X148978236Y-140049031D01*
X148940286Y-140017473D01*
X148937937Y-140011948D01*
X148922469Y-139972784D01*
X148890367Y-139893132D01*
X148845275Y-139781985D01*
X148790841Y-139648333D01*
X148740051Y-139524000D01*
X148559603Y-139082842D01*
X148626902Y-139074164D01*
X148691832Y-139072227D01*
X148727773Y-139078369D01*
X148749531Y-139106616D01*
X148786213Y-139175322D01*
X148833267Y-139275147D01*
X148886141Y-139396748D01*
X148904357Y-139440714D01*
X148956374Y-139564599D01*
X149001964Y-139667145D01*
X149037191Y-139739952D01*
X149058118Y-139774617D01*
X149061484Y-139776060D01*
X149076258Y-139747408D01*
X149106964Y-139678648D01*
X149149499Y-139579251D01*
X149199761Y-139458689D01*
X149214674Y-139422394D01*
X149353750Y-139082842D01*
X149453068Y-139074332D01*
X149516966Y-139072148D01*
X149539944Y-139084591D01*
G37*
X149539944Y-139084591D02*
X149534925Y-139114437D01*
X149519619Y-139154187D01*
X149487898Y-139234548D01*
X149443336Y-139346533D01*
X149389510Y-139481157D01*
X149337522Y-139610703D01*
X149157579Y-140058354D01*
X149056477Y-140058546D01*
X148978236Y-140049031D01*
X148940286Y-140017473D01*
X148937937Y-140011948D01*
X148922469Y-139972784D01*
X148890367Y-139893132D01*
X148845275Y-139781985D01*
X148790841Y-139648333D01*
X148740051Y-139524000D01*
X148559603Y-139082842D01*
X148626902Y-139074164D01*
X148691832Y-139072227D01*
X148727773Y-139078369D01*
X148749531Y-139106616D01*
X148786213Y-139175322D01*
X148833267Y-139275147D01*
X148886141Y-139396748D01*
X148904357Y-139440714D01*
X148956374Y-139564599D01*
X149001964Y-139667145D01*
X149037191Y-139739952D01*
X149058118Y-139774617D01*
X149061484Y-139776060D01*
X149076258Y-139747408D01*
X149106964Y-139678648D01*
X149149499Y-139579251D01*
X149199761Y-139458689D01*
X149214674Y-139422394D01*
X149353750Y-139082842D01*
X149453068Y-139074332D01*
X149516966Y-139072148D01*
X149539944Y-139084591D01*
G36*
X148422316Y-140058737D02*
G01*
X148261895Y-140058737D01*
X148261895Y-139069474D01*
X148422316Y-139069474D01*
X148422316Y-140058737D01*
G37*
X148422316Y-140058737D02*
X148261895Y-140058737D01*
X148261895Y-139069474D01*
X148422316Y-139069474D01*
X148422316Y-140058737D01*
G36*
X148101474Y-139149685D02*
G01*
X148099004Y-139195540D01*
X148082822Y-139219407D01*
X148039764Y-139228466D01*
X147956670Y-139229895D01*
X147807368Y-139229895D01*
X147807368Y-140058737D01*
X147620210Y-140058737D01*
X147620210Y-139229895D01*
X147473158Y-139229895D01*
X147389090Y-139228548D01*
X147345333Y-139219721D01*
X147328726Y-139196235D01*
X147326105Y-139150911D01*
X147326105Y-139069474D01*
X148101474Y-139069474D01*
X148101474Y-139149685D01*
G37*
X148101474Y-139149685D02*
X148099004Y-139195540D01*
X148082822Y-139219407D01*
X148039764Y-139228466D01*
X147956670Y-139229895D01*
X147807368Y-139229895D01*
X147807368Y-140058737D01*
X147620210Y-140058737D01*
X147620210Y-139229895D01*
X147473158Y-139229895D01*
X147389090Y-139228548D01*
X147345333Y-139219721D01*
X147328726Y-139196235D01*
X147326105Y-139150911D01*
X147326105Y-139069474D01*
X148101474Y-139069474D01*
X148101474Y-139149685D01*
G36*
X146573512Y-139550737D02*
G01*
X146780889Y-139082842D01*
X146875430Y-139074799D01*
X146923278Y-139072634D01*
X146956544Y-139082506D01*
X146984395Y-139114115D01*
X147016002Y-139177161D01*
X147052351Y-139261957D01*
X147097935Y-139368397D01*
X147157058Y-139504233D01*
X147221262Y-139650122D01*
X147269203Y-139757948D01*
X147403676Y-140058737D01*
X147309431Y-140058737D01*
X147247134Y-140053095D01*
X147208840Y-140026757D01*
X147176148Y-139965603D01*
X147170383Y-139952062D01*
X147125579Y-139845386D01*
X146876112Y-139845114D01*
X146626646Y-139844842D01*
X146584635Y-139951790D01*
X146552774Y-140020044D01*
X146517555Y-140050938D01*
X146461494Y-140058687D01*
X146453102Y-140058737D01*
X146393266Y-140053500D01*
X146365177Y-140040691D01*
X146364857Y-140038685D01*
X146375619Y-140009055D01*
X146404820Y-139938501D01*
X146449083Y-139834921D01*
X146505032Y-139706210D01*
X146520769Y-139670466D01*
X146711158Y-139670466D01*
X146735539Y-139677604D01*
X146799281Y-139682635D01*
X146883270Y-139684421D01*
X147055383Y-139684421D01*
X146973954Y-139503948D01*
X146933238Y-139415189D01*
X146900915Y-139347466D01*
X146883225Y-139313804D01*
X146882289Y-139312570D01*
X146868310Y-139330021D01*
X146839698Y-139382337D01*
X146803215Y-139455379D01*
X146765624Y-139535003D01*
X146733685Y-139607069D01*
X146714160Y-139657436D01*
X146711158Y-139670466D01*
X146520769Y-139670466D01*
X146569289Y-139560268D01*
X146573512Y-139550737D01*
G37*
X146573512Y-139550737D02*
X146780889Y-139082842D01*
X146875430Y-139074799D01*
X146923278Y-139072634D01*
X146956544Y-139082506D01*
X146984395Y-139114115D01*
X147016002Y-139177161D01*
X147052351Y-139261957D01*
X147097935Y-139368397D01*
X147157058Y-139504233D01*
X147221262Y-139650122D01*
X147269203Y-139757948D01*
X147403676Y-140058737D01*
X147309431Y-140058737D01*
X147247134Y-140053095D01*
X147208840Y-140026757D01*
X147176148Y-139965603D01*
X147170383Y-139952062D01*
X147125579Y-139845386D01*
X146876112Y-139845114D01*
X146626646Y-139844842D01*
X146584635Y-139951790D01*
X146552774Y-140020044D01*
X146517555Y-140050938D01*
X146461494Y-140058687D01*
X146453102Y-140058737D01*
X146393266Y-140053500D01*
X146365177Y-140040691D01*
X146364857Y-140038685D01*
X146375619Y-140009055D01*
X146404820Y-139938501D01*
X146449083Y-139834921D01*
X146505032Y-139706210D01*
X146520769Y-139670466D01*
X146711158Y-139670466D01*
X146735539Y-139677604D01*
X146799281Y-139682635D01*
X146883270Y-139684421D01*
X147055383Y-139684421D01*
X146973954Y-139503948D01*
X146933238Y-139415189D01*
X146900915Y-139347466D01*
X146883225Y-139313804D01*
X146882289Y-139312570D01*
X146868310Y-139330021D01*
X146839698Y-139382337D01*
X146803215Y-139455379D01*
X146765624Y-139535003D01*
X146733685Y-139607069D01*
X146714160Y-139657436D01*
X146711158Y-139670466D01*
X146520769Y-139670466D01*
X146569289Y-139560268D01*
X146573512Y-139550737D01*
G36*
X146229895Y-139229895D02*
G01*
X145695158Y-139229895D01*
X145695158Y-139497264D01*
X146176421Y-139497264D01*
X146176421Y-139657685D01*
X145695158Y-139657685D01*
X145695158Y-139896445D01*
X145969210Y-139904065D01*
X146243263Y-139911685D01*
X146260183Y-140058737D01*
X145534737Y-140058737D01*
X145534737Y-139069474D01*
X146229895Y-139069474D01*
X146229895Y-139229895D01*
G37*
X146229895Y-139229895D02*
X145695158Y-139229895D01*
X145695158Y-139497264D01*
X146176421Y-139497264D01*
X146176421Y-139657685D01*
X145695158Y-139657685D01*
X145695158Y-139896445D01*
X145969210Y-139904065D01*
X146243263Y-139911685D01*
X146260183Y-140058737D01*
X145534737Y-140058737D01*
X145534737Y-139069474D01*
X146229895Y-139069474D01*
X146229895Y-139229895D01*
G36*
X144752684Y-139069623D02*
G01*
X144937489Y-139076212D01*
X145076562Y-139097655D01*
X145176292Y-139136867D01*
X145243072Y-139196760D01*
X145283292Y-139280251D01*
X145292300Y-139315695D01*
X145298057Y-139450587D01*
X145259772Y-139571597D01*
X145189008Y-139659400D01*
X145107502Y-139727958D01*
X145227847Y-139893348D01*
X145348192Y-140058737D01*
X145234254Y-140058092D01*
X145173095Y-140055086D01*
X145129255Y-140040380D01*
X145089186Y-140004173D01*
X145039338Y-139936663D01*
X145013368Y-139898316D01*
X144955718Y-139815383D01*
X144913314Y-139767715D01*
X144872624Y-139745511D01*
X144820115Y-139738969D01*
X144792789Y-139738541D01*
X144679158Y-139737895D01*
X144679158Y-140058737D01*
X144518737Y-140058737D01*
X144518737Y-139577474D01*
X144679158Y-139577474D01*
X144852947Y-139577474D01*
X144957890Y-139573674D01*
X145025506Y-139559801D01*
X145071563Y-139532145D01*
X145080210Y-139524000D01*
X145120661Y-139460305D01*
X145133684Y-139403685D01*
X145114394Y-139320211D01*
X145054630Y-139264773D01*
X144951549Y-139235614D01*
X144852947Y-139229895D01*
X144679158Y-139229895D01*
X144679158Y-139577474D01*
X144518737Y-139577474D01*
X144518737Y-139069474D01*
X144752684Y-139069623D01*
G37*
X144752684Y-139069623D02*
X144937489Y-139076212D01*
X145076562Y-139097655D01*
X145176292Y-139136867D01*
X145243072Y-139196760D01*
X145283292Y-139280251D01*
X145292300Y-139315695D01*
X145298057Y-139450587D01*
X145259772Y-139571597D01*
X145189008Y-139659400D01*
X145107502Y-139727958D01*
X145227847Y-139893348D01*
X145348192Y-140058737D01*
X145234254Y-140058092D01*
X145173095Y-140055086D01*
X145129255Y-140040380D01*
X145089186Y-140004173D01*
X145039338Y-139936663D01*
X145013368Y-139898316D01*
X144955718Y-139815383D01*
X144913314Y-139767715D01*
X144872624Y-139745511D01*
X144820115Y-139738969D01*
X144792789Y-139738541D01*
X144679158Y-139737895D01*
X144679158Y-140058737D01*
X144518737Y-140058737D01*
X144518737Y-139577474D01*
X144679158Y-139577474D01*
X144852947Y-139577474D01*
X144957890Y-139573674D01*
X145025506Y-139559801D01*
X145071563Y-139532145D01*
X145080210Y-139524000D01*
X145120661Y-139460305D01*
X145133684Y-139403685D01*
X145114394Y-139320211D01*
X145054630Y-139264773D01*
X144951549Y-139235614D01*
X144852947Y-139229895D01*
X144679158Y-139229895D01*
X144679158Y-139577474D01*
X144518737Y-139577474D01*
X144518737Y-139069474D01*
X144752684Y-139069623D01*
G36*
X151033279Y-139063890D02*
G01*
X151145396Y-139093803D01*
X151169526Y-139105163D01*
X151233234Y-139144134D01*
X151252855Y-139178386D01*
X151234055Y-139222797D01*
X151221268Y-139241012D01*
X151198036Y-139267411D01*
X151169919Y-139275463D01*
X151121350Y-139265045D01*
X151046882Y-139239634D01*
X150963156Y-139212302D01*
X150909199Y-139204487D01*
X150865316Y-139215400D01*
X150834718Y-139231117D01*
X150774157Y-139287916D01*
X150761789Y-139337629D01*
X150767183Y-139371135D01*
X150789770Y-139398730D01*
X150839161Y-139426638D01*
X150924967Y-139461088D01*
X150987176Y-139483657D01*
X151132807Y-139544120D01*
X151230414Y-139606919D01*
X151285339Y-139677728D01*
X151302928Y-139762225D01*
X151298904Y-139814738D01*
X151257947Y-139927013D01*
X151177999Y-140010950D01*
X151067344Y-140063198D01*
X150934265Y-140080410D01*
X150787047Y-140059239D01*
X150735053Y-140042632D01*
X150655775Y-140006809D01*
X150592744Y-139966763D01*
X150582498Y-139957621D01*
X150552547Y-139920674D01*
X150557296Y-139887822D01*
X150582498Y-139851748D01*
X150628105Y-139791811D01*
X150759636Y-139858432D01*
X150844019Y-139896128D01*
X150917205Y-139920278D01*
X150947529Y-139925053D01*
X151019977Y-139907538D01*
X151083861Y-139864574D01*
X151120097Y-139810531D01*
X151122737Y-139793126D01*
X151113124Y-139748412D01*
X151078213Y-139712531D01*
X151008892Y-139679467D01*
X150896050Y-139643203D01*
X150895474Y-139643036D01*
X150766083Y-139600253D01*
X150679095Y-139555976D01*
X150623808Y-139502437D01*
X150589521Y-139431868D01*
X150585024Y-139417662D01*
X150573851Y-139303247D01*
X150613762Y-139201627D01*
X150703676Y-139111984D01*
X150792067Y-139073279D01*
X150908718Y-139057148D01*
X151033279Y-139063890D01*
G37*
X151033279Y-139063890D02*
X151145396Y-139093803D01*
X151169526Y-139105163D01*
X151233234Y-139144134D01*
X151252855Y-139178386D01*
X151234055Y-139222797D01*
X151221268Y-139241012D01*
X151198036Y-139267411D01*
X151169919Y-139275463D01*
X151121350Y-139265045D01*
X151046882Y-139239634D01*
X150963156Y-139212302D01*
X150909199Y-139204487D01*
X150865316Y-139215400D01*
X150834718Y-139231117D01*
X150774157Y-139287916D01*
X150761789Y-139337629D01*
X150767183Y-139371135D01*
X150789770Y-139398730D01*
X150839161Y-139426638D01*
X150924967Y-139461088D01*
X150987176Y-139483657D01*
X151132807Y-139544120D01*
X151230414Y-139606919D01*
X151285339Y-139677728D01*
X151302928Y-139762225D01*
X151298904Y-139814738D01*
X151257947Y-139927013D01*
X151177999Y-140010950D01*
X151067344Y-140063198D01*
X150934265Y-140080410D01*
X150787047Y-140059239D01*
X150735053Y-140042632D01*
X150655775Y-140006809D01*
X150592744Y-139966763D01*
X150582498Y-139957621D01*
X150552547Y-139920674D01*
X150557296Y-139887822D01*
X150582498Y-139851748D01*
X150628105Y-139791811D01*
X150759636Y-139858432D01*
X150844019Y-139896128D01*
X150917205Y-139920278D01*
X150947529Y-139925053D01*
X151019977Y-139907538D01*
X151083861Y-139864574D01*
X151120097Y-139810531D01*
X151122737Y-139793126D01*
X151113124Y-139748412D01*
X151078213Y-139712531D01*
X151008892Y-139679467D01*
X150896050Y-139643203D01*
X150895474Y-139643036D01*
X150766083Y-139600253D01*
X150679095Y-139555976D01*
X150623808Y-139502437D01*
X150589521Y-139431868D01*
X150585024Y-139417662D01*
X150573851Y-139303247D01*
X150613762Y-139201627D01*
X150703676Y-139111984D01*
X150792067Y-139073279D01*
X150908718Y-139057148D01*
X151033279Y-139063890D01*
G36*
X144055385Y-139058477D02*
G01*
X144192645Y-139111971D01*
X144279852Y-139160070D01*
X144321660Y-139199159D01*
X144323034Y-139238204D01*
X144289030Y-139286069D01*
X144257483Y-139314950D01*
X144225982Y-139316086D01*
X144173823Y-139288745D01*
X144162030Y-139281590D01*
X144058998Y-139242252D01*
X143950186Y-139229995D01*
X143824257Y-139253446D01*
X143722249Y-139317228D01*
X143650512Y-139411169D01*
X143615399Y-139525096D01*
X143623260Y-139648836D01*
X143647200Y-139715294D01*
X143720470Y-139812806D01*
X143823440Y-139876651D01*
X143941923Y-139903229D01*
X144061733Y-139888936D01*
X144151997Y-139843469D01*
X144230543Y-139785397D01*
X144285545Y-139840399D01*
X144321593Y-139884313D01*
X144319264Y-139918169D01*
X144302641Y-139941201D01*
X144232368Y-139997140D01*
X144130364Y-140045203D01*
X144018367Y-140076720D01*
X143943895Y-140084300D01*
X143848158Y-140072417D01*
X143747524Y-140043057D01*
X143728894Y-140035218D01*
X143596079Y-139949525D01*
X143502458Y-139837039D01*
X143447426Y-139706680D01*
X143430377Y-139567369D01*
X143450707Y-139428027D01*
X143507810Y-139297574D01*
X143601081Y-139184931D01*
X143729915Y-139099020D01*
X143794148Y-139073166D01*
X143927269Y-139045503D01*
X144055385Y-139058477D01*
G37*
X144055385Y-139058477D02*
X144192645Y-139111971D01*
X144279852Y-139160070D01*
X144321660Y-139199159D01*
X144323034Y-139238204D01*
X144289030Y-139286069D01*
X144257483Y-139314950D01*
X144225982Y-139316086D01*
X144173823Y-139288745D01*
X144162030Y-139281590D01*
X144058998Y-139242252D01*
X143950186Y-139229995D01*
X143824257Y-139253446D01*
X143722249Y-139317228D01*
X143650512Y-139411169D01*
X143615399Y-139525096D01*
X143623260Y-139648836D01*
X143647200Y-139715294D01*
X143720470Y-139812806D01*
X143823440Y-139876651D01*
X143941923Y-139903229D01*
X144061733Y-139888936D01*
X144151997Y-139843469D01*
X144230543Y-139785397D01*
X144285545Y-139840399D01*
X144321593Y-139884313D01*
X144319264Y-139918169D01*
X144302641Y-139941201D01*
X144232368Y-139997140D01*
X144130364Y-140045203D01*
X144018367Y-140076720D01*
X143943895Y-140084300D01*
X143848158Y-140072417D01*
X143747524Y-140043057D01*
X143728894Y-140035218D01*
X143596079Y-139949525D01*
X143502458Y-139837039D01*
X143447426Y-139706680D01*
X143430377Y-139567369D01*
X143450707Y-139428027D01*
X143507810Y-139297574D01*
X143601081Y-139184931D01*
X143729915Y-139099020D01*
X143794148Y-139073166D01*
X143927269Y-139045503D01*
X144055385Y-139058477D01*
%TO.C,U1*%
G36*
X177900000Y-89730000D02*
G01*
X177090000Y-89730000D01*
X177090000Y-89360000D01*
X177900000Y-89360000D01*
X177900000Y-89730000D01*
G37*
X177900000Y-89730000D02*
X177090000Y-89730000D01*
X177090000Y-89360000D01*
X177900000Y-89360000D01*
X177900000Y-89730000D01*
G36*
X177900000Y-90230000D02*
G01*
X177090000Y-90230000D01*
X177090000Y-89860000D01*
X177900000Y-89860000D01*
X177900000Y-90230000D01*
G37*
X177900000Y-90230000D02*
X177090000Y-90230000D01*
X177090000Y-89860000D01*
X177900000Y-89860000D01*
X177900000Y-90230000D01*
G36*
X176310000Y-89730000D02*
G01*
X175500000Y-89730000D01*
X175500000Y-89360000D01*
X176310000Y-89360000D01*
X176310000Y-89730000D01*
G37*
X176310000Y-89730000D02*
X175500000Y-89730000D01*
X175500000Y-89360000D01*
X176310000Y-89360000D01*
X176310000Y-89730000D01*
G36*
X176310000Y-90230000D02*
G01*
X175500000Y-90230000D01*
X175500000Y-89860000D01*
X176310000Y-89860000D01*
X176310000Y-90230000D01*
G37*
X176310000Y-90230000D02*
X175500000Y-90230000D01*
X175500000Y-89860000D01*
X176310000Y-89860000D01*
X176310000Y-90230000D01*
G36*
X177000000Y-90275000D02*
G01*
X176400000Y-90275000D01*
X176400000Y-89315000D01*
X177000000Y-89315000D01*
X177000000Y-90275000D01*
G37*
X177000000Y-90275000D02*
X176400000Y-90275000D01*
X176400000Y-89315000D01*
X177000000Y-89315000D01*
X177000000Y-90275000D01*
%TO.C,U15*%
G36*
X166535000Y-131640000D02*
G01*
X166165000Y-131640000D01*
X166165000Y-130830000D01*
X166535000Y-130830000D01*
X166535000Y-131640000D01*
G37*
X166535000Y-131640000D02*
X166165000Y-131640000D01*
X166165000Y-130830000D01*
X166535000Y-130830000D01*
X166535000Y-131640000D01*
G36*
X166580000Y-130740000D02*
G01*
X165620000Y-130740000D01*
X165620000Y-130140000D01*
X166580000Y-130140000D01*
X166580000Y-130740000D01*
G37*
X166580000Y-130740000D02*
X165620000Y-130740000D01*
X165620000Y-130140000D01*
X166580000Y-130140000D01*
X166580000Y-130740000D01*
G36*
X166035000Y-130050000D02*
G01*
X165665000Y-130050000D01*
X165665000Y-129240000D01*
X166035000Y-129240000D01*
X166035000Y-130050000D01*
G37*
X166035000Y-130050000D02*
X165665000Y-130050000D01*
X165665000Y-129240000D01*
X166035000Y-129240000D01*
X166035000Y-130050000D01*
G36*
X166035000Y-131640000D02*
G01*
X165665000Y-131640000D01*
X165665000Y-130830000D01*
X166035000Y-130830000D01*
X166035000Y-131640000D01*
G37*
X166035000Y-131640000D02*
X165665000Y-131640000D01*
X165665000Y-130830000D01*
X166035000Y-130830000D01*
X166035000Y-131640000D01*
G36*
X166535000Y-130050000D02*
G01*
X166165000Y-130050000D01*
X166165000Y-129240000D01*
X166535000Y-129240000D01*
X166535000Y-130050000D01*
G37*
X166535000Y-130050000D02*
X166165000Y-130050000D01*
X166165000Y-129240000D01*
X166535000Y-129240000D01*
X166535000Y-130050000D01*
%TO.C,U14*%
G36*
X183400000Y-90130000D02*
G01*
X182590000Y-90130000D01*
X182590000Y-89760000D01*
X183400000Y-89760000D01*
X183400000Y-90130000D01*
G37*
X183400000Y-90130000D02*
X182590000Y-90130000D01*
X182590000Y-89760000D01*
X183400000Y-89760000D01*
X183400000Y-90130000D01*
G36*
X181810000Y-89630000D02*
G01*
X181000000Y-89630000D01*
X181000000Y-89260000D01*
X181810000Y-89260000D01*
X181810000Y-89630000D01*
G37*
X181810000Y-89630000D02*
X181000000Y-89630000D01*
X181000000Y-89260000D01*
X181810000Y-89260000D01*
X181810000Y-89630000D01*
G36*
X181810000Y-90130000D02*
G01*
X181000000Y-90130000D01*
X181000000Y-89760000D01*
X181810000Y-89760000D01*
X181810000Y-90130000D01*
G37*
X181810000Y-90130000D02*
X181000000Y-90130000D01*
X181000000Y-89760000D01*
X181810000Y-89760000D01*
X181810000Y-90130000D01*
G36*
X183400000Y-89630000D02*
G01*
X182590000Y-89630000D01*
X182590000Y-89260000D01*
X183400000Y-89260000D01*
X183400000Y-89630000D01*
G37*
X183400000Y-89630000D02*
X182590000Y-89630000D01*
X182590000Y-89260000D01*
X183400000Y-89260000D01*
X183400000Y-89630000D01*
G36*
X182500000Y-90175000D02*
G01*
X181900000Y-90175000D01*
X181900000Y-89215000D01*
X182500000Y-89215000D01*
X182500000Y-90175000D01*
G37*
X182500000Y-90175000D02*
X181900000Y-90175000D01*
X181900000Y-89215000D01*
X182500000Y-89215000D01*
X182500000Y-90175000D01*
%TO.C,U8*%
G36*
X130770000Y-87285000D02*
G01*
X129929999Y-87285000D01*
X129929999Y-86915001D01*
X130770000Y-86915001D01*
X130770000Y-87285000D01*
G37*
D11*
X130770000Y-87285000D02*
X129929999Y-87285000D01*
X129929999Y-86915001D01*
X130770000Y-86915001D01*
X130770000Y-87285000D01*
G36*
X130770000Y-88085001D02*
G01*
X129929999Y-88085001D01*
X129929999Y-87714999D01*
X130770000Y-87714999D01*
X130770000Y-88085001D01*
G37*
X130770000Y-88085001D02*
X129929999Y-88085001D01*
X129929999Y-87714999D01*
X130770000Y-87714999D01*
X130770000Y-88085001D01*
G36*
X130770000Y-88485000D02*
G01*
X129929999Y-88485000D01*
X129929999Y-88115001D01*
X130770000Y-88115001D01*
X130770000Y-88485000D01*
G37*
X130770000Y-88485000D02*
X129929999Y-88485000D01*
X129929999Y-88115001D01*
X130770000Y-88115001D01*
X130770000Y-88485000D01*
G36*
X129820700Y-88712800D02*
G01*
X129500000Y-88712800D01*
X129500000Y-87087200D01*
X129820700Y-87087200D01*
X129820700Y-88712800D01*
G37*
X129820700Y-88712800D02*
X129500000Y-88712800D01*
X129500000Y-87087200D01*
X129820700Y-87087200D01*
X129820700Y-88712800D01*
G36*
X129100000Y-88712800D02*
G01*
X128779300Y-88712800D01*
X128779300Y-87087200D01*
X129100000Y-87087200D01*
X129100000Y-88712800D01*
G37*
X129100000Y-88712800D02*
X128779300Y-88712800D01*
X128779300Y-87087200D01*
X129100000Y-87087200D01*
X129100000Y-88712800D01*
G36*
X128670001Y-87684999D02*
G01*
X127830000Y-87684999D01*
X127830000Y-87315000D01*
X128670001Y-87315000D01*
X128670001Y-87684999D01*
G37*
X128670001Y-87684999D02*
X127830000Y-87684999D01*
X127830000Y-87315000D01*
X128670001Y-87315000D01*
X128670001Y-87684999D01*
G36*
X130770000Y-88884999D02*
G01*
X129929999Y-88884999D01*
X129929999Y-88515000D01*
X130770000Y-88515000D01*
X130770000Y-88884999D01*
G37*
X130770000Y-88884999D02*
X129929999Y-88884999D01*
X129929999Y-88515000D01*
X130770000Y-88515000D01*
X130770000Y-88884999D01*
G36*
X129820700Y-87700000D02*
G01*
X128779300Y-87700000D01*
X128779300Y-87087200D01*
X129820700Y-87087200D01*
X129820700Y-87700000D01*
G37*
X129820700Y-87700000D02*
X128779300Y-87700000D01*
X128779300Y-87087200D01*
X129820700Y-87087200D01*
X129820700Y-87700000D01*
G36*
X128670001Y-88884999D02*
G01*
X127830000Y-88884999D01*
X127830000Y-88515000D01*
X128670001Y-88515000D01*
X128670001Y-88884999D01*
G37*
X128670001Y-88884999D02*
X127830000Y-88884999D01*
X127830000Y-88515000D01*
X128670001Y-88515000D01*
X128670001Y-88884999D01*
G36*
X128670001Y-88085001D02*
G01*
X127830000Y-88085001D01*
X127830000Y-87714999D01*
X128670001Y-87714999D01*
X128670001Y-88085001D01*
G37*
X128670001Y-88085001D02*
X127830000Y-88085001D01*
X127830000Y-87714999D01*
X128670001Y-87714999D01*
X128670001Y-88085001D01*
G36*
X128670001Y-87285000D02*
G01*
X127830000Y-87285000D01*
X127830000Y-86915001D01*
X128670001Y-86915001D01*
X128670001Y-87285000D01*
G37*
X128670001Y-87285000D02*
X127830000Y-87285000D01*
X127830000Y-86915001D01*
X128670001Y-86915001D01*
X128670001Y-87285000D01*
G36*
X130770000Y-87684999D02*
G01*
X129929999Y-87684999D01*
X129929999Y-87315000D01*
X130770000Y-87315000D01*
X130770000Y-87684999D01*
G37*
X130770000Y-87684999D02*
X129929999Y-87684999D01*
X129929999Y-87315000D01*
X130770000Y-87315000D01*
X130770000Y-87684999D01*
G36*
X129820700Y-88712800D02*
G01*
X128779300Y-88712800D01*
X128779300Y-88100000D01*
X129820700Y-88100000D01*
X129820700Y-88712800D01*
G37*
X129820700Y-88712800D02*
X128779300Y-88712800D01*
X128779300Y-88100000D01*
X129820700Y-88100000D01*
X129820700Y-88712800D01*
G36*
X128670001Y-88485000D02*
G01*
X127830000Y-88485000D01*
X127830000Y-88115001D01*
X128670001Y-88115001D01*
X128670001Y-88485000D01*
G37*
X128670001Y-88485000D02*
X127830000Y-88485000D01*
X127830000Y-88115001D01*
X128670001Y-88115001D01*
X128670001Y-88485000D01*
%TD*%
D12*
%TO.C,FID2*%
X188000000Y-92000000D03*
%TD*%
%TO.C,FID1*%
X110000000Y-141000000D03*
%TD*%
D13*
%TO.C,C20*%
X113670000Y-126830000D03*
X113670000Y-129780000D03*
%TD*%
D14*
%TO.C,R20*%
X121000000Y-92625000D03*
X121000000Y-90975000D03*
%TD*%
%TO.C,R22*%
X116930000Y-135665000D03*
X116930000Y-134015000D03*
%TD*%
D15*
%TO.C,R43*%
X115500000Y-97275000D03*
X115500000Y-98925000D03*
%TD*%
D16*
%TO.C,C42*%
X132818750Y-96481250D03*
X134943750Y-96481250D03*
%TD*%
D17*
%TO.C,R39*%
X123281250Y-102768750D03*
X123281250Y-101193750D03*
%TD*%
%TO.C,R36*%
X124881250Y-101181250D03*
X124881250Y-102756250D03*
%TD*%
D18*
%TO.C,Y2*%
X171620000Y-139915000D03*
X173820000Y-139915000D03*
X173820000Y-138215000D03*
X171620000Y-138215000D03*
%TD*%
D15*
%TO.C,R32*%
X139600000Y-117975000D03*
X139600000Y-119625000D03*
%TD*%
D19*
%TO.C,U9*%
X129150000Y-111450000D03*
X129800000Y-111450000D03*
X130450000Y-111450000D03*
X130450000Y-109550000D03*
X129800000Y-109550000D03*
X129150000Y-109550000D03*
%TD*%
D20*
%TO.C,C46*%
X181425000Y-87790000D03*
X182975000Y-87790000D03*
%TD*%
D21*
%TO.C,U11*%
X160860000Y-134610000D03*
X160860000Y-135260000D03*
X160860000Y-135910000D03*
X160860000Y-136560000D03*
X160860000Y-137210000D03*
X160860000Y-137860000D03*
X160860000Y-138510000D03*
X160860000Y-139160000D03*
X160860000Y-139810000D03*
X160860000Y-140460000D03*
X166585000Y-140460000D03*
X166585000Y-139810000D03*
X166585000Y-139160000D03*
X166585000Y-138510000D03*
X166585000Y-137860000D03*
X166585000Y-137210000D03*
X166585000Y-136560000D03*
X166585000Y-135910000D03*
X166585000Y-135260000D03*
X166585000Y-134610000D03*
%TD*%
D22*
%TO.C,R2*%
X174200000Y-128300000D03*
X175850000Y-128300000D03*
%TD*%
D23*
%TO.C,C24*%
X113700000Y-116000000D03*
X113700000Y-117900000D03*
%TD*%
D24*
%TO.C,U13*%
X186300000Y-97050000D03*
X186300000Y-96550000D03*
X186300000Y-96050000D03*
X186300000Y-95550000D03*
D25*
X185750000Y-95500000D03*
X185250000Y-95500000D03*
D24*
X184700000Y-95550000D03*
X184700000Y-96050000D03*
X184700000Y-96550000D03*
X184700000Y-97050000D03*
D25*
X185250000Y-97100000D03*
X185750000Y-97100000D03*
%TD*%
D26*
%TO.C,C35*%
X129306250Y-106281250D03*
X132456250Y-106281250D03*
%TD*%
D27*
%TO.C,C48*%
X164195000Y-131215000D03*
X164195000Y-129665000D03*
%TD*%
D28*
%TO.C,H2*%
X105000000Y-90000000D03*
%TD*%
D23*
%TO.C,C31*%
X123500000Y-115700000D03*
X123500000Y-113800000D03*
%TD*%
D14*
%TO.C,R14*%
X135100000Y-112700000D03*
X135100000Y-114350000D03*
%TD*%
D29*
%TO.C,U20*%
X128177250Y-101814583D03*
X128177250Y-101314584D03*
X128177250Y-100814585D03*
X129879050Y-100814585D03*
X129879050Y-101314584D03*
X129879050Y-101814583D03*
%TD*%
D20*
%TO.C,C21*%
X172025000Y-142300000D03*
X173575000Y-142300000D03*
%TD*%
D27*
%TO.C,C5*%
X153600000Y-97450000D03*
X153600000Y-95900000D03*
%TD*%
D30*
%TO.C,R12*%
X163625860Y-97471620D03*
X163625860Y-96451620D03*
%TD*%
D27*
%TO.C,C4*%
X155200000Y-97450000D03*
X155200000Y-95900000D03*
%TD*%
D31*
%TO.C,R16*%
X181800000Y-142240000D03*
X180150000Y-142240000D03*
%TD*%
D23*
%TO.C,C27*%
X118270000Y-127330000D03*
X118270000Y-129230000D03*
%TD*%
D15*
%TO.C,R25*%
X126420000Y-126255000D03*
X126420000Y-127905000D03*
%TD*%
D32*
%TO.C,L5*%
X144380000Y-110935000D03*
X144380000Y-113135000D03*
%TD*%
D20*
%TO.C,C19*%
X127250000Y-90800000D03*
X128800000Y-90800000D03*
%TD*%
D33*
%TO.C,C32*%
X127920000Y-124805000D03*
X129470000Y-124805000D03*
%TD*%
D14*
%TO.C,R21*%
X116930000Y-138765000D03*
X116930000Y-137115000D03*
%TD*%
D34*
%TO.C,D8*%
X126187500Y-87200000D03*
X124612500Y-87200000D03*
%TD*%
D15*
%TO.C,R4*%
X144632000Y-105050000D03*
X144632000Y-106700000D03*
%TD*%
D35*
%TO.C,L1*%
X171840000Y-95530000D03*
X171840000Y-96500000D03*
%TD*%
D36*
%TO.C,C13*%
X163545860Y-98561620D03*
X164505860Y-98561620D03*
%TD*%
D33*
%TO.C,C2*%
X177475000Y-91700000D03*
X175925000Y-91700000D03*
%TD*%
D14*
%TO.C,R6*%
X143000000Y-106725000D03*
X143000000Y-105075000D03*
%TD*%
D28*
%TO.C,H3*%
X195000000Y-90000000D03*
%TD*%
D23*
%TO.C,C30*%
X125600000Y-115700000D03*
X125600000Y-113800000D03*
%TD*%
D37*
%TO.C,C25*%
X123500000Y-110300000D03*
X123500000Y-112200000D03*
%TD*%
D38*
%TO.C,U6*%
X122920000Y-128530000D03*
D39*
X124825000Y-131010000D03*
X123555000Y-131010000D03*
X122285000Y-131010000D03*
X121015000Y-131010000D03*
X121015000Y-126050000D03*
X122285000Y-126050000D03*
X123555000Y-126050000D03*
X124825000Y-126050000D03*
%TD*%
D33*
%TO.C,C49*%
X182975000Y-91600000D03*
X181425000Y-91600000D03*
%TD*%
D40*
%TO.C,J7*%
X107095553Y-104999999D03*
X107095553Y-107499999D03*
X107095553Y-109999999D03*
X107095553Y-112499999D03*
X107095553Y-115000000D03*
X107095553Y-117500000D03*
X107095553Y-120000000D03*
X107095553Y-122500000D03*
X107095553Y-125000000D03*
X110095552Y-104999999D03*
X110095552Y-107499999D03*
X110095552Y-109999999D03*
X110095552Y-112499999D03*
X110095552Y-115000000D03*
X110095552Y-117500000D03*
X110095552Y-120000000D03*
X110095552Y-122500000D03*
X110095552Y-125000000D03*
D41*
X105595553Y-99500005D03*
X105595553Y-130499994D03*
%TD*%
D15*
%TO.C,R33*%
X121600000Y-113525000D03*
X121600000Y-111875000D03*
%TD*%
D42*
%TO.C,U4*%
X190800000Y-120000000D03*
D43*
X191600000Y-120000000D03*
X192400000Y-120000000D03*
X193200000Y-120000000D03*
X193200000Y-117600000D03*
X192400000Y-117600000D03*
X191600000Y-117600000D03*
X190800000Y-117600000D03*
D44*
X191200000Y-118800000D03*
D45*
X192800000Y-118800000D03*
%TD*%
D46*
%TO.C,J2*%
X117025000Y-89250000D03*
D47*
X115775000Y-89250000D03*
X114525000Y-89250000D03*
%TD*%
D48*
%TO.C,C7*%
X174040000Y-96500000D03*
X174040000Y-95540000D03*
%TD*%
D49*
%TO.C,U5*%
X179350000Y-103200000D03*
D50*
X179300000Y-103600000D03*
X179300000Y-104000000D03*
X179300000Y-104400000D03*
X179300000Y-104800000D03*
X179300000Y-105200000D03*
X179300000Y-105600000D03*
X179300000Y-106000000D03*
X179300000Y-106400000D03*
X179300000Y-106800000D03*
X181100000Y-106800000D03*
X181100000Y-106400000D03*
X181100000Y-106000000D03*
X181100000Y-105600000D03*
X181100000Y-105200000D03*
X181100000Y-104800000D03*
X181100000Y-104400000D03*
X181100000Y-104000000D03*
X181100000Y-103600000D03*
X181100000Y-103200000D03*
%TD*%
D51*
%TO.C,U18*%
X118900000Y-115450000D03*
D52*
X118900000Y-115950000D03*
D53*
X119150000Y-116700000D03*
X118650000Y-116700000D03*
D54*
X117900000Y-116450000D03*
X117900000Y-115950000D03*
X117900000Y-115450000D03*
X117900000Y-114950000D03*
D55*
X118650000Y-114700000D03*
X119150000Y-114700000D03*
D51*
X119900000Y-114950000D03*
X119900000Y-115450000D03*
X119900000Y-115950000D03*
X119900000Y-116450000D03*
%TD*%
D22*
%TO.C,R35*%
X175850000Y-142300000D03*
X177500000Y-142300000D03*
%TD*%
%TO.C,R11*%
X193519000Y-97700000D03*
X195169000Y-97700000D03*
%TD*%
D16*
%TO.C,C50*%
X132818750Y-94714582D03*
X134943750Y-94714582D03*
%TD*%
D20*
%TO.C,C16*%
X156597500Y-142100000D03*
X158147500Y-142100000D03*
%TD*%
D15*
%TO.C,R34*%
X121600000Y-108775000D03*
X121600000Y-110425000D03*
%TD*%
D33*
%TO.C,C45*%
X183000000Y-95500000D03*
X181450000Y-95500000D03*
%TD*%
D21*
%TO.C,U10*%
X176207500Y-134870000D03*
X176207500Y-135520000D03*
X176207500Y-136170000D03*
X176207500Y-136820000D03*
X176207500Y-137470000D03*
X176207500Y-138120000D03*
X176207500Y-138770000D03*
X176207500Y-139420000D03*
X176207500Y-140070000D03*
X176207500Y-140720000D03*
X181932500Y-140720000D03*
X181932500Y-140070000D03*
X181932500Y-139420000D03*
X181932500Y-138770000D03*
X181932500Y-138120000D03*
X181932500Y-137470000D03*
X181932500Y-136820000D03*
X181932500Y-136170000D03*
X181932500Y-135520000D03*
X181932500Y-134870000D03*
%TD*%
D33*
%TO.C,C22*%
X173495000Y-136525000D03*
X171945000Y-136525000D03*
%TD*%
%TO.C,C17*%
X158287500Y-136265000D03*
X156737500Y-136265000D03*
%TD*%
D13*
%TO.C,C26*%
X116070000Y-126830000D03*
X116070000Y-129780000D03*
%TD*%
D22*
%TO.C,R10*%
X193519000Y-94652000D03*
X195169000Y-94652000D03*
%TD*%
D20*
%TO.C,C1*%
X175925000Y-87890000D03*
X177475000Y-87890000D03*
%TD*%
D33*
%TO.C,C44*%
X182975000Y-97100000D03*
X181425000Y-97100000D03*
%TD*%
D56*
%TO.C,C29*%
X118570000Y-130905000D03*
X118570000Y-132455000D03*
%TD*%
D31*
%TO.C,R29*%
X135900000Y-106500000D03*
X134250000Y-106500000D03*
%TD*%
%TO.C,R30*%
X119625000Y-119500000D03*
X117975000Y-119500000D03*
%TD*%
D57*
%TO.C,CP2*%
X147015000Y-98057500D03*
X147015000Y-93132500D03*
%TD*%
D56*
%TO.C,C47*%
X168005000Y-129665000D03*
X168005000Y-131215000D03*
%TD*%
D33*
%TO.C,C3*%
X197775000Y-121500000D03*
X196225000Y-121500000D03*
%TD*%
D31*
%TO.C,R48*%
X166452500Y-142240000D03*
X164802500Y-142240000D03*
%TD*%
D58*
%TO.C,L3*%
X113675000Y-110600000D03*
X116725000Y-110600000D03*
%TD*%
D59*
%TO.C,U3*%
X151965200Y-105100001D03*
X151965200Y-106100001D03*
X151965200Y-107099999D03*
X151965200Y-108100000D03*
X151965200Y-109100000D03*
X151965200Y-110100001D03*
X151965200Y-111099999D03*
X151965200Y-112099999D03*
X151965200Y-113100000D03*
X151965200Y-114100001D03*
X151965200Y-115100001D03*
X151965200Y-116099999D03*
X151965200Y-117100000D03*
X151965200Y-118100000D03*
X151965200Y-119100001D03*
X151965200Y-120100001D03*
X151965200Y-121099999D03*
D60*
X155700001Y-124834800D03*
X156699999Y-124834800D03*
X157699999Y-124834800D03*
X158700000Y-124834800D03*
X159700000Y-124834800D03*
X160700001Y-124834800D03*
X161699999Y-124834800D03*
X162699999Y-124834800D03*
X163700000Y-124834800D03*
X164700001Y-124834800D03*
X165700001Y-124834800D03*
X166699999Y-124834800D03*
X167700000Y-124834800D03*
X168700000Y-124834800D03*
X169700001Y-124834800D03*
X170700001Y-124834800D03*
X171699999Y-124834800D03*
D59*
X175434800Y-121099999D03*
X175434800Y-120100001D03*
X175434800Y-119100001D03*
X175434800Y-118100000D03*
X175434800Y-117100000D03*
X175434800Y-116099999D03*
X175434800Y-115100001D03*
X175434800Y-114100001D03*
X175434800Y-113100000D03*
X175434800Y-112099999D03*
X175434800Y-111099999D03*
X175434800Y-110100001D03*
X175434800Y-109100000D03*
X175434800Y-108100000D03*
X175434800Y-107099999D03*
X175434800Y-106099999D03*
X175434800Y-105100001D03*
D60*
X171699999Y-101365200D03*
X170700001Y-101365200D03*
X169700001Y-101365200D03*
X168700000Y-101365200D03*
X167700000Y-101365200D03*
X166699999Y-101365200D03*
X165700001Y-101365200D03*
X164700001Y-101365200D03*
X163700000Y-101365200D03*
X162699999Y-101365200D03*
X161699999Y-101365200D03*
X160700001Y-101365200D03*
X159700000Y-101365200D03*
X158700000Y-101365200D03*
X157699999Y-101365200D03*
X156699999Y-101365200D03*
X155700001Y-101365200D03*
%TD*%
D19*
%TO.C,U7*%
X132050000Y-109550000D03*
X132700000Y-109550000D03*
X133350000Y-109550000D03*
X133350000Y-111450000D03*
X132700000Y-111450000D03*
X132050000Y-111450000D03*
%TD*%
D61*
%TO.C,C43*%
X131343750Y-96481250D03*
X129218750Y-96481250D03*
%TD*%
D27*
%TO.C,C53*%
X115500000Y-95775000D03*
X115500000Y-94225000D03*
%TD*%
D62*
%TO.C,F1*%
X113500000Y-124800000D03*
X116300000Y-124800000D03*
%TD*%
D63*
%TO.C,Q2*%
X146194500Y-119127000D03*
X146194500Y-121027000D03*
X148069500Y-120077000D03*
%TD*%
D64*
%TO.C,J1*%
X193000000Y-123363100D03*
X193000000Y-133963100D03*
D65*
X187100002Y-131203100D03*
X187100002Y-128663100D03*
X187100002Y-126123100D03*
X198899998Y-131203100D03*
X198899998Y-128663100D03*
X198899998Y-126123100D03*
D66*
X197149999Y-133063099D03*
D67*
X188850001Y-124063099D03*
%TD*%
D57*
%TO.C,C33*%
X128470000Y-134730000D03*
X128470000Y-139655000D03*
%TD*%
D14*
%TO.C,R27*%
X135100000Y-111225000D03*
X135100000Y-109575000D03*
%TD*%
D68*
%TO.C,U19*%
X185262500Y-138650000D03*
X185262500Y-139600000D03*
X185262500Y-140550000D03*
X187537500Y-140550000D03*
X187537500Y-138650000D03*
%TD*%
D69*
%TO.C,C36*%
X139330000Y-109175000D03*
X141230000Y-109175000D03*
%TD*%
D31*
%TO.C,R18*%
X162200000Y-142200000D03*
X160550000Y-142200000D03*
%TD*%
D70*
%TO.C,D5*%
X197112500Y-97700000D03*
X198687500Y-97700000D03*
%TD*%
D20*
%TO.C,C40*%
X180200000Y-133350000D03*
X181750000Y-133350000D03*
%TD*%
D14*
%TO.C,R7*%
X144332000Y-121102000D03*
X144332000Y-119452000D03*
%TD*%
D56*
%TO.C,C6*%
X181300000Y-112650000D03*
X181300000Y-114200000D03*
%TD*%
D27*
%TO.C,C14*%
X180900000Y-100950000D03*
X180900000Y-99400000D03*
%TD*%
D22*
%TO.C,R1*%
X174200000Y-129900000D03*
X175850000Y-129900000D03*
%TD*%
D70*
%TO.C,D3*%
X197112500Y-96176000D03*
X198687500Y-96176000D03*
%TD*%
D71*
%TO.C,R8*%
X172940000Y-95500000D03*
X172940000Y-96520000D03*
%TD*%
D28*
%TO.C,H4*%
X195000000Y-140000000D03*
%TD*%
D70*
%TO.C,D4*%
X197112500Y-94652000D03*
X198687500Y-94652000D03*
%TD*%
D22*
%TO.C,R23*%
X132087500Y-87300000D03*
X133737500Y-87300000D03*
%TD*%
D48*
%TO.C,C9*%
X170754140Y-97460000D03*
X170754140Y-96500000D03*
%TD*%
D72*
%TO.C,U2*%
X195449999Y-103650002D03*
X194350000Y-103650002D03*
X193549999Y-103650002D03*
X191950001Y-103650002D03*
X191550001Y-104550002D03*
X191150000Y-103650002D03*
X190750000Y-104550002D03*
X190349999Y-103650002D03*
X189949999Y-104550002D03*
X189550001Y-103650002D03*
X189150001Y-104550002D03*
X188750000Y-103650002D03*
X188350000Y-104550002D03*
X187950001Y-103650002D03*
D73*
X184549999Y-103499999D03*
X184549999Y-104300000D03*
X184549999Y-105100001D03*
X184549999Y-105900000D03*
X185449999Y-106300000D03*
X184549999Y-106700001D03*
X185449999Y-107100001D03*
X184549999Y-107499999D03*
X185449999Y-107899999D03*
X184549999Y-108300000D03*
X185449999Y-108700000D03*
X184549999Y-109100001D03*
X185449999Y-109500001D03*
X184549999Y-109899999D03*
X185449999Y-110299999D03*
X184549999Y-110700000D03*
X184549999Y-111499999D03*
X184549999Y-112300000D03*
X184549999Y-113099998D03*
D72*
X185550001Y-112949998D03*
X186350001Y-112949998D03*
X186750001Y-112049998D03*
X187150001Y-112949998D03*
X187550001Y-112049998D03*
X187950000Y-112949998D03*
X188350000Y-112049998D03*
X188750001Y-112949998D03*
X189150001Y-112049998D03*
X189949999Y-112049998D03*
X190349999Y-112949998D03*
X190750000Y-112049998D03*
X191150000Y-112949998D03*
X191550001Y-112049998D03*
X191950001Y-112949998D03*
X192350001Y-112049998D03*
X193149999Y-112049998D03*
X193549999Y-112949998D03*
X193950000Y-112049998D03*
X194350000Y-112949998D03*
X194750000Y-112049998D03*
X195449999Y-112949998D03*
D73*
X191149999Y-106300000D03*
X191149999Y-107100001D03*
X191149999Y-107899999D03*
X191149999Y-108700000D03*
X191149999Y-109500001D03*
X191149999Y-110299999D03*
%TD*%
D17*
%TO.C,D9*%
X113900000Y-95787500D03*
X113900000Y-94212500D03*
%TD*%
D70*
%TO.C,R40*%
X123281250Y-104281250D03*
X124856250Y-104281250D03*
%TD*%
D57*
%TO.C,CP3*%
X143205000Y-98057500D03*
X143205000Y-93132500D03*
%TD*%
D27*
%TO.C,C12*%
X150132000Y-106877000D03*
X150132000Y-105327000D03*
%TD*%
D34*
%TO.C,C52*%
X130768750Y-98181250D03*
X129193750Y-98181250D03*
%TD*%
D22*
%TO.C,R3*%
X174200000Y-126700000D03*
X175850000Y-126700000D03*
%TD*%
D14*
%TO.C,R42*%
X113900000Y-98950000D03*
X113900000Y-97300000D03*
%TD*%
D37*
%TO.C,C34*%
X125470000Y-134180000D03*
X125470000Y-136080000D03*
%TD*%
%TO.C,C28*%
X125600000Y-110300000D03*
X125600000Y-112200000D03*
%TD*%
D27*
%TO.C,C11*%
X149932000Y-121077000D03*
X149932000Y-119527000D03*
%TD*%
%TO.C,C15*%
X179300000Y-100950000D03*
X179300000Y-99400000D03*
%TD*%
D23*
%TO.C,C23*%
X115800000Y-116000000D03*
X115800000Y-117900000D03*
%TD*%
D74*
%TO.C,C38*%
X141380000Y-114725000D03*
X139480000Y-114725000D03*
%TD*%
D22*
%TO.C,R15*%
X117950000Y-121100000D03*
X119600000Y-121100000D03*
%TD*%
%TO.C,R26*%
X124612500Y-88800000D03*
X126262500Y-88800000D03*
%TD*%
D75*
%TO.C,D1*%
X182450000Y-126662500D03*
X181500000Y-126662500D03*
X180550000Y-126662500D03*
X180550000Y-128937500D03*
X181500000Y-128937500D03*
X182450000Y-128937500D03*
%TD*%
D36*
%TO.C,C8*%
X170754140Y-98600000D03*
X171714140Y-98600000D03*
%TD*%
D22*
%TO.C,R9*%
X193519000Y-96176000D03*
X195169000Y-96176000D03*
%TD*%
D68*
%TO.C,U12*%
X139210500Y-111025000D03*
X139210500Y-111975000D03*
X139210500Y-112925000D03*
X141485500Y-112925000D03*
X141485500Y-111025000D03*
%TD*%
D76*
%TO.C,Z1*%
X115350000Y-102137500D03*
D77*
X115425000Y-101600000D03*
D76*
X115350000Y-101062500D03*
X113650000Y-101062500D03*
D77*
X113575000Y-101600000D03*
D76*
X113650000Y-102137500D03*
%TD*%
D78*
%TO.C,L4*%
X133781250Y-101531250D03*
X133781250Y-98481250D03*
%TD*%
D79*
%TO.C,U8*%
X130350000Y-88700001D03*
X130350000Y-88299999D03*
X130350000Y-87900000D03*
X130350000Y-87500001D03*
X130350000Y-87099999D03*
X128250000Y-87099999D03*
X128250000Y-87500001D03*
X128250000Y-87900000D03*
X128250000Y-88299999D03*
X128250000Y-88700001D03*
D80*
X129300000Y-87900000D03*
%TD*%
D33*
%TO.C,C18*%
X131850000Y-90800000D03*
X130300000Y-90800000D03*
%TD*%
D31*
%TO.C,R38*%
X189425000Y-97100000D03*
X187775000Y-97100000D03*
%TD*%
D34*
%TO.C,C37*%
X129393750Y-104281250D03*
X130968750Y-104281250D03*
%TD*%
D81*
%TO.C,L2*%
X125520000Y-140230000D03*
X120820000Y-140230000D03*
%TD*%
D82*
%TO.C,FB1*%
X140030000Y-97692500D03*
X140030000Y-94767500D03*
%TD*%
D18*
%TO.C,Y1*%
X156272500Y-139655000D03*
X158472500Y-139655000D03*
X158472500Y-137955000D03*
X156272500Y-137955000D03*
%TD*%
D63*
%TO.C,Q1*%
X146457000Y-104927000D03*
X146457000Y-106827000D03*
X148332000Y-105877000D03*
%TD*%
D28*
%TO.C,H1*%
X105000000Y-140000000D03*
%TD*%
D31*
%TO.C,R24*%
X127870000Y-126330000D03*
X129520000Y-126330000D03*
%TD*%
D20*
%TO.C,C41*%
X164992500Y-133090000D03*
X166542500Y-133090000D03*
%TD*%
D22*
%TO.C,R5*%
X144182000Y-117477000D03*
X145832000Y-117477000D03*
%TD*%
D83*
%TO.C,D2*%
X140400000Y-99200000D03*
X140400000Y-100600000D03*
%TD*%
D15*
%TO.C,TH1*%
X110900000Y-88800000D03*
X110900000Y-90450000D03*
%TD*%
D14*
%TO.C,R31*%
X138000000Y-119625000D03*
X138000000Y-117975000D03*
%TD*%
D84*
%TO.C,U16*%
X157092500Y-132750000D03*
D85*
X155542500Y-133725000D03*
X155542500Y-133075000D03*
X155542500Y-132425000D03*
X155542500Y-131775000D03*
X158642500Y-131775000D03*
X158642500Y-132425000D03*
X158642500Y-133075000D03*
X158642500Y-133725000D03*
%TD*%
D61*
%TO.C,C51*%
X131343750Y-94714584D03*
X129218750Y-94714584D03*
%TD*%
D70*
%TO.C,R41*%
X126306250Y-104281250D03*
X127881250Y-104281250D03*
%TD*%
D15*
%TO.C,R19*%
X122600000Y-90975000D03*
X122600000Y-92625000D03*
%TD*%
D31*
%TO.C,R28*%
X135925000Y-108100000D03*
X134275000Y-108100000D03*
%TD*%
D86*
%TO.C,C10*%
X170800000Y-95500000D03*
X169840000Y-95500000D03*
%TD*%
D84*
%TO.C,U17*%
X172720000Y-133350000D03*
D85*
X171170000Y-134325000D03*
X171170000Y-133675000D03*
X171170000Y-133025000D03*
X171170000Y-132375000D03*
X174270000Y-132375000D03*
X174270000Y-133025000D03*
X174270000Y-133675000D03*
X174270000Y-134325000D03*
%TD*%
D87*
%TO.C,R13*%
X179990000Y-108700000D03*
X181010000Y-108700000D03*
%TD*%
D88*
%TO.C,D7*%
X120670000Y-134530000D03*
X123470000Y-134530000D03*
%TD*%
D89*
%TO.C,D6*%
X163640860Y-95261620D03*
X164610860Y-95261620D03*
%TD*%
D31*
%TO.C,R37*%
X189450000Y-95500000D03*
X187800000Y-95500000D03*
%TD*%
D89*
%TO.C,C39*%
X123481250Y-105681250D03*
X124451250Y-105681250D03*
%TD*%
D15*
%TO.C,R46*%
X137300000Y-111150000D03*
X137300000Y-112800000D03*
%TD*%
D22*
%TO.C,R17*%
X132087500Y-88800000D03*
X133737500Y-88800000D03*
%TD*%
D57*
%TO.C,CP1*%
X150825000Y-98057500D03*
X150825000Y-93132500D03*
%TD*%
D90*
%TO.C,J4*%
X159725860Y-87700000D03*
X161325860Y-87700000D03*
X159725860Y-89400000D03*
X161325860Y-89400000D03*
%TD*%
%TO.C,J3*%
X171974140Y-87700000D03*
X171974140Y-89400000D03*
X170374140Y-89400000D03*
X170374140Y-87700000D03*
%TD*%
M02*
