%TF.GenerationSoftware,KiCad,Pcbnew,(6.0.2-0)*%
%TF.CreationDate,2023-02-02T10:49:58+01:00*%
%TF.ProjectId,roam,726f616d-2e6b-4696-9361-645f70636258,rev?*%
%TF.SameCoordinates,Original*%
%TF.FileFunction,Legend,Top*%
%TF.FilePolarity,Positive*%
%FSLAX46Y46*%
G04 Gerber Fmt 4.6, Leading zero omitted, Abs format (unit mm)*
G04 Created by KiCad (PCBNEW (6.0.2-0)) date 2023-02-02 10:49:58*
%MOMM*%
%LPD*%
G01*
G04 APERTURE LIST*
%ADD10C,0.200000*%
%ADD11C,0.150000*%
%ADD12C,0.254000*%
%ADD13C,0.152400*%
%ADD14C,0.120000*%
%ADD15C,0.127000*%
%ADD16C,0.100000*%
G04 APERTURE END LIST*
D10*
X156651904Y-130614761D02*
X156794761Y-130662380D01*
X157032857Y-130662380D01*
X157128095Y-130614761D01*
X157175714Y-130567142D01*
X157223333Y-130471904D01*
X157223333Y-130376666D01*
X157175714Y-130281428D01*
X157128095Y-130233809D01*
X157032857Y-130186190D01*
X156842380Y-130138571D01*
X156747142Y-130090952D01*
X156699523Y-130043333D01*
X156651904Y-129948095D01*
X156651904Y-129852857D01*
X156699523Y-129757619D01*
X156747142Y-129710000D01*
X156842380Y-129662380D01*
X157080476Y-129662380D01*
X157223333Y-129710000D01*
X157509047Y-129662380D02*
X158080476Y-129662380D01*
X157794761Y-130662380D02*
X157794761Y-129662380D01*
X158413809Y-130662380D02*
X158413809Y-129662380D01*
X158747142Y-130376666D01*
X159080476Y-129662380D01*
X159080476Y-130662380D01*
X187660952Y-93242380D02*
X187660952Y-92242380D01*
X188232380Y-93242380D01*
X188232380Y-92242380D01*
X188708571Y-92718571D02*
X189041904Y-92718571D01*
X189184761Y-93242380D02*
X188708571Y-93242380D01*
X188708571Y-92242380D01*
X189184761Y-92242380D01*
X189470476Y-92242380D02*
X190041904Y-92242380D01*
X189756190Y-93242380D02*
X189756190Y-92242380D01*
X192113809Y-94534761D02*
X192256666Y-94582380D01*
X192494761Y-94582380D01*
X192590000Y-94534761D01*
X192637619Y-94487142D01*
X192685238Y-94391904D01*
X192685238Y-94296666D01*
X192637619Y-94201428D01*
X192590000Y-94153809D01*
X192494761Y-94106190D01*
X192304285Y-94058571D01*
X192209047Y-94010952D01*
X192161428Y-93963333D01*
X192113809Y-93868095D01*
X192113809Y-93772857D01*
X192161428Y-93677619D01*
X192209047Y-93630000D01*
X192304285Y-93582380D01*
X192542380Y-93582380D01*
X192685238Y-93630000D01*
X192970952Y-93582380D02*
X193542380Y-93582380D01*
X193256666Y-94582380D02*
X193256666Y-93582380D01*
X193828095Y-94296666D02*
X194304285Y-94296666D01*
X193732857Y-94582380D02*
X194066190Y-93582380D01*
X194399523Y-94582380D01*
X194590000Y-93582380D02*
X195161428Y-93582380D01*
X194875714Y-94582380D02*
X194875714Y-93582380D01*
X195494761Y-93582380D02*
X195494761Y-94391904D01*
X195542380Y-94487142D01*
X195590000Y-94534761D01*
X195685238Y-94582380D01*
X195875714Y-94582380D01*
X195970952Y-94534761D01*
X196018571Y-94487142D01*
X196066190Y-94391904D01*
X196066190Y-93582380D01*
X196494761Y-94534761D02*
X196637619Y-94582380D01*
X196875714Y-94582380D01*
X196970952Y-94534761D01*
X197018571Y-94487142D01*
X197066190Y-94391904D01*
X197066190Y-94296666D01*
X197018571Y-94201428D01*
X196970952Y-94153809D01*
X196875714Y-94106190D01*
X196685238Y-94058571D01*
X196590000Y-94010952D01*
X196542380Y-93963333D01*
X196494761Y-93868095D01*
X196494761Y-93772857D01*
X196542380Y-93677619D01*
X196590000Y-93630000D01*
X196685238Y-93582380D01*
X196923333Y-93582380D01*
X197066190Y-93630000D01*
X137886666Y-106292380D02*
X137886666Y-105292380D01*
X138267619Y-105292380D01*
X138362857Y-105340000D01*
X138410476Y-105387619D01*
X138458095Y-105482857D01*
X138458095Y-105625714D01*
X138410476Y-105720952D01*
X138362857Y-105768571D01*
X138267619Y-105816190D01*
X137886666Y-105816190D01*
X138791428Y-105292380D02*
X139029523Y-106292380D01*
X139220000Y-105578095D01*
X139410476Y-106292380D01*
X139648571Y-105292380D01*
X140600952Y-106292380D02*
X140267619Y-105816190D01*
X140029523Y-106292380D02*
X140029523Y-105292380D01*
X140410476Y-105292380D01*
X140505714Y-105340000D01*
X140553333Y-105387619D01*
X140600952Y-105482857D01*
X140600952Y-105625714D01*
X140553333Y-105720952D01*
X140505714Y-105768571D01*
X140410476Y-105816190D01*
X140029523Y-105816190D01*
X150728571Y-87427380D02*
X150395238Y-86951190D01*
X150157142Y-87427380D02*
X150157142Y-86427380D01*
X150538095Y-86427380D01*
X150633333Y-86475000D01*
X150680952Y-86522619D01*
X150728571Y-86617857D01*
X150728571Y-86760714D01*
X150680952Y-86855952D01*
X150633333Y-86903571D01*
X150538095Y-86951190D01*
X150157142Y-86951190D01*
X151347619Y-86427380D02*
X151538095Y-86427380D01*
X151633333Y-86475000D01*
X151728571Y-86570238D01*
X151776190Y-86760714D01*
X151776190Y-87094047D01*
X151728571Y-87284523D01*
X151633333Y-87379761D01*
X151538095Y-87427380D01*
X151347619Y-87427380D01*
X151252380Y-87379761D01*
X151157142Y-87284523D01*
X151109523Y-87094047D01*
X151109523Y-86760714D01*
X151157142Y-86570238D01*
X151252380Y-86475000D01*
X151347619Y-86427380D01*
X152157142Y-87141666D02*
X152633333Y-87141666D01*
X152061904Y-87427380D02*
X152395238Y-86427380D01*
X152728571Y-87427380D01*
X153061904Y-87427380D02*
X153061904Y-86427380D01*
X153395238Y-87141666D01*
X153728571Y-86427380D01*
X153728571Y-87427380D01*
X154966666Y-87427380D02*
X154966666Y-86427380D01*
X155347619Y-86427380D01*
X155442857Y-86475000D01*
X155490476Y-86522619D01*
X155538095Y-86617857D01*
X155538095Y-86760714D01*
X155490476Y-86855952D01*
X155442857Y-86903571D01*
X155347619Y-86951190D01*
X154966666Y-86951190D01*
X155919047Y-86522619D02*
X155966666Y-86475000D01*
X156061904Y-86427380D01*
X156300000Y-86427380D01*
X156395238Y-86475000D01*
X156442857Y-86522619D01*
X156490476Y-86617857D01*
X156490476Y-86713095D01*
X156442857Y-86855952D01*
X155871428Y-87427380D01*
X156490476Y-87427380D01*
X167087142Y-132487142D02*
X167039523Y-132534761D01*
X166896666Y-132582380D01*
X166801428Y-132582380D01*
X166658571Y-132534761D01*
X166563333Y-132439523D01*
X166515714Y-132344285D01*
X166468095Y-132153809D01*
X166468095Y-132010952D01*
X166515714Y-131820476D01*
X166563333Y-131725238D01*
X166658571Y-131630000D01*
X166801428Y-131582380D01*
X166896666Y-131582380D01*
X167039523Y-131630000D01*
X167087142Y-131677619D01*
X167468095Y-132296666D02*
X167944285Y-132296666D01*
X167372857Y-132582380D02*
X167706190Y-131582380D01*
X168039523Y-132582380D01*
X168372857Y-132582380D02*
X168372857Y-131582380D01*
X168944285Y-132582380D01*
X168944285Y-131582380D01*
X175357142Y-93766666D02*
X175833333Y-93766666D01*
X175261904Y-94052380D02*
X175595238Y-93052380D01*
X175928571Y-94052380D01*
X176261904Y-94052380D02*
X176261904Y-93052380D01*
X176833333Y-94052380D01*
X176833333Y-93052380D01*
X177166666Y-93052380D02*
X177738095Y-93052380D01*
X177452380Y-94052380D02*
X177452380Y-93052380D01*
X185671904Y-87094761D02*
X185814761Y-87142380D01*
X186052857Y-87142380D01*
X186148095Y-87094761D01*
X186195714Y-87047142D01*
X186243333Y-86951904D01*
X186243333Y-86856666D01*
X186195714Y-86761428D01*
X186148095Y-86713809D01*
X186052857Y-86666190D01*
X185862380Y-86618571D01*
X185767142Y-86570952D01*
X185719523Y-86523333D01*
X185671904Y-86428095D01*
X185671904Y-86332857D01*
X185719523Y-86237619D01*
X185767142Y-86190000D01*
X185862380Y-86142380D01*
X186100476Y-86142380D01*
X186243333Y-86190000D01*
X186671904Y-86618571D02*
X187005238Y-86618571D01*
X187148095Y-87142380D02*
X186671904Y-87142380D01*
X186671904Y-86142380D01*
X187148095Y-86142380D01*
X187576666Y-87142380D02*
X187576666Y-86142380D01*
X188148095Y-87142380D01*
X188148095Y-86142380D01*
X188576666Y-87094761D02*
X188719523Y-87142380D01*
X188957619Y-87142380D01*
X189052857Y-87094761D01*
X189100476Y-87047142D01*
X189148095Y-86951904D01*
X189148095Y-86856666D01*
X189100476Y-86761428D01*
X189052857Y-86713809D01*
X188957619Y-86666190D01*
X188767142Y-86618571D01*
X188671904Y-86570952D01*
X188624285Y-86523333D01*
X188576666Y-86428095D01*
X188576666Y-86332857D01*
X188624285Y-86237619D01*
X188671904Y-86190000D01*
X188767142Y-86142380D01*
X189005238Y-86142380D01*
X189148095Y-86190000D01*
D11*
%TO.C,U3*%
X149827380Y-111336904D02*
X150636904Y-111336904D01*
X150732142Y-111289285D01*
X150779761Y-111241666D01*
X150827380Y-111146428D01*
X150827380Y-110955952D01*
X150779761Y-110860714D01*
X150732142Y-110813095D01*
X150636904Y-110765476D01*
X149827380Y-110765476D01*
X149827380Y-110384523D02*
X149827380Y-109765476D01*
X150208333Y-110098809D01*
X150208333Y-109955952D01*
X150255952Y-109860714D01*
X150303571Y-109813095D01*
X150398809Y-109765476D01*
X150636904Y-109765476D01*
X150732142Y-109813095D01*
X150779761Y-109860714D01*
X150827380Y-109955952D01*
X150827380Y-110241666D01*
X150779761Y-110336904D01*
X150732142Y-110384523D01*
X150682500Y-104052379D02*
X150682500Y-104290475D01*
X150444404Y-104195237D02*
X150682500Y-104290475D01*
X150920595Y-104195237D01*
X150539642Y-104480951D02*
X150682500Y-104290475D01*
X150825357Y-104480951D01*
%TO.C,C55*%
X145106496Y-126151420D02*
X145173840Y-126151420D01*
X145308527Y-126218764D01*
X145375870Y-126286107D01*
X145443214Y-126420794D01*
X145443214Y-126555481D01*
X145409542Y-126656496D01*
X145308527Y-126824855D01*
X145207512Y-126925870D01*
X145039153Y-127026886D01*
X144938138Y-127060557D01*
X144803451Y-127060557D01*
X144668764Y-126993214D01*
X144601420Y-126925870D01*
X144534077Y-126791183D01*
X144534077Y-126723840D01*
X143826970Y-126151420D02*
X144163687Y-126488138D01*
X144534077Y-126185092D01*
X144466733Y-126185092D01*
X144365718Y-126151420D01*
X144197359Y-125983061D01*
X144163687Y-125882046D01*
X144163687Y-125814702D01*
X144197359Y-125713687D01*
X144365718Y-125545328D01*
X144466733Y-125511657D01*
X144534077Y-125511657D01*
X144635092Y-125545328D01*
X144803451Y-125713687D01*
X144837122Y-125814702D01*
X144837122Y-125882046D01*
X143153535Y-125477985D02*
X143490252Y-125814702D01*
X143860641Y-125511657D01*
X143793298Y-125511657D01*
X143692283Y-125477985D01*
X143523924Y-125309626D01*
X143490252Y-125208611D01*
X143490252Y-125141267D01*
X143523924Y-125040252D01*
X143692283Y-124871893D01*
X143793298Y-124838222D01*
X143860641Y-124838222D01*
X143961657Y-124871893D01*
X144130015Y-125040252D01*
X144163687Y-125141267D01*
X144163687Y-125208611D01*
%TO.C,C62*%
X128625000Y-115525000D02*
X128658333Y-115558333D01*
X128691666Y-115658333D01*
X128691666Y-115725000D01*
X128658333Y-115825000D01*
X128591666Y-115891666D01*
X128525000Y-115925000D01*
X128391666Y-115958333D01*
X128291666Y-115958333D01*
X128158333Y-115925000D01*
X128091666Y-115891666D01*
X128025000Y-115825000D01*
X127991666Y-115725000D01*
X127991666Y-115658333D01*
X128025000Y-115558333D01*
X128058333Y-115525000D01*
X127991666Y-114925000D02*
X127991666Y-115058333D01*
X128025000Y-115125000D01*
X128058333Y-115158333D01*
X128158333Y-115225000D01*
X128291666Y-115258333D01*
X128558333Y-115258333D01*
X128625000Y-115225000D01*
X128658333Y-115191666D01*
X128691666Y-115125000D01*
X128691666Y-114991666D01*
X128658333Y-114925000D01*
X128625000Y-114891666D01*
X128558333Y-114858333D01*
X128391666Y-114858333D01*
X128325000Y-114891666D01*
X128291666Y-114925000D01*
X128258333Y-114991666D01*
X128258333Y-115125000D01*
X128291666Y-115191666D01*
X128325000Y-115225000D01*
X128391666Y-115258333D01*
X128058333Y-114591666D02*
X128025000Y-114558333D01*
X127991666Y-114491666D01*
X127991666Y-114325000D01*
X128025000Y-114258333D01*
X128058333Y-114225000D01*
X128125000Y-114191666D01*
X128191666Y-114191666D01*
X128291666Y-114225000D01*
X128691666Y-114625000D01*
X128691666Y-114191666D01*
%TO.C,D19*%
X166800000Y-127966666D02*
X166800000Y-127266666D01*
X166966666Y-127266666D01*
X167066666Y-127300000D01*
X167133333Y-127366666D01*
X167166666Y-127433333D01*
X167200000Y-127566666D01*
X167200000Y-127666666D01*
X167166666Y-127800000D01*
X167133333Y-127866666D01*
X167066666Y-127933333D01*
X166966666Y-127966666D01*
X166800000Y-127966666D01*
X167866666Y-127966666D02*
X167466666Y-127966666D01*
X167666666Y-127966666D02*
X167666666Y-127266666D01*
X167600000Y-127366666D01*
X167533333Y-127433333D01*
X167466666Y-127466666D01*
X168200000Y-127966666D02*
X168333333Y-127966666D01*
X168400000Y-127933333D01*
X168433333Y-127900000D01*
X168500000Y-127800000D01*
X168533333Y-127666666D01*
X168533333Y-127400000D01*
X168500000Y-127333333D01*
X168466666Y-127300000D01*
X168400000Y-127266666D01*
X168266666Y-127266666D01*
X168200000Y-127300000D01*
X168166666Y-127333333D01*
X168133333Y-127400000D01*
X168133333Y-127566666D01*
X168166666Y-127633333D01*
X168200000Y-127666666D01*
X168266666Y-127700000D01*
X168400000Y-127700000D01*
X168466666Y-127666666D01*
X168500000Y-127633333D01*
X168533333Y-127566666D01*
%TO.C,C20*%
X120307142Y-141000909D02*
X120259523Y-141048528D01*
X120116666Y-141096147D01*
X120021428Y-141096147D01*
X119878571Y-141048528D01*
X119783333Y-140953290D01*
X119735714Y-140858052D01*
X119688095Y-140667576D01*
X119688095Y-140524719D01*
X119735714Y-140334243D01*
X119783333Y-140239005D01*
X119878571Y-140143767D01*
X120021428Y-140096147D01*
X120116666Y-140096147D01*
X120259523Y-140143767D01*
X120307142Y-140191386D01*
X120688095Y-140191386D02*
X120735714Y-140143767D01*
X120830952Y-140096147D01*
X121069047Y-140096147D01*
X121164285Y-140143767D01*
X121211904Y-140191386D01*
X121259523Y-140286624D01*
X121259523Y-140381862D01*
X121211904Y-140524719D01*
X120640476Y-141096147D01*
X121259523Y-141096147D01*
X121878571Y-140096147D02*
X121973809Y-140096147D01*
X122069047Y-140143767D01*
X122116666Y-140191386D01*
X122164285Y-140286624D01*
X122211904Y-140477100D01*
X122211904Y-140715195D01*
X122164285Y-140905671D01*
X122116666Y-141000909D01*
X122069047Y-141048528D01*
X121973809Y-141096147D01*
X121878571Y-141096147D01*
X121783333Y-141048528D01*
X121735714Y-141000909D01*
X121688095Y-140905671D01*
X121640476Y-140715195D01*
X121640476Y-140477100D01*
X121688095Y-140286624D01*
X121735714Y-140191386D01*
X121783333Y-140143767D01*
X121878571Y-140096147D01*
%TO.C,R20*%
X122475000Y-89541666D02*
X122241666Y-89208333D01*
X122075000Y-89541666D02*
X122075000Y-88841666D01*
X122341666Y-88841666D01*
X122408333Y-88875000D01*
X122441666Y-88908333D01*
X122475000Y-88975000D01*
X122475000Y-89075000D01*
X122441666Y-89141666D01*
X122408333Y-89175000D01*
X122341666Y-89208333D01*
X122075000Y-89208333D01*
X122741666Y-88908333D02*
X122775000Y-88875000D01*
X122841666Y-88841666D01*
X123008333Y-88841666D01*
X123075000Y-88875000D01*
X123108333Y-88908333D01*
X123141666Y-88975000D01*
X123141666Y-89041666D01*
X123108333Y-89141666D01*
X122708333Y-89541666D01*
X123141666Y-89541666D01*
X123575000Y-88841666D02*
X123641666Y-88841666D01*
X123708333Y-88875000D01*
X123741666Y-88908333D01*
X123775000Y-88975000D01*
X123808333Y-89108333D01*
X123808333Y-89275000D01*
X123775000Y-89408333D01*
X123741666Y-89475000D01*
X123708333Y-89508333D01*
X123641666Y-89541666D01*
X123575000Y-89541666D01*
X123508333Y-89508333D01*
X123475000Y-89475000D01*
X123441666Y-89408333D01*
X123408333Y-89275000D01*
X123408333Y-89108333D01*
X123441666Y-88975000D01*
X123475000Y-88908333D01*
X123508333Y-88875000D01*
X123575000Y-88841666D01*
%TO.C,R52*%
X189557142Y-88502380D02*
X189223809Y-88026190D01*
X188985714Y-88502380D02*
X188985714Y-87502380D01*
X189366666Y-87502380D01*
X189461904Y-87550000D01*
X189509523Y-87597619D01*
X189557142Y-87692857D01*
X189557142Y-87835714D01*
X189509523Y-87930952D01*
X189461904Y-87978571D01*
X189366666Y-88026190D01*
X188985714Y-88026190D01*
X190461904Y-87502380D02*
X189985714Y-87502380D01*
X189938095Y-87978571D01*
X189985714Y-87930952D01*
X190080952Y-87883333D01*
X190319047Y-87883333D01*
X190414285Y-87930952D01*
X190461904Y-87978571D01*
X190509523Y-88073809D01*
X190509523Y-88311904D01*
X190461904Y-88407142D01*
X190414285Y-88454761D01*
X190319047Y-88502380D01*
X190080952Y-88502380D01*
X189985714Y-88454761D01*
X189938095Y-88407142D01*
X190890476Y-87597619D02*
X190938095Y-87550000D01*
X191033333Y-87502380D01*
X191271428Y-87502380D01*
X191366666Y-87550000D01*
X191414285Y-87597619D01*
X191461904Y-87692857D01*
X191461904Y-87788095D01*
X191414285Y-87930952D01*
X190842857Y-88502380D01*
X191461904Y-88502380D01*
%TO.C,C61*%
X183967142Y-118137142D02*
X183919523Y-118184761D01*
X183776666Y-118232380D01*
X183681428Y-118232380D01*
X183538571Y-118184761D01*
X183443333Y-118089523D01*
X183395714Y-117994285D01*
X183348095Y-117803809D01*
X183348095Y-117660952D01*
X183395714Y-117470476D01*
X183443333Y-117375238D01*
X183538571Y-117280000D01*
X183681428Y-117232380D01*
X183776666Y-117232380D01*
X183919523Y-117280000D01*
X183967142Y-117327619D01*
X184824285Y-117232380D02*
X184633809Y-117232380D01*
X184538571Y-117280000D01*
X184490952Y-117327619D01*
X184395714Y-117470476D01*
X184348095Y-117660952D01*
X184348095Y-118041904D01*
X184395714Y-118137142D01*
X184443333Y-118184761D01*
X184538571Y-118232380D01*
X184729047Y-118232380D01*
X184824285Y-118184761D01*
X184871904Y-118137142D01*
X184919523Y-118041904D01*
X184919523Y-117803809D01*
X184871904Y-117708571D01*
X184824285Y-117660952D01*
X184729047Y-117613333D01*
X184538571Y-117613333D01*
X184443333Y-117660952D01*
X184395714Y-117708571D01*
X184348095Y-117803809D01*
X185871904Y-118232380D02*
X185300476Y-118232380D01*
X185586190Y-118232380D02*
X185586190Y-117232380D01*
X185490952Y-117375238D01*
X185395714Y-117470476D01*
X185300476Y-117518095D01*
%TO.C,R22*%
X127166666Y-133593767D02*
X126833333Y-133827100D01*
X127166666Y-133993767D02*
X126466666Y-133993767D01*
X126466666Y-133727100D01*
X126500000Y-133660433D01*
X126533333Y-133627100D01*
X126600000Y-133593767D01*
X126700000Y-133593767D01*
X126766666Y-133627100D01*
X126800000Y-133660433D01*
X126833333Y-133727100D01*
X126833333Y-133993767D01*
X126533333Y-133327100D02*
X126500000Y-133293767D01*
X126466666Y-133227100D01*
X126466666Y-133060433D01*
X126500000Y-132993767D01*
X126533333Y-132960433D01*
X126600000Y-132927100D01*
X126666666Y-132927100D01*
X126766666Y-132960433D01*
X127166666Y-133360433D01*
X127166666Y-132927100D01*
X126533333Y-132660433D02*
X126500000Y-132627100D01*
X126466666Y-132560433D01*
X126466666Y-132393767D01*
X126500000Y-132327100D01*
X126533333Y-132293767D01*
X126600000Y-132260433D01*
X126666666Y-132260433D01*
X126766666Y-132293767D01*
X127166666Y-132693767D01*
X127166666Y-132260433D01*
%TO.C,R43*%
X117382380Y-98742857D02*
X116906190Y-99076190D01*
X117382380Y-99314285D02*
X116382380Y-99314285D01*
X116382380Y-98933333D01*
X116430000Y-98838095D01*
X116477619Y-98790476D01*
X116572857Y-98742857D01*
X116715714Y-98742857D01*
X116810952Y-98790476D01*
X116858571Y-98838095D01*
X116906190Y-98933333D01*
X116906190Y-99314285D01*
X116715714Y-97885714D02*
X117382380Y-97885714D01*
X116334761Y-98123809D02*
X117049047Y-98361904D01*
X117049047Y-97742857D01*
X116382380Y-97457142D02*
X116382380Y-96838095D01*
X116763333Y-97171428D01*
X116763333Y-97028571D01*
X116810952Y-96933333D01*
X116858571Y-96885714D01*
X116953809Y-96838095D01*
X117191904Y-96838095D01*
X117287142Y-96885714D01*
X117334761Y-96933333D01*
X117382380Y-97028571D01*
X117382380Y-97314285D01*
X117334761Y-97409523D01*
X117287142Y-97457142D01*
%TO.C,D17*%
X194277380Y-100514285D02*
X193277380Y-100514285D01*
X193277380Y-100276190D01*
X193325000Y-100133333D01*
X193420238Y-100038095D01*
X193515476Y-99990476D01*
X193705952Y-99942857D01*
X193848809Y-99942857D01*
X194039285Y-99990476D01*
X194134523Y-100038095D01*
X194229761Y-100133333D01*
X194277380Y-100276190D01*
X194277380Y-100514285D01*
X194277380Y-98990476D02*
X194277380Y-99561904D01*
X194277380Y-99276190D02*
X193277380Y-99276190D01*
X193420238Y-99371428D01*
X193515476Y-99466666D01*
X193563095Y-99561904D01*
X193277380Y-98657142D02*
X193277380Y-97990476D01*
X194277380Y-98419047D01*
%TO.C,C42*%
X133900000Y-95550000D02*
X133933333Y-95583333D01*
X133966666Y-95683333D01*
X133966666Y-95750000D01*
X133933333Y-95850000D01*
X133866666Y-95916666D01*
X133800000Y-95950000D01*
X133666666Y-95983333D01*
X133566666Y-95983333D01*
X133433333Y-95950000D01*
X133366666Y-95916666D01*
X133300000Y-95850000D01*
X133266666Y-95750000D01*
X133266666Y-95683333D01*
X133300000Y-95583333D01*
X133333333Y-95550000D01*
X133500000Y-94950000D02*
X133966666Y-94950000D01*
X133233333Y-95116666D02*
X133733333Y-95283333D01*
X133733333Y-94850000D01*
X133333333Y-94616666D02*
X133300000Y-94583333D01*
X133266666Y-94516666D01*
X133266666Y-94350000D01*
X133300000Y-94283333D01*
X133333333Y-94250000D01*
X133400000Y-94216666D01*
X133466666Y-94216666D01*
X133566666Y-94250000D01*
X133966666Y-94650000D01*
X133966666Y-94216666D01*
%TO.C,R39*%
X120666666Y-104250000D02*
X120333333Y-104483333D01*
X120666666Y-104650000D02*
X119966666Y-104650000D01*
X119966666Y-104383333D01*
X120000000Y-104316666D01*
X120033333Y-104283333D01*
X120100000Y-104250000D01*
X120200000Y-104250000D01*
X120266666Y-104283333D01*
X120300000Y-104316666D01*
X120333333Y-104383333D01*
X120333333Y-104650000D01*
X119966666Y-104016666D02*
X119966666Y-103583333D01*
X120233333Y-103816666D01*
X120233333Y-103716666D01*
X120266666Y-103650000D01*
X120300000Y-103616666D01*
X120366666Y-103583333D01*
X120533333Y-103583333D01*
X120600000Y-103616666D01*
X120633333Y-103650000D01*
X120666666Y-103716666D01*
X120666666Y-103916666D01*
X120633333Y-103983333D01*
X120600000Y-104016666D01*
X120666666Y-103250000D02*
X120666666Y-103116666D01*
X120633333Y-103050000D01*
X120600000Y-103016666D01*
X120500000Y-102950000D01*
X120366666Y-102916666D01*
X120100000Y-102916666D01*
X120033333Y-102950000D01*
X120000000Y-102983333D01*
X119966666Y-103050000D01*
X119966666Y-103183333D01*
X120000000Y-103250000D01*
X120033333Y-103283333D01*
X120100000Y-103316666D01*
X120266666Y-103316666D01*
X120333333Y-103283333D01*
X120366666Y-103250000D01*
X120400000Y-103183333D01*
X120400000Y-103050000D01*
X120366666Y-102983333D01*
X120333333Y-102950000D01*
X120266666Y-102916666D01*
%TO.C,J5*%
X137402380Y-101343333D02*
X138116666Y-101343333D01*
X138259523Y-101390952D01*
X138354761Y-101486190D01*
X138402380Y-101629047D01*
X138402380Y-101724285D01*
X137402380Y-100390952D02*
X137402380Y-100867142D01*
X137878571Y-100914761D01*
X137830952Y-100867142D01*
X137783333Y-100771904D01*
X137783333Y-100533809D01*
X137830952Y-100438571D01*
X137878571Y-100390952D01*
X137973809Y-100343333D01*
X138211904Y-100343333D01*
X138307142Y-100390952D01*
X138354761Y-100438571D01*
X138402380Y-100533809D01*
X138402380Y-100771904D01*
X138354761Y-100867142D01*
X138307142Y-100914761D01*
%TO.C,R50*%
X190575000Y-91516666D02*
X190341666Y-91183333D01*
X190175000Y-91516666D02*
X190175000Y-90816666D01*
X190441666Y-90816666D01*
X190508333Y-90850000D01*
X190541666Y-90883333D01*
X190575000Y-90950000D01*
X190575000Y-91050000D01*
X190541666Y-91116666D01*
X190508333Y-91150000D01*
X190441666Y-91183333D01*
X190175000Y-91183333D01*
X191208333Y-90816666D02*
X190875000Y-90816666D01*
X190841666Y-91150000D01*
X190875000Y-91116666D01*
X190941666Y-91083333D01*
X191108333Y-91083333D01*
X191175000Y-91116666D01*
X191208333Y-91150000D01*
X191241666Y-91216666D01*
X191241666Y-91383333D01*
X191208333Y-91450000D01*
X191175000Y-91483333D01*
X191108333Y-91516666D01*
X190941666Y-91516666D01*
X190875000Y-91483333D01*
X190841666Y-91450000D01*
X191675000Y-90816666D02*
X191741666Y-90816666D01*
X191808333Y-90850000D01*
X191841666Y-90883333D01*
X191875000Y-90950000D01*
X191908333Y-91083333D01*
X191908333Y-91250000D01*
X191875000Y-91383333D01*
X191841666Y-91450000D01*
X191808333Y-91483333D01*
X191741666Y-91516666D01*
X191675000Y-91516666D01*
X191608333Y-91483333D01*
X191575000Y-91450000D01*
X191541666Y-91383333D01*
X191508333Y-91250000D01*
X191508333Y-91083333D01*
X191541666Y-90950000D01*
X191575000Y-90883333D01*
X191608333Y-90850000D01*
X191675000Y-90816666D01*
%TO.C,J10*%
X155147380Y-128059523D02*
X155861666Y-128059523D01*
X156004523Y-128107142D01*
X156099761Y-128202380D01*
X156147380Y-128345238D01*
X156147380Y-128440476D01*
X156147380Y-127059523D02*
X156147380Y-127630952D01*
X156147380Y-127345238D02*
X155147380Y-127345238D01*
X155290238Y-127440476D01*
X155385476Y-127535714D01*
X155433095Y-127630952D01*
X155147380Y-126440476D02*
X155147380Y-126345238D01*
X155195000Y-126250000D01*
X155242619Y-126202380D01*
X155337857Y-126154761D01*
X155528333Y-126107142D01*
X155766428Y-126107142D01*
X155956904Y-126154761D01*
X156052142Y-126202380D01*
X156099761Y-126250000D01*
X156147380Y-126345238D01*
X156147380Y-126440476D01*
X156099761Y-126535714D01*
X156052142Y-126583333D01*
X155956904Y-126630952D01*
X155766428Y-126678571D01*
X155528333Y-126678571D01*
X155337857Y-126630952D01*
X155242619Y-126583333D01*
X155195000Y-126535714D01*
X155147380Y-126440476D01*
%TO.C,R36*%
X121791666Y-104275000D02*
X121458333Y-104508333D01*
X121791666Y-104675000D02*
X121091666Y-104675000D01*
X121091666Y-104408333D01*
X121125000Y-104341666D01*
X121158333Y-104308333D01*
X121225000Y-104275000D01*
X121325000Y-104275000D01*
X121391666Y-104308333D01*
X121425000Y-104341666D01*
X121458333Y-104408333D01*
X121458333Y-104675000D01*
X121091666Y-104041666D02*
X121091666Y-103608333D01*
X121358333Y-103841666D01*
X121358333Y-103741666D01*
X121391666Y-103675000D01*
X121425000Y-103641666D01*
X121491666Y-103608333D01*
X121658333Y-103608333D01*
X121725000Y-103641666D01*
X121758333Y-103675000D01*
X121791666Y-103741666D01*
X121791666Y-103941666D01*
X121758333Y-104008333D01*
X121725000Y-104041666D01*
X121091666Y-103008333D02*
X121091666Y-103141666D01*
X121125000Y-103208333D01*
X121158333Y-103241666D01*
X121258333Y-103308333D01*
X121391666Y-103341666D01*
X121658333Y-103341666D01*
X121725000Y-103308333D01*
X121758333Y-103275000D01*
X121791666Y-103208333D01*
X121791666Y-103075000D01*
X121758333Y-103008333D01*
X121725000Y-102975000D01*
X121658333Y-102941666D01*
X121491666Y-102941666D01*
X121425000Y-102975000D01*
X121391666Y-103008333D01*
X121358333Y-103075000D01*
X121358333Y-103208333D01*
X121391666Y-103275000D01*
X121425000Y-103308333D01*
X121491666Y-103341666D01*
%TO.C,Y2*%
X175456190Y-139846190D02*
X175932380Y-139846190D01*
X174932380Y-140179523D02*
X175456190Y-139846190D01*
X174932380Y-139512857D01*
X175027619Y-139227142D02*
X174980000Y-139179523D01*
X174932380Y-139084285D01*
X174932380Y-138846190D01*
X174980000Y-138750952D01*
X175027619Y-138703333D01*
X175122857Y-138655714D01*
X175218095Y-138655714D01*
X175360952Y-138703333D01*
X175932380Y-139274761D01*
X175932380Y-138655714D01*
%TO.C,D22*%
X136725714Y-86352380D02*
X136725714Y-85352380D01*
X136963809Y-85352380D01*
X137106666Y-85400000D01*
X137201904Y-85495238D01*
X137249523Y-85590476D01*
X137297142Y-85780952D01*
X137297142Y-85923809D01*
X137249523Y-86114285D01*
X137201904Y-86209523D01*
X137106666Y-86304761D01*
X136963809Y-86352380D01*
X136725714Y-86352380D01*
X137678095Y-85447619D02*
X137725714Y-85400000D01*
X137820952Y-85352380D01*
X138059047Y-85352380D01*
X138154285Y-85400000D01*
X138201904Y-85447619D01*
X138249523Y-85542857D01*
X138249523Y-85638095D01*
X138201904Y-85780952D01*
X137630476Y-86352380D01*
X138249523Y-86352380D01*
X138630476Y-85447619D02*
X138678095Y-85400000D01*
X138773333Y-85352380D01*
X139011428Y-85352380D01*
X139106666Y-85400000D01*
X139154285Y-85447619D01*
X139201904Y-85542857D01*
X139201904Y-85638095D01*
X139154285Y-85780952D01*
X138582857Y-86352380D01*
X139201904Y-86352380D01*
%TO.C,R32*%
X114982380Y-129017857D02*
X114506190Y-129351190D01*
X114982380Y-129589285D02*
X113982380Y-129589285D01*
X113982380Y-129208333D01*
X114030000Y-129113095D01*
X114077619Y-129065476D01*
X114172857Y-129017857D01*
X114315714Y-129017857D01*
X114410952Y-129065476D01*
X114458571Y-129113095D01*
X114506190Y-129208333D01*
X114506190Y-129589285D01*
X113982380Y-128684523D02*
X113982380Y-128065476D01*
X114363333Y-128398809D01*
X114363333Y-128255952D01*
X114410952Y-128160714D01*
X114458571Y-128113095D01*
X114553809Y-128065476D01*
X114791904Y-128065476D01*
X114887142Y-128113095D01*
X114934761Y-128160714D01*
X114982380Y-128255952D01*
X114982380Y-128541666D01*
X114934761Y-128636904D01*
X114887142Y-128684523D01*
X114077619Y-127684523D02*
X114030000Y-127636904D01*
X113982380Y-127541666D01*
X113982380Y-127303571D01*
X114030000Y-127208333D01*
X114077619Y-127160714D01*
X114172857Y-127113095D01*
X114268095Y-127113095D01*
X114410952Y-127160714D01*
X114982380Y-127732142D01*
X114982380Y-127113095D01*
%TO.C,C59*%
X139707142Y-137257142D02*
X139659523Y-137304761D01*
X139516666Y-137352380D01*
X139421428Y-137352380D01*
X139278571Y-137304761D01*
X139183333Y-137209523D01*
X139135714Y-137114285D01*
X139088095Y-136923809D01*
X139088095Y-136780952D01*
X139135714Y-136590476D01*
X139183333Y-136495238D01*
X139278571Y-136400000D01*
X139421428Y-136352380D01*
X139516666Y-136352380D01*
X139659523Y-136400000D01*
X139707142Y-136447619D01*
X140611904Y-136352380D02*
X140135714Y-136352380D01*
X140088095Y-136828571D01*
X140135714Y-136780952D01*
X140230952Y-136733333D01*
X140469047Y-136733333D01*
X140564285Y-136780952D01*
X140611904Y-136828571D01*
X140659523Y-136923809D01*
X140659523Y-137161904D01*
X140611904Y-137257142D01*
X140564285Y-137304761D01*
X140469047Y-137352380D01*
X140230952Y-137352380D01*
X140135714Y-137304761D01*
X140088095Y-137257142D01*
X141135714Y-137352380D02*
X141326190Y-137352380D01*
X141421428Y-137304761D01*
X141469047Y-137257142D01*
X141564285Y-137114285D01*
X141611904Y-136923809D01*
X141611904Y-136542857D01*
X141564285Y-136447619D01*
X141516666Y-136400000D01*
X141421428Y-136352380D01*
X141230952Y-136352380D01*
X141135714Y-136400000D01*
X141088095Y-136447619D01*
X141040476Y-136542857D01*
X141040476Y-136780952D01*
X141088095Y-136876190D01*
X141135714Y-136923809D01*
X141230952Y-136971428D01*
X141421428Y-136971428D01*
X141516666Y-136923809D01*
X141564285Y-136876190D01*
X141611904Y-136780952D01*
%TO.C,U9*%
X140638095Y-113102380D02*
X140638095Y-113911904D01*
X140685714Y-114007142D01*
X140733333Y-114054761D01*
X140828571Y-114102380D01*
X141019047Y-114102380D01*
X141114285Y-114054761D01*
X141161904Y-114007142D01*
X141209523Y-113911904D01*
X141209523Y-113102380D01*
X141733333Y-114102380D02*
X141923809Y-114102380D01*
X142019047Y-114054761D01*
X142066666Y-114007142D01*
X142161904Y-113864285D01*
X142209523Y-113673809D01*
X142209523Y-113292857D01*
X142161904Y-113197619D01*
X142114285Y-113150000D01*
X142019047Y-113102380D01*
X141828571Y-113102380D01*
X141733333Y-113150000D01*
X141685714Y-113197619D01*
X141638095Y-113292857D01*
X141638095Y-113530952D01*
X141685714Y-113626190D01*
X141733333Y-113673809D01*
X141828571Y-113721428D01*
X142019047Y-113721428D01*
X142114285Y-113673809D01*
X142161904Y-113626190D01*
X142209523Y-113530952D01*
%TO.C,C46*%
X181457142Y-86807142D02*
X181409523Y-86854761D01*
X181266666Y-86902380D01*
X181171428Y-86902380D01*
X181028571Y-86854761D01*
X180933333Y-86759523D01*
X180885714Y-86664285D01*
X180838095Y-86473809D01*
X180838095Y-86330952D01*
X180885714Y-86140476D01*
X180933333Y-86045238D01*
X181028571Y-85950000D01*
X181171428Y-85902380D01*
X181266666Y-85902380D01*
X181409523Y-85950000D01*
X181457142Y-85997619D01*
X182314285Y-86235714D02*
X182314285Y-86902380D01*
X182076190Y-85854761D02*
X181838095Y-86569047D01*
X182457142Y-86569047D01*
X183266666Y-85902380D02*
X183076190Y-85902380D01*
X182980952Y-85950000D01*
X182933333Y-85997619D01*
X182838095Y-86140476D01*
X182790476Y-86330952D01*
X182790476Y-86711904D01*
X182838095Y-86807142D01*
X182885714Y-86854761D01*
X182980952Y-86902380D01*
X183171428Y-86902380D01*
X183266666Y-86854761D01*
X183314285Y-86807142D01*
X183361904Y-86711904D01*
X183361904Y-86473809D01*
X183314285Y-86378571D01*
X183266666Y-86330952D01*
X183171428Y-86283333D01*
X182980952Y-86283333D01*
X182885714Y-86330952D01*
X182838095Y-86378571D01*
X182790476Y-86473809D01*
%TO.C,U11*%
X167861904Y-136602380D02*
X167861904Y-137411904D01*
X167909523Y-137507142D01*
X167957142Y-137554761D01*
X168052380Y-137602380D01*
X168242857Y-137602380D01*
X168338095Y-137554761D01*
X168385714Y-137507142D01*
X168433333Y-137411904D01*
X168433333Y-136602380D01*
X169433333Y-137602380D02*
X168861904Y-137602380D01*
X169147619Y-137602380D02*
X169147619Y-136602380D01*
X169052380Y-136745238D01*
X168957142Y-136840476D01*
X168861904Y-136888095D01*
X170385714Y-137602380D02*
X169814285Y-137602380D01*
X170100000Y-137602380D02*
X170100000Y-136602380D01*
X170004761Y-136745238D01*
X169909523Y-136840476D01*
X169814285Y-136888095D01*
%TO.C,R2*%
X180008333Y-127202380D02*
X179675000Y-126726190D01*
X179436904Y-127202380D02*
X179436904Y-126202380D01*
X179817857Y-126202380D01*
X179913095Y-126250000D01*
X179960714Y-126297619D01*
X180008333Y-126392857D01*
X180008333Y-126535714D01*
X179960714Y-126630952D01*
X179913095Y-126678571D01*
X179817857Y-126726190D01*
X179436904Y-126726190D01*
X180389285Y-126297619D02*
X180436904Y-126250000D01*
X180532142Y-126202380D01*
X180770238Y-126202380D01*
X180865476Y-126250000D01*
X180913095Y-126297619D01*
X180960714Y-126392857D01*
X180960714Y-126488095D01*
X180913095Y-126630952D01*
X180341666Y-127202380D01*
X180960714Y-127202380D01*
%TO.C,C54*%
X141707106Y-129502030D02*
X141774450Y-129502030D01*
X141909137Y-129569374D01*
X141976480Y-129636717D01*
X142043824Y-129771404D01*
X142043824Y-129906091D01*
X142010152Y-130007106D01*
X141909137Y-130175465D01*
X141808122Y-130276480D01*
X141639763Y-130377496D01*
X141538748Y-130411167D01*
X141404061Y-130411167D01*
X141269374Y-130343824D01*
X141202030Y-130276480D01*
X141134687Y-130141793D01*
X141134687Y-130074450D01*
X140427580Y-129502030D02*
X140764297Y-129838748D01*
X141134687Y-129535702D01*
X141067343Y-129535702D01*
X140966328Y-129502030D01*
X140797969Y-129333671D01*
X140764297Y-129232656D01*
X140764297Y-129165312D01*
X140797969Y-129064297D01*
X140966328Y-128895938D01*
X141067343Y-128862267D01*
X141134687Y-128862267D01*
X141235702Y-128895938D01*
X141404061Y-129064297D01*
X141437732Y-129165312D01*
X141437732Y-129232656D01*
X140023519Y-128626564D02*
X140494923Y-128155160D01*
X139922503Y-129064297D02*
X140595938Y-128727580D01*
X140158206Y-128289847D01*
%TO.C,C24*%
X121342730Y-116562682D02*
X121309396Y-116596015D01*
X121209396Y-116629348D01*
X121142730Y-116629348D01*
X121042730Y-116596015D01*
X120976063Y-116529348D01*
X120942730Y-116462682D01*
X120909396Y-116329348D01*
X120909396Y-116229348D01*
X120942730Y-116096015D01*
X120976063Y-116029348D01*
X121042730Y-115962682D01*
X121142730Y-115929348D01*
X121209396Y-115929348D01*
X121309396Y-115962682D01*
X121342730Y-115996015D01*
X121609396Y-115996015D02*
X121642730Y-115962682D01*
X121709396Y-115929348D01*
X121876063Y-115929348D01*
X121942730Y-115962682D01*
X121976063Y-115996015D01*
X122009396Y-116062682D01*
X122009396Y-116129348D01*
X121976063Y-116229348D01*
X121576063Y-116629348D01*
X122009396Y-116629348D01*
X122609396Y-116162682D02*
X122609396Y-116629348D01*
X122442730Y-115896015D02*
X122276063Y-116396015D01*
X122709396Y-116396015D01*
%TO.C,U13*%
X184186904Y-93802380D02*
X184186904Y-94611904D01*
X184234523Y-94707142D01*
X184282142Y-94754761D01*
X184377380Y-94802380D01*
X184567857Y-94802380D01*
X184663095Y-94754761D01*
X184710714Y-94707142D01*
X184758333Y-94611904D01*
X184758333Y-93802380D01*
X185758333Y-94802380D02*
X185186904Y-94802380D01*
X185472619Y-94802380D02*
X185472619Y-93802380D01*
X185377380Y-93945238D01*
X185282142Y-94040476D01*
X185186904Y-94088095D01*
X186091666Y-93802380D02*
X186710714Y-93802380D01*
X186377380Y-94183333D01*
X186520238Y-94183333D01*
X186615476Y-94230952D01*
X186663095Y-94278571D01*
X186710714Y-94373809D01*
X186710714Y-94611904D01*
X186663095Y-94707142D01*
X186615476Y-94754761D01*
X186520238Y-94802380D01*
X186234523Y-94802380D01*
X186139285Y-94754761D01*
X186091666Y-94707142D01*
%TO.C,C35*%
X132910242Y-104492857D02*
X132957861Y-104540476D01*
X133005480Y-104683333D01*
X133005480Y-104778571D01*
X132957861Y-104921428D01*
X132862623Y-105016666D01*
X132767385Y-105064285D01*
X132576909Y-105111904D01*
X132434052Y-105111904D01*
X132243576Y-105064285D01*
X132148338Y-105016666D01*
X132053100Y-104921428D01*
X132005480Y-104778571D01*
X132005480Y-104683333D01*
X132053100Y-104540476D01*
X132100719Y-104492857D01*
X132005480Y-104159523D02*
X132005480Y-103540476D01*
X132386433Y-103873809D01*
X132386433Y-103730952D01*
X132434052Y-103635714D01*
X132481671Y-103588095D01*
X132576909Y-103540476D01*
X132815004Y-103540476D01*
X132910242Y-103588095D01*
X132957861Y-103635714D01*
X133005480Y-103730952D01*
X133005480Y-104016666D01*
X132957861Y-104111904D01*
X132910242Y-104159523D01*
X132005480Y-102635714D02*
X132005480Y-103111904D01*
X132481671Y-103159523D01*
X132434052Y-103111904D01*
X132386433Y-103016666D01*
X132386433Y-102778571D01*
X132434052Y-102683333D01*
X132481671Y-102635714D01*
X132576909Y-102588095D01*
X132815004Y-102588095D01*
X132910242Y-102635714D01*
X132957861Y-102683333D01*
X133005480Y-102778571D01*
X133005480Y-103016666D01*
X132957861Y-103111904D01*
X132910242Y-103159523D01*
%TO.C,C48*%
X169250000Y-127900000D02*
X169216666Y-127933333D01*
X169116666Y-127966666D01*
X169050000Y-127966666D01*
X168950000Y-127933333D01*
X168883333Y-127866666D01*
X168850000Y-127800000D01*
X168816666Y-127666666D01*
X168816666Y-127566666D01*
X168850000Y-127433333D01*
X168883333Y-127366666D01*
X168950000Y-127300000D01*
X169050000Y-127266666D01*
X169116666Y-127266666D01*
X169216666Y-127300000D01*
X169250000Y-127333333D01*
X169850000Y-127500000D02*
X169850000Y-127966666D01*
X169683333Y-127233333D02*
X169516666Y-127733333D01*
X169950000Y-127733333D01*
X170316666Y-127566666D02*
X170250000Y-127533333D01*
X170216666Y-127500000D01*
X170183333Y-127433333D01*
X170183333Y-127400000D01*
X170216666Y-127333333D01*
X170250000Y-127300000D01*
X170316666Y-127266666D01*
X170450000Y-127266666D01*
X170516666Y-127300000D01*
X170550000Y-127333333D01*
X170583333Y-127400000D01*
X170583333Y-127433333D01*
X170550000Y-127500000D01*
X170516666Y-127533333D01*
X170450000Y-127566666D01*
X170316666Y-127566666D01*
X170250000Y-127600000D01*
X170216666Y-127633333D01*
X170183333Y-127700000D01*
X170183333Y-127833333D01*
X170216666Y-127900000D01*
X170250000Y-127933333D01*
X170316666Y-127966666D01*
X170450000Y-127966666D01*
X170516666Y-127933333D01*
X170550000Y-127900000D01*
X170583333Y-127833333D01*
X170583333Y-127700000D01*
X170550000Y-127633333D01*
X170516666Y-127600000D01*
X170450000Y-127566666D01*
%TO.C,H2*%
X104238095Y-86652380D02*
X104238095Y-85652380D01*
X104238095Y-86128571D02*
X104809523Y-86128571D01*
X104809523Y-86652380D02*
X104809523Y-85652380D01*
X105238095Y-85747619D02*
X105285714Y-85700000D01*
X105380952Y-85652380D01*
X105619047Y-85652380D01*
X105714285Y-85700000D01*
X105761904Y-85747619D01*
X105809523Y-85842857D01*
X105809523Y-85938095D01*
X105761904Y-86080952D01*
X105190476Y-86652380D01*
X105809523Y-86652380D01*
%TO.C,C31*%
X130250000Y-117650000D02*
X130283333Y-117683333D01*
X130316666Y-117783333D01*
X130316666Y-117850000D01*
X130283333Y-117950000D01*
X130216666Y-118016666D01*
X130150000Y-118050000D01*
X130016666Y-118083333D01*
X129916666Y-118083333D01*
X129783333Y-118050000D01*
X129716666Y-118016666D01*
X129650000Y-117950000D01*
X129616666Y-117850000D01*
X129616666Y-117783333D01*
X129650000Y-117683333D01*
X129683333Y-117650000D01*
X129616666Y-117416666D02*
X129616666Y-116983333D01*
X129883333Y-117216666D01*
X129883333Y-117116666D01*
X129916666Y-117050000D01*
X129950000Y-117016666D01*
X130016666Y-116983333D01*
X130183333Y-116983333D01*
X130250000Y-117016666D01*
X130283333Y-117050000D01*
X130316666Y-117116666D01*
X130316666Y-117316666D01*
X130283333Y-117383333D01*
X130250000Y-117416666D01*
X130316666Y-116316666D02*
X130316666Y-116716666D01*
X130316666Y-116516666D02*
X129616666Y-116516666D01*
X129716666Y-116583333D01*
X129783333Y-116650000D01*
X129816666Y-116716666D01*
%TO.C,U20*%
X123116666Y-101566666D02*
X123683333Y-101566666D01*
X123750000Y-101533333D01*
X123783333Y-101500000D01*
X123816666Y-101433333D01*
X123816666Y-101300000D01*
X123783333Y-101233333D01*
X123750000Y-101200000D01*
X123683333Y-101166666D01*
X123116666Y-101166666D01*
X123183333Y-100866666D02*
X123150000Y-100833333D01*
X123116666Y-100766666D01*
X123116666Y-100600000D01*
X123150000Y-100533333D01*
X123183333Y-100500000D01*
X123250000Y-100466666D01*
X123316666Y-100466666D01*
X123416666Y-100500000D01*
X123816666Y-100900000D01*
X123816666Y-100466666D01*
X123116666Y-100033333D02*
X123116666Y-99966666D01*
X123150000Y-99900000D01*
X123183333Y-99866666D01*
X123250000Y-99833333D01*
X123383333Y-99800000D01*
X123550000Y-99800000D01*
X123683333Y-99833333D01*
X123750000Y-99866666D01*
X123783333Y-99900000D01*
X123816666Y-99966666D01*
X123816666Y-100033333D01*
X123783333Y-100100000D01*
X123750000Y-100133333D01*
X123683333Y-100166666D01*
X123550000Y-100200000D01*
X123383333Y-100200000D01*
X123250000Y-100166666D01*
X123183333Y-100133333D01*
X123150000Y-100100000D01*
X123116666Y-100033333D01*
X125325000Y-100302380D02*
X125325000Y-100540476D01*
X125086904Y-100445238D02*
X125325000Y-100540476D01*
X125563095Y-100445238D01*
X125182142Y-100730952D02*
X125325000Y-100540476D01*
X125467857Y-100730952D01*
%TO.C,C21*%
X177737142Y-143267142D02*
X177689523Y-143314761D01*
X177546666Y-143362380D01*
X177451428Y-143362380D01*
X177308571Y-143314761D01*
X177213333Y-143219523D01*
X177165714Y-143124285D01*
X177118095Y-142933809D01*
X177118095Y-142790952D01*
X177165714Y-142600476D01*
X177213333Y-142505238D01*
X177308571Y-142410000D01*
X177451428Y-142362380D01*
X177546666Y-142362380D01*
X177689523Y-142410000D01*
X177737142Y-142457619D01*
X178118095Y-142457619D02*
X178165714Y-142410000D01*
X178260952Y-142362380D01*
X178499047Y-142362380D01*
X178594285Y-142410000D01*
X178641904Y-142457619D01*
X178689523Y-142552857D01*
X178689523Y-142648095D01*
X178641904Y-142790952D01*
X178070476Y-143362380D01*
X178689523Y-143362380D01*
X179641904Y-143362380D02*
X179070476Y-143362380D01*
X179356190Y-143362380D02*
X179356190Y-142362380D01*
X179260952Y-142505238D01*
X179165714Y-142600476D01*
X179070476Y-142648095D01*
%TO.C,C5*%
X154057142Y-94266666D02*
X154104761Y-94314285D01*
X154152380Y-94457142D01*
X154152380Y-94552380D01*
X154104761Y-94695238D01*
X154009523Y-94790476D01*
X153914285Y-94838095D01*
X153723809Y-94885714D01*
X153580952Y-94885714D01*
X153390476Y-94838095D01*
X153295238Y-94790476D01*
X153200000Y-94695238D01*
X153152380Y-94552380D01*
X153152380Y-94457142D01*
X153200000Y-94314285D01*
X153247619Y-94266666D01*
X153152380Y-93361904D02*
X153152380Y-93838095D01*
X153628571Y-93885714D01*
X153580952Y-93838095D01*
X153533333Y-93742857D01*
X153533333Y-93504761D01*
X153580952Y-93409523D01*
X153628571Y-93361904D01*
X153723809Y-93314285D01*
X153961904Y-93314285D01*
X154057142Y-93361904D01*
X154104761Y-93409523D01*
X154152380Y-93504761D01*
X154152380Y-93742857D01*
X154104761Y-93838095D01*
X154057142Y-93885714D01*
%TO.C,R12*%
X161107142Y-97402380D02*
X160773809Y-96926190D01*
X160535714Y-97402380D02*
X160535714Y-96402380D01*
X160916666Y-96402380D01*
X161011904Y-96450000D01*
X161059523Y-96497619D01*
X161107142Y-96592857D01*
X161107142Y-96735714D01*
X161059523Y-96830952D01*
X161011904Y-96878571D01*
X160916666Y-96926190D01*
X160535714Y-96926190D01*
X162059523Y-97402380D02*
X161488095Y-97402380D01*
X161773809Y-97402380D02*
X161773809Y-96402380D01*
X161678571Y-96545238D01*
X161583333Y-96640476D01*
X161488095Y-96688095D01*
X162440476Y-96497619D02*
X162488095Y-96450000D01*
X162583333Y-96402380D01*
X162821428Y-96402380D01*
X162916666Y-96450000D01*
X162964285Y-96497619D01*
X163011904Y-96592857D01*
X163011904Y-96688095D01*
X162964285Y-96830952D01*
X162392857Y-97402380D01*
X163011904Y-97402380D01*
%TO.C,R47*%
X143917774Y-127198722D02*
X143816759Y-127771141D01*
X144321835Y-127602783D02*
X143614728Y-128309889D01*
X143345354Y-128040515D01*
X143311682Y-127939500D01*
X143311682Y-127872157D01*
X143345354Y-127771141D01*
X143446369Y-127670126D01*
X143547385Y-127636454D01*
X143614728Y-127636454D01*
X143715743Y-127670126D01*
X143985117Y-127939500D01*
X142840278Y-127064035D02*
X143311682Y-126592630D01*
X142739262Y-127501767D02*
X143412698Y-127165050D01*
X142974965Y-126727317D01*
X142301530Y-126996691D02*
X141830125Y-126525286D01*
X142840278Y-126121225D01*
%TO.C,C4*%
X155682142Y-94244166D02*
X155729761Y-94291785D01*
X155777380Y-94434642D01*
X155777380Y-94529880D01*
X155729761Y-94672738D01*
X155634523Y-94767976D01*
X155539285Y-94815595D01*
X155348809Y-94863214D01*
X155205952Y-94863214D01*
X155015476Y-94815595D01*
X154920238Y-94767976D01*
X154825000Y-94672738D01*
X154777380Y-94529880D01*
X154777380Y-94434642D01*
X154825000Y-94291785D01*
X154872619Y-94244166D01*
X155110714Y-93387023D02*
X155777380Y-93387023D01*
X154729761Y-93625119D02*
X155444047Y-93863214D01*
X155444047Y-93244166D01*
%TO.C,R16*%
X189032142Y-131352380D02*
X188698809Y-130876190D01*
X188460714Y-131352380D02*
X188460714Y-130352380D01*
X188841666Y-130352380D01*
X188936904Y-130400000D01*
X188984523Y-130447619D01*
X189032142Y-130542857D01*
X189032142Y-130685714D01*
X188984523Y-130780952D01*
X188936904Y-130828571D01*
X188841666Y-130876190D01*
X188460714Y-130876190D01*
X189984523Y-131352380D02*
X189413095Y-131352380D01*
X189698809Y-131352380D02*
X189698809Y-130352380D01*
X189603571Y-130495238D01*
X189508333Y-130590476D01*
X189413095Y-130638095D01*
X190841666Y-130352380D02*
X190651190Y-130352380D01*
X190555952Y-130400000D01*
X190508333Y-130447619D01*
X190413095Y-130590476D01*
X190365476Y-130780952D01*
X190365476Y-131161904D01*
X190413095Y-131257142D01*
X190460714Y-131304761D01*
X190555952Y-131352380D01*
X190746428Y-131352380D01*
X190841666Y-131304761D01*
X190889285Y-131257142D01*
X190936904Y-131161904D01*
X190936904Y-130923809D01*
X190889285Y-130828571D01*
X190841666Y-130780952D01*
X190746428Y-130733333D01*
X190555952Y-130733333D01*
X190460714Y-130780952D01*
X190413095Y-130828571D01*
X190365476Y-130923809D01*
%TO.C,C27*%
X119757142Y-139050909D02*
X119709523Y-139098528D01*
X119566666Y-139146147D01*
X119471428Y-139146147D01*
X119328571Y-139098528D01*
X119233333Y-139003290D01*
X119185714Y-138908052D01*
X119138095Y-138717576D01*
X119138095Y-138574719D01*
X119185714Y-138384243D01*
X119233333Y-138289005D01*
X119328571Y-138193767D01*
X119471428Y-138146147D01*
X119566666Y-138146147D01*
X119709523Y-138193767D01*
X119757142Y-138241386D01*
X120138095Y-138241386D02*
X120185714Y-138193767D01*
X120280952Y-138146147D01*
X120519047Y-138146147D01*
X120614285Y-138193767D01*
X120661904Y-138241386D01*
X120709523Y-138336624D01*
X120709523Y-138431862D01*
X120661904Y-138574719D01*
X120090476Y-139146147D01*
X120709523Y-139146147D01*
X121042857Y-138146147D02*
X121709523Y-138146147D01*
X121280952Y-139146147D01*
%TO.C,R25*%
X130100000Y-138954183D02*
X129866666Y-138620850D01*
X129700000Y-138954183D02*
X129700000Y-138254183D01*
X129966666Y-138254183D01*
X130033333Y-138287517D01*
X130066666Y-138320850D01*
X130100000Y-138387517D01*
X130100000Y-138487517D01*
X130066666Y-138554183D01*
X130033333Y-138587517D01*
X129966666Y-138620850D01*
X129700000Y-138620850D01*
X130366666Y-138320850D02*
X130400000Y-138287517D01*
X130466666Y-138254183D01*
X130633333Y-138254183D01*
X130700000Y-138287517D01*
X130733333Y-138320850D01*
X130766666Y-138387517D01*
X130766666Y-138454183D01*
X130733333Y-138554183D01*
X130333333Y-138954183D01*
X130766666Y-138954183D01*
X131400000Y-138254183D02*
X131066666Y-138254183D01*
X131033333Y-138587517D01*
X131066666Y-138554183D01*
X131133333Y-138520850D01*
X131300000Y-138520850D01*
X131366666Y-138554183D01*
X131400000Y-138587517D01*
X131433333Y-138654183D01*
X131433333Y-138820850D01*
X131400000Y-138887517D01*
X131366666Y-138920850D01*
X131300000Y-138954183D01*
X131133333Y-138954183D01*
X131066666Y-138920850D01*
X131033333Y-138887517D01*
%TO.C,L5*%
X133726063Y-105842380D02*
X133249872Y-105842380D01*
X133249872Y-104842380D01*
X134535587Y-104842380D02*
X134059396Y-104842380D01*
X134011777Y-105318571D01*
X134059396Y-105270952D01*
X134154634Y-105223333D01*
X134392730Y-105223333D01*
X134487968Y-105270952D01*
X134535587Y-105318571D01*
X134583206Y-105413809D01*
X134583206Y-105651904D01*
X134535587Y-105747142D01*
X134487968Y-105794761D01*
X134392730Y-105842380D01*
X134154634Y-105842380D01*
X134059396Y-105794761D01*
X134011777Y-105747142D01*
%TO.C,C19*%
X126350000Y-90950000D02*
X126383333Y-90983333D01*
X126416666Y-91083333D01*
X126416666Y-91150000D01*
X126383333Y-91250000D01*
X126316666Y-91316666D01*
X126250000Y-91350000D01*
X126116666Y-91383333D01*
X126016666Y-91383333D01*
X125883333Y-91350000D01*
X125816666Y-91316666D01*
X125750000Y-91250000D01*
X125716666Y-91150000D01*
X125716666Y-91083333D01*
X125750000Y-90983333D01*
X125783333Y-90950000D01*
X126416666Y-90283333D02*
X126416666Y-90683333D01*
X126416666Y-90483333D02*
X125716666Y-90483333D01*
X125816666Y-90550000D01*
X125883333Y-90616666D01*
X125916666Y-90683333D01*
X126416666Y-89950000D02*
X126416666Y-89816666D01*
X126383333Y-89750000D01*
X126350000Y-89716666D01*
X126250000Y-89650000D01*
X126116666Y-89616666D01*
X125850000Y-89616666D01*
X125783333Y-89650000D01*
X125750000Y-89683333D01*
X125716666Y-89750000D01*
X125716666Y-89883333D01*
X125750000Y-89950000D01*
X125783333Y-89983333D01*
X125850000Y-90016666D01*
X126016666Y-90016666D01*
X126083333Y-89983333D01*
X126116666Y-89950000D01*
X126150000Y-89883333D01*
X126150000Y-89750000D01*
X126116666Y-89683333D01*
X126083333Y-89650000D01*
X126016666Y-89616666D01*
%TO.C,C32*%
X134050000Y-140887517D02*
X134016666Y-140920850D01*
X133916666Y-140954183D01*
X133850000Y-140954183D01*
X133750000Y-140920850D01*
X133683333Y-140854183D01*
X133650000Y-140787517D01*
X133616666Y-140654183D01*
X133616666Y-140554183D01*
X133650000Y-140420850D01*
X133683333Y-140354183D01*
X133750000Y-140287517D01*
X133850000Y-140254183D01*
X133916666Y-140254183D01*
X134016666Y-140287517D01*
X134050000Y-140320850D01*
X134283333Y-140254183D02*
X134716666Y-140254183D01*
X134483333Y-140520850D01*
X134583333Y-140520850D01*
X134650000Y-140554183D01*
X134683333Y-140587517D01*
X134716666Y-140654183D01*
X134716666Y-140820850D01*
X134683333Y-140887517D01*
X134650000Y-140920850D01*
X134583333Y-140954183D01*
X134383333Y-140954183D01*
X134316666Y-140920850D01*
X134283333Y-140887517D01*
X134983333Y-140320850D02*
X135016666Y-140287517D01*
X135083333Y-140254183D01*
X135250000Y-140254183D01*
X135316666Y-140287517D01*
X135350000Y-140320850D01*
X135383333Y-140387517D01*
X135383333Y-140454183D01*
X135350000Y-140554183D01*
X134950000Y-140954183D01*
X135383333Y-140954183D01*
%TO.C,R21*%
X126066666Y-133543767D02*
X125733333Y-133777100D01*
X126066666Y-133943767D02*
X125366666Y-133943767D01*
X125366666Y-133677100D01*
X125400000Y-133610433D01*
X125433333Y-133577100D01*
X125500000Y-133543767D01*
X125600000Y-133543767D01*
X125666666Y-133577100D01*
X125700000Y-133610433D01*
X125733333Y-133677100D01*
X125733333Y-133943767D01*
X125433333Y-133277100D02*
X125400000Y-133243767D01*
X125366666Y-133177100D01*
X125366666Y-133010433D01*
X125400000Y-132943767D01*
X125433333Y-132910433D01*
X125500000Y-132877100D01*
X125566666Y-132877100D01*
X125666666Y-132910433D01*
X126066666Y-133310433D01*
X126066666Y-132877100D01*
X126066666Y-132210433D02*
X126066666Y-132610433D01*
X126066666Y-132410433D02*
X125366666Y-132410433D01*
X125466666Y-132477100D01*
X125533333Y-132543767D01*
X125566666Y-132610433D01*
%TO.C,D8*%
X139563333Y-89316666D02*
X139563333Y-88616666D01*
X139730000Y-88616666D01*
X139830000Y-88650000D01*
X139896666Y-88716666D01*
X139930000Y-88783333D01*
X139963333Y-88916666D01*
X139963333Y-89016666D01*
X139930000Y-89150000D01*
X139896666Y-89216666D01*
X139830000Y-89283333D01*
X139730000Y-89316666D01*
X139563333Y-89316666D01*
X140363333Y-88916666D02*
X140296666Y-88883333D01*
X140263333Y-88850000D01*
X140230000Y-88783333D01*
X140230000Y-88750000D01*
X140263333Y-88683333D01*
X140296666Y-88650000D01*
X140363333Y-88616666D01*
X140496666Y-88616666D01*
X140563333Y-88650000D01*
X140596666Y-88683333D01*
X140630000Y-88750000D01*
X140630000Y-88783333D01*
X140596666Y-88850000D01*
X140563333Y-88883333D01*
X140496666Y-88916666D01*
X140363333Y-88916666D01*
X140296666Y-88950000D01*
X140263333Y-88983333D01*
X140230000Y-89050000D01*
X140230000Y-89183333D01*
X140263333Y-89250000D01*
X140296666Y-89283333D01*
X140363333Y-89316666D01*
X140496666Y-89316666D01*
X140563333Y-89283333D01*
X140596666Y-89250000D01*
X140630000Y-89183333D01*
X140630000Y-89050000D01*
X140596666Y-88983333D01*
X140563333Y-88950000D01*
X140496666Y-88916666D01*
%TO.C,R4*%
X145152380Y-103666666D02*
X144676190Y-104000000D01*
X145152380Y-104238095D02*
X144152380Y-104238095D01*
X144152380Y-103857142D01*
X144200000Y-103761904D01*
X144247619Y-103714285D01*
X144342857Y-103666666D01*
X144485714Y-103666666D01*
X144580952Y-103714285D01*
X144628571Y-103761904D01*
X144676190Y-103857142D01*
X144676190Y-104238095D01*
X144485714Y-102809523D02*
X145152380Y-102809523D01*
X144104761Y-103047619D02*
X144819047Y-103285714D01*
X144819047Y-102666666D01*
%TO.C,L1*%
X172152380Y-94266666D02*
X172152380Y-94742857D01*
X171152380Y-94742857D01*
X172152380Y-93409523D02*
X172152380Y-93980952D01*
X172152380Y-93695238D02*
X171152380Y-93695238D01*
X171295238Y-93790476D01*
X171390476Y-93885714D01*
X171438095Y-93980952D01*
D12*
%TO.C,IC1*%
X148929605Y-136732893D02*
X148031580Y-135834868D01*
X149784868Y-135706578D02*
X149784868Y-135792104D01*
X149699341Y-135963157D01*
X149613815Y-136048683D01*
X149442763Y-136134209D01*
X149271710Y-136134209D01*
X149143421Y-136091446D01*
X148929605Y-135963157D01*
X148801316Y-135834868D01*
X148673026Y-135621052D01*
X148630263Y-135492763D01*
X148630263Y-135321710D01*
X148715790Y-135150658D01*
X148801316Y-135065131D01*
X148972368Y-134979605D01*
X149057895Y-134979605D01*
X150725656Y-134936842D02*
X150212499Y-135450000D01*
X150469078Y-135193421D02*
X149571052Y-134295395D01*
X149613815Y-134509211D01*
X149613815Y-134680263D01*
X149571052Y-134808553D01*
D11*
%TO.C,C13*%
X161057142Y-99007142D02*
X161009523Y-99054761D01*
X160866666Y-99102380D01*
X160771428Y-99102380D01*
X160628571Y-99054761D01*
X160533333Y-98959523D01*
X160485714Y-98864285D01*
X160438095Y-98673809D01*
X160438095Y-98530952D01*
X160485714Y-98340476D01*
X160533333Y-98245238D01*
X160628571Y-98150000D01*
X160771428Y-98102380D01*
X160866666Y-98102380D01*
X161009523Y-98150000D01*
X161057142Y-98197619D01*
X162009523Y-99102380D02*
X161438095Y-99102380D01*
X161723809Y-99102380D02*
X161723809Y-98102380D01*
X161628571Y-98245238D01*
X161533333Y-98340476D01*
X161438095Y-98388095D01*
X162342857Y-98102380D02*
X162961904Y-98102380D01*
X162628571Y-98483333D01*
X162771428Y-98483333D01*
X162866666Y-98530952D01*
X162914285Y-98578571D01*
X162961904Y-98673809D01*
X162961904Y-98911904D01*
X162914285Y-99007142D01*
X162866666Y-99054761D01*
X162771428Y-99102380D01*
X162485714Y-99102380D01*
X162390476Y-99054761D01*
X162342857Y-99007142D01*
%TO.C,C2*%
X174093333Y-92127142D02*
X174045714Y-92174761D01*
X173902857Y-92222380D01*
X173807619Y-92222380D01*
X173664761Y-92174761D01*
X173569523Y-92079523D01*
X173521904Y-91984285D01*
X173474285Y-91793809D01*
X173474285Y-91650952D01*
X173521904Y-91460476D01*
X173569523Y-91365238D01*
X173664761Y-91270000D01*
X173807619Y-91222380D01*
X173902857Y-91222380D01*
X174045714Y-91270000D01*
X174093333Y-91317619D01*
X174474285Y-91317619D02*
X174521904Y-91270000D01*
X174617142Y-91222380D01*
X174855238Y-91222380D01*
X174950476Y-91270000D01*
X174998095Y-91317619D01*
X175045714Y-91412857D01*
X175045714Y-91508095D01*
X174998095Y-91650952D01*
X174426666Y-92222380D01*
X175045714Y-92222380D01*
%TO.C,R6*%
X143482380Y-103666666D02*
X143006190Y-104000000D01*
X143482380Y-104238095D02*
X142482380Y-104238095D01*
X142482380Y-103857142D01*
X142530000Y-103761904D01*
X142577619Y-103714285D01*
X142672857Y-103666666D01*
X142815714Y-103666666D01*
X142910952Y-103714285D01*
X142958571Y-103761904D01*
X143006190Y-103857142D01*
X143006190Y-104238095D01*
X142482380Y-102809523D02*
X142482380Y-103000000D01*
X142530000Y-103095238D01*
X142577619Y-103142857D01*
X142720476Y-103238095D01*
X142910952Y-103285714D01*
X143291904Y-103285714D01*
X143387142Y-103238095D01*
X143434761Y-103190476D01*
X143482380Y-103095238D01*
X143482380Y-102904761D01*
X143434761Y-102809523D01*
X143387142Y-102761904D01*
X143291904Y-102714285D01*
X143053809Y-102714285D01*
X142958571Y-102761904D01*
X142910952Y-102809523D01*
X142863333Y-102904761D01*
X142863333Y-103095238D01*
X142910952Y-103190476D01*
X142958571Y-103238095D01*
X143053809Y-103285714D01*
%TO.C,H3*%
X194238095Y-86652380D02*
X194238095Y-85652380D01*
X194238095Y-86128571D02*
X194809523Y-86128571D01*
X194809523Y-86652380D02*
X194809523Y-85652380D01*
X195190476Y-85652380D02*
X195809523Y-85652380D01*
X195476190Y-86033333D01*
X195619047Y-86033333D01*
X195714285Y-86080952D01*
X195761904Y-86128571D01*
X195809523Y-86223809D01*
X195809523Y-86461904D01*
X195761904Y-86557142D01*
X195714285Y-86604761D01*
X195619047Y-86652380D01*
X195333333Y-86652380D01*
X195238095Y-86604761D01*
X195190476Y-86557142D01*
%TO.C,C30*%
X135250000Y-117800000D02*
X135283333Y-117833333D01*
X135316666Y-117933333D01*
X135316666Y-118000000D01*
X135283333Y-118100000D01*
X135216666Y-118166666D01*
X135150000Y-118200000D01*
X135016666Y-118233333D01*
X134916666Y-118233333D01*
X134783333Y-118200000D01*
X134716666Y-118166666D01*
X134650000Y-118100000D01*
X134616666Y-118000000D01*
X134616666Y-117933333D01*
X134650000Y-117833333D01*
X134683333Y-117800000D01*
X134616666Y-117566666D02*
X134616666Y-117133333D01*
X134883333Y-117366666D01*
X134883333Y-117266666D01*
X134916666Y-117200000D01*
X134950000Y-117166666D01*
X135016666Y-117133333D01*
X135183333Y-117133333D01*
X135250000Y-117166666D01*
X135283333Y-117200000D01*
X135316666Y-117266666D01*
X135316666Y-117466666D01*
X135283333Y-117533333D01*
X135250000Y-117566666D01*
X134616666Y-116700000D02*
X134616666Y-116633333D01*
X134650000Y-116566666D01*
X134683333Y-116533333D01*
X134750000Y-116500000D01*
X134883333Y-116466666D01*
X135050000Y-116466666D01*
X135183333Y-116500000D01*
X135250000Y-116533333D01*
X135283333Y-116566666D01*
X135316666Y-116633333D01*
X135316666Y-116700000D01*
X135283333Y-116766666D01*
X135250000Y-116800000D01*
X135183333Y-116833333D01*
X135050000Y-116866666D01*
X134883333Y-116866666D01*
X134750000Y-116833333D01*
X134683333Y-116800000D01*
X134650000Y-116766666D01*
X134616666Y-116700000D01*
%TO.C,C25*%
X130175000Y-113075000D02*
X130208333Y-113108333D01*
X130241666Y-113208333D01*
X130241666Y-113275000D01*
X130208333Y-113375000D01*
X130141666Y-113441666D01*
X130075000Y-113475000D01*
X129941666Y-113508333D01*
X129841666Y-113508333D01*
X129708333Y-113475000D01*
X129641666Y-113441666D01*
X129575000Y-113375000D01*
X129541666Y-113275000D01*
X129541666Y-113208333D01*
X129575000Y-113108333D01*
X129608333Y-113075000D01*
X129608333Y-112808333D02*
X129575000Y-112775000D01*
X129541666Y-112708333D01*
X129541666Y-112541666D01*
X129575000Y-112475000D01*
X129608333Y-112441666D01*
X129675000Y-112408333D01*
X129741666Y-112408333D01*
X129841666Y-112441666D01*
X130241666Y-112841666D01*
X130241666Y-112408333D01*
X129541666Y-111775000D02*
X129541666Y-112108333D01*
X129875000Y-112141666D01*
X129841666Y-112108333D01*
X129808333Y-112041666D01*
X129808333Y-111875000D01*
X129841666Y-111808333D01*
X129875000Y-111775000D01*
X129941666Y-111741666D01*
X130108333Y-111741666D01*
X130175000Y-111775000D01*
X130208333Y-111808333D01*
X130241666Y-111875000D01*
X130241666Y-112041666D01*
X130208333Y-112108333D01*
X130175000Y-112141666D01*
%TO.C,U6*%
X118716666Y-129177100D02*
X119283333Y-129177100D01*
X119350000Y-129143767D01*
X119383333Y-129110433D01*
X119416666Y-129043767D01*
X119416666Y-128910433D01*
X119383333Y-128843767D01*
X119350000Y-128810433D01*
X119283333Y-128777100D01*
X118716666Y-128777100D01*
X118716666Y-128143767D02*
X118716666Y-128277100D01*
X118750000Y-128343767D01*
X118783333Y-128377100D01*
X118883333Y-128443767D01*
X119016666Y-128477100D01*
X119283333Y-128477100D01*
X119350000Y-128443767D01*
X119383333Y-128410433D01*
X119416666Y-128343767D01*
X119416666Y-128210433D01*
X119383333Y-128143767D01*
X119350000Y-128110433D01*
X119283333Y-128077100D01*
X119116666Y-128077100D01*
X119050000Y-128110433D01*
X119016666Y-128143767D01*
X118983333Y-128210433D01*
X118983333Y-128343767D01*
X119016666Y-128410433D01*
X119050000Y-128443767D01*
X119116666Y-128477100D01*
%TO.C,C49*%
X184482142Y-91982142D02*
X184434523Y-92029761D01*
X184291666Y-92077380D01*
X184196428Y-92077380D01*
X184053571Y-92029761D01*
X183958333Y-91934523D01*
X183910714Y-91839285D01*
X183863095Y-91648809D01*
X183863095Y-91505952D01*
X183910714Y-91315476D01*
X183958333Y-91220238D01*
X184053571Y-91125000D01*
X184196428Y-91077380D01*
X184291666Y-91077380D01*
X184434523Y-91125000D01*
X184482142Y-91172619D01*
X185339285Y-91410714D02*
X185339285Y-92077380D01*
X185101190Y-91029761D02*
X184863095Y-91744047D01*
X185482142Y-91744047D01*
X185910714Y-92077380D02*
X186101190Y-92077380D01*
X186196428Y-92029761D01*
X186244047Y-91982142D01*
X186339285Y-91839285D01*
X186386904Y-91648809D01*
X186386904Y-91267857D01*
X186339285Y-91172619D01*
X186291666Y-91125000D01*
X186196428Y-91077380D01*
X186005952Y-91077380D01*
X185910714Y-91125000D01*
X185863095Y-91172619D01*
X185815476Y-91267857D01*
X185815476Y-91505952D01*
X185863095Y-91601190D01*
X185910714Y-91648809D01*
X186005952Y-91696428D01*
X186196428Y-91696428D01*
X186291666Y-91648809D01*
X186339285Y-91601190D01*
X186386904Y-91505952D01*
%TO.C,J7*%
X101652380Y-136033333D02*
X102366666Y-136033333D01*
X102509523Y-136080952D01*
X102604761Y-136176190D01*
X102652380Y-136319047D01*
X102652380Y-136414285D01*
X101652380Y-135652380D02*
X101652380Y-134985714D01*
X102652380Y-135414285D01*
X108602380Y-126250000D02*
X108840476Y-126250000D01*
X108745238Y-126488095D02*
X108840476Y-126250000D01*
X108745238Y-126011904D01*
X109030952Y-126392857D02*
X108840476Y-126250000D01*
X109030952Y-126107142D01*
%TO.C,R33*%
X134500000Y-120506666D02*
X134266666Y-120173333D01*
X134100000Y-120506666D02*
X134100000Y-119806666D01*
X134366666Y-119806666D01*
X134433333Y-119840000D01*
X134466666Y-119873333D01*
X134500000Y-119940000D01*
X134500000Y-120040000D01*
X134466666Y-120106666D01*
X134433333Y-120140000D01*
X134366666Y-120173333D01*
X134100000Y-120173333D01*
X134733333Y-119806666D02*
X135166666Y-119806666D01*
X134933333Y-120073333D01*
X135033333Y-120073333D01*
X135100000Y-120106666D01*
X135133333Y-120140000D01*
X135166666Y-120206666D01*
X135166666Y-120373333D01*
X135133333Y-120440000D01*
X135100000Y-120473333D01*
X135033333Y-120506666D01*
X134833333Y-120506666D01*
X134766666Y-120473333D01*
X134733333Y-120440000D01*
X135400000Y-119806666D02*
X135833333Y-119806666D01*
X135600000Y-120073333D01*
X135700000Y-120073333D01*
X135766666Y-120106666D01*
X135800000Y-120140000D01*
X135833333Y-120206666D01*
X135833333Y-120373333D01*
X135800000Y-120440000D01*
X135766666Y-120473333D01*
X135700000Y-120506666D01*
X135500000Y-120506666D01*
X135433333Y-120473333D01*
X135400000Y-120440000D01*
%TO.C,U4*%
X194892380Y-120931904D02*
X195701904Y-120931904D01*
X195797142Y-120884285D01*
X195844761Y-120836666D01*
X195892380Y-120741428D01*
X195892380Y-120550952D01*
X195844761Y-120455714D01*
X195797142Y-120408095D01*
X195701904Y-120360476D01*
X194892380Y-120360476D01*
X195225714Y-119455714D02*
X195892380Y-119455714D01*
X194844761Y-119693809D02*
X195559047Y-119931904D01*
X195559047Y-119312857D01*
%TO.C,U1*%
X174130060Y-89995043D02*
X174130060Y-90504979D01*
X174160056Y-90564971D01*
X174190052Y-90594968D01*
X174250045Y-90624964D01*
X174370030Y-90624964D01*
X174430022Y-90594968D01*
X174460018Y-90564971D01*
X174490015Y-90504979D01*
X174490015Y-89995043D01*
X175119936Y-90624964D02*
X174759981Y-90624964D01*
X174939958Y-90624964D02*
X174939958Y-89995043D01*
X174879966Y-90085031D01*
X174819973Y-90145024D01*
X174759981Y-90175020D01*
%TO.C,D18*%
X189035714Y-90252380D02*
X189035714Y-89252380D01*
X189273809Y-89252380D01*
X189416666Y-89300000D01*
X189511904Y-89395238D01*
X189559523Y-89490476D01*
X189607142Y-89680952D01*
X189607142Y-89823809D01*
X189559523Y-90014285D01*
X189511904Y-90109523D01*
X189416666Y-90204761D01*
X189273809Y-90252380D01*
X189035714Y-90252380D01*
X190559523Y-90252380D02*
X189988095Y-90252380D01*
X190273809Y-90252380D02*
X190273809Y-89252380D01*
X190178571Y-89395238D01*
X190083333Y-89490476D01*
X189988095Y-89538095D01*
X191130952Y-89680952D02*
X191035714Y-89633333D01*
X190988095Y-89585714D01*
X190940476Y-89490476D01*
X190940476Y-89442857D01*
X190988095Y-89347619D01*
X191035714Y-89300000D01*
X191130952Y-89252380D01*
X191321428Y-89252380D01*
X191416666Y-89300000D01*
X191464285Y-89347619D01*
X191511904Y-89442857D01*
X191511904Y-89490476D01*
X191464285Y-89585714D01*
X191416666Y-89633333D01*
X191321428Y-89680952D01*
X191130952Y-89680952D01*
X191035714Y-89728571D01*
X190988095Y-89776190D01*
X190940476Y-89871428D01*
X190940476Y-90061904D01*
X190988095Y-90157142D01*
X191035714Y-90204761D01*
X191130952Y-90252380D01*
X191321428Y-90252380D01*
X191416666Y-90204761D01*
X191464285Y-90157142D01*
X191511904Y-90061904D01*
X191511904Y-89871428D01*
X191464285Y-89776190D01*
X191416666Y-89728571D01*
X191321428Y-89680952D01*
%TO.C,J2*%
X115416666Y-91152380D02*
X115416666Y-91866666D01*
X115369047Y-92009523D01*
X115273809Y-92104761D01*
X115130952Y-92152380D01*
X115035714Y-92152380D01*
X115845238Y-91247619D02*
X115892857Y-91200000D01*
X115988095Y-91152380D01*
X116226190Y-91152380D01*
X116321428Y-91200000D01*
X116369047Y-91247619D01*
X116416666Y-91342857D01*
X116416666Y-91438095D01*
X116369047Y-91580952D01*
X115797619Y-92152380D01*
X116416666Y-92152380D01*
%TO.C,C7*%
X174657142Y-94166666D02*
X174704761Y-94214285D01*
X174752380Y-94357142D01*
X174752380Y-94452380D01*
X174704761Y-94595238D01*
X174609523Y-94690476D01*
X174514285Y-94738095D01*
X174323809Y-94785714D01*
X174180952Y-94785714D01*
X173990476Y-94738095D01*
X173895238Y-94690476D01*
X173800000Y-94595238D01*
X173752380Y-94452380D01*
X173752380Y-94357142D01*
X173800000Y-94214285D01*
X173847619Y-94166666D01*
X173752380Y-93833333D02*
X173752380Y-93166666D01*
X174752380Y-93595238D01*
%TO.C,U5*%
X179338095Y-101552380D02*
X179338095Y-102361904D01*
X179385714Y-102457142D01*
X179433333Y-102504761D01*
X179528571Y-102552380D01*
X179719047Y-102552380D01*
X179814285Y-102504761D01*
X179861904Y-102457142D01*
X179909523Y-102361904D01*
X179909523Y-101552380D01*
X180861904Y-101552380D02*
X180385714Y-101552380D01*
X180338095Y-102028571D01*
X180385714Y-101980952D01*
X180480952Y-101933333D01*
X180719047Y-101933333D01*
X180814285Y-101980952D01*
X180861904Y-102028571D01*
X180909523Y-102123809D01*
X180909523Y-102361904D01*
X180861904Y-102457142D01*
X180814285Y-102504761D01*
X180719047Y-102552380D01*
X180480952Y-102552380D01*
X180385714Y-102504761D01*
X180338095Y-102457142D01*
%TO.C,U18*%
X125733333Y-115229348D02*
X125733333Y-115796015D01*
X125766666Y-115862682D01*
X125800000Y-115896015D01*
X125866666Y-115929348D01*
X126000000Y-115929348D01*
X126066666Y-115896015D01*
X126100000Y-115862682D01*
X126133333Y-115796015D01*
X126133333Y-115229348D01*
X126833333Y-115929348D02*
X126433333Y-115929348D01*
X126633333Y-115929348D02*
X126633333Y-115229348D01*
X126566666Y-115329348D01*
X126500000Y-115396015D01*
X126433333Y-115429348D01*
X127233333Y-115529348D02*
X127166666Y-115496015D01*
X127133333Y-115462682D01*
X127100000Y-115396015D01*
X127100000Y-115362682D01*
X127133333Y-115296015D01*
X127166666Y-115262682D01*
X127233333Y-115229348D01*
X127366666Y-115229348D01*
X127433333Y-115262682D01*
X127466666Y-115296015D01*
X127500000Y-115362682D01*
X127500000Y-115396015D01*
X127466666Y-115462682D01*
X127433333Y-115496015D01*
X127366666Y-115529348D01*
X127233333Y-115529348D01*
X127166666Y-115562682D01*
X127133333Y-115596015D01*
X127100000Y-115662682D01*
X127100000Y-115796015D01*
X127133333Y-115862682D01*
X127166666Y-115896015D01*
X127233333Y-115929348D01*
X127366666Y-115929348D01*
X127433333Y-115896015D01*
X127466666Y-115862682D01*
X127500000Y-115796015D01*
X127500000Y-115662682D01*
X127466666Y-115596015D01*
X127433333Y-115562682D01*
X127366666Y-115529348D01*
%TO.C,R35*%
X195807142Y-135452380D02*
X195473809Y-134976190D01*
X195235714Y-135452380D02*
X195235714Y-134452380D01*
X195616666Y-134452380D01*
X195711904Y-134500000D01*
X195759523Y-134547619D01*
X195807142Y-134642857D01*
X195807142Y-134785714D01*
X195759523Y-134880952D01*
X195711904Y-134928571D01*
X195616666Y-134976190D01*
X195235714Y-134976190D01*
X196140476Y-134452380D02*
X196759523Y-134452380D01*
X196426190Y-134833333D01*
X196569047Y-134833333D01*
X196664285Y-134880952D01*
X196711904Y-134928571D01*
X196759523Y-135023809D01*
X196759523Y-135261904D01*
X196711904Y-135357142D01*
X196664285Y-135404761D01*
X196569047Y-135452380D01*
X196283333Y-135452380D01*
X196188095Y-135404761D01*
X196140476Y-135357142D01*
X197664285Y-134452380D02*
X197188095Y-134452380D01*
X197140476Y-134928571D01*
X197188095Y-134880952D01*
X197283333Y-134833333D01*
X197521428Y-134833333D01*
X197616666Y-134880952D01*
X197664285Y-134928571D01*
X197711904Y-135023809D01*
X197711904Y-135261904D01*
X197664285Y-135357142D01*
X197616666Y-135404761D01*
X197521428Y-135452380D01*
X197283333Y-135452380D01*
X197188095Y-135404761D01*
X197140476Y-135357142D01*
%TO.C,C50*%
X132850000Y-95550000D02*
X132883333Y-95583333D01*
X132916666Y-95683333D01*
X132916666Y-95750000D01*
X132883333Y-95850000D01*
X132816666Y-95916666D01*
X132750000Y-95950000D01*
X132616666Y-95983333D01*
X132516666Y-95983333D01*
X132383333Y-95950000D01*
X132316666Y-95916666D01*
X132250000Y-95850000D01*
X132216666Y-95750000D01*
X132216666Y-95683333D01*
X132250000Y-95583333D01*
X132283333Y-95550000D01*
X132216666Y-94916666D02*
X132216666Y-95250000D01*
X132550000Y-95283333D01*
X132516666Y-95250000D01*
X132483333Y-95183333D01*
X132483333Y-95016666D01*
X132516666Y-94950000D01*
X132550000Y-94916666D01*
X132616666Y-94883333D01*
X132783333Y-94883333D01*
X132850000Y-94916666D01*
X132883333Y-94950000D01*
X132916666Y-95016666D01*
X132916666Y-95183333D01*
X132883333Y-95250000D01*
X132850000Y-95283333D01*
X132216666Y-94450000D02*
X132216666Y-94383333D01*
X132250000Y-94316666D01*
X132283333Y-94283333D01*
X132350000Y-94250000D01*
X132483333Y-94216666D01*
X132650000Y-94216666D01*
X132783333Y-94250000D01*
X132850000Y-94283333D01*
X132883333Y-94316666D01*
X132916666Y-94383333D01*
X132916666Y-94450000D01*
X132883333Y-94516666D01*
X132850000Y-94550000D01*
X132783333Y-94583333D01*
X132650000Y-94616666D01*
X132483333Y-94616666D01*
X132350000Y-94583333D01*
X132283333Y-94550000D01*
X132250000Y-94516666D01*
X132216666Y-94450000D01*
%TO.C,C16*%
X162254642Y-143257142D02*
X162207023Y-143304761D01*
X162064166Y-143352380D01*
X161968928Y-143352380D01*
X161826071Y-143304761D01*
X161730833Y-143209523D01*
X161683214Y-143114285D01*
X161635595Y-142923809D01*
X161635595Y-142780952D01*
X161683214Y-142590476D01*
X161730833Y-142495238D01*
X161826071Y-142400000D01*
X161968928Y-142352380D01*
X162064166Y-142352380D01*
X162207023Y-142400000D01*
X162254642Y-142447619D01*
X163207023Y-143352380D02*
X162635595Y-143352380D01*
X162921309Y-143352380D02*
X162921309Y-142352380D01*
X162826071Y-142495238D01*
X162730833Y-142590476D01*
X162635595Y-142638095D01*
X164064166Y-142352380D02*
X163873690Y-142352380D01*
X163778452Y-142400000D01*
X163730833Y-142447619D01*
X163635595Y-142590476D01*
X163587976Y-142780952D01*
X163587976Y-143161904D01*
X163635595Y-143257142D01*
X163683214Y-143304761D01*
X163778452Y-143352380D01*
X163968928Y-143352380D01*
X164064166Y-143304761D01*
X164111785Y-143257142D01*
X164159404Y-143161904D01*
X164159404Y-142923809D01*
X164111785Y-142828571D01*
X164064166Y-142780952D01*
X163968928Y-142733333D01*
X163778452Y-142733333D01*
X163683214Y-142780952D01*
X163635595Y-142828571D01*
X163587976Y-142923809D01*
%TO.C,R34*%
X128240000Y-120526666D02*
X128006666Y-120193333D01*
X127840000Y-120526666D02*
X127840000Y-119826666D01*
X128106666Y-119826666D01*
X128173333Y-119860000D01*
X128206666Y-119893333D01*
X128240000Y-119960000D01*
X128240000Y-120060000D01*
X128206666Y-120126666D01*
X128173333Y-120160000D01*
X128106666Y-120193333D01*
X127840000Y-120193333D01*
X128473333Y-119826666D02*
X128906666Y-119826666D01*
X128673333Y-120093333D01*
X128773333Y-120093333D01*
X128840000Y-120126666D01*
X128873333Y-120160000D01*
X128906666Y-120226666D01*
X128906666Y-120393333D01*
X128873333Y-120460000D01*
X128840000Y-120493333D01*
X128773333Y-120526666D01*
X128573333Y-120526666D01*
X128506666Y-120493333D01*
X128473333Y-120460000D01*
X129506666Y-120060000D02*
X129506666Y-120526666D01*
X129340000Y-119793333D02*
X129173333Y-120293333D01*
X129606666Y-120293333D01*
%TO.C,C58*%
X147757106Y-141652030D02*
X147824450Y-141652030D01*
X147959137Y-141719374D01*
X148026480Y-141786717D01*
X148093824Y-141921404D01*
X148093824Y-142056091D01*
X148060152Y-142157106D01*
X147959137Y-142325465D01*
X147858122Y-142426480D01*
X147689763Y-142527496D01*
X147588748Y-142561167D01*
X147454061Y-142561167D01*
X147319374Y-142493824D01*
X147252030Y-142426480D01*
X147184687Y-142291793D01*
X147184687Y-142224450D01*
X146477580Y-141652030D02*
X146814297Y-141988748D01*
X147184687Y-141685702D01*
X147117343Y-141685702D01*
X147016328Y-141652030D01*
X146847969Y-141483671D01*
X146814297Y-141382656D01*
X146814297Y-141315312D01*
X146847969Y-141214297D01*
X147016328Y-141045938D01*
X147117343Y-141012267D01*
X147184687Y-141012267D01*
X147285702Y-141045938D01*
X147454061Y-141214297D01*
X147487732Y-141315312D01*
X147487732Y-141382656D01*
X146342893Y-140911251D02*
X146376564Y-141012267D01*
X146376564Y-141079610D01*
X146342893Y-141180625D01*
X146309221Y-141214297D01*
X146208206Y-141247969D01*
X146140862Y-141247969D01*
X146039847Y-141214297D01*
X145905160Y-141079610D01*
X145871488Y-140978595D01*
X145871488Y-140911251D01*
X145905160Y-140810236D01*
X145938832Y-140776564D01*
X146039847Y-140742893D01*
X146107190Y-140742893D01*
X146208206Y-140776564D01*
X146342893Y-140911251D01*
X146443908Y-140944923D01*
X146511251Y-140944923D01*
X146612267Y-140911251D01*
X146746954Y-140776564D01*
X146780625Y-140675549D01*
X146780625Y-140608206D01*
X146746954Y-140507190D01*
X146612267Y-140372503D01*
X146511251Y-140338832D01*
X146443908Y-140338832D01*
X146342893Y-140372503D01*
X146208206Y-140507190D01*
X146174534Y-140608206D01*
X146174534Y-140675549D01*
X146208206Y-140776564D01*
%TO.C,C45*%
X181582142Y-94507142D02*
X181534523Y-94554761D01*
X181391666Y-94602380D01*
X181296428Y-94602380D01*
X181153571Y-94554761D01*
X181058333Y-94459523D01*
X181010714Y-94364285D01*
X180963095Y-94173809D01*
X180963095Y-94030952D01*
X181010714Y-93840476D01*
X181058333Y-93745238D01*
X181153571Y-93650000D01*
X181296428Y-93602380D01*
X181391666Y-93602380D01*
X181534523Y-93650000D01*
X181582142Y-93697619D01*
X182439285Y-93935714D02*
X182439285Y-94602380D01*
X182201190Y-93554761D02*
X181963095Y-94269047D01*
X182582142Y-94269047D01*
X183439285Y-93602380D02*
X182963095Y-93602380D01*
X182915476Y-94078571D01*
X182963095Y-94030952D01*
X183058333Y-93983333D01*
X183296428Y-93983333D01*
X183391666Y-94030952D01*
X183439285Y-94078571D01*
X183486904Y-94173809D01*
X183486904Y-94411904D01*
X183439285Y-94507142D01*
X183391666Y-94554761D01*
X183296428Y-94602380D01*
X183058333Y-94602380D01*
X182963095Y-94554761D01*
X182915476Y-94507142D01*
%TO.C,U10*%
X183551904Y-140662380D02*
X183551904Y-141471904D01*
X183599523Y-141567142D01*
X183647142Y-141614761D01*
X183742380Y-141662380D01*
X183932857Y-141662380D01*
X184028095Y-141614761D01*
X184075714Y-141567142D01*
X184123333Y-141471904D01*
X184123333Y-140662380D01*
X185123333Y-141662380D02*
X184551904Y-141662380D01*
X184837619Y-141662380D02*
X184837619Y-140662380D01*
X184742380Y-140805238D01*
X184647142Y-140900476D01*
X184551904Y-140948095D01*
X185742380Y-140662380D02*
X185837619Y-140662380D01*
X185932857Y-140710000D01*
X185980476Y-140757619D01*
X186028095Y-140852857D01*
X186075714Y-141043333D01*
X186075714Y-141281428D01*
X186028095Y-141471904D01*
X185980476Y-141567142D01*
X185932857Y-141614761D01*
X185837619Y-141662380D01*
X185742380Y-141662380D01*
X185647142Y-141614761D01*
X185599523Y-141567142D01*
X185551904Y-141471904D01*
X185504285Y-141281428D01*
X185504285Y-141043333D01*
X185551904Y-140852857D01*
X185599523Y-140757619D01*
X185647142Y-140710000D01*
X185742380Y-140662380D01*
%TO.C,C22*%
X174617142Y-136117142D02*
X174569523Y-136164761D01*
X174426666Y-136212380D01*
X174331428Y-136212380D01*
X174188571Y-136164761D01*
X174093333Y-136069523D01*
X174045714Y-135974285D01*
X173998095Y-135783809D01*
X173998095Y-135640952D01*
X174045714Y-135450476D01*
X174093333Y-135355238D01*
X174188571Y-135260000D01*
X174331428Y-135212380D01*
X174426666Y-135212380D01*
X174569523Y-135260000D01*
X174617142Y-135307619D01*
X174998095Y-135307619D02*
X175045714Y-135260000D01*
X175140952Y-135212380D01*
X175379047Y-135212380D01*
X175474285Y-135260000D01*
X175521904Y-135307619D01*
X175569523Y-135402857D01*
X175569523Y-135498095D01*
X175521904Y-135640952D01*
X174950476Y-136212380D01*
X175569523Y-136212380D01*
X175950476Y-135307619D02*
X175998095Y-135260000D01*
X176093333Y-135212380D01*
X176331428Y-135212380D01*
X176426666Y-135260000D01*
X176474285Y-135307619D01*
X176521904Y-135402857D01*
X176521904Y-135498095D01*
X176474285Y-135640952D01*
X175902857Y-136212380D01*
X176521904Y-136212380D01*
D12*
%TO.C,IC2*%
X128234238Y-88636023D02*
X128234238Y-87366023D01*
X129564714Y-88515071D02*
X129504238Y-88575547D01*
X129322809Y-88636023D01*
X129201857Y-88636023D01*
X129020428Y-88575547D01*
X128899476Y-88454595D01*
X128839000Y-88333642D01*
X128778523Y-88091738D01*
X128778523Y-87910309D01*
X128839000Y-87668404D01*
X128899476Y-87547452D01*
X129020428Y-87426500D01*
X129201857Y-87366023D01*
X129322809Y-87366023D01*
X129504238Y-87426500D01*
X129564714Y-87486976D01*
X130048523Y-87486976D02*
X130109000Y-87426500D01*
X130229952Y-87366023D01*
X130532333Y-87366023D01*
X130653285Y-87426500D01*
X130713761Y-87486976D01*
X130774238Y-87607928D01*
X130774238Y-87728880D01*
X130713761Y-87910309D01*
X129988047Y-88636023D01*
X130774238Y-88636023D01*
D11*
%TO.C,C17*%
X159244642Y-135822142D02*
X159197023Y-135869761D01*
X159054166Y-135917380D01*
X158958928Y-135917380D01*
X158816071Y-135869761D01*
X158720833Y-135774523D01*
X158673214Y-135679285D01*
X158625595Y-135488809D01*
X158625595Y-135345952D01*
X158673214Y-135155476D01*
X158720833Y-135060238D01*
X158816071Y-134965000D01*
X158958928Y-134917380D01*
X159054166Y-134917380D01*
X159197023Y-134965000D01*
X159244642Y-135012619D01*
X160197023Y-135917380D02*
X159625595Y-135917380D01*
X159911309Y-135917380D02*
X159911309Y-134917380D01*
X159816071Y-135060238D01*
X159720833Y-135155476D01*
X159625595Y-135203095D01*
X160530357Y-134917380D02*
X161197023Y-134917380D01*
X160768452Y-135917380D01*
%TO.C,C26*%
X122750000Y-136193767D02*
X122716666Y-136227100D01*
X122616666Y-136260433D01*
X122550000Y-136260433D01*
X122450000Y-136227100D01*
X122383333Y-136160433D01*
X122350000Y-136093767D01*
X122316666Y-135960433D01*
X122316666Y-135860433D01*
X122350000Y-135727100D01*
X122383333Y-135660433D01*
X122450000Y-135593767D01*
X122550000Y-135560433D01*
X122616666Y-135560433D01*
X122716666Y-135593767D01*
X122750000Y-135627100D01*
X123016666Y-135627100D02*
X123050000Y-135593767D01*
X123116666Y-135560433D01*
X123283333Y-135560433D01*
X123350000Y-135593767D01*
X123383333Y-135627100D01*
X123416666Y-135693767D01*
X123416666Y-135760433D01*
X123383333Y-135860433D01*
X122983333Y-136260433D01*
X123416666Y-136260433D01*
X124016666Y-135560433D02*
X123883333Y-135560433D01*
X123816666Y-135593767D01*
X123783333Y-135627100D01*
X123716666Y-135727100D01*
X123683333Y-135860433D01*
X123683333Y-136127100D01*
X123716666Y-136193767D01*
X123750000Y-136227100D01*
X123816666Y-136260433D01*
X123950000Y-136260433D01*
X124016666Y-136227100D01*
X124050000Y-136193767D01*
X124083333Y-136127100D01*
X124083333Y-135960433D01*
X124050000Y-135893767D01*
X124016666Y-135860433D01*
X123950000Y-135827100D01*
X123816666Y-135827100D01*
X123750000Y-135860433D01*
X123716666Y-135893767D01*
X123683333Y-135960433D01*
%TO.C,J9*%
X137432380Y-130567100D02*
X138146666Y-130567100D01*
X138289523Y-130614719D01*
X138384761Y-130709957D01*
X138432380Y-130852814D01*
X138432380Y-130948052D01*
X138432380Y-130043290D02*
X138432380Y-129852814D01*
X138384761Y-129757576D01*
X138337142Y-129709957D01*
X138194285Y-129614719D01*
X138003809Y-129567100D01*
X137622857Y-129567100D01*
X137527619Y-129614719D01*
X137480000Y-129662338D01*
X137432380Y-129757576D01*
X137432380Y-129948052D01*
X137480000Y-130043290D01*
X137527619Y-130090909D01*
X137622857Y-130138528D01*
X137860952Y-130138528D01*
X137956190Y-130090909D01*
X138003809Y-130043290D01*
X138051428Y-129948052D01*
X138051428Y-129757576D01*
X138003809Y-129662338D01*
X137956190Y-129614719D01*
X137860952Y-129567100D01*
%TO.C,C1*%
X176463333Y-86917142D02*
X176415714Y-86964761D01*
X176272857Y-87012380D01*
X176177619Y-87012380D01*
X176034761Y-86964761D01*
X175939523Y-86869523D01*
X175891904Y-86774285D01*
X175844285Y-86583809D01*
X175844285Y-86440952D01*
X175891904Y-86250476D01*
X175939523Y-86155238D01*
X176034761Y-86060000D01*
X176177619Y-86012380D01*
X176272857Y-86012380D01*
X176415714Y-86060000D01*
X176463333Y-86107619D01*
X177415714Y-87012380D02*
X176844285Y-87012380D01*
X177130000Y-87012380D02*
X177130000Y-86012380D01*
X177034761Y-86155238D01*
X176939523Y-86250476D01*
X176844285Y-86298095D01*
%TO.C,C44*%
X181750000Y-98600000D02*
X181716666Y-98633333D01*
X181616666Y-98666666D01*
X181550000Y-98666666D01*
X181450000Y-98633333D01*
X181383333Y-98566666D01*
X181350000Y-98500000D01*
X181316666Y-98366666D01*
X181316666Y-98266666D01*
X181350000Y-98133333D01*
X181383333Y-98066666D01*
X181450000Y-98000000D01*
X181550000Y-97966666D01*
X181616666Y-97966666D01*
X181716666Y-98000000D01*
X181750000Y-98033333D01*
X182350000Y-98200000D02*
X182350000Y-98666666D01*
X182183333Y-97933333D02*
X182016666Y-98433333D01*
X182450000Y-98433333D01*
X183016666Y-98200000D02*
X183016666Y-98666666D01*
X182850000Y-97933333D02*
X182683333Y-98433333D01*
X183116666Y-98433333D01*
%TO.C,C29*%
X126207142Y-127092857D02*
X126254761Y-127140476D01*
X126302380Y-127283333D01*
X126302380Y-127378571D01*
X126254761Y-127521428D01*
X126159523Y-127616666D01*
X126064285Y-127664285D01*
X125873809Y-127711904D01*
X125730952Y-127711904D01*
X125540476Y-127664285D01*
X125445238Y-127616666D01*
X125350000Y-127521428D01*
X125302380Y-127378571D01*
X125302380Y-127283333D01*
X125350000Y-127140476D01*
X125397619Y-127092857D01*
X125397619Y-126711904D02*
X125350000Y-126664285D01*
X125302380Y-126569047D01*
X125302380Y-126330952D01*
X125350000Y-126235714D01*
X125397619Y-126188095D01*
X125492857Y-126140476D01*
X125588095Y-126140476D01*
X125730952Y-126188095D01*
X126302380Y-126759523D01*
X126302380Y-126140476D01*
X126302380Y-125664285D02*
X126302380Y-125473809D01*
X126254761Y-125378571D01*
X126207142Y-125330952D01*
X126064285Y-125235714D01*
X125873809Y-125188095D01*
X125492857Y-125188095D01*
X125397619Y-125235714D01*
X125350000Y-125283333D01*
X125302380Y-125378571D01*
X125302380Y-125569047D01*
X125350000Y-125664285D01*
X125397619Y-125711904D01*
X125492857Y-125759523D01*
X125730952Y-125759523D01*
X125826190Y-125711904D01*
X125873809Y-125664285D01*
X125921428Y-125569047D01*
X125921428Y-125378571D01*
X125873809Y-125283333D01*
X125826190Y-125235714D01*
X125730952Y-125188095D01*
%TO.C,R29*%
X140657142Y-111752380D02*
X140323809Y-111276190D01*
X140085714Y-111752380D02*
X140085714Y-110752380D01*
X140466666Y-110752380D01*
X140561904Y-110800000D01*
X140609523Y-110847619D01*
X140657142Y-110942857D01*
X140657142Y-111085714D01*
X140609523Y-111180952D01*
X140561904Y-111228571D01*
X140466666Y-111276190D01*
X140085714Y-111276190D01*
X141038095Y-110847619D02*
X141085714Y-110800000D01*
X141180952Y-110752380D01*
X141419047Y-110752380D01*
X141514285Y-110800000D01*
X141561904Y-110847619D01*
X141609523Y-110942857D01*
X141609523Y-111038095D01*
X141561904Y-111180952D01*
X140990476Y-111752380D01*
X141609523Y-111752380D01*
X142085714Y-111752380D02*
X142276190Y-111752380D01*
X142371428Y-111704761D01*
X142419047Y-111657142D01*
X142514285Y-111514285D01*
X142561904Y-111323809D01*
X142561904Y-110942857D01*
X142514285Y-110847619D01*
X142466666Y-110800000D01*
X142371428Y-110752380D01*
X142180952Y-110752380D01*
X142085714Y-110800000D01*
X142038095Y-110847619D01*
X141990476Y-110942857D01*
X141990476Y-111180952D01*
X142038095Y-111276190D01*
X142085714Y-111323809D01*
X142180952Y-111371428D01*
X142371428Y-111371428D01*
X142466666Y-111323809D01*
X142514285Y-111276190D01*
X142561904Y-111180952D01*
%TO.C,R30*%
X120352380Y-120142857D02*
X119876190Y-120476190D01*
X120352380Y-120714285D02*
X119352380Y-120714285D01*
X119352380Y-120333333D01*
X119400000Y-120238095D01*
X119447619Y-120190476D01*
X119542857Y-120142857D01*
X119685714Y-120142857D01*
X119780952Y-120190476D01*
X119828571Y-120238095D01*
X119876190Y-120333333D01*
X119876190Y-120714285D01*
X119352380Y-119809523D02*
X119352380Y-119190476D01*
X119733333Y-119523809D01*
X119733333Y-119380952D01*
X119780952Y-119285714D01*
X119828571Y-119238095D01*
X119923809Y-119190476D01*
X120161904Y-119190476D01*
X120257142Y-119238095D01*
X120304761Y-119285714D01*
X120352380Y-119380952D01*
X120352380Y-119666666D01*
X120304761Y-119761904D01*
X120257142Y-119809523D01*
X119352380Y-118571428D02*
X119352380Y-118476190D01*
X119400000Y-118380952D01*
X119447619Y-118333333D01*
X119542857Y-118285714D01*
X119733333Y-118238095D01*
X119971428Y-118238095D01*
X120161904Y-118285714D01*
X120257142Y-118333333D01*
X120304761Y-118380952D01*
X120352380Y-118476190D01*
X120352380Y-118571428D01*
X120304761Y-118666666D01*
X120257142Y-118714285D01*
X120161904Y-118761904D01*
X119971428Y-118809523D01*
X119733333Y-118809523D01*
X119542857Y-118761904D01*
X119447619Y-118714285D01*
X119400000Y-118666666D01*
X119352380Y-118571428D01*
%TO.C,CP2*%
X146258333Y-100482142D02*
X146210714Y-100529761D01*
X146067857Y-100577380D01*
X145972619Y-100577380D01*
X145829761Y-100529761D01*
X145734523Y-100434523D01*
X145686904Y-100339285D01*
X145639285Y-100148809D01*
X145639285Y-100005952D01*
X145686904Y-99815476D01*
X145734523Y-99720238D01*
X145829761Y-99625000D01*
X145972619Y-99577380D01*
X146067857Y-99577380D01*
X146210714Y-99625000D01*
X146258333Y-99672619D01*
X146686904Y-100577380D02*
X146686904Y-99577380D01*
X147067857Y-99577380D01*
X147163095Y-99625000D01*
X147210714Y-99672619D01*
X147258333Y-99767857D01*
X147258333Y-99910714D01*
X147210714Y-100005952D01*
X147163095Y-100053571D01*
X147067857Y-100101190D01*
X146686904Y-100101190D01*
X147639285Y-99672619D02*
X147686904Y-99625000D01*
X147782142Y-99577380D01*
X148020238Y-99577380D01*
X148115476Y-99625000D01*
X148163095Y-99672619D01*
X148210714Y-99767857D01*
X148210714Y-99863095D01*
X148163095Y-100005952D01*
X147591666Y-100577380D01*
X148210714Y-100577380D01*
%TO.C,C47*%
X175317142Y-130352857D02*
X175364761Y-130400476D01*
X175412380Y-130543333D01*
X175412380Y-130638571D01*
X175364761Y-130781428D01*
X175269523Y-130876666D01*
X175174285Y-130924285D01*
X174983809Y-130971904D01*
X174840952Y-130971904D01*
X174650476Y-130924285D01*
X174555238Y-130876666D01*
X174460000Y-130781428D01*
X174412380Y-130638571D01*
X174412380Y-130543333D01*
X174460000Y-130400476D01*
X174507619Y-130352857D01*
X174745714Y-129495714D02*
X175412380Y-129495714D01*
X174364761Y-129733809D02*
X175079047Y-129971904D01*
X175079047Y-129352857D01*
X174412380Y-129067142D02*
X174412380Y-128400476D01*
X175412380Y-128829047D01*
%TO.C,C3*%
X185757142Y-125716666D02*
X185804761Y-125764285D01*
X185852380Y-125907142D01*
X185852380Y-126002380D01*
X185804761Y-126145238D01*
X185709523Y-126240476D01*
X185614285Y-126288095D01*
X185423809Y-126335714D01*
X185280952Y-126335714D01*
X185090476Y-126288095D01*
X184995238Y-126240476D01*
X184900000Y-126145238D01*
X184852380Y-126002380D01*
X184852380Y-125907142D01*
X184900000Y-125764285D01*
X184947619Y-125716666D01*
X184852380Y-125383333D02*
X184852380Y-124764285D01*
X185233333Y-125097619D01*
X185233333Y-124954761D01*
X185280952Y-124859523D01*
X185328571Y-124811904D01*
X185423809Y-124764285D01*
X185661904Y-124764285D01*
X185757142Y-124811904D01*
X185804761Y-124859523D01*
X185852380Y-124954761D01*
X185852380Y-125240476D01*
X185804761Y-125335714D01*
X185757142Y-125383333D01*
%TO.C,R48*%
X170484642Y-143322380D02*
X170151309Y-142846190D01*
X169913214Y-143322380D02*
X169913214Y-142322380D01*
X170294166Y-142322380D01*
X170389404Y-142370000D01*
X170437023Y-142417619D01*
X170484642Y-142512857D01*
X170484642Y-142655714D01*
X170437023Y-142750952D01*
X170389404Y-142798571D01*
X170294166Y-142846190D01*
X169913214Y-142846190D01*
X171341785Y-142655714D02*
X171341785Y-143322380D01*
X171103690Y-142274761D02*
X170865595Y-142989047D01*
X171484642Y-142989047D01*
X172008452Y-142750952D02*
X171913214Y-142703333D01*
X171865595Y-142655714D01*
X171817976Y-142560476D01*
X171817976Y-142512857D01*
X171865595Y-142417619D01*
X171913214Y-142370000D01*
X172008452Y-142322380D01*
X172198928Y-142322380D01*
X172294166Y-142370000D01*
X172341785Y-142417619D01*
X172389404Y-142512857D01*
X172389404Y-142560476D01*
X172341785Y-142655714D01*
X172294166Y-142703333D01*
X172198928Y-142750952D01*
X172008452Y-142750952D01*
X171913214Y-142798571D01*
X171865595Y-142846190D01*
X171817976Y-142941428D01*
X171817976Y-143131904D01*
X171865595Y-143227142D01*
X171913214Y-143274761D01*
X172008452Y-143322380D01*
X172198928Y-143322380D01*
X172294166Y-143274761D01*
X172341785Y-143227142D01*
X172389404Y-143131904D01*
X172389404Y-142941428D01*
X172341785Y-142846190D01*
X172294166Y-142798571D01*
X172198928Y-142750952D01*
%TO.C,L3*%
X123533333Y-110602380D02*
X123057142Y-110602380D01*
X123057142Y-109602380D01*
X123771428Y-109602380D02*
X124390476Y-109602380D01*
X124057142Y-109983333D01*
X124200000Y-109983333D01*
X124295238Y-110030952D01*
X124342857Y-110078571D01*
X124390476Y-110173809D01*
X124390476Y-110411904D01*
X124342857Y-110507142D01*
X124295238Y-110554761D01*
X124200000Y-110602380D01*
X123914285Y-110602380D01*
X123819047Y-110554761D01*
X123771428Y-110507142D01*
%TO.C,C60*%
X137982142Y-134082142D02*
X137934523Y-134129761D01*
X137791666Y-134177380D01*
X137696428Y-134177380D01*
X137553571Y-134129761D01*
X137458333Y-134034523D01*
X137410714Y-133939285D01*
X137363095Y-133748809D01*
X137363095Y-133605952D01*
X137410714Y-133415476D01*
X137458333Y-133320238D01*
X137553571Y-133225000D01*
X137696428Y-133177380D01*
X137791666Y-133177380D01*
X137934523Y-133225000D01*
X137982142Y-133272619D01*
X138839285Y-133177380D02*
X138648809Y-133177380D01*
X138553571Y-133225000D01*
X138505952Y-133272619D01*
X138410714Y-133415476D01*
X138363095Y-133605952D01*
X138363095Y-133986904D01*
X138410714Y-134082142D01*
X138458333Y-134129761D01*
X138553571Y-134177380D01*
X138744047Y-134177380D01*
X138839285Y-134129761D01*
X138886904Y-134082142D01*
X138934523Y-133986904D01*
X138934523Y-133748809D01*
X138886904Y-133653571D01*
X138839285Y-133605952D01*
X138744047Y-133558333D01*
X138553571Y-133558333D01*
X138458333Y-133605952D01*
X138410714Y-133653571D01*
X138363095Y-133748809D01*
X139553571Y-133177380D02*
X139648809Y-133177380D01*
X139744047Y-133225000D01*
X139791666Y-133272619D01*
X139839285Y-133367857D01*
X139886904Y-133558333D01*
X139886904Y-133796428D01*
X139839285Y-133986904D01*
X139791666Y-134082142D01*
X139744047Y-134129761D01*
X139648809Y-134177380D01*
X139553571Y-134177380D01*
X139458333Y-134129761D01*
X139410714Y-134082142D01*
X139363095Y-133986904D01*
X139315476Y-133796428D01*
X139315476Y-133558333D01*
X139363095Y-133367857D01*
X139410714Y-133272619D01*
X139458333Y-133225000D01*
X139553571Y-133177380D01*
%TO.C,C57*%
X141427142Y-142387142D02*
X141379523Y-142434761D01*
X141236666Y-142482380D01*
X141141428Y-142482380D01*
X140998571Y-142434761D01*
X140903333Y-142339523D01*
X140855714Y-142244285D01*
X140808095Y-142053809D01*
X140808095Y-141910952D01*
X140855714Y-141720476D01*
X140903333Y-141625238D01*
X140998571Y-141530000D01*
X141141428Y-141482380D01*
X141236666Y-141482380D01*
X141379523Y-141530000D01*
X141427142Y-141577619D01*
X142331904Y-141482380D02*
X141855714Y-141482380D01*
X141808095Y-141958571D01*
X141855714Y-141910952D01*
X141950952Y-141863333D01*
X142189047Y-141863333D01*
X142284285Y-141910952D01*
X142331904Y-141958571D01*
X142379523Y-142053809D01*
X142379523Y-142291904D01*
X142331904Y-142387142D01*
X142284285Y-142434761D01*
X142189047Y-142482380D01*
X141950952Y-142482380D01*
X141855714Y-142434761D01*
X141808095Y-142387142D01*
X142712857Y-141482380D02*
X143379523Y-141482380D01*
X142950952Y-142482380D01*
%TO.C,U7*%
X138188095Y-122802380D02*
X138188095Y-123611904D01*
X138235714Y-123707142D01*
X138283333Y-123754761D01*
X138378571Y-123802380D01*
X138569047Y-123802380D01*
X138664285Y-123754761D01*
X138711904Y-123707142D01*
X138759523Y-123611904D01*
X138759523Y-122802380D01*
X139140476Y-122802380D02*
X139807142Y-122802380D01*
X139378571Y-123802380D01*
%TO.C,C43*%
X122550000Y-94350000D02*
X122516666Y-94383333D01*
X122416666Y-94416666D01*
X122350000Y-94416666D01*
X122250000Y-94383333D01*
X122183333Y-94316666D01*
X122150000Y-94250000D01*
X122116666Y-94116666D01*
X122116666Y-94016666D01*
X122150000Y-93883333D01*
X122183333Y-93816666D01*
X122250000Y-93750000D01*
X122350000Y-93716666D01*
X122416666Y-93716666D01*
X122516666Y-93750000D01*
X122550000Y-93783333D01*
X123150000Y-93950000D02*
X123150000Y-94416666D01*
X122983333Y-93683333D02*
X122816666Y-94183333D01*
X123250000Y-94183333D01*
X123450000Y-93716666D02*
X123883333Y-93716666D01*
X123650000Y-93983333D01*
X123750000Y-93983333D01*
X123816666Y-94016666D01*
X123850000Y-94050000D01*
X123883333Y-94116666D01*
X123883333Y-94283333D01*
X123850000Y-94350000D01*
X123816666Y-94383333D01*
X123750000Y-94416666D01*
X123550000Y-94416666D01*
X123483333Y-94383333D01*
X123450000Y-94350000D01*
%TO.C,C53*%
X117307142Y-95742857D02*
X117354761Y-95790476D01*
X117402380Y-95933333D01*
X117402380Y-96028571D01*
X117354761Y-96171428D01*
X117259523Y-96266666D01*
X117164285Y-96314285D01*
X116973809Y-96361904D01*
X116830952Y-96361904D01*
X116640476Y-96314285D01*
X116545238Y-96266666D01*
X116450000Y-96171428D01*
X116402380Y-96028571D01*
X116402380Y-95933333D01*
X116450000Y-95790476D01*
X116497619Y-95742857D01*
X116402380Y-94838095D02*
X116402380Y-95314285D01*
X116878571Y-95361904D01*
X116830952Y-95314285D01*
X116783333Y-95219047D01*
X116783333Y-94980952D01*
X116830952Y-94885714D01*
X116878571Y-94838095D01*
X116973809Y-94790476D01*
X117211904Y-94790476D01*
X117307142Y-94838095D01*
X117354761Y-94885714D01*
X117402380Y-94980952D01*
X117402380Y-95219047D01*
X117354761Y-95314285D01*
X117307142Y-95361904D01*
X116402380Y-94457142D02*
X116402380Y-93838095D01*
X116783333Y-94171428D01*
X116783333Y-94028571D01*
X116830952Y-93933333D01*
X116878571Y-93885714D01*
X116973809Y-93838095D01*
X117211904Y-93838095D01*
X117307142Y-93885714D01*
X117354761Y-93933333D01*
X117402380Y-94028571D01*
X117402380Y-94314285D01*
X117354761Y-94409523D01*
X117307142Y-94457142D01*
%TO.C,F1*%
X112496666Y-134158571D02*
X112163333Y-134158571D01*
X112163333Y-134682380D02*
X112163333Y-133682380D01*
X112639523Y-133682380D01*
X113544285Y-134682380D02*
X112972857Y-134682380D01*
X113258571Y-134682380D02*
X113258571Y-133682380D01*
X113163333Y-133825238D01*
X113068095Y-133920476D01*
X112972857Y-133968095D01*
%TO.C,Q2*%
X147636761Y-118124619D02*
X147541523Y-118077000D01*
X147446285Y-117981761D01*
X147303428Y-117838904D01*
X147208190Y-117791285D01*
X147112952Y-117791285D01*
X147160571Y-118029380D02*
X147065333Y-117981761D01*
X146970095Y-117886523D01*
X146922476Y-117696047D01*
X146922476Y-117362714D01*
X146970095Y-117172238D01*
X147065333Y-117077000D01*
X147160571Y-117029380D01*
X147351047Y-117029380D01*
X147446285Y-117077000D01*
X147541523Y-117172238D01*
X147589142Y-117362714D01*
X147589142Y-117696047D01*
X147541523Y-117886523D01*
X147446285Y-117981761D01*
X147351047Y-118029380D01*
X147160571Y-118029380D01*
X147970095Y-117124619D02*
X148017714Y-117077000D01*
X148112952Y-117029380D01*
X148351047Y-117029380D01*
X148446285Y-117077000D01*
X148493904Y-117124619D01*
X148541523Y-117219857D01*
X148541523Y-117315095D01*
X148493904Y-117457952D01*
X147922476Y-118029380D01*
X148541523Y-118029380D01*
%TO.C,R49*%
X142909196Y-128278011D02*
X142808181Y-128850430D01*
X143313257Y-128682072D02*
X142606150Y-129389178D01*
X142336776Y-129119804D01*
X142303104Y-129018789D01*
X142303104Y-128951446D01*
X142336776Y-128850430D01*
X142437791Y-128749415D01*
X142538807Y-128715743D01*
X142606150Y-128715743D01*
X142707165Y-128749415D01*
X142976539Y-129018789D01*
X141831700Y-128143324D02*
X142303104Y-127671919D01*
X141730684Y-128581056D02*
X142404120Y-128244339D01*
X141966387Y-127806606D01*
X141899043Y-127267858D02*
X141764356Y-127133171D01*
X141663341Y-127099499D01*
X141595997Y-127099499D01*
X141427639Y-127133171D01*
X141259280Y-127234186D01*
X140989906Y-127503560D01*
X140956234Y-127604575D01*
X140956234Y-127671919D01*
X140989906Y-127772934D01*
X141124593Y-127907621D01*
X141225608Y-127941293D01*
X141292952Y-127941293D01*
X141393967Y-127907621D01*
X141562326Y-127739262D01*
X141595997Y-127638247D01*
X141595997Y-127570904D01*
X141562326Y-127469888D01*
X141427639Y-127335201D01*
X141326623Y-127301530D01*
X141259280Y-127301530D01*
X141158265Y-127335201D01*
%TO.C,Y3*%
X139096190Y-140516190D02*
X139572380Y-140516190D01*
X138572380Y-140849523D02*
X139096190Y-140516190D01*
X138572380Y-140182857D01*
X138572380Y-139944761D02*
X138572380Y-139325714D01*
X138953333Y-139659047D01*
X138953333Y-139516190D01*
X139000952Y-139420952D01*
X139048571Y-139373333D01*
X139143809Y-139325714D01*
X139381904Y-139325714D01*
X139477142Y-139373333D01*
X139524761Y-139420952D01*
X139572380Y-139516190D01*
X139572380Y-139801904D01*
X139524761Y-139897142D01*
X139477142Y-139944761D01*
%TO.C,C33*%
X134400000Y-134243767D02*
X134366666Y-134277100D01*
X134266666Y-134310433D01*
X134200000Y-134310433D01*
X134100000Y-134277100D01*
X134033333Y-134210433D01*
X134000000Y-134143767D01*
X133966666Y-134010433D01*
X133966666Y-133910433D01*
X134000000Y-133777100D01*
X134033333Y-133710433D01*
X134100000Y-133643767D01*
X134200000Y-133610433D01*
X134266666Y-133610433D01*
X134366666Y-133643767D01*
X134400000Y-133677100D01*
X134633333Y-133610433D02*
X135066666Y-133610433D01*
X134833333Y-133877100D01*
X134933333Y-133877100D01*
X135000000Y-133910433D01*
X135033333Y-133943767D01*
X135066666Y-134010433D01*
X135066666Y-134177100D01*
X135033333Y-134243767D01*
X135000000Y-134277100D01*
X134933333Y-134310433D01*
X134733333Y-134310433D01*
X134666666Y-134277100D01*
X134633333Y-134243767D01*
X135300000Y-133610433D02*
X135733333Y-133610433D01*
X135500000Y-133877100D01*
X135600000Y-133877100D01*
X135666666Y-133910433D01*
X135700000Y-133943767D01*
X135733333Y-134010433D01*
X135733333Y-134177100D01*
X135700000Y-134243767D01*
X135666666Y-134277100D01*
X135600000Y-134310433D01*
X135400000Y-134310433D01*
X135333333Y-134277100D01*
X135300000Y-134243767D01*
%TO.C,C36*%
X124242730Y-107412682D02*
X124276063Y-107446015D01*
X124309396Y-107546015D01*
X124309396Y-107612682D01*
X124276063Y-107712682D01*
X124209396Y-107779348D01*
X124142730Y-107812682D01*
X124009396Y-107846015D01*
X123909396Y-107846015D01*
X123776063Y-107812682D01*
X123709396Y-107779348D01*
X123642730Y-107712682D01*
X123609396Y-107612682D01*
X123609396Y-107546015D01*
X123642730Y-107446015D01*
X123676063Y-107412682D01*
X123609396Y-107179348D02*
X123609396Y-106746015D01*
X123876063Y-106979348D01*
X123876063Y-106879348D01*
X123909396Y-106812682D01*
X123942730Y-106779348D01*
X124009396Y-106746015D01*
X124176063Y-106746015D01*
X124242730Y-106779348D01*
X124276063Y-106812682D01*
X124309396Y-106879348D01*
X124309396Y-107079348D01*
X124276063Y-107146015D01*
X124242730Y-107179348D01*
X123609396Y-106146015D02*
X123609396Y-106279348D01*
X123642730Y-106346015D01*
X123676063Y-106379348D01*
X123776063Y-106446015D01*
X123909396Y-106479348D01*
X124176063Y-106479348D01*
X124242730Y-106446015D01*
X124276063Y-106412682D01*
X124309396Y-106346015D01*
X124309396Y-106212682D01*
X124276063Y-106146015D01*
X124242730Y-106112682D01*
X124176063Y-106079348D01*
X124009396Y-106079348D01*
X123942730Y-106112682D01*
X123909396Y-106146015D01*
X123876063Y-106212682D01*
X123876063Y-106346015D01*
X123909396Y-106412682D01*
X123942730Y-106446015D01*
X124009396Y-106479348D01*
%TO.C,U15*%
X171650097Y-126915043D02*
X171650097Y-127424979D01*
X171680094Y-127484971D01*
X171710090Y-127514968D01*
X171770082Y-127544964D01*
X171890067Y-127544964D01*
X171950060Y-127514968D01*
X171980056Y-127484971D01*
X172010052Y-127424979D01*
X172010052Y-126915043D01*
X172639973Y-127544964D02*
X172280018Y-127544964D01*
X172459996Y-127544964D02*
X172459996Y-126915043D01*
X172400003Y-127005031D01*
X172340011Y-127065024D01*
X172280018Y-127095020D01*
X173209902Y-126915043D02*
X172909939Y-126915043D01*
X172879943Y-127215005D01*
X172909939Y-127185009D01*
X172969932Y-127155013D01*
X173119913Y-127155013D01*
X173179905Y-127185009D01*
X173209902Y-127215005D01*
X173239898Y-127274998D01*
X173239898Y-127424979D01*
X173209902Y-127484971D01*
X173179905Y-127514968D01*
X173119913Y-127544964D01*
X172969932Y-127544964D01*
X172909939Y-127514968D01*
X172879943Y-127484971D01*
%TO.C,R18*%
X166232142Y-143282380D02*
X165898809Y-142806190D01*
X165660714Y-143282380D02*
X165660714Y-142282380D01*
X166041666Y-142282380D01*
X166136904Y-142330000D01*
X166184523Y-142377619D01*
X166232142Y-142472857D01*
X166232142Y-142615714D01*
X166184523Y-142710952D01*
X166136904Y-142758571D01*
X166041666Y-142806190D01*
X165660714Y-142806190D01*
X167184523Y-143282380D02*
X166613095Y-143282380D01*
X166898809Y-143282380D02*
X166898809Y-142282380D01*
X166803571Y-142425238D01*
X166708333Y-142520476D01*
X166613095Y-142568095D01*
X167755952Y-142710952D02*
X167660714Y-142663333D01*
X167613095Y-142615714D01*
X167565476Y-142520476D01*
X167565476Y-142472857D01*
X167613095Y-142377619D01*
X167660714Y-142330000D01*
X167755952Y-142282380D01*
X167946428Y-142282380D01*
X168041666Y-142330000D01*
X168089285Y-142377619D01*
X168136904Y-142472857D01*
X168136904Y-142520476D01*
X168089285Y-142615714D01*
X168041666Y-142663333D01*
X167946428Y-142710952D01*
X167755952Y-142710952D01*
X167660714Y-142758571D01*
X167613095Y-142806190D01*
X167565476Y-142901428D01*
X167565476Y-143091904D01*
X167613095Y-143187142D01*
X167660714Y-143234761D01*
X167755952Y-143282380D01*
X167946428Y-143282380D01*
X168041666Y-143234761D01*
X168089285Y-143187142D01*
X168136904Y-143091904D01*
X168136904Y-142901428D01*
X168089285Y-142806190D01*
X168041666Y-142758571D01*
X167946428Y-142710952D01*
%TO.C,U19*%
X192911904Y-127277380D02*
X192911904Y-128086904D01*
X192959523Y-128182142D01*
X193007142Y-128229761D01*
X193102380Y-128277380D01*
X193292857Y-128277380D01*
X193388095Y-128229761D01*
X193435714Y-128182142D01*
X193483333Y-128086904D01*
X193483333Y-127277380D01*
X194483333Y-128277380D02*
X193911904Y-128277380D01*
X194197619Y-128277380D02*
X194197619Y-127277380D01*
X194102380Y-127420238D01*
X194007142Y-127515476D01*
X193911904Y-127563095D01*
X194959523Y-128277380D02*
X195150000Y-128277380D01*
X195245238Y-128229761D01*
X195292857Y-128182142D01*
X195388095Y-128039285D01*
X195435714Y-127848809D01*
X195435714Y-127467857D01*
X195388095Y-127372619D01*
X195340476Y-127325000D01*
X195245238Y-127277380D01*
X195054761Y-127277380D01*
X194959523Y-127325000D01*
X194911904Y-127372619D01*
X194864285Y-127467857D01*
X194864285Y-127705952D01*
X194911904Y-127801190D01*
X194959523Y-127848809D01*
X195054761Y-127896428D01*
X195245238Y-127896428D01*
X195340476Y-127848809D01*
X195388095Y-127801190D01*
X195435714Y-127705952D01*
%TO.C,D21*%
X111535714Y-143452380D02*
X111535714Y-142452380D01*
X111773809Y-142452380D01*
X111916666Y-142500000D01*
X112011904Y-142595238D01*
X112059523Y-142690476D01*
X112107142Y-142880952D01*
X112107142Y-143023809D01*
X112059523Y-143214285D01*
X112011904Y-143309523D01*
X111916666Y-143404761D01*
X111773809Y-143452380D01*
X111535714Y-143452380D01*
X112488095Y-142547619D02*
X112535714Y-142500000D01*
X112630952Y-142452380D01*
X112869047Y-142452380D01*
X112964285Y-142500000D01*
X113011904Y-142547619D01*
X113059523Y-142642857D01*
X113059523Y-142738095D01*
X113011904Y-142880952D01*
X112440476Y-143452380D01*
X113059523Y-143452380D01*
X114011904Y-143452380D02*
X113440476Y-143452380D01*
X113726190Y-143452380D02*
X113726190Y-142452380D01*
X113630952Y-142595238D01*
X113535714Y-142690476D01*
X113440476Y-142738095D01*
%TO.C,C40*%
X185767142Y-131547142D02*
X185719523Y-131594761D01*
X185576666Y-131642380D01*
X185481428Y-131642380D01*
X185338571Y-131594761D01*
X185243333Y-131499523D01*
X185195714Y-131404285D01*
X185148095Y-131213809D01*
X185148095Y-131070952D01*
X185195714Y-130880476D01*
X185243333Y-130785238D01*
X185338571Y-130690000D01*
X185481428Y-130642380D01*
X185576666Y-130642380D01*
X185719523Y-130690000D01*
X185767142Y-130737619D01*
X186624285Y-130975714D02*
X186624285Y-131642380D01*
X186386190Y-130594761D02*
X186148095Y-131309047D01*
X186767142Y-131309047D01*
X187338571Y-130642380D02*
X187433809Y-130642380D01*
X187529047Y-130690000D01*
X187576666Y-130737619D01*
X187624285Y-130832857D01*
X187671904Y-131023333D01*
X187671904Y-131261428D01*
X187624285Y-131451904D01*
X187576666Y-131547142D01*
X187529047Y-131594761D01*
X187433809Y-131642380D01*
X187338571Y-131642380D01*
X187243333Y-131594761D01*
X187195714Y-131547142D01*
X187148095Y-131451904D01*
X187100476Y-131261428D01*
X187100476Y-131023333D01*
X187148095Y-130832857D01*
X187195714Y-130737619D01*
X187243333Y-130690000D01*
X187338571Y-130642380D01*
%TO.C,R7*%
X143354380Y-120443666D02*
X142878190Y-120777000D01*
X143354380Y-121015095D02*
X142354380Y-121015095D01*
X142354380Y-120634142D01*
X142402000Y-120538904D01*
X142449619Y-120491285D01*
X142544857Y-120443666D01*
X142687714Y-120443666D01*
X142782952Y-120491285D01*
X142830571Y-120538904D01*
X142878190Y-120634142D01*
X142878190Y-121015095D01*
X142354380Y-120110333D02*
X142354380Y-119443666D01*
X143354380Y-119872238D01*
%TO.C,C6*%
X181507142Y-116091666D02*
X181554761Y-116139285D01*
X181602380Y-116282142D01*
X181602380Y-116377380D01*
X181554761Y-116520238D01*
X181459523Y-116615476D01*
X181364285Y-116663095D01*
X181173809Y-116710714D01*
X181030952Y-116710714D01*
X180840476Y-116663095D01*
X180745238Y-116615476D01*
X180650000Y-116520238D01*
X180602380Y-116377380D01*
X180602380Y-116282142D01*
X180650000Y-116139285D01*
X180697619Y-116091666D01*
X180602380Y-115234523D02*
X180602380Y-115425000D01*
X180650000Y-115520238D01*
X180697619Y-115567857D01*
X180840476Y-115663095D01*
X181030952Y-115710714D01*
X181411904Y-115710714D01*
X181507142Y-115663095D01*
X181554761Y-115615476D01*
X181602380Y-115520238D01*
X181602380Y-115329761D01*
X181554761Y-115234523D01*
X181507142Y-115186904D01*
X181411904Y-115139285D01*
X181173809Y-115139285D01*
X181078571Y-115186904D01*
X181030952Y-115234523D01*
X180983333Y-115329761D01*
X180983333Y-115520238D01*
X181030952Y-115615476D01*
X181078571Y-115663095D01*
X181173809Y-115710714D01*
%TO.C,C14*%
X182937142Y-109942857D02*
X182984761Y-109990476D01*
X183032380Y-110133333D01*
X183032380Y-110228571D01*
X182984761Y-110371428D01*
X182889523Y-110466666D01*
X182794285Y-110514285D01*
X182603809Y-110561904D01*
X182460952Y-110561904D01*
X182270476Y-110514285D01*
X182175238Y-110466666D01*
X182080000Y-110371428D01*
X182032380Y-110228571D01*
X182032380Y-110133333D01*
X182080000Y-109990476D01*
X182127619Y-109942857D01*
X183032380Y-108990476D02*
X183032380Y-109561904D01*
X183032380Y-109276190D02*
X182032380Y-109276190D01*
X182175238Y-109371428D01*
X182270476Y-109466666D01*
X182318095Y-109561904D01*
X182365714Y-108133333D02*
X183032380Y-108133333D01*
X181984761Y-108371428D02*
X182699047Y-108609523D01*
X182699047Y-107990476D01*
%TO.C,R1*%
X180083333Y-128852380D02*
X179750000Y-128376190D01*
X179511904Y-128852380D02*
X179511904Y-127852380D01*
X179892857Y-127852380D01*
X179988095Y-127900000D01*
X180035714Y-127947619D01*
X180083333Y-128042857D01*
X180083333Y-128185714D01*
X180035714Y-128280952D01*
X179988095Y-128328571D01*
X179892857Y-128376190D01*
X179511904Y-128376190D01*
X181035714Y-128852380D02*
X180464285Y-128852380D01*
X180750000Y-128852380D02*
X180750000Y-127852380D01*
X180654761Y-127995238D01*
X180559523Y-128090476D01*
X180464285Y-128138095D01*
%TO.C,R56*%
X157915312Y-135324450D02*
X157342893Y-135223435D01*
X157511251Y-135728511D02*
X156804145Y-135021404D01*
X157073519Y-134752030D01*
X157174534Y-134718358D01*
X157241877Y-134718358D01*
X157342893Y-134752030D01*
X157443908Y-134853045D01*
X157477580Y-134954061D01*
X157477580Y-135021404D01*
X157443908Y-135122419D01*
X157174534Y-135391793D01*
X157847969Y-133977580D02*
X157511251Y-134314297D01*
X157814297Y-134684687D01*
X157814297Y-134617343D01*
X157847969Y-134516328D01*
X158016328Y-134347969D01*
X158117343Y-134314297D01*
X158184687Y-134314297D01*
X158285702Y-134347969D01*
X158454061Y-134516328D01*
X158487732Y-134617343D01*
X158487732Y-134684687D01*
X158454061Y-134785702D01*
X158285702Y-134954061D01*
X158184687Y-134987732D01*
X158117343Y-134987732D01*
X158487732Y-133337816D02*
X158353045Y-133472503D01*
X158319374Y-133573519D01*
X158319374Y-133640862D01*
X158353045Y-133809221D01*
X158454061Y-133977580D01*
X158723435Y-134246954D01*
X158824450Y-134280625D01*
X158891793Y-134280625D01*
X158992809Y-134246954D01*
X159127496Y-134112267D01*
X159161167Y-134011251D01*
X159161167Y-133943908D01*
X159127496Y-133842893D01*
X158959137Y-133674534D01*
X158858122Y-133640862D01*
X158790778Y-133640862D01*
X158689763Y-133674534D01*
X158555076Y-133809221D01*
X158521404Y-133910236D01*
X158521404Y-133977580D01*
X158555076Y-134078595D01*
%TO.C,R44*%
X112407142Y-106122380D02*
X112073809Y-105646190D01*
X111835714Y-106122380D02*
X111835714Y-105122380D01*
X112216666Y-105122380D01*
X112311904Y-105170000D01*
X112359523Y-105217619D01*
X112407142Y-105312857D01*
X112407142Y-105455714D01*
X112359523Y-105550952D01*
X112311904Y-105598571D01*
X112216666Y-105646190D01*
X111835714Y-105646190D01*
X113264285Y-105455714D02*
X113264285Y-106122380D01*
X113026190Y-105074761D02*
X112788095Y-105789047D01*
X113407142Y-105789047D01*
X114216666Y-105455714D02*
X114216666Y-106122380D01*
X113978571Y-105074761D02*
X113740476Y-105789047D01*
X114359523Y-105789047D01*
%TO.C,D11*%
X116202380Y-110564285D02*
X115202380Y-110564285D01*
X115202380Y-110326190D01*
X115250000Y-110183333D01*
X115345238Y-110088095D01*
X115440476Y-110040476D01*
X115630952Y-109992857D01*
X115773809Y-109992857D01*
X115964285Y-110040476D01*
X116059523Y-110088095D01*
X116154761Y-110183333D01*
X116202380Y-110326190D01*
X116202380Y-110564285D01*
X116202380Y-109040476D02*
X116202380Y-109611904D01*
X116202380Y-109326190D02*
X115202380Y-109326190D01*
X115345238Y-109421428D01*
X115440476Y-109516666D01*
X115488095Y-109611904D01*
X116202380Y-108088095D02*
X116202380Y-108659523D01*
X116202380Y-108373809D02*
X115202380Y-108373809D01*
X115345238Y-108469047D01*
X115440476Y-108564285D01*
X115488095Y-108659523D01*
%TO.C,R8*%
X173452380Y-94266666D02*
X172976190Y-94600000D01*
X173452380Y-94838095D02*
X172452380Y-94838095D01*
X172452380Y-94457142D01*
X172500000Y-94361904D01*
X172547619Y-94314285D01*
X172642857Y-94266666D01*
X172785714Y-94266666D01*
X172880952Y-94314285D01*
X172928571Y-94361904D01*
X172976190Y-94457142D01*
X172976190Y-94838095D01*
X172880952Y-93695238D02*
X172833333Y-93790476D01*
X172785714Y-93838095D01*
X172690476Y-93885714D01*
X172642857Y-93885714D01*
X172547619Y-93838095D01*
X172500000Y-93790476D01*
X172452380Y-93695238D01*
X172452380Y-93504761D01*
X172500000Y-93409523D01*
X172547619Y-93361904D01*
X172642857Y-93314285D01*
X172690476Y-93314285D01*
X172785714Y-93361904D01*
X172833333Y-93409523D01*
X172880952Y-93504761D01*
X172880952Y-93695238D01*
X172928571Y-93790476D01*
X172976190Y-93838095D01*
X173071428Y-93885714D01*
X173261904Y-93885714D01*
X173357142Y-93838095D01*
X173404761Y-93790476D01*
X173452380Y-93695238D01*
X173452380Y-93504761D01*
X173404761Y-93409523D01*
X173357142Y-93361904D01*
X173261904Y-93314285D01*
X173071428Y-93314285D01*
X172976190Y-93361904D01*
X172928571Y-93409523D01*
X172880952Y-93504761D01*
%TO.C,H4*%
X194238095Y-136652380D02*
X194238095Y-135652380D01*
X194238095Y-136128571D02*
X194809523Y-136128571D01*
X194809523Y-136652380D02*
X194809523Y-135652380D01*
X195714285Y-135985714D02*
X195714285Y-136652380D01*
X195476190Y-135604761D02*
X195238095Y-136319047D01*
X195857142Y-136319047D01*
%TO.C,C9*%
X169957142Y-97166666D02*
X170004761Y-97214285D01*
X170052380Y-97357142D01*
X170052380Y-97452380D01*
X170004761Y-97595238D01*
X169909523Y-97690476D01*
X169814285Y-97738095D01*
X169623809Y-97785714D01*
X169480952Y-97785714D01*
X169290476Y-97738095D01*
X169195238Y-97690476D01*
X169100000Y-97595238D01*
X169052380Y-97452380D01*
X169052380Y-97357142D01*
X169100000Y-97214285D01*
X169147619Y-97166666D01*
X170052380Y-96690476D02*
X170052380Y-96500000D01*
X170004761Y-96404761D01*
X169957142Y-96357142D01*
X169814285Y-96261904D01*
X169623809Y-96214285D01*
X169242857Y-96214285D01*
X169147619Y-96261904D01*
X169100000Y-96309523D01*
X169052380Y-96404761D01*
X169052380Y-96595238D01*
X169100000Y-96690476D01*
X169147619Y-96738095D01*
X169242857Y-96785714D01*
X169480952Y-96785714D01*
X169576190Y-96738095D01*
X169623809Y-96690476D01*
X169671428Y-96595238D01*
X169671428Y-96404761D01*
X169623809Y-96309523D01*
X169576190Y-96261904D01*
X169480952Y-96214285D01*
%TO.C,D15*%
X137915714Y-107592380D02*
X137915714Y-106592380D01*
X138153809Y-106592380D01*
X138296666Y-106640000D01*
X138391904Y-106735238D01*
X138439523Y-106830476D01*
X138487142Y-107020952D01*
X138487142Y-107163809D01*
X138439523Y-107354285D01*
X138391904Y-107449523D01*
X138296666Y-107544761D01*
X138153809Y-107592380D01*
X137915714Y-107592380D01*
X139439523Y-107592380D02*
X138868095Y-107592380D01*
X139153809Y-107592380D02*
X139153809Y-106592380D01*
X139058571Y-106735238D01*
X138963333Y-106830476D01*
X138868095Y-106878095D01*
X140344285Y-106592380D02*
X139868095Y-106592380D01*
X139820476Y-107068571D01*
X139868095Y-107020952D01*
X139963333Y-106973333D01*
X140201428Y-106973333D01*
X140296666Y-107020952D01*
X140344285Y-107068571D01*
X140391904Y-107163809D01*
X140391904Y-107401904D01*
X140344285Y-107497142D01*
X140296666Y-107544761D01*
X140201428Y-107592380D01*
X139963333Y-107592380D01*
X139868095Y-107544761D01*
X139820476Y-107497142D01*
%TO.C,U2*%
X197413095Y-101477380D02*
X197413095Y-102286904D01*
X197460714Y-102382142D01*
X197508333Y-102429761D01*
X197603571Y-102477380D01*
X197794047Y-102477380D01*
X197889285Y-102429761D01*
X197936904Y-102382142D01*
X197984523Y-102286904D01*
X197984523Y-101477380D01*
X198413095Y-101572619D02*
X198460714Y-101525000D01*
X198555952Y-101477380D01*
X198794047Y-101477380D01*
X198889285Y-101525000D01*
X198936904Y-101572619D01*
X198984523Y-101667857D01*
X198984523Y-101763095D01*
X198936904Y-101905952D01*
X198365476Y-102477380D01*
X198984523Y-102477380D01*
X195202380Y-102200000D02*
X195440476Y-102200000D01*
X195345238Y-102438095D02*
X195440476Y-102200000D01*
X195345238Y-101961904D01*
X195630952Y-102342857D02*
X195440476Y-102200000D01*
X195630952Y-102057142D01*
X195202380Y-102200000D02*
X195440476Y-102200000D01*
X195345238Y-102438095D02*
X195440476Y-102200000D01*
X195345238Y-101961904D01*
X195630952Y-102342857D02*
X195440476Y-102200000D01*
X195630952Y-102057142D01*
%TO.C,D9*%
X113002380Y-96038095D02*
X112002380Y-96038095D01*
X112002380Y-95800000D01*
X112050000Y-95657142D01*
X112145238Y-95561904D01*
X112240476Y-95514285D01*
X112430952Y-95466666D01*
X112573809Y-95466666D01*
X112764285Y-95514285D01*
X112859523Y-95561904D01*
X112954761Y-95657142D01*
X113002380Y-95800000D01*
X113002380Y-96038095D01*
X113002380Y-94990476D02*
X113002380Y-94800000D01*
X112954761Y-94704761D01*
X112907142Y-94657142D01*
X112764285Y-94561904D01*
X112573809Y-94514285D01*
X112192857Y-94514285D01*
X112097619Y-94561904D01*
X112050000Y-94609523D01*
X112002380Y-94704761D01*
X112002380Y-94895238D01*
X112050000Y-94990476D01*
X112097619Y-95038095D01*
X112192857Y-95085714D01*
X112430952Y-95085714D01*
X112526190Y-95038095D01*
X112573809Y-94990476D01*
X112621428Y-94895238D01*
X112621428Y-94704761D01*
X112573809Y-94609523D01*
X112526190Y-94561904D01*
X112430952Y-94514285D01*
%TO.C,R40*%
X121766666Y-98000000D02*
X121433333Y-98233333D01*
X121766666Y-98400000D02*
X121066666Y-98400000D01*
X121066666Y-98133333D01*
X121100000Y-98066666D01*
X121133333Y-98033333D01*
X121200000Y-98000000D01*
X121300000Y-98000000D01*
X121366666Y-98033333D01*
X121400000Y-98066666D01*
X121433333Y-98133333D01*
X121433333Y-98400000D01*
X121300000Y-97400000D02*
X121766666Y-97400000D01*
X121033333Y-97566666D02*
X121533333Y-97733333D01*
X121533333Y-97300000D01*
X121066666Y-96900000D02*
X121066666Y-96833333D01*
X121100000Y-96766666D01*
X121133333Y-96733333D01*
X121200000Y-96700000D01*
X121333333Y-96666666D01*
X121500000Y-96666666D01*
X121633333Y-96700000D01*
X121700000Y-96733333D01*
X121733333Y-96766666D01*
X121766666Y-96833333D01*
X121766666Y-96900000D01*
X121733333Y-96966666D01*
X121700000Y-97000000D01*
X121633333Y-97033333D01*
X121500000Y-97066666D01*
X121333333Y-97066666D01*
X121200000Y-97033333D01*
X121133333Y-97000000D01*
X121100000Y-96966666D01*
X121066666Y-96900000D01*
%TO.C,D10*%
X116152380Y-113364285D02*
X115152380Y-113364285D01*
X115152380Y-113126190D01*
X115200000Y-112983333D01*
X115295238Y-112888095D01*
X115390476Y-112840476D01*
X115580952Y-112792857D01*
X115723809Y-112792857D01*
X115914285Y-112840476D01*
X116009523Y-112888095D01*
X116104761Y-112983333D01*
X116152380Y-113126190D01*
X116152380Y-113364285D01*
X116152380Y-111840476D02*
X116152380Y-112411904D01*
X116152380Y-112126190D02*
X115152380Y-112126190D01*
X115295238Y-112221428D01*
X115390476Y-112316666D01*
X115438095Y-112411904D01*
X115152380Y-111221428D02*
X115152380Y-111126190D01*
X115200000Y-111030952D01*
X115247619Y-110983333D01*
X115342857Y-110935714D01*
X115533333Y-110888095D01*
X115771428Y-110888095D01*
X115961904Y-110935714D01*
X116057142Y-110983333D01*
X116104761Y-111030952D01*
X116152380Y-111126190D01*
X116152380Y-111221428D01*
X116104761Y-111316666D01*
X116057142Y-111364285D01*
X115961904Y-111411904D01*
X115771428Y-111459523D01*
X115533333Y-111459523D01*
X115342857Y-111411904D01*
X115247619Y-111364285D01*
X115200000Y-111316666D01*
X115152380Y-111221428D01*
%TO.C,R51*%
X196027380Y-99842857D02*
X195551190Y-100176190D01*
X196027380Y-100414285D02*
X195027380Y-100414285D01*
X195027380Y-100033333D01*
X195075000Y-99938095D01*
X195122619Y-99890476D01*
X195217857Y-99842857D01*
X195360714Y-99842857D01*
X195455952Y-99890476D01*
X195503571Y-99938095D01*
X195551190Y-100033333D01*
X195551190Y-100414285D01*
X195027380Y-98938095D02*
X195027380Y-99414285D01*
X195503571Y-99461904D01*
X195455952Y-99414285D01*
X195408333Y-99319047D01*
X195408333Y-99080952D01*
X195455952Y-98985714D01*
X195503571Y-98938095D01*
X195598809Y-98890476D01*
X195836904Y-98890476D01*
X195932142Y-98938095D01*
X195979761Y-98985714D01*
X196027380Y-99080952D01*
X196027380Y-99319047D01*
X195979761Y-99414285D01*
X195932142Y-99461904D01*
X196027380Y-97938095D02*
X196027380Y-98509523D01*
X196027380Y-98223809D02*
X195027380Y-98223809D01*
X195170238Y-98319047D01*
X195265476Y-98414285D01*
X195313095Y-98509523D01*
%TO.C,CP3*%
X142533333Y-100457142D02*
X142485714Y-100504761D01*
X142342857Y-100552380D01*
X142247619Y-100552380D01*
X142104761Y-100504761D01*
X142009523Y-100409523D01*
X141961904Y-100314285D01*
X141914285Y-100123809D01*
X141914285Y-99980952D01*
X141961904Y-99790476D01*
X142009523Y-99695238D01*
X142104761Y-99600000D01*
X142247619Y-99552380D01*
X142342857Y-99552380D01*
X142485714Y-99600000D01*
X142533333Y-99647619D01*
X142961904Y-100552380D02*
X142961904Y-99552380D01*
X143342857Y-99552380D01*
X143438095Y-99600000D01*
X143485714Y-99647619D01*
X143533333Y-99742857D01*
X143533333Y-99885714D01*
X143485714Y-99980952D01*
X143438095Y-100028571D01*
X143342857Y-100076190D01*
X142961904Y-100076190D01*
X143866666Y-99552380D02*
X144485714Y-99552380D01*
X144152380Y-99933333D01*
X144295238Y-99933333D01*
X144390476Y-99980952D01*
X144438095Y-100028571D01*
X144485714Y-100123809D01*
X144485714Y-100361904D01*
X144438095Y-100457142D01*
X144390476Y-100504761D01*
X144295238Y-100552380D01*
X144009523Y-100552380D01*
X143914285Y-100504761D01*
X143866666Y-100457142D01*
%TO.C,C12*%
X150489142Y-103719857D02*
X150536761Y-103767476D01*
X150584380Y-103910333D01*
X150584380Y-104005571D01*
X150536761Y-104148428D01*
X150441523Y-104243666D01*
X150346285Y-104291285D01*
X150155809Y-104338904D01*
X150012952Y-104338904D01*
X149822476Y-104291285D01*
X149727238Y-104243666D01*
X149632000Y-104148428D01*
X149584380Y-104005571D01*
X149584380Y-103910333D01*
X149632000Y-103767476D01*
X149679619Y-103719857D01*
X150584380Y-102767476D02*
X150584380Y-103338904D01*
X150584380Y-103053190D02*
X149584380Y-103053190D01*
X149727238Y-103148428D01*
X149822476Y-103243666D01*
X149870095Y-103338904D01*
X149679619Y-102386523D02*
X149632000Y-102338904D01*
X149584380Y-102243666D01*
X149584380Y-102005571D01*
X149632000Y-101910333D01*
X149679619Y-101862714D01*
X149774857Y-101815095D01*
X149870095Y-101815095D01*
X150012952Y-101862714D01*
X150584380Y-102434142D01*
X150584380Y-101815095D01*
%TO.C,U14*%
X183960097Y-89350043D02*
X183960097Y-89859979D01*
X183990094Y-89919971D01*
X184020090Y-89949968D01*
X184080082Y-89979964D01*
X184200067Y-89979964D01*
X184260060Y-89949968D01*
X184290056Y-89919971D01*
X184320052Y-89859979D01*
X184320052Y-89350043D01*
X184949973Y-89979964D02*
X184590018Y-89979964D01*
X184769996Y-89979964D02*
X184769996Y-89350043D01*
X184710003Y-89440031D01*
X184650011Y-89500024D01*
X184590018Y-89530020D01*
X185489905Y-89560016D02*
X185489905Y-89979964D01*
X185339924Y-89320047D02*
X185189943Y-89769990D01*
X185579894Y-89769990D01*
%TO.C,C52*%
X122500000Y-96350000D02*
X122466666Y-96383333D01*
X122366666Y-96416666D01*
X122300000Y-96416666D01*
X122200000Y-96383333D01*
X122133333Y-96316666D01*
X122100000Y-96250000D01*
X122066666Y-96116666D01*
X122066666Y-96016666D01*
X122100000Y-95883333D01*
X122133333Y-95816666D01*
X122200000Y-95750000D01*
X122300000Y-95716666D01*
X122366666Y-95716666D01*
X122466666Y-95750000D01*
X122500000Y-95783333D01*
X123133333Y-95716666D02*
X122800000Y-95716666D01*
X122766666Y-96050000D01*
X122800000Y-96016666D01*
X122866666Y-95983333D01*
X123033333Y-95983333D01*
X123100000Y-96016666D01*
X123133333Y-96050000D01*
X123166666Y-96116666D01*
X123166666Y-96283333D01*
X123133333Y-96350000D01*
X123100000Y-96383333D01*
X123033333Y-96416666D01*
X122866666Y-96416666D01*
X122800000Y-96383333D01*
X122766666Y-96350000D01*
X123433333Y-95783333D02*
X123466666Y-95750000D01*
X123533333Y-95716666D01*
X123700000Y-95716666D01*
X123766666Y-95750000D01*
X123800000Y-95783333D01*
X123833333Y-95850000D01*
X123833333Y-95916666D01*
X123800000Y-96016666D01*
X123400000Y-96416666D01*
X123833333Y-96416666D01*
%TO.C,R3*%
X180083333Y-125602380D02*
X179750000Y-125126190D01*
X179511904Y-125602380D02*
X179511904Y-124602380D01*
X179892857Y-124602380D01*
X179988095Y-124650000D01*
X180035714Y-124697619D01*
X180083333Y-124792857D01*
X180083333Y-124935714D01*
X180035714Y-125030952D01*
X179988095Y-125078571D01*
X179892857Y-125126190D01*
X179511904Y-125126190D01*
X180416666Y-124602380D02*
X181035714Y-124602380D01*
X180702380Y-124983333D01*
X180845238Y-124983333D01*
X180940476Y-125030952D01*
X180988095Y-125078571D01*
X181035714Y-125173809D01*
X181035714Y-125411904D01*
X180988095Y-125507142D01*
X180940476Y-125554761D01*
X180845238Y-125602380D01*
X180559523Y-125602380D01*
X180464285Y-125554761D01*
X180416666Y-125507142D01*
%TO.C,R42*%
X113002380Y-98742857D02*
X112526190Y-99076190D01*
X113002380Y-99314285D02*
X112002380Y-99314285D01*
X112002380Y-98933333D01*
X112050000Y-98838095D01*
X112097619Y-98790476D01*
X112192857Y-98742857D01*
X112335714Y-98742857D01*
X112430952Y-98790476D01*
X112478571Y-98838095D01*
X112526190Y-98933333D01*
X112526190Y-99314285D01*
X112335714Y-97885714D02*
X113002380Y-97885714D01*
X111954761Y-98123809D02*
X112669047Y-98361904D01*
X112669047Y-97742857D01*
X112097619Y-97409523D02*
X112050000Y-97361904D01*
X112002380Y-97266666D01*
X112002380Y-97028571D01*
X112050000Y-96933333D01*
X112097619Y-96885714D01*
X112192857Y-96838095D01*
X112288095Y-96838095D01*
X112430952Y-96885714D01*
X113002380Y-97457142D01*
X113002380Y-96838095D01*
%TO.C,C34*%
X134400000Y-132893767D02*
X134433333Y-132927100D01*
X134466666Y-133027100D01*
X134466666Y-133093767D01*
X134433333Y-133193767D01*
X134366666Y-133260433D01*
X134300000Y-133293767D01*
X134166666Y-133327100D01*
X134066666Y-133327100D01*
X133933333Y-133293767D01*
X133866666Y-133260433D01*
X133800000Y-133193767D01*
X133766666Y-133093767D01*
X133766666Y-133027100D01*
X133800000Y-132927100D01*
X133833333Y-132893767D01*
X133766666Y-132660433D02*
X133766666Y-132227100D01*
X134033333Y-132460433D01*
X134033333Y-132360433D01*
X134066666Y-132293767D01*
X134100000Y-132260433D01*
X134166666Y-132227100D01*
X134333333Y-132227100D01*
X134400000Y-132260433D01*
X134433333Y-132293767D01*
X134466666Y-132360433D01*
X134466666Y-132560433D01*
X134433333Y-132627100D01*
X134400000Y-132660433D01*
X134000000Y-131627100D02*
X134466666Y-131627100D01*
X133733333Y-131793767D02*
X134233333Y-131960433D01*
X134233333Y-131527100D01*
%TO.C,C28*%
X135250000Y-113900000D02*
X135283333Y-113933333D01*
X135316666Y-114033333D01*
X135316666Y-114100000D01*
X135283333Y-114200000D01*
X135216666Y-114266666D01*
X135150000Y-114300000D01*
X135016666Y-114333333D01*
X134916666Y-114333333D01*
X134783333Y-114300000D01*
X134716666Y-114266666D01*
X134650000Y-114200000D01*
X134616666Y-114100000D01*
X134616666Y-114033333D01*
X134650000Y-113933333D01*
X134683333Y-113900000D01*
X134683333Y-113633333D02*
X134650000Y-113600000D01*
X134616666Y-113533333D01*
X134616666Y-113366666D01*
X134650000Y-113300000D01*
X134683333Y-113266666D01*
X134750000Y-113233333D01*
X134816666Y-113233333D01*
X134916666Y-113266666D01*
X135316666Y-113666666D01*
X135316666Y-113233333D01*
X134916666Y-112833333D02*
X134883333Y-112900000D01*
X134850000Y-112933333D01*
X134783333Y-112966666D01*
X134750000Y-112966666D01*
X134683333Y-112933333D01*
X134650000Y-112900000D01*
X134616666Y-112833333D01*
X134616666Y-112700000D01*
X134650000Y-112633333D01*
X134683333Y-112600000D01*
X134750000Y-112566666D01*
X134783333Y-112566666D01*
X134850000Y-112600000D01*
X134883333Y-112633333D01*
X134916666Y-112700000D01*
X134916666Y-112833333D01*
X134950000Y-112900000D01*
X134983333Y-112933333D01*
X135050000Y-112966666D01*
X135183333Y-112966666D01*
X135250000Y-112933333D01*
X135283333Y-112900000D01*
X135316666Y-112833333D01*
X135316666Y-112700000D01*
X135283333Y-112633333D01*
X135250000Y-112600000D01*
X135183333Y-112566666D01*
X135050000Y-112566666D01*
X134983333Y-112600000D01*
X134950000Y-112633333D01*
X134916666Y-112700000D01*
%TO.C,C11*%
X150289142Y-117819857D02*
X150336761Y-117867476D01*
X150384380Y-118010333D01*
X150384380Y-118105571D01*
X150336761Y-118248428D01*
X150241523Y-118343666D01*
X150146285Y-118391285D01*
X149955809Y-118438904D01*
X149812952Y-118438904D01*
X149622476Y-118391285D01*
X149527238Y-118343666D01*
X149432000Y-118248428D01*
X149384380Y-118105571D01*
X149384380Y-118010333D01*
X149432000Y-117867476D01*
X149479619Y-117819857D01*
X150384380Y-116867476D02*
X150384380Y-117438904D01*
X150384380Y-117153190D02*
X149384380Y-117153190D01*
X149527238Y-117248428D01*
X149622476Y-117343666D01*
X149670095Y-117438904D01*
X150384380Y-115915095D02*
X150384380Y-116486523D01*
X150384380Y-116200809D02*
X149384380Y-116200809D01*
X149527238Y-116296047D01*
X149622476Y-116391285D01*
X149670095Y-116486523D01*
%TO.C,C15*%
X179617142Y-112822857D02*
X179664761Y-112870476D01*
X179712380Y-113013333D01*
X179712380Y-113108571D01*
X179664761Y-113251428D01*
X179569523Y-113346666D01*
X179474285Y-113394285D01*
X179283809Y-113441904D01*
X179140952Y-113441904D01*
X178950476Y-113394285D01*
X178855238Y-113346666D01*
X178760000Y-113251428D01*
X178712380Y-113108571D01*
X178712380Y-113013333D01*
X178760000Y-112870476D01*
X178807619Y-112822857D01*
X179712380Y-111870476D02*
X179712380Y-112441904D01*
X179712380Y-112156190D02*
X178712380Y-112156190D01*
X178855238Y-112251428D01*
X178950476Y-112346666D01*
X178998095Y-112441904D01*
X178712380Y-110965714D02*
X178712380Y-111441904D01*
X179188571Y-111489523D01*
X179140952Y-111441904D01*
X179093333Y-111346666D01*
X179093333Y-111108571D01*
X179140952Y-111013333D01*
X179188571Y-110965714D01*
X179283809Y-110918095D01*
X179521904Y-110918095D01*
X179617142Y-110965714D01*
X179664761Y-111013333D01*
X179712380Y-111108571D01*
X179712380Y-111346666D01*
X179664761Y-111441904D01*
X179617142Y-111489523D01*
%TO.C,C23*%
X123492730Y-116612682D02*
X123459396Y-116646015D01*
X123359396Y-116679348D01*
X123292730Y-116679348D01*
X123192730Y-116646015D01*
X123126063Y-116579348D01*
X123092730Y-116512682D01*
X123059396Y-116379348D01*
X123059396Y-116279348D01*
X123092730Y-116146015D01*
X123126063Y-116079348D01*
X123192730Y-116012682D01*
X123292730Y-115979348D01*
X123359396Y-115979348D01*
X123459396Y-116012682D01*
X123492730Y-116046015D01*
X123759396Y-116046015D02*
X123792730Y-116012682D01*
X123859396Y-115979348D01*
X124026063Y-115979348D01*
X124092730Y-116012682D01*
X124126063Y-116046015D01*
X124159396Y-116112682D01*
X124159396Y-116179348D01*
X124126063Y-116279348D01*
X123726063Y-116679348D01*
X124159396Y-116679348D01*
X124392730Y-115979348D02*
X124826063Y-115979348D01*
X124592730Y-116246015D01*
X124692730Y-116246015D01*
X124759396Y-116279348D01*
X124792730Y-116312682D01*
X124826063Y-116379348D01*
X124826063Y-116546015D01*
X124792730Y-116612682D01*
X124759396Y-116646015D01*
X124692730Y-116679348D01*
X124492730Y-116679348D01*
X124426063Y-116646015D01*
X124392730Y-116612682D01*
%TO.C,C38*%
X127768000Y-111150000D02*
X127801333Y-111183333D01*
X127834666Y-111283333D01*
X127834666Y-111350000D01*
X127801333Y-111450000D01*
X127734666Y-111516666D01*
X127668000Y-111550000D01*
X127534666Y-111583333D01*
X127434666Y-111583333D01*
X127301333Y-111550000D01*
X127234666Y-111516666D01*
X127168000Y-111450000D01*
X127134666Y-111350000D01*
X127134666Y-111283333D01*
X127168000Y-111183333D01*
X127201333Y-111150000D01*
X127134666Y-110916666D02*
X127134666Y-110483333D01*
X127401333Y-110716666D01*
X127401333Y-110616666D01*
X127434666Y-110550000D01*
X127468000Y-110516666D01*
X127534666Y-110483333D01*
X127701333Y-110483333D01*
X127768000Y-110516666D01*
X127801333Y-110550000D01*
X127834666Y-110616666D01*
X127834666Y-110816666D01*
X127801333Y-110883333D01*
X127768000Y-110916666D01*
X127434666Y-110083333D02*
X127401333Y-110150000D01*
X127368000Y-110183333D01*
X127301333Y-110216666D01*
X127268000Y-110216666D01*
X127201333Y-110183333D01*
X127168000Y-110150000D01*
X127134666Y-110083333D01*
X127134666Y-109950000D01*
X127168000Y-109883333D01*
X127201333Y-109850000D01*
X127268000Y-109816666D01*
X127301333Y-109816666D01*
X127368000Y-109850000D01*
X127401333Y-109883333D01*
X127434666Y-109950000D01*
X127434666Y-110083333D01*
X127468000Y-110150000D01*
X127501333Y-110183333D01*
X127568000Y-110216666D01*
X127701333Y-110216666D01*
X127768000Y-110183333D01*
X127801333Y-110150000D01*
X127834666Y-110083333D01*
X127834666Y-109950000D01*
X127801333Y-109883333D01*
X127768000Y-109850000D01*
X127701333Y-109816666D01*
X127568000Y-109816666D01*
X127501333Y-109850000D01*
X127468000Y-109883333D01*
X127434666Y-109950000D01*
%TO.C,R15*%
X120452380Y-110242857D02*
X119976190Y-110576190D01*
X120452380Y-110814285D02*
X119452380Y-110814285D01*
X119452380Y-110433333D01*
X119500000Y-110338095D01*
X119547619Y-110290476D01*
X119642857Y-110242857D01*
X119785714Y-110242857D01*
X119880952Y-110290476D01*
X119928571Y-110338095D01*
X119976190Y-110433333D01*
X119976190Y-110814285D01*
X120452380Y-109290476D02*
X120452380Y-109861904D01*
X120452380Y-109576190D02*
X119452380Y-109576190D01*
X119595238Y-109671428D01*
X119690476Y-109766666D01*
X119738095Y-109861904D01*
X119452380Y-108385714D02*
X119452380Y-108861904D01*
X119928571Y-108909523D01*
X119880952Y-108861904D01*
X119833333Y-108766666D01*
X119833333Y-108528571D01*
X119880952Y-108433333D01*
X119928571Y-108385714D01*
X120023809Y-108338095D01*
X120261904Y-108338095D01*
X120357142Y-108385714D01*
X120404761Y-108433333D01*
X120452380Y-108528571D01*
X120452380Y-108766666D01*
X120404761Y-108861904D01*
X120357142Y-108909523D01*
%TO.C,R54*%
X178087142Y-96902380D02*
X177753809Y-96426190D01*
X177515714Y-96902380D02*
X177515714Y-95902380D01*
X177896666Y-95902380D01*
X177991904Y-95950000D01*
X178039523Y-95997619D01*
X178087142Y-96092857D01*
X178087142Y-96235714D01*
X178039523Y-96330952D01*
X177991904Y-96378571D01*
X177896666Y-96426190D01*
X177515714Y-96426190D01*
X178991904Y-95902380D02*
X178515714Y-95902380D01*
X178468095Y-96378571D01*
X178515714Y-96330952D01*
X178610952Y-96283333D01*
X178849047Y-96283333D01*
X178944285Y-96330952D01*
X178991904Y-96378571D01*
X179039523Y-96473809D01*
X179039523Y-96711904D01*
X178991904Y-96807142D01*
X178944285Y-96854761D01*
X178849047Y-96902380D01*
X178610952Y-96902380D01*
X178515714Y-96854761D01*
X178468095Y-96807142D01*
X179896666Y-96235714D02*
X179896666Y-96902380D01*
X179658571Y-95854761D02*
X179420476Y-96569047D01*
X180039523Y-96569047D01*
%TO.C,R26*%
X133066666Y-89230000D02*
X132733333Y-89463333D01*
X133066666Y-89630000D02*
X132366666Y-89630000D01*
X132366666Y-89363333D01*
X132400000Y-89296666D01*
X132433333Y-89263333D01*
X132500000Y-89230000D01*
X132600000Y-89230000D01*
X132666666Y-89263333D01*
X132700000Y-89296666D01*
X132733333Y-89363333D01*
X132733333Y-89630000D01*
X132433333Y-88963333D02*
X132400000Y-88930000D01*
X132366666Y-88863333D01*
X132366666Y-88696666D01*
X132400000Y-88630000D01*
X132433333Y-88596666D01*
X132500000Y-88563333D01*
X132566666Y-88563333D01*
X132666666Y-88596666D01*
X133066666Y-88996666D01*
X133066666Y-88563333D01*
X132366666Y-87963333D02*
X132366666Y-88096666D01*
X132400000Y-88163333D01*
X132433333Y-88196666D01*
X132533333Y-88263333D01*
X132666666Y-88296666D01*
X132933333Y-88296666D01*
X133000000Y-88263333D01*
X133033333Y-88230000D01*
X133066666Y-88163333D01*
X133066666Y-88030000D01*
X133033333Y-87963333D01*
X133000000Y-87930000D01*
X132933333Y-87896666D01*
X132766666Y-87896666D01*
X132700000Y-87930000D01*
X132666666Y-87963333D01*
X132633333Y-88030000D01*
X132633333Y-88163333D01*
X132666666Y-88230000D01*
X132700000Y-88263333D01*
X132766666Y-88296666D01*
%TO.C,D1*%
X192077380Y-127763095D02*
X191077380Y-127763095D01*
X191077380Y-127525000D01*
X191125000Y-127382142D01*
X191220238Y-127286904D01*
X191315476Y-127239285D01*
X191505952Y-127191666D01*
X191648809Y-127191666D01*
X191839285Y-127239285D01*
X191934523Y-127286904D01*
X192029761Y-127382142D01*
X192077380Y-127525000D01*
X192077380Y-127763095D01*
X192077380Y-126239285D02*
X192077380Y-126810714D01*
X192077380Y-126525000D02*
X191077380Y-126525000D01*
X191220238Y-126620238D01*
X191315476Y-126715476D01*
X191363095Y-126810714D01*
%TO.C,C8*%
X173083333Y-98997142D02*
X173035714Y-99044761D01*
X172892857Y-99092380D01*
X172797619Y-99092380D01*
X172654761Y-99044761D01*
X172559523Y-98949523D01*
X172511904Y-98854285D01*
X172464285Y-98663809D01*
X172464285Y-98520952D01*
X172511904Y-98330476D01*
X172559523Y-98235238D01*
X172654761Y-98140000D01*
X172797619Y-98092380D01*
X172892857Y-98092380D01*
X173035714Y-98140000D01*
X173083333Y-98187619D01*
X173654761Y-98520952D02*
X173559523Y-98473333D01*
X173511904Y-98425714D01*
X173464285Y-98330476D01*
X173464285Y-98282857D01*
X173511904Y-98187619D01*
X173559523Y-98140000D01*
X173654761Y-98092380D01*
X173845238Y-98092380D01*
X173940476Y-98140000D01*
X173988095Y-98187619D01*
X174035714Y-98282857D01*
X174035714Y-98330476D01*
X173988095Y-98425714D01*
X173940476Y-98473333D01*
X173845238Y-98520952D01*
X173654761Y-98520952D01*
X173559523Y-98568571D01*
X173511904Y-98616190D01*
X173464285Y-98711428D01*
X173464285Y-98901904D01*
X173511904Y-98997142D01*
X173559523Y-99044761D01*
X173654761Y-99092380D01*
X173845238Y-99092380D01*
X173940476Y-99044761D01*
X173988095Y-98997142D01*
X174035714Y-98901904D01*
X174035714Y-98711428D01*
X173988095Y-98616190D01*
X173940476Y-98568571D01*
X173845238Y-98520952D01*
%TO.C,U12*%
X127983333Y-105316666D02*
X127983333Y-105883333D01*
X128016666Y-105950000D01*
X128050000Y-105983333D01*
X128116666Y-106016666D01*
X128250000Y-106016666D01*
X128316666Y-105983333D01*
X128350000Y-105950000D01*
X128383333Y-105883333D01*
X128383333Y-105316666D01*
X129083333Y-106016666D02*
X128683333Y-106016666D01*
X128883333Y-106016666D02*
X128883333Y-105316666D01*
X128816666Y-105416666D01*
X128750000Y-105483333D01*
X128683333Y-105516666D01*
X129350000Y-105383333D02*
X129383333Y-105350000D01*
X129450000Y-105316666D01*
X129616666Y-105316666D01*
X129683333Y-105350000D01*
X129716666Y-105383333D01*
X129750000Y-105450000D01*
X129750000Y-105516666D01*
X129716666Y-105616666D01*
X129316666Y-106016666D01*
X129750000Y-106016666D01*
%TO.C,R23*%
X137982142Y-135727380D02*
X137648809Y-135251190D01*
X137410714Y-135727380D02*
X137410714Y-134727380D01*
X137791666Y-134727380D01*
X137886904Y-134775000D01*
X137934523Y-134822619D01*
X137982142Y-134917857D01*
X137982142Y-135060714D01*
X137934523Y-135155952D01*
X137886904Y-135203571D01*
X137791666Y-135251190D01*
X137410714Y-135251190D01*
X138363095Y-134822619D02*
X138410714Y-134775000D01*
X138505952Y-134727380D01*
X138744047Y-134727380D01*
X138839285Y-134775000D01*
X138886904Y-134822619D01*
X138934523Y-134917857D01*
X138934523Y-135013095D01*
X138886904Y-135155952D01*
X138315476Y-135727380D01*
X138934523Y-135727380D01*
X139267857Y-134727380D02*
X139886904Y-134727380D01*
X139553571Y-135108333D01*
X139696428Y-135108333D01*
X139791666Y-135155952D01*
X139839285Y-135203571D01*
X139886904Y-135298809D01*
X139886904Y-135536904D01*
X139839285Y-135632142D01*
X139791666Y-135679761D01*
X139696428Y-135727380D01*
X139410714Y-135727380D01*
X139315476Y-135679761D01*
X139267857Y-135632142D01*
%TO.C,Z1*%
X113240476Y-102352380D02*
X113907142Y-102352380D01*
X113240476Y-103352380D01*
X113907142Y-103352380D01*
X114811904Y-103352380D02*
X114240476Y-103352380D01*
X114526190Y-103352380D02*
X114526190Y-102352380D01*
X114430952Y-102495238D01*
X114335714Y-102590476D01*
X114240476Y-102638095D01*
%TO.C,L4*%
X133302380Y-100016666D02*
X133302380Y-100492857D01*
X132302380Y-100492857D01*
X132635714Y-99254761D02*
X133302380Y-99254761D01*
X132254761Y-99492857D02*
X132969047Y-99730952D01*
X132969047Y-99111904D01*
%TO.C,C18*%
X133307142Y-91057142D02*
X133259523Y-91104761D01*
X133116666Y-91152380D01*
X133021428Y-91152380D01*
X132878571Y-91104761D01*
X132783333Y-91009523D01*
X132735714Y-90914285D01*
X132688095Y-90723809D01*
X132688095Y-90580952D01*
X132735714Y-90390476D01*
X132783333Y-90295238D01*
X132878571Y-90200000D01*
X133021428Y-90152380D01*
X133116666Y-90152380D01*
X133259523Y-90200000D01*
X133307142Y-90247619D01*
X134259523Y-91152380D02*
X133688095Y-91152380D01*
X133973809Y-91152380D02*
X133973809Y-90152380D01*
X133878571Y-90295238D01*
X133783333Y-90390476D01*
X133688095Y-90438095D01*
X134830952Y-90580952D02*
X134735714Y-90533333D01*
X134688095Y-90485714D01*
X134640476Y-90390476D01*
X134640476Y-90342857D01*
X134688095Y-90247619D01*
X134735714Y-90200000D01*
X134830952Y-90152380D01*
X135021428Y-90152380D01*
X135116666Y-90200000D01*
X135164285Y-90247619D01*
X135211904Y-90342857D01*
X135211904Y-90390476D01*
X135164285Y-90485714D01*
X135116666Y-90533333D01*
X135021428Y-90580952D01*
X134830952Y-90580952D01*
X134735714Y-90628571D01*
X134688095Y-90676190D01*
X134640476Y-90771428D01*
X134640476Y-90961904D01*
X134688095Y-91057142D01*
X134735714Y-91104761D01*
X134830952Y-91152380D01*
X135021428Y-91152380D01*
X135116666Y-91104761D01*
X135164285Y-91057142D01*
X135211904Y-90961904D01*
X135211904Y-90771428D01*
X135164285Y-90676190D01*
X135116666Y-90628571D01*
X135021428Y-90580952D01*
%TO.C,R38*%
X187932142Y-99052380D02*
X187598809Y-98576190D01*
X187360714Y-99052380D02*
X187360714Y-98052380D01*
X187741666Y-98052380D01*
X187836904Y-98100000D01*
X187884523Y-98147619D01*
X187932142Y-98242857D01*
X187932142Y-98385714D01*
X187884523Y-98480952D01*
X187836904Y-98528571D01*
X187741666Y-98576190D01*
X187360714Y-98576190D01*
X188265476Y-98052380D02*
X188884523Y-98052380D01*
X188551190Y-98433333D01*
X188694047Y-98433333D01*
X188789285Y-98480952D01*
X188836904Y-98528571D01*
X188884523Y-98623809D01*
X188884523Y-98861904D01*
X188836904Y-98957142D01*
X188789285Y-99004761D01*
X188694047Y-99052380D01*
X188408333Y-99052380D01*
X188313095Y-99004761D01*
X188265476Y-98957142D01*
X189455952Y-98480952D02*
X189360714Y-98433333D01*
X189313095Y-98385714D01*
X189265476Y-98290476D01*
X189265476Y-98242857D01*
X189313095Y-98147619D01*
X189360714Y-98100000D01*
X189455952Y-98052380D01*
X189646428Y-98052380D01*
X189741666Y-98100000D01*
X189789285Y-98147619D01*
X189836904Y-98242857D01*
X189836904Y-98290476D01*
X189789285Y-98385714D01*
X189741666Y-98433333D01*
X189646428Y-98480952D01*
X189455952Y-98480952D01*
X189360714Y-98528571D01*
X189313095Y-98576190D01*
X189265476Y-98671428D01*
X189265476Y-98861904D01*
X189313095Y-98957142D01*
X189360714Y-99004761D01*
X189455952Y-99052380D01*
X189646428Y-99052380D01*
X189741666Y-99004761D01*
X189789285Y-98957142D01*
X189836904Y-98861904D01*
X189836904Y-98671428D01*
X189789285Y-98576190D01*
X189741666Y-98528571D01*
X189646428Y-98480952D01*
%TO.C,D20*%
X154411251Y-132478511D02*
X153704145Y-131771404D01*
X153872503Y-131603045D01*
X154007190Y-131535702D01*
X154141877Y-131535702D01*
X154242893Y-131569374D01*
X154411251Y-131670389D01*
X154512267Y-131771404D01*
X154613282Y-131939763D01*
X154646954Y-132040778D01*
X154646954Y-132175465D01*
X154579610Y-132310152D01*
X154411251Y-132478511D01*
X154444923Y-131165312D02*
X154444923Y-131097969D01*
X154478595Y-130996954D01*
X154646954Y-130828595D01*
X154747969Y-130794923D01*
X154815312Y-130794923D01*
X154916328Y-130828595D01*
X154983671Y-130895938D01*
X155051015Y-131030625D01*
X155051015Y-131838748D01*
X155488748Y-131401015D01*
X155219374Y-130256175D02*
X155286717Y-130188832D01*
X155387732Y-130155160D01*
X155455076Y-130155160D01*
X155556091Y-130188832D01*
X155724450Y-130289847D01*
X155892809Y-130458206D01*
X155993824Y-130626564D01*
X156027496Y-130727580D01*
X156027496Y-130794923D01*
X155993824Y-130895938D01*
X155926480Y-130963282D01*
X155825465Y-130996954D01*
X155758122Y-130996954D01*
X155657106Y-130963282D01*
X155488748Y-130862267D01*
X155320389Y-130693908D01*
X155219374Y-130525549D01*
X155185702Y-130424534D01*
X155185702Y-130357190D01*
X155219374Y-130256175D01*
%TO.C,C37*%
X124850000Y-104875000D02*
X124816666Y-104908333D01*
X124716666Y-104941666D01*
X124650000Y-104941666D01*
X124550000Y-104908333D01*
X124483333Y-104841666D01*
X124450000Y-104775000D01*
X124416666Y-104641666D01*
X124416666Y-104541666D01*
X124450000Y-104408333D01*
X124483333Y-104341666D01*
X124550000Y-104275000D01*
X124650000Y-104241666D01*
X124716666Y-104241666D01*
X124816666Y-104275000D01*
X124850000Y-104308333D01*
X125083333Y-104241666D02*
X125516666Y-104241666D01*
X125283333Y-104508333D01*
X125383333Y-104508333D01*
X125450000Y-104541666D01*
X125483333Y-104575000D01*
X125516666Y-104641666D01*
X125516666Y-104808333D01*
X125483333Y-104875000D01*
X125450000Y-104908333D01*
X125383333Y-104941666D01*
X125183333Y-104941666D01*
X125116666Y-104908333D01*
X125083333Y-104875000D01*
X125750000Y-104241666D02*
X126216666Y-104241666D01*
X125916666Y-104941666D01*
%TO.C,L2*%
X134852380Y-128510433D02*
X134852380Y-128986624D01*
X133852380Y-128986624D01*
X133947619Y-128224719D02*
X133900000Y-128177100D01*
X133852380Y-128081862D01*
X133852380Y-127843767D01*
X133900000Y-127748528D01*
X133947619Y-127700909D01*
X134042857Y-127653290D01*
X134138095Y-127653290D01*
X134280952Y-127700909D01*
X134852380Y-128272338D01*
X134852380Y-127653290D01*
%TO.C,R53*%
X164750000Y-128016666D02*
X164516666Y-127683333D01*
X164350000Y-128016666D02*
X164350000Y-127316666D01*
X164616666Y-127316666D01*
X164683333Y-127350000D01*
X164716666Y-127383333D01*
X164750000Y-127450000D01*
X164750000Y-127550000D01*
X164716666Y-127616666D01*
X164683333Y-127650000D01*
X164616666Y-127683333D01*
X164350000Y-127683333D01*
X165383333Y-127316666D02*
X165050000Y-127316666D01*
X165016666Y-127650000D01*
X165050000Y-127616666D01*
X165116666Y-127583333D01*
X165283333Y-127583333D01*
X165350000Y-127616666D01*
X165383333Y-127650000D01*
X165416666Y-127716666D01*
X165416666Y-127883333D01*
X165383333Y-127950000D01*
X165350000Y-127983333D01*
X165283333Y-128016666D01*
X165116666Y-128016666D01*
X165050000Y-127983333D01*
X165016666Y-127950000D01*
X165650000Y-127316666D02*
X166083333Y-127316666D01*
X165850000Y-127583333D01*
X165950000Y-127583333D01*
X166016666Y-127616666D01*
X166050000Y-127650000D01*
X166083333Y-127716666D01*
X166083333Y-127883333D01*
X166050000Y-127950000D01*
X166016666Y-127983333D01*
X165950000Y-128016666D01*
X165750000Y-128016666D01*
X165683333Y-127983333D01*
X165650000Y-127950000D01*
%TO.C,FB1*%
X140028571Y-94183333D02*
X140028571Y-94516666D01*
X140552380Y-94516666D02*
X139552380Y-94516666D01*
X139552380Y-94040476D01*
X140028571Y-93326190D02*
X140076190Y-93183333D01*
X140123809Y-93135714D01*
X140219047Y-93088095D01*
X140361904Y-93088095D01*
X140457142Y-93135714D01*
X140504761Y-93183333D01*
X140552380Y-93278571D01*
X140552380Y-93659523D01*
X139552380Y-93659523D01*
X139552380Y-93326190D01*
X139600000Y-93230952D01*
X139647619Y-93183333D01*
X139742857Y-93135714D01*
X139838095Y-93135714D01*
X139933333Y-93183333D01*
X139980952Y-93230952D01*
X140028571Y-93326190D01*
X140028571Y-93659523D01*
X140552380Y-92135714D02*
X140552380Y-92707142D01*
X140552380Y-92421428D02*
X139552380Y-92421428D01*
X139695238Y-92516666D01*
X139790476Y-92611904D01*
X139838095Y-92707142D01*
%TO.C,Y1*%
X159338309Y-138053190D02*
X159338309Y-138529380D01*
X159004976Y-137529380D02*
X159338309Y-138053190D01*
X159671642Y-137529380D01*
X160528785Y-138529380D02*
X159957357Y-138529380D01*
X160243071Y-138529380D02*
X160243071Y-137529380D01*
X160147833Y-137672238D01*
X160052595Y-137767476D01*
X159957357Y-137815095D01*
%TO.C,FID1*%
X103338571Y-134858571D02*
X103005238Y-134858571D01*
X103005238Y-135382380D02*
X103005238Y-134382380D01*
X103481428Y-134382380D01*
X103862380Y-135382380D02*
X103862380Y-134382380D01*
X104338571Y-135382380D02*
X104338571Y-134382380D01*
X104576666Y-134382380D01*
X104719523Y-134430000D01*
X104814761Y-134525238D01*
X104862380Y-134620476D01*
X104910000Y-134810952D01*
X104910000Y-134953809D01*
X104862380Y-135144285D01*
X104814761Y-135239523D01*
X104719523Y-135334761D01*
X104576666Y-135382380D01*
X104338571Y-135382380D01*
X105862380Y-135382380D02*
X105290952Y-135382380D01*
X105576666Y-135382380D02*
X105576666Y-134382380D01*
X105481428Y-134525238D01*
X105386190Y-134620476D01*
X105290952Y-134668095D01*
%TO.C,Q1*%
X147299261Y-104024619D02*
X147204023Y-103977000D01*
X147108785Y-103881761D01*
X146965928Y-103738904D01*
X146870690Y-103691285D01*
X146775452Y-103691285D01*
X146823071Y-103929380D02*
X146727833Y-103881761D01*
X146632595Y-103786523D01*
X146584976Y-103596047D01*
X146584976Y-103262714D01*
X146632595Y-103072238D01*
X146727833Y-102977000D01*
X146823071Y-102929380D01*
X147013547Y-102929380D01*
X147108785Y-102977000D01*
X147204023Y-103072238D01*
X147251642Y-103262714D01*
X147251642Y-103596047D01*
X147204023Y-103786523D01*
X147108785Y-103881761D01*
X147013547Y-103929380D01*
X146823071Y-103929380D01*
X148204023Y-103929380D02*
X147632595Y-103929380D01*
X147918309Y-103929380D02*
X147918309Y-102929380D01*
X147823071Y-103072238D01*
X147727833Y-103167476D01*
X147632595Y-103215095D01*
%TO.C,D14*%
X179932380Y-90694285D02*
X178932380Y-90694285D01*
X178932380Y-90456190D01*
X178980000Y-90313333D01*
X179075238Y-90218095D01*
X179170476Y-90170476D01*
X179360952Y-90122857D01*
X179503809Y-90122857D01*
X179694285Y-90170476D01*
X179789523Y-90218095D01*
X179884761Y-90313333D01*
X179932380Y-90456190D01*
X179932380Y-90694285D01*
X179932380Y-89170476D02*
X179932380Y-89741904D01*
X179932380Y-89456190D02*
X178932380Y-89456190D01*
X179075238Y-89551428D01*
X179170476Y-89646666D01*
X179218095Y-89741904D01*
X179265714Y-88313333D02*
X179932380Y-88313333D01*
X178884761Y-88551428D02*
X179599047Y-88789523D01*
X179599047Y-88170476D01*
%TO.C,C56*%
X145157106Y-143152030D02*
X145224450Y-143152030D01*
X145359137Y-143219374D01*
X145426480Y-143286717D01*
X145493824Y-143421404D01*
X145493824Y-143556091D01*
X145460152Y-143657106D01*
X145359137Y-143825465D01*
X145258122Y-143926480D01*
X145089763Y-144027496D01*
X144988748Y-144061167D01*
X144854061Y-144061167D01*
X144719374Y-143993824D01*
X144652030Y-143926480D01*
X144584687Y-143791793D01*
X144584687Y-143724450D01*
X143877580Y-143152030D02*
X144214297Y-143488748D01*
X144584687Y-143185702D01*
X144517343Y-143185702D01*
X144416328Y-143152030D01*
X144247969Y-142983671D01*
X144214297Y-142882656D01*
X144214297Y-142815312D01*
X144247969Y-142714297D01*
X144416328Y-142545938D01*
X144517343Y-142512267D01*
X144584687Y-142512267D01*
X144685702Y-142545938D01*
X144854061Y-142714297D01*
X144887732Y-142815312D01*
X144887732Y-142882656D01*
X143237816Y-142512267D02*
X143372503Y-142646954D01*
X143473519Y-142680625D01*
X143540862Y-142680625D01*
X143709221Y-142646954D01*
X143877580Y-142545938D01*
X144146954Y-142276564D01*
X144180625Y-142175549D01*
X144180625Y-142108206D01*
X144146954Y-142007190D01*
X144012267Y-141872503D01*
X143911251Y-141838832D01*
X143843908Y-141838832D01*
X143742893Y-141872503D01*
X143574534Y-142040862D01*
X143540862Y-142141877D01*
X143540862Y-142209221D01*
X143574534Y-142310236D01*
X143709221Y-142444923D01*
X143810236Y-142478595D01*
X143877580Y-142478595D01*
X143978595Y-142444923D01*
%TO.C,H1*%
X107468095Y-143202380D02*
X107468095Y-142202380D01*
X107468095Y-142678571D02*
X108039523Y-142678571D01*
X108039523Y-143202380D02*
X108039523Y-142202380D01*
X109039523Y-143202380D02*
X108468095Y-143202380D01*
X108753809Y-143202380D02*
X108753809Y-142202380D01*
X108658571Y-142345238D01*
X108563333Y-142440476D01*
X108468095Y-142488095D01*
%TO.C,R24*%
X132100000Y-138954183D02*
X131866666Y-138620850D01*
X131700000Y-138954183D02*
X131700000Y-138254183D01*
X131966666Y-138254183D01*
X132033333Y-138287517D01*
X132066666Y-138320850D01*
X132100000Y-138387517D01*
X132100000Y-138487517D01*
X132066666Y-138554183D01*
X132033333Y-138587517D01*
X131966666Y-138620850D01*
X131700000Y-138620850D01*
X132366666Y-138320850D02*
X132400000Y-138287517D01*
X132466666Y-138254183D01*
X132633333Y-138254183D01*
X132700000Y-138287517D01*
X132733333Y-138320850D01*
X132766666Y-138387517D01*
X132766666Y-138454183D01*
X132733333Y-138554183D01*
X132333333Y-138954183D01*
X132766666Y-138954183D01*
X133366666Y-138487517D02*
X133366666Y-138954183D01*
X133200000Y-138220850D02*
X133033333Y-138720850D01*
X133466666Y-138720850D01*
%TO.C,C41*%
X173390000Y-132630000D02*
X173356666Y-132663333D01*
X173256666Y-132696666D01*
X173190000Y-132696666D01*
X173090000Y-132663333D01*
X173023333Y-132596666D01*
X172990000Y-132530000D01*
X172956666Y-132396666D01*
X172956666Y-132296666D01*
X172990000Y-132163333D01*
X173023333Y-132096666D01*
X173090000Y-132030000D01*
X173190000Y-131996666D01*
X173256666Y-131996666D01*
X173356666Y-132030000D01*
X173390000Y-132063333D01*
X173990000Y-132230000D02*
X173990000Y-132696666D01*
X173823333Y-131963333D02*
X173656666Y-132463333D01*
X174090000Y-132463333D01*
X174723333Y-132696666D02*
X174323333Y-132696666D01*
X174523333Y-132696666D02*
X174523333Y-131996666D01*
X174456666Y-132096666D01*
X174390000Y-132163333D01*
X174323333Y-132196666D01*
%TO.C,R5*%
X144840333Y-116499380D02*
X144507000Y-116023190D01*
X144268904Y-116499380D02*
X144268904Y-115499380D01*
X144649857Y-115499380D01*
X144745095Y-115547000D01*
X144792714Y-115594619D01*
X144840333Y-115689857D01*
X144840333Y-115832714D01*
X144792714Y-115927952D01*
X144745095Y-115975571D01*
X144649857Y-116023190D01*
X144268904Y-116023190D01*
X145745095Y-115499380D02*
X145268904Y-115499380D01*
X145221285Y-115975571D01*
X145268904Y-115927952D01*
X145364142Y-115880333D01*
X145602238Y-115880333D01*
X145697476Y-115927952D01*
X145745095Y-115975571D01*
X145792714Y-116070809D01*
X145792714Y-116308904D01*
X145745095Y-116404142D01*
X145697476Y-116451761D01*
X145602238Y-116499380D01*
X145364142Y-116499380D01*
X145268904Y-116451761D01*
X145221285Y-116404142D01*
%TO.C,D2*%
X140552380Y-103538095D02*
X139552380Y-103538095D01*
X139552380Y-103300000D01*
X139600000Y-103157142D01*
X139695238Y-103061904D01*
X139790476Y-103014285D01*
X139980952Y-102966666D01*
X140123809Y-102966666D01*
X140314285Y-103014285D01*
X140409523Y-103061904D01*
X140504761Y-103157142D01*
X140552380Y-103300000D01*
X140552380Y-103538095D01*
X139647619Y-102585714D02*
X139600000Y-102538095D01*
X139552380Y-102442857D01*
X139552380Y-102204761D01*
X139600000Y-102109523D01*
X139647619Y-102061904D01*
X139742857Y-102014285D01*
X139838095Y-102014285D01*
X139980952Y-102061904D01*
X140552380Y-102633333D01*
X140552380Y-102014285D01*
%TO.C,TH1*%
X108702380Y-89615714D02*
X108702380Y-89044285D01*
X109702380Y-89330000D02*
X108702380Y-89330000D01*
X109702380Y-88710952D02*
X108702380Y-88710952D01*
X109178571Y-88710952D02*
X109178571Y-88139523D01*
X109702380Y-88139523D02*
X108702380Y-88139523D01*
X109702380Y-87139523D02*
X109702380Y-87710952D01*
X109702380Y-87425238D02*
X108702380Y-87425238D01*
X108845238Y-87520476D01*
X108940476Y-87615714D01*
X108988095Y-87710952D01*
%TO.C,R31*%
X115032380Y-132712857D02*
X114556190Y-133046190D01*
X115032380Y-133284285D02*
X114032380Y-133284285D01*
X114032380Y-132903333D01*
X114080000Y-132808095D01*
X114127619Y-132760476D01*
X114222857Y-132712857D01*
X114365714Y-132712857D01*
X114460952Y-132760476D01*
X114508571Y-132808095D01*
X114556190Y-132903333D01*
X114556190Y-133284285D01*
X114032380Y-132379523D02*
X114032380Y-131760476D01*
X114413333Y-132093809D01*
X114413333Y-131950952D01*
X114460952Y-131855714D01*
X114508571Y-131808095D01*
X114603809Y-131760476D01*
X114841904Y-131760476D01*
X114937142Y-131808095D01*
X114984761Y-131855714D01*
X115032380Y-131950952D01*
X115032380Y-132236666D01*
X114984761Y-132331904D01*
X114937142Y-132379523D01*
X115032380Y-130808095D02*
X115032380Y-131379523D01*
X115032380Y-131093809D02*
X114032380Y-131093809D01*
X114175238Y-131189047D01*
X114270476Y-131284285D01*
X114318095Y-131379523D01*
%TO.C,U16*%
X160611904Y-129002380D02*
X160611904Y-129811904D01*
X160659523Y-129907142D01*
X160707142Y-129954761D01*
X160802380Y-130002380D01*
X160992857Y-130002380D01*
X161088095Y-129954761D01*
X161135714Y-129907142D01*
X161183333Y-129811904D01*
X161183333Y-129002380D01*
X162183333Y-130002380D02*
X161611904Y-130002380D01*
X161897619Y-130002380D02*
X161897619Y-129002380D01*
X161802380Y-129145238D01*
X161707142Y-129240476D01*
X161611904Y-129288095D01*
X163040476Y-129002380D02*
X162850000Y-129002380D01*
X162754761Y-129050000D01*
X162707142Y-129097619D01*
X162611904Y-129240476D01*
X162564285Y-129430952D01*
X162564285Y-129811904D01*
X162611904Y-129907142D01*
X162659523Y-129954761D01*
X162754761Y-130002380D01*
X162945238Y-130002380D01*
X163040476Y-129954761D01*
X163088095Y-129907142D01*
X163135714Y-129811904D01*
X163135714Y-129573809D01*
X163088095Y-129478571D01*
X163040476Y-129430952D01*
X162945238Y-129383333D01*
X162754761Y-129383333D01*
X162659523Y-129430952D01*
X162611904Y-129478571D01*
X162564285Y-129573809D01*
%TO.C,C51*%
X122550000Y-95350000D02*
X122516666Y-95383333D01*
X122416666Y-95416666D01*
X122350000Y-95416666D01*
X122250000Y-95383333D01*
X122183333Y-95316666D01*
X122150000Y-95250000D01*
X122116666Y-95116666D01*
X122116666Y-95016666D01*
X122150000Y-94883333D01*
X122183333Y-94816666D01*
X122250000Y-94750000D01*
X122350000Y-94716666D01*
X122416666Y-94716666D01*
X122516666Y-94750000D01*
X122550000Y-94783333D01*
X123183333Y-94716666D02*
X122850000Y-94716666D01*
X122816666Y-95050000D01*
X122850000Y-95016666D01*
X122916666Y-94983333D01*
X123083333Y-94983333D01*
X123150000Y-95016666D01*
X123183333Y-95050000D01*
X123216666Y-95116666D01*
X123216666Y-95283333D01*
X123183333Y-95350000D01*
X123150000Y-95383333D01*
X123083333Y-95416666D01*
X122916666Y-95416666D01*
X122850000Y-95383333D01*
X122816666Y-95350000D01*
X123883333Y-95416666D02*
X123483333Y-95416666D01*
X123683333Y-95416666D02*
X123683333Y-94716666D01*
X123616666Y-94816666D01*
X123550000Y-94883333D01*
X123483333Y-94916666D01*
%TO.C,R41*%
X120616666Y-97950000D02*
X120283333Y-98183333D01*
X120616666Y-98350000D02*
X119916666Y-98350000D01*
X119916666Y-98083333D01*
X119950000Y-98016666D01*
X119983333Y-97983333D01*
X120050000Y-97950000D01*
X120150000Y-97950000D01*
X120216666Y-97983333D01*
X120250000Y-98016666D01*
X120283333Y-98083333D01*
X120283333Y-98350000D01*
X120150000Y-97350000D02*
X120616666Y-97350000D01*
X119883333Y-97516666D02*
X120383333Y-97683333D01*
X120383333Y-97250000D01*
X120616666Y-96616666D02*
X120616666Y-97016666D01*
X120616666Y-96816666D02*
X119916666Y-96816666D01*
X120016666Y-96883333D01*
X120083333Y-96950000D01*
X120116666Y-97016666D01*
%TO.C,R19*%
X119800000Y-89541666D02*
X119566666Y-89208333D01*
X119400000Y-89541666D02*
X119400000Y-88841666D01*
X119666666Y-88841666D01*
X119733333Y-88875000D01*
X119766666Y-88908333D01*
X119800000Y-88975000D01*
X119800000Y-89075000D01*
X119766666Y-89141666D01*
X119733333Y-89175000D01*
X119666666Y-89208333D01*
X119400000Y-89208333D01*
X120466666Y-89541666D02*
X120066666Y-89541666D01*
X120266666Y-89541666D02*
X120266666Y-88841666D01*
X120200000Y-88941666D01*
X120133333Y-89008333D01*
X120066666Y-89041666D01*
X120800000Y-89541666D02*
X120933333Y-89541666D01*
X121000000Y-89508333D01*
X121033333Y-89475000D01*
X121100000Y-89375000D01*
X121133333Y-89241666D01*
X121133333Y-88975000D01*
X121100000Y-88908333D01*
X121066666Y-88875000D01*
X121000000Y-88841666D01*
X120866666Y-88841666D01*
X120800000Y-88875000D01*
X120766666Y-88908333D01*
X120733333Y-88975000D01*
X120733333Y-89141666D01*
X120766666Y-89208333D01*
X120800000Y-89241666D01*
X120866666Y-89275000D01*
X121000000Y-89275000D01*
X121066666Y-89241666D01*
X121100000Y-89208333D01*
X121133333Y-89141666D01*
%TO.C,R28*%
X138507142Y-117952380D02*
X138173809Y-117476190D01*
X137935714Y-117952380D02*
X137935714Y-116952380D01*
X138316666Y-116952380D01*
X138411904Y-117000000D01*
X138459523Y-117047619D01*
X138507142Y-117142857D01*
X138507142Y-117285714D01*
X138459523Y-117380952D01*
X138411904Y-117428571D01*
X138316666Y-117476190D01*
X137935714Y-117476190D01*
X138888095Y-117047619D02*
X138935714Y-117000000D01*
X139030952Y-116952380D01*
X139269047Y-116952380D01*
X139364285Y-117000000D01*
X139411904Y-117047619D01*
X139459523Y-117142857D01*
X139459523Y-117238095D01*
X139411904Y-117380952D01*
X138840476Y-117952380D01*
X139459523Y-117952380D01*
X140030952Y-117380952D02*
X139935714Y-117333333D01*
X139888095Y-117285714D01*
X139840476Y-117190476D01*
X139840476Y-117142857D01*
X139888095Y-117047619D01*
X139935714Y-117000000D01*
X140030952Y-116952380D01*
X140221428Y-116952380D01*
X140316666Y-117000000D01*
X140364285Y-117047619D01*
X140411904Y-117142857D01*
X140411904Y-117190476D01*
X140364285Y-117285714D01*
X140316666Y-117333333D01*
X140221428Y-117380952D01*
X140030952Y-117380952D01*
X139935714Y-117428571D01*
X139888095Y-117476190D01*
X139840476Y-117571428D01*
X139840476Y-117761904D01*
X139888095Y-117857142D01*
X139935714Y-117904761D01*
X140030952Y-117952380D01*
X140221428Y-117952380D01*
X140316666Y-117904761D01*
X140364285Y-117857142D01*
X140411904Y-117761904D01*
X140411904Y-117571428D01*
X140364285Y-117476190D01*
X140316666Y-117428571D01*
X140221428Y-117380952D01*
%TO.C,F2*%
X108458571Y-92783333D02*
X108458571Y-93116666D01*
X108982380Y-93116666D02*
X107982380Y-93116666D01*
X107982380Y-92640476D01*
X108077619Y-92307142D02*
X108030000Y-92259523D01*
X107982380Y-92164285D01*
X107982380Y-91926190D01*
X108030000Y-91830952D01*
X108077619Y-91783333D01*
X108172857Y-91735714D01*
X108268095Y-91735714D01*
X108410952Y-91783333D01*
X108982380Y-92354761D01*
X108982380Y-91735714D01*
%TO.C,C10*%
X167307142Y-95907142D02*
X167259523Y-95954761D01*
X167116666Y-96002380D01*
X167021428Y-96002380D01*
X166878571Y-95954761D01*
X166783333Y-95859523D01*
X166735714Y-95764285D01*
X166688095Y-95573809D01*
X166688095Y-95430952D01*
X166735714Y-95240476D01*
X166783333Y-95145238D01*
X166878571Y-95050000D01*
X167021428Y-95002380D01*
X167116666Y-95002380D01*
X167259523Y-95050000D01*
X167307142Y-95097619D01*
X168259523Y-96002380D02*
X167688095Y-96002380D01*
X167973809Y-96002380D02*
X167973809Y-95002380D01*
X167878571Y-95145238D01*
X167783333Y-95240476D01*
X167688095Y-95288095D01*
X168878571Y-95002380D02*
X168973809Y-95002380D01*
X169069047Y-95050000D01*
X169116666Y-95097619D01*
X169164285Y-95192857D01*
X169211904Y-95383333D01*
X169211904Y-95621428D01*
X169164285Y-95811904D01*
X169116666Y-95907142D01*
X169069047Y-95954761D01*
X168973809Y-96002380D01*
X168878571Y-96002380D01*
X168783333Y-95954761D01*
X168735714Y-95907142D01*
X168688095Y-95811904D01*
X168640476Y-95621428D01*
X168640476Y-95383333D01*
X168688095Y-95192857D01*
X168735714Y-95097619D01*
X168783333Y-95050000D01*
X168878571Y-95002380D01*
%TO.C,U17*%
X177051904Y-129642380D02*
X177051904Y-130451904D01*
X177099523Y-130547142D01*
X177147142Y-130594761D01*
X177242380Y-130642380D01*
X177432857Y-130642380D01*
X177528095Y-130594761D01*
X177575714Y-130547142D01*
X177623333Y-130451904D01*
X177623333Y-129642380D01*
X178623333Y-130642380D02*
X178051904Y-130642380D01*
X178337619Y-130642380D02*
X178337619Y-129642380D01*
X178242380Y-129785238D01*
X178147142Y-129880476D01*
X178051904Y-129928095D01*
X178956666Y-129642380D02*
X179623333Y-129642380D01*
X179194761Y-130642380D01*
%TO.C,R55*%
X141657142Y-110332380D02*
X141323809Y-109856190D01*
X141085714Y-110332380D02*
X141085714Y-109332380D01*
X141466666Y-109332380D01*
X141561904Y-109380000D01*
X141609523Y-109427619D01*
X141657142Y-109522857D01*
X141657142Y-109665714D01*
X141609523Y-109760952D01*
X141561904Y-109808571D01*
X141466666Y-109856190D01*
X141085714Y-109856190D01*
X142561904Y-109332380D02*
X142085714Y-109332380D01*
X142038095Y-109808571D01*
X142085714Y-109760952D01*
X142180952Y-109713333D01*
X142419047Y-109713333D01*
X142514285Y-109760952D01*
X142561904Y-109808571D01*
X142609523Y-109903809D01*
X142609523Y-110141904D01*
X142561904Y-110237142D01*
X142514285Y-110284761D01*
X142419047Y-110332380D01*
X142180952Y-110332380D01*
X142085714Y-110284761D01*
X142038095Y-110237142D01*
X143514285Y-109332380D02*
X143038095Y-109332380D01*
X142990476Y-109808571D01*
X143038095Y-109760952D01*
X143133333Y-109713333D01*
X143371428Y-109713333D01*
X143466666Y-109760952D01*
X143514285Y-109808571D01*
X143561904Y-109903809D01*
X143561904Y-110141904D01*
X143514285Y-110237142D01*
X143466666Y-110284761D01*
X143371428Y-110332380D01*
X143133333Y-110332380D01*
X143038095Y-110284761D01*
X142990476Y-110237142D01*
%TO.C,R13*%
X179507142Y-99852380D02*
X179173809Y-99376190D01*
X178935714Y-99852380D02*
X178935714Y-98852380D01*
X179316666Y-98852380D01*
X179411904Y-98900000D01*
X179459523Y-98947619D01*
X179507142Y-99042857D01*
X179507142Y-99185714D01*
X179459523Y-99280952D01*
X179411904Y-99328571D01*
X179316666Y-99376190D01*
X178935714Y-99376190D01*
X180459523Y-99852380D02*
X179888095Y-99852380D01*
X180173809Y-99852380D02*
X180173809Y-98852380D01*
X180078571Y-98995238D01*
X179983333Y-99090476D01*
X179888095Y-99138095D01*
X180792857Y-98852380D02*
X181411904Y-98852380D01*
X181078571Y-99233333D01*
X181221428Y-99233333D01*
X181316666Y-99280952D01*
X181364285Y-99328571D01*
X181411904Y-99423809D01*
X181411904Y-99661904D01*
X181364285Y-99757142D01*
X181316666Y-99804761D01*
X181221428Y-99852380D01*
X180935714Y-99852380D01*
X180840476Y-99804761D01*
X180792857Y-99757142D01*
%TO.C,D7*%
X120352380Y-126631862D02*
X119352380Y-126631862D01*
X119352380Y-126393767D01*
X119400000Y-126250909D01*
X119495238Y-126155671D01*
X119590476Y-126108052D01*
X119780952Y-126060433D01*
X119923809Y-126060433D01*
X120114285Y-126108052D01*
X120209523Y-126155671D01*
X120304761Y-126250909D01*
X120352380Y-126393767D01*
X120352380Y-126631862D01*
X119352380Y-125727100D02*
X119352380Y-125060433D01*
X120352380Y-125489005D01*
%TO.C,D6*%
X161461904Y-95752380D02*
X161461904Y-94752380D01*
X161700000Y-94752380D01*
X161842857Y-94800000D01*
X161938095Y-94895238D01*
X161985714Y-94990476D01*
X162033333Y-95180952D01*
X162033333Y-95323809D01*
X161985714Y-95514285D01*
X161938095Y-95609523D01*
X161842857Y-95704761D01*
X161700000Y-95752380D01*
X161461904Y-95752380D01*
X162890476Y-94752380D02*
X162700000Y-94752380D01*
X162604761Y-94800000D01*
X162557142Y-94847619D01*
X162461904Y-94990476D01*
X162414285Y-95180952D01*
X162414285Y-95561904D01*
X162461904Y-95657142D01*
X162509523Y-95704761D01*
X162604761Y-95752380D01*
X162795238Y-95752380D01*
X162890476Y-95704761D01*
X162938095Y-95657142D01*
X162985714Y-95561904D01*
X162985714Y-95323809D01*
X162938095Y-95228571D01*
X162890476Y-95180952D01*
X162795238Y-95133333D01*
X162604761Y-95133333D01*
X162509523Y-95180952D01*
X162461904Y-95228571D01*
X162414285Y-95323809D01*
%TO.C,R14*%
X134107142Y-86402380D02*
X133773809Y-85926190D01*
X133535714Y-86402380D02*
X133535714Y-85402380D01*
X133916666Y-85402380D01*
X134011904Y-85450000D01*
X134059523Y-85497619D01*
X134107142Y-85592857D01*
X134107142Y-85735714D01*
X134059523Y-85830952D01*
X134011904Y-85878571D01*
X133916666Y-85926190D01*
X133535714Y-85926190D01*
X135059523Y-86402380D02*
X134488095Y-86402380D01*
X134773809Y-86402380D02*
X134773809Y-85402380D01*
X134678571Y-85545238D01*
X134583333Y-85640476D01*
X134488095Y-85688095D01*
X135916666Y-85735714D02*
X135916666Y-86402380D01*
X135678571Y-85354761D02*
X135440476Y-86069047D01*
X136059523Y-86069047D01*
%TO.C,R37*%
X187957142Y-94627380D02*
X187623809Y-94151190D01*
X187385714Y-94627380D02*
X187385714Y-93627380D01*
X187766666Y-93627380D01*
X187861904Y-93675000D01*
X187909523Y-93722619D01*
X187957142Y-93817857D01*
X187957142Y-93960714D01*
X187909523Y-94055952D01*
X187861904Y-94103571D01*
X187766666Y-94151190D01*
X187385714Y-94151190D01*
X188290476Y-93627380D02*
X188909523Y-93627380D01*
X188576190Y-94008333D01*
X188719047Y-94008333D01*
X188814285Y-94055952D01*
X188861904Y-94103571D01*
X188909523Y-94198809D01*
X188909523Y-94436904D01*
X188861904Y-94532142D01*
X188814285Y-94579761D01*
X188719047Y-94627380D01*
X188433333Y-94627380D01*
X188338095Y-94579761D01*
X188290476Y-94532142D01*
X189242857Y-93627380D02*
X189909523Y-93627380D01*
X189480952Y-94627380D01*
%TO.C,C39*%
X122750000Y-98000000D02*
X122783333Y-98033333D01*
X122816666Y-98133333D01*
X122816666Y-98200000D01*
X122783333Y-98300000D01*
X122716666Y-98366666D01*
X122650000Y-98400000D01*
X122516666Y-98433333D01*
X122416666Y-98433333D01*
X122283333Y-98400000D01*
X122216666Y-98366666D01*
X122150000Y-98300000D01*
X122116666Y-98200000D01*
X122116666Y-98133333D01*
X122150000Y-98033333D01*
X122183333Y-98000000D01*
X122116666Y-97766666D02*
X122116666Y-97333333D01*
X122383333Y-97566666D01*
X122383333Y-97466666D01*
X122416666Y-97400000D01*
X122450000Y-97366666D01*
X122516666Y-97333333D01*
X122683333Y-97333333D01*
X122750000Y-97366666D01*
X122783333Y-97400000D01*
X122816666Y-97466666D01*
X122816666Y-97666666D01*
X122783333Y-97733333D01*
X122750000Y-97766666D01*
X122816666Y-97000000D02*
X122816666Y-96866666D01*
X122783333Y-96800000D01*
X122750000Y-96766666D01*
X122650000Y-96700000D01*
X122516666Y-96666666D01*
X122250000Y-96666666D01*
X122183333Y-96700000D01*
X122150000Y-96733333D01*
X122116666Y-96800000D01*
X122116666Y-96933333D01*
X122150000Y-97000000D01*
X122183333Y-97033333D01*
X122250000Y-97066666D01*
X122416666Y-97066666D01*
X122483333Y-97033333D01*
X122516666Y-97000000D01*
X122550000Y-96933333D01*
X122550000Y-96800000D01*
X122516666Y-96733333D01*
X122483333Y-96700000D01*
X122416666Y-96666666D01*
%TO.C,R46*%
X121509396Y-107432682D02*
X121176063Y-107666015D01*
X121509396Y-107832682D02*
X120809396Y-107832682D01*
X120809396Y-107566015D01*
X120842730Y-107499348D01*
X120876063Y-107466015D01*
X120942730Y-107432682D01*
X121042730Y-107432682D01*
X121109396Y-107466015D01*
X121142730Y-107499348D01*
X121176063Y-107566015D01*
X121176063Y-107832682D01*
X121042730Y-106832682D02*
X121509396Y-106832682D01*
X120776063Y-106999348D02*
X121276063Y-107166015D01*
X121276063Y-106732682D01*
X120809396Y-106166015D02*
X120809396Y-106299348D01*
X120842730Y-106366015D01*
X120876063Y-106399348D01*
X120976063Y-106466015D01*
X121109396Y-106499348D01*
X121376063Y-106499348D01*
X121442730Y-106466015D01*
X121476063Y-106432682D01*
X121509396Y-106366015D01*
X121509396Y-106232682D01*
X121476063Y-106166015D01*
X121442730Y-106132682D01*
X121376063Y-106099348D01*
X121209396Y-106099348D01*
X121142730Y-106132682D01*
X121109396Y-106166015D01*
X121076063Y-106232682D01*
X121076063Y-106366015D01*
X121109396Y-106432682D01*
X121142730Y-106466015D01*
X121209396Y-106499348D01*
%TO.C,R17*%
X121632142Y-87552380D02*
X121298809Y-87076190D01*
X121060714Y-87552380D02*
X121060714Y-86552380D01*
X121441666Y-86552380D01*
X121536904Y-86600000D01*
X121584523Y-86647619D01*
X121632142Y-86742857D01*
X121632142Y-86885714D01*
X121584523Y-86980952D01*
X121536904Y-87028571D01*
X121441666Y-87076190D01*
X121060714Y-87076190D01*
X122584523Y-87552380D02*
X122013095Y-87552380D01*
X122298809Y-87552380D02*
X122298809Y-86552380D01*
X122203571Y-86695238D01*
X122108333Y-86790476D01*
X122013095Y-86838095D01*
X122917857Y-86552380D02*
X123584523Y-86552380D01*
X123155952Y-87552380D01*
%TO.C,CP1*%
X150208333Y-100457142D02*
X150160714Y-100504761D01*
X150017857Y-100552380D01*
X149922619Y-100552380D01*
X149779761Y-100504761D01*
X149684523Y-100409523D01*
X149636904Y-100314285D01*
X149589285Y-100123809D01*
X149589285Y-99980952D01*
X149636904Y-99790476D01*
X149684523Y-99695238D01*
X149779761Y-99600000D01*
X149922619Y-99552380D01*
X150017857Y-99552380D01*
X150160714Y-99600000D01*
X150208333Y-99647619D01*
X150636904Y-100552380D02*
X150636904Y-99552380D01*
X151017857Y-99552380D01*
X151113095Y-99600000D01*
X151160714Y-99647619D01*
X151208333Y-99742857D01*
X151208333Y-99885714D01*
X151160714Y-99980952D01*
X151113095Y-100028571D01*
X151017857Y-100076190D01*
X150636904Y-100076190D01*
X152160714Y-100552380D02*
X151589285Y-100552380D01*
X151875000Y-100552380D02*
X151875000Y-99552380D01*
X151779761Y-99695238D01*
X151684523Y-99790476D01*
X151589285Y-99838095D01*
%TO.C,D16*%
X191552380Y-100514285D02*
X190552380Y-100514285D01*
X190552380Y-100276190D01*
X190600000Y-100133333D01*
X190695238Y-100038095D01*
X190790476Y-99990476D01*
X190980952Y-99942857D01*
X191123809Y-99942857D01*
X191314285Y-99990476D01*
X191409523Y-100038095D01*
X191504761Y-100133333D01*
X191552380Y-100276190D01*
X191552380Y-100514285D01*
X191552380Y-98990476D02*
X191552380Y-99561904D01*
X191552380Y-99276190D02*
X190552380Y-99276190D01*
X190695238Y-99371428D01*
X190790476Y-99466666D01*
X190838095Y-99561904D01*
X190552380Y-98133333D02*
X190552380Y-98323809D01*
X190600000Y-98419047D01*
X190647619Y-98466666D01*
X190790476Y-98561904D01*
X190980952Y-98609523D01*
X191361904Y-98609523D01*
X191457142Y-98561904D01*
X191504761Y-98514285D01*
X191552380Y-98419047D01*
X191552380Y-98228571D01*
X191504761Y-98133333D01*
X191457142Y-98085714D01*
X191361904Y-98038095D01*
X191123809Y-98038095D01*
X191028571Y-98085714D01*
X190980952Y-98133333D01*
X190933333Y-98228571D01*
X190933333Y-98419047D01*
X190980952Y-98514285D01*
X191028571Y-98561904D01*
X191123809Y-98609523D01*
%TO.C,R45*%
X116152380Y-115742857D02*
X115676190Y-116076190D01*
X116152380Y-116314285D02*
X115152380Y-116314285D01*
X115152380Y-115933333D01*
X115200000Y-115838095D01*
X115247619Y-115790476D01*
X115342857Y-115742857D01*
X115485714Y-115742857D01*
X115580952Y-115790476D01*
X115628571Y-115838095D01*
X115676190Y-115933333D01*
X115676190Y-116314285D01*
X115485714Y-114885714D02*
X116152380Y-114885714D01*
X115104761Y-115123809D02*
X115819047Y-115361904D01*
X115819047Y-114742857D01*
X115152380Y-113885714D02*
X115152380Y-114361904D01*
X115628571Y-114409523D01*
X115580952Y-114361904D01*
X115533333Y-114266666D01*
X115533333Y-114028571D01*
X115580952Y-113933333D01*
X115628571Y-113885714D01*
X115723809Y-113838095D01*
X115961904Y-113838095D01*
X116057142Y-113885714D01*
X116104761Y-113933333D01*
X116152380Y-114028571D01*
X116152380Y-114266666D01*
X116104761Y-114361904D01*
X116057142Y-114409523D01*
D13*
%TO.C,U3*%
X176590500Y-105909499D02*
X176590500Y-106290499D01*
X150809500Y-113909501D02*
X150809500Y-114290501D01*
X151495300Y-100895300D02*
X151495300Y-104513261D01*
X163890500Y-100463500D02*
X163509500Y-100463500D01*
X172286739Y-125304700D02*
X175904700Y-125304700D01*
X150809500Y-114290501D02*
X151063500Y-114290501D01*
X167509500Y-125736500D02*
X167509500Y-125990500D01*
X176336500Y-115909499D02*
X176590500Y-115909499D01*
X167890500Y-125736500D02*
X167509500Y-125736500D01*
X176590500Y-116290499D02*
X176336500Y-116290499D01*
X151495300Y-125304700D02*
X155113261Y-125304700D01*
X175904700Y-104513261D02*
X175904700Y-100895300D01*
X157509499Y-125990500D02*
X157890499Y-125990500D01*
X176336500Y-106290499D02*
X176336500Y-105909499D01*
X175904700Y-125304700D02*
X175904700Y-121686739D01*
X157890499Y-125990500D02*
X157890499Y-125736500D01*
X167890500Y-125990500D02*
X167890500Y-125736500D01*
X176590500Y-115909499D02*
X176590500Y-116290499D01*
X175904700Y-100895300D02*
X172286739Y-100895300D01*
X176336500Y-105909499D02*
X176590500Y-105909499D01*
X163890500Y-100209500D02*
X163890500Y-100463500D01*
X155113261Y-100895300D02*
X151495300Y-100895300D01*
X167509500Y-125990500D02*
X167890500Y-125990500D01*
X176590500Y-106290499D02*
X176336500Y-106290499D01*
X157509499Y-125736500D02*
X157509499Y-125990500D01*
X151495300Y-121686739D02*
X151495300Y-125304700D01*
X163509500Y-100463500D02*
X163509500Y-100209500D01*
X151063500Y-114290501D02*
X151063500Y-113909501D01*
X176336500Y-116290499D02*
X176336500Y-115909499D01*
X163509500Y-100209500D02*
X163890500Y-100209500D01*
X157890499Y-125736500D02*
X157509499Y-125736500D01*
X151063500Y-113909501D02*
X150809500Y-113909501D01*
D14*
%TO.C,C55*%
X146188781Y-128460030D02*
X145989970Y-128261219D01*
X146910030Y-127738781D02*
X146711219Y-127539970D01*
%TO.C,C62*%
X129040000Y-115240580D02*
X129040000Y-114959420D01*
X130060000Y-115240580D02*
X130060000Y-114959420D01*
%TO.C,D19*%
X168435000Y-128215000D02*
X166965000Y-128215000D01*
X168435000Y-130500000D02*
X168435000Y-128215000D01*
X166965000Y-128215000D02*
X166965000Y-130500000D01*
%TO.C,C20*%
X123913748Y-139078767D02*
X125336252Y-139078767D01*
X123913748Y-140898767D02*
X125336252Y-140898767D01*
%TO.C,R20*%
X123637742Y-90947500D02*
X124112258Y-90947500D01*
X123637742Y-89902500D02*
X124112258Y-89902500D01*
%TO.C,R52*%
X187062742Y-88522500D02*
X187537258Y-88522500D01*
X187062742Y-87477500D02*
X187537258Y-87477500D01*
%TO.C,C61*%
X187640580Y-118235000D02*
X187359420Y-118235000D01*
X187640580Y-117215000D02*
X187359420Y-117215000D01*
%TO.C,R22*%
X127180000Y-134940126D02*
X127180000Y-135247408D01*
X126420000Y-134940126D02*
X126420000Y-135247408D01*
%TO.C,R43*%
X114977500Y-97862742D02*
X114977500Y-98337258D01*
X116022500Y-97862742D02*
X116022500Y-98337258D01*
%TO.C,D17*%
X194435000Y-97112500D02*
X194435000Y-94827500D01*
X192965000Y-94827500D02*
X192965000Y-97112500D01*
X194435000Y-94827500D02*
X192965000Y-94827500D01*
%TO.C,C42*%
X131785000Y-95336252D02*
X131785000Y-94813748D01*
X130315000Y-95336252D02*
X130315000Y-94813748D01*
%TO.C,J5*%
X117900000Y-104850000D02*
X117900000Y-103250000D01*
X117900000Y-110850000D02*
X117900000Y-109250000D01*
X129500000Y-121880000D02*
X131100000Y-121880000D01*
X136700000Y-98850000D02*
X136700000Y-97250000D01*
X123500000Y-121880000D02*
X125100000Y-121880000D01*
X136700000Y-116850000D02*
X136700000Y-115250000D01*
X117900000Y-98850000D02*
X117900000Y-97250000D01*
X123500000Y-92220000D02*
X125100000Y-92220000D01*
X117900000Y-116850000D02*
X117900000Y-115250000D01*
X129500000Y-92220000D02*
X131100000Y-92220000D01*
X136700000Y-110850000D02*
X136700000Y-109250000D01*
X136700000Y-104850000D02*
X136700000Y-103250000D01*
%TO.C,R50*%
X190527500Y-92912742D02*
X190527500Y-93387258D01*
X191572500Y-92912742D02*
X191572500Y-93387258D01*
%TO.C,J10*%
X153240000Y-128360000D02*
X149495000Y-128360000D01*
X154760000Y-126140000D02*
X154760000Y-127250000D01*
X153240000Y-126140000D02*
X153240000Y-126686529D01*
X154000000Y-126140000D02*
X154760000Y-126140000D01*
X153240000Y-126140000D02*
X149495000Y-126140000D01*
X149495000Y-126140000D02*
X149495000Y-126942470D01*
X149495000Y-127557530D02*
X149495000Y-128360000D01*
X153240000Y-127813471D02*
X153240000Y-128360000D01*
%TO.C,R36*%
X121020000Y-102003641D02*
X121020000Y-101696359D01*
X121780000Y-102003641D02*
X121780000Y-101696359D01*
%TO.C,Y2*%
X176220000Y-139915000D02*
X180220000Y-139915000D01*
X176220000Y-136615000D02*
X176220000Y-139915000D01*
%TO.C,D22*%
X136390000Y-86490000D02*
X136390000Y-87960000D01*
X136390000Y-87960000D02*
X138675000Y-87960000D01*
X138675000Y-86490000D02*
X136390000Y-86490000D01*
%TO.C,R32*%
X116422500Y-128612258D02*
X116422500Y-128137742D01*
X115377500Y-128612258D02*
X115377500Y-128137742D01*
%TO.C,C59*%
X140807836Y-137640000D02*
X140592164Y-137640000D01*
X140807836Y-138360000D02*
X140592164Y-138360000D01*
%TO.C,U9*%
X137890000Y-112900000D02*
X137890000Y-114800000D01*
X140210000Y-114300000D02*
X140210000Y-112900000D01*
%TO.C,C46*%
X182059420Y-87280000D02*
X182340580Y-87280000D01*
X182059420Y-88300000D02*
X182340580Y-88300000D01*
%TO.C,U11*%
X169222500Y-133350000D02*
X165622500Y-133350000D01*
X169222500Y-140120000D02*
X167022500Y-140120000D01*
X169222500Y-140120000D02*
X171422500Y-140120000D01*
X169222500Y-133350000D02*
X171422500Y-133350000D01*
%TO.C,R2*%
X182437742Y-126327500D02*
X182912258Y-126327500D01*
X182437742Y-127372500D02*
X182912258Y-127372500D01*
%TO.C,C54*%
X142539970Y-131711219D02*
X142738781Y-131910030D01*
X143261219Y-130989970D02*
X143460030Y-131188781D01*
%TO.C,C24*%
X122585000Y-118288748D02*
X122585000Y-118811252D01*
X121115000Y-118288748D02*
X121115000Y-118811252D01*
%TO.C,U13*%
X184300000Y-95100000D02*
X184300000Y-97400000D01*
X186700000Y-95100000D02*
X184300000Y-95100000D01*
X186700000Y-95200000D02*
X186700000Y-95100000D01*
X186700000Y-96700000D02*
X186700000Y-95200000D01*
X184300000Y-97500000D02*
X186000000Y-97500000D01*
X184300000Y-97400000D02*
X184300000Y-97500000D01*
%TO.C,C35*%
X128617858Y-104760000D02*
X130288342Y-104760000D01*
X128617858Y-102940000D02*
X130288342Y-102940000D01*
%TO.C,C48*%
X170205000Y-129780580D02*
X170205000Y-129499420D01*
X169185000Y-129780580D02*
X169185000Y-129499420D01*
%TO.C,C31*%
X132135000Y-116888748D02*
X132135000Y-117411252D01*
X130665000Y-116888748D02*
X130665000Y-117411252D01*
%TO.C,U20*%
X124725000Y-101827900D02*
X126099700Y-101827900D01*
X125725000Y-99872100D02*
X124925000Y-99872100D01*
%TO.C,C21*%
X178159420Y-142010000D02*
X178440580Y-142010000D01*
X178159420Y-140990000D02*
X178440580Y-140990000D01*
%TO.C,C5*%
X154110000Y-96815580D02*
X154110000Y-96534420D01*
X153090000Y-96815580D02*
X153090000Y-96534420D01*
%TO.C,R12*%
X163245860Y-97115261D02*
X163245860Y-96807979D01*
X164005860Y-97115261D02*
X164005860Y-96807979D01*
%TO.C,R47*%
X145501697Y-128612770D02*
X145837230Y-128948303D01*
X144762770Y-129351697D02*
X145098303Y-129687230D01*
%TO.C,C4*%
X154690000Y-96815580D02*
X154690000Y-96534420D01*
X155710000Y-96815580D02*
X155710000Y-96534420D01*
%TO.C,R16*%
X189152500Y-133262258D02*
X189152500Y-132787742D01*
X190197500Y-133262258D02*
X190197500Y-132787742D01*
%TO.C,C27*%
X120711252Y-136308767D02*
X120188748Y-136308767D01*
X120711252Y-137778767D02*
X120188748Y-137778767D01*
%TO.C,R25*%
X130703641Y-139257517D02*
X130396359Y-139257517D01*
X130703641Y-140017517D02*
X130396359Y-140017517D01*
%TO.C,L5*%
X134374730Y-106250000D02*
X134374730Y-109250000D01*
X131174730Y-106250000D02*
X131174730Y-109250000D01*
%TO.C,C19*%
X127884420Y-91210000D02*
X128165580Y-91210000D01*
X127884420Y-90190000D02*
X128165580Y-90190000D01*
%TO.C,C32*%
X132657836Y-141047517D02*
X132442164Y-141047517D01*
X132657836Y-140327517D02*
X132442164Y-140327517D01*
%TO.C,R21*%
X126080000Y-135247408D02*
X126080000Y-134940126D01*
X125320000Y-135247408D02*
X125320000Y-134940126D01*
%TO.C,D8*%
X136390000Y-88115000D02*
X136390000Y-89585000D01*
X138675000Y-88115000D02*
X136390000Y-88115000D01*
X136390000Y-89585000D02*
X138675000Y-89585000D01*
%TO.C,R4*%
X144109500Y-105637742D02*
X144109500Y-106112258D01*
X145154500Y-105637742D02*
X145154500Y-106112258D01*
D10*
%TO.C,IC1*%
X149400000Y-130995227D02*
X153854773Y-135450000D01*
X153854773Y-135450000D02*
X149400000Y-139904773D01*
X144945227Y-135450000D02*
X149400000Y-130995227D01*
X149400000Y-139904773D02*
X144945227Y-135450000D01*
D12*
X143536559Y-135856586D02*
G75*
G03*
X143536559Y-135856586I-200000J0D01*
G01*
D14*
%TO.C,C13*%
X163918024Y-98921620D02*
X164133696Y-98921620D01*
X163918024Y-98201620D02*
X164133696Y-98201620D01*
%TO.C,C2*%
X176840580Y-92210000D02*
X176559420Y-92210000D01*
X176840580Y-91190000D02*
X176559420Y-91190000D01*
%TO.C,R6*%
X142477500Y-106137258D02*
X142477500Y-105662742D01*
X143522500Y-106137258D02*
X143522500Y-105662742D01*
%TO.C,C30*%
X134235000Y-116888748D02*
X134235000Y-117411252D01*
X132765000Y-116888748D02*
X132765000Y-117411252D01*
%TO.C,C25*%
X132135000Y-113911252D02*
X132135000Y-113388748D01*
X130665000Y-113911252D02*
X130665000Y-113388748D01*
%TO.C,U6*%
X119740000Y-131543767D02*
X119740000Y-129593767D01*
X119740000Y-131543767D02*
X119740000Y-134993767D01*
X124860000Y-131543767D02*
X124860000Y-129593767D01*
X124860000Y-131543767D02*
X124860000Y-133493767D01*
%TO.C,C49*%
X182340580Y-92110000D02*
X182059420Y-92110000D01*
X182340580Y-91090000D02*
X182059420Y-91090000D01*
%TO.C,J7*%
X110722552Y-114056497D02*
X110722552Y-113443502D01*
X110722552Y-124056497D02*
X110722552Y-123443502D01*
X110722552Y-134126200D02*
X110722552Y-125943502D01*
X110722552Y-116556497D02*
X110722552Y-115943502D01*
X110722552Y-109056497D02*
X110722552Y-108443502D01*
X110722552Y-106556497D02*
X110722552Y-105943502D01*
X110722552Y-111556497D02*
X110722552Y-110943502D01*
X72165348Y-134126200D02*
X110722552Y-134126200D01*
X110722552Y-95873800D02*
X72165348Y-95873800D01*
X72165348Y-95873800D02*
X72165348Y-134126200D01*
X110722552Y-121556497D02*
X110722552Y-120943502D01*
X110722552Y-104056497D02*
X110722552Y-95873800D01*
X110722552Y-119056497D02*
X110722552Y-118443502D01*
X112476553Y-124999994D02*
G75*
G03*
X112476553Y-124999994I-381000J0D01*
G01*
%TO.C,R33*%
X132846359Y-119720000D02*
X133153641Y-119720000D01*
X132846359Y-120480000D02*
X133153641Y-120480000D01*
%TO.C,U4*%
X194535000Y-123300000D02*
X194535000Y-117300000D01*
X189315000Y-120300000D02*
X189315000Y-117300000D01*
D15*
%TO.C,U1*%
X175900000Y-89051000D02*
X177500000Y-89051000D01*
X175900000Y-90539000D02*
X177500000Y-90539000D01*
D10*
X175095000Y-89545000D02*
G75*
G03*
X175095000Y-89545000I-100000J0D01*
G01*
D14*
%TO.C,D18*%
X186500000Y-90435000D02*
X188785000Y-90435000D01*
X188785000Y-88965000D02*
X186500000Y-88965000D01*
X188785000Y-90435000D02*
X188785000Y-88965000D01*
%TO.C,J2*%
X115750000Y-87700000D02*
X113400000Y-87700000D01*
X118900000Y-86900000D02*
X117900000Y-86900000D01*
X113400000Y-88450000D02*
X113200000Y-88450000D01*
X112890000Y-90610000D02*
X118610000Y-90610000D01*
X112890000Y-87190000D02*
X112890000Y-90610000D01*
X118610000Y-90610000D02*
X118610000Y-87190000D01*
X113400000Y-87700000D02*
X113400000Y-88450000D01*
X118610000Y-87190000D02*
X112890000Y-87190000D01*
X118900000Y-86900000D02*
X118900000Y-87900000D01*
X113200000Y-89250000D02*
X113400000Y-89250000D01*
X118300000Y-88450000D02*
X118300000Y-89250000D01*
X118100000Y-90100000D02*
X115750000Y-90100000D01*
X113200000Y-88450000D02*
X113200000Y-89250000D01*
X118300000Y-89250000D02*
X118100000Y-89250000D01*
X115750000Y-87700000D02*
X118100000Y-87700000D01*
X118100000Y-88450000D02*
X118300000Y-88450000D01*
X118100000Y-89250000D02*
X118100000Y-90100000D01*
X113400000Y-90100000D02*
X115750000Y-90100000D01*
X118100000Y-87700000D02*
X118100000Y-88450000D01*
X113400000Y-89250000D02*
X113400000Y-90100000D01*
%TO.C,C7*%
X174400000Y-96127836D02*
X174400000Y-95912164D01*
X173680000Y-96127836D02*
X173680000Y-95912164D01*
%TO.C,U5*%
X181200000Y-107100000D02*
X179200000Y-107100000D01*
X181200000Y-102900000D02*
X178700000Y-102900000D01*
D10*
%TO.C,U18*%
X127850000Y-116250000D02*
X126450000Y-116250000D01*
X128350000Y-119250000D02*
X126450000Y-119250000D01*
D14*
%TO.C,R35*%
X196212742Y-132977500D02*
X196687258Y-132977500D01*
X196212742Y-134022500D02*
X196687258Y-134022500D01*
%TO.C,C50*%
X127968100Y-95311252D02*
X127968100Y-94788748D01*
X129438100Y-95311252D02*
X129438100Y-94788748D01*
%TO.C,C16*%
X162731920Y-140790000D02*
X163013080Y-140790000D01*
X162731920Y-141810000D02*
X163013080Y-141810000D01*
%TO.C,R34*%
X130546359Y-120480000D02*
X130853641Y-120480000D01*
X130546359Y-119720000D02*
X130853641Y-119720000D01*
%TO.C,C58*%
X144969190Y-139978307D02*
X145121693Y-140130810D01*
X145478307Y-139469190D02*
X145630810Y-139621693D01*
%TO.C,C45*%
X182365580Y-94990000D02*
X182084420Y-94990000D01*
X182365580Y-96010000D02*
X182084420Y-96010000D01*
%TO.C,U10*%
X184570000Y-133610000D02*
X180970000Y-133610000D01*
X184570000Y-140380000D02*
X186770000Y-140380000D01*
X184570000Y-133610000D02*
X186770000Y-133610000D01*
X184570000Y-140380000D02*
X182370000Y-140380000D01*
%TO.C,C22*%
X178360580Y-136235000D02*
X178079420Y-136235000D01*
X178360580Y-135215000D02*
X178079420Y-135215000D01*
D12*
%TO.C,IC2*%
X131499000Y-89711500D02*
G75*
G03*
X131499000Y-89711500I-125000J0D01*
G01*
D14*
%TO.C,C17*%
X163153080Y-134955000D02*
X162871920Y-134955000D01*
X163153080Y-135975000D02*
X162871920Y-135975000D01*
%TO.C,C26*%
X123913748Y-138453767D02*
X125336252Y-138453767D01*
X123913748Y-136633767D02*
X125336252Y-136633767D01*
%TO.C,J9*%
X117175000Y-139968767D02*
X117175000Y-138168767D01*
X132075000Y-142793767D02*
X133875000Y-142793767D01*
X117200000Y-133968767D02*
X117200000Y-132168767D01*
X136900000Y-133968767D02*
X136900000Y-132168767D01*
X120100000Y-123143767D02*
X121900000Y-123143767D01*
X120050000Y-142793767D02*
X121850000Y-142793767D01*
X136900000Y-139968767D02*
X136900000Y-138168767D01*
X132075000Y-123143767D02*
X133875000Y-123143767D01*
X126075000Y-123143767D02*
X127875000Y-123143767D01*
X126050000Y-142793767D02*
X127850000Y-142793767D01*
X117225000Y-127968767D02*
X117225000Y-126168767D01*
X136900000Y-127943767D02*
X136900000Y-126143767D01*
%TO.C,C1*%
X176559420Y-87380000D02*
X176840580Y-87380000D01*
X176559420Y-88400000D02*
X176840580Y-88400000D01*
%TO.C,C44*%
X182340580Y-97610000D02*
X182059420Y-97610000D01*
X182340580Y-96590000D02*
X182059420Y-96590000D01*
%TO.C,C29*%
X125340000Y-129490580D02*
X125340000Y-129209420D01*
X126360000Y-129490580D02*
X126360000Y-129209420D01*
%TO.C,R29*%
X139103641Y-110870000D02*
X138796359Y-110870000D01*
X139103641Y-111630000D02*
X138796359Y-111630000D01*
%TO.C,R30*%
X120422500Y-116362742D02*
X120422500Y-116837258D01*
X119377500Y-116362742D02*
X119377500Y-116837258D01*
%TO.C,CP2*%
X148725000Y-99355000D02*
X148725000Y-92595000D01*
X145305000Y-92595000D02*
X145305000Y-99355000D01*
X145305000Y-99355000D02*
X148725000Y-99355000D01*
%TO.C,C47*%
X172995000Y-129499420D02*
X172995000Y-129780580D01*
X174015000Y-129499420D02*
X174015000Y-129780580D01*
%TO.C,C3*%
X187235000Y-125640580D02*
X187235000Y-125359420D01*
X186215000Y-125640580D02*
X186215000Y-125359420D01*
%TO.C,R48*%
X171364758Y-140917500D02*
X170890242Y-140917500D01*
X171364758Y-141962500D02*
X170890242Y-141962500D01*
%TO.C,L3*%
X125835000Y-115110000D02*
X124810000Y-115110000D01*
X121065000Y-115110000D02*
X121065000Y-114085000D01*
X125835000Y-115110000D02*
X125835000Y-114085000D01*
X121065000Y-115110000D02*
X122090000Y-115110000D01*
X121065000Y-110890000D02*
X122090000Y-110890000D01*
X125835000Y-110890000D02*
X124810000Y-110890000D01*
X121065000Y-110890000D02*
X121065000Y-111915000D01*
X125835000Y-110890000D02*
X125835000Y-111915000D01*
%TO.C,C60*%
X141359420Y-133140000D02*
X141640580Y-133140000D01*
X141359420Y-134160000D02*
X141640580Y-134160000D01*
%TO.C,C57*%
X143660000Y-140292164D02*
X143660000Y-140507836D01*
X142940000Y-140292164D02*
X142940000Y-140507836D01*
%TO.C,U7*%
X137890000Y-120150000D02*
X137890000Y-122050000D01*
X140210000Y-121550000D02*
X140210000Y-120150000D01*
%TO.C,C43*%
X126014352Y-93865000D02*
X125491848Y-93865000D01*
X126014352Y-95335000D02*
X125491848Y-95335000D01*
%TO.C,C53*%
X116010000Y-95140580D02*
X116010000Y-94859420D01*
X114990000Y-95140580D02*
X114990000Y-94859420D01*
%TO.C,F1*%
X111840000Y-130647936D02*
X111840000Y-131852064D01*
X113660000Y-130647936D02*
X113660000Y-131852064D01*
%TO.C,Q2*%
X147132000Y-121637000D02*
X146482000Y-121637000D01*
X147132000Y-121637000D02*
X147782000Y-121637000D01*
X147132000Y-118517000D02*
X145457000Y-118517000D01*
X147132000Y-118517000D02*
X147782000Y-118517000D01*
%TO.C,R49*%
X143612770Y-130501697D02*
X143948303Y-130837230D01*
X144351697Y-129762770D02*
X144687230Y-130098303D01*
%TO.C,Y3*%
X142550000Y-138850000D02*
X139850000Y-138850000D01*
X142550000Y-141150000D02*
X142550000Y-138850000D01*
%TO.C,C33*%
X135110000Y-134583767D02*
X128350000Y-134583767D01*
X128350000Y-138003767D02*
X135110000Y-138003767D01*
X135110000Y-138003767D02*
X135110000Y-134583767D01*
%TO.C,C36*%
X126179730Y-106661430D02*
X126179730Y-107183934D01*
X124709730Y-106661430D02*
X124709730Y-107183934D01*
D15*
%TO.C,U15*%
X170856000Y-128840000D02*
X170856000Y-130440000D01*
X172344000Y-128840000D02*
X172344000Y-130440000D01*
D10*
X171950000Y-127935000D02*
G75*
G03*
X171950000Y-127935000I-100000J0D01*
G01*
D14*
%TO.C,R18*%
X167112258Y-140877500D02*
X166637742Y-140877500D01*
X167112258Y-141922500D02*
X166637742Y-141922500D01*
%TO.C,U19*%
X194150000Y-128665000D02*
X192350000Y-128665000D01*
X194150000Y-131785000D02*
X194950000Y-131785000D01*
X194150000Y-131785000D02*
X193350000Y-131785000D01*
X194150000Y-128665000D02*
X194950000Y-128665000D01*
%TO.C,D21*%
X114670000Y-141660000D02*
X115010000Y-141660000D01*
X114670000Y-141900000D02*
X114670000Y-141660000D01*
X112910000Y-141660000D02*
X112590000Y-141660000D01*
X110490000Y-141660000D02*
X110830000Y-141660000D01*
X110490000Y-140000000D02*
X110490000Y-141660000D01*
X115010000Y-141660000D02*
X115010000Y-140000000D01*
%TO.C,C40*%
X186334420Y-132040000D02*
X186615580Y-132040000D01*
X186334420Y-133060000D02*
X186615580Y-133060000D01*
%TO.C,R7*%
X143809500Y-120514258D02*
X143809500Y-120039742D01*
X144854500Y-120514258D02*
X144854500Y-120039742D01*
%TO.C,C6*%
X181660000Y-113284420D02*
X181660000Y-113565580D01*
X180640000Y-113284420D02*
X180640000Y-113565580D01*
%TO.C,C14*%
X181635000Y-109109420D02*
X181635000Y-109390580D01*
X180615000Y-109109420D02*
X180615000Y-109390580D01*
%TO.C,R1*%
X182437742Y-129022500D02*
X182912258Y-129022500D01*
X182437742Y-127977500D02*
X182912258Y-127977500D01*
%TO.C,R56*%
X156562770Y-133398303D02*
X156898303Y-133062770D01*
X157301697Y-134137230D02*
X157637230Y-133801697D01*
%TO.C,R44*%
X112812742Y-107622500D02*
X113287258Y-107622500D01*
X112812742Y-106577500D02*
X113287258Y-106577500D01*
%TO.C,D11*%
X113980000Y-108240000D02*
X113980000Y-108900000D01*
X112570000Y-110560000D02*
X113980000Y-110560000D01*
X113980000Y-108240000D02*
X111950000Y-108240000D01*
X113980000Y-109900000D02*
X113980000Y-110560000D01*
%TO.C,R8*%
X173320000Y-95856359D02*
X173320000Y-96163641D01*
X172560000Y-95856359D02*
X172560000Y-96163641D01*
%TO.C,C9*%
X171114140Y-97087836D02*
X171114140Y-96872164D01*
X170394140Y-97087836D02*
X170394140Y-96872164D01*
%TO.C,D15*%
X140635000Y-107765000D02*
X138350000Y-107765000D01*
X140635000Y-109235000D02*
X140635000Y-107765000D01*
X138350000Y-109235000D02*
X140635000Y-109235000D01*
D13*
%TO.C,U2*%
X183991199Y-111309499D02*
X183737199Y-111309499D01*
X183991199Y-103690499D02*
X183991199Y-103309499D01*
X183737199Y-111690499D02*
X183991199Y-111690499D01*
X183991199Y-103309499D02*
X183737199Y-103309499D01*
X199662801Y-106509501D02*
X199662801Y-106890501D01*
X193909500Y-113762798D02*
X193909500Y-113508798D01*
X199828000Y-113926100D02*
X199828000Y-102673900D01*
X183572000Y-113926100D02*
X199828000Y-113926100D01*
X194290500Y-113762798D02*
X193909500Y-113762798D01*
X199408801Y-106890501D02*
X199408801Y-106509501D01*
X199408801Y-106509501D02*
X199662801Y-106509501D01*
X199662801Y-106890501D02*
X199408801Y-106890501D01*
X194290500Y-113508798D02*
X194290500Y-113762798D01*
X183572000Y-102673900D02*
X183572000Y-113926100D01*
X199828000Y-102673900D02*
X183572000Y-102673900D01*
X183737199Y-103690499D02*
X183991199Y-103690499D01*
X183737199Y-111309499D02*
X183737199Y-111690499D01*
X183737199Y-103309499D02*
X183737199Y-103690499D01*
X193909500Y-113508798D02*
X194290500Y-113508798D01*
X183991199Y-111690499D02*
X183991199Y-111309499D01*
D14*
%TO.C,D9*%
X113165000Y-94200000D02*
X113165000Y-96485000D01*
X114635000Y-96485000D02*
X114635000Y-94200000D01*
X113165000Y-96485000D02*
X114635000Y-96485000D01*
%TO.C,D10*%
X112520000Y-111750000D02*
X112520000Y-111090000D01*
X112520000Y-113410000D02*
X114550000Y-113410000D01*
X113930000Y-111090000D02*
X112520000Y-111090000D01*
X112520000Y-113410000D02*
X112520000Y-112750000D01*
%TO.C,R51*%
X196022500Y-96537258D02*
X196022500Y-96062742D01*
X194977500Y-96537258D02*
X194977500Y-96062742D01*
%TO.C,CP3*%
X141495000Y-99355000D02*
X144915000Y-99355000D01*
X141495000Y-92595000D02*
X141495000Y-99355000D01*
X144915000Y-99355000D02*
X144915000Y-92595000D01*
%TO.C,C12*%
X149622000Y-106242580D02*
X149622000Y-105961420D01*
X150642000Y-106242580D02*
X150642000Y-105961420D01*
D15*
%TO.C,U14*%
X181400000Y-88951000D02*
X183000000Y-88951000D01*
X181400000Y-90439000D02*
X183000000Y-90439000D01*
D10*
X180595000Y-89445000D02*
G75*
G03*
X180595000Y-89445000I-100000J0D01*
G01*
D14*
%TO.C,C52*%
X125715879Y-98960000D02*
X125390321Y-98960000D01*
X125715879Y-97940000D02*
X125390321Y-97940000D01*
%TO.C,R3*%
X182437742Y-125772500D02*
X182912258Y-125772500D01*
X182437742Y-124727500D02*
X182912258Y-124727500D01*
%TO.C,R42*%
X114422500Y-98362258D02*
X114422500Y-97887742D01*
X113377500Y-98362258D02*
X113377500Y-97887742D01*
%TO.C,C34*%
X132161252Y-132352517D02*
X131638748Y-132352517D01*
X132161252Y-133822517D02*
X131638748Y-133822517D01*
%TO.C,C28*%
X134235000Y-113911252D02*
X134235000Y-113388748D01*
X132765000Y-113911252D02*
X132765000Y-113388748D01*
%TO.C,C11*%
X149422000Y-120442580D02*
X149422000Y-120161420D01*
X150442000Y-120442580D02*
X150442000Y-120161420D01*
%TO.C,C15*%
X179785000Y-109109420D02*
X179785000Y-109390580D01*
X178765000Y-109109420D02*
X178765000Y-109390580D01*
%TO.C,C23*%
X124685000Y-118288748D02*
X124685000Y-118811252D01*
X123215000Y-118288748D02*
X123215000Y-118811252D01*
%TO.C,C38*%
X129961252Y-109915000D02*
X129438748Y-109915000D01*
X129961252Y-111385000D02*
X129438748Y-111385000D01*
%TO.C,R15*%
X119377500Y-112262742D02*
X119377500Y-112737258D01*
X120422500Y-112262742D02*
X120422500Y-112737258D01*
%TO.C,R54*%
X178462742Y-95482500D02*
X178937258Y-95482500D01*
X178462742Y-94437500D02*
X178937258Y-94437500D01*
%TO.C,R26*%
X134987258Y-88327500D02*
X134512742Y-88327500D01*
X134987258Y-89372500D02*
X134512742Y-89372500D01*
%TO.C,D1*%
X190785000Y-127025000D02*
X190785000Y-127825000D01*
X187665000Y-127025000D02*
X187665000Y-127825000D01*
X187665000Y-127025000D02*
X187665000Y-126225000D01*
X190785000Y-127025000D02*
X190785000Y-125225000D01*
%TO.C,C8*%
X171126304Y-98960000D02*
X171341976Y-98960000D01*
X171126304Y-98240000D02*
X171341976Y-98240000D01*
%TO.C,U12*%
X128742730Y-106290000D02*
X126942730Y-106290000D01*
X128742730Y-109410000D02*
X129542730Y-109410000D01*
X128742730Y-106290000D02*
X129542730Y-106290000D01*
X128742730Y-109410000D02*
X127942730Y-109410000D01*
%TO.C,R23*%
X141287742Y-135722500D02*
X141762258Y-135722500D01*
X141287742Y-134677500D02*
X141762258Y-134677500D01*
%TO.C,Z1*%
X113250000Y-102050000D02*
X115150000Y-102050000D01*
X114850000Y-100250000D02*
X113250000Y-100250000D01*
%TO.C,L4*%
X127690000Y-102035000D02*
X127690000Y-101010000D01*
X131910000Y-97265000D02*
X131910000Y-98290000D01*
X127690000Y-97265000D02*
X127690000Y-98290000D01*
X131910000Y-102035000D02*
X130885000Y-102035000D01*
X127690000Y-102035000D02*
X128715000Y-102035000D01*
X131910000Y-97265000D02*
X130885000Y-97265000D01*
X127690000Y-97265000D02*
X128715000Y-97265000D01*
X131910000Y-102035000D02*
X131910000Y-101010000D01*
%TO.C,C18*%
X131215580Y-90190000D02*
X130934420Y-90190000D01*
X131215580Y-91210000D02*
X130934420Y-91210000D01*
%TO.C,R38*%
X188837258Y-97622500D02*
X188362742Y-97622500D01*
X188837258Y-96577500D02*
X188362742Y-96577500D01*
%TO.C,D20*%
X156430330Y-130880223D02*
X154814591Y-132495962D01*
X157469777Y-131919670D02*
X156430330Y-130880223D01*
X155854038Y-133535409D02*
X157469777Y-131919670D01*
%TO.C,C37*%
X125493680Y-103860000D02*
X125212520Y-103860000D01*
X125493680Y-102840000D02*
X125212520Y-102840000D01*
%TO.C,L2*%
X127050000Y-125043767D02*
X133350000Y-125043767D01*
X127050000Y-131243767D02*
X133350000Y-131243767D01*
%TO.C,R53*%
X164912742Y-128427500D02*
X165387258Y-128427500D01*
X164912742Y-129472500D02*
X165387258Y-129472500D01*
%TO.C,FB1*%
X139140000Y-96222936D02*
X139140000Y-97677064D01*
X140960000Y-96222936D02*
X140960000Y-97677064D01*
%TO.C,Y1*%
X160872500Y-139655000D02*
X164872500Y-139655000D01*
X160872500Y-136355000D02*
X160872500Y-139655000D01*
%TO.C,Q1*%
X147394500Y-107437000D02*
X148044500Y-107437000D01*
X147394500Y-104317000D02*
X145719500Y-104317000D01*
X147394500Y-107437000D02*
X146744500Y-107437000D01*
X147394500Y-104317000D02*
X148044500Y-104317000D01*
%TO.C,D14*%
X180145000Y-93945000D02*
X180145000Y-91660000D01*
X178675000Y-93945000D02*
X180145000Y-93945000D01*
X178675000Y-91660000D02*
X178675000Y-93945000D01*
%TO.C,C56*%
X145711219Y-141539970D02*
X145910030Y-141738781D01*
X144989970Y-142261219D02*
X145188781Y-142460030D01*
%TO.C,R24*%
X132703641Y-140017517D02*
X132396359Y-140017517D01*
X132703641Y-139257517D02*
X132396359Y-139257517D01*
%TO.C,C41*%
X171126920Y-131780000D02*
X171408080Y-131780000D01*
X171126920Y-132800000D02*
X171408080Y-132800000D01*
%TO.C,R5*%
X144769742Y-117999500D02*
X145244258Y-117999500D01*
X144769742Y-116954500D02*
X145244258Y-116954500D01*
%TO.C,D2*%
X140600000Y-99400000D02*
X139400000Y-99400000D01*
X139400000Y-101250000D02*
X139400000Y-99400000D01*
X140600000Y-101250000D02*
X140600000Y-99400000D01*
%TO.C,TH1*%
X111222500Y-88062742D02*
X111222500Y-88537258D01*
X110177500Y-88062742D02*
X110177500Y-88537258D01*
%TO.C,R31*%
X116422500Y-132312258D02*
X116422500Y-131837742D01*
X115377500Y-132312258D02*
X115377500Y-131837742D01*
%TO.C,U16*%
X162592500Y-133510000D02*
X161032500Y-133510000D01*
X164152500Y-130390000D02*
X161032500Y-130390000D01*
X161032500Y-130390000D02*
X161032500Y-130540000D01*
X161032500Y-133510000D02*
X161032500Y-133360000D01*
X164152500Y-130390000D02*
X164152500Y-130540000D01*
%TO.C,C51*%
X126014352Y-95915000D02*
X125491848Y-95915000D01*
X126014352Y-97385000D02*
X125491848Y-97385000D01*
%TO.C,R19*%
X120562742Y-89902500D02*
X121037258Y-89902500D01*
X120562742Y-90947500D02*
X121037258Y-90947500D01*
%TO.C,R28*%
X139203641Y-118980000D02*
X138896359Y-118980000D01*
X139203641Y-118220000D02*
X138896359Y-118220000D01*
%TO.C,F2*%
X111260000Y-93052064D02*
X111260000Y-91847936D01*
X109440000Y-93052064D02*
X109440000Y-91847936D01*
%TO.C,C10*%
X170427836Y-95140000D02*
X170212164Y-95140000D01*
X170427836Y-95860000D02*
X170212164Y-95860000D01*
%TO.C,U17*%
X179780000Y-130990000D02*
X176660000Y-130990000D01*
X178220000Y-134110000D02*
X176660000Y-134110000D01*
X176660000Y-130990000D02*
X176660000Y-131140000D01*
X179780000Y-130990000D02*
X179780000Y-131140000D01*
X176660000Y-134110000D02*
X176660000Y-133960000D01*
%TO.C,R55*%
X142537258Y-108972500D02*
X142062742Y-108972500D01*
X142537258Y-107927500D02*
X142062742Y-107927500D01*
%TO.C,R13*%
X179946359Y-100805000D02*
X180253641Y-100805000D01*
X179946359Y-100045000D02*
X180253641Y-100045000D01*
%TO.C,D7*%
X124950000Y-124943767D02*
X121100000Y-124943767D01*
X124950000Y-126943767D02*
X124950000Y-124943767D01*
X124950000Y-126943767D02*
X121100000Y-126943767D01*
D16*
%TO.C,D6*%
X163085860Y-95261620D02*
G75*
G03*
X163085860Y-95261620I-50000J0D01*
G01*
D14*
%TO.C,R14*%
X134987258Y-86727500D02*
X134512742Y-86727500D01*
X134987258Y-87772500D02*
X134512742Y-87772500D01*
%TO.C,R37*%
X188862258Y-94977500D02*
X188387742Y-94977500D01*
X188862258Y-96022500D02*
X188387742Y-96022500D01*
%TO.C,R46*%
X122917230Y-106785424D02*
X122917230Y-107259940D01*
X121872230Y-106785424D02*
X121872230Y-107259940D01*
%TO.C,R17*%
X125512258Y-87622500D02*
X125037742Y-87622500D01*
X125512258Y-86577500D02*
X125037742Y-86577500D01*
%TO.C,CP1*%
X149115000Y-92595000D02*
X149115000Y-99355000D01*
X152535000Y-99355000D02*
X152535000Y-92595000D01*
X149115000Y-99355000D02*
X152535000Y-99355000D01*
%TO.C,D16*%
X191785000Y-97150000D02*
X191785000Y-94865000D01*
X191785000Y-94865000D02*
X190315000Y-94865000D01*
X190315000Y-94865000D02*
X190315000Y-97150000D01*
%TO.C,R45*%
X112762742Y-115122500D02*
X113237258Y-115122500D01*
X112762742Y-114077500D02*
X113237258Y-114077500D01*
%TD*%
M02*
