%TF.GenerationSoftware,KiCad,Pcbnew,(7.0.0)*%
%TF.CreationDate,2023-02-21T11:21:45+08:00*%
%TF.ProjectId,roam,726f616d-2e6b-4696-9361-645f70636258,rev?*%
%TF.SameCoordinates,Original*%
%TF.FileFunction,Legend,Bot*%
%TF.FilePolarity,Positive*%
%FSLAX46Y46*%
G04 Gerber Fmt 4.6, Leading zero omitted, Abs format (unit mm)*
G04 Created by KiCad (PCBNEW (7.0.0)) date 2023-02-21 11:21:45*
%MOMM*%
%LPD*%
G01*
G04 APERTURE LIST*
%ADD10C,0.200000*%
%ADD11C,0.120000*%
%ADD12C,0.127000*%
%ADD13C,0.100000*%
G04 APERTURE END LIST*
D10*
X231787142Y-102437500D02*
X231072857Y-102437500D01*
X231929999Y-102866071D02*
X231429999Y-101366071D01*
X231429999Y-101366071D02*
X230929999Y-102866071D01*
X230430000Y-101366071D02*
X230430000Y-102580357D01*
X230430000Y-102580357D02*
X230358571Y-102723214D01*
X230358571Y-102723214D02*
X230287143Y-102794642D01*
X230287143Y-102794642D02*
X230144285Y-102866071D01*
X230144285Y-102866071D02*
X229858571Y-102866071D01*
X229858571Y-102866071D02*
X229715714Y-102794642D01*
X229715714Y-102794642D02*
X229644285Y-102723214D01*
X229644285Y-102723214D02*
X229572857Y-102580357D01*
X229572857Y-102580357D02*
X229572857Y-101366071D01*
X229001428Y-101366071D02*
X228001428Y-102866071D01*
X228001428Y-101366071D02*
X229001428Y-102866071D01*
X113561904Y-124722619D02*
X112990476Y-124722619D01*
X113276190Y-124722619D02*
X113276190Y-125722619D01*
X113276190Y-125722619D02*
X113180952Y-125579761D01*
X113180952Y-125579761D02*
X113085714Y-125484523D01*
X113085714Y-125484523D02*
X112990476Y-125436904D01*
X114180952Y-125722619D02*
X114276190Y-125722619D01*
X114276190Y-125722619D02*
X114371428Y-125675000D01*
X114371428Y-125675000D02*
X114419047Y-125627380D01*
X114419047Y-125627380D02*
X114466666Y-125532142D01*
X114466666Y-125532142D02*
X114514285Y-125341666D01*
X114514285Y-125341666D02*
X114514285Y-125103571D01*
X114514285Y-125103571D02*
X114466666Y-124913095D01*
X114466666Y-124913095D02*
X114419047Y-124817857D01*
X114419047Y-124817857D02*
X114371428Y-124770238D01*
X114371428Y-124770238D02*
X114276190Y-124722619D01*
X114276190Y-124722619D02*
X114180952Y-124722619D01*
X114180952Y-124722619D02*
X114085714Y-124770238D01*
X114085714Y-124770238D02*
X114038095Y-124817857D01*
X114038095Y-124817857D02*
X113990476Y-124913095D01*
X113990476Y-124913095D02*
X113942857Y-125103571D01*
X113942857Y-125103571D02*
X113942857Y-125341666D01*
X113942857Y-125341666D02*
X113990476Y-125532142D01*
X113990476Y-125532142D02*
X114038095Y-125627380D01*
X114038095Y-125627380D02*
X114085714Y-125675000D01*
X114085714Y-125675000D02*
X114180952Y-125722619D01*
X115495238Y-124770238D02*
X115638095Y-124722619D01*
X115638095Y-124722619D02*
X115876190Y-124722619D01*
X115876190Y-124722619D02*
X115971428Y-124770238D01*
X115971428Y-124770238D02*
X116019047Y-124817857D01*
X116019047Y-124817857D02*
X116066666Y-124913095D01*
X116066666Y-124913095D02*
X116066666Y-125008333D01*
X116066666Y-125008333D02*
X116019047Y-125103571D01*
X116019047Y-125103571D02*
X115971428Y-125151190D01*
X115971428Y-125151190D02*
X115876190Y-125198809D01*
X115876190Y-125198809D02*
X115685714Y-125246428D01*
X115685714Y-125246428D02*
X115590476Y-125294047D01*
X115590476Y-125294047D02*
X115542857Y-125341666D01*
X115542857Y-125341666D02*
X115495238Y-125436904D01*
X115495238Y-125436904D02*
X115495238Y-125532142D01*
X115495238Y-125532142D02*
X115542857Y-125627380D01*
X115542857Y-125627380D02*
X115590476Y-125675000D01*
X115590476Y-125675000D02*
X115685714Y-125722619D01*
X115685714Y-125722619D02*
X115923809Y-125722619D01*
X115923809Y-125722619D02*
X116066666Y-125675000D01*
X116400000Y-125722619D02*
X116638095Y-124722619D01*
X116638095Y-124722619D02*
X116828571Y-125436904D01*
X116828571Y-125436904D02*
X117019047Y-124722619D01*
X117019047Y-124722619D02*
X117257143Y-125722619D01*
X117638095Y-124722619D02*
X117638095Y-125722619D01*
X117638095Y-125722619D02*
X117876190Y-125722619D01*
X117876190Y-125722619D02*
X118019047Y-125675000D01*
X118019047Y-125675000D02*
X118114285Y-125579761D01*
X118114285Y-125579761D02*
X118161904Y-125484523D01*
X118161904Y-125484523D02*
X118209523Y-125294047D01*
X118209523Y-125294047D02*
X118209523Y-125151190D01*
X118209523Y-125151190D02*
X118161904Y-124960714D01*
X118161904Y-124960714D02*
X118114285Y-124865476D01*
X118114285Y-124865476D02*
X118019047Y-124770238D01*
X118019047Y-124770238D02*
X117876190Y-124722619D01*
X117876190Y-124722619D02*
X117638095Y-124722619D01*
X118638095Y-124722619D02*
X118638095Y-125722619D01*
X119304761Y-125722619D02*
X119495237Y-125722619D01*
X119495237Y-125722619D02*
X119590475Y-125675000D01*
X119590475Y-125675000D02*
X119685713Y-125579761D01*
X119685713Y-125579761D02*
X119733332Y-125389285D01*
X119733332Y-125389285D02*
X119733332Y-125055952D01*
X119733332Y-125055952D02*
X119685713Y-124865476D01*
X119685713Y-124865476D02*
X119590475Y-124770238D01*
X119590475Y-124770238D02*
X119495237Y-124722619D01*
X119495237Y-124722619D02*
X119304761Y-124722619D01*
X119304761Y-124722619D02*
X119209523Y-124770238D01*
X119209523Y-124770238D02*
X119114285Y-124865476D01*
X119114285Y-124865476D02*
X119066666Y-125055952D01*
X119066666Y-125055952D02*
X119066666Y-125389285D01*
X119066666Y-125389285D02*
X119114285Y-125579761D01*
X119114285Y-125579761D02*
X119209523Y-125675000D01*
X119209523Y-125675000D02*
X119304761Y-125722619D01*
X113561904Y-123102619D02*
X112990476Y-123102619D01*
X113276190Y-123102619D02*
X113276190Y-124102619D01*
X113276190Y-124102619D02*
X113180952Y-123959761D01*
X113180952Y-123959761D02*
X113085714Y-123864523D01*
X113085714Y-123864523D02*
X112990476Y-123816904D01*
X114514285Y-123102619D02*
X113942857Y-123102619D01*
X114228571Y-123102619D02*
X114228571Y-124102619D01*
X114228571Y-124102619D02*
X114133333Y-123959761D01*
X114133333Y-123959761D02*
X114038095Y-123864523D01*
X114038095Y-123864523D02*
X113942857Y-123816904D01*
X115495238Y-123150238D02*
X115638095Y-123102619D01*
X115638095Y-123102619D02*
X115876190Y-123102619D01*
X115876190Y-123102619D02*
X115971428Y-123150238D01*
X115971428Y-123150238D02*
X116019047Y-123197857D01*
X116019047Y-123197857D02*
X116066666Y-123293095D01*
X116066666Y-123293095D02*
X116066666Y-123388333D01*
X116066666Y-123388333D02*
X116019047Y-123483571D01*
X116019047Y-123483571D02*
X115971428Y-123531190D01*
X115971428Y-123531190D02*
X115876190Y-123578809D01*
X115876190Y-123578809D02*
X115685714Y-123626428D01*
X115685714Y-123626428D02*
X115590476Y-123674047D01*
X115590476Y-123674047D02*
X115542857Y-123721666D01*
X115542857Y-123721666D02*
X115495238Y-123816904D01*
X115495238Y-123816904D02*
X115495238Y-123912142D01*
X115495238Y-123912142D02*
X115542857Y-124007380D01*
X115542857Y-124007380D02*
X115590476Y-124055000D01*
X115590476Y-124055000D02*
X115685714Y-124102619D01*
X115685714Y-124102619D02*
X115923809Y-124102619D01*
X115923809Y-124102619D02*
X116066666Y-124055000D01*
X116400000Y-124102619D02*
X116638095Y-123102619D01*
X116638095Y-123102619D02*
X116828571Y-123816904D01*
X116828571Y-123816904D02*
X117019047Y-123102619D01*
X117019047Y-123102619D02*
X117257143Y-124102619D01*
X118209523Y-123197857D02*
X118161904Y-123150238D01*
X118161904Y-123150238D02*
X118019047Y-123102619D01*
X118019047Y-123102619D02*
X117923809Y-123102619D01*
X117923809Y-123102619D02*
X117780952Y-123150238D01*
X117780952Y-123150238D02*
X117685714Y-123245476D01*
X117685714Y-123245476D02*
X117638095Y-123340714D01*
X117638095Y-123340714D02*
X117590476Y-123531190D01*
X117590476Y-123531190D02*
X117590476Y-123674047D01*
X117590476Y-123674047D02*
X117638095Y-123864523D01*
X117638095Y-123864523D02*
X117685714Y-123959761D01*
X117685714Y-123959761D02*
X117780952Y-124055000D01*
X117780952Y-124055000D02*
X117923809Y-124102619D01*
X117923809Y-124102619D02*
X118019047Y-124102619D01*
X118019047Y-124102619D02*
X118161904Y-124055000D01*
X118161904Y-124055000D02*
X118209523Y-124007380D01*
X119114285Y-123102619D02*
X118638095Y-123102619D01*
X118638095Y-123102619D02*
X118638095Y-124102619D01*
X119447619Y-123102619D02*
X119447619Y-124102619D01*
X120019047Y-123102619D02*
X119590476Y-123674047D01*
X120019047Y-124102619D02*
X119447619Y-123531190D01*
X113561904Y-121482619D02*
X112990476Y-121482619D01*
X113276190Y-121482619D02*
X113276190Y-122482619D01*
X113276190Y-122482619D02*
X113180952Y-122339761D01*
X113180952Y-122339761D02*
X113085714Y-122244523D01*
X113085714Y-122244523D02*
X112990476Y-122196904D01*
X113942857Y-122387380D02*
X113990476Y-122435000D01*
X113990476Y-122435000D02*
X114085714Y-122482619D01*
X114085714Y-122482619D02*
X114323809Y-122482619D01*
X114323809Y-122482619D02*
X114419047Y-122435000D01*
X114419047Y-122435000D02*
X114466666Y-122387380D01*
X114466666Y-122387380D02*
X114514285Y-122292142D01*
X114514285Y-122292142D02*
X114514285Y-122196904D01*
X114514285Y-122196904D02*
X114466666Y-122054047D01*
X114466666Y-122054047D02*
X113895238Y-121482619D01*
X113895238Y-121482619D02*
X114514285Y-121482619D01*
X113561904Y-119862619D02*
X112990476Y-119862619D01*
X113276190Y-119862619D02*
X113276190Y-120862619D01*
X113276190Y-120862619D02*
X113180952Y-120719761D01*
X113180952Y-120719761D02*
X113085714Y-120624523D01*
X113085714Y-120624523D02*
X112990476Y-120576904D01*
X113895238Y-120862619D02*
X114514285Y-120862619D01*
X114514285Y-120862619D02*
X114180952Y-120481666D01*
X114180952Y-120481666D02*
X114323809Y-120481666D01*
X114323809Y-120481666D02*
X114419047Y-120434047D01*
X114419047Y-120434047D02*
X114466666Y-120386428D01*
X114466666Y-120386428D02*
X114514285Y-120291190D01*
X114514285Y-120291190D02*
X114514285Y-120053095D01*
X114514285Y-120053095D02*
X114466666Y-119957857D01*
X114466666Y-119957857D02*
X114419047Y-119910238D01*
X114419047Y-119910238D02*
X114323809Y-119862619D01*
X114323809Y-119862619D02*
X114038095Y-119862619D01*
X114038095Y-119862619D02*
X113942857Y-119910238D01*
X113942857Y-119910238D02*
X113895238Y-119957857D01*
X113561904Y-118242619D02*
X112990476Y-118242619D01*
X113276190Y-118242619D02*
X113276190Y-119242619D01*
X113276190Y-119242619D02*
X113180952Y-119099761D01*
X113180952Y-119099761D02*
X113085714Y-119004523D01*
X113085714Y-119004523D02*
X112990476Y-118956904D01*
X114419047Y-118909285D02*
X114419047Y-118242619D01*
X114180952Y-119290238D02*
X113942857Y-118575952D01*
X113942857Y-118575952D02*
X114561904Y-118575952D01*
X113561904Y-116622619D02*
X112990476Y-116622619D01*
X113276190Y-116622619D02*
X113276190Y-117622619D01*
X113276190Y-117622619D02*
X113180952Y-117479761D01*
X113180952Y-117479761D02*
X113085714Y-117384523D01*
X113085714Y-117384523D02*
X112990476Y-117336904D01*
X114466666Y-117622619D02*
X113990476Y-117622619D01*
X113990476Y-117622619D02*
X113942857Y-117146428D01*
X113942857Y-117146428D02*
X113990476Y-117194047D01*
X113990476Y-117194047D02*
X114085714Y-117241666D01*
X114085714Y-117241666D02*
X114323809Y-117241666D01*
X114323809Y-117241666D02*
X114419047Y-117194047D01*
X114419047Y-117194047D02*
X114466666Y-117146428D01*
X114466666Y-117146428D02*
X114514285Y-117051190D01*
X114514285Y-117051190D02*
X114514285Y-116813095D01*
X114514285Y-116813095D02*
X114466666Y-116717857D01*
X114466666Y-116717857D02*
X114419047Y-116670238D01*
X114419047Y-116670238D02*
X114323809Y-116622619D01*
X114323809Y-116622619D02*
X114085714Y-116622619D01*
X114085714Y-116622619D02*
X113990476Y-116670238D01*
X113990476Y-116670238D02*
X113942857Y-116717857D01*
X113561904Y-115002619D02*
X112990476Y-115002619D01*
X113276190Y-115002619D02*
X113276190Y-116002619D01*
X113276190Y-116002619D02*
X113180952Y-115859761D01*
X113180952Y-115859761D02*
X113085714Y-115764523D01*
X113085714Y-115764523D02*
X112990476Y-115716904D01*
X114419047Y-116002619D02*
X114228571Y-116002619D01*
X114228571Y-116002619D02*
X114133333Y-115955000D01*
X114133333Y-115955000D02*
X114085714Y-115907380D01*
X114085714Y-115907380D02*
X113990476Y-115764523D01*
X113990476Y-115764523D02*
X113942857Y-115574047D01*
X113942857Y-115574047D02*
X113942857Y-115193095D01*
X113942857Y-115193095D02*
X113990476Y-115097857D01*
X113990476Y-115097857D02*
X114038095Y-115050238D01*
X114038095Y-115050238D02*
X114133333Y-115002619D01*
X114133333Y-115002619D02*
X114323809Y-115002619D01*
X114323809Y-115002619D02*
X114419047Y-115050238D01*
X114419047Y-115050238D02*
X114466666Y-115097857D01*
X114466666Y-115097857D02*
X114514285Y-115193095D01*
X114514285Y-115193095D02*
X114514285Y-115431190D01*
X114514285Y-115431190D02*
X114466666Y-115526428D01*
X114466666Y-115526428D02*
X114419047Y-115574047D01*
X114419047Y-115574047D02*
X114323809Y-115621666D01*
X114323809Y-115621666D02*
X114133333Y-115621666D01*
X114133333Y-115621666D02*
X114038095Y-115574047D01*
X114038095Y-115574047D02*
X113990476Y-115526428D01*
X113990476Y-115526428D02*
X113942857Y-115431190D01*
X113561904Y-113382619D02*
X112990476Y-113382619D01*
X113276190Y-113382619D02*
X113276190Y-114382619D01*
X113276190Y-114382619D02*
X113180952Y-114239761D01*
X113180952Y-114239761D02*
X113085714Y-114144523D01*
X113085714Y-114144523D02*
X112990476Y-114096904D01*
X113895238Y-114382619D02*
X114561904Y-114382619D01*
X114561904Y-114382619D02*
X114133333Y-113382619D01*
X113561904Y-111762619D02*
X112990476Y-111762619D01*
X113276190Y-111762619D02*
X113276190Y-112762619D01*
X113276190Y-112762619D02*
X113180952Y-112619761D01*
X113180952Y-112619761D02*
X113085714Y-112524523D01*
X113085714Y-112524523D02*
X112990476Y-112476904D01*
X114133333Y-112334047D02*
X114038095Y-112381666D01*
X114038095Y-112381666D02*
X113990476Y-112429285D01*
X113990476Y-112429285D02*
X113942857Y-112524523D01*
X113942857Y-112524523D02*
X113942857Y-112572142D01*
X113942857Y-112572142D02*
X113990476Y-112667380D01*
X113990476Y-112667380D02*
X114038095Y-112715000D01*
X114038095Y-112715000D02*
X114133333Y-112762619D01*
X114133333Y-112762619D02*
X114323809Y-112762619D01*
X114323809Y-112762619D02*
X114419047Y-112715000D01*
X114419047Y-112715000D02*
X114466666Y-112667380D01*
X114466666Y-112667380D02*
X114514285Y-112572142D01*
X114514285Y-112572142D02*
X114514285Y-112524523D01*
X114514285Y-112524523D02*
X114466666Y-112429285D01*
X114466666Y-112429285D02*
X114419047Y-112381666D01*
X114419047Y-112381666D02*
X114323809Y-112334047D01*
X114323809Y-112334047D02*
X114133333Y-112334047D01*
X114133333Y-112334047D02*
X114038095Y-112286428D01*
X114038095Y-112286428D02*
X113990476Y-112238809D01*
X113990476Y-112238809D02*
X113942857Y-112143571D01*
X113942857Y-112143571D02*
X113942857Y-111953095D01*
X113942857Y-111953095D02*
X113990476Y-111857857D01*
X113990476Y-111857857D02*
X114038095Y-111810238D01*
X114038095Y-111810238D02*
X114133333Y-111762619D01*
X114133333Y-111762619D02*
X114323809Y-111762619D01*
X114323809Y-111762619D02*
X114419047Y-111810238D01*
X114419047Y-111810238D02*
X114466666Y-111857857D01*
X114466666Y-111857857D02*
X114514285Y-111953095D01*
X114514285Y-111953095D02*
X114514285Y-112143571D01*
X114514285Y-112143571D02*
X114466666Y-112238809D01*
X114466666Y-112238809D02*
X114419047Y-112286428D01*
X114419047Y-112286428D02*
X114323809Y-112334047D01*
X116066666Y-112715000D02*
X115971428Y-112762619D01*
X115971428Y-112762619D02*
X115828571Y-112762619D01*
X115828571Y-112762619D02*
X115685714Y-112715000D01*
X115685714Y-112715000D02*
X115590476Y-112619761D01*
X115590476Y-112619761D02*
X115542857Y-112524523D01*
X115542857Y-112524523D02*
X115495238Y-112334047D01*
X115495238Y-112334047D02*
X115495238Y-112191190D01*
X115495238Y-112191190D02*
X115542857Y-112000714D01*
X115542857Y-112000714D02*
X115590476Y-111905476D01*
X115590476Y-111905476D02*
X115685714Y-111810238D01*
X115685714Y-111810238D02*
X115828571Y-111762619D01*
X115828571Y-111762619D02*
X115923809Y-111762619D01*
X115923809Y-111762619D02*
X116066666Y-111810238D01*
X116066666Y-111810238D02*
X116114285Y-111857857D01*
X116114285Y-111857857D02*
X116114285Y-112191190D01*
X116114285Y-112191190D02*
X115923809Y-112191190D01*
X116542857Y-111762619D02*
X116542857Y-112762619D01*
X116542857Y-112762619D02*
X117114285Y-111762619D01*
X117114285Y-111762619D02*
X117114285Y-112762619D01*
X117590476Y-111762619D02*
X117590476Y-112762619D01*
X117590476Y-112762619D02*
X117828571Y-112762619D01*
X117828571Y-112762619D02*
X117971428Y-112715000D01*
X117971428Y-112715000D02*
X118066666Y-112619761D01*
X118066666Y-112619761D02*
X118114285Y-112524523D01*
X118114285Y-112524523D02*
X118161904Y-112334047D01*
X118161904Y-112334047D02*
X118161904Y-112191190D01*
X118161904Y-112191190D02*
X118114285Y-112000714D01*
X118114285Y-112000714D02*
X118066666Y-111905476D01*
X118066666Y-111905476D02*
X117971428Y-111810238D01*
X117971428Y-111810238D02*
X117828571Y-111762619D01*
X117828571Y-111762619D02*
X117590476Y-111762619D01*
X226651428Y-107766071D02*
X226651428Y-106266071D01*
X226651428Y-106266071D02*
X225794285Y-107766071D01*
X225794285Y-107766071D02*
X225794285Y-106266071D01*
X224222856Y-107766071D02*
X224722856Y-107051785D01*
X225079999Y-107766071D02*
X225079999Y-106266071D01*
X225079999Y-106266071D02*
X224508570Y-106266071D01*
X224508570Y-106266071D02*
X224365713Y-106337500D01*
X224365713Y-106337500D02*
X224294284Y-106408928D01*
X224294284Y-106408928D02*
X224222856Y-106551785D01*
X224222856Y-106551785D02*
X224222856Y-106766071D01*
X224222856Y-106766071D02*
X224294284Y-106908928D01*
X224294284Y-106908928D02*
X224365713Y-106980357D01*
X224365713Y-106980357D02*
X224508570Y-107051785D01*
X224508570Y-107051785D02*
X225079999Y-107051785D01*
X223079999Y-106980357D02*
X223579999Y-106980357D01*
X223579999Y-107766071D02*
X223579999Y-106266071D01*
X223579999Y-106266071D02*
X222865713Y-106266071D01*
X223822857Y-110373214D02*
X223894285Y-110444642D01*
X223894285Y-110444642D02*
X224108571Y-110516071D01*
X224108571Y-110516071D02*
X224251428Y-110516071D01*
X224251428Y-110516071D02*
X224465714Y-110444642D01*
X224465714Y-110444642D02*
X224608571Y-110301785D01*
X224608571Y-110301785D02*
X224680000Y-110158928D01*
X224680000Y-110158928D02*
X224751428Y-109873214D01*
X224751428Y-109873214D02*
X224751428Y-109658928D01*
X224751428Y-109658928D02*
X224680000Y-109373214D01*
X224680000Y-109373214D02*
X224608571Y-109230357D01*
X224608571Y-109230357D02*
X224465714Y-109087500D01*
X224465714Y-109087500D02*
X224251428Y-109016071D01*
X224251428Y-109016071D02*
X224108571Y-109016071D01*
X224108571Y-109016071D02*
X223894285Y-109087500D01*
X223894285Y-109087500D02*
X223822857Y-109158928D01*
X222894285Y-109016071D02*
X222608571Y-109016071D01*
X222608571Y-109016071D02*
X222465714Y-109087500D01*
X222465714Y-109087500D02*
X222322857Y-109230357D01*
X222322857Y-109230357D02*
X222251428Y-109516071D01*
X222251428Y-109516071D02*
X222251428Y-110016071D01*
X222251428Y-110016071D02*
X222322857Y-110301785D01*
X222322857Y-110301785D02*
X222465714Y-110444642D01*
X222465714Y-110444642D02*
X222608571Y-110516071D01*
X222608571Y-110516071D02*
X222894285Y-110516071D01*
X222894285Y-110516071D02*
X223037143Y-110444642D01*
X223037143Y-110444642D02*
X223180000Y-110301785D01*
X223180000Y-110301785D02*
X223251428Y-110016071D01*
X223251428Y-110016071D02*
X223251428Y-109516071D01*
X223251428Y-109516071D02*
X223180000Y-109230357D01*
X223180000Y-109230357D02*
X223037143Y-109087500D01*
X223037143Y-109087500D02*
X222894285Y-109016071D01*
X221608571Y-110516071D02*
X221608571Y-109016071D01*
X221608571Y-109016071D02*
X220751428Y-110516071D01*
X220751428Y-110516071D02*
X220751428Y-109016071D01*
X220037142Y-110516071D02*
X220037142Y-109016071D01*
X220037142Y-109016071D02*
X219179999Y-110516071D01*
X219179999Y-110516071D02*
X219179999Y-109016071D01*
X121961904Y-124722619D02*
X121390476Y-124722619D01*
X121676190Y-124722619D02*
X121676190Y-125722619D01*
X121676190Y-125722619D02*
X121580952Y-125579761D01*
X121580952Y-125579761D02*
X121485714Y-125484523D01*
X121485714Y-125484523D02*
X121390476Y-125436904D01*
X122847619Y-125722619D02*
X123180952Y-124722619D01*
X123180952Y-124722619D02*
X123514285Y-125722619D01*
X123847619Y-124722619D02*
X123847619Y-125722619D01*
X124323809Y-124722619D02*
X124323809Y-125722619D01*
X124323809Y-125722619D02*
X124895237Y-124722619D01*
X124895237Y-124722619D02*
X124895237Y-125722619D01*
X121390476Y-124007380D02*
X121438095Y-124055000D01*
X121438095Y-124055000D02*
X121533333Y-124102619D01*
X121533333Y-124102619D02*
X121771428Y-124102619D01*
X121771428Y-124102619D02*
X121866666Y-124055000D01*
X121866666Y-124055000D02*
X121914285Y-124007380D01*
X121914285Y-124007380D02*
X121961904Y-123912142D01*
X121961904Y-123912142D02*
X121961904Y-123816904D01*
X121961904Y-123816904D02*
X121914285Y-123674047D01*
X121914285Y-123674047D02*
X121342857Y-123102619D01*
X121342857Y-123102619D02*
X121961904Y-123102619D01*
X123561904Y-123197857D02*
X123514285Y-123150238D01*
X123514285Y-123150238D02*
X123371428Y-123102619D01*
X123371428Y-123102619D02*
X123276190Y-123102619D01*
X123276190Y-123102619D02*
X123133333Y-123150238D01*
X123133333Y-123150238D02*
X123038095Y-123245476D01*
X123038095Y-123245476D02*
X122990476Y-123340714D01*
X122990476Y-123340714D02*
X122942857Y-123531190D01*
X122942857Y-123531190D02*
X122942857Y-123674047D01*
X122942857Y-123674047D02*
X122990476Y-123864523D01*
X122990476Y-123864523D02*
X123038095Y-123959761D01*
X123038095Y-123959761D02*
X123133333Y-124055000D01*
X123133333Y-124055000D02*
X123276190Y-124102619D01*
X123276190Y-124102619D02*
X123371428Y-124102619D01*
X123371428Y-124102619D02*
X123514285Y-124055000D01*
X123514285Y-124055000D02*
X123561904Y-124007380D01*
X123942857Y-123388333D02*
X124419047Y-123388333D01*
X123847619Y-123102619D02*
X124180952Y-124102619D01*
X124180952Y-124102619D02*
X124514285Y-123102619D01*
X124847619Y-123102619D02*
X124847619Y-124102619D01*
X124847619Y-124102619D02*
X125419047Y-123102619D01*
X125419047Y-123102619D02*
X125419047Y-124102619D01*
X125657143Y-123007380D02*
X126419047Y-123007380D01*
X126609524Y-124007380D02*
X126657143Y-124055000D01*
X126657143Y-124055000D02*
X126752381Y-124102619D01*
X126752381Y-124102619D02*
X126990476Y-124102619D01*
X126990476Y-124102619D02*
X127085714Y-124055000D01*
X127085714Y-124055000D02*
X127133333Y-124007380D01*
X127133333Y-124007380D02*
X127180952Y-123912142D01*
X127180952Y-123912142D02*
X127180952Y-123816904D01*
X127180952Y-123816904D02*
X127133333Y-123674047D01*
X127133333Y-123674047D02*
X126561905Y-123102619D01*
X126561905Y-123102619D02*
X127180952Y-123102619D01*
X128085714Y-124102619D02*
X127609524Y-124102619D01*
X127609524Y-124102619D02*
X127561905Y-123626428D01*
X127561905Y-123626428D02*
X127609524Y-123674047D01*
X127609524Y-123674047D02*
X127704762Y-123721666D01*
X127704762Y-123721666D02*
X127942857Y-123721666D01*
X127942857Y-123721666D02*
X128038095Y-123674047D01*
X128038095Y-123674047D02*
X128085714Y-123626428D01*
X128085714Y-123626428D02*
X128133333Y-123531190D01*
X128133333Y-123531190D02*
X128133333Y-123293095D01*
X128133333Y-123293095D02*
X128085714Y-123197857D01*
X128085714Y-123197857D02*
X128038095Y-123150238D01*
X128038095Y-123150238D02*
X127942857Y-123102619D01*
X127942857Y-123102619D02*
X127704762Y-123102619D01*
X127704762Y-123102619D02*
X127609524Y-123150238D01*
X127609524Y-123150238D02*
X127561905Y-123197857D01*
X128752381Y-124102619D02*
X128847619Y-124102619D01*
X128847619Y-124102619D02*
X128942857Y-124055000D01*
X128942857Y-124055000D02*
X128990476Y-124007380D01*
X128990476Y-124007380D02*
X129038095Y-123912142D01*
X129038095Y-123912142D02*
X129085714Y-123721666D01*
X129085714Y-123721666D02*
X129085714Y-123483571D01*
X129085714Y-123483571D02*
X129038095Y-123293095D01*
X129038095Y-123293095D02*
X128990476Y-123197857D01*
X128990476Y-123197857D02*
X128942857Y-123150238D01*
X128942857Y-123150238D02*
X128847619Y-123102619D01*
X128847619Y-123102619D02*
X128752381Y-123102619D01*
X128752381Y-123102619D02*
X128657143Y-123150238D01*
X128657143Y-123150238D02*
X128609524Y-123197857D01*
X128609524Y-123197857D02*
X128561905Y-123293095D01*
X128561905Y-123293095D02*
X128514286Y-123483571D01*
X128514286Y-123483571D02*
X128514286Y-123721666D01*
X128514286Y-123721666D02*
X128561905Y-123912142D01*
X128561905Y-123912142D02*
X128609524Y-124007380D01*
X128609524Y-124007380D02*
X128657143Y-124055000D01*
X128657143Y-124055000D02*
X128752381Y-124102619D01*
X129276191Y-123007380D02*
X130038095Y-123007380D01*
X130276191Y-123102619D02*
X130276191Y-124102619D01*
X130276191Y-123626428D02*
X130847619Y-123626428D01*
X130847619Y-123102619D02*
X130847619Y-124102619D01*
X121342857Y-122482619D02*
X121961904Y-122482619D01*
X121961904Y-122482619D02*
X121628571Y-122101666D01*
X121628571Y-122101666D02*
X121771428Y-122101666D01*
X121771428Y-122101666D02*
X121866666Y-122054047D01*
X121866666Y-122054047D02*
X121914285Y-122006428D01*
X121914285Y-122006428D02*
X121961904Y-121911190D01*
X121961904Y-121911190D02*
X121961904Y-121673095D01*
X121961904Y-121673095D02*
X121914285Y-121577857D01*
X121914285Y-121577857D02*
X121866666Y-121530238D01*
X121866666Y-121530238D02*
X121771428Y-121482619D01*
X121771428Y-121482619D02*
X121485714Y-121482619D01*
X121485714Y-121482619D02*
X121390476Y-121530238D01*
X121390476Y-121530238D02*
X121342857Y-121577857D01*
X123561904Y-121577857D02*
X123514285Y-121530238D01*
X123514285Y-121530238D02*
X123371428Y-121482619D01*
X123371428Y-121482619D02*
X123276190Y-121482619D01*
X123276190Y-121482619D02*
X123133333Y-121530238D01*
X123133333Y-121530238D02*
X123038095Y-121625476D01*
X123038095Y-121625476D02*
X122990476Y-121720714D01*
X122990476Y-121720714D02*
X122942857Y-121911190D01*
X122942857Y-121911190D02*
X122942857Y-122054047D01*
X122942857Y-122054047D02*
X122990476Y-122244523D01*
X122990476Y-122244523D02*
X123038095Y-122339761D01*
X123038095Y-122339761D02*
X123133333Y-122435000D01*
X123133333Y-122435000D02*
X123276190Y-122482619D01*
X123276190Y-122482619D02*
X123371428Y-122482619D01*
X123371428Y-122482619D02*
X123514285Y-122435000D01*
X123514285Y-122435000D02*
X123561904Y-122387380D01*
X123942857Y-121768333D02*
X124419047Y-121768333D01*
X123847619Y-121482619D02*
X124180952Y-122482619D01*
X124180952Y-122482619D02*
X124514285Y-121482619D01*
X124847619Y-121482619D02*
X124847619Y-122482619D01*
X124847619Y-122482619D02*
X125419047Y-121482619D01*
X125419047Y-121482619D02*
X125419047Y-122482619D01*
X125657143Y-121387380D02*
X126419047Y-121387380D01*
X126609524Y-122387380D02*
X126657143Y-122435000D01*
X126657143Y-122435000D02*
X126752381Y-122482619D01*
X126752381Y-122482619D02*
X126990476Y-122482619D01*
X126990476Y-122482619D02*
X127085714Y-122435000D01*
X127085714Y-122435000D02*
X127133333Y-122387380D01*
X127133333Y-122387380D02*
X127180952Y-122292142D01*
X127180952Y-122292142D02*
X127180952Y-122196904D01*
X127180952Y-122196904D02*
X127133333Y-122054047D01*
X127133333Y-122054047D02*
X126561905Y-121482619D01*
X126561905Y-121482619D02*
X127180952Y-121482619D01*
X128085714Y-122482619D02*
X127609524Y-122482619D01*
X127609524Y-122482619D02*
X127561905Y-122006428D01*
X127561905Y-122006428D02*
X127609524Y-122054047D01*
X127609524Y-122054047D02*
X127704762Y-122101666D01*
X127704762Y-122101666D02*
X127942857Y-122101666D01*
X127942857Y-122101666D02*
X128038095Y-122054047D01*
X128038095Y-122054047D02*
X128085714Y-122006428D01*
X128085714Y-122006428D02*
X128133333Y-121911190D01*
X128133333Y-121911190D02*
X128133333Y-121673095D01*
X128133333Y-121673095D02*
X128085714Y-121577857D01*
X128085714Y-121577857D02*
X128038095Y-121530238D01*
X128038095Y-121530238D02*
X127942857Y-121482619D01*
X127942857Y-121482619D02*
X127704762Y-121482619D01*
X127704762Y-121482619D02*
X127609524Y-121530238D01*
X127609524Y-121530238D02*
X127561905Y-121577857D01*
X128752381Y-122482619D02*
X128847619Y-122482619D01*
X128847619Y-122482619D02*
X128942857Y-122435000D01*
X128942857Y-122435000D02*
X128990476Y-122387380D01*
X128990476Y-122387380D02*
X129038095Y-122292142D01*
X129038095Y-122292142D02*
X129085714Y-122101666D01*
X129085714Y-122101666D02*
X129085714Y-121863571D01*
X129085714Y-121863571D02*
X129038095Y-121673095D01*
X129038095Y-121673095D02*
X128990476Y-121577857D01*
X128990476Y-121577857D02*
X128942857Y-121530238D01*
X128942857Y-121530238D02*
X128847619Y-121482619D01*
X128847619Y-121482619D02*
X128752381Y-121482619D01*
X128752381Y-121482619D02*
X128657143Y-121530238D01*
X128657143Y-121530238D02*
X128609524Y-121577857D01*
X128609524Y-121577857D02*
X128561905Y-121673095D01*
X128561905Y-121673095D02*
X128514286Y-121863571D01*
X128514286Y-121863571D02*
X128514286Y-122101666D01*
X128514286Y-122101666D02*
X128561905Y-122292142D01*
X128561905Y-122292142D02*
X128609524Y-122387380D01*
X128609524Y-122387380D02*
X128657143Y-122435000D01*
X128657143Y-122435000D02*
X128752381Y-122482619D01*
X129276191Y-121387380D02*
X130038095Y-121387380D01*
X130752381Y-121482619D02*
X130276191Y-121482619D01*
X130276191Y-121482619D02*
X130276191Y-122482619D01*
X121866666Y-120529285D02*
X121866666Y-119862619D01*
X121628571Y-120910238D02*
X121390476Y-120195952D01*
X121390476Y-120195952D02*
X122009523Y-120195952D01*
X123561904Y-119957857D02*
X123514285Y-119910238D01*
X123514285Y-119910238D02*
X123371428Y-119862619D01*
X123371428Y-119862619D02*
X123276190Y-119862619D01*
X123276190Y-119862619D02*
X123133333Y-119910238D01*
X123133333Y-119910238D02*
X123038095Y-120005476D01*
X123038095Y-120005476D02*
X122990476Y-120100714D01*
X122990476Y-120100714D02*
X122942857Y-120291190D01*
X122942857Y-120291190D02*
X122942857Y-120434047D01*
X122942857Y-120434047D02*
X122990476Y-120624523D01*
X122990476Y-120624523D02*
X123038095Y-120719761D01*
X123038095Y-120719761D02*
X123133333Y-120815000D01*
X123133333Y-120815000D02*
X123276190Y-120862619D01*
X123276190Y-120862619D02*
X123371428Y-120862619D01*
X123371428Y-120862619D02*
X123514285Y-120815000D01*
X123514285Y-120815000D02*
X123561904Y-120767380D01*
X123942857Y-120148333D02*
X124419047Y-120148333D01*
X123847619Y-119862619D02*
X124180952Y-120862619D01*
X124180952Y-120862619D02*
X124514285Y-119862619D01*
X124847619Y-119862619D02*
X124847619Y-120862619D01*
X124847619Y-120862619D02*
X125419047Y-119862619D01*
X125419047Y-119862619D02*
X125419047Y-120862619D01*
X125657143Y-119767380D02*
X126419047Y-119767380D01*
X127133333Y-120862619D02*
X126657143Y-120862619D01*
X126657143Y-120862619D02*
X126609524Y-120386428D01*
X126609524Y-120386428D02*
X126657143Y-120434047D01*
X126657143Y-120434047D02*
X126752381Y-120481666D01*
X126752381Y-120481666D02*
X126990476Y-120481666D01*
X126990476Y-120481666D02*
X127085714Y-120434047D01*
X127085714Y-120434047D02*
X127133333Y-120386428D01*
X127133333Y-120386428D02*
X127180952Y-120291190D01*
X127180952Y-120291190D02*
X127180952Y-120053095D01*
X127180952Y-120053095D02*
X127133333Y-119957857D01*
X127133333Y-119957857D02*
X127085714Y-119910238D01*
X127085714Y-119910238D02*
X126990476Y-119862619D01*
X126990476Y-119862619D02*
X126752381Y-119862619D01*
X126752381Y-119862619D02*
X126657143Y-119910238D01*
X126657143Y-119910238D02*
X126609524Y-119957857D01*
X127800000Y-120862619D02*
X127895238Y-120862619D01*
X127895238Y-120862619D02*
X127990476Y-120815000D01*
X127990476Y-120815000D02*
X128038095Y-120767380D01*
X128038095Y-120767380D02*
X128085714Y-120672142D01*
X128085714Y-120672142D02*
X128133333Y-120481666D01*
X128133333Y-120481666D02*
X128133333Y-120243571D01*
X128133333Y-120243571D02*
X128085714Y-120053095D01*
X128085714Y-120053095D02*
X128038095Y-119957857D01*
X128038095Y-119957857D02*
X127990476Y-119910238D01*
X127990476Y-119910238D02*
X127895238Y-119862619D01*
X127895238Y-119862619D02*
X127800000Y-119862619D01*
X127800000Y-119862619D02*
X127704762Y-119910238D01*
X127704762Y-119910238D02*
X127657143Y-119957857D01*
X127657143Y-119957857D02*
X127609524Y-120053095D01*
X127609524Y-120053095D02*
X127561905Y-120243571D01*
X127561905Y-120243571D02*
X127561905Y-120481666D01*
X127561905Y-120481666D02*
X127609524Y-120672142D01*
X127609524Y-120672142D02*
X127657143Y-120767380D01*
X127657143Y-120767380D02*
X127704762Y-120815000D01*
X127704762Y-120815000D02*
X127800000Y-120862619D01*
X128752381Y-120862619D02*
X128847619Y-120862619D01*
X128847619Y-120862619D02*
X128942857Y-120815000D01*
X128942857Y-120815000D02*
X128990476Y-120767380D01*
X128990476Y-120767380D02*
X129038095Y-120672142D01*
X129038095Y-120672142D02*
X129085714Y-120481666D01*
X129085714Y-120481666D02*
X129085714Y-120243571D01*
X129085714Y-120243571D02*
X129038095Y-120053095D01*
X129038095Y-120053095D02*
X128990476Y-119957857D01*
X128990476Y-119957857D02*
X128942857Y-119910238D01*
X128942857Y-119910238D02*
X128847619Y-119862619D01*
X128847619Y-119862619D02*
X128752381Y-119862619D01*
X128752381Y-119862619D02*
X128657143Y-119910238D01*
X128657143Y-119910238D02*
X128609524Y-119957857D01*
X128609524Y-119957857D02*
X128561905Y-120053095D01*
X128561905Y-120053095D02*
X128514286Y-120243571D01*
X128514286Y-120243571D02*
X128514286Y-120481666D01*
X128514286Y-120481666D02*
X128561905Y-120672142D01*
X128561905Y-120672142D02*
X128609524Y-120767380D01*
X128609524Y-120767380D02*
X128657143Y-120815000D01*
X128657143Y-120815000D02*
X128752381Y-120862619D01*
X129276191Y-119767380D02*
X130038095Y-119767380D01*
X130276191Y-119862619D02*
X130276191Y-120862619D01*
X130276191Y-120386428D02*
X130847619Y-120386428D01*
X130847619Y-119862619D02*
X130847619Y-120862619D01*
X121914285Y-119242619D02*
X121438095Y-119242619D01*
X121438095Y-119242619D02*
X121390476Y-118766428D01*
X121390476Y-118766428D02*
X121438095Y-118814047D01*
X121438095Y-118814047D02*
X121533333Y-118861666D01*
X121533333Y-118861666D02*
X121771428Y-118861666D01*
X121771428Y-118861666D02*
X121866666Y-118814047D01*
X121866666Y-118814047D02*
X121914285Y-118766428D01*
X121914285Y-118766428D02*
X121961904Y-118671190D01*
X121961904Y-118671190D02*
X121961904Y-118433095D01*
X121961904Y-118433095D02*
X121914285Y-118337857D01*
X121914285Y-118337857D02*
X121866666Y-118290238D01*
X121866666Y-118290238D02*
X121771428Y-118242619D01*
X121771428Y-118242619D02*
X121533333Y-118242619D01*
X121533333Y-118242619D02*
X121438095Y-118290238D01*
X121438095Y-118290238D02*
X121390476Y-118337857D01*
X123561904Y-118337857D02*
X123514285Y-118290238D01*
X123514285Y-118290238D02*
X123371428Y-118242619D01*
X123371428Y-118242619D02*
X123276190Y-118242619D01*
X123276190Y-118242619D02*
X123133333Y-118290238D01*
X123133333Y-118290238D02*
X123038095Y-118385476D01*
X123038095Y-118385476D02*
X122990476Y-118480714D01*
X122990476Y-118480714D02*
X122942857Y-118671190D01*
X122942857Y-118671190D02*
X122942857Y-118814047D01*
X122942857Y-118814047D02*
X122990476Y-119004523D01*
X122990476Y-119004523D02*
X123038095Y-119099761D01*
X123038095Y-119099761D02*
X123133333Y-119195000D01*
X123133333Y-119195000D02*
X123276190Y-119242619D01*
X123276190Y-119242619D02*
X123371428Y-119242619D01*
X123371428Y-119242619D02*
X123514285Y-119195000D01*
X123514285Y-119195000D02*
X123561904Y-119147380D01*
X123942857Y-118528333D02*
X124419047Y-118528333D01*
X123847619Y-118242619D02*
X124180952Y-119242619D01*
X124180952Y-119242619D02*
X124514285Y-118242619D01*
X124847619Y-118242619D02*
X124847619Y-119242619D01*
X124847619Y-119242619D02*
X125419047Y-118242619D01*
X125419047Y-118242619D02*
X125419047Y-119242619D01*
X125657143Y-118147380D02*
X126419047Y-118147380D01*
X127133333Y-119242619D02*
X126657143Y-119242619D01*
X126657143Y-119242619D02*
X126609524Y-118766428D01*
X126609524Y-118766428D02*
X126657143Y-118814047D01*
X126657143Y-118814047D02*
X126752381Y-118861666D01*
X126752381Y-118861666D02*
X126990476Y-118861666D01*
X126990476Y-118861666D02*
X127085714Y-118814047D01*
X127085714Y-118814047D02*
X127133333Y-118766428D01*
X127133333Y-118766428D02*
X127180952Y-118671190D01*
X127180952Y-118671190D02*
X127180952Y-118433095D01*
X127180952Y-118433095D02*
X127133333Y-118337857D01*
X127133333Y-118337857D02*
X127085714Y-118290238D01*
X127085714Y-118290238D02*
X126990476Y-118242619D01*
X126990476Y-118242619D02*
X126752381Y-118242619D01*
X126752381Y-118242619D02*
X126657143Y-118290238D01*
X126657143Y-118290238D02*
X126609524Y-118337857D01*
X127800000Y-119242619D02*
X127895238Y-119242619D01*
X127895238Y-119242619D02*
X127990476Y-119195000D01*
X127990476Y-119195000D02*
X128038095Y-119147380D01*
X128038095Y-119147380D02*
X128085714Y-119052142D01*
X128085714Y-119052142D02*
X128133333Y-118861666D01*
X128133333Y-118861666D02*
X128133333Y-118623571D01*
X128133333Y-118623571D02*
X128085714Y-118433095D01*
X128085714Y-118433095D02*
X128038095Y-118337857D01*
X128038095Y-118337857D02*
X127990476Y-118290238D01*
X127990476Y-118290238D02*
X127895238Y-118242619D01*
X127895238Y-118242619D02*
X127800000Y-118242619D01*
X127800000Y-118242619D02*
X127704762Y-118290238D01*
X127704762Y-118290238D02*
X127657143Y-118337857D01*
X127657143Y-118337857D02*
X127609524Y-118433095D01*
X127609524Y-118433095D02*
X127561905Y-118623571D01*
X127561905Y-118623571D02*
X127561905Y-118861666D01*
X127561905Y-118861666D02*
X127609524Y-119052142D01*
X127609524Y-119052142D02*
X127657143Y-119147380D01*
X127657143Y-119147380D02*
X127704762Y-119195000D01*
X127704762Y-119195000D02*
X127800000Y-119242619D01*
X128752381Y-119242619D02*
X128847619Y-119242619D01*
X128847619Y-119242619D02*
X128942857Y-119195000D01*
X128942857Y-119195000D02*
X128990476Y-119147380D01*
X128990476Y-119147380D02*
X129038095Y-119052142D01*
X129038095Y-119052142D02*
X129085714Y-118861666D01*
X129085714Y-118861666D02*
X129085714Y-118623571D01*
X129085714Y-118623571D02*
X129038095Y-118433095D01*
X129038095Y-118433095D02*
X128990476Y-118337857D01*
X128990476Y-118337857D02*
X128942857Y-118290238D01*
X128942857Y-118290238D02*
X128847619Y-118242619D01*
X128847619Y-118242619D02*
X128752381Y-118242619D01*
X128752381Y-118242619D02*
X128657143Y-118290238D01*
X128657143Y-118290238D02*
X128609524Y-118337857D01*
X128609524Y-118337857D02*
X128561905Y-118433095D01*
X128561905Y-118433095D02*
X128514286Y-118623571D01*
X128514286Y-118623571D02*
X128514286Y-118861666D01*
X128514286Y-118861666D02*
X128561905Y-119052142D01*
X128561905Y-119052142D02*
X128609524Y-119147380D01*
X128609524Y-119147380D02*
X128657143Y-119195000D01*
X128657143Y-119195000D02*
X128752381Y-119242619D01*
X129276191Y-118147380D02*
X130038095Y-118147380D01*
X130752381Y-118242619D02*
X130276191Y-118242619D01*
X130276191Y-118242619D02*
X130276191Y-119242619D01*
X121866666Y-117622619D02*
X121676190Y-117622619D01*
X121676190Y-117622619D02*
X121580952Y-117575000D01*
X121580952Y-117575000D02*
X121533333Y-117527380D01*
X121533333Y-117527380D02*
X121438095Y-117384523D01*
X121438095Y-117384523D02*
X121390476Y-117194047D01*
X121390476Y-117194047D02*
X121390476Y-116813095D01*
X121390476Y-116813095D02*
X121438095Y-116717857D01*
X121438095Y-116717857D02*
X121485714Y-116670238D01*
X121485714Y-116670238D02*
X121580952Y-116622619D01*
X121580952Y-116622619D02*
X121771428Y-116622619D01*
X121771428Y-116622619D02*
X121866666Y-116670238D01*
X121866666Y-116670238D02*
X121914285Y-116717857D01*
X121914285Y-116717857D02*
X121961904Y-116813095D01*
X121961904Y-116813095D02*
X121961904Y-117051190D01*
X121961904Y-117051190D02*
X121914285Y-117146428D01*
X121914285Y-117146428D02*
X121866666Y-117194047D01*
X121866666Y-117194047D02*
X121771428Y-117241666D01*
X121771428Y-117241666D02*
X121580952Y-117241666D01*
X121580952Y-117241666D02*
X121485714Y-117194047D01*
X121485714Y-117194047D02*
X121438095Y-117146428D01*
X121438095Y-117146428D02*
X121390476Y-117051190D01*
X122990476Y-116622619D02*
X122990476Y-117622619D01*
X123990475Y-117575000D02*
X123895237Y-117622619D01*
X123895237Y-117622619D02*
X123752380Y-117622619D01*
X123752380Y-117622619D02*
X123609523Y-117575000D01*
X123609523Y-117575000D02*
X123514285Y-117479761D01*
X123514285Y-117479761D02*
X123466666Y-117384523D01*
X123466666Y-117384523D02*
X123419047Y-117194047D01*
X123419047Y-117194047D02*
X123419047Y-117051190D01*
X123419047Y-117051190D02*
X123466666Y-116860714D01*
X123466666Y-116860714D02*
X123514285Y-116765476D01*
X123514285Y-116765476D02*
X123609523Y-116670238D01*
X123609523Y-116670238D02*
X123752380Y-116622619D01*
X123752380Y-116622619D02*
X123847618Y-116622619D01*
X123847618Y-116622619D02*
X123990475Y-116670238D01*
X123990475Y-116670238D02*
X124038094Y-116717857D01*
X124038094Y-116717857D02*
X124038094Y-117051190D01*
X124038094Y-117051190D02*
X123847618Y-117051190D01*
X124466666Y-116622619D02*
X124466666Y-117622619D01*
X124466666Y-117622619D02*
X125038094Y-116622619D01*
X125038094Y-116622619D02*
X125038094Y-117622619D01*
X125276190Y-116527380D02*
X126038094Y-116527380D01*
X126276190Y-116622619D02*
X126276190Y-117622619D01*
X126752380Y-116622619D02*
X126752380Y-117622619D01*
X126752380Y-117622619D02*
X127323808Y-116622619D01*
X127323808Y-116622619D02*
X127323808Y-117622619D01*
X127561904Y-116527380D02*
X128323808Y-116527380D01*
X129085713Y-116622619D02*
X128514285Y-116622619D01*
X128799999Y-116622619D02*
X128799999Y-117622619D01*
X128799999Y-117622619D02*
X128704761Y-117479761D01*
X128704761Y-117479761D02*
X128609523Y-117384523D01*
X128609523Y-117384523D02*
X128514285Y-117336904D01*
X129466666Y-117527380D02*
X129514285Y-117575000D01*
X129514285Y-117575000D02*
X129609523Y-117622619D01*
X129609523Y-117622619D02*
X129847618Y-117622619D01*
X129847618Y-117622619D02*
X129942856Y-117575000D01*
X129942856Y-117575000D02*
X129990475Y-117527380D01*
X129990475Y-117527380D02*
X130038094Y-117432142D01*
X130038094Y-117432142D02*
X130038094Y-117336904D01*
X130038094Y-117336904D02*
X129990475Y-117194047D01*
X129990475Y-117194047D02*
X129419047Y-116622619D01*
X129419047Y-116622619D02*
X130038094Y-116622619D01*
X130323809Y-117622619D02*
X130657142Y-116622619D01*
X130657142Y-116622619D02*
X130990475Y-117622619D01*
X121342857Y-116002619D02*
X122009523Y-116002619D01*
X122009523Y-116002619D02*
X121580952Y-115002619D01*
X123323809Y-115526428D02*
X123466666Y-115478809D01*
X123466666Y-115478809D02*
X123514285Y-115431190D01*
X123514285Y-115431190D02*
X123561904Y-115335952D01*
X123561904Y-115335952D02*
X123561904Y-115193095D01*
X123561904Y-115193095D02*
X123514285Y-115097857D01*
X123514285Y-115097857D02*
X123466666Y-115050238D01*
X123466666Y-115050238D02*
X123371428Y-115002619D01*
X123371428Y-115002619D02*
X122990476Y-115002619D01*
X122990476Y-115002619D02*
X122990476Y-116002619D01*
X122990476Y-116002619D02*
X123323809Y-116002619D01*
X123323809Y-116002619D02*
X123419047Y-115955000D01*
X123419047Y-115955000D02*
X123466666Y-115907380D01*
X123466666Y-115907380D02*
X123514285Y-115812142D01*
X123514285Y-115812142D02*
X123514285Y-115716904D01*
X123514285Y-115716904D02*
X123466666Y-115621666D01*
X123466666Y-115621666D02*
X123419047Y-115574047D01*
X123419047Y-115574047D02*
X123323809Y-115526428D01*
X123323809Y-115526428D02*
X122990476Y-115526428D01*
X123942857Y-115288333D02*
X124419047Y-115288333D01*
X123847619Y-115002619D02*
X124180952Y-116002619D01*
X124180952Y-116002619D02*
X124514285Y-115002619D01*
X124704762Y-116002619D02*
X125276190Y-116002619D01*
X124990476Y-115002619D02*
X124990476Y-116002619D01*
X125371429Y-114907380D02*
X126133333Y-114907380D01*
X126323810Y-115050238D02*
X126466667Y-115002619D01*
X126466667Y-115002619D02*
X126704762Y-115002619D01*
X126704762Y-115002619D02*
X126800000Y-115050238D01*
X126800000Y-115050238D02*
X126847619Y-115097857D01*
X126847619Y-115097857D02*
X126895238Y-115193095D01*
X126895238Y-115193095D02*
X126895238Y-115288333D01*
X126895238Y-115288333D02*
X126847619Y-115383571D01*
X126847619Y-115383571D02*
X126800000Y-115431190D01*
X126800000Y-115431190D02*
X126704762Y-115478809D01*
X126704762Y-115478809D02*
X126514286Y-115526428D01*
X126514286Y-115526428D02*
X126419048Y-115574047D01*
X126419048Y-115574047D02*
X126371429Y-115621666D01*
X126371429Y-115621666D02*
X126323810Y-115716904D01*
X126323810Y-115716904D02*
X126323810Y-115812142D01*
X126323810Y-115812142D02*
X126371429Y-115907380D01*
X126371429Y-115907380D02*
X126419048Y-115955000D01*
X126419048Y-115955000D02*
X126514286Y-116002619D01*
X126514286Y-116002619D02*
X126752381Y-116002619D01*
X126752381Y-116002619D02*
X126895238Y-115955000D01*
X127323810Y-115526428D02*
X127657143Y-115526428D01*
X127800000Y-115002619D02*
X127323810Y-115002619D01*
X127323810Y-115002619D02*
X127323810Y-116002619D01*
X127323810Y-116002619D02*
X127800000Y-116002619D01*
X128228572Y-115002619D02*
X128228572Y-116002619D01*
X128228572Y-116002619D02*
X128800000Y-115002619D01*
X128800000Y-115002619D02*
X128800000Y-116002619D01*
X129228572Y-115050238D02*
X129371429Y-115002619D01*
X129371429Y-115002619D02*
X129609524Y-115002619D01*
X129609524Y-115002619D02*
X129704762Y-115050238D01*
X129704762Y-115050238D02*
X129752381Y-115097857D01*
X129752381Y-115097857D02*
X129800000Y-115193095D01*
X129800000Y-115193095D02*
X129800000Y-115288333D01*
X129800000Y-115288333D02*
X129752381Y-115383571D01*
X129752381Y-115383571D02*
X129704762Y-115431190D01*
X129704762Y-115431190D02*
X129609524Y-115478809D01*
X129609524Y-115478809D02*
X129419048Y-115526428D01*
X129419048Y-115526428D02*
X129323810Y-115574047D01*
X129323810Y-115574047D02*
X129276191Y-115621666D01*
X129276191Y-115621666D02*
X129228572Y-115716904D01*
X129228572Y-115716904D02*
X129228572Y-115812142D01*
X129228572Y-115812142D02*
X129276191Y-115907380D01*
X129276191Y-115907380D02*
X129323810Y-115955000D01*
X129323810Y-115955000D02*
X129419048Y-116002619D01*
X129419048Y-116002619D02*
X129657143Y-116002619D01*
X129657143Y-116002619D02*
X129800000Y-115955000D01*
X129990477Y-114907380D02*
X130752381Y-114907380D01*
X130895239Y-116002619D02*
X131514286Y-116002619D01*
X131514286Y-116002619D02*
X131180953Y-115621666D01*
X131180953Y-115621666D02*
X131323810Y-115621666D01*
X131323810Y-115621666D02*
X131419048Y-115574047D01*
X131419048Y-115574047D02*
X131466667Y-115526428D01*
X131466667Y-115526428D02*
X131514286Y-115431190D01*
X131514286Y-115431190D02*
X131514286Y-115193095D01*
X131514286Y-115193095D02*
X131466667Y-115097857D01*
X131466667Y-115097857D02*
X131419048Y-115050238D01*
X131419048Y-115050238D02*
X131323810Y-115002619D01*
X131323810Y-115002619D02*
X131038096Y-115002619D01*
X131038096Y-115002619D02*
X130942858Y-115050238D01*
X130942858Y-115050238D02*
X130895239Y-115097857D01*
X131800001Y-116002619D02*
X132133334Y-115002619D01*
X132133334Y-115002619D02*
X132466667Y-116002619D01*
X132704763Y-116002619D02*
X133323810Y-116002619D01*
X133323810Y-116002619D02*
X132990477Y-115621666D01*
X132990477Y-115621666D02*
X133133334Y-115621666D01*
X133133334Y-115621666D02*
X133228572Y-115574047D01*
X133228572Y-115574047D02*
X133276191Y-115526428D01*
X133276191Y-115526428D02*
X133323810Y-115431190D01*
X133323810Y-115431190D02*
X133323810Y-115193095D01*
X133323810Y-115193095D02*
X133276191Y-115097857D01*
X133276191Y-115097857D02*
X133228572Y-115050238D01*
X133228572Y-115050238D02*
X133133334Y-115002619D01*
X133133334Y-115002619D02*
X132847620Y-115002619D01*
X132847620Y-115002619D02*
X132752382Y-115050238D01*
X132752382Y-115050238D02*
X132704763Y-115097857D01*
X121580952Y-113954047D02*
X121485714Y-114001666D01*
X121485714Y-114001666D02*
X121438095Y-114049285D01*
X121438095Y-114049285D02*
X121390476Y-114144523D01*
X121390476Y-114144523D02*
X121390476Y-114192142D01*
X121390476Y-114192142D02*
X121438095Y-114287380D01*
X121438095Y-114287380D02*
X121485714Y-114335000D01*
X121485714Y-114335000D02*
X121580952Y-114382619D01*
X121580952Y-114382619D02*
X121771428Y-114382619D01*
X121771428Y-114382619D02*
X121866666Y-114335000D01*
X121866666Y-114335000D02*
X121914285Y-114287380D01*
X121914285Y-114287380D02*
X121961904Y-114192142D01*
X121961904Y-114192142D02*
X121961904Y-114144523D01*
X121961904Y-114144523D02*
X121914285Y-114049285D01*
X121914285Y-114049285D02*
X121866666Y-114001666D01*
X121866666Y-114001666D02*
X121771428Y-113954047D01*
X121771428Y-113954047D02*
X121580952Y-113954047D01*
X121580952Y-113954047D02*
X121485714Y-113906428D01*
X121485714Y-113906428D02*
X121438095Y-113858809D01*
X121438095Y-113858809D02*
X121390476Y-113763571D01*
X121390476Y-113763571D02*
X121390476Y-113573095D01*
X121390476Y-113573095D02*
X121438095Y-113477857D01*
X121438095Y-113477857D02*
X121485714Y-113430238D01*
X121485714Y-113430238D02*
X121580952Y-113382619D01*
X121580952Y-113382619D02*
X121771428Y-113382619D01*
X121771428Y-113382619D02*
X121866666Y-113430238D01*
X121866666Y-113430238D02*
X121914285Y-113477857D01*
X121914285Y-113477857D02*
X121961904Y-113573095D01*
X121961904Y-113573095D02*
X121961904Y-113763571D01*
X121961904Y-113763571D02*
X121914285Y-113858809D01*
X121914285Y-113858809D02*
X121866666Y-113906428D01*
X121866666Y-113906428D02*
X121771428Y-113954047D01*
X122990476Y-113382619D02*
X122990476Y-114382619D01*
X123466666Y-113382619D02*
X123466666Y-114382619D01*
X123466666Y-114382619D02*
X123799999Y-113668333D01*
X123799999Y-113668333D02*
X124133332Y-114382619D01*
X124133332Y-114382619D02*
X124133332Y-113382619D01*
X124371428Y-113287380D02*
X125133332Y-113287380D01*
X125561904Y-114382619D02*
X125752380Y-114382619D01*
X125752380Y-114382619D02*
X125847618Y-114335000D01*
X125847618Y-114335000D02*
X125942856Y-114239761D01*
X125942856Y-114239761D02*
X125990475Y-114049285D01*
X125990475Y-114049285D02*
X125990475Y-113715952D01*
X125990475Y-113715952D02*
X125942856Y-113525476D01*
X125942856Y-113525476D02*
X125847618Y-113430238D01*
X125847618Y-113430238D02*
X125752380Y-113382619D01*
X125752380Y-113382619D02*
X125561904Y-113382619D01*
X125561904Y-113382619D02*
X125466666Y-113430238D01*
X125466666Y-113430238D02*
X125371428Y-113525476D01*
X125371428Y-113525476D02*
X125323809Y-113715952D01*
X125323809Y-113715952D02*
X125323809Y-114049285D01*
X125323809Y-114049285D02*
X125371428Y-114239761D01*
X125371428Y-114239761D02*
X125466666Y-114335000D01*
X125466666Y-114335000D02*
X125561904Y-114382619D01*
X126419047Y-114382619D02*
X126419047Y-113573095D01*
X126419047Y-113573095D02*
X126466666Y-113477857D01*
X126466666Y-113477857D02*
X126514285Y-113430238D01*
X126514285Y-113430238D02*
X126609523Y-113382619D01*
X126609523Y-113382619D02*
X126799999Y-113382619D01*
X126799999Y-113382619D02*
X126895237Y-113430238D01*
X126895237Y-113430238D02*
X126942856Y-113477857D01*
X126942856Y-113477857D02*
X126990475Y-113573095D01*
X126990475Y-113573095D02*
X126990475Y-114382619D01*
X127323809Y-114382619D02*
X127895237Y-114382619D01*
X127609523Y-113382619D02*
X127609523Y-114382619D01*
X127990476Y-113287380D02*
X128752380Y-113287380D01*
X128895238Y-114382619D02*
X129514285Y-114382619D01*
X129514285Y-114382619D02*
X129180952Y-114001666D01*
X129180952Y-114001666D02*
X129323809Y-114001666D01*
X129323809Y-114001666D02*
X129419047Y-113954047D01*
X129419047Y-113954047D02*
X129466666Y-113906428D01*
X129466666Y-113906428D02*
X129514285Y-113811190D01*
X129514285Y-113811190D02*
X129514285Y-113573095D01*
X129514285Y-113573095D02*
X129466666Y-113477857D01*
X129466666Y-113477857D02*
X129419047Y-113430238D01*
X129419047Y-113430238D02*
X129323809Y-113382619D01*
X129323809Y-113382619D02*
X129038095Y-113382619D01*
X129038095Y-113382619D02*
X128942857Y-113430238D01*
X128942857Y-113430238D02*
X128895238Y-113477857D01*
X129800000Y-114382619D02*
X130133333Y-113382619D01*
X130133333Y-113382619D02*
X130466666Y-114382619D01*
X130704762Y-114382619D02*
X131323809Y-114382619D01*
X131323809Y-114382619D02*
X130990476Y-114001666D01*
X130990476Y-114001666D02*
X131133333Y-114001666D01*
X131133333Y-114001666D02*
X131228571Y-113954047D01*
X131228571Y-113954047D02*
X131276190Y-113906428D01*
X131276190Y-113906428D02*
X131323809Y-113811190D01*
X131323809Y-113811190D02*
X131323809Y-113573095D01*
X131323809Y-113573095D02*
X131276190Y-113477857D01*
X131276190Y-113477857D02*
X131228571Y-113430238D01*
X131228571Y-113430238D02*
X131133333Y-113382619D01*
X131133333Y-113382619D02*
X130847619Y-113382619D01*
X130847619Y-113382619D02*
X130752381Y-113430238D01*
X130752381Y-113430238D02*
X130704762Y-113477857D01*
X121485714Y-111762619D02*
X121676190Y-111762619D01*
X121676190Y-111762619D02*
X121771428Y-111810238D01*
X121771428Y-111810238D02*
X121819047Y-111857857D01*
X121819047Y-111857857D02*
X121914285Y-112000714D01*
X121914285Y-112000714D02*
X121961904Y-112191190D01*
X121961904Y-112191190D02*
X121961904Y-112572142D01*
X121961904Y-112572142D02*
X121914285Y-112667380D01*
X121914285Y-112667380D02*
X121866666Y-112715000D01*
X121866666Y-112715000D02*
X121771428Y-112762619D01*
X121771428Y-112762619D02*
X121580952Y-112762619D01*
X121580952Y-112762619D02*
X121485714Y-112715000D01*
X121485714Y-112715000D02*
X121438095Y-112667380D01*
X121438095Y-112667380D02*
X121390476Y-112572142D01*
X121390476Y-112572142D02*
X121390476Y-112334047D01*
X121390476Y-112334047D02*
X121438095Y-112238809D01*
X121438095Y-112238809D02*
X121485714Y-112191190D01*
X121485714Y-112191190D02*
X121580952Y-112143571D01*
X121580952Y-112143571D02*
X121771428Y-112143571D01*
X121771428Y-112143571D02*
X121866666Y-112191190D01*
X121866666Y-112191190D02*
X121914285Y-112238809D01*
X121914285Y-112238809D02*
X121961904Y-112334047D01*
D11*
%TO.C,J7*%
X112476553Y-124999994D02*
G75*
G03*
X112476553Y-124999994I-381000J0D01*
G01*
D12*
%TO.C,U21*%
X158250000Y-128500000D02*
X141250000Y-128500000D01*
X137250000Y-124500000D02*
X137250000Y-107500000D01*
X162250000Y-107500000D02*
X162250000Y-124500000D01*
X141250000Y-103500000D02*
X158250000Y-103500000D01*
X137250000Y-124500000D02*
G75*
G03*
X141250000Y-128500000I4000000J0D01*
G01*
X158250000Y-128500000D02*
G75*
G03*
X162250000Y-124500000I0J4000000D01*
G01*
X141250000Y-103500000D02*
G75*
G03*
X137250000Y-107500000I0J-4000000D01*
G01*
X162250000Y-107500000D02*
G75*
G03*
X158250000Y-103500000I-4000000J0D01*
G01*
D11*
%TO.C,C5*%
X170390580Y-124760000D02*
X170109420Y-124760000D01*
X170390580Y-123740000D02*
X170109420Y-123740000D01*
D10*
%TO.C,S1*%
X141050000Y-135750000D02*
X141050000Y-138750000D01*
X141050000Y-138750000D02*
X147450000Y-138750000D01*
X145875000Y-141250000D02*
X145875000Y-141250000D01*
X145875000Y-141250000D02*
X145875000Y-141250000D01*
X145875000Y-141350000D02*
X145875000Y-141350000D01*
X147450000Y-135750000D02*
X141050000Y-135750000D01*
X147450000Y-138750000D02*
X147450000Y-135750000D01*
X145875000Y-141350000D02*
G75*
G03*
X145875000Y-141250000I0J50000D01*
G01*
X145875000Y-141350000D02*
G75*
G03*
X145875000Y-141250000I0J50000D01*
G01*
X145875000Y-141250000D02*
G75*
G03*
X145875000Y-141350000I0J-50000D01*
G01*
D11*
%TO.C,C4*%
X170390580Y-123010000D02*
X170109420Y-123010000D01*
X170390580Y-121990000D02*
X170109420Y-121990000D01*
%TO.C,R11*%
X143689840Y-89975082D02*
X143689840Y-90449598D01*
X142644840Y-89975082D02*
X142644840Y-90449598D01*
%TO.C,R10*%
X137689840Y-89975082D02*
X137689840Y-90449598D01*
X136644840Y-89975082D02*
X136644840Y-90449598D01*
%TO.C,CP2*%
X173972500Y-117460000D02*
X167212500Y-117460000D01*
X173972500Y-114040000D02*
X173972500Y-117460000D01*
X167212500Y-114040000D02*
X173972500Y-114040000D01*
D13*
%TO.C,J1*%
X176345000Y-143920000D02*
X165145000Y-143920000D01*
X176345000Y-142680000D02*
X176345000Y-143920000D01*
X176345000Y-133900000D02*
X176345000Y-140400000D01*
X176345000Y-128480000D02*
X176345000Y-131680000D01*
X174745000Y-128480000D02*
X176345000Y-128480000D01*
D10*
X174050000Y-127700000D02*
X174050000Y-127700000D01*
X173850000Y-127700000D02*
X173850000Y-127700000D01*
D13*
X166745000Y-128480000D02*
X165145000Y-128480000D01*
X165145000Y-143920000D02*
X165145000Y-142680000D01*
X165145000Y-133900000D02*
X165145000Y-140400000D01*
X165145000Y-128480000D02*
X165145000Y-131680000D01*
X165145000Y-128480000D02*
X165145000Y-128480000D01*
D10*
X173850000Y-127700000D02*
G75*
G03*
X174050000Y-127700000I100000J0D01*
G01*
X174050000Y-127700000D02*
G75*
G03*
X173850000Y-127700000I-100000J0D01*
G01*
D11*
%TO.C,D5*%
X143902340Y-92152340D02*
X143902340Y-94437340D01*
X142432340Y-92152340D02*
X143902340Y-92152340D01*
X142432340Y-94437340D02*
X142432340Y-92152340D01*
%TO.C,C6*%
X174489420Y-104605000D02*
X174770580Y-104605000D01*
X174489420Y-105625000D02*
X174770580Y-105625000D01*
%TO.C,D3*%
X140902340Y-92189840D02*
X140902340Y-94474840D01*
X139432340Y-92189840D02*
X140902340Y-92189840D01*
X139432340Y-94474840D02*
X139432340Y-92189840D01*
%TO.C,D4*%
X137902340Y-92189840D02*
X137902340Y-94474840D01*
X136432340Y-92189840D02*
X137902340Y-92189840D01*
X136432340Y-94474840D02*
X136432340Y-92189840D01*
%TO.C,CP3*%
X173972500Y-113460000D02*
X167212500Y-113460000D01*
X173972500Y-110040000D02*
X173972500Y-113460000D01*
X167212500Y-110040000D02*
X173972500Y-110040000D01*
%TO.C,R9*%
X140689840Y-89975082D02*
X140689840Y-90449598D01*
X139644840Y-89975082D02*
X139644840Y-90449598D01*
%TO.C,FB1*%
X170022936Y-106090000D02*
X171477064Y-106090000D01*
X170022936Y-107910000D02*
X171477064Y-107910000D01*
%TO.C,D2*%
X172900000Y-108400000D02*
X172900000Y-109600000D01*
X171050000Y-109600000D02*
X172900000Y-109600000D01*
X171050000Y-108400000D02*
X172900000Y-108400000D01*
%TO.C,CP1*%
X174010000Y-121460000D02*
X167250000Y-121460000D01*
X174010000Y-118040000D02*
X174010000Y-121460000D01*
X167250000Y-118040000D02*
X174010000Y-118040000D01*
%TD*%
M02*
