%TF.GenerationSoftware,KiCad,Pcbnew,(7.0.0-0)*%
%TF.CreationDate,2023-03-16T16:39:44+01:00*%
%TF.ProjectId,roam,726f616d-2e6b-4696-9361-645f70636258,rev?*%
%TF.SameCoordinates,Original*%
%TF.FileFunction,Paste,Top*%
%TF.FilePolarity,Positive*%
%FSLAX46Y46*%
G04 Gerber Fmt 4.6, Leading zero omitted, Abs format (unit mm)*
G04 Created by KiCad (PCBNEW (7.0.0-0)) date 2023-03-16 16:39:44*
%MOMM*%
%LPD*%
G01*
G04 APERTURE LIST*
G04 Aperture macros list*
%AMRoundRect*
0 Rectangle with rounded corners*
0 $1 Rounding radius*
0 $2 $3 $4 $5 $6 $7 $8 $9 X,Y pos of 4 corners*
0 Add a 4 corners polygon primitive as box body*
4,1,4,$2,$3,$4,$5,$6,$7,$8,$9,$2,$3,0*
0 Add four circle primitives for the rounded corners*
1,1,$1+$1,$2,$3*
1,1,$1+$1,$4,$5*
1,1,$1+$1,$6,$7*
1,1,$1+$1,$8,$9*
0 Add four rect primitives between the rounded corners*
20,1,$1+$1,$2,$3,$4,$5,0*
20,1,$1+$1,$4,$5,$6,$7,0*
20,1,$1+$1,$6,$7,$8,$9,0*
20,1,$1+$1,$8,$9,$2,$3,0*%
%AMFreePoly0*
4,1,18,-0.350000,0.000000,-0.225000,0.125000,0.337500,0.125000,0.342284,0.124048,0.346339,0.121339,0.349048,0.117284,0.350000,0.112500,0.350000,-0.112500,0.349048,-0.117284,0.346339,-0.121339,0.342284,-0.124048,0.337500,-0.125000,-0.337500,-0.125000,-0.342284,-0.124048,-0.346339,-0.121339,-0.349048,-0.117284,-0.350000,-0.112500,-0.350000,0.000000,-0.350000,0.000000,$1*%
G04 Aperture macros list end*
%ADD10C,0.300000*%
%ADD11C,0.010000*%
%ADD12C,0.100000*%
%ADD13RoundRect,0.225000X0.250000X-0.225000X0.250000X0.225000X-0.250000X0.225000X-0.250000X-0.225000X0*%
%ADD14RoundRect,0.218750X-0.256250X0.218750X-0.256250X-0.218750X0.256250X-0.218750X0.256250X0.218750X0*%
%ADD15RoundRect,0.200000X-0.200000X-0.275000X0.200000X-0.275000X0.200000X0.275000X-0.200000X0.275000X0*%
%ADD16RoundRect,0.135000X-0.185000X0.135000X-0.185000X-0.135000X0.185000X-0.135000X0.185000X0.135000X0*%
%ADD17RoundRect,0.225000X-0.225000X-0.250000X0.225000X-0.250000X0.225000X0.250000X-0.225000X0.250000X0*%
%ADD18RoundRect,0.140000X0.170000X-0.140000X0.170000X0.140000X-0.170000X0.140000X-0.170000X-0.140000X0*%
%ADD19RoundRect,0.250001X-1.999999X-0.799999X1.999999X-0.799999X1.999999X0.799999X-1.999999X0.799999X0*%
%ADD20RoundRect,0.250000X0.475000X-0.250000X0.475000X0.250000X-0.475000X0.250000X-0.475000X-0.250000X0*%
%ADD21R,1.000000X1.000000*%
%ADD22R,4.150000X1.000000*%
%ADD23R,2.800000X1.000000*%
%ADD24R,1.000000X3.580000*%
%ADD25R,1.000000X3.000000*%
%ADD26R,3.000000X1.000000*%
%ADD27RoundRect,0.200000X-0.275000X0.200000X-0.275000X-0.200000X0.275000X-0.200000X0.275000X0.200000X0*%
%ADD28RoundRect,0.135000X0.185000X-0.135000X0.185000X0.135000X-0.185000X0.135000X-0.185000X-0.135000X0*%
%ADD29R,1.400000X1.200000*%
%ADD30RoundRect,0.218750X-0.218750X-0.256250X0.218750X-0.256250X0.218750X0.256250X-0.218750X0.256250X0*%
%ADD31RoundRect,0.200000X0.275000X-0.200000X0.275000X0.200000X-0.275000X0.200000X-0.275000X-0.200000X0*%
%ADD32R,0.650000X0.400000*%
%ADD33RoundRect,0.100000X-0.637500X-0.100000X0.637500X-0.100000X0.637500X0.100000X-0.637500X0.100000X0*%
%ADD34RoundRect,0.140000X-0.170000X0.140000X-0.170000X-0.140000X0.170000X-0.140000X0.170000X0.140000X0*%
%ADD35RoundRect,0.250000X-0.475000X0.250000X-0.475000X-0.250000X0.475000X-0.250000X0.475000X0.250000X0*%
%ADD36R,0.300000X0.350000*%
%ADD37R,0.350000X0.300000*%
%ADD38RoundRect,0.250000X-0.275000X-0.700000X0.275000X-0.700000X0.275000X0.700000X-0.275000X0.700000X0*%
%ADD39R,1.800000X3.600000*%
%ADD40R,0.609600X0.228600*%
%ADD41RoundRect,0.135000X-0.135000X-0.185000X0.135000X-0.185000X0.135000X0.185000X-0.135000X0.185000X0*%
%ADD42R,0.700000X0.450000*%
%ADD43RoundRect,0.250000X-0.650000X0.325000X-0.650000X-0.325000X0.650000X-0.325000X0.650000X0.325000X0*%
%ADD44R,2.700000X0.800000*%
%ADD45RoundRect,0.225000X0.225000X0.250000X-0.225000X0.250000X-0.225000X-0.250000X0.225000X-0.250000X0*%
%ADD46RoundRect,0.250000X0.650000X-0.325000X0.650000X0.325000X-0.650000X0.325000X-0.650000X-0.325000X0*%
%ADD47RoundRect,0.147500X-0.172500X0.147500X-0.172500X-0.147500X0.172500X-0.147500X0.172500X0.147500X0*%
%ADD48R,1.475000X0.600000*%
%ADD49R,0.600000X1.475000*%
%ADD50RoundRect,0.147500X0.017678X-0.226274X0.226274X-0.017678X-0.017678X0.226274X-0.226274X0.017678X0*%
%ADD51RoundRect,0.225000X-0.250000X0.225000X-0.250000X-0.225000X0.250000X-0.225000X0.250000X0.225000X0*%
%ADD52RoundRect,0.218750X0.256250X-0.218750X0.256250X0.218750X-0.256250X0.218750X-0.256250X-0.218750X0*%
%ADD53RoundRect,0.200000X0.200000X0.275000X-0.200000X0.275000X-0.200000X-0.275000X0.200000X-0.275000X0*%
%ADD54RoundRect,0.250000X0.555000X-0.435000X0.555000X0.435000X-0.555000X0.435000X-0.555000X-0.435000X0*%
%ADD55RoundRect,0.125000X0.125000X-0.262500X0.125000X0.262500X-0.125000X0.262500X-0.125000X-0.262500X0*%
%ADD56RoundRect,0.008100X0.126900X-0.346900X0.126900X0.346900X-0.126900X0.346900X-0.126900X-0.346900X0*%
%ADD57R,0.200000X1.100000*%
%ADD58R,0.200000X1.000000*%
%ADD59RoundRect,0.012500X0.337500X0.112500X-0.337500X0.112500X-0.337500X-0.112500X0.337500X-0.112500X0*%
%ADD60RoundRect,0.012500X-0.112500X0.337500X-0.112500X-0.337500X0.112500X-0.337500X0.112500X0.337500X0*%
%ADD61RoundRect,0.012500X-0.337500X-0.112500X0.337500X-0.112500X0.337500X0.112500X-0.337500X0.112500X0*%
%ADD62RoundRect,0.012500X0.112500X-0.337500X0.112500X0.337500X-0.112500X0.337500X-0.112500X-0.337500X0*%
%ADD63FreePoly0,180.000000*%
%ADD64R,0.800000X0.300000*%
%ADD65R,1.750000X2.450000*%
%ADD66R,0.762000X0.254000*%
%ADD67R,1.803400X2.590800*%
%ADD68R,1.500000X3.600000*%
%ADD69R,0.508000X1.295400*%
%ADD70R,1.295400X0.508000*%
%ADD71RoundRect,0.250000X0.250000X0.475000X-0.250000X0.475000X-0.250000X-0.475000X0.250000X-0.475000X0*%
%ADD72RoundRect,0.150000X0.587500X0.150000X-0.587500X0.150000X-0.587500X-0.150000X0.587500X-0.150000X0*%
%ADD73R,1.200000X1.400000*%
%ADD74RoundRect,0.135000X0.135000X0.185000X-0.135000X0.185000X-0.135000X-0.185000X0.135000X-0.185000X0*%
%ADD75RoundRect,0.008100X-0.126900X0.346900X-0.126900X-0.346900X0.126900X-0.346900X0.126900X0.346900X0*%
%ADD76RoundRect,0.150000X-0.512500X-0.150000X0.512500X-0.150000X0.512500X0.150000X-0.512500X0.150000X0*%
%ADD77RoundRect,0.250000X0.325000X1.100000X-0.325000X1.100000X-0.325000X-1.100000X0.325000X-1.100000X0*%
%ADD78R,0.609600X0.406400*%
%ADD79R,0.406400X0.609600*%
%ADD80R,1.180000X4.700000*%
%ADD81RoundRect,0.218750X0.218750X0.256250X-0.218750X0.256250X-0.218750X-0.256250X0.218750X-0.256250X0*%
%ADD82RoundRect,0.150000X0.150000X-0.512500X0.150000X0.512500X-0.150000X0.512500X-0.150000X-0.512500X0*%
%ADD83R,3.600000X1.500000*%
%ADD84R,0.230000X0.700000*%
%ADD85RoundRect,0.140000X0.140000X0.170000X-0.140000X0.170000X-0.140000X-0.170000X0.140000X-0.170000X0*%
%ADD86RoundRect,0.147500X0.172500X-0.147500X0.172500X0.147500X-0.172500X0.147500X-0.172500X-0.147500X0*%
%ADD87R,0.600000X1.000000*%
%ADD88R,0.650000X0.350000*%
%ADD89RoundRect,0.250000X0.375000X0.625000X-0.375000X0.625000X-0.375000X-0.625000X0.375000X-0.625000X0*%
%ADD90RoundRect,0.140000X0.219203X0.021213X0.021213X0.219203X-0.219203X-0.021213X-0.021213X-0.219203X0*%
G04 APERTURE END LIST*
D10*
X114385714Y-93690857D02*
X115128571Y-93690857D01*
X115128571Y-93690857D02*
X114728571Y-94148000D01*
X114728571Y-94148000D02*
X114900000Y-94148000D01*
X114900000Y-94148000D02*
X115014286Y-94205142D01*
X115014286Y-94205142D02*
X115071428Y-94262285D01*
X115071428Y-94262285D02*
X115128571Y-94376571D01*
X115128571Y-94376571D02*
X115128571Y-94662285D01*
X115128571Y-94662285D02*
X115071428Y-94776571D01*
X115071428Y-94776571D02*
X115014286Y-94833714D01*
X115014286Y-94833714D02*
X114900000Y-94890857D01*
X114900000Y-94890857D02*
X114557143Y-94890857D01*
X114557143Y-94890857D02*
X114442857Y-94833714D01*
X114442857Y-94833714D02*
X114385714Y-94776571D01*
X115585714Y-94548000D02*
X116157143Y-94548000D01*
X115471428Y-94890857D02*
X115871428Y-93690857D01*
X115871428Y-93690857D02*
X116271428Y-94890857D01*
%TO.C,U1*%
G36*
X136545000Y-131965000D02*
G01*
X136005000Y-131965000D01*
X136005000Y-131645000D01*
X136545000Y-131645000D01*
X136545000Y-131965000D01*
G37*
D11*
X136545000Y-131965000D02*
X136005000Y-131965000D01*
X136005000Y-131645000D01*
X136545000Y-131645000D01*
X136545000Y-131965000D01*
%TO.C,U14*%
G36*
X124078500Y-127800000D02*
G01*
X122475100Y-127800000D01*
X122475100Y-126704600D01*
X124078500Y-126704600D01*
X124078500Y-127800000D01*
G37*
D12*
X124078500Y-127800000D02*
X122475100Y-127800000D01*
X122475100Y-126704600D01*
X124078500Y-126704600D01*
X124078500Y-127800000D01*
G36*
X124078500Y-129095400D02*
G01*
X122475100Y-129095400D01*
X122475100Y-128000000D01*
X124078500Y-128000000D01*
X124078500Y-129095400D01*
G37*
X124078500Y-129095400D02*
X122475100Y-129095400D01*
X122475100Y-128000000D01*
X124078500Y-128000000D01*
X124078500Y-129095400D01*
%TO.C,U15*%
G36*
X147520000Y-88660000D02*
G01*
X146980000Y-88660000D01*
X146980000Y-88340000D01*
X147520000Y-88340000D01*
X147520000Y-88660000D01*
G37*
D11*
X147520000Y-88660000D02*
X146980000Y-88660000D01*
X146980000Y-88340000D01*
X147520000Y-88340000D01*
X147520000Y-88660000D01*
%TD*%
D13*
%TO.C,C62*%
X129550000Y-115875000D03*
X129550000Y-114325000D03*
%TD*%
D14*
%TO.C,D19*%
X143727500Y-87772500D03*
X143727500Y-89347500D03*
%TD*%
D15*
%TO.C,R20*%
X123050000Y-90425000D03*
X124700000Y-90425000D03*
%TD*%
D16*
%TO.C,R52*%
X125825000Y-130710000D03*
X125825000Y-131730000D03*
%TD*%
D17*
%TO.C,C61*%
X178900000Y-104620000D03*
X180450000Y-104620000D03*
%TD*%
D18*
%TO.C,C57*%
X113020000Y-117780000D03*
X113020000Y-116820000D03*
%TD*%
D16*
%TO.C,R43*%
X110650000Y-93640000D03*
X110650000Y-94660000D03*
%TD*%
D14*
%TO.C,D17*%
X182800000Y-125612500D03*
X182800000Y-127187500D03*
%TD*%
D19*
%TO.C,C63*%
X126750000Y-138750000D03*
X133950000Y-138750000D03*
%TD*%
D20*
%TO.C,C42*%
X131050000Y-96025000D03*
X131050000Y-94125000D03*
%TD*%
D16*
%TO.C,R39*%
X120300000Y-101340000D03*
X120300000Y-102360000D03*
%TD*%
D14*
%TO.C,D25*%
X114690000Y-116002500D03*
X114690000Y-117577500D03*
%TD*%
D21*
%TO.C,J5*%
X118149999Y-121629999D03*
D22*
X120724999Y-121629999D03*
D23*
X127199999Y-121629999D03*
D22*
X133874999Y-121629999D03*
D21*
X136449999Y-121629999D03*
D24*
X118149999Y-119339999D03*
X136449999Y-119339999D03*
D25*
X118149999Y-113049999D03*
X136449999Y-113049999D03*
X118149999Y-107049999D03*
X136449999Y-107049999D03*
X118149999Y-101049999D03*
X136449999Y-101049999D03*
D24*
X118149999Y-94759999D03*
X136449999Y-94759999D03*
D21*
X118149999Y-92469999D03*
D22*
X120724999Y-92469999D03*
D26*
X127299999Y-92469999D03*
D22*
X133874999Y-92469999D03*
D21*
X136449999Y-92469999D03*
%TD*%
D27*
%TO.C,R50*%
X179125000Y-125575000D03*
X179125000Y-127225000D03*
%TD*%
D28*
%TO.C,R36*%
X121400000Y-102360000D03*
X121400000Y-101340000D03*
%TD*%
D29*
%TO.C,Y2*%
X153229999Y-99799999D03*
X155429999Y-99799999D03*
X155429999Y-98099999D03*
X153229999Y-98099999D03*
%TD*%
D30*
%TO.C,D22*%
X137087500Y-87225000D03*
X138662500Y-87225000D03*
%TD*%
D31*
%TO.C,R32*%
X112425000Y-128625000D03*
X112425000Y-126975000D03*
%TD*%
%TO.C,R22*%
X181200000Y-127225000D03*
X181200000Y-125575000D03*
%TD*%
D32*
%TO.C,U9*%
X136049999Y-127049999D03*
X136049999Y-127699999D03*
X136049999Y-128349999D03*
X137949999Y-128349999D03*
X137949999Y-127699999D03*
X137949999Y-127049999D03*
%TD*%
D33*
%TO.C,U11*%
X144662500Y-94675000D03*
X144662500Y-95325000D03*
X144662500Y-95975000D03*
X144662500Y-96625000D03*
X144662500Y-97275000D03*
X144662500Y-97925000D03*
X144662500Y-98575000D03*
X144662500Y-99225000D03*
X144662500Y-99875000D03*
X144662500Y-100525000D03*
X150387500Y-100525000D03*
X150387500Y-99875000D03*
X150387500Y-99225000D03*
X150387500Y-98575000D03*
X150387500Y-97925000D03*
X150387500Y-97275000D03*
X150387500Y-96625000D03*
X150387500Y-95975000D03*
X150387500Y-95325000D03*
X150387500Y-94675000D03*
%TD*%
D15*
%TO.C,R2*%
X164250000Y-130750000D03*
X165900000Y-130750000D03*
%TD*%
D34*
%TO.C,C54*%
X113020000Y-113340000D03*
X113020000Y-114300000D03*
%TD*%
D35*
%TO.C,C24*%
X121850000Y-117600000D03*
X121850000Y-119500000D03*
%TD*%
D36*
%TO.C,U13*%
X181249999Y-134549999D03*
X181749999Y-134549999D03*
X182249999Y-134549999D03*
X182749999Y-134549999D03*
D37*
X182799999Y-133999999D03*
X182799999Y-133499999D03*
D36*
X182749999Y-132949999D03*
X182249999Y-132949999D03*
X181749999Y-132949999D03*
X181249999Y-132949999D03*
D37*
X181199999Y-133499999D03*
X181199999Y-133999999D03*
%TD*%
D38*
%TO.C,C35*%
X127878100Y-103850000D03*
X131028100Y-103850000D03*
%TD*%
D34*
%TO.C,C29*%
X113060000Y-103250000D03*
X113060000Y-104210000D03*
%TD*%
D13*
%TO.C,C48*%
X145500000Y-89275000D03*
X145500000Y-87725000D03*
%TD*%
D35*
%TO.C,C31*%
X131400000Y-116200000D03*
X131400000Y-118100000D03*
%TD*%
D16*
%TO.C,R21*%
X148280000Y-139930000D03*
X148280000Y-140950000D03*
%TD*%
D39*
%TO.C,L8*%
X112749999Y-137824999D03*
X121749999Y-137824999D03*
%TD*%
D40*
%TO.C,U20*%
X126175899Y-101349998D03*
X126175899Y-100849999D03*
X126175899Y-100350000D03*
X124474099Y-100350000D03*
X124474099Y-100849999D03*
X124474099Y-101349998D03*
%TD*%
D17*
%TO.C,C21*%
X153785000Y-102045000D03*
X155335000Y-102045000D03*
%TD*%
%TO.C,C5*%
X177445000Y-119530000D03*
X178995000Y-119530000D03*
%TD*%
D41*
%TO.C,R12*%
X178540000Y-116250000D03*
X179560000Y-116250000D03*
%TD*%
D16*
%TO.C,R47*%
X111970000Y-116770000D03*
X111970000Y-117790000D03*
%TD*%
D42*
%TO.C,D7*%
X112039999Y-109449999D03*
X112039999Y-110749999D03*
X114039999Y-110099999D03*
%TD*%
D17*
%TO.C,C4*%
X177445000Y-121050000D03*
X178995000Y-121050000D03*
%TD*%
D31*
%TO.C,R16*%
X161100000Y-92725000D03*
X161100000Y-91075000D03*
%TD*%
D43*
%TO.C,C46*%
X109975000Y-139275000D03*
X109975000Y-142225000D03*
%TD*%
D44*
%TO.C,L5*%
X132774729Y-106649999D03*
X132774729Y-108849999D03*
%TD*%
D17*
%TO.C,C19*%
X127250000Y-90700000D03*
X128800000Y-90700000D03*
%TD*%
D45*
%TO.C,C69*%
X119850000Y-130825000D03*
X118300000Y-130825000D03*
%TD*%
D46*
%TO.C,C65*%
X117650000Y-126725000D03*
X117650000Y-123775000D03*
%TD*%
D30*
%TO.C,D8*%
X137087500Y-88850000D03*
X138662500Y-88850000D03*
%TD*%
D31*
%TO.C,R4*%
X144250000Y-106575000D03*
X144250000Y-104925000D03*
%TD*%
D47*
%TO.C,L1*%
X145900000Y-119615000D03*
X145900000Y-120585000D03*
%TD*%
D48*
%TO.C,IC1*%
X152361999Y-133787999D03*
X152361999Y-134587999D03*
X152361999Y-135387999D03*
X152361999Y-136187999D03*
X152361999Y-136987999D03*
X152361999Y-137787999D03*
X152361999Y-138587999D03*
X152361999Y-139387999D03*
D49*
X153799999Y-140825999D03*
X154599999Y-140825999D03*
X155399999Y-140825999D03*
X156199999Y-140825999D03*
X156999999Y-140825999D03*
X157799999Y-140825999D03*
X158599999Y-140825999D03*
X159399999Y-140825999D03*
D48*
X160837999Y-139387999D03*
X160837999Y-138587999D03*
X160837999Y-137787999D03*
X160837999Y-136987999D03*
X160837999Y-136187999D03*
X160837999Y-135387999D03*
X160837999Y-134587999D03*
X160837999Y-133787999D03*
D49*
X159399999Y-132349999D03*
X158599999Y-132349999D03*
X157799999Y-132349999D03*
X156999999Y-132349999D03*
X156199999Y-132349999D03*
X155399999Y-132349999D03*
X154599999Y-132349999D03*
X153799999Y-132349999D03*
%TD*%
D50*
%TO.C,L6*%
X146732340Y-124982340D03*
X147418234Y-124296446D03*
%TD*%
D46*
%TO.C,C49*%
X124325000Y-136375000D03*
X124325000Y-133425000D03*
%TD*%
D34*
%TO.C,C13*%
X177322340Y-116412340D03*
X177322340Y-117372340D03*
%TD*%
D51*
%TO.C,C2*%
X138000000Y-131075000D03*
X138000000Y-132625000D03*
%TD*%
D27*
%TO.C,R6*%
X145800000Y-104925000D03*
X145800000Y-106575000D03*
%TD*%
D35*
%TO.C,C30*%
X133500000Y-116200000D03*
X133500000Y-118100000D03*
%TD*%
D20*
%TO.C,C25*%
X131400000Y-114600000D03*
X131400000Y-112700000D03*
%TD*%
D52*
%TO.C,D12*%
X114740000Y-114017500D03*
X114740000Y-112442500D03*
%TD*%
D41*
%TO.C,R33*%
X128390000Y-120275000D03*
X129410000Y-120275000D03*
%TD*%
D53*
%TO.C,R64*%
X153825000Y-94850000D03*
X152175000Y-94850000D03*
%TD*%
D54*
%TO.C,U4*%
X179715000Y-109812500D03*
X181715000Y-109812500D03*
X179715000Y-108112500D03*
X181715000Y-108112500D03*
D55*
X178810000Y-111625000D03*
X180080000Y-111625000D03*
X181350000Y-111625000D03*
X182620000Y-111625000D03*
X182620000Y-106300000D03*
X181350000Y-106300000D03*
X180080000Y-106300000D03*
X178810000Y-106300000D03*
%TD*%
D56*
%TO.C,U1*%
X136025000Y-132600000D03*
X136525000Y-132600000D03*
X136525000Y-131010000D03*
X136025000Y-131010000D03*
%TD*%
D18*
%TO.C,C7*%
X145950000Y-118530000D03*
X145950000Y-117570000D03*
%TD*%
D57*
%TO.C,U5*%
X183624999Y-96724999D03*
D58*
X183224999Y-96674999D03*
X182824999Y-96674999D03*
X182424999Y-96674999D03*
X182024999Y-96674999D03*
X181624999Y-96674999D03*
X181224999Y-96674999D03*
X180824999Y-96674999D03*
X180424999Y-96674999D03*
X180024999Y-96674999D03*
X180024999Y-98474999D03*
X180424999Y-98474999D03*
X180824999Y-98474999D03*
X181224999Y-98474999D03*
X181624999Y-98474999D03*
X182024999Y-98474999D03*
X182424999Y-98474999D03*
X182824999Y-98474999D03*
X183224999Y-98474999D03*
X183624999Y-98474999D03*
%TD*%
D59*
%TO.C,U18*%
X128150000Y-118500000D03*
X128150000Y-118000000D03*
X128150000Y-117500000D03*
X128150000Y-117000000D03*
D60*
X127400000Y-116750000D03*
X126900000Y-116750000D03*
D61*
X126150000Y-117000000D03*
X126150000Y-117500000D03*
X126150000Y-118000000D03*
X126150000Y-118500000D03*
D62*
X126900000Y-118750000D03*
X127400000Y-118750000D03*
D63*
X127149999Y-117999999D03*
D59*
X127150000Y-117500000D03*
%TD*%
D31*
%TO.C,R35*%
X159300000Y-92725000D03*
X159300000Y-91075000D03*
%TD*%
D20*
%TO.C,C50*%
X128703100Y-96000000D03*
X128703100Y-94100000D03*
%TD*%
D17*
%TO.C,C16*%
X140375000Y-101900000D03*
X141925000Y-101900000D03*
%TD*%
D41*
%TO.C,R34*%
X126090000Y-120275000D03*
X127110000Y-120275000D03*
%TD*%
D28*
%TO.C,R61*%
X111990000Y-124040000D03*
X111990000Y-123020000D03*
%TD*%
D34*
%TO.C,C58*%
X150750000Y-136770000D03*
X150750000Y-137730000D03*
%TD*%
D31*
%TO.C,R51*%
X140550000Y-92700000D03*
X140550000Y-91050000D03*
%TD*%
D17*
%TO.C,C45*%
X181145000Y-129860000D03*
X182695000Y-129860000D03*
%TD*%
D33*
%TO.C,U10*%
X157967500Y-94535000D03*
X157967500Y-95185000D03*
X157967500Y-95835000D03*
X157967500Y-96485000D03*
X157967500Y-97135000D03*
X157967500Y-97785000D03*
X157967500Y-98435000D03*
X157967500Y-99085000D03*
X157967500Y-99735000D03*
X157967500Y-100385000D03*
X163692500Y-100385000D03*
X163692500Y-99735000D03*
X163692500Y-99085000D03*
X163692500Y-98435000D03*
X163692500Y-97785000D03*
X163692500Y-97135000D03*
X163692500Y-96485000D03*
X163692500Y-95835000D03*
X163692500Y-95185000D03*
X163692500Y-94535000D03*
%TD*%
D28*
%TO.C,R63*%
X149310000Y-140940000D03*
X149310000Y-139920000D03*
%TD*%
D45*
%TO.C,C22*%
X155725000Y-96450000D03*
X154175000Y-96450000D03*
%TD*%
D64*
%TO.C,IC2*%
X130973999Y-89061499D03*
X130973999Y-88561499D03*
X130973999Y-88061499D03*
X130973999Y-87561499D03*
X130973999Y-87061499D03*
X127973999Y-87061499D03*
X127973999Y-87561499D03*
X127973999Y-88061499D03*
X127973999Y-88561499D03*
X127973999Y-89061499D03*
D65*
X129473999Y-88061499D03*
%TD*%
D45*
%TO.C,C17*%
X141855000Y-95940000D03*
X140305000Y-95940000D03*
%TD*%
D14*
%TO.C,D18*%
X114810000Y-96042500D03*
X114810000Y-97617500D03*
%TD*%
D13*
%TO.C,C1*%
X134525000Y-132600000D03*
X134525000Y-131050000D03*
%TD*%
D42*
%TO.C,D13*%
X112049999Y-99299999D03*
X112049999Y-100599999D03*
X114049999Y-99949999D03*
%TD*%
D17*
%TO.C,C44*%
X181145000Y-131420000D03*
X182695000Y-131420000D03*
%TD*%
D27*
%TO.C,R30*%
X119900000Y-115775000D03*
X119900000Y-117425000D03*
%TD*%
D42*
%TO.C,D23*%
X112049999Y-119199999D03*
X112049999Y-120499999D03*
X114049999Y-119849999D03*
%TD*%
D66*
%TO.C,U14*%
X121803599Y-126649999D03*
X121803599Y-127149998D03*
X121803599Y-127649999D03*
X121803599Y-128149999D03*
X121803599Y-128650000D03*
X121803599Y-129149999D03*
X124749999Y-129149999D03*
X124749999Y-128650000D03*
X124749999Y-128149999D03*
X124749999Y-127649999D03*
X124749999Y-127149998D03*
X124749999Y-126649999D03*
D67*
X123276799Y-127899999D03*
%TD*%
D51*
%TO.C,C47*%
X149000000Y-87725000D03*
X149000000Y-89275000D03*
%TD*%
%TO.C,C3*%
X174750000Y-129925000D03*
X174750000Y-131475000D03*
%TD*%
D53*
%TO.C,R48*%
X150700000Y-102550000D03*
X149050000Y-102550000D03*
%TD*%
D68*
%TO.C,L3*%
X121924999Y-112999999D03*
X124974999Y-112999999D03*
%TD*%
D69*
%TO.C,U3*%
X171749998Y-104515199D03*
X170749998Y-104515199D03*
X169750000Y-104515199D03*
X168749999Y-104515199D03*
X167749999Y-104515199D03*
X166749998Y-104515199D03*
X165750000Y-104515199D03*
X164750000Y-104515199D03*
X163749999Y-104515199D03*
X162749998Y-104515199D03*
X161749998Y-104515199D03*
X160750000Y-104515199D03*
X159749999Y-104515199D03*
X158749999Y-104515199D03*
X157749998Y-104515199D03*
X156749998Y-104515199D03*
X155750000Y-104515199D03*
D70*
X152015199Y-108250000D03*
X152015199Y-109249998D03*
X152015199Y-110249998D03*
X152015199Y-111249999D03*
X152015199Y-112249999D03*
X152015199Y-113250000D03*
X152015199Y-114249998D03*
X152015199Y-115249998D03*
X152015199Y-116249999D03*
X152015199Y-117250000D03*
X152015199Y-118250000D03*
X152015199Y-119249998D03*
X152015199Y-120249999D03*
X152015199Y-121249999D03*
X152015199Y-122250000D03*
X152015199Y-123250000D03*
X152015199Y-124249998D03*
D69*
X155750000Y-127984799D03*
X156749998Y-127984799D03*
X157749998Y-127984799D03*
X158749999Y-127984799D03*
X159749999Y-127984799D03*
X160750000Y-127984799D03*
X161749998Y-127984799D03*
X162749998Y-127984799D03*
X163749999Y-127984799D03*
X164750000Y-127984799D03*
X165750000Y-127984799D03*
X166749998Y-127984799D03*
X167749999Y-127984799D03*
X168749999Y-127984799D03*
X169750000Y-127984799D03*
X170750000Y-127984799D03*
X171749998Y-127984799D03*
D70*
X175484799Y-124249998D03*
X175484799Y-123250000D03*
X175484799Y-122250000D03*
X175484799Y-121249999D03*
X175484799Y-120249999D03*
X175484799Y-119249998D03*
X175484799Y-118250000D03*
X175484799Y-117250000D03*
X175484799Y-116249999D03*
X175484799Y-115249998D03*
X175484799Y-114249998D03*
X175484799Y-113250000D03*
X175484799Y-112249999D03*
X175484799Y-111249999D03*
X175484799Y-110249998D03*
X175484799Y-109249998D03*
X175484799Y-108250000D03*
%TD*%
D17*
%TO.C,C60*%
X145275000Y-139750000D03*
X146825000Y-139750000D03*
%TD*%
D32*
%TO.C,U7*%
X136049999Y-124049999D03*
X136049999Y-124699999D03*
X136049999Y-125349999D03*
X137949999Y-125349999D03*
X137949999Y-124699999D03*
X137949999Y-124049999D03*
%TD*%
D71*
%TO.C,C43*%
X126703100Y-94600000D03*
X124803100Y-94600000D03*
%TD*%
D13*
%TO.C,C53*%
X110700000Y-92325000D03*
X110700000Y-90775000D03*
%TD*%
D52*
%TO.C,D21*%
X114720000Y-103947500D03*
X114720000Y-102372500D03*
%TD*%
D72*
%TO.C,Q2*%
X142187500Y-111200000D03*
X142187500Y-109300000D03*
X140312500Y-110250000D03*
%TD*%
D28*
%TO.C,R49*%
X112010000Y-104250000D03*
X112010000Y-103230000D03*
%TD*%
D73*
%TO.C,Y3*%
X149799999Y-133249999D03*
X149799999Y-131049999D03*
X148099999Y-131049999D03*
X148099999Y-133249999D03*
%TD*%
D74*
%TO.C,R28*%
X122485000Y-130350000D03*
X121465000Y-130350000D03*
%TD*%
D35*
%TO.C,C36*%
X125444730Y-105972682D03*
X125444730Y-107872682D03*
%TD*%
D45*
%TO.C,C64*%
X109175000Y-135525000D03*
X107625000Y-135525000D03*
%TD*%
D75*
%TO.C,U15*%
X147500000Y-87705000D03*
X147000000Y-87705000D03*
X147000000Y-89295000D03*
X147500000Y-89295000D03*
%TD*%
D53*
%TO.C,R18*%
X146525000Y-102525000D03*
X144875000Y-102525000D03*
%TD*%
D76*
%TO.C,U19*%
X151362500Y-87550000D03*
X151362500Y-88500000D03*
X151362500Y-89450000D03*
X153637500Y-89450000D03*
X153637500Y-87550000D03*
%TD*%
D17*
%TO.C,C40*%
X150375000Y-91250000D03*
X151925000Y-91250000D03*
%TD*%
D27*
%TO.C,R7*%
X146187500Y-109425000D03*
X146187500Y-111075000D03*
%TD*%
D17*
%TO.C,C6*%
X173125000Y-102330000D03*
X174675000Y-102330000D03*
%TD*%
D45*
%TO.C,C14*%
X182390000Y-101300000D03*
X180840000Y-101300000D03*
%TD*%
D15*
%TO.C,R1*%
X164250000Y-132400000D03*
X165900000Y-132400000D03*
%TD*%
D31*
%TO.C,R56*%
X164950000Y-138625000D03*
X164950000Y-136975000D03*
%TD*%
D14*
%TO.C,D11*%
X114680000Y-106210000D03*
X114680000Y-107785000D03*
%TD*%
D16*
%TO.C,R58*%
X111990000Y-107080000D03*
X111990000Y-108100000D03*
%TD*%
D74*
%TO.C,R8*%
X146240000Y-123915000D03*
X145220000Y-123915000D03*
%TD*%
D77*
%TO.C,C71*%
X131500000Y-124200000D03*
X128550000Y-124200000D03*
%TD*%
D13*
%TO.C,C66*%
X119650000Y-125200000D03*
X119650000Y-123650000D03*
%TD*%
D14*
%TO.C,D15*%
X138400000Y-120812500D03*
X138400000Y-122387500D03*
%TD*%
D78*
%TO.C,U2*%
X166850001Y-89500000D03*
X166850001Y-90599999D03*
X166850001Y-91400000D03*
X166850001Y-92999998D03*
X167750001Y-93399998D03*
X166850001Y-93799999D03*
X167750001Y-94199999D03*
X166850001Y-94600000D03*
X167750001Y-95000000D03*
X166850001Y-95399998D03*
X167750001Y-95799998D03*
X166850001Y-96199999D03*
X167750001Y-96599999D03*
X166850001Y-96999998D03*
D79*
X166699998Y-100400000D03*
X167499999Y-100400000D03*
X168300000Y-100400000D03*
X169099999Y-100400000D03*
X169499999Y-99500000D03*
X169900000Y-100400000D03*
X170300000Y-99500000D03*
X170699998Y-100400000D03*
X171099998Y-99500000D03*
X171499999Y-100400000D03*
X171899999Y-99500000D03*
X172300000Y-100400000D03*
X172700000Y-99500000D03*
X173099998Y-100400000D03*
X173499998Y-99500000D03*
X173899999Y-100400000D03*
X174699998Y-100400000D03*
X175499999Y-100400000D03*
X176299997Y-100400000D03*
D78*
X176149997Y-99399998D03*
X176149997Y-98599998D03*
X175249997Y-98199998D03*
X176149997Y-97799998D03*
X175249997Y-97399998D03*
X176149997Y-96999999D03*
X175249997Y-96599999D03*
X176149997Y-96199998D03*
X175249997Y-95799998D03*
X175249997Y-95000000D03*
X176149997Y-94600000D03*
X175249997Y-94199999D03*
X176149997Y-93799999D03*
X175249997Y-93399998D03*
X176149997Y-92999998D03*
X175249997Y-92599998D03*
X175249997Y-91800000D03*
X176149997Y-91400000D03*
X175249997Y-90999999D03*
X176149997Y-90599999D03*
X175249997Y-90199999D03*
X176149997Y-89500000D03*
D79*
X169499999Y-93800000D03*
X170300000Y-93800000D03*
X171099998Y-93800000D03*
X171899999Y-93800000D03*
X172700000Y-93800000D03*
X173499998Y-93800000D03*
%TD*%
D52*
%TO.C,D9*%
X109000000Y-92287500D03*
X109000000Y-90712500D03*
%TD*%
D16*
%TO.C,R57*%
X112050000Y-96900000D03*
X112050000Y-97920000D03*
%TD*%
%TO.C,R40*%
X121400000Y-98990000D03*
X121400000Y-100010000D03*
%TD*%
D51*
%TO.C,C12*%
X138750000Y-102000000D03*
X138750000Y-103550000D03*
%TD*%
D80*
%TO.C,L9*%
X128224999Y-129074999D03*
X131534999Y-129074999D03*
%TD*%
D28*
%TO.C,R62*%
X111970000Y-114320000D03*
X111970000Y-113300000D03*
%TD*%
D81*
%TO.C,C52*%
X126340600Y-98450000D03*
X124765600Y-98450000D03*
%TD*%
D15*
%TO.C,R3*%
X164225000Y-134050000D03*
X165875000Y-134050000D03*
%TD*%
D28*
%TO.C,R42*%
X109000000Y-94620000D03*
X109000000Y-93600000D03*
%TD*%
D20*
%TO.C,C28*%
X133500000Y-114600000D03*
X133500000Y-112700000D03*
%TD*%
D51*
%TO.C,C11*%
X138437500Y-109475000D03*
X138437500Y-111025000D03*
%TD*%
D17*
%TO.C,C15*%
X182055000Y-93915000D03*
X183605000Y-93915000D03*
%TD*%
D18*
%TO.C,C73*%
X134600000Y-123980000D03*
X134600000Y-123020000D03*
%TD*%
D35*
%TO.C,C23*%
X123950000Y-117600000D03*
X123950000Y-119500000D03*
%TD*%
D71*
%TO.C,C38*%
X131850000Y-110650000D03*
X129950000Y-110650000D03*
%TD*%
D27*
%TO.C,R15*%
X119900000Y-111675000D03*
X119900000Y-113325000D03*
%TD*%
%TO.C,R54*%
X141450000Y-131025000D03*
X141450000Y-132675000D03*
%TD*%
D51*
%TO.C,C27*%
X146250000Y-132025000D03*
X146250000Y-133575000D03*
%TD*%
D53*
%TO.C,R26*%
X135575000Y-88850000D03*
X133925000Y-88850000D03*
%TD*%
D82*
%TO.C,D1*%
X167550000Y-134637500D03*
X168500000Y-134637500D03*
X169450000Y-134637500D03*
X169450000Y-132362500D03*
X168500000Y-132362500D03*
X167550000Y-132362500D03*
%TD*%
D34*
%TO.C,C8*%
X144730000Y-121685000D03*
X144730000Y-122645000D03*
%TD*%
D52*
%TO.C,D24*%
X114620000Y-123737500D03*
X114620000Y-122162500D03*
%TD*%
D76*
%TO.C,U12*%
X127605230Y-106900000D03*
X127605230Y-107850000D03*
X127605230Y-108800000D03*
X129880230Y-108800000D03*
X129880230Y-106900000D03*
%TD*%
D34*
%TO.C,C33*%
X113040000Y-123050000D03*
X113040000Y-124010000D03*
%TD*%
D15*
%TO.C,R23*%
X145250000Y-141300000D03*
X146900000Y-141300000D03*
%TD*%
D34*
%TO.C,C70*%
X126225000Y-127495000D03*
X126225000Y-128455000D03*
%TD*%
D18*
%TO.C,C32*%
X113080000Y-97890000D03*
X113080000Y-96930000D03*
%TD*%
D74*
%TO.C,R27*%
X120135000Y-129525000D03*
X119115000Y-129525000D03*
%TD*%
D34*
%TO.C,C55*%
X150330000Y-139970000D03*
X150330000Y-140930000D03*
%TD*%
D83*
%TO.C,L4*%
X129799999Y-101174999D03*
X129799999Y-98124999D03*
%TD*%
D45*
%TO.C,C18*%
X131850000Y-90700000D03*
X130300000Y-90700000D03*
%TD*%
D15*
%TO.C,R38*%
X176930000Y-132315000D03*
X178580000Y-132315000D03*
%TD*%
D14*
%TO.C,D20*%
X163300000Y-137012500D03*
X163300000Y-138587500D03*
%TD*%
D45*
%TO.C,C37*%
X126128100Y-103350000D03*
X124578100Y-103350000D03*
%TD*%
D31*
%TO.C,R53*%
X142000000Y-89420000D03*
X142000000Y-87770000D03*
%TD*%
D29*
%TO.C,Y1*%
X139899999Y-99624999D03*
X142099999Y-99624999D03*
X142099999Y-97924999D03*
X139899999Y-97924999D03*
%TD*%
D72*
%TO.C,Q1*%
X142425000Y-106698000D03*
X142425000Y-104798000D03*
X140550000Y-105748000D03*
%TD*%
D51*
%TO.C,C26*%
X114150000Y-130100000D03*
X114150000Y-131650000D03*
%TD*%
D52*
%TO.C,D14*%
X139860000Y-132617500D03*
X139860000Y-131042500D03*
%TD*%
D51*
%TO.C,C56*%
X149400000Y-136675000D03*
X149400000Y-138225000D03*
%TD*%
D84*
%TO.C,U8*%
X147007999Y-121784999D03*
X146499999Y-121784999D03*
X145991999Y-121784999D03*
X145991999Y-122714999D03*
X146499999Y-122714999D03*
X147007999Y-122714999D03*
%TD*%
D13*
%TO.C,C41*%
X142700000Y-92675000D03*
X142700000Y-91125000D03*
%TD*%
D85*
%TO.C,C68*%
X120110000Y-128500000D03*
X119150000Y-128500000D03*
%TD*%
D86*
%TO.C,L7*%
X150400000Y-127585000D03*
X150400000Y-126615000D03*
%TD*%
D31*
%TO.C,R5*%
X144437500Y-111075000D03*
X144437500Y-109425000D03*
%TD*%
D27*
%TO.C,TH1*%
X110700000Y-87475000D03*
X110700000Y-89125000D03*
%TD*%
D31*
%TO.C,R31*%
X112425000Y-131700000D03*
X112425000Y-130050000D03*
%TD*%
D87*
%TO.C,U16*%
X146937499Y-92674999D03*
X146937499Y-91474999D03*
X146162499Y-92674999D03*
X146162499Y-91474999D03*
D88*
X148099999Y-93049999D03*
X148099999Y-92399999D03*
X148099999Y-91749999D03*
X148099999Y-91099999D03*
X144999999Y-91099999D03*
X144999999Y-91749999D03*
X144999999Y-92399999D03*
X144999999Y-93049999D03*
%TD*%
D45*
%TO.C,C20*%
X149425000Y-135100000D03*
X147875000Y-135100000D03*
%TD*%
D71*
%TO.C,C51*%
X126703100Y-96650000D03*
X124803100Y-96650000D03*
%TD*%
D18*
%TO.C,C34*%
X113030000Y-108050000D03*
X113030000Y-107090000D03*
%TD*%
D28*
%TO.C,R41*%
X120300000Y-100010000D03*
X120300000Y-98990000D03*
%TD*%
D15*
%TO.C,R19*%
X119975000Y-90425000D03*
X121625000Y-90425000D03*
%TD*%
D34*
%TO.C,C9*%
X180922340Y-116482340D03*
X180922340Y-117442340D03*
%TD*%
D89*
%TO.C,F2*%
X116150000Y-92300000D03*
X113350000Y-92300000D03*
%TD*%
D90*
%TO.C,C10*%
X149189411Y-125789411D03*
X148510589Y-125110589D03*
%TD*%
D87*
%TO.C,U17*%
X155237499Y-92799999D03*
X155237499Y-91599999D03*
X154462499Y-92799999D03*
X154462499Y-91599999D03*
D88*
X156399999Y-93174999D03*
X156399999Y-92524999D03*
X156399999Y-91874999D03*
X156399999Y-91224999D03*
X153299999Y-91224999D03*
X153299999Y-91874999D03*
X153299999Y-92524999D03*
X153299999Y-93174999D03*
%TD*%
D27*
%TO.C,R55*%
X138400000Y-117500000D03*
X138400000Y-119150000D03*
%TD*%
D13*
%TO.C,C67*%
X121350000Y-125175000D03*
X121350000Y-123625000D03*
%TD*%
D28*
%TO.C,R13*%
X178830000Y-99975000D03*
X178830000Y-98955000D03*
%TD*%
D53*
%TO.C,R14*%
X135575000Y-87250000D03*
X133925000Y-87250000D03*
%TD*%
D15*
%TO.C,R37*%
X176955000Y-134165000D03*
X178605000Y-134165000D03*
%TD*%
D47*
%TO.C,C39*%
X122500000Y-99015000D03*
X122500000Y-99985000D03*
%TD*%
D28*
%TO.C,R29*%
X124725000Y-131730000D03*
X124725000Y-130710000D03*
%TD*%
D27*
%TO.C,R46*%
X122394730Y-106197682D03*
X122394730Y-107847682D03*
%TD*%
D53*
%TO.C,R17*%
X126100000Y-87100000D03*
X124450000Y-87100000D03*
%TD*%
D52*
%TO.C,D16*%
X177300000Y-127187500D03*
X177300000Y-125612500D03*
%TD*%
M02*
